<?xml version="1.0" encoding="utf-8" standalone="no"?>
<!DOCTYPE svg PUBLIC "-//W3C//DTD SVG 1.1//EN"
  "http://www.w3.org/Graphics/SVG/1.1/DTD/svg11.dtd">
<!-- Created with matplotlib (https://matplotlib.org/) -->
<svg height="208.48675pt" version="1.1" viewBox="0 0 413.80575 208.48675" width="413.80575pt" xmlns="http://www.w3.org/2000/svg" xmlns:xlink="http://www.w3.org/1999/xlink">
 <defs>
  <style type="text/css">
*{stroke-linecap:butt;stroke-linejoin:round;}
  </style>
 </defs>
 <g id="figure_1">
  <g id="patch_1">
   <path d="M 0 208.48675 
L 413.80575 208.48675 
L 413.80575 0 
L 0 0 
z
" style="fill:#ffffff;stroke:#ffffff;stroke-linejoin:miter;"/>
  </g>
  <g id="axes_1">
   <g id="patch_2">
    <path d="M 71.80575 187.82 
L 180.04575 187.82 
L 180.04575 21.5 
L 71.80575 21.5 
z
" style="fill:#ffffff;stroke:#7f7f7f;stroke-linejoin:miter;"/>
   </g>
   <g id="matplotlib.axis_1">
    <g id="xtick_1">
     <g id="line2d_1">
      <path clip-path="url(#p960ec75cd3)" d="M 76.72575 187.82 
L 76.72575 21.5 
" style="fill:none;stroke:#e5e5e5;stroke-width:0.8;"/>
     </g>
     <g id="line2d_2">
      <path d="M 76.72575 187.82 
" style="fill:none;stroke:#000000;stroke-width:1.5;"/>
      <defs>
       <path d="M 0 0 
L 0 2.75 
" id="m266d6d6497" style="stroke:#000000;"/>
      </defs>
      <g>
       <use style="stroke:#000000;" x="76.72575" xlink:href="#m266d6d6497" y="187.82"/>
      </g>
     </g>
     <g id="text_1">
      <!-- 0 -->
      <defs>
       <path d="M 31.78125 66.40625 
Q 24.171875 66.40625 20.328125 58.90625 
Q 16.5 51.421875 16.5 36.375 
Q 16.5 21.390625 20.328125 13.890625 
Q 24.171875 6.390625 31.78125 6.390625 
Q 39.453125 6.390625 43.28125 13.890625 
Q 47.125 21.390625 47.125 36.375 
Q 47.125 51.421875 43.28125 58.90625 
Q 39.453125 66.40625 31.78125 66.40625 
z
M 31.78125 74.21875 
Q 44.046875 74.21875 50.515625 64.515625 
Q 56.984375 54.828125 56.984375 36.375 
Q 56.984375 17.96875 50.515625 8.265625 
Q 44.046875 -1.421875 31.78125 -1.421875 
Q 19.53125 -1.421875 13.0625 8.265625 
Q 6.59375 17.96875 6.59375 36.375 
Q 6.59375 54.828125 13.0625 64.515625 
Q 19.53125 74.21875 31.78125 74.21875 
z
" id="DejaVuSans-48"/>
      </defs>
      <g style="fill:#4d4d4d;" transform="translate(73.92625 199.456625)scale(0.088 -0.088)">
       <use xlink:href="#DejaVuSans-48"/>
      </g>
     </g>
    </g>
    <g id="xtick_2">
     <g id="line2d_3">
      <path clip-path="url(#p960ec75cd3)" d="M 101.32575 187.82 
L 101.32575 21.5 
" style="fill:none;stroke:#e5e5e5;stroke-width:0.8;"/>
     </g>
     <g id="line2d_4">
      <path d="M 101.32575 187.82 
" style="fill:none;stroke:#000000;stroke-width:1.5;"/>
      <g>
       <use style="stroke:#000000;" x="101.32575" xlink:href="#m266d6d6497" y="187.82"/>
      </g>
     </g>
     <g id="text_2">
      <!-- 0.25 -->
      <defs>
       <path d="M 10.6875 12.40625 
L 21 12.40625 
L 21 0 
L 10.6875 0 
z
" id="DejaVuSans-46"/>
       <path d="M 19.1875 8.296875 
L 53.609375 8.296875 
L 53.609375 0 
L 7.328125 0 
L 7.328125 8.296875 
Q 12.9375 14.109375 22.625 23.890625 
Q 32.328125 33.6875 34.8125 36.53125 
Q 39.546875 41.84375 41.421875 45.53125 
Q 43.3125 49.21875 43.3125 52.78125 
Q 43.3125 58.59375 39.234375 62.25 
Q 35.15625 65.921875 28.609375 65.921875 
Q 23.96875 65.921875 18.8125 64.3125 
Q 13.671875 62.703125 7.8125 59.421875 
L 7.8125 69.390625 
Q 13.765625 71.78125 18.9375 73 
Q 24.125 74.21875 28.421875 74.21875 
Q 39.75 74.21875 46.484375 68.546875 
Q 53.21875 62.890625 53.21875 53.421875 
Q 53.21875 48.921875 51.53125 44.890625 
Q 49.859375 40.875 45.40625 35.40625 
Q 44.1875 33.984375 37.640625 27.21875 
Q 31.109375 20.453125 19.1875 8.296875 
z
" id="DejaVuSans-50"/>
       <path d="M 10.796875 72.90625 
L 49.515625 72.90625 
L 49.515625 64.59375 
L 19.828125 64.59375 
L 19.828125 46.734375 
Q 21.96875 47.46875 24.109375 47.828125 
Q 26.265625 48.1875 28.421875 48.1875 
Q 40.625 48.1875 47.75 41.5 
Q 54.890625 34.8125 54.890625 23.390625 
Q 54.890625 11.625 47.5625 5.09375 
Q 40.234375 -1.421875 26.90625 -1.421875 
Q 22.3125 -1.421875 17.546875 -0.640625 
Q 12.796875 0.140625 7.71875 1.703125 
L 7.71875 11.625 
Q 12.109375 9.234375 16.796875 8.0625 
Q 21.484375 6.890625 26.703125 6.890625 
Q 35.15625 6.890625 40.078125 11.328125 
Q 45.015625 15.765625 45.015625 23.390625 
Q 45.015625 31 40.078125 35.4375 
Q 35.15625 39.890625 26.703125 39.890625 
Q 22.75 39.890625 18.8125 39.015625 
Q 14.890625 38.140625 10.796875 36.28125 
z
" id="DejaVuSans-53"/>
      </defs>
      <g style="fill:#4d4d4d;" transform="translate(91.528875 199.456625)scale(0.088 -0.088)">
       <use xlink:href="#DejaVuSans-48"/>
       <use x="63.623047" xlink:href="#DejaVuSans-46"/>
       <use x="95.410156" xlink:href="#DejaVuSans-50"/>
       <use x="159.033203" xlink:href="#DejaVuSans-53"/>
      </g>
     </g>
    </g>
    <g id="xtick_3">
     <g id="line2d_5">
      <path clip-path="url(#p960ec75cd3)" d="M 125.92575 187.82 
L 125.92575 21.5 
" style="fill:none;stroke:#e5e5e5;stroke-width:0.8;"/>
     </g>
     <g id="line2d_6">
      <path d="M 125.92575 187.82 
" style="fill:none;stroke:#000000;stroke-width:1.5;"/>
      <g>
       <use style="stroke:#000000;" x="125.92575" xlink:href="#m266d6d6497" y="187.82"/>
      </g>
     </g>
     <g id="text_3">
      <!-- 0.50 -->
      <g style="fill:#4d4d4d;" transform="translate(116.128875 199.456625)scale(0.088 -0.088)">
       <use xlink:href="#DejaVuSans-48"/>
       <use x="63.623047" xlink:href="#DejaVuSans-46"/>
       <use x="95.410156" xlink:href="#DejaVuSans-53"/>
       <use x="159.033203" xlink:href="#DejaVuSans-48"/>
      </g>
     </g>
    </g>
    <g id="xtick_4">
     <g id="line2d_7">
      <path clip-path="url(#p960ec75cd3)" d="M 150.52575 187.82 
L 150.52575 21.5 
" style="fill:none;stroke:#e5e5e5;stroke-width:0.8;"/>
     </g>
     <g id="line2d_8">
      <path d="M 150.52575 187.82 
" style="fill:none;stroke:#000000;stroke-width:1.5;"/>
      <g>
       <use style="stroke:#000000;" x="150.52575" xlink:href="#m266d6d6497" y="187.82"/>
      </g>
     </g>
     <g id="text_4">
      <!-- 0.75 -->
      <defs>
       <path d="M 8.203125 72.90625 
L 55.078125 72.90625 
L 55.078125 68.703125 
L 28.609375 0 
L 18.3125 0 
L 43.21875 64.59375 
L 8.203125 64.59375 
z
" id="DejaVuSans-55"/>
      </defs>
      <g style="fill:#4d4d4d;" transform="translate(140.728875 199.456625)scale(0.088 -0.088)">
       <use xlink:href="#DejaVuSans-48"/>
       <use x="63.623047" xlink:href="#DejaVuSans-46"/>
       <use x="95.410156" xlink:href="#DejaVuSans-55"/>
       <use x="159.033203" xlink:href="#DejaVuSans-53"/>
      </g>
     </g>
    </g>
    <g id="xtick_5">
     <g id="line2d_9">
      <path clip-path="url(#p960ec75cd3)" d="M 175.12575 187.82 
L 175.12575 21.5 
" style="fill:none;stroke:#e5e5e5;stroke-width:0.8;"/>
     </g>
     <g id="line2d_10">
      <path d="M 175.12575 187.82 
" style="fill:none;stroke:#000000;stroke-width:1.5;"/>
      <g>
       <use style="stroke:#000000;" x="175.12575" xlink:href="#m266d6d6497" y="187.82"/>
      </g>
     </g>
     <g id="text_5">
      <!-- 1 -->
      <defs>
       <path d="M 12.40625 8.296875 
L 28.515625 8.296875 
L 28.515625 63.921875 
L 10.984375 60.40625 
L 10.984375 69.390625 
L 28.421875 72.90625 
L 38.28125 72.90625 
L 38.28125 8.296875 
L 54.390625 8.296875 
L 54.390625 0 
L 12.40625 0 
z
" id="DejaVuSans-49"/>
      </defs>
      <g style="fill:#4d4d4d;" transform="translate(172.32625 199.456625)scale(0.088 -0.088)">
       <use xlink:href="#DejaVuSans-49"/>
      </g>
     </g>
    </g>
    <g id="xtick_6">
     <g id="line2d_11">
      <path clip-path="url(#p960ec75cd3)" d="M 89.02575 187.82 
L 89.02575 21.5 
" style="fill:none;stroke:#fafafa;"/>
     </g>
     <g id="line2d_12">
      <path d="M 89.02575 187.82 
" style="fill:none;stroke:#000000;stroke-width:1.5;"/>
      <defs>
       <path d="M 0 0 
L 0 1.375 
" id="m481e80254a" style="stroke:#000000;"/>
      </defs>
      <g>
       <use style="stroke:#000000;" x="89.02575" xlink:href="#m481e80254a" y="187.82"/>
      </g>
     </g>
    </g>
    <g id="xtick_7">
     <g id="line2d_13">
      <path clip-path="url(#p960ec75cd3)" d="M 113.62575 187.82 
L 113.62575 21.5 
" style="fill:none;stroke:#fafafa;"/>
     </g>
     <g id="line2d_14">
      <path d="M 113.62575 187.82 
" style="fill:none;stroke:#000000;stroke-width:1.5;"/>
      <g>
       <use style="stroke:#000000;" x="113.62575" xlink:href="#m481e80254a" y="187.82"/>
      </g>
     </g>
    </g>
    <g id="xtick_8">
     <g id="line2d_15">
      <path clip-path="url(#p960ec75cd3)" d="M 138.22575 187.82 
L 138.22575 21.5 
" style="fill:none;stroke:#fafafa;"/>
     </g>
     <g id="line2d_16">
      <path d="M 138.22575 187.82 
" style="fill:none;stroke:#000000;stroke-width:1.5;"/>
      <g>
       <use style="stroke:#000000;" x="138.22575" xlink:href="#m481e80254a" y="187.82"/>
      </g>
     </g>
    </g>
    <g id="xtick_9">
     <g id="line2d_17">
      <path clip-path="url(#p960ec75cd3)" d="M 162.82575 187.82 
L 162.82575 21.5 
" style="fill:none;stroke:#fafafa;"/>
     </g>
     <g id="line2d_18">
      <path d="M 162.82575 187.82 
" style="fill:none;stroke:#000000;stroke-width:1.5;"/>
      <g>
       <use style="stroke:#000000;" x="162.82575" xlink:href="#m481e80254a" y="187.82"/>
      </g>
     </g>
    </g>
   </g>
   <g id="matplotlib.axis_2">
    <g id="ytick_1">
     <g id="line2d_19">
      <path clip-path="url(#p960ec75cd3)" d="M 71.80575 171.724516 
L 180.04575 171.724516 
" style="fill:none;stroke:#e5e5e5;stroke-width:0.8;"/>
     </g>
     <g id="line2d_20">
      <path d="M 71.80575 171.724516 
" style="fill:none;stroke:#000000;stroke-width:1.5;"/>
      <defs>
       <path d="M 0 0 
L -2.75 0 
" id="m306ca679b1" style="stroke:#000000;"/>
      </defs>
      <g>
       <use style="stroke:#000000;" x="71.80575" xlink:href="#m306ca679b1" y="171.724516"/>
      </g>
     </g>
     <g id="text_6">
      <!-- IGT -->
      <defs>
       <path d="M 9.8125 72.90625 
L 19.671875 72.90625 
L 19.671875 0 
L 9.8125 0 
z
" id="DejaVuSans-73"/>
       <path d="M 59.515625 10.40625 
L 59.515625 29.984375 
L 43.40625 29.984375 
L 43.40625 38.09375 
L 69.28125 38.09375 
L 69.28125 6.78125 
Q 63.578125 2.734375 56.6875 0.65625 
Q 49.8125 -1.421875 42 -1.421875 
Q 24.90625 -1.421875 15.25 8.5625 
Q 5.609375 18.5625 5.609375 36.375 
Q 5.609375 54.25 15.25 64.234375 
Q 24.90625 74.21875 42 74.21875 
Q 49.125 74.21875 55.546875 72.453125 
Q 61.96875 70.703125 67.390625 67.28125 
L 67.390625 56.78125 
Q 61.921875 61.421875 55.765625 63.765625 
Q 49.609375 66.109375 42.828125 66.109375 
Q 29.4375 66.109375 22.71875 58.640625 
Q 16.015625 51.171875 16.015625 36.375 
Q 16.015625 21.625 22.71875 14.15625 
Q 29.4375 6.6875 42.828125 6.6875 
Q 48.046875 6.6875 52.140625 7.59375 
Q 56.25 8.5 59.515625 10.40625 
z
" id="DejaVuSans-71"/>
       <path d="M -0.296875 72.90625 
L 61.375 72.90625 
L 61.375 64.59375 
L 35.5 64.59375 
L 35.5 0 
L 25.59375 0 
L 25.59375 64.59375 
L -0.296875 64.59375 
z
" id="DejaVuSans-84"/>
      </defs>
      <g style="fill:#4d4d4d;" transform="translate(52.070375 174.152766)scale(0.088 -0.088)">
       <use xlink:href="#DejaVuSans-73"/>
       <use x="29.492188" xlink:href="#DejaVuSans-71"/>
       <use x="106.935547" xlink:href="#DejaVuSans-84"/>
      </g>
     </g>
    </g>
    <g id="ytick_2">
     <g id="line2d_21">
      <path clip-path="url(#p960ec75cd3)" d="M 71.80575 144.89871 
L 180.04575 144.89871 
" style="fill:none;stroke:#e5e5e5;stroke-width:0.8;"/>
     </g>
     <g id="line2d_22">
      <path d="M 71.80575 144.89871 
" style="fill:none;stroke:#000000;stroke-width:1.5;"/>
      <g>
       <use style="stroke:#000000;" x="71.80575" xlink:href="#m306ca679b1" y="144.89871"/>
      </g>
     </g>
     <g id="text_7">
      <!-- NGT -->
      <defs>
       <path d="M 9.8125 72.90625 
L 23.09375 72.90625 
L 55.421875 11.921875 
L 55.421875 72.90625 
L 64.984375 72.90625 
L 64.984375 0 
L 51.703125 0 
L 19.390625 60.984375 
L 19.390625 0 
L 9.8125 0 
z
" id="DejaVuSans-78"/>
      </defs>
      <g style="fill:#4d4d4d;" transform="translate(48.082875 147.32696)scale(0.088 -0.088)">
       <use xlink:href="#DejaVuSans-78"/>
       <use x="74.804688" xlink:href="#DejaVuSans-71"/>
       <use x="152.248047" xlink:href="#DejaVuSans-84"/>
      </g>
     </g>
    </g>
    <g id="ytick_3">
     <g id="line2d_23">
      <path clip-path="url(#p960ec75cd3)" d="M 71.80575 118.072903 
L 180.04575 118.072903 
" style="fill:none;stroke:#e5e5e5;stroke-width:0.8;"/>
     </g>
     <g id="line2d_24">
      <path d="M 71.80575 118.072903 
" style="fill:none;stroke:#000000;stroke-width:1.5;"/>
      <g>
       <use style="stroke:#000000;" x="71.80575" xlink:href="#m306ca679b1" y="118.072903"/>
      </g>
     </g>
     <g id="text_8">
      <!-- T2D -->
      <defs>
       <path d="M 19.671875 64.796875 
L 19.671875 8.109375 
L 31.59375 8.109375 
Q 46.6875 8.109375 53.6875 14.9375 
Q 60.6875 21.78125 60.6875 36.53125 
Q 60.6875 51.171875 53.6875 57.984375 
Q 46.6875 64.796875 31.59375 64.796875 
z
M 9.8125 72.90625 
L 30.078125 72.90625 
Q 51.265625 72.90625 61.171875 64.09375 
Q 71.09375 55.28125 71.09375 36.53125 
Q 71.09375 17.671875 61.125 8.828125 
Q 51.171875 0 30.078125 0 
L 9.8125 0 
z
" id="DejaVuSans-68"/>
      </defs>
      <g style="fill:#4d4d4d;" transform="translate(49.105875 120.501153)scale(0.088 -0.088)">
       <use xlink:href="#DejaVuSans-84"/>
       <use x="61.083984" xlink:href="#DejaVuSans-50"/>
       <use x="124.707031" xlink:href="#DejaVuSans-68"/>
      </g>
     </g>
    </g>
    <g id="ytick_4">
     <g id="line2d_25">
      <path clip-path="url(#p960ec75cd3)" d="M 71.80575 91.247097 
L 180.04575 91.247097 
" style="fill:none;stroke:#e5e5e5;stroke-width:0.8;"/>
     </g>
     <g id="line2d_26">
      <path d="M 71.80575 91.247097 
" style="fill:none;stroke:#000000;stroke-width:1.5;"/>
      <g>
       <use style="stroke:#000000;" x="71.80575" xlink:href="#m306ca679b1" y="91.247097"/>
      </g>
     </g>
     <g id="text_9">
      <!-- accuracy -->
      <defs>
       <path d="M 34.28125 27.484375 
Q 23.390625 27.484375 19.1875 25 
Q 14.984375 22.515625 14.984375 16.5 
Q 14.984375 11.71875 18.140625 8.90625 
Q 21.296875 6.109375 26.703125 6.109375 
Q 34.1875 6.109375 38.703125 11.40625 
Q 43.21875 16.703125 43.21875 25.484375 
L 43.21875 27.484375 
z
M 52.203125 31.203125 
L 52.203125 0 
L 43.21875 0 
L 43.21875 8.296875 
Q 40.140625 3.328125 35.546875 0.953125 
Q 30.953125 -1.421875 24.3125 -1.421875 
Q 15.921875 -1.421875 10.953125 3.296875 
Q 6 8.015625 6 15.921875 
Q 6 25.140625 12.171875 29.828125 
Q 18.359375 34.515625 30.609375 34.515625 
L 43.21875 34.515625 
L 43.21875 35.40625 
Q 43.21875 41.609375 39.140625 45 
Q 35.0625 48.390625 27.6875 48.390625 
Q 23 48.390625 18.546875 47.265625 
Q 14.109375 46.140625 10.015625 43.890625 
L 10.015625 52.203125 
Q 14.9375 54.109375 19.578125 55.046875 
Q 24.21875 56 28.609375 56 
Q 40.484375 56 46.34375 49.84375 
Q 52.203125 43.703125 52.203125 31.203125 
z
" id="DejaVuSans-97"/>
       <path d="M 48.78125 52.59375 
L 48.78125 44.1875 
Q 44.96875 46.296875 41.140625 47.34375 
Q 37.3125 48.390625 33.40625 48.390625 
Q 24.65625 48.390625 19.8125 42.84375 
Q 14.984375 37.3125 14.984375 27.296875 
Q 14.984375 17.28125 19.8125 11.734375 
Q 24.65625 6.203125 33.40625 6.203125 
Q 37.3125 6.203125 41.140625 7.25 
Q 44.96875 8.296875 48.78125 10.40625 
L 48.78125 2.09375 
Q 45.015625 0.34375 40.984375 -0.53125 
Q 36.96875 -1.421875 32.421875 -1.421875 
Q 20.0625 -1.421875 12.78125 6.34375 
Q 5.515625 14.109375 5.515625 27.296875 
Q 5.515625 40.671875 12.859375 48.328125 
Q 20.21875 56 33.015625 56 
Q 37.15625 56 41.109375 55.140625 
Q 45.0625 54.296875 48.78125 52.59375 
z
" id="DejaVuSans-99"/>
       <path d="M 8.5 21.578125 
L 8.5 54.6875 
L 17.484375 54.6875 
L 17.484375 21.921875 
Q 17.484375 14.15625 20.5 10.265625 
Q 23.53125 6.390625 29.59375 6.390625 
Q 36.859375 6.390625 41.078125 11.03125 
Q 45.3125 15.671875 45.3125 23.6875 
L 45.3125 54.6875 
L 54.296875 54.6875 
L 54.296875 0 
L 45.3125 0 
L 45.3125 8.40625 
Q 42.046875 3.421875 37.71875 1 
Q 33.40625 -1.421875 27.6875 -1.421875 
Q 18.265625 -1.421875 13.375 4.4375 
Q 8.5 10.296875 8.5 21.578125 
z
M 31.109375 56 
z
" id="DejaVuSans-117"/>
       <path d="M 41.109375 46.296875 
Q 39.59375 47.171875 37.8125 47.578125 
Q 36.03125 48 33.890625 48 
Q 26.265625 48 22.1875 43.046875 
Q 18.109375 38.09375 18.109375 28.8125 
L 18.109375 0 
L 9.078125 0 
L 9.078125 54.6875 
L 18.109375 54.6875 
L 18.109375 46.1875 
Q 20.953125 51.171875 25.484375 53.578125 
Q 30.03125 56 36.53125 56 
Q 37.453125 56 38.578125 55.875 
Q 39.703125 55.765625 41.0625 55.515625 
z
" id="DejaVuSans-114"/>
       <path d="M 32.171875 -5.078125 
Q 28.375 -14.84375 24.75 -17.8125 
Q 21.140625 -20.796875 15.09375 -20.796875 
L 7.90625 -20.796875 
L 7.90625 -13.28125 
L 13.1875 -13.28125 
Q 16.890625 -13.28125 18.9375 -11.515625 
Q 21 -9.765625 23.484375 -3.21875 
L 25.09375 0.875 
L 2.984375 54.6875 
L 12.5 54.6875 
L 29.59375 11.921875 
L 46.6875 54.6875 
L 56.203125 54.6875 
z
" id="DejaVuSans-121"/>
      </defs>
      <g style="fill:#4d4d4d;" transform="translate(27.15125 93.675347)scale(0.088 -0.088)">
       <use xlink:href="#DejaVuSans-97"/>
       <use x="61.279297" xlink:href="#DejaVuSans-99"/>
       <use x="116.259766" xlink:href="#DejaVuSans-99"/>
       <use x="171.240234" xlink:href="#DejaVuSans-117"/>
       <use x="234.619141" xlink:href="#DejaVuSans-114"/>
       <use x="275.732422" xlink:href="#DejaVuSans-97"/>
       <use x="337.011719" xlink:href="#DejaVuSans-99"/>
       <use x="391.992188" xlink:href="#DejaVuSans-121"/>
      </g>
     </g>
    </g>
    <g id="ytick_5">
     <g id="line2d_27">
      <path clip-path="url(#p960ec75cd3)" d="M 71.80575 64.42129 
L 180.04575 64.42129 
" style="fill:none;stroke:#e5e5e5;stroke-width:0.8;"/>
     </g>
     <g id="line2d_28">
      <path d="M 71.80575 64.42129 
" style="fill:none;stroke:#000000;stroke-width:1.5;"/>
      <g>
       <use style="stroke:#000000;" x="71.80575" xlink:href="#m306ca679b1" y="64.42129"/>
      </g>
     </g>
     <g id="text_10">
      <!-- macro avg -->
      <defs>
       <path d="M 52 44.1875 
Q 55.375 50.25 60.0625 53.125 
Q 64.75 56 71.09375 56 
Q 79.640625 56 84.28125 50.015625 
Q 88.921875 44.046875 88.921875 33.015625 
L 88.921875 0 
L 79.890625 0 
L 79.890625 32.71875 
Q 79.890625 40.578125 77.09375 44.375 
Q 74.3125 48.1875 68.609375 48.1875 
Q 61.625 48.1875 57.5625 43.546875 
Q 53.515625 38.921875 53.515625 30.90625 
L 53.515625 0 
L 44.484375 0 
L 44.484375 32.71875 
Q 44.484375 40.625 41.703125 44.40625 
Q 38.921875 48.1875 33.109375 48.1875 
Q 26.21875 48.1875 22.15625 43.53125 
Q 18.109375 38.875 18.109375 30.90625 
L 18.109375 0 
L 9.078125 0 
L 9.078125 54.6875 
L 18.109375 54.6875 
L 18.109375 46.1875 
Q 21.1875 51.21875 25.484375 53.609375 
Q 29.78125 56 35.6875 56 
Q 41.65625 56 45.828125 52.96875 
Q 50 49.953125 52 44.1875 
z
" id="DejaVuSans-109"/>
       <path d="M 30.609375 48.390625 
Q 23.390625 48.390625 19.1875 42.75 
Q 14.984375 37.109375 14.984375 27.296875 
Q 14.984375 17.484375 19.15625 11.84375 
Q 23.34375 6.203125 30.609375 6.203125 
Q 37.796875 6.203125 41.984375 11.859375 
Q 46.1875 17.53125 46.1875 27.296875 
Q 46.1875 37.015625 41.984375 42.703125 
Q 37.796875 48.390625 30.609375 48.390625 
z
M 30.609375 56 
Q 42.328125 56 49.015625 48.375 
Q 55.71875 40.765625 55.71875 27.296875 
Q 55.71875 13.875 49.015625 6.21875 
Q 42.328125 -1.421875 30.609375 -1.421875 
Q 18.84375 -1.421875 12.171875 6.21875 
Q 5.515625 13.875 5.515625 27.296875 
Q 5.515625 40.765625 12.171875 48.375 
Q 18.84375 56 30.609375 56 
z
" id="DejaVuSans-111"/>
       <path id="DejaVuSans-32"/>
       <path d="M 2.984375 54.6875 
L 12.5 54.6875 
L 29.59375 8.796875 
L 46.6875 54.6875 
L 56.203125 54.6875 
L 35.6875 0 
L 23.484375 0 
z
" id="DejaVuSans-118"/>
       <path d="M 45.40625 27.984375 
Q 45.40625 37.75 41.375 43.109375 
Q 37.359375 48.484375 30.078125 48.484375 
Q 22.859375 48.484375 18.828125 43.109375 
Q 14.796875 37.75 14.796875 27.984375 
Q 14.796875 18.265625 18.828125 12.890625 
Q 22.859375 7.515625 30.078125 7.515625 
Q 37.359375 7.515625 41.375 12.890625 
Q 45.40625 18.265625 45.40625 27.984375 
z
M 54.390625 6.78125 
Q 54.390625 -7.171875 48.1875 -13.984375 
Q 42 -20.796875 29.203125 -20.796875 
Q 24.46875 -20.796875 20.265625 -20.09375 
Q 16.0625 -19.390625 12.109375 -17.921875 
L 12.109375 -9.1875 
Q 16.0625 -11.328125 19.921875 -12.34375 
Q 23.78125 -13.375 27.78125 -13.375 
Q 36.625 -13.375 41.015625 -8.765625 
Q 45.40625 -4.15625 45.40625 5.171875 
L 45.40625 9.625 
Q 42.625 4.78125 38.28125 2.390625 
Q 33.9375 0 27.875 0 
Q 17.828125 0 11.671875 7.65625 
Q 5.515625 15.328125 5.515625 27.984375 
Q 5.515625 40.671875 11.671875 48.328125 
Q 17.828125 56 27.875 56 
Q 33.9375 56 38.28125 53.609375 
Q 42.625 51.21875 45.40625 46.390625 
L 45.40625 54.6875 
L 54.390625 54.6875 
z
" id="DejaVuSans-103"/>
      </defs>
      <g style="fill:#4d4d4d;" transform="translate(20.068625 66.84954)scale(0.088 -0.088)">
       <use xlink:href="#DejaVuSans-109"/>
       <use x="97.412109" xlink:href="#DejaVuSans-97"/>
       <use x="158.691406" xlink:href="#DejaVuSans-99"/>
       <use x="213.671875" xlink:href="#DejaVuSans-114"/>
       <use x="254.753906" xlink:href="#DejaVuSans-111"/>
       <use x="315.935547" xlink:href="#DejaVuSans-32"/>
       <use x="347.722656" xlink:href="#DejaVuSans-97"/>
       <use x="409.001953" xlink:href="#DejaVuSans-118"/>
       <use x="468.181641" xlink:href="#DejaVuSans-103"/>
      </g>
     </g>
    </g>
    <g id="ytick_6">
     <g id="line2d_29">
      <path clip-path="url(#p960ec75cd3)" d="M 71.80575 37.595484 
L 180.04575 37.595484 
" style="fill:none;stroke:#e5e5e5;stroke-width:0.8;"/>
     </g>
     <g id="line2d_30">
      <path d="M 71.80575 37.595484 
" style="fill:none;stroke:#000000;stroke-width:1.5;"/>
      <g>
       <use style="stroke:#000000;" x="71.80575" xlink:href="#m306ca679b1" y="37.595484"/>
      </g>
     </g>
     <g id="text_11">
      <!-- weighted avg -->
      <defs>
       <path d="M 4.203125 54.6875 
L 13.1875 54.6875 
L 24.421875 12.015625 
L 35.59375 54.6875 
L 46.1875 54.6875 
L 57.421875 12.015625 
L 68.609375 54.6875 
L 77.59375 54.6875 
L 63.28125 0 
L 52.6875 0 
L 40.921875 44.828125 
L 29.109375 0 
L 18.5 0 
z
" id="DejaVuSans-119"/>
       <path d="M 56.203125 29.59375 
L 56.203125 25.203125 
L 14.890625 25.203125 
Q 15.484375 15.921875 20.484375 11.0625 
Q 25.484375 6.203125 34.421875 6.203125 
Q 39.59375 6.203125 44.453125 7.46875 
Q 49.3125 8.734375 54.109375 11.28125 
L 54.109375 2.78125 
Q 49.265625 0.734375 44.1875 -0.34375 
Q 39.109375 -1.421875 33.890625 -1.421875 
Q 20.796875 -1.421875 13.15625 6.1875 
Q 5.515625 13.8125 5.515625 26.8125 
Q 5.515625 40.234375 12.765625 48.109375 
Q 20.015625 56 32.328125 56 
Q 43.359375 56 49.78125 48.890625 
Q 56.203125 41.796875 56.203125 29.59375 
z
M 47.21875 32.234375 
Q 47.125 39.59375 43.09375 43.984375 
Q 39.0625 48.390625 32.421875 48.390625 
Q 24.90625 48.390625 20.390625 44.140625 
Q 15.875 39.890625 15.1875 32.171875 
z
" id="DejaVuSans-101"/>
       <path d="M 9.421875 54.6875 
L 18.40625 54.6875 
L 18.40625 0 
L 9.421875 0 
z
M 9.421875 75.984375 
L 18.40625 75.984375 
L 18.40625 64.59375 
L 9.421875 64.59375 
z
" id="DejaVuSans-105"/>
       <path d="M 54.890625 33.015625 
L 54.890625 0 
L 45.90625 0 
L 45.90625 32.71875 
Q 45.90625 40.484375 42.875 44.328125 
Q 39.84375 48.1875 33.796875 48.1875 
Q 26.515625 48.1875 22.3125 43.546875 
Q 18.109375 38.921875 18.109375 30.90625 
L 18.109375 0 
L 9.078125 0 
L 9.078125 75.984375 
L 18.109375 75.984375 
L 18.109375 46.1875 
Q 21.34375 51.125 25.703125 53.5625 
Q 30.078125 56 35.796875 56 
Q 45.21875 56 50.046875 50.171875 
Q 54.890625 44.34375 54.890625 33.015625 
z
" id="DejaVuSans-104"/>
       <path d="M 18.3125 70.21875 
L 18.3125 54.6875 
L 36.8125 54.6875 
L 36.8125 47.703125 
L 18.3125 47.703125 
L 18.3125 18.015625 
Q 18.3125 11.328125 20.140625 9.421875 
Q 21.96875 7.515625 27.59375 7.515625 
L 36.8125 7.515625 
L 36.8125 0 
L 27.59375 0 
Q 17.1875 0 13.234375 3.875 
Q 9.28125 7.765625 9.28125 18.015625 
L 9.28125 47.703125 
L 2.6875 47.703125 
L 2.6875 54.6875 
L 9.28125 54.6875 
L 9.28125 70.21875 
z
" id="DejaVuSans-116"/>
       <path d="M 45.40625 46.390625 
L 45.40625 75.984375 
L 54.390625 75.984375 
L 54.390625 0 
L 45.40625 0 
L 45.40625 8.203125 
Q 42.578125 3.328125 38.25 0.953125 
Q 33.9375 -1.421875 27.875 -1.421875 
Q 17.96875 -1.421875 11.734375 6.484375 
Q 5.515625 14.40625 5.515625 27.296875 
Q 5.515625 40.1875 11.734375 48.09375 
Q 17.96875 56 27.875 56 
Q 33.9375 56 38.25 53.625 
Q 42.578125 51.265625 45.40625 46.390625 
z
M 14.796875 27.296875 
Q 14.796875 17.390625 18.875 11.75 
Q 22.953125 6.109375 30.078125 6.109375 
Q 37.203125 6.109375 41.296875 11.75 
Q 45.40625 17.390625 45.40625 27.296875 
Q 45.40625 37.203125 41.296875 42.84375 
Q 37.203125 48.484375 30.078125 48.484375 
Q 22.953125 48.484375 18.875 42.84375 
Q 14.796875 37.203125 14.796875 27.296875 
z
" id="DejaVuSans-100"/>
      </defs>
      <g style="fill:#4d4d4d;" transform="translate(7.2 40.023734)scale(0.088 -0.088)">
       <use xlink:href="#DejaVuSans-119"/>
       <use x="81.787109" xlink:href="#DejaVuSans-101"/>
       <use x="143.310547" xlink:href="#DejaVuSans-105"/>
       <use x="171.09375" xlink:href="#DejaVuSans-103"/>
       <use x="234.570312" xlink:href="#DejaVuSans-104"/>
       <use x="297.949219" xlink:href="#DejaVuSans-116"/>
       <use x="337.158203" xlink:href="#DejaVuSans-101"/>
       <use x="398.681641" xlink:href="#DejaVuSans-100"/>
       <use x="462.158203" xlink:href="#DejaVuSans-32"/>
       <use x="493.945312" xlink:href="#DejaVuSans-97"/>
       <use x="555.224609" xlink:href="#DejaVuSans-118"/>
       <use x="614.404297" xlink:href="#DejaVuSans-103"/>
      </g>
     </g>
    </g>
   </g>
   <g id="PathCollection_1">
    <path clip-path="url(#p960ec75cd3)" d="M 118.05375 173.49697 
C 118.52381 173.49697 118.974681 173.310213 119.307064 172.97783 
C 119.639447 172.645447 119.826204 172.194576 119.826204 171.724516 
C 119.826204 171.254456 119.639447 170.803585 119.307064 170.471202 
C 118.974681 170.138819 118.52381 169.952062 118.05375 169.952062 
C 117.58369 169.952062 117.132819 170.138819 116.800436 170.471202 
C 116.468053 170.803585 116.281296 171.254456 116.281296 171.724516 
C 116.281296 172.194576 116.468053 172.645447 116.800436 172.97783 
C 117.132819 173.310213 117.58369 173.49697 118.05375 173.49697 
z
" style="fill:#db5f57;stroke:#000000;stroke-width:0.886227;"/>
    <path clip-path="url(#p960ec75cd3)" d="M 127.89375 146.671164 
C 128.36381 146.671164 128.814681 146.484407 129.147064 146.152024 
C 129.479447 145.819641 129.666204 145.36877 129.666204 144.89871 
C 129.666204 144.428649 129.479447 143.977778 129.147064 143.645396 
C 128.814681 143.313013 128.36381 143.126256 127.89375 143.126256 
C 127.42369 143.126256 126.972819 143.313013 126.640436 143.645396 
C 126.308053 143.977778 126.121296 144.428649 126.121296 144.89871 
C 126.121296 145.36877 126.308053 145.819641 126.640436 146.152024 
C 126.972819 146.484407 127.42369 146.671164 127.89375 146.671164 
z
" style="fill:#d3db57;stroke:#000000;stroke-width:0.886227;"/>
    <path clip-path="url(#p960ec75cd3)" d="M 122.97375 119.845357 
C 123.44381 119.845357 123.894681 119.6586 124.227064 119.326217 
C 124.559447 118.993835 124.746204 118.542963 124.746204 118.072903 
C 124.746204 117.602843 124.559447 117.151972 124.227064 116.819589 
C 123.894681 116.487206 123.44381 116.300449 122.97375 116.300449 
C 122.50369 116.300449 122.052819 116.487206 121.720436 116.819589 
C 121.388053 117.151972 121.201296 117.602843 121.201296 118.072903 
C 121.201296 118.542963 121.388053 118.993835 121.720436 119.326217 
C 122.052819 119.6586 122.50369 119.845357 122.97375 119.845357 
z
" style="fill:#57db5f;stroke:#000000;stroke-width:0.886227;"/>
    <path clip-path="url(#p960ec75cd3)" d="M 122.97375 93.019551 
C 123.44381 93.019551 123.894681 92.832794 124.227064 92.500411 
C 124.559447 92.168028 124.746204 91.717157 124.746204 91.247097 
C 124.746204 90.777037 124.559447 90.326165 124.227064 89.993783 
C 123.894681 89.6614 123.44381 89.474643 122.97375 89.474643 
C 122.50369 89.474643 122.052819 89.6614 121.720436 89.993783 
C 121.388053 90.326165 121.201296 90.777037 121.201296 91.247097 
C 121.201296 91.717157 121.388053 92.168028 121.720436 92.500411 
C 122.052819 92.832794 122.50369 93.019551 122.97375 93.019551 
z
" style="fill:#57d3db;stroke:#000000;stroke-width:0.886227;"/>
    <path clip-path="url(#p960ec75cd3)" d="M 122.97375 66.193744 
C 123.44381 66.193744 123.894681 66.006987 124.227064 65.674604 
C 124.559447 65.342222 124.746204 64.891351 124.746204 64.42129 
C 124.746204 63.95123 124.559447 63.500359 124.227064 63.167976 
C 123.894681 62.835593 123.44381 62.648836 122.97375 62.648836 
C 122.50369 62.648836 122.052819 62.835593 121.720436 63.167976 
C 121.388053 63.500359 121.201296 63.95123 121.201296 64.42129 
C 121.201296 64.891351 121.388053 65.342222 121.720436 65.674604 
C 122.052819 66.006987 122.50369 66.193744 122.97375 66.193744 
z
" style="fill:#5f57db;stroke:#000000;stroke-width:0.886227;"/>
    <path clip-path="url(#p960ec75cd3)" d="M 122.97375 39.367938 
C 123.44381 39.367938 123.894681 39.181181 124.227064 38.848798 
C 124.559447 38.516415 124.746204 38.065544 124.746204 37.595484 
C 124.746204 37.125424 124.559447 36.674553 124.227064 36.34217 
C 123.894681 36.009787 123.44381 35.82303 122.97375 35.82303 
C 122.50369 35.82303 122.052819 36.009787 121.720436 36.34217 
C 121.388053 36.674553 121.201296 37.125424 121.201296 37.595484 
C 121.201296 38.065544 121.388053 38.516415 121.720436 38.848798 
C 122.052819 39.181181 122.50369 39.367938 122.97375 39.367938 
z
" style="fill:#db57d3;stroke:#000000;stroke-width:0.886227;"/>
   </g>
   <g id="patch_3">
    <path d="M 71.80575 21.5 
L 180.04575 21.5 
L 180.04575 7.2 
L 71.80575 7.2 
z
" style="fill:#cccccc;stroke:#7f7f7f;stroke-linejoin:miter;"/>
   </g>
   <g id="text_12">
    <!-- f1-score -->
    <defs>
     <path d="M 37.109375 75.984375 
L 37.109375 68.5 
L 28.515625 68.5 
Q 23.6875 68.5 21.796875 66.546875 
Q 19.921875 64.59375 19.921875 59.515625 
L 19.921875 54.6875 
L 34.71875 54.6875 
L 34.71875 47.703125 
L 19.921875 47.703125 
L 19.921875 0 
L 10.890625 0 
L 10.890625 47.703125 
L 2.296875 47.703125 
L 2.296875 54.6875 
L 10.890625 54.6875 
L 10.890625 58.5 
Q 10.890625 67.625 15.140625 71.796875 
Q 19.390625 75.984375 28.609375 75.984375 
z
" id="DejaVuSans-102"/>
     <path d="M 4.890625 31.390625 
L 31.203125 31.390625 
L 31.203125 23.390625 
L 4.890625 23.390625 
z
" id="DejaVuSans-45"/>
     <path d="M 44.28125 53.078125 
L 44.28125 44.578125 
Q 40.484375 46.53125 36.375 47.5 
Q 32.28125 48.484375 27.875 48.484375 
Q 21.1875 48.484375 17.84375 46.4375 
Q 14.5 44.390625 14.5 40.28125 
Q 14.5 37.15625 16.890625 35.375 
Q 19.28125 33.59375 26.515625 31.984375 
L 29.59375 31.296875 
Q 39.15625 29.25 43.1875 25.515625 
Q 47.21875 21.78125 47.21875 15.09375 
Q 47.21875 7.46875 41.1875 3.015625 
Q 35.15625 -1.421875 24.609375 -1.421875 
Q 20.21875 -1.421875 15.453125 -0.5625 
Q 10.6875 0.296875 5.421875 2 
L 5.421875 11.28125 
Q 10.40625 8.6875 15.234375 7.390625 
Q 20.0625 6.109375 24.8125 6.109375 
Q 31.15625 6.109375 34.5625 8.28125 
Q 37.984375 10.453125 37.984375 14.40625 
Q 37.984375 18.0625 35.515625 20.015625 
Q 33.0625 21.96875 24.703125 23.78125 
L 21.578125 24.515625 
Q 13.234375 26.265625 9.515625 29.90625 
Q 5.8125 33.546875 5.8125 39.890625 
Q 5.8125 47.609375 11.28125 51.796875 
Q 16.75 56 26.8125 56 
Q 31.78125 56 36.171875 55.265625 
Q 40.578125 54.546875 44.28125 53.078125 
z
" id="DejaVuSans-115"/>
    </defs>
    <g style="fill:#1a1a1a;" transform="translate(108.071375 16.77825)scale(0.088 -0.088)">
     <use xlink:href="#DejaVuSans-102"/>
     <use x="35.205078" xlink:href="#DejaVuSans-49"/>
     <use x="98.828125" xlink:href="#DejaVuSans-45"/>
     <use x="134.912109" xlink:href="#DejaVuSans-115"/>
     <use x="187.011719" xlink:href="#DejaVuSans-99"/>
     <use x="241.992188" xlink:href="#DejaVuSans-111"/>
     <use x="303.173828" xlink:href="#DejaVuSans-114"/>
     <use x="344.255859" xlink:href="#DejaVuSans-101"/>
    </g>
   </g>
  </g>
  <g id="axes_2">
   <g id="patch_4">
    <path d="M 185.08575 187.82 
L 293.32575 187.82 
L 293.32575 21.5 
L 185.08575 21.5 
z
" style="fill:#ffffff;stroke:#7f7f7f;stroke-linejoin:miter;"/>
   </g>
   <g id="matplotlib.axis_3">
    <g id="xtick_10">
     <g id="line2d_31">
      <path clip-path="url(#p21f3743f81)" d="M 190.00575 187.82 
L 190.00575 21.5 
" style="fill:none;stroke:#e5e5e5;stroke-linecap:square;stroke-width:0.8;"/>
     </g>
     <g id="line2d_32">
      <path d="M 190.00575 187.82 
" style="fill:none;stroke:#000000;stroke-linecap:square;stroke-width:1.5;"/>
      <g>
       <use style="stroke:#000000;" x="190.00575" xlink:href="#m266d6d6497" y="187.82"/>
      </g>
     </g>
     <g id="text_13">
      <!-- 0 -->
      <g style="fill:#4d4d4d;" transform="translate(187.20625 199.456625)scale(0.088 -0.088)">
       <use xlink:href="#DejaVuSans-48"/>
      </g>
     </g>
    </g>
    <g id="xtick_11">
     <g id="line2d_33">
      <path clip-path="url(#p21f3743f81)" d="M 214.60575 187.82 
L 214.60575 21.5 
" style="fill:none;stroke:#e5e5e5;stroke-linecap:square;stroke-width:0.8;"/>
     </g>
     <g id="line2d_34">
      <path d="M 214.60575 187.82 
" style="fill:none;stroke:#000000;stroke-linecap:square;stroke-width:1.5;"/>
      <g>
       <use style="stroke:#000000;" x="214.60575" xlink:href="#m266d6d6497" y="187.82"/>
      </g>
     </g>
     <g id="text_14">
      <!-- 0.25 -->
      <g style="fill:#4d4d4d;" transform="translate(204.808875 199.456625)scale(0.088 -0.088)">
       <use xlink:href="#DejaVuSans-48"/>
       <use x="63.623047" xlink:href="#DejaVuSans-46"/>
       <use x="95.410156" xlink:href="#DejaVuSans-50"/>
       <use x="159.033203" xlink:href="#DejaVuSans-53"/>
      </g>
     </g>
    </g>
    <g id="xtick_12">
     <g id="line2d_35">
      <path clip-path="url(#p21f3743f81)" d="M 239.20575 187.82 
L 239.20575 21.5 
" style="fill:none;stroke:#e5e5e5;stroke-linecap:square;stroke-width:0.8;"/>
     </g>
     <g id="line2d_36">
      <path d="M 239.20575 187.82 
" style="fill:none;stroke:#000000;stroke-linecap:square;stroke-width:1.5;"/>
      <g>
       <use style="stroke:#000000;" x="239.20575" xlink:href="#m266d6d6497" y="187.82"/>
      </g>
     </g>
     <g id="text_15">
      <!-- 0.50 -->
      <g style="fill:#4d4d4d;" transform="translate(229.408875 199.456625)scale(0.088 -0.088)">
       <use xlink:href="#DejaVuSans-48"/>
       <use x="63.623047" xlink:href="#DejaVuSans-46"/>
       <use x="95.410156" xlink:href="#DejaVuSans-53"/>
       <use x="159.033203" xlink:href="#DejaVuSans-48"/>
      </g>
     </g>
    </g>
    <g id="xtick_13">
     <g id="line2d_37">
      <path clip-path="url(#p21f3743f81)" d="M 263.80575 187.82 
L 263.80575 21.5 
" style="fill:none;stroke:#e5e5e5;stroke-linecap:square;stroke-width:0.8;"/>
     </g>
     <g id="line2d_38">
      <path d="M 263.80575 187.82 
" style="fill:none;stroke:#000000;stroke-linecap:square;stroke-width:1.5;"/>
      <g>
       <use style="stroke:#000000;" x="263.80575" xlink:href="#m266d6d6497" y="187.82"/>
      </g>
     </g>
     <g id="text_16">
      <!-- 0.75 -->
      <g style="fill:#4d4d4d;" transform="translate(254.008875 199.456625)scale(0.088 -0.088)">
       <use xlink:href="#DejaVuSans-48"/>
       <use x="63.623047" xlink:href="#DejaVuSans-46"/>
       <use x="95.410156" xlink:href="#DejaVuSans-55"/>
       <use x="159.033203" xlink:href="#DejaVuSans-53"/>
      </g>
     </g>
    </g>
    <g id="xtick_14">
     <g id="line2d_39">
      <path clip-path="url(#p21f3743f81)" d="M 288.40575 187.82 
L 288.40575 21.5 
" style="fill:none;stroke:#e5e5e5;stroke-linecap:square;stroke-width:0.8;"/>
     </g>
     <g id="line2d_40">
      <path d="M 288.40575 187.82 
" style="fill:none;stroke:#000000;stroke-linecap:square;stroke-width:1.5;"/>
      <g>
       <use style="stroke:#000000;" x="288.40575" xlink:href="#m266d6d6497" y="187.82"/>
      </g>
     </g>
     <g id="text_17">
      <!-- 1 -->
      <g style="fill:#4d4d4d;" transform="translate(285.60625 199.456625)scale(0.088 -0.088)">
       <use xlink:href="#DejaVuSans-49"/>
      </g>
     </g>
    </g>
    <g id="xtick_15">
     <g id="line2d_41">
      <path clip-path="url(#p21f3743f81)" d="M 202.30575 187.82 
L 202.30575 21.5 
" style="fill:none;stroke:#fafafa;stroke-linecap:square;"/>
     </g>
     <g id="line2d_42">
      <path d="M 202.30575 187.82 
" style="fill:none;stroke:#000000;stroke-linecap:square;stroke-width:1.5;"/>
      <g>
       <use style="stroke:#000000;" x="202.30575" xlink:href="#m481e80254a" y="187.82"/>
      </g>
     </g>
    </g>
    <g id="xtick_16">
     <g id="line2d_43">
      <path clip-path="url(#p21f3743f81)" d="M 226.90575 187.82 
L 226.90575 21.5 
" style="fill:none;stroke:#fafafa;stroke-linecap:square;"/>
     </g>
     <g id="line2d_44">
      <path d="M 226.90575 187.82 
" style="fill:none;stroke:#000000;stroke-linecap:square;stroke-width:1.5;"/>
      <g>
       <use style="stroke:#000000;" x="226.90575" xlink:href="#m481e80254a" y="187.82"/>
      </g>
     </g>
    </g>
    <g id="xtick_17">
     <g id="line2d_45">
      <path clip-path="url(#p21f3743f81)" d="M 251.50575 187.82 
L 251.50575 21.5 
" style="fill:none;stroke:#fafafa;stroke-linecap:square;"/>
     </g>
     <g id="line2d_46">
      <path d="M 251.50575 187.82 
" style="fill:none;stroke:#000000;stroke-linecap:square;stroke-width:1.5;"/>
      <g>
       <use style="stroke:#000000;" x="251.50575" xlink:href="#m481e80254a" y="187.82"/>
      </g>
     </g>
    </g>
    <g id="xtick_18">
     <g id="line2d_47">
      <path clip-path="url(#p21f3743f81)" d="M 276.10575 187.82 
L 276.10575 21.5 
" style="fill:none;stroke:#fafafa;stroke-linecap:square;"/>
     </g>
     <g id="line2d_48">
      <path d="M 276.10575 187.82 
" style="fill:none;stroke:#000000;stroke-linecap:square;stroke-width:1.5;"/>
      <g>
       <use style="stroke:#000000;" x="276.10575" xlink:href="#m481e80254a" y="187.82"/>
      </g>
     </g>
    </g>
   </g>
   <g id="matplotlib.axis_4">
    <g id="ytick_7">
     <g id="line2d_49">
      <path clip-path="url(#p21f3743f81)" d="M 185.08575 171.724516 
L 293.32575 171.724516 
" style="fill:none;stroke:#e5e5e5;stroke-linecap:square;stroke-width:0.8;"/>
     </g>
    </g>
    <g id="ytick_8">
     <g id="line2d_50">
      <path clip-path="url(#p21f3743f81)" d="M 185.08575 144.89871 
L 293.32575 144.89871 
" style="fill:none;stroke:#e5e5e5;stroke-linecap:square;stroke-width:0.8;"/>
     </g>
    </g>
    <g id="ytick_9">
     <g id="line2d_51">
      <path clip-path="url(#p21f3743f81)" d="M 185.08575 118.072903 
L 293.32575 118.072903 
" style="fill:none;stroke:#e5e5e5;stroke-linecap:square;stroke-width:0.8;"/>
     </g>
    </g>
    <g id="ytick_10">
     <g id="line2d_52">
      <path clip-path="url(#p21f3743f81)" d="M 185.08575 91.247097 
L 293.32575 91.247097 
" style="fill:none;stroke:#e5e5e5;stroke-linecap:square;stroke-width:0.8;"/>
     </g>
    </g>
    <g id="ytick_11">
     <g id="line2d_53">
      <path clip-path="url(#p21f3743f81)" d="M 185.08575 64.42129 
L 293.32575 64.42129 
" style="fill:none;stroke:#e5e5e5;stroke-linecap:square;stroke-width:0.8;"/>
     </g>
    </g>
    <g id="ytick_12">
     <g id="line2d_54">
      <path clip-path="url(#p21f3743f81)" d="M 185.08575 37.595484 
L 293.32575 37.595484 
" style="fill:none;stroke:#e5e5e5;stroke-linecap:square;stroke-width:0.8;"/>
     </g>
    </g>
   </g>
   <g id="PathCollection_2">
    <path clip-path="url(#p21f3743f81)" d="M 234.28575 173.49697 
C 234.75581 173.49697 235.206681 173.310213 235.539064 172.97783 
C 235.871447 172.645447 236.058204 172.194576 236.058204 171.724516 
C 236.058204 171.254456 235.871447 170.803585 235.539064 170.471202 
C 235.206681 170.138819 234.75581 169.952062 234.28575 169.952062 
C 233.81569 169.952062 233.364819 170.138819 233.032436 170.471202 
C 232.700053 170.803585 232.513296 171.254456 232.513296 171.724516 
C 232.513296 172.194576 232.700053 172.645447 233.032436 172.97783 
C 233.364819 173.310213 233.81569 173.49697 234.28575 173.49697 
z
" style="fill:#db5f57;stroke:#000000;stroke-width:0.886227;"/>
    <path clip-path="url(#p21f3743f81)" d="M 238.22175 146.671164 
C 238.69181 146.671164 239.142681 146.484407 239.475064 146.152024 
C 239.807447 145.819641 239.994204 145.36877 239.994204 144.89871 
C 239.994204 144.428649 239.807447 143.977778 239.475064 143.645396 
C 239.142681 143.313013 238.69181 143.126256 238.22175 143.126256 
C 237.75169 143.126256 237.300819 143.313013 236.968436 143.645396 
C 236.636053 143.977778 236.449296 144.428649 236.449296 144.89871 
C 236.449296 145.36877 236.636053 145.819641 236.968436 146.152024 
C 237.300819 146.484407 237.75169 146.671164 238.22175 146.671164 
z
" style="fill:#d3db57;stroke:#000000;stroke-width:0.886227;"/>
    <path clip-path="url(#p21f3743f81)" d="M 236.25375 119.845357 
C 236.72381 119.845357 237.174681 119.6586 237.507064 119.326217 
C 237.839447 118.993835 238.026204 118.542963 238.026204 118.072903 
C 238.026204 117.602843 237.839447 117.151972 237.507064 116.819589 
C 237.174681 116.487206 236.72381 116.300449 236.25375 116.300449 
C 235.78369 116.300449 235.332819 116.487206 235.000436 116.819589 
C 234.668053 117.151972 234.481296 117.602843 234.481296 118.072903 
C 234.481296 118.542963 234.668053 118.993835 235.000436 119.326217 
C 235.332819 119.6586 235.78369 119.845357 236.25375 119.845357 
z
" style="fill:#57db5f;stroke:#000000;stroke-width:0.886227;"/>
    <path clip-path="url(#p21f3743f81)" d="M 236.25375 93.019551 
C 236.72381 93.019551 237.174681 92.832794 237.507064 92.500411 
C 237.839447 92.168028 238.026204 91.717157 238.026204 91.247097 
C 238.026204 90.777037 237.839447 90.326165 237.507064 89.993783 
C 237.174681 89.6614 236.72381 89.474643 236.25375 89.474643 
C 235.78369 89.474643 235.332819 89.6614 235.000436 89.993783 
C 234.668053 90.326165 234.481296 90.777037 234.481296 91.247097 
C 234.481296 91.717157 234.668053 92.168028 235.000436 92.500411 
C 235.332819 92.832794 235.78369 93.019551 236.25375 93.019551 
z
" style="fill:#57d3db;stroke:#000000;stroke-width:0.886227;"/>
    <path clip-path="url(#p21f3743f81)" d="M 236.25375 66.193744 
C 236.72381 66.193744 237.174681 66.006987 237.507064 65.674604 
C 237.839447 65.342222 238.026204 64.891351 238.026204 64.42129 
C 238.026204 63.95123 237.839447 63.500359 237.507064 63.167976 
C 237.174681 62.835593 236.72381 62.648836 236.25375 62.648836 
C 235.78369 62.648836 235.332819 62.835593 235.000436 63.167976 
C 234.668053 63.500359 234.481296 63.95123 234.481296 64.42129 
C 234.481296 64.891351 234.668053 65.342222 235.000436 65.674604 
C 235.332819 66.006987 235.78369 66.193744 236.25375 66.193744 
z
" style="fill:#5f57db;stroke:#000000;stroke-width:0.886227;"/>
    <path clip-path="url(#p21f3743f81)" d="M 236.25375 39.367938 
C 236.72381 39.367938 237.174681 39.181181 237.507064 38.848798 
C 237.839447 38.516415 238.026204 38.065544 238.026204 37.595484 
C 238.026204 37.125424 237.839447 36.674553 237.507064 36.34217 
C 237.174681 36.009787 236.72381 35.82303 236.25375 35.82303 
C 235.78369 35.82303 235.332819 36.009787 235.000436 36.34217 
C 234.668053 36.674553 234.481296 37.125424 234.481296 37.595484 
C 234.481296 38.065544 234.668053 38.516415 235.000436 38.848798 
C 235.332819 39.181181 235.78369 39.367938 236.25375 39.367938 
z
" style="fill:#db57d3;stroke:#000000;stroke-width:0.886227;"/>
   </g>
   <g id="patch_5">
    <path d="M 185.08575 21.5 
L 293.32575 21.5 
L 293.32575 7.2 
L 185.08575 7.2 
z
" style="fill:#cccccc;stroke:#7f7f7f;stroke-linejoin:miter;"/>
   </g>
   <g id="text_18">
    <!-- precision -->
    <defs>
     <path d="M 18.109375 8.203125 
L 18.109375 -20.796875 
L 9.078125 -20.796875 
L 9.078125 54.6875 
L 18.109375 54.6875 
L 18.109375 46.390625 
Q 20.953125 51.265625 25.265625 53.625 
Q 29.59375 56 35.59375 56 
Q 45.5625 56 51.78125 48.09375 
Q 58.015625 40.1875 58.015625 27.296875 
Q 58.015625 14.40625 51.78125 6.484375 
Q 45.5625 -1.421875 35.59375 -1.421875 
Q 29.59375 -1.421875 25.265625 0.953125 
Q 20.953125 3.328125 18.109375 8.203125 
z
M 48.6875 27.296875 
Q 48.6875 37.203125 44.609375 42.84375 
Q 40.53125 48.484375 33.40625 48.484375 
Q 26.265625 48.484375 22.1875 42.84375 
Q 18.109375 37.203125 18.109375 27.296875 
Q 18.109375 17.390625 22.1875 11.75 
Q 26.265625 6.109375 33.40625 6.109375 
Q 40.53125 6.109375 44.609375 11.75 
Q 48.6875 17.390625 48.6875 27.296875 
z
" id="DejaVuSans-112"/>
     <path d="M 54.890625 33.015625 
L 54.890625 0 
L 45.90625 0 
L 45.90625 32.71875 
Q 45.90625 40.484375 42.875 44.328125 
Q 39.84375 48.1875 33.796875 48.1875 
Q 26.515625 48.1875 22.3125 43.546875 
Q 18.109375 38.921875 18.109375 30.90625 
L 18.109375 0 
L 9.078125 0 
L 9.078125 54.6875 
L 18.109375 54.6875 
L 18.109375 46.1875 
Q 21.34375 51.125 25.703125 53.5625 
Q 30.078125 56 35.796875 56 
Q 45.21875 56 50.046875 50.171875 
Q 54.890625 44.34375 54.890625 33.015625 
z
" id="DejaVuSans-110"/>
    </defs>
    <g style="fill:#1a1a1a;" transform="translate(219.260687 16.77825)scale(0.088 -0.088)">
     <use xlink:href="#DejaVuSans-112"/>
     <use x="63.476562" xlink:href="#DejaVuSans-114"/>
     <use x="104.558594" xlink:href="#DejaVuSans-101"/>
     <use x="166.082031" xlink:href="#DejaVuSans-99"/>
     <use x="221.0625" xlink:href="#DejaVuSans-105"/>
     <use x="248.845703" xlink:href="#DejaVuSans-115"/>
     <use x="300.945312" xlink:href="#DejaVuSans-105"/>
     <use x="328.728516" xlink:href="#DejaVuSans-111"/>
     <use x="389.910156" xlink:href="#DejaVuSans-110"/>
    </g>
   </g>
  </g>
  <g id="axes_3">
   <g id="patch_6">
    <path d="M 298.36575 187.82 
L 406.60575 187.82 
L 406.60575 21.5 
L 298.36575 21.5 
z
" style="fill:#ffffff;stroke:#7f7f7f;stroke-linejoin:miter;"/>
   </g>
   <g id="matplotlib.axis_5">
    <g id="xtick_19">
     <g id="line2d_55">
      <path clip-path="url(#p5c02662ad9)" d="M 303.28575 187.82 
L 303.28575 21.5 
" style="fill:none;stroke:#e5e5e5;stroke-linecap:square;stroke-width:0.8;"/>
     </g>
     <g id="line2d_56">
      <path d="M 303.28575 187.82 
" style="fill:none;stroke:#000000;stroke-linecap:square;stroke-width:1.5;"/>
      <g>
       <use style="stroke:#000000;" x="303.28575" xlink:href="#m266d6d6497" y="187.82"/>
      </g>
     </g>
     <g id="text_19">
      <!-- 0 -->
      <g style="fill:#4d4d4d;" transform="translate(300.48625 199.456625)scale(0.088 -0.088)">
       <use xlink:href="#DejaVuSans-48"/>
      </g>
     </g>
    </g>
    <g id="xtick_20">
     <g id="line2d_57">
      <path clip-path="url(#p5c02662ad9)" d="M 327.88575 187.82 
L 327.88575 21.5 
" style="fill:none;stroke:#e5e5e5;stroke-linecap:square;stroke-width:0.8;"/>
     </g>
     <g id="line2d_58">
      <path d="M 327.88575 187.82 
" style="fill:none;stroke:#000000;stroke-linecap:square;stroke-width:1.5;"/>
      <g>
       <use style="stroke:#000000;" x="327.88575" xlink:href="#m266d6d6497" y="187.82"/>
      </g>
     </g>
     <g id="text_20">
      <!-- 0.25 -->
      <g style="fill:#4d4d4d;" transform="translate(318.088875 199.456625)scale(0.088 -0.088)">
       <use xlink:href="#DejaVuSans-48"/>
       <use x="63.623047" xlink:href="#DejaVuSans-46"/>
       <use x="95.410156" xlink:href="#DejaVuSans-50"/>
       <use x="159.033203" xlink:href="#DejaVuSans-53"/>
      </g>
     </g>
    </g>
    <g id="xtick_21">
     <g id="line2d_59">
      <path clip-path="url(#p5c02662ad9)" d="M 352.48575 187.82 
L 352.48575 21.5 
" style="fill:none;stroke:#e5e5e5;stroke-linecap:square;stroke-width:0.8;"/>
     </g>
     <g id="line2d_60">
      <path d="M 352.48575 187.82 
" style="fill:none;stroke:#000000;stroke-linecap:square;stroke-width:1.5;"/>
      <g>
       <use style="stroke:#000000;" x="352.48575" xlink:href="#m266d6d6497" y="187.82"/>
      </g>
     </g>
     <g id="text_21">
      <!-- 0.50 -->
      <g style="fill:#4d4d4d;" transform="translate(342.688875 199.456625)scale(0.088 -0.088)">
       <use xlink:href="#DejaVuSans-48"/>
       <use x="63.623047" xlink:href="#DejaVuSans-46"/>
       <use x="95.410156" xlink:href="#DejaVuSans-53"/>
       <use x="159.033203" xlink:href="#DejaVuSans-48"/>
      </g>
     </g>
    </g>
    <g id="xtick_22">
     <g id="line2d_61">
      <path clip-path="url(#p5c02662ad9)" d="M 377.08575 187.82 
L 377.08575 21.5 
" style="fill:none;stroke:#e5e5e5;stroke-linecap:square;stroke-width:0.8;"/>
     </g>
     <g id="line2d_62">
      <path d="M 377.08575 187.82 
" style="fill:none;stroke:#000000;stroke-linecap:square;stroke-width:1.5;"/>
      <g>
       <use style="stroke:#000000;" x="377.08575" xlink:href="#m266d6d6497" y="187.82"/>
      </g>
     </g>
     <g id="text_22">
      <!-- 0.75 -->
      <g style="fill:#4d4d4d;" transform="translate(367.288875 199.456625)scale(0.088 -0.088)">
       <use xlink:href="#DejaVuSans-48"/>
       <use x="63.623047" xlink:href="#DejaVuSans-46"/>
       <use x="95.410156" xlink:href="#DejaVuSans-55"/>
       <use x="159.033203" xlink:href="#DejaVuSans-53"/>
      </g>
     </g>
    </g>
    <g id="xtick_23">
     <g id="line2d_63">
      <path clip-path="url(#p5c02662ad9)" d="M 401.68575 187.82 
L 401.68575 21.5 
" style="fill:none;stroke:#e5e5e5;stroke-linecap:square;stroke-width:0.8;"/>
     </g>
     <g id="line2d_64">
      <path d="M 401.68575 187.82 
" style="fill:none;stroke:#000000;stroke-linecap:square;stroke-width:1.5;"/>
      <g>
       <use style="stroke:#000000;" x="401.68575" xlink:href="#m266d6d6497" y="187.82"/>
      </g>
     </g>
     <g id="text_23">
      <!-- 1 -->
      <g style="fill:#4d4d4d;" transform="translate(398.88625 199.456625)scale(0.088 -0.088)">
       <use xlink:href="#DejaVuSans-49"/>
      </g>
     </g>
    </g>
    <g id="xtick_24">
     <g id="line2d_65">
      <path clip-path="url(#p5c02662ad9)" d="M 315.58575 187.82 
L 315.58575 21.5 
" style="fill:none;stroke:#fafafa;stroke-linecap:square;"/>
     </g>
     <g id="line2d_66">
      <path d="M 315.58575 187.82 
" style="fill:none;stroke:#000000;stroke-linecap:square;stroke-width:1.5;"/>
      <g>
       <use style="stroke:#000000;" x="315.58575" xlink:href="#m481e80254a" y="187.82"/>
      </g>
     </g>
    </g>
    <g id="xtick_25">
     <g id="line2d_67">
      <path clip-path="url(#p5c02662ad9)" d="M 340.18575 187.82 
L 340.18575 21.5 
" style="fill:none;stroke:#fafafa;stroke-linecap:square;"/>
     </g>
     <g id="line2d_68">
      <path d="M 340.18575 187.82 
" style="fill:none;stroke:#000000;stroke-linecap:square;stroke-width:1.5;"/>
      <g>
       <use style="stroke:#000000;" x="340.18575" xlink:href="#m481e80254a" y="187.82"/>
      </g>
     </g>
    </g>
    <g id="xtick_26">
     <g id="line2d_69">
      <path clip-path="url(#p5c02662ad9)" d="M 364.78575 187.82 
L 364.78575 21.5 
" style="fill:none;stroke:#fafafa;stroke-linecap:square;"/>
     </g>
     <g id="line2d_70">
      <path d="M 364.78575 187.82 
" style="fill:none;stroke:#000000;stroke-linecap:square;stroke-width:1.5;"/>
      <g>
       <use style="stroke:#000000;" x="364.78575" xlink:href="#m481e80254a" y="187.82"/>
      </g>
     </g>
    </g>
    <g id="xtick_27">
     <g id="line2d_71">
      <path clip-path="url(#p5c02662ad9)" d="M 389.38575 187.82 
L 389.38575 21.5 
" style="fill:none;stroke:#fafafa;stroke-linecap:square;"/>
     </g>
     <g id="line2d_72">
      <path d="M 389.38575 187.82 
" style="fill:none;stroke:#000000;stroke-linecap:square;stroke-width:1.5;"/>
      <g>
       <use style="stroke:#000000;" x="389.38575" xlink:href="#m481e80254a" y="187.82"/>
      </g>
     </g>
    </g>
   </g>
   <g id="matplotlib.axis_6">
    <g id="ytick_13">
     <g id="line2d_73">
      <path clip-path="url(#p5c02662ad9)" d="M 298.36575 171.724516 
L 406.60575 171.724516 
" style="fill:none;stroke:#e5e5e5;stroke-linecap:square;stroke-width:0.8;"/>
     </g>
    </g>
    <g id="ytick_14">
     <g id="line2d_74">
      <path clip-path="url(#p5c02662ad9)" d="M 298.36575 144.89871 
L 406.60575 144.89871 
" style="fill:none;stroke:#e5e5e5;stroke-linecap:square;stroke-width:0.8;"/>
     </g>
    </g>
    <g id="ytick_15">
     <g id="line2d_75">
      <path clip-path="url(#p5c02662ad9)" d="M 298.36575 118.072903 
L 406.60575 118.072903 
" style="fill:none;stroke:#e5e5e5;stroke-linecap:square;stroke-width:0.8;"/>
     </g>
    </g>
    <g id="ytick_16">
     <g id="line2d_76">
      <path clip-path="url(#p5c02662ad9)" d="M 298.36575 91.247097 
L 406.60575 91.247097 
" style="fill:none;stroke:#e5e5e5;stroke-linecap:square;stroke-width:0.8;"/>
     </g>
    </g>
    <g id="ytick_17">
     <g id="line2d_77">
      <path clip-path="url(#p5c02662ad9)" d="M 298.36575 64.42129 
L 406.60575 64.42129 
" style="fill:none;stroke:#e5e5e5;stroke-linecap:square;stroke-width:0.8;"/>
     </g>
    </g>
    <g id="ytick_18">
     <g id="line2d_78">
      <path clip-path="url(#p5c02662ad9)" d="M 298.36575 37.595484 
L 406.60575 37.595484 
" style="fill:none;stroke:#e5e5e5;stroke-linecap:square;stroke-width:0.8;"/>
     </g>
    </g>
   </g>
   <g id="PathCollection_3">
    <path clip-path="url(#p5c02662ad9)" d="M 342.64575 173.49697 
C 343.11581 173.49697 343.566681 173.310213 343.899064 172.97783 
C 344.231447 172.645447 344.418204 172.194576 344.418204 171.724516 
C 344.418204 171.254456 344.231447 170.803585 343.899064 170.471202 
C 343.566681 170.138819 343.11581 169.952062 342.64575 169.952062 
C 342.17569 169.952062 341.724819 170.138819 341.392436 170.471202 
C 341.060053 170.803585 340.873296 171.254456 340.873296 171.724516 
C 340.873296 172.194576 341.060053 172.645447 341.392436 172.97783 
C 341.724819 173.310213 342.17569 173.49697 342.64575 173.49697 
z
" style="fill:#db5f57;stroke:#000000;stroke-width:0.886227;"/>
    <path clip-path="url(#p5c02662ad9)" d="M 357.40575 146.671164 
C 357.87581 146.671164 358.326681 146.484407 358.659064 146.152024 
C 358.991447 145.819641 359.178204 145.36877 359.178204 144.89871 
C 359.178204 144.428649 358.991447 143.977778 358.659064 143.645396 
C 358.326681 143.313013 357.87581 143.126256 357.40575 143.126256 
C 356.93569 143.126256 356.484819 143.313013 356.152436 143.645396 
C 355.820053 143.977778 355.633296 144.428649 355.633296 144.89871 
C 355.633296 145.36877 355.820053 145.819641 356.152436 146.152024 
C 356.484819 146.484407 356.93569 146.671164 357.40575 146.671164 
z
" style="fill:#d3db57;stroke:#000000;stroke-width:0.886227;"/>
    <path clip-path="url(#p5c02662ad9)" d="M 349.53375 119.845357 
C 350.00381 119.845357 350.454681 119.6586 350.787064 119.326217 
C 351.119447 118.993835 351.306204 118.542963 351.306204 118.072903 
C 351.306204 117.602843 351.119447 117.151972 350.787064 116.819589 
C 350.454681 116.487206 350.00381 116.300449 349.53375 116.300449 
C 349.06369 116.300449 348.612819 116.487206 348.280436 116.819589 
C 347.948053 117.151972 347.761296 117.602843 347.761296 118.072903 
C 347.761296 118.542963 347.948053 118.993835 348.280436 119.326217 
C 348.612819 119.6586 349.06369 119.845357 349.53375 119.845357 
z
" style="fill:#57db5f;stroke:#000000;stroke-width:0.886227;"/>
    <path clip-path="url(#p5c02662ad9)" d="M 349.53375 93.019551 
C 350.00381 93.019551 350.454681 92.832794 350.787064 92.500411 
C 351.119447 92.168028 351.306204 91.717157 351.306204 91.247097 
C 351.306204 90.777037 351.119447 90.326165 350.787064 89.993783 
C 350.454681 89.6614 350.00381 89.474643 349.53375 89.474643 
C 349.06369 89.474643 348.612819 89.6614 348.280436 89.993783 
C 347.948053 90.326165 347.761296 90.777037 347.761296 91.247097 
C 347.761296 91.717157 347.948053 92.168028 348.280436 92.500411 
C 348.612819 92.832794 349.06369 93.019551 349.53375 93.019551 
z
" style="fill:#57d3db;stroke:#000000;stroke-width:0.886227;"/>
    <path clip-path="url(#p5c02662ad9)" d="M 349.53375 66.193744 
C 350.00381 66.193744 350.454681 66.006987 350.787064 65.674604 
C 351.119447 65.342222 351.306204 64.891351 351.306204 64.42129 
C 351.306204 63.95123 351.119447 63.500359 350.787064 63.167976 
C 350.454681 62.835593 350.00381 62.648836 349.53375 62.648836 
C 349.06369 62.648836 348.612819 62.835593 348.280436 63.167976 
C 347.948053 63.500359 347.761296 63.95123 347.761296 64.42129 
C 347.761296 64.891351 347.948053 65.342222 348.280436 65.674604 
C 348.612819 66.006987 349.06369 66.193744 349.53375 66.193744 
z
" style="fill:#5f57db;stroke:#000000;stroke-width:0.886227;"/>
    <path clip-path="url(#p5c02662ad9)" d="M 349.53375 39.367938 
C 350.00381 39.367938 350.454681 39.181181 350.787064 38.848798 
C 351.119447 38.516415 351.306204 38.065544 351.306204 37.595484 
C 351.306204 37.125424 351.119447 36.674553 350.787064 36.34217 
C 350.454681 36.009787 350.00381 35.82303 349.53375 35.82303 
C 349.06369 35.82303 348.612819 36.009787 348.280436 36.34217 
C 347.948053 36.674553 347.761296 37.125424 347.761296 37.595484 
C 347.761296 38.065544 347.948053 38.516415 348.280436 38.848798 
C 348.612819 39.181181 349.06369 39.367938 349.53375 39.367938 
z
" style="fill:#db57d3;stroke:#000000;stroke-width:0.886227;"/>
   </g>
   <g id="patch_7">
    <path d="M 298.36575 21.5 
L 406.60575 21.5 
L 406.60575 7.2 
L 298.36575 7.2 
z
" style="fill:#cccccc;stroke:#7f7f7f;stroke-linejoin:miter;"/>
   </g>
   <g id="text_24">
    <!-- recall -->
    <defs>
     <path d="M 9.421875 75.984375 
L 18.40625 75.984375 
L 18.40625 0 
L 9.421875 0 
z
" id="DejaVuSans-108"/>
    </defs>
    <g style="fill:#1a1a1a;" transform="translate(340.4105 16.77825)scale(0.088 -0.088)">
     <use xlink:href="#DejaVuSans-114"/>
     <use x="41.082031" xlink:href="#DejaVuSans-101"/>
     <use x="102.605469" xlink:href="#DejaVuSans-99"/>
     <use x="157.585938" xlink:href="#DejaVuSans-97"/>
     <use x="218.865234" xlink:href="#DejaVuSans-108"/>
     <use x="246.648438" xlink:href="#DejaVuSans-108"/>
    </g>
   </g>
  </g>
 </g>
 <defs>
  <clipPath id="p960ec75cd3">
   <rect height="166.32" width="108.24" x="71.80575" y="21.5"/>
  </clipPath>
  <clipPath id="p21f3743f81">
   <rect height="166.32" width="108.24" x="185.08575" y="21.5"/>
  </clipPath>
  <clipPath id="p5c02662ad9">
   <rect height="166.32" width="108.24" x="298.36575" y="21.5"/>
  </clipPath>
 </defs>
</svg>
