<?xml version="1.0" encoding="utf-8" standalone="no"?>
<!DOCTYPE svg PUBLIC "-//W3C//DTD SVG 1.1//EN"
  "http://www.w3.org/Graphics/SVG/1.1/DTD/svg11.dtd">
<!-- Created with matplotlib (https://matplotlib.org/) -->
<svg height="208.48675pt" version="1.1" viewBox="0 0 446.92675 208.48675" width="446.92675pt" xmlns="http://www.w3.org/2000/svg" xmlns:xlink="http://www.w3.org/1999/xlink">
 <defs>
  <style type="text/css">
*{stroke-linecap:butt;stroke-linejoin:round;}
  </style>
 </defs>
 <g id="figure_1">
  <g id="patch_1">
   <path d="M 0 208.48675 
L 446.92675 208.48675 
L 446.92675 0 
L 0 0 
z
" style="fill:#ffffff;stroke:#ffffff;stroke-linejoin:miter;"/>
  </g>
  <g id="axes_1">
   <g id="patch_2">
    <path d="M 104.92675 187.82 
L 213.16675 187.82 
L 213.16675 21.5 
L 104.92675 21.5 
z
" style="fill:#ffffff;stroke:#7f7f7f;stroke-linejoin:miter;"/>
   </g>
   <g id="matplotlib.axis_1">
    <g id="xtick_1">
     <g id="line2d_1">
      <path clip-path="url(#p64f4fed46e)" d="M 109.84675 187.82 
L 109.84675 21.5 
" style="fill:none;stroke:#e5e5e5;stroke-width:0.8;"/>
     </g>
     <g id="line2d_2">
      <path d="M 109.84675 187.82 
" style="fill:none;stroke:#000000;stroke-width:1.5;"/>
      <defs>
       <path d="M 0 0 
L 0 2.75 
" id="m2e5e0d221f" style="stroke:#000000;"/>
      </defs>
      <g>
       <use style="stroke:#000000;" x="109.84675" xlink:href="#m2e5e0d221f" y="187.82"/>
      </g>
     </g>
     <g id="text_1">
      <!-- 0 -->
      <defs>
       <path d="M 31.78125 66.40625 
Q 24.171875 66.40625 20.328125 58.90625 
Q 16.5 51.421875 16.5 36.375 
Q 16.5 21.390625 20.328125 13.890625 
Q 24.171875 6.390625 31.78125 6.390625 
Q 39.453125 6.390625 43.28125 13.890625 
Q 47.125 21.390625 47.125 36.375 
Q 47.125 51.421875 43.28125 58.90625 
Q 39.453125 66.40625 31.78125 66.40625 
z
M 31.78125 74.21875 
Q 44.046875 74.21875 50.515625 64.515625 
Q 56.984375 54.828125 56.984375 36.375 
Q 56.984375 17.96875 50.515625 8.265625 
Q 44.046875 -1.421875 31.78125 -1.421875 
Q 19.53125 -1.421875 13.0625 8.265625 
Q 6.59375 17.96875 6.59375 36.375 
Q 6.59375 54.828125 13.0625 64.515625 
Q 19.53125 74.21875 31.78125 74.21875 
z
" id="DejaVuSans-48"/>
      </defs>
      <g style="fill:#4d4d4d;" transform="translate(107.04725 199.456625)scale(0.088 -0.088)">
       <use xlink:href="#DejaVuSans-48"/>
      </g>
     </g>
    </g>
    <g id="xtick_2">
     <g id="line2d_3">
      <path clip-path="url(#p64f4fed46e)" d="M 134.44675 187.82 
L 134.44675 21.5 
" style="fill:none;stroke:#e5e5e5;stroke-width:0.8;"/>
     </g>
     <g id="line2d_4">
      <path d="M 134.44675 187.82 
" style="fill:none;stroke:#000000;stroke-width:1.5;"/>
      <g>
       <use style="stroke:#000000;" x="134.44675" xlink:href="#m2e5e0d221f" y="187.82"/>
      </g>
     </g>
     <g id="text_2">
      <!-- 0.25 -->
      <defs>
       <path d="M 10.6875 12.40625 
L 21 12.40625 
L 21 0 
L 10.6875 0 
z
" id="DejaVuSans-46"/>
       <path d="M 19.1875 8.296875 
L 53.609375 8.296875 
L 53.609375 0 
L 7.328125 0 
L 7.328125 8.296875 
Q 12.9375 14.109375 22.625 23.890625 
Q 32.328125 33.6875 34.8125 36.53125 
Q 39.546875 41.84375 41.421875 45.53125 
Q 43.3125 49.21875 43.3125 52.78125 
Q 43.3125 58.59375 39.234375 62.25 
Q 35.15625 65.921875 28.609375 65.921875 
Q 23.96875 65.921875 18.8125 64.3125 
Q 13.671875 62.703125 7.8125 59.421875 
L 7.8125 69.390625 
Q 13.765625 71.78125 18.9375 73 
Q 24.125 74.21875 28.421875 74.21875 
Q 39.75 74.21875 46.484375 68.546875 
Q 53.21875 62.890625 53.21875 53.421875 
Q 53.21875 48.921875 51.53125 44.890625 
Q 49.859375 40.875 45.40625 35.40625 
Q 44.1875 33.984375 37.640625 27.21875 
Q 31.109375 20.453125 19.1875 8.296875 
z
" id="DejaVuSans-50"/>
       <path d="M 10.796875 72.90625 
L 49.515625 72.90625 
L 49.515625 64.59375 
L 19.828125 64.59375 
L 19.828125 46.734375 
Q 21.96875 47.46875 24.109375 47.828125 
Q 26.265625 48.1875 28.421875 48.1875 
Q 40.625 48.1875 47.75 41.5 
Q 54.890625 34.8125 54.890625 23.390625 
Q 54.890625 11.625 47.5625 5.09375 
Q 40.234375 -1.421875 26.90625 -1.421875 
Q 22.3125 -1.421875 17.546875 -0.640625 
Q 12.796875 0.140625 7.71875 1.703125 
L 7.71875 11.625 
Q 12.109375 9.234375 16.796875 8.0625 
Q 21.484375 6.890625 26.703125 6.890625 
Q 35.15625 6.890625 40.078125 11.328125 
Q 45.015625 15.765625 45.015625 23.390625 
Q 45.015625 31 40.078125 35.4375 
Q 35.15625 39.890625 26.703125 39.890625 
Q 22.75 39.890625 18.8125 39.015625 
Q 14.890625 38.140625 10.796875 36.28125 
z
" id="DejaVuSans-53"/>
      </defs>
      <g style="fill:#4d4d4d;" transform="translate(124.649875 199.456625)scale(0.088 -0.088)">
       <use xlink:href="#DejaVuSans-48"/>
       <use x="63.623047" xlink:href="#DejaVuSans-46"/>
       <use x="95.410156" xlink:href="#DejaVuSans-50"/>
       <use x="159.033203" xlink:href="#DejaVuSans-53"/>
      </g>
     </g>
    </g>
    <g id="xtick_3">
     <g id="line2d_5">
      <path clip-path="url(#p64f4fed46e)" d="M 159.04675 187.82 
L 159.04675 21.5 
" style="fill:none;stroke:#e5e5e5;stroke-width:0.8;"/>
     </g>
     <g id="line2d_6">
      <path d="M 159.04675 187.82 
" style="fill:none;stroke:#000000;stroke-width:1.5;"/>
      <g>
       <use style="stroke:#000000;" x="159.04675" xlink:href="#m2e5e0d221f" y="187.82"/>
      </g>
     </g>
     <g id="text_3">
      <!-- 0.50 -->
      <g style="fill:#4d4d4d;" transform="translate(149.249875 199.456625)scale(0.088 -0.088)">
       <use xlink:href="#DejaVuSans-48"/>
       <use x="63.623047" xlink:href="#DejaVuSans-46"/>
       <use x="95.410156" xlink:href="#DejaVuSans-53"/>
       <use x="159.033203" xlink:href="#DejaVuSans-48"/>
      </g>
     </g>
    </g>
    <g id="xtick_4">
     <g id="line2d_7">
      <path clip-path="url(#p64f4fed46e)" d="M 183.64675 187.82 
L 183.64675 21.5 
" style="fill:none;stroke:#e5e5e5;stroke-width:0.8;"/>
     </g>
     <g id="line2d_8">
      <path d="M 183.64675 187.82 
" style="fill:none;stroke:#000000;stroke-width:1.5;"/>
      <g>
       <use style="stroke:#000000;" x="183.64675" xlink:href="#m2e5e0d221f" y="187.82"/>
      </g>
     </g>
     <g id="text_4">
      <!-- 0.75 -->
      <defs>
       <path d="M 8.203125 72.90625 
L 55.078125 72.90625 
L 55.078125 68.703125 
L 28.609375 0 
L 18.3125 0 
L 43.21875 64.59375 
L 8.203125 64.59375 
z
" id="DejaVuSans-55"/>
      </defs>
      <g style="fill:#4d4d4d;" transform="translate(173.849875 199.456625)scale(0.088 -0.088)">
       <use xlink:href="#DejaVuSans-48"/>
       <use x="63.623047" xlink:href="#DejaVuSans-46"/>
       <use x="95.410156" xlink:href="#DejaVuSans-55"/>
       <use x="159.033203" xlink:href="#DejaVuSans-53"/>
      </g>
     </g>
    </g>
    <g id="xtick_5">
     <g id="line2d_9">
      <path clip-path="url(#p64f4fed46e)" d="M 208.24675 187.82 
L 208.24675 21.5 
" style="fill:none;stroke:#e5e5e5;stroke-width:0.8;"/>
     </g>
     <g id="line2d_10">
      <path d="M 208.24675 187.82 
" style="fill:none;stroke:#000000;stroke-width:1.5;"/>
      <g>
       <use style="stroke:#000000;" x="208.24675" xlink:href="#m2e5e0d221f" y="187.82"/>
      </g>
     </g>
     <g id="text_5">
      <!-- 1 -->
      <defs>
       <path d="M 12.40625 8.296875 
L 28.515625 8.296875 
L 28.515625 63.921875 
L 10.984375 60.40625 
L 10.984375 69.390625 
L 28.421875 72.90625 
L 38.28125 72.90625 
L 38.28125 8.296875 
L 54.390625 8.296875 
L 54.390625 0 
L 12.40625 0 
z
" id="DejaVuSans-49"/>
      </defs>
      <g style="fill:#4d4d4d;" transform="translate(205.44725 199.456625)scale(0.088 -0.088)">
       <use xlink:href="#DejaVuSans-49"/>
      </g>
     </g>
    </g>
    <g id="xtick_6">
     <g id="line2d_11">
      <path clip-path="url(#p64f4fed46e)" d="M 122.14675 187.82 
L 122.14675 21.5 
" style="fill:none;stroke:#fafafa;"/>
     </g>
     <g id="line2d_12">
      <path d="M 122.14675 187.82 
" style="fill:none;stroke:#000000;stroke-width:1.5;"/>
      <defs>
       <path d="M 0 0 
L 0 1.375 
" id="m933ad16324" style="stroke:#000000;"/>
      </defs>
      <g>
       <use style="stroke:#000000;" x="122.14675" xlink:href="#m933ad16324" y="187.82"/>
      </g>
     </g>
    </g>
    <g id="xtick_7">
     <g id="line2d_13">
      <path clip-path="url(#p64f4fed46e)" d="M 146.74675 187.82 
L 146.74675 21.5 
" style="fill:none;stroke:#fafafa;"/>
     </g>
     <g id="line2d_14">
      <path d="M 146.74675 187.82 
" style="fill:none;stroke:#000000;stroke-width:1.5;"/>
      <g>
       <use style="stroke:#000000;" x="146.74675" xlink:href="#m933ad16324" y="187.82"/>
      </g>
     </g>
    </g>
    <g id="xtick_8">
     <g id="line2d_15">
      <path clip-path="url(#p64f4fed46e)" d="M 171.34675 187.82 
L 171.34675 21.5 
" style="fill:none;stroke:#fafafa;"/>
     </g>
     <g id="line2d_16">
      <path d="M 171.34675 187.82 
" style="fill:none;stroke:#000000;stroke-width:1.5;"/>
      <g>
       <use style="stroke:#000000;" x="171.34675" xlink:href="#m933ad16324" y="187.82"/>
      </g>
     </g>
    </g>
    <g id="xtick_9">
     <g id="line2d_17">
      <path clip-path="url(#p64f4fed46e)" d="M 195.94675 187.82 
L 195.94675 21.5 
" style="fill:none;stroke:#fafafa;"/>
     </g>
     <g id="line2d_18">
      <path d="M 195.94675 187.82 
" style="fill:none;stroke:#000000;stroke-width:1.5;"/>
      <g>
       <use style="stroke:#000000;" x="195.94675" xlink:href="#m933ad16324" y="187.82"/>
      </g>
     </g>
    </g>
   </g>
   <g id="matplotlib.axis_2">
    <g id="ytick_1">
     <g id="line2d_19">
      <path clip-path="url(#p64f4fed46e)" d="M 104.92675 175.650244 
L 213.16675 175.650244 
" style="fill:none;stroke:#e5e5e5;stroke-width:0.8;"/>
     </g>
     <g id="line2d_20">
      <path d="M 104.92675 175.650244 
" style="fill:none;stroke:#000000;stroke-width:1.5;"/>
      <defs>
       <path d="M 0 0 
L -2.75 0 
" id="m44ab4d94c5" style="stroke:#000000;"/>
      </defs>
      <g>
       <use style="stroke:#000000;" x="104.92675" xlink:href="#m44ab4d94c5" y="175.650244"/>
      </g>
     </g>
     <g id="text_6">
      <!-- Chlortetracycline -->
      <defs>
       <path d="M 64.40625 67.28125 
L 64.40625 56.890625 
Q 59.421875 61.53125 53.78125 63.8125 
Q 48.140625 66.109375 41.796875 66.109375 
Q 29.296875 66.109375 22.65625 58.46875 
Q 16.015625 50.828125 16.015625 36.375 
Q 16.015625 21.96875 22.65625 14.328125 
Q 29.296875 6.6875 41.796875 6.6875 
Q 48.140625 6.6875 53.78125 8.984375 
Q 59.421875 11.28125 64.40625 15.921875 
L 64.40625 5.609375 
Q 59.234375 2.09375 53.4375 0.328125 
Q 47.65625 -1.421875 41.21875 -1.421875 
Q 24.65625 -1.421875 15.125 8.703125 
Q 5.609375 18.84375 5.609375 36.375 
Q 5.609375 53.953125 15.125 64.078125 
Q 24.65625 74.21875 41.21875 74.21875 
Q 47.75 74.21875 53.53125 72.484375 
Q 59.328125 70.75 64.40625 67.28125 
z
" id="DejaVuSans-67"/>
       <path d="M 54.890625 33.015625 
L 54.890625 0 
L 45.90625 0 
L 45.90625 32.71875 
Q 45.90625 40.484375 42.875 44.328125 
Q 39.84375 48.1875 33.796875 48.1875 
Q 26.515625 48.1875 22.3125 43.546875 
Q 18.109375 38.921875 18.109375 30.90625 
L 18.109375 0 
L 9.078125 0 
L 9.078125 75.984375 
L 18.109375 75.984375 
L 18.109375 46.1875 
Q 21.34375 51.125 25.703125 53.5625 
Q 30.078125 56 35.796875 56 
Q 45.21875 56 50.046875 50.171875 
Q 54.890625 44.34375 54.890625 33.015625 
z
" id="DejaVuSans-104"/>
       <path d="M 9.421875 75.984375 
L 18.40625 75.984375 
L 18.40625 0 
L 9.421875 0 
z
" id="DejaVuSans-108"/>
       <path d="M 30.609375 48.390625 
Q 23.390625 48.390625 19.1875 42.75 
Q 14.984375 37.109375 14.984375 27.296875 
Q 14.984375 17.484375 19.15625 11.84375 
Q 23.34375 6.203125 30.609375 6.203125 
Q 37.796875 6.203125 41.984375 11.859375 
Q 46.1875 17.53125 46.1875 27.296875 
Q 46.1875 37.015625 41.984375 42.703125 
Q 37.796875 48.390625 30.609375 48.390625 
z
M 30.609375 56 
Q 42.328125 56 49.015625 48.375 
Q 55.71875 40.765625 55.71875 27.296875 
Q 55.71875 13.875 49.015625 6.21875 
Q 42.328125 -1.421875 30.609375 -1.421875 
Q 18.84375 -1.421875 12.171875 6.21875 
Q 5.515625 13.875 5.515625 27.296875 
Q 5.515625 40.765625 12.171875 48.375 
Q 18.84375 56 30.609375 56 
z
" id="DejaVuSans-111"/>
       <path d="M 41.109375 46.296875 
Q 39.59375 47.171875 37.8125 47.578125 
Q 36.03125 48 33.890625 48 
Q 26.265625 48 22.1875 43.046875 
Q 18.109375 38.09375 18.109375 28.8125 
L 18.109375 0 
L 9.078125 0 
L 9.078125 54.6875 
L 18.109375 54.6875 
L 18.109375 46.1875 
Q 20.953125 51.171875 25.484375 53.578125 
Q 30.03125 56 36.53125 56 
Q 37.453125 56 38.578125 55.875 
Q 39.703125 55.765625 41.0625 55.515625 
z
" id="DejaVuSans-114"/>
       <path d="M 18.3125 70.21875 
L 18.3125 54.6875 
L 36.8125 54.6875 
L 36.8125 47.703125 
L 18.3125 47.703125 
L 18.3125 18.015625 
Q 18.3125 11.328125 20.140625 9.421875 
Q 21.96875 7.515625 27.59375 7.515625 
L 36.8125 7.515625 
L 36.8125 0 
L 27.59375 0 
Q 17.1875 0 13.234375 3.875 
Q 9.28125 7.765625 9.28125 18.015625 
L 9.28125 47.703125 
L 2.6875 47.703125 
L 2.6875 54.6875 
L 9.28125 54.6875 
L 9.28125 70.21875 
z
" id="DejaVuSans-116"/>
       <path d="M 56.203125 29.59375 
L 56.203125 25.203125 
L 14.890625 25.203125 
Q 15.484375 15.921875 20.484375 11.0625 
Q 25.484375 6.203125 34.421875 6.203125 
Q 39.59375 6.203125 44.453125 7.46875 
Q 49.3125 8.734375 54.109375 11.28125 
L 54.109375 2.78125 
Q 49.265625 0.734375 44.1875 -0.34375 
Q 39.109375 -1.421875 33.890625 -1.421875 
Q 20.796875 -1.421875 13.15625 6.1875 
Q 5.515625 13.8125 5.515625 26.8125 
Q 5.515625 40.234375 12.765625 48.109375 
Q 20.015625 56 32.328125 56 
Q 43.359375 56 49.78125 48.890625 
Q 56.203125 41.796875 56.203125 29.59375 
z
M 47.21875 32.234375 
Q 47.125 39.59375 43.09375 43.984375 
Q 39.0625 48.390625 32.421875 48.390625 
Q 24.90625 48.390625 20.390625 44.140625 
Q 15.875 39.890625 15.1875 32.171875 
z
" id="DejaVuSans-101"/>
       <path d="M 34.28125 27.484375 
Q 23.390625 27.484375 19.1875 25 
Q 14.984375 22.515625 14.984375 16.5 
Q 14.984375 11.71875 18.140625 8.90625 
Q 21.296875 6.109375 26.703125 6.109375 
Q 34.1875 6.109375 38.703125 11.40625 
Q 43.21875 16.703125 43.21875 25.484375 
L 43.21875 27.484375 
z
M 52.203125 31.203125 
L 52.203125 0 
L 43.21875 0 
L 43.21875 8.296875 
Q 40.140625 3.328125 35.546875 0.953125 
Q 30.953125 -1.421875 24.3125 -1.421875 
Q 15.921875 -1.421875 10.953125 3.296875 
Q 6 8.015625 6 15.921875 
Q 6 25.140625 12.171875 29.828125 
Q 18.359375 34.515625 30.609375 34.515625 
L 43.21875 34.515625 
L 43.21875 35.40625 
Q 43.21875 41.609375 39.140625 45 
Q 35.0625 48.390625 27.6875 48.390625 
Q 23 48.390625 18.546875 47.265625 
Q 14.109375 46.140625 10.015625 43.890625 
L 10.015625 52.203125 
Q 14.9375 54.109375 19.578125 55.046875 
Q 24.21875 56 28.609375 56 
Q 40.484375 56 46.34375 49.84375 
Q 52.203125 43.703125 52.203125 31.203125 
z
" id="DejaVuSans-97"/>
       <path d="M 48.78125 52.59375 
L 48.78125 44.1875 
Q 44.96875 46.296875 41.140625 47.34375 
Q 37.3125 48.390625 33.40625 48.390625 
Q 24.65625 48.390625 19.8125 42.84375 
Q 14.984375 37.3125 14.984375 27.296875 
Q 14.984375 17.28125 19.8125 11.734375 
Q 24.65625 6.203125 33.40625 6.203125 
Q 37.3125 6.203125 41.140625 7.25 
Q 44.96875 8.296875 48.78125 10.40625 
L 48.78125 2.09375 
Q 45.015625 0.34375 40.984375 -0.53125 
Q 36.96875 -1.421875 32.421875 -1.421875 
Q 20.0625 -1.421875 12.78125 6.34375 
Q 5.515625 14.109375 5.515625 27.296875 
Q 5.515625 40.671875 12.859375 48.328125 
Q 20.21875 56 33.015625 56 
Q 37.15625 56 41.109375 55.140625 
Q 45.0625 54.296875 48.78125 52.59375 
z
" id="DejaVuSans-99"/>
       <path d="M 32.171875 -5.078125 
Q 28.375 -14.84375 24.75 -17.8125 
Q 21.140625 -20.796875 15.09375 -20.796875 
L 7.90625 -20.796875 
L 7.90625 -13.28125 
L 13.1875 -13.28125 
Q 16.890625 -13.28125 18.9375 -11.515625 
Q 21 -9.765625 23.484375 -3.21875 
L 25.09375 0.875 
L 2.984375 54.6875 
L 12.5 54.6875 
L 29.59375 11.921875 
L 46.6875 54.6875 
L 56.203125 54.6875 
z
" id="DejaVuSans-121"/>
       <path d="M 9.421875 54.6875 
L 18.40625 54.6875 
L 18.40625 0 
L 9.421875 0 
z
M 9.421875 75.984375 
L 18.40625 75.984375 
L 18.40625 64.59375 
L 9.421875 64.59375 
z
" id="DejaVuSans-105"/>
       <path d="M 54.890625 33.015625 
L 54.890625 0 
L 45.90625 0 
L 45.90625 32.71875 
Q 45.90625 40.484375 42.875 44.328125 
Q 39.84375 48.1875 33.796875 48.1875 
Q 26.515625 48.1875 22.3125 43.546875 
Q 18.109375 38.921875 18.109375 30.90625 
L 18.109375 0 
L 9.078125 0 
L 9.078125 54.6875 
L 18.109375 54.6875 
L 18.109375 46.1875 
Q 21.34375 51.125 25.703125 53.5625 
Q 30.078125 56 35.796875 56 
Q 45.21875 56 50.046875 50.171875 
Q 54.890625 44.34375 54.890625 33.015625 
z
" id="DejaVuSans-110"/>
      </defs>
      <g style="fill:#4d4d4d;" transform="translate(24.716125 178.078494)scale(0.088 -0.088)">
       <use xlink:href="#DejaVuSans-67"/>
       <use x="69.824219" xlink:href="#DejaVuSans-104"/>
       <use x="133.203125" xlink:href="#DejaVuSans-108"/>
       <use x="160.986328" xlink:href="#DejaVuSans-111"/>
       <use x="222.167969" xlink:href="#DejaVuSans-114"/>
       <use x="263.28125" xlink:href="#DejaVuSans-116"/>
       <use x="302.490234" xlink:href="#DejaVuSans-101"/>
       <use x="364.013672" xlink:href="#DejaVuSans-116"/>
       <use x="403.222656" xlink:href="#DejaVuSans-114"/>
       <use x="444.335938" xlink:href="#DejaVuSans-97"/>
       <use x="505.615234" xlink:href="#DejaVuSans-99"/>
       <use x="560.595703" xlink:href="#DejaVuSans-121"/>
       <use x="619.775391" xlink:href="#DejaVuSans-99"/>
       <use x="674.755859" xlink:href="#DejaVuSans-108"/>
       <use x="702.539062" xlink:href="#DejaVuSans-105"/>
       <use x="730.322266" xlink:href="#DejaVuSans-110"/>
       <use x="793.701172" xlink:href="#DejaVuSans-101"/>
      </g>
     </g>
    </g>
    <g id="ytick_2">
     <g id="line2d_21">
      <path clip-path="url(#p64f4fed46e)" d="M 104.92675 155.367317 
L 213.16675 155.367317 
" style="fill:none;stroke:#e5e5e5;stroke-width:0.8;"/>
     </g>
     <g id="line2d_22">
      <path d="M 104.92675 155.367317 
" style="fill:none;stroke:#000000;stroke-width:1.5;"/>
      <g>
       <use style="stroke:#000000;" x="104.92675" xlink:href="#m44ab4d94c5" y="155.367317"/>
      </g>
     </g>
     <g id="text_7">
      <!-- Control -->
      <g style="fill:#4d4d4d;" transform="translate(67.976375 157.795567)scale(0.088 -0.088)">
       <use xlink:href="#DejaVuSans-67"/>
       <use x="69.824219" xlink:href="#DejaVuSans-111"/>
       <use x="131.005859" xlink:href="#DejaVuSans-110"/>
       <use x="194.384766" xlink:href="#DejaVuSans-116"/>
       <use x="233.59375" xlink:href="#DejaVuSans-114"/>
       <use x="274.675781" xlink:href="#DejaVuSans-111"/>
       <use x="335.857422" xlink:href="#DejaVuSans-108"/>
      </g>
     </g>
    </g>
    <g id="ytick_3">
     <g id="line2d_23">
      <path clip-path="url(#p64f4fed46e)" d="M 104.92675 135.08439 
L 213.16675 135.08439 
" style="fill:none;stroke:#e5e5e5;stroke-width:0.8;"/>
     </g>
     <g id="line2d_24">
      <path d="M 104.92675 135.08439 
" style="fill:none;stroke:#000000;stroke-width:1.5;"/>
      <g>
       <use style="stroke:#000000;" x="104.92675" xlink:href="#m44ab4d94c5" y="135.08439"/>
      </g>
     </g>
     <g id="text_8">
      <!-- Penicillin -->
      <defs>
       <path d="M 19.671875 64.796875 
L 19.671875 37.40625 
L 32.078125 37.40625 
Q 38.96875 37.40625 42.71875 40.96875 
Q 46.484375 44.53125 46.484375 51.125 
Q 46.484375 57.671875 42.71875 61.234375 
Q 38.96875 64.796875 32.078125 64.796875 
z
M 9.8125 72.90625 
L 32.078125 72.90625 
Q 44.34375 72.90625 50.609375 67.359375 
Q 56.890625 61.8125 56.890625 51.125 
Q 56.890625 40.328125 50.609375 34.8125 
Q 44.34375 29.296875 32.078125 29.296875 
L 19.671875 29.296875 
L 19.671875 0 
L 9.8125 0 
z
" id="DejaVuSans-80"/>
      </defs>
      <g style="fill:#4d4d4d;" transform="translate(61.043625 137.51264)scale(0.088 -0.088)">
       <use xlink:href="#DejaVuSans-80"/>
       <use x="60.255859" xlink:href="#DejaVuSans-101"/>
       <use x="121.779297" xlink:href="#DejaVuSans-110"/>
       <use x="185.158203" xlink:href="#DejaVuSans-105"/>
       <use x="212.941406" xlink:href="#DejaVuSans-99"/>
       <use x="267.921875" xlink:href="#DejaVuSans-105"/>
       <use x="295.705078" xlink:href="#DejaVuSans-108"/>
       <use x="323.488281" xlink:href="#DejaVuSans-108"/>
       <use x="351.271484" xlink:href="#DejaVuSans-105"/>
       <use x="379.054688" xlink:href="#DejaVuSans-110"/>
      </g>
     </g>
    </g>
    <g id="ytick_4">
     <g id="line2d_25">
      <path clip-path="url(#p64f4fed46e)" d="M 104.92675 114.801463 
L 213.16675 114.801463 
" style="fill:none;stroke:#e5e5e5;stroke-width:0.8;"/>
     </g>
     <g id="line2d_26">
      <path d="M 104.92675 114.801463 
" style="fill:none;stroke:#000000;stroke-width:1.5;"/>
      <g>
       <use style="stroke:#000000;" x="104.92675" xlink:href="#m44ab4d94c5" y="114.801463"/>
      </g>
     </g>
     <g id="text_9">
      <!-- Vancomycin -->
      <defs>
       <path d="M 28.609375 0 
L 0.78125 72.90625 
L 11.078125 72.90625 
L 34.1875 11.53125 
L 57.328125 72.90625 
L 67.578125 72.90625 
L 39.796875 0 
z
" id="DejaVuSans-86"/>
       <path d="M 52 44.1875 
Q 55.375 50.25 60.0625 53.125 
Q 64.75 56 71.09375 56 
Q 79.640625 56 84.28125 50.015625 
Q 88.921875 44.046875 88.921875 33.015625 
L 88.921875 0 
L 79.890625 0 
L 79.890625 32.71875 
Q 79.890625 40.578125 77.09375 44.375 
Q 74.3125 48.1875 68.609375 48.1875 
Q 61.625 48.1875 57.5625 43.546875 
Q 53.515625 38.921875 53.515625 30.90625 
L 53.515625 0 
L 44.484375 0 
L 44.484375 32.71875 
Q 44.484375 40.625 41.703125 44.40625 
Q 38.921875 48.1875 33.109375 48.1875 
Q 26.21875 48.1875 22.15625 43.53125 
Q 18.109375 38.875 18.109375 30.90625 
L 18.109375 0 
L 9.078125 0 
L 9.078125 54.6875 
L 18.109375 54.6875 
L 18.109375 46.1875 
Q 21.1875 51.21875 25.484375 53.609375 
Q 29.78125 56 35.6875 56 
Q 41.65625 56 45.828125 52.96875 
Q 50 49.953125 52 44.1875 
z
" id="DejaVuSans-109"/>
      </defs>
      <g style="fill:#4d4d4d;" transform="translate(46.133125 117.229713)scale(0.088 -0.088)">
       <use xlink:href="#DejaVuSans-86"/>
       <use x="68.298828" xlink:href="#DejaVuSans-97"/>
       <use x="129.578125" xlink:href="#DejaVuSans-110"/>
       <use x="192.957031" xlink:href="#DejaVuSans-99"/>
       <use x="247.9375" xlink:href="#DejaVuSans-111"/>
       <use x="309.119141" xlink:href="#DejaVuSans-109"/>
       <use x="406.53125" xlink:href="#DejaVuSans-121"/>
       <use x="465.710938" xlink:href="#DejaVuSans-99"/>
       <use x="520.691406" xlink:href="#DejaVuSans-105"/>
       <use x="548.474609" xlink:href="#DejaVuSans-110"/>
      </g>
     </g>
    </g>
    <g id="ytick_5">
     <g id="line2d_27">
      <path clip-path="url(#p64f4fed46e)" d="M 104.92675 94.518537 
L 213.16675 94.518537 
" style="fill:none;stroke:#e5e5e5;stroke-width:0.8;"/>
     </g>
     <g id="line2d_28">
      <path d="M 104.92675 94.518537 
" style="fill:none;stroke:#000000;stroke-width:1.5;"/>
      <g>
       <use style="stroke:#000000;" x="104.92675" xlink:href="#m44ab4d94c5" y="94.518537"/>
      </g>
     </g>
     <g id="text_10">
      <!-- VancomycinPenicillin -->
      <g style="fill:#4d4d4d;" transform="translate(7.2 96.946787)scale(0.088 -0.088)">
       <use xlink:href="#DejaVuSans-86"/>
       <use x="68.298828" xlink:href="#DejaVuSans-97"/>
       <use x="129.578125" xlink:href="#DejaVuSans-110"/>
       <use x="192.957031" xlink:href="#DejaVuSans-99"/>
       <use x="247.9375" xlink:href="#DejaVuSans-111"/>
       <use x="309.119141" xlink:href="#DejaVuSans-109"/>
       <use x="406.53125" xlink:href="#DejaVuSans-121"/>
       <use x="465.710938" xlink:href="#DejaVuSans-99"/>
       <use x="520.691406" xlink:href="#DejaVuSans-105"/>
       <use x="548.474609" xlink:href="#DejaVuSans-110"/>
       <use x="611.853516" xlink:href="#DejaVuSans-80"/>
       <use x="672.109375" xlink:href="#DejaVuSans-101"/>
       <use x="733.632812" xlink:href="#DejaVuSans-110"/>
       <use x="797.011719" xlink:href="#DejaVuSans-105"/>
       <use x="824.794922" xlink:href="#DejaVuSans-99"/>
       <use x="879.775391" xlink:href="#DejaVuSans-105"/>
       <use x="907.558594" xlink:href="#DejaVuSans-108"/>
       <use x="935.341797" xlink:href="#DejaVuSans-108"/>
       <use x="963.125" xlink:href="#DejaVuSans-105"/>
       <use x="990.908203" xlink:href="#DejaVuSans-110"/>
      </g>
     </g>
    </g>
    <g id="ytick_6">
     <g id="line2d_29">
      <path clip-path="url(#p64f4fed46e)" d="M 104.92675 74.23561 
L 213.16675 74.23561 
" style="fill:none;stroke:#e5e5e5;stroke-width:0.8;"/>
     </g>
     <g id="line2d_30">
      <path d="M 104.92675 74.23561 
" style="fill:none;stroke:#000000;stroke-width:1.5;"/>
      <g>
       <use style="stroke:#000000;" x="104.92675" xlink:href="#m44ab4d94c5" y="74.23561"/>
      </g>
     </g>
     <g id="text_11">
      <!-- accuracy -->
      <defs>
       <path d="M 8.5 21.578125 
L 8.5 54.6875 
L 17.484375 54.6875 
L 17.484375 21.921875 
Q 17.484375 14.15625 20.5 10.265625 
Q 23.53125 6.390625 29.59375 6.390625 
Q 36.859375 6.390625 41.078125 11.03125 
Q 45.3125 15.671875 45.3125 23.6875 
L 45.3125 54.6875 
L 54.296875 54.6875 
L 54.296875 0 
L 45.3125 0 
L 45.3125 8.40625 
Q 42.046875 3.421875 37.71875 1 
Q 33.40625 -1.421875 27.6875 -1.421875 
Q 18.265625 -1.421875 13.375 4.4375 
Q 8.5 10.296875 8.5 21.578125 
z
M 31.109375 56 
z
" id="DejaVuSans-117"/>
      </defs>
      <g style="fill:#4d4d4d;" transform="translate(60.27225 76.66386)scale(0.088 -0.088)">
       <use xlink:href="#DejaVuSans-97"/>
       <use x="61.279297" xlink:href="#DejaVuSans-99"/>
       <use x="116.259766" xlink:href="#DejaVuSans-99"/>
       <use x="171.240234" xlink:href="#DejaVuSans-117"/>
       <use x="234.619141" xlink:href="#DejaVuSans-114"/>
       <use x="275.732422" xlink:href="#DejaVuSans-97"/>
       <use x="337.011719" xlink:href="#DejaVuSans-99"/>
       <use x="391.992188" xlink:href="#DejaVuSans-121"/>
      </g>
     </g>
    </g>
    <g id="ytick_7">
     <g id="line2d_31">
      <path clip-path="url(#p64f4fed46e)" d="M 104.92675 53.952683 
L 213.16675 53.952683 
" style="fill:none;stroke:#e5e5e5;stroke-width:0.8;"/>
     </g>
     <g id="line2d_32">
      <path d="M 104.92675 53.952683 
" style="fill:none;stroke:#000000;stroke-width:1.5;"/>
      <g>
       <use style="stroke:#000000;" x="104.92675" xlink:href="#m44ab4d94c5" y="53.952683"/>
      </g>
     </g>
     <g id="text_12">
      <!-- macro avg -->
      <defs>
       <path id="DejaVuSans-32"/>
       <path d="M 2.984375 54.6875 
L 12.5 54.6875 
L 29.59375 8.796875 
L 46.6875 54.6875 
L 56.203125 54.6875 
L 35.6875 0 
L 23.484375 0 
z
" id="DejaVuSans-118"/>
       <path d="M 45.40625 27.984375 
Q 45.40625 37.75 41.375 43.109375 
Q 37.359375 48.484375 30.078125 48.484375 
Q 22.859375 48.484375 18.828125 43.109375 
Q 14.796875 37.75 14.796875 27.984375 
Q 14.796875 18.265625 18.828125 12.890625 
Q 22.859375 7.515625 30.078125 7.515625 
Q 37.359375 7.515625 41.375 12.890625 
Q 45.40625 18.265625 45.40625 27.984375 
z
M 54.390625 6.78125 
Q 54.390625 -7.171875 48.1875 -13.984375 
Q 42 -20.796875 29.203125 -20.796875 
Q 24.46875 -20.796875 20.265625 -20.09375 
Q 16.0625 -19.390625 12.109375 -17.921875 
L 12.109375 -9.1875 
Q 16.0625 -11.328125 19.921875 -12.34375 
Q 23.78125 -13.375 27.78125 -13.375 
Q 36.625 -13.375 41.015625 -8.765625 
Q 45.40625 -4.15625 45.40625 5.171875 
L 45.40625 9.625 
Q 42.625 4.78125 38.28125 2.390625 
Q 33.9375 0 27.875 0 
Q 17.828125 0 11.671875 7.65625 
Q 5.515625 15.328125 5.515625 27.984375 
Q 5.515625 40.671875 11.671875 48.328125 
Q 17.828125 56 27.875 56 
Q 33.9375 56 38.28125 53.609375 
Q 42.625 51.21875 45.40625 46.390625 
L 45.40625 54.6875 
L 54.390625 54.6875 
z
" id="DejaVuSans-103"/>
      </defs>
      <g style="fill:#4d4d4d;" transform="translate(53.189625 56.380933)scale(0.088 -0.088)">
       <use xlink:href="#DejaVuSans-109"/>
       <use x="97.412109" xlink:href="#DejaVuSans-97"/>
       <use x="158.691406" xlink:href="#DejaVuSans-99"/>
       <use x="213.671875" xlink:href="#DejaVuSans-114"/>
       <use x="254.753906" xlink:href="#DejaVuSans-111"/>
       <use x="315.935547" xlink:href="#DejaVuSans-32"/>
       <use x="347.722656" xlink:href="#DejaVuSans-97"/>
       <use x="409.001953" xlink:href="#DejaVuSans-118"/>
       <use x="468.181641" xlink:href="#DejaVuSans-103"/>
      </g>
     </g>
    </g>
    <g id="ytick_8">
     <g id="line2d_33">
      <path clip-path="url(#p64f4fed46e)" d="M 104.92675 33.669756 
L 213.16675 33.669756 
" style="fill:none;stroke:#e5e5e5;stroke-width:0.8;"/>
     </g>
     <g id="line2d_34">
      <path d="M 104.92675 33.669756 
" style="fill:none;stroke:#000000;stroke-width:1.5;"/>
      <g>
       <use style="stroke:#000000;" x="104.92675" xlink:href="#m44ab4d94c5" y="33.669756"/>
      </g>
     </g>
     <g id="text_13">
      <!-- weighted avg -->
      <defs>
       <path d="M 4.203125 54.6875 
L 13.1875 54.6875 
L 24.421875 12.015625 
L 35.59375 54.6875 
L 46.1875 54.6875 
L 57.421875 12.015625 
L 68.609375 54.6875 
L 77.59375 54.6875 
L 63.28125 0 
L 52.6875 0 
L 40.921875 44.828125 
L 29.109375 0 
L 18.5 0 
z
" id="DejaVuSans-119"/>
       <path d="M 45.40625 46.390625 
L 45.40625 75.984375 
L 54.390625 75.984375 
L 54.390625 0 
L 45.40625 0 
L 45.40625 8.203125 
Q 42.578125 3.328125 38.25 0.953125 
Q 33.9375 -1.421875 27.875 -1.421875 
Q 17.96875 -1.421875 11.734375 6.484375 
Q 5.515625 14.40625 5.515625 27.296875 
Q 5.515625 40.1875 11.734375 48.09375 
Q 17.96875 56 27.875 56 
Q 33.9375 56 38.25 53.625 
Q 42.578125 51.265625 45.40625 46.390625 
z
M 14.796875 27.296875 
Q 14.796875 17.390625 18.875 11.75 
Q 22.953125 6.109375 30.078125 6.109375 
Q 37.203125 6.109375 41.296875 11.75 
Q 45.40625 17.390625 45.40625 27.296875 
Q 45.40625 37.203125 41.296875 42.84375 
Q 37.203125 48.484375 30.078125 48.484375 
Q 22.953125 48.484375 18.875 42.84375 
Q 14.796875 37.203125 14.796875 27.296875 
z
" id="DejaVuSans-100"/>
      </defs>
      <g style="fill:#4d4d4d;" transform="translate(40.321 36.098006)scale(0.088 -0.088)">
       <use xlink:href="#DejaVuSans-119"/>
       <use x="81.787109" xlink:href="#DejaVuSans-101"/>
       <use x="143.310547" xlink:href="#DejaVuSans-105"/>
       <use x="171.09375" xlink:href="#DejaVuSans-103"/>
       <use x="234.570312" xlink:href="#DejaVuSans-104"/>
       <use x="297.949219" xlink:href="#DejaVuSans-116"/>
       <use x="337.158203" xlink:href="#DejaVuSans-101"/>
       <use x="398.681641" xlink:href="#DejaVuSans-100"/>
       <use x="462.158203" xlink:href="#DejaVuSans-32"/>
       <use x="493.945312" xlink:href="#DejaVuSans-97"/>
       <use x="555.224609" xlink:href="#DejaVuSans-118"/>
       <use x="614.404297" xlink:href="#DejaVuSans-103"/>
      </g>
     </g>
    </g>
   </g>
   <g id="PathCollection_1">
    <path clip-path="url(#p64f4fed46e)" d="M 203.32675 177.422698 
C 203.79681 177.422698 204.247681 177.235941 204.580064 176.903558 
C 204.912447 176.571175 205.099204 176.120304 205.099204 175.650244 
C 205.099204 175.180184 204.912447 174.729313 204.580064 174.39693 
C 204.247681 174.064547 203.79681 173.87779 203.32675 173.87779 
C 202.85669 173.87779 202.405819 174.064547 202.073436 174.39693 
C 201.741053 174.729313 201.554296 175.180184 201.554296 175.650244 
C 201.554296 176.120304 201.741053 176.571175 202.073436 176.903558 
C 202.405819 177.235941 202.85669 177.422698 203.32675 177.422698 
z
" style="fill:#db5f57;stroke:#000000;stroke-width:0.886227;"/>
    <path clip-path="url(#p64f4fed46e)" d="M 192.50275 157.139771 
C 192.97281 157.139771 193.423681 156.953014 193.756064 156.620631 
C 194.088447 156.288248 194.275204 155.837377 194.275204 155.367317 
C 194.275204 154.897257 194.088447 154.446386 193.756064 154.114003 
C 193.423681 153.78162 192.97281 153.594863 192.50275 153.594863 
C 192.03269 153.594863 191.581819 153.78162 191.249436 154.114003 
C 190.917053 154.446386 190.730296 154.897257 190.730296 155.367317 
C 190.730296 155.837377 190.917053 156.288248 191.249436 156.620631 
C 191.581819 156.953014 192.03269 157.139771 192.50275 157.139771 
z
" style="fill:#dbc257;stroke:#000000;stroke-width:0.886227;"/>
    <path clip-path="url(#p64f4fed46e)" d="M 203.32675 136.856844 
C 203.79681 136.856844 204.247681 136.670087 204.580064 136.337704 
C 204.912447 136.005322 205.099204 135.55445 205.099204 135.08439 
C 205.099204 134.61433 204.912447 134.163459 204.580064 133.831076 
C 204.247681 133.498693 203.79681 133.311936 203.32675 133.311936 
C 202.85669 133.311936 202.405819 133.498693 202.073436 133.831076 
C 201.741053 134.163459 201.554296 134.61433 201.554296 135.08439 
C 201.554296 135.55445 201.741053 136.005322 202.073436 136.337704 
C 202.405819 136.670087 202.85669 136.856844 203.32675 136.856844 
z
" style="fill:#91db57;stroke:#000000;stroke-width:0.886227;"/>
    <path clip-path="url(#p64f4fed46e)" d="M 188.56675 116.573917 
C 189.03681 116.573917 189.487681 116.38716 189.820064 116.054778 
C 190.152447 115.722395 190.339204 115.271524 190.339204 114.801463 
C 190.339204 114.331403 190.152447 113.880532 189.820064 113.548149 
C 189.487681 113.215766 189.03681 113.02901 188.56675 113.02901 
C 188.09669 113.02901 187.645819 113.215766 187.313436 113.548149 
C 186.981053 113.880532 186.794296 114.331403 186.794296 114.801463 
C 186.794296 115.271524 186.981053 115.722395 187.313436 116.054778 
C 187.645819 116.38716 188.09669 116.573917 188.56675 116.573917 
z
" style="fill:#57db80;stroke:#000000;stroke-width:0.886227;"/>
    <path clip-path="url(#p64f4fed46e)" d="M 184.63075 96.29099 
C 185.10081 96.29099 185.551681 96.104234 185.884064 95.771851 
C 186.216447 95.439468 186.403204 94.988597 186.403204 94.518537 
C 186.403204 94.048476 186.216447 93.597605 185.884064 93.265222 
C 185.551681 92.93284 185.10081 92.746083 184.63075 92.746083 
C 184.16069 92.746083 183.709819 92.93284 183.377436 93.265222 
C 183.045053 93.597605 182.858296 94.048476 182.858296 94.518537 
C 182.858296 94.988597 183.045053 95.439468 183.377436 95.771851 
C 183.709819 96.104234 184.16069 96.29099 184.63075 96.29099 
z
" style="fill:#57d3db;stroke:#000000;stroke-width:0.886227;"/>
    <path clip-path="url(#p64f4fed46e)" d="M 194.47075 76.008064 
C 194.94081 76.008064 195.391681 75.821307 195.724064 75.488924 
C 196.056447 75.156541 196.243204 74.70567 196.243204 74.23561 
C 196.243204 73.76555 196.056447 73.314678 195.724064 72.982296 
C 195.391681 72.649913 194.94081 72.463156 194.47075 72.463156 
C 194.00069 72.463156 193.549819 72.649913 193.217436 72.982296 
C 192.885053 73.314678 192.698296 73.76555 192.698296 74.23561 
C 192.698296 74.70567 192.885053 75.156541 193.217436 75.488924 
C 193.549819 75.821307 194.00069 76.008064 194.47075 76.008064 
z
" style="fill:#5770db;stroke:#000000;stroke-width:0.886227;"/>
    <path clip-path="url(#p64f4fed46e)" d="M 194.47075 55.725137 
C 194.94081 55.725137 195.391681 55.53838 195.724064 55.205997 
C 196.056447 54.873614 196.243204 54.422743 196.243204 53.952683 
C 196.243204 53.482623 196.056447 53.031752 195.724064 52.699369 
C 195.391681 52.366986 194.94081 52.180229 194.47075 52.180229 
C 194.00069 52.180229 193.549819 52.366986 193.217436 52.699369 
C 192.885053 53.031752 192.698296 53.482623 192.698296 53.952683 
C 192.698296 54.422743 192.885053 54.873614 193.217436 55.205997 
C 193.549819 55.53838 194.00069 55.725137 194.47075 55.725137 
z
" style="fill:#a157db;stroke:#000000;stroke-width:0.886227;"/>
    <path clip-path="url(#p64f4fed46e)" d="M 194.47075 35.44221 
C 194.94081 35.44221 195.391681 35.255453 195.724064 34.92307 
C 196.056447 34.590687 196.243204 34.139816 196.243204 33.669756 
C 196.243204 33.199696 196.056447 32.748825 195.724064 32.416442 
C 195.391681 32.084059 194.94081 31.897302 194.47075 31.897302 
C 194.00069 31.897302 193.549819 32.084059 193.217436 32.416442 
C 192.885053 32.748825 192.698296 33.199696 192.698296 33.669756 
C 192.698296 34.139816 192.885053 34.590687 193.217436 34.92307 
C 193.549819 35.255453 194.00069 35.44221 194.47075 35.44221 
z
" style="fill:#db57b2;stroke:#000000;stroke-width:0.886227;"/>
   </g>
   <g id="patch_3">
    <path d="M 104.92675 21.5 
L 213.16675 21.5 
L 213.16675 7.2 
L 104.92675 7.2 
z
" style="fill:#cccccc;stroke:#7f7f7f;stroke-linejoin:miter;"/>
   </g>
   <g id="text_14">
    <!-- f1-score -->
    <defs>
     <path d="M 37.109375 75.984375 
L 37.109375 68.5 
L 28.515625 68.5 
Q 23.6875 68.5 21.796875 66.546875 
Q 19.921875 64.59375 19.921875 59.515625 
L 19.921875 54.6875 
L 34.71875 54.6875 
L 34.71875 47.703125 
L 19.921875 47.703125 
L 19.921875 0 
L 10.890625 0 
L 10.890625 47.703125 
L 2.296875 47.703125 
L 2.296875 54.6875 
L 10.890625 54.6875 
L 10.890625 58.5 
Q 10.890625 67.625 15.140625 71.796875 
Q 19.390625 75.984375 28.609375 75.984375 
z
" id="DejaVuSans-102"/>
     <path d="M 4.890625 31.390625 
L 31.203125 31.390625 
L 31.203125 23.390625 
L 4.890625 23.390625 
z
" id="DejaVuSans-45"/>
     <path d="M 44.28125 53.078125 
L 44.28125 44.578125 
Q 40.484375 46.53125 36.375 47.5 
Q 32.28125 48.484375 27.875 48.484375 
Q 21.1875 48.484375 17.84375 46.4375 
Q 14.5 44.390625 14.5 40.28125 
Q 14.5 37.15625 16.890625 35.375 
Q 19.28125 33.59375 26.515625 31.984375 
L 29.59375 31.296875 
Q 39.15625 29.25 43.1875 25.515625 
Q 47.21875 21.78125 47.21875 15.09375 
Q 47.21875 7.46875 41.1875 3.015625 
Q 35.15625 -1.421875 24.609375 -1.421875 
Q 20.21875 -1.421875 15.453125 -0.5625 
Q 10.6875 0.296875 5.421875 2 
L 5.421875 11.28125 
Q 10.40625 8.6875 15.234375 7.390625 
Q 20.0625 6.109375 24.8125 6.109375 
Q 31.15625 6.109375 34.5625 8.28125 
Q 37.984375 10.453125 37.984375 14.40625 
Q 37.984375 18.0625 35.515625 20.015625 
Q 33.0625 21.96875 24.703125 23.78125 
L 21.578125 24.515625 
Q 13.234375 26.265625 9.515625 29.90625 
Q 5.8125 33.546875 5.8125 39.890625 
Q 5.8125 47.609375 11.28125 51.796875 
Q 16.75 56 26.8125 56 
Q 31.78125 56 36.171875 55.265625 
Q 40.578125 54.546875 44.28125 53.078125 
z
" id="DejaVuSans-115"/>
    </defs>
    <g style="fill:#1a1a1a;" transform="translate(141.192375 16.77825)scale(0.088 -0.088)">
     <use xlink:href="#DejaVuSans-102"/>
     <use x="35.205078" xlink:href="#DejaVuSans-49"/>
     <use x="98.828125" xlink:href="#DejaVuSans-45"/>
     <use x="134.912109" xlink:href="#DejaVuSans-115"/>
     <use x="187.011719" xlink:href="#DejaVuSans-99"/>
     <use x="241.992188" xlink:href="#DejaVuSans-111"/>
     <use x="303.173828" xlink:href="#DejaVuSans-114"/>
     <use x="344.255859" xlink:href="#DejaVuSans-101"/>
    </g>
   </g>
  </g>
  <g id="axes_2">
   <g id="patch_4">
    <path d="M 218.20675 187.82 
L 326.44675 187.82 
L 326.44675 21.5 
L 218.20675 21.5 
z
" style="fill:#ffffff;stroke:#7f7f7f;stroke-linejoin:miter;"/>
   </g>
   <g id="matplotlib.axis_3">
    <g id="xtick_10">
     <g id="line2d_35">
      <path clip-path="url(#p106b570e5c)" d="M 223.12675 187.82 
L 223.12675 21.5 
" style="fill:none;stroke:#e5e5e5;stroke-linecap:square;stroke-width:0.8;"/>
     </g>
     <g id="line2d_36">
      <path d="M 223.12675 187.82 
" style="fill:none;stroke:#000000;stroke-linecap:square;stroke-width:1.5;"/>
      <g>
       <use style="stroke:#000000;" x="223.12675" xlink:href="#m2e5e0d221f" y="187.82"/>
      </g>
     </g>
     <g id="text_15">
      <!-- 0 -->
      <g style="fill:#4d4d4d;" transform="translate(220.32725 199.456625)scale(0.088 -0.088)">
       <use xlink:href="#DejaVuSans-48"/>
      </g>
     </g>
    </g>
    <g id="xtick_11">
     <g id="line2d_37">
      <path clip-path="url(#p106b570e5c)" d="M 247.72675 187.82 
L 247.72675 21.5 
" style="fill:none;stroke:#e5e5e5;stroke-linecap:square;stroke-width:0.8;"/>
     </g>
     <g id="line2d_38">
      <path d="M 247.72675 187.82 
" style="fill:none;stroke:#000000;stroke-linecap:square;stroke-width:1.5;"/>
      <g>
       <use style="stroke:#000000;" x="247.72675" xlink:href="#m2e5e0d221f" y="187.82"/>
      </g>
     </g>
     <g id="text_16">
      <!-- 0.25 -->
      <g style="fill:#4d4d4d;" transform="translate(237.929875 199.456625)scale(0.088 -0.088)">
       <use xlink:href="#DejaVuSans-48"/>
       <use x="63.623047" xlink:href="#DejaVuSans-46"/>
       <use x="95.410156" xlink:href="#DejaVuSans-50"/>
       <use x="159.033203" xlink:href="#DejaVuSans-53"/>
      </g>
     </g>
    </g>
    <g id="xtick_12">
     <g id="line2d_39">
      <path clip-path="url(#p106b570e5c)" d="M 272.32675 187.82 
L 272.32675 21.5 
" style="fill:none;stroke:#e5e5e5;stroke-linecap:square;stroke-width:0.8;"/>
     </g>
     <g id="line2d_40">
      <path d="M 272.32675 187.82 
" style="fill:none;stroke:#000000;stroke-linecap:square;stroke-width:1.5;"/>
      <g>
       <use style="stroke:#000000;" x="272.32675" xlink:href="#m2e5e0d221f" y="187.82"/>
      </g>
     </g>
     <g id="text_17">
      <!-- 0.50 -->
      <g style="fill:#4d4d4d;" transform="translate(262.529875 199.456625)scale(0.088 -0.088)">
       <use xlink:href="#DejaVuSans-48"/>
       <use x="63.623047" xlink:href="#DejaVuSans-46"/>
       <use x="95.410156" xlink:href="#DejaVuSans-53"/>
       <use x="159.033203" xlink:href="#DejaVuSans-48"/>
      </g>
     </g>
    </g>
    <g id="xtick_13">
     <g id="line2d_41">
      <path clip-path="url(#p106b570e5c)" d="M 296.92675 187.82 
L 296.92675 21.5 
" style="fill:none;stroke:#e5e5e5;stroke-linecap:square;stroke-width:0.8;"/>
     </g>
     <g id="line2d_42">
      <path d="M 296.92675 187.82 
" style="fill:none;stroke:#000000;stroke-linecap:square;stroke-width:1.5;"/>
      <g>
       <use style="stroke:#000000;" x="296.92675" xlink:href="#m2e5e0d221f" y="187.82"/>
      </g>
     </g>
     <g id="text_18">
      <!-- 0.75 -->
      <g style="fill:#4d4d4d;" transform="translate(287.129875 199.456625)scale(0.088 -0.088)">
       <use xlink:href="#DejaVuSans-48"/>
       <use x="63.623047" xlink:href="#DejaVuSans-46"/>
       <use x="95.410156" xlink:href="#DejaVuSans-55"/>
       <use x="159.033203" xlink:href="#DejaVuSans-53"/>
      </g>
     </g>
    </g>
    <g id="xtick_14">
     <g id="line2d_43">
      <path clip-path="url(#p106b570e5c)" d="M 321.52675 187.82 
L 321.52675 21.5 
" style="fill:none;stroke:#e5e5e5;stroke-linecap:square;stroke-width:0.8;"/>
     </g>
     <g id="line2d_44">
      <path d="M 321.52675 187.82 
" style="fill:none;stroke:#000000;stroke-linecap:square;stroke-width:1.5;"/>
      <g>
       <use style="stroke:#000000;" x="321.52675" xlink:href="#m2e5e0d221f" y="187.82"/>
      </g>
     </g>
     <g id="text_19">
      <!-- 1 -->
      <g style="fill:#4d4d4d;" transform="translate(318.72725 199.456625)scale(0.088 -0.088)">
       <use xlink:href="#DejaVuSans-49"/>
      </g>
     </g>
    </g>
    <g id="xtick_15">
     <g id="line2d_45">
      <path clip-path="url(#p106b570e5c)" d="M 235.42675 187.82 
L 235.42675 21.5 
" style="fill:none;stroke:#fafafa;stroke-linecap:square;"/>
     </g>
     <g id="line2d_46">
      <path d="M 235.42675 187.82 
" style="fill:none;stroke:#000000;stroke-linecap:square;stroke-width:1.5;"/>
      <g>
       <use style="stroke:#000000;" x="235.42675" xlink:href="#m933ad16324" y="187.82"/>
      </g>
     </g>
    </g>
    <g id="xtick_16">
     <g id="line2d_47">
      <path clip-path="url(#p106b570e5c)" d="M 260.02675 187.82 
L 260.02675 21.5 
" style="fill:none;stroke:#fafafa;stroke-linecap:square;"/>
     </g>
     <g id="line2d_48">
      <path d="M 260.02675 187.82 
" style="fill:none;stroke:#000000;stroke-linecap:square;stroke-width:1.5;"/>
      <g>
       <use style="stroke:#000000;" x="260.02675" xlink:href="#m933ad16324" y="187.82"/>
      </g>
     </g>
    </g>
    <g id="xtick_17">
     <g id="line2d_49">
      <path clip-path="url(#p106b570e5c)" d="M 284.62675 187.82 
L 284.62675 21.5 
" style="fill:none;stroke:#fafafa;stroke-linecap:square;"/>
     </g>
     <g id="line2d_50">
      <path d="M 284.62675 187.82 
" style="fill:none;stroke:#000000;stroke-linecap:square;stroke-width:1.5;"/>
      <g>
       <use style="stroke:#000000;" x="284.62675" xlink:href="#m933ad16324" y="187.82"/>
      </g>
     </g>
    </g>
    <g id="xtick_18">
     <g id="line2d_51">
      <path clip-path="url(#p106b570e5c)" d="M 309.22675 187.82 
L 309.22675 21.5 
" style="fill:none;stroke:#fafafa;stroke-linecap:square;"/>
     </g>
     <g id="line2d_52">
      <path d="M 309.22675 187.82 
" style="fill:none;stroke:#000000;stroke-linecap:square;stroke-width:1.5;"/>
      <g>
       <use style="stroke:#000000;" x="309.22675" xlink:href="#m933ad16324" y="187.82"/>
      </g>
     </g>
    </g>
   </g>
   <g id="matplotlib.axis_4">
    <g id="ytick_9">
     <g id="line2d_53">
      <path clip-path="url(#p106b570e5c)" d="M 218.20675 175.650244 
L 326.44675 175.650244 
" style="fill:none;stroke:#e5e5e5;stroke-linecap:square;stroke-width:0.8;"/>
     </g>
    </g>
    <g id="ytick_10">
     <g id="line2d_54">
      <path clip-path="url(#p106b570e5c)" d="M 218.20675 155.367317 
L 326.44675 155.367317 
" style="fill:none;stroke:#e5e5e5;stroke-linecap:square;stroke-width:0.8;"/>
     </g>
    </g>
    <g id="ytick_11">
     <g id="line2d_55">
      <path clip-path="url(#p106b570e5c)" d="M 218.20675 135.08439 
L 326.44675 135.08439 
" style="fill:none;stroke:#e5e5e5;stroke-linecap:square;stroke-width:0.8;"/>
     </g>
    </g>
    <g id="ytick_12">
     <g id="line2d_56">
      <path clip-path="url(#p106b570e5c)" d="M 218.20675 114.801463 
L 326.44675 114.801463 
" style="fill:none;stroke:#e5e5e5;stroke-linecap:square;stroke-width:0.8;"/>
     </g>
    </g>
    <g id="ytick_13">
     <g id="line2d_57">
      <path clip-path="url(#p106b570e5c)" d="M 218.20675 94.518537 
L 326.44675 94.518537 
" style="fill:none;stroke:#e5e5e5;stroke-linecap:square;stroke-width:0.8;"/>
     </g>
    </g>
    <g id="ytick_14">
     <g id="line2d_58">
      <path clip-path="url(#p106b570e5c)" d="M 218.20675 74.23561 
L 326.44675 74.23561 
" style="fill:none;stroke:#e5e5e5;stroke-linecap:square;stroke-width:0.8;"/>
     </g>
    </g>
    <g id="ytick_15">
     <g id="line2d_59">
      <path clip-path="url(#p106b570e5c)" d="M 218.20675 53.952683 
L 326.44675 53.952683 
" style="fill:none;stroke:#e5e5e5;stroke-linecap:square;stroke-width:0.8;"/>
     </g>
    </g>
    <g id="ytick_16">
     <g id="line2d_60">
      <path clip-path="url(#p106b570e5c)" d="M 218.20675 33.669756 
L 326.44675 33.669756 
" style="fill:none;stroke:#e5e5e5;stroke-linecap:square;stroke-width:0.8;"/>
     </g>
    </g>
   </g>
   <g id="PathCollection_2">
    <path clip-path="url(#p106b570e5c)" d="M 312.67075 177.422698 
C 313.14081 177.422698 313.591681 177.235941 313.924064 176.903558 
C 314.256447 176.571175 314.443204 176.120304 314.443204 175.650244 
C 314.443204 175.180184 314.256447 174.729313 313.924064 174.39693 
C 313.591681 174.064547 313.14081 173.87779 312.67075 173.87779 
C 312.20069 173.87779 311.749819 174.064547 311.417436 174.39693 
C 311.085053 174.729313 310.898296 175.180184 310.898296 175.650244 
C 310.898296 176.120304 311.085053 176.571175 311.417436 176.903558 
C 311.749819 177.235941 312.20069 177.422698 312.67075 177.422698 
z
" style="fill:#db5f57;stroke:#000000;stroke-width:0.886227;"/>
    <path clip-path="url(#p106b570e5c)" d="M 310.70275 157.139771 
C 311.17281 157.139771 311.623681 156.953014 311.956064 156.620631 
C 312.288447 156.288248 312.475204 155.837377 312.475204 155.367317 
C 312.475204 154.897257 312.288447 154.446386 311.956064 154.114003 
C 311.623681 153.78162 311.17281 153.594863 310.70275 153.594863 
C 310.23269 153.594863 309.781819 153.78162 309.449436 154.114003 
C 309.117053 154.446386 308.930296 154.897257 308.930296 155.367317 
C 308.930296 155.837377 309.117053 156.288248 309.449436 156.620631 
C 309.781819 156.953014 310.23269 157.139771 310.70275 157.139771 
z
" style="fill:#dbc257;stroke:#000000;stroke-width:0.886227;"/>
    <path clip-path="url(#p106b570e5c)" d="M 321.52675 136.856844 
C 321.99681 136.856844 322.447681 136.670087 322.780064 136.337704 
C 323.112447 136.005322 323.299204 135.55445 323.299204 135.08439 
C 323.299204 134.61433 323.112447 134.163459 322.780064 133.831076 
C 322.447681 133.498693 321.99681 133.311936 321.52675 133.311936 
C 321.05669 133.311936 320.605819 133.498693 320.273436 133.831076 
C 319.941053 134.163459 319.754296 134.61433 319.754296 135.08439 
C 319.754296 135.55445 319.941053 136.005322 320.273436 136.337704 
C 320.605819 136.670087 321.05669 136.856844 321.52675 136.856844 
z
" style="fill:#91db57;stroke:#000000;stroke-width:0.886227;"/>
    <path clip-path="url(#p106b570e5c)" d="M 301.84675 116.573917 
C 302.31681 116.573917 302.767681 116.38716 303.100064 116.054778 
C 303.432447 115.722395 303.619204 115.271524 303.619204 114.801463 
C 303.619204 114.331403 303.432447 113.880532 303.100064 113.548149 
C 302.767681 113.215766 302.31681 113.02901 301.84675 113.02901 
C 301.37669 113.02901 300.925819 113.215766 300.593436 113.548149 
C 300.261053 113.880532 300.074296 114.331403 300.074296 114.801463 
C 300.074296 115.271524 300.261053 115.722395 300.593436 116.054778 
C 300.925819 116.38716 301.37669 116.573917 301.84675 116.573917 
z
" style="fill:#57db80;stroke:#000000;stroke-width:0.886227;"/>
    <path clip-path="url(#p106b570e5c)" d="M 294.95875 96.29099 
C 295.42881 96.29099 295.879681 96.104234 296.212064 95.771851 
C 296.544447 95.439468 296.731204 94.988597 296.731204 94.518537 
C 296.731204 94.048476 296.544447 93.597605 296.212064 93.265222 
C 295.879681 92.93284 295.42881 92.746083 294.95875 92.746083 
C 294.48869 92.746083 294.037819 92.93284 293.705436 93.265222 
C 293.373053 93.597605 293.186296 94.048476 293.186296 94.518537 
C 293.186296 94.988597 293.373053 95.439468 293.705436 95.771851 
C 294.037819 96.104234 294.48869 96.29099 294.95875 96.29099 
z
" style="fill:#57d3db;stroke:#000000;stroke-width:0.886227;"/>
    <path clip-path="url(#p106b570e5c)" d="M 307.75075 76.008064 
C 308.22081 76.008064 308.671681 75.821307 309.004064 75.488924 
C 309.336447 75.156541 309.523204 74.70567 309.523204 74.23561 
C 309.523204 73.76555 309.336447 73.314678 309.004064 72.982296 
C 308.671681 72.649913 308.22081 72.463156 307.75075 72.463156 
C 307.28069 72.463156 306.829819 72.649913 306.497436 72.982296 
C 306.165053 73.314678 305.978296 73.76555 305.978296 74.23561 
C 305.978296 74.70567 306.165053 75.156541 306.497436 75.488924 
C 306.829819 75.821307 307.28069 76.008064 307.75075 76.008064 
z
" style="fill:#5770db;stroke:#000000;stroke-width:0.886227;"/>
    <path clip-path="url(#p106b570e5c)" d="M 308.73475 55.725137 
C 309.20481 55.725137 309.655681 55.53838 309.988064 55.205997 
C 310.320447 54.873614 310.507204 54.422743 310.507204 53.952683 
C 310.507204 53.482623 310.320447 53.031752 309.988064 52.699369 
C 309.655681 52.366986 309.20481 52.180229 308.73475 52.180229 
C 308.26469 52.180229 307.813819 52.366986 307.481436 52.699369 
C 307.149053 53.031752 306.962296 53.482623 306.962296 53.952683 
C 306.962296 54.422743 307.149053 54.873614 307.481436 55.205997 
C 307.813819 55.53838 308.26469 55.725137 308.73475 55.725137 
z
" style="fill:#a157db;stroke:#000000;stroke-width:0.886227;"/>
    <path clip-path="url(#p106b570e5c)" d="M 308.73475 35.44221 
C 309.20481 35.44221 309.655681 35.255453 309.988064 34.92307 
C 310.320447 34.590687 310.507204 34.139816 310.507204 33.669756 
C 310.507204 33.199696 310.320447 32.748825 309.988064 32.416442 
C 309.655681 32.084059 309.20481 31.897302 308.73475 31.897302 
C 308.26469 31.897302 307.813819 32.084059 307.481436 32.416442 
C 307.149053 32.748825 306.962296 33.199696 306.962296 33.669756 
C 306.962296 34.139816 307.149053 34.590687 307.481436 34.92307 
C 307.813819 35.255453 308.26469 35.44221 308.73475 35.44221 
z
" style="fill:#db57b2;stroke:#000000;stroke-width:0.886227;"/>
   </g>
   <g id="patch_5">
    <path d="M 218.20675 21.5 
L 326.44675 21.5 
L 326.44675 7.2 
L 218.20675 7.2 
z
" style="fill:#cccccc;stroke:#7f7f7f;stroke-linejoin:miter;"/>
   </g>
   <g id="text_20">
    <!-- precision -->
    <defs>
     <path d="M 18.109375 8.203125 
L 18.109375 -20.796875 
L 9.078125 -20.796875 
L 9.078125 54.6875 
L 18.109375 54.6875 
L 18.109375 46.390625 
Q 20.953125 51.265625 25.265625 53.625 
Q 29.59375 56 35.59375 56 
Q 45.5625 56 51.78125 48.09375 
Q 58.015625 40.1875 58.015625 27.296875 
Q 58.015625 14.40625 51.78125 6.484375 
Q 45.5625 -1.421875 35.59375 -1.421875 
Q 29.59375 -1.421875 25.265625 0.953125 
Q 20.953125 3.328125 18.109375 8.203125 
z
M 48.6875 27.296875 
Q 48.6875 37.203125 44.609375 42.84375 
Q 40.53125 48.484375 33.40625 48.484375 
Q 26.265625 48.484375 22.1875 42.84375 
Q 18.109375 37.203125 18.109375 27.296875 
Q 18.109375 17.390625 22.1875 11.75 
Q 26.265625 6.109375 33.40625 6.109375 
Q 40.53125 6.109375 44.609375 11.75 
Q 48.6875 17.390625 48.6875 27.296875 
z
" id="DejaVuSans-112"/>
    </defs>
    <g style="fill:#1a1a1a;" transform="translate(252.381687 16.77825)scale(0.088 -0.088)">
     <use xlink:href="#DejaVuSans-112"/>
     <use x="63.476562" xlink:href="#DejaVuSans-114"/>
     <use x="104.558594" xlink:href="#DejaVuSans-101"/>
     <use x="166.082031" xlink:href="#DejaVuSans-99"/>
     <use x="221.0625" xlink:href="#DejaVuSans-105"/>
     <use x="248.845703" xlink:href="#DejaVuSans-115"/>
     <use x="300.945312" xlink:href="#DejaVuSans-105"/>
     <use x="328.728516" xlink:href="#DejaVuSans-111"/>
     <use x="389.910156" xlink:href="#DejaVuSans-110"/>
    </g>
   </g>
  </g>
  <g id="axes_3">
   <g id="patch_6">
    <path d="M 331.48675 187.82 
L 439.72675 187.82 
L 439.72675 21.5 
L 331.48675 21.5 
z
" style="fill:#ffffff;stroke:#7f7f7f;stroke-linejoin:miter;"/>
   </g>
   <g id="matplotlib.axis_5">
    <g id="xtick_19">
     <g id="line2d_61">
      <path clip-path="url(#p84fb0f435e)" d="M 336.40675 187.82 
L 336.40675 21.5 
" style="fill:none;stroke:#e5e5e5;stroke-linecap:square;stroke-width:0.8;"/>
     </g>
     <g id="line2d_62">
      <path d="M 336.40675 187.82 
" style="fill:none;stroke:#000000;stroke-linecap:square;stroke-width:1.5;"/>
      <g>
       <use style="stroke:#000000;" x="336.40675" xlink:href="#m2e5e0d221f" y="187.82"/>
      </g>
     </g>
     <g id="text_21">
      <!-- 0 -->
      <g style="fill:#4d4d4d;" transform="translate(333.60725 199.456625)scale(0.088 -0.088)">
       <use xlink:href="#DejaVuSans-48"/>
      </g>
     </g>
    </g>
    <g id="xtick_20">
     <g id="line2d_63">
      <path clip-path="url(#p84fb0f435e)" d="M 361.00675 187.82 
L 361.00675 21.5 
" style="fill:none;stroke:#e5e5e5;stroke-linecap:square;stroke-width:0.8;"/>
     </g>
     <g id="line2d_64">
      <path d="M 361.00675 187.82 
" style="fill:none;stroke:#000000;stroke-linecap:square;stroke-width:1.5;"/>
      <g>
       <use style="stroke:#000000;" x="361.00675" xlink:href="#m2e5e0d221f" y="187.82"/>
      </g>
     </g>
     <g id="text_22">
      <!-- 0.25 -->
      <g style="fill:#4d4d4d;" transform="translate(351.209875 199.456625)scale(0.088 -0.088)">
       <use xlink:href="#DejaVuSans-48"/>
       <use x="63.623047" xlink:href="#DejaVuSans-46"/>
       <use x="95.410156" xlink:href="#DejaVuSans-50"/>
       <use x="159.033203" xlink:href="#DejaVuSans-53"/>
      </g>
     </g>
    </g>
    <g id="xtick_21">
     <g id="line2d_65">
      <path clip-path="url(#p84fb0f435e)" d="M 385.60675 187.82 
L 385.60675 21.5 
" style="fill:none;stroke:#e5e5e5;stroke-linecap:square;stroke-width:0.8;"/>
     </g>
     <g id="line2d_66">
      <path d="M 385.60675 187.82 
" style="fill:none;stroke:#000000;stroke-linecap:square;stroke-width:1.5;"/>
      <g>
       <use style="stroke:#000000;" x="385.60675" xlink:href="#m2e5e0d221f" y="187.82"/>
      </g>
     </g>
     <g id="text_23">
      <!-- 0.50 -->
      <g style="fill:#4d4d4d;" transform="translate(375.809875 199.456625)scale(0.088 -0.088)">
       <use xlink:href="#DejaVuSans-48"/>
       <use x="63.623047" xlink:href="#DejaVuSans-46"/>
       <use x="95.410156" xlink:href="#DejaVuSans-53"/>
       <use x="159.033203" xlink:href="#DejaVuSans-48"/>
      </g>
     </g>
    </g>
    <g id="xtick_22">
     <g id="line2d_67">
      <path clip-path="url(#p84fb0f435e)" d="M 410.20675 187.82 
L 410.20675 21.5 
" style="fill:none;stroke:#e5e5e5;stroke-linecap:square;stroke-width:0.8;"/>
     </g>
     <g id="line2d_68">
      <path d="M 410.20675 187.82 
" style="fill:none;stroke:#000000;stroke-linecap:square;stroke-width:1.5;"/>
      <g>
       <use style="stroke:#000000;" x="410.20675" xlink:href="#m2e5e0d221f" y="187.82"/>
      </g>
     </g>
     <g id="text_24">
      <!-- 0.75 -->
      <g style="fill:#4d4d4d;" transform="translate(400.409875 199.456625)scale(0.088 -0.088)">
       <use xlink:href="#DejaVuSans-48"/>
       <use x="63.623047" xlink:href="#DejaVuSans-46"/>
       <use x="95.410156" xlink:href="#DejaVuSans-55"/>
       <use x="159.033203" xlink:href="#DejaVuSans-53"/>
      </g>
     </g>
    </g>
    <g id="xtick_23">
     <g id="line2d_69">
      <path clip-path="url(#p84fb0f435e)" d="M 434.80675 187.82 
L 434.80675 21.5 
" style="fill:none;stroke:#e5e5e5;stroke-linecap:square;stroke-width:0.8;"/>
     </g>
     <g id="line2d_70">
      <path d="M 434.80675 187.82 
" style="fill:none;stroke:#000000;stroke-linecap:square;stroke-width:1.5;"/>
      <g>
       <use style="stroke:#000000;" x="434.80675" xlink:href="#m2e5e0d221f" y="187.82"/>
      </g>
     </g>
     <g id="text_25">
      <!-- 1 -->
      <g style="fill:#4d4d4d;" transform="translate(432.00725 199.456625)scale(0.088 -0.088)">
       <use xlink:href="#DejaVuSans-49"/>
      </g>
     </g>
    </g>
    <g id="xtick_24">
     <g id="line2d_71">
      <path clip-path="url(#p84fb0f435e)" d="M 348.70675 187.82 
L 348.70675 21.5 
" style="fill:none;stroke:#fafafa;stroke-linecap:square;"/>
     </g>
     <g id="line2d_72">
      <path d="M 348.70675 187.82 
" style="fill:none;stroke:#000000;stroke-linecap:square;stroke-width:1.5;"/>
      <g>
       <use style="stroke:#000000;" x="348.70675" xlink:href="#m933ad16324" y="187.82"/>
      </g>
     </g>
    </g>
    <g id="xtick_25">
     <g id="line2d_73">
      <path clip-path="url(#p84fb0f435e)" d="M 373.30675 187.82 
L 373.30675 21.5 
" style="fill:none;stroke:#fafafa;stroke-linecap:square;"/>
     </g>
     <g id="line2d_74">
      <path d="M 373.30675 187.82 
" style="fill:none;stroke:#000000;stroke-linecap:square;stroke-width:1.5;"/>
      <g>
       <use style="stroke:#000000;" x="373.30675" xlink:href="#m933ad16324" y="187.82"/>
      </g>
     </g>
    </g>
    <g id="xtick_26">
     <g id="line2d_75">
      <path clip-path="url(#p84fb0f435e)" d="M 397.90675 187.82 
L 397.90675 21.5 
" style="fill:none;stroke:#fafafa;stroke-linecap:square;"/>
     </g>
     <g id="line2d_76">
      <path d="M 397.90675 187.82 
" style="fill:none;stroke:#000000;stroke-linecap:square;stroke-width:1.5;"/>
      <g>
       <use style="stroke:#000000;" x="397.90675" xlink:href="#m933ad16324" y="187.82"/>
      </g>
     </g>
    </g>
    <g id="xtick_27">
     <g id="line2d_77">
      <path clip-path="url(#p84fb0f435e)" d="M 422.50675 187.82 
L 422.50675 21.5 
" style="fill:none;stroke:#fafafa;stroke-linecap:square;"/>
     </g>
     <g id="line2d_78">
      <path d="M 422.50675 187.82 
" style="fill:none;stroke:#000000;stroke-linecap:square;stroke-width:1.5;"/>
      <g>
       <use style="stroke:#000000;" x="422.50675" xlink:href="#m933ad16324" y="187.82"/>
      </g>
     </g>
    </g>
   </g>
   <g id="matplotlib.axis_6">
    <g id="ytick_17">
     <g id="line2d_79">
      <path clip-path="url(#p84fb0f435e)" d="M 331.48675 175.650244 
L 439.72675 175.650244 
" style="fill:none;stroke:#e5e5e5;stroke-linecap:square;stroke-width:0.8;"/>
     </g>
    </g>
    <g id="ytick_18">
     <g id="line2d_80">
      <path clip-path="url(#p84fb0f435e)" d="M 331.48675 155.367317 
L 439.72675 155.367317 
" style="fill:none;stroke:#e5e5e5;stroke-linecap:square;stroke-width:0.8;"/>
     </g>
    </g>
    <g id="ytick_19">
     <g id="line2d_81">
      <path clip-path="url(#p84fb0f435e)" d="M 331.48675 135.08439 
L 439.72675 135.08439 
" style="fill:none;stroke:#e5e5e5;stroke-linecap:square;stroke-width:0.8;"/>
     </g>
    </g>
    <g id="ytick_20">
     <g id="line2d_82">
      <path clip-path="url(#p84fb0f435e)" d="M 331.48675 114.801463 
L 439.72675 114.801463 
" style="fill:none;stroke:#e5e5e5;stroke-linecap:square;stroke-width:0.8;"/>
     </g>
    </g>
    <g id="ytick_21">
     <g id="line2d_83">
      <path clip-path="url(#p84fb0f435e)" d="M 331.48675 94.518537 
L 439.72675 94.518537 
" style="fill:none;stroke:#e5e5e5;stroke-linecap:square;stroke-width:0.8;"/>
     </g>
    </g>
    <g id="ytick_22">
     <g id="line2d_84">
      <path clip-path="url(#p84fb0f435e)" d="M 331.48675 74.23561 
L 439.72675 74.23561 
" style="fill:none;stroke:#e5e5e5;stroke-linecap:square;stroke-width:0.8;"/>
     </g>
    </g>
    <g id="ytick_23">
     <g id="line2d_85">
      <path clip-path="url(#p84fb0f435e)" d="M 331.48675 53.952683 
L 439.72675 53.952683 
" style="fill:none;stroke:#e5e5e5;stroke-linecap:square;stroke-width:0.8;"/>
     </g>
    </g>
    <g id="ytick_24">
     <g id="line2d_86">
      <path clip-path="url(#p84fb0f435e)" d="M 331.48675 33.669756 
L 439.72675 33.669756 
" style="fill:none;stroke:#e5e5e5;stroke-linecap:square;stroke-width:0.8;"/>
     </g>
    </g>
   </g>
   <g id="PathCollection_3">
    <path clip-path="url(#p84fb0f435e)" d="M 434.80675 177.422698 
C 435.27681 177.422698 435.727681 177.235941 436.060064 176.903558 
C 436.392447 176.571175 436.579204 176.120304 436.579204 175.650244 
C 436.579204 175.180184 436.392447 174.729313 436.060064 174.39693 
C 435.727681 174.064547 435.27681 173.87779 434.80675 173.87779 
C 434.33669 173.87779 433.885819 174.064547 433.553436 174.39693 
C 433.221053 174.729313 433.034296 175.180184 433.034296 175.650244 
C 433.034296 176.120304 433.221053 176.571175 433.553436 176.903558 
C 433.885819 177.235941 434.33669 177.422698 434.80675 177.422698 
z
" style="fill:#db5f57;stroke:#000000;stroke-width:0.886227;"/>
    <path clip-path="url(#p84fb0f435e)" d="M 415.12675 157.139771 
C 415.59681 157.139771 416.047681 156.953014 416.380064 156.620631 
C 416.712447 156.288248 416.899204 155.837377 416.899204 155.367317 
C 416.899204 154.897257 416.712447 154.446386 416.380064 154.114003 
C 416.047681 153.78162 415.59681 153.594863 415.12675 153.594863 
C 414.65669 153.594863 414.205819 153.78162 413.873436 154.114003 
C 413.541053 154.446386 413.354296 154.897257 413.354296 155.367317 
C 413.354296 155.837377 413.541053 156.288248 413.873436 156.620631 
C 414.205819 156.953014 414.65669 157.139771 415.12675 157.139771 
z
" style="fill:#dbc257;stroke:#000000;stroke-width:0.886227;"/>
    <path clip-path="url(#p84fb0f435e)" d="M 424.96675 136.856844 
C 425.43681 136.856844 425.887681 136.670087 426.220064 136.337704 
C 426.552447 136.005322 426.739204 135.55445 426.739204 135.08439 
C 426.739204 134.61433 426.552447 134.163459 426.220064 133.831076 
C 425.887681 133.498693 425.43681 133.311936 424.96675 133.311936 
C 424.49669 133.311936 424.045819 133.498693 423.713436 133.831076 
C 423.381053 134.163459 423.194296 134.61433 423.194296 135.08439 
C 423.194296 135.55445 423.381053 136.005322 423.713436 136.337704 
C 424.045819 136.670087 424.49669 136.856844 424.96675 136.856844 
z
" style="fill:#91db57;stroke:#000000;stroke-width:0.886227;"/>
    <path clip-path="url(#p84fb0f435e)" d="M 415.12675 116.573917 
C 415.59681 116.573917 416.047681 116.38716 416.380064 116.054778 
C 416.712447 115.722395 416.899204 115.271524 416.899204 114.801463 
C 416.899204 114.331403 416.712447 113.880532 416.380064 113.548149 
C 416.047681 113.215766 415.59681 113.02901 415.12675 113.02901 
C 414.65669 113.02901 414.205819 113.215766 413.873436 113.548149 
C 413.541053 113.880532 413.354296 114.331403 413.354296 114.801463 
C 413.354296 115.271524 413.541053 115.722395 413.873436 116.054778 
C 414.205819 116.38716 414.65669 116.573917 415.12675 116.573917 
z
" style="fill:#57db80;stroke:#000000;stroke-width:0.886227;"/>
    <path clip-path="url(#p84fb0f435e)" d="M 415.12675 96.29099 
C 415.59681 96.29099 416.047681 96.104234 416.380064 95.771851 
C 416.712447 95.439468 416.899204 94.988597 416.899204 94.518537 
C 416.899204 94.048476 416.712447 93.597605 416.380064 93.265222 
C 416.047681 92.93284 415.59681 92.746083 415.12675 92.746083 
C 414.65669 92.746083 414.205819 92.93284 413.873436 93.265222 
C 413.541053 93.597605 413.354296 94.048476 413.354296 94.518537 
C 413.354296 94.988597 413.541053 95.439468 413.873436 95.771851 
C 414.205819 96.104234 414.65669 96.29099 415.12675 96.29099 
z
" style="fill:#57d3db;stroke:#000000;stroke-width:0.886227;"/>
    <path clip-path="url(#p84fb0f435e)" d="M 421.03075 76.008064 
C 421.50081 76.008064 421.951681 75.821307 422.284064 75.488924 
C 422.616447 75.156541 422.803204 74.70567 422.803204 74.23561 
C 422.803204 73.76555 422.616447 73.314678 422.284064 72.982296 
C 421.951681 72.649913 421.50081 72.463156 421.03075 72.463156 
C 420.56069 72.463156 420.109819 72.649913 419.777436 72.982296 
C 419.445053 73.314678 419.258296 73.76555 419.258296 74.23561 
C 419.258296 74.70567 419.445053 75.156541 419.777436 75.488924 
C 420.109819 75.821307 420.56069 76.008064 421.03075 76.008064 
z
" style="fill:#5770db;stroke:#000000;stroke-width:0.886227;"/>
    <path clip-path="url(#p84fb0f435e)" d="M 421.03075 55.725137 
C 421.50081 55.725137 421.951681 55.53838 422.284064 55.205997 
C 422.616447 54.873614 422.803204 54.422743 422.803204 53.952683 
C 422.803204 53.482623 422.616447 53.031752 422.284064 52.699369 
C 421.951681 52.366986 421.50081 52.180229 421.03075 52.180229 
C 420.56069 52.180229 420.109819 52.366986 419.777436 52.699369 
C 419.445053 53.031752 419.258296 53.482623 419.258296 53.952683 
C 419.258296 54.422743 419.445053 54.873614 419.777436 55.205997 
C 420.109819 55.53838 420.56069 55.725137 421.03075 55.725137 
z
" style="fill:#a157db;stroke:#000000;stroke-width:0.886227;"/>
    <path clip-path="url(#p84fb0f435e)" d="M 421.03075 35.44221 
C 421.50081 35.44221 421.951681 35.255453 422.284064 34.92307 
C 422.616447 34.590687 422.803204 34.139816 422.803204 33.669756 
C 422.803204 33.199696 422.616447 32.748825 422.284064 32.416442 
C 421.951681 32.084059 421.50081 31.897302 421.03075 31.897302 
C 420.56069 31.897302 420.109819 32.084059 419.777436 32.416442 
C 419.445053 32.748825 419.258296 33.199696 419.258296 33.669756 
C 419.258296 34.139816 419.445053 34.590687 419.777436 34.92307 
C 420.109819 35.255453 420.56069 35.44221 421.03075 35.44221 
z
" style="fill:#db57b2;stroke:#000000;stroke-width:0.886227;"/>
   </g>
   <g id="patch_7">
    <path d="M 331.48675 21.5 
L 439.72675 21.5 
L 439.72675 7.2 
L 331.48675 7.2 
z
" style="fill:#cccccc;stroke:#7f7f7f;stroke-linejoin:miter;"/>
   </g>
   <g id="text_26">
    <!-- recall -->
    <g style="fill:#1a1a1a;" transform="translate(373.5315 16.77825)scale(0.088 -0.088)">
     <use xlink:href="#DejaVuSans-114"/>
     <use x="41.082031" xlink:href="#DejaVuSans-101"/>
     <use x="102.605469" xlink:href="#DejaVuSans-99"/>
     <use x="157.585938" xlink:href="#DejaVuSans-97"/>
     <use x="218.865234" xlink:href="#DejaVuSans-108"/>
     <use x="246.648438" xlink:href="#DejaVuSans-108"/>
    </g>
   </g>
  </g>
 </g>
 <defs>
  <clipPath id="p64f4fed46e">
   <rect height="166.32" width="108.24" x="104.92675" y="21.5"/>
  </clipPath>
  <clipPath id="p106b570e5c">
   <rect height="166.32" width="108.24" x="218.20675" y="21.5"/>
  </clipPath>
  <clipPath id="p84fb0f435e">
   <rect height="166.32" width="108.24" x="331.48675" y="21.5"/>
  </clipPath>
 </defs>
</svg>
