<?xml version="1.0" encoding="utf-8" standalone="no"?>
<!DOCTYPE svg PUBLIC "-//W3C//DTD SVG 1.1//EN"
  "http://www.w3.org/Graphics/SVG/1.1/DTD/svg11.dtd">
<!-- Created with matplotlib (https://matplotlib.org/) -->
<svg height="208.48675pt" version="1.1" viewBox="0 0 446.92675 208.48675" width="446.92675pt" xmlns="http://www.w3.org/2000/svg" xmlns:xlink="http://www.w3.org/1999/xlink">
 <defs>
  <style type="text/css">
*{stroke-linecap:butt;stroke-linejoin:round;}
  </style>
 </defs>
 <g id="figure_1">
  <g id="patch_1">
   <path d="M 0 208.48675 
L 446.92675 208.48675 
L 446.92675 0 
L 0 0 
z
" style="fill:#ffffff;stroke:#ffffff;stroke-linejoin:miter;"/>
  </g>
  <g id="axes_1">
   <g id="patch_2">
    <path d="M 104.92675 187.82 
L 213.16675 187.82 
L 213.16675 21.5 
L 104.92675 21.5 
z
" style="fill:#ffffff;stroke:#7f7f7f;stroke-linejoin:miter;"/>
   </g>
   <g id="matplotlib.axis_1">
    <g id="xtick_1">
     <g id="line2d_1">
      <path clip-path="url(#pc0bb17e719)" d="M 109.84675 187.82 
L 109.84675 21.5 
" style="fill:none;stroke:#e5e5e5;stroke-width:0.8;"/>
     </g>
     <g id="line2d_2">
      <path d="M 109.84675 187.82 
" style="fill:none;stroke:#000000;stroke-width:1.5;"/>
      <defs>
       <path d="M 0 0 
L 0 2.75 
" id="m81da81c37c" style="stroke:#000000;"/>
      </defs>
      <g>
       <use style="stroke:#000000;" x="109.84675" xlink:href="#m81da81c37c" y="187.82"/>
      </g>
     </g>
     <g id="text_1">
      <!-- 0 -->
      <defs>
       <path d="M 31.78125 66.40625 
Q 24.171875 66.40625 20.328125 58.90625 
Q 16.5 51.421875 16.5 36.375 
Q 16.5 21.390625 20.328125 13.890625 
Q 24.171875 6.390625 31.78125 6.390625 
Q 39.453125 6.390625 43.28125 13.890625 
Q 47.125 21.390625 47.125 36.375 
Q 47.125 51.421875 43.28125 58.90625 
Q 39.453125 66.40625 31.78125 66.40625 
z
M 31.78125 74.21875 
Q 44.046875 74.21875 50.515625 64.515625 
Q 56.984375 54.828125 56.984375 36.375 
Q 56.984375 17.96875 50.515625 8.265625 
Q 44.046875 -1.421875 31.78125 -1.421875 
Q 19.53125 -1.421875 13.0625 8.265625 
Q 6.59375 17.96875 6.59375 36.375 
Q 6.59375 54.828125 13.0625 64.515625 
Q 19.53125 74.21875 31.78125 74.21875 
z
" id="DejaVuSans-48"/>
      </defs>
      <g style="fill:#4d4d4d;" transform="translate(107.04725 199.456625)scale(0.088 -0.088)">
       <use xlink:href="#DejaVuSans-48"/>
      </g>
     </g>
    </g>
    <g id="xtick_2">
     <g id="line2d_3">
      <path clip-path="url(#pc0bb17e719)" d="M 134.44675 187.82 
L 134.44675 21.5 
" style="fill:none;stroke:#e5e5e5;stroke-width:0.8;"/>
     </g>
     <g id="line2d_4">
      <path d="M 134.44675 187.82 
" style="fill:none;stroke:#000000;stroke-width:1.5;"/>
      <g>
       <use style="stroke:#000000;" x="134.44675" xlink:href="#m81da81c37c" y="187.82"/>
      </g>
     </g>
     <g id="text_2">
      <!-- 0.25 -->
      <defs>
       <path d="M 10.6875 12.40625 
L 21 12.40625 
L 21 0 
L 10.6875 0 
z
" id="DejaVuSans-46"/>
       <path d="M 19.1875 8.296875 
L 53.609375 8.296875 
L 53.609375 0 
L 7.328125 0 
L 7.328125 8.296875 
Q 12.9375 14.109375 22.625 23.890625 
Q 32.328125 33.6875 34.8125 36.53125 
Q 39.546875 41.84375 41.421875 45.53125 
Q 43.3125 49.21875 43.3125 52.78125 
Q 43.3125 58.59375 39.234375 62.25 
Q 35.15625 65.921875 28.609375 65.921875 
Q 23.96875 65.921875 18.8125 64.3125 
Q 13.671875 62.703125 7.8125 59.421875 
L 7.8125 69.390625 
Q 13.765625 71.78125 18.9375 73 
Q 24.125 74.21875 28.421875 74.21875 
Q 39.75 74.21875 46.484375 68.546875 
Q 53.21875 62.890625 53.21875 53.421875 
Q 53.21875 48.921875 51.53125 44.890625 
Q 49.859375 40.875 45.40625 35.40625 
Q 44.1875 33.984375 37.640625 27.21875 
Q 31.109375 20.453125 19.1875 8.296875 
z
" id="DejaVuSans-50"/>
       <path d="M 10.796875 72.90625 
L 49.515625 72.90625 
L 49.515625 64.59375 
L 19.828125 64.59375 
L 19.828125 46.734375 
Q 21.96875 47.46875 24.109375 47.828125 
Q 26.265625 48.1875 28.421875 48.1875 
Q 40.625 48.1875 47.75 41.5 
Q 54.890625 34.8125 54.890625 23.390625 
Q 54.890625 11.625 47.5625 5.09375 
Q 40.234375 -1.421875 26.90625 -1.421875 
Q 22.3125 -1.421875 17.546875 -0.640625 
Q 12.796875 0.140625 7.71875 1.703125 
L 7.71875 11.625 
Q 12.109375 9.234375 16.796875 8.0625 
Q 21.484375 6.890625 26.703125 6.890625 
Q 35.15625 6.890625 40.078125 11.328125 
Q 45.015625 15.765625 45.015625 23.390625 
Q 45.015625 31 40.078125 35.4375 
Q 35.15625 39.890625 26.703125 39.890625 
Q 22.75 39.890625 18.8125 39.015625 
Q 14.890625 38.140625 10.796875 36.28125 
z
" id="DejaVuSans-53"/>
      </defs>
      <g style="fill:#4d4d4d;" transform="translate(124.649875 199.456625)scale(0.088 -0.088)">
       <use xlink:href="#DejaVuSans-48"/>
       <use x="63.623047" xlink:href="#DejaVuSans-46"/>
       <use x="95.410156" xlink:href="#DejaVuSans-50"/>
       <use x="159.033203" xlink:href="#DejaVuSans-53"/>
      </g>
     </g>
    </g>
    <g id="xtick_3">
     <g id="line2d_5">
      <path clip-path="url(#pc0bb17e719)" d="M 159.04675 187.82 
L 159.04675 21.5 
" style="fill:none;stroke:#e5e5e5;stroke-width:0.8;"/>
     </g>
     <g id="line2d_6">
      <path d="M 159.04675 187.82 
" style="fill:none;stroke:#000000;stroke-width:1.5;"/>
      <g>
       <use style="stroke:#000000;" x="159.04675" xlink:href="#m81da81c37c" y="187.82"/>
      </g>
     </g>
     <g id="text_3">
      <!-- 0.50 -->
      <g style="fill:#4d4d4d;" transform="translate(149.249875 199.456625)scale(0.088 -0.088)">
       <use xlink:href="#DejaVuSans-48"/>
       <use x="63.623047" xlink:href="#DejaVuSans-46"/>
       <use x="95.410156" xlink:href="#DejaVuSans-53"/>
       <use x="159.033203" xlink:href="#DejaVuSans-48"/>
      </g>
     </g>
    </g>
    <g id="xtick_4">
     <g id="line2d_7">
      <path clip-path="url(#pc0bb17e719)" d="M 183.64675 187.82 
L 183.64675 21.5 
" style="fill:none;stroke:#e5e5e5;stroke-width:0.8;"/>
     </g>
     <g id="line2d_8">
      <path d="M 183.64675 187.82 
" style="fill:none;stroke:#000000;stroke-width:1.5;"/>
      <g>
       <use style="stroke:#000000;" x="183.64675" xlink:href="#m81da81c37c" y="187.82"/>
      </g>
     </g>
     <g id="text_4">
      <!-- 0.75 -->
      <defs>
       <path d="M 8.203125 72.90625 
L 55.078125 72.90625 
L 55.078125 68.703125 
L 28.609375 0 
L 18.3125 0 
L 43.21875 64.59375 
L 8.203125 64.59375 
z
" id="DejaVuSans-55"/>
      </defs>
      <g style="fill:#4d4d4d;" transform="translate(173.849875 199.456625)scale(0.088 -0.088)">
       <use xlink:href="#DejaVuSans-48"/>
       <use x="63.623047" xlink:href="#DejaVuSans-46"/>
       <use x="95.410156" xlink:href="#DejaVuSans-55"/>
       <use x="159.033203" xlink:href="#DejaVuSans-53"/>
      </g>
     </g>
    </g>
    <g id="xtick_5">
     <g id="line2d_9">
      <path clip-path="url(#pc0bb17e719)" d="M 208.24675 187.82 
L 208.24675 21.5 
" style="fill:none;stroke:#e5e5e5;stroke-width:0.8;"/>
     </g>
     <g id="line2d_10">
      <path d="M 208.24675 187.82 
" style="fill:none;stroke:#000000;stroke-width:1.5;"/>
      <g>
       <use style="stroke:#000000;" x="208.24675" xlink:href="#m81da81c37c" y="187.82"/>
      </g>
     </g>
     <g id="text_5">
      <!-- 1 -->
      <defs>
       <path d="M 12.40625 8.296875 
L 28.515625 8.296875 
L 28.515625 63.921875 
L 10.984375 60.40625 
L 10.984375 69.390625 
L 28.421875 72.90625 
L 38.28125 72.90625 
L 38.28125 8.296875 
L 54.390625 8.296875 
L 54.390625 0 
L 12.40625 0 
z
" id="DejaVuSans-49"/>
      </defs>
      <g style="fill:#4d4d4d;" transform="translate(205.44725 199.456625)scale(0.088 -0.088)">
       <use xlink:href="#DejaVuSans-49"/>
      </g>
     </g>
    </g>
    <g id="xtick_6">
     <g id="line2d_11">
      <path clip-path="url(#pc0bb17e719)" d="M 122.14675 187.82 
L 122.14675 21.5 
" style="fill:none;stroke:#fafafa;"/>
     </g>
     <g id="line2d_12">
      <path d="M 122.14675 187.82 
" style="fill:none;stroke:#000000;stroke-width:1.5;"/>
      <defs>
       <path d="M 0 0 
L 0 1.375 
" id="m5ef0192058" style="stroke:#000000;"/>
      </defs>
      <g>
       <use style="stroke:#000000;" x="122.14675" xlink:href="#m5ef0192058" y="187.82"/>
      </g>
     </g>
    </g>
    <g id="xtick_7">
     <g id="line2d_13">
      <path clip-path="url(#pc0bb17e719)" d="M 146.74675 187.82 
L 146.74675 21.5 
" style="fill:none;stroke:#fafafa;"/>
     </g>
     <g id="line2d_14">
      <path d="M 146.74675 187.82 
" style="fill:none;stroke:#000000;stroke-width:1.5;"/>
      <g>
       <use style="stroke:#000000;" x="146.74675" xlink:href="#m5ef0192058" y="187.82"/>
      </g>
     </g>
    </g>
    <g id="xtick_8">
     <g id="line2d_15">
      <path clip-path="url(#pc0bb17e719)" d="M 171.34675 187.82 
L 171.34675 21.5 
" style="fill:none;stroke:#fafafa;"/>
     </g>
     <g id="line2d_16">
      <path d="M 171.34675 187.82 
" style="fill:none;stroke:#000000;stroke-width:1.5;"/>
      <g>
       <use style="stroke:#000000;" x="171.34675" xlink:href="#m5ef0192058" y="187.82"/>
      </g>
     </g>
    </g>
    <g id="xtick_9">
     <g id="line2d_17">
      <path clip-path="url(#pc0bb17e719)" d="M 195.94675 187.82 
L 195.94675 21.5 
" style="fill:none;stroke:#fafafa;"/>
     </g>
     <g id="line2d_18">
      <path d="M 195.94675 187.82 
" style="fill:none;stroke:#000000;stroke-width:1.5;"/>
      <g>
       <use style="stroke:#000000;" x="195.94675" xlink:href="#m5ef0192058" y="187.82"/>
      </g>
     </g>
    </g>
   </g>
   <g id="matplotlib.axis_2">
    <g id="ytick_1">
     <g id="line2d_19">
      <path clip-path="url(#pc0bb17e719)" d="M 104.92675 175.650244 
L 213.16675 175.650244 
" style="fill:none;stroke:#e5e5e5;stroke-width:0.8;"/>
     </g>
     <g id="line2d_20">
      <path d="M 104.92675 175.650244 
" style="fill:none;stroke:#000000;stroke-width:1.5;"/>
      <defs>
       <path d="M 0 0 
L -2.75 0 
" id="m5489881047" style="stroke:#000000;"/>
      </defs>
      <g>
       <use style="stroke:#000000;" x="104.92675" xlink:href="#m5489881047" y="175.650244"/>
      </g>
     </g>
     <g id="text_6">
      <!-- Chlortetracycline -->
      <defs>
       <path d="M 64.40625 67.28125 
L 64.40625 56.890625 
Q 59.421875 61.53125 53.78125 63.8125 
Q 48.140625 66.109375 41.796875 66.109375 
Q 29.296875 66.109375 22.65625 58.46875 
Q 16.015625 50.828125 16.015625 36.375 
Q 16.015625 21.96875 22.65625 14.328125 
Q 29.296875 6.6875 41.796875 6.6875 
Q 48.140625 6.6875 53.78125 8.984375 
Q 59.421875 11.28125 64.40625 15.921875 
L 64.40625 5.609375 
Q 59.234375 2.09375 53.4375 0.328125 
Q 47.65625 -1.421875 41.21875 -1.421875 
Q 24.65625 -1.421875 15.125 8.703125 
Q 5.609375 18.84375 5.609375 36.375 
Q 5.609375 53.953125 15.125 64.078125 
Q 24.65625 74.21875 41.21875 74.21875 
Q 47.75 74.21875 53.53125 72.484375 
Q 59.328125 70.75 64.40625 67.28125 
z
" id="DejaVuSans-67"/>
       <path d="M 54.890625 33.015625 
L 54.890625 0 
L 45.90625 0 
L 45.90625 32.71875 
Q 45.90625 40.484375 42.875 44.328125 
Q 39.84375 48.1875 33.796875 48.1875 
Q 26.515625 48.1875 22.3125 43.546875 
Q 18.109375 38.921875 18.109375 30.90625 
L 18.109375 0 
L 9.078125 0 
L 9.078125 75.984375 
L 18.109375 75.984375 
L 18.109375 46.1875 
Q 21.34375 51.125 25.703125 53.5625 
Q 30.078125 56 35.796875 56 
Q 45.21875 56 50.046875 50.171875 
Q 54.890625 44.34375 54.890625 33.015625 
z
" id="DejaVuSans-104"/>
       <path d="M 9.421875 75.984375 
L 18.40625 75.984375 
L 18.40625 0 
L 9.421875 0 
z
" id="DejaVuSans-108"/>
       <path d="M 30.609375 48.390625 
Q 23.390625 48.390625 19.1875 42.75 
Q 14.984375 37.109375 14.984375 27.296875 
Q 14.984375 17.484375 19.15625 11.84375 
Q 23.34375 6.203125 30.609375 6.203125 
Q 37.796875 6.203125 41.984375 11.859375 
Q 46.1875 17.53125 46.1875 27.296875 
Q 46.1875 37.015625 41.984375 42.703125 
Q 37.796875 48.390625 30.609375 48.390625 
z
M 30.609375 56 
Q 42.328125 56 49.015625 48.375 
Q 55.71875 40.765625 55.71875 27.296875 
Q 55.71875 13.875 49.015625 6.21875 
Q 42.328125 -1.421875 30.609375 -1.421875 
Q 18.84375 -1.421875 12.171875 6.21875 
Q 5.515625 13.875 5.515625 27.296875 
Q 5.515625 40.765625 12.171875 48.375 
Q 18.84375 56 30.609375 56 
z
" id="DejaVuSans-111"/>
       <path d="M 41.109375 46.296875 
Q 39.59375 47.171875 37.8125 47.578125 
Q 36.03125 48 33.890625 48 
Q 26.265625 48 22.1875 43.046875 
Q 18.109375 38.09375 18.109375 28.8125 
L 18.109375 0 
L 9.078125 0 
L 9.078125 54.6875 
L 18.109375 54.6875 
L 18.109375 46.1875 
Q 20.953125 51.171875 25.484375 53.578125 
Q 30.03125 56 36.53125 56 
Q 37.453125 56 38.578125 55.875 
Q 39.703125 55.765625 41.0625 55.515625 
z
" id="DejaVuSans-114"/>
       <path d="M 18.3125 70.21875 
L 18.3125 54.6875 
L 36.8125 54.6875 
L 36.8125 47.703125 
L 18.3125 47.703125 
L 18.3125 18.015625 
Q 18.3125 11.328125 20.140625 9.421875 
Q 21.96875 7.515625 27.59375 7.515625 
L 36.8125 7.515625 
L 36.8125 0 
L 27.59375 0 
Q 17.1875 0 13.234375 3.875 
Q 9.28125 7.765625 9.28125 18.015625 
L 9.28125 47.703125 
L 2.6875 47.703125 
L 2.6875 54.6875 
L 9.28125 54.6875 
L 9.28125 70.21875 
z
" id="DejaVuSans-116"/>
       <path d="M 56.203125 29.59375 
L 56.203125 25.203125 
L 14.890625 25.203125 
Q 15.484375 15.921875 20.484375 11.0625 
Q 25.484375 6.203125 34.421875 6.203125 
Q 39.59375 6.203125 44.453125 7.46875 
Q 49.3125 8.734375 54.109375 11.28125 
L 54.109375 2.78125 
Q 49.265625 0.734375 44.1875 -0.34375 
Q 39.109375 -1.421875 33.890625 -1.421875 
Q 20.796875 -1.421875 13.15625 6.1875 
Q 5.515625 13.8125 5.515625 26.8125 
Q 5.515625 40.234375 12.765625 48.109375 
Q 20.015625 56 32.328125 56 
Q 43.359375 56 49.78125 48.890625 
Q 56.203125 41.796875 56.203125 29.59375 
z
M 47.21875 32.234375 
Q 47.125 39.59375 43.09375 43.984375 
Q 39.0625 48.390625 32.421875 48.390625 
Q 24.90625 48.390625 20.390625 44.140625 
Q 15.875 39.890625 15.1875 32.171875 
z
" id="DejaVuSans-101"/>
       <path d="M 34.28125 27.484375 
Q 23.390625 27.484375 19.1875 25 
Q 14.984375 22.515625 14.984375 16.5 
Q 14.984375 11.71875 18.140625 8.90625 
Q 21.296875 6.109375 26.703125 6.109375 
Q 34.1875 6.109375 38.703125 11.40625 
Q 43.21875 16.703125 43.21875 25.484375 
L 43.21875 27.484375 
z
M 52.203125 31.203125 
L 52.203125 0 
L 43.21875 0 
L 43.21875 8.296875 
Q 40.140625 3.328125 35.546875 0.953125 
Q 30.953125 -1.421875 24.3125 -1.421875 
Q 15.921875 -1.421875 10.953125 3.296875 
Q 6 8.015625 6 15.921875 
Q 6 25.140625 12.171875 29.828125 
Q 18.359375 34.515625 30.609375 34.515625 
L 43.21875 34.515625 
L 43.21875 35.40625 
Q 43.21875 41.609375 39.140625 45 
Q 35.0625 48.390625 27.6875 48.390625 
Q 23 48.390625 18.546875 47.265625 
Q 14.109375 46.140625 10.015625 43.890625 
L 10.015625 52.203125 
Q 14.9375 54.109375 19.578125 55.046875 
Q 24.21875 56 28.609375 56 
Q 40.484375 56 46.34375 49.84375 
Q 52.203125 43.703125 52.203125 31.203125 
z
" id="DejaVuSans-97"/>
       <path d="M 48.78125 52.59375 
L 48.78125 44.1875 
Q 44.96875 46.296875 41.140625 47.34375 
Q 37.3125 48.390625 33.40625 48.390625 
Q 24.65625 48.390625 19.8125 42.84375 
Q 14.984375 37.3125 14.984375 27.296875 
Q 14.984375 17.28125 19.8125 11.734375 
Q 24.65625 6.203125 33.40625 6.203125 
Q 37.3125 6.203125 41.140625 7.25 
Q 44.96875 8.296875 48.78125 10.40625 
L 48.78125 2.09375 
Q 45.015625 0.34375 40.984375 -0.53125 
Q 36.96875 -1.421875 32.421875 -1.421875 
Q 20.0625 -1.421875 12.78125 6.34375 
Q 5.515625 14.109375 5.515625 27.296875 
Q 5.515625 40.671875 12.859375 48.328125 
Q 20.21875 56 33.015625 56 
Q 37.15625 56 41.109375 55.140625 
Q 45.0625 54.296875 48.78125 52.59375 
z
" id="DejaVuSans-99"/>
       <path d="M 32.171875 -5.078125 
Q 28.375 -14.84375 24.75 -17.8125 
Q 21.140625 -20.796875 15.09375 -20.796875 
L 7.90625 -20.796875 
L 7.90625 -13.28125 
L 13.1875 -13.28125 
Q 16.890625 -13.28125 18.9375 -11.515625 
Q 21 -9.765625 23.484375 -3.21875 
L 25.09375 0.875 
L 2.984375 54.6875 
L 12.5 54.6875 
L 29.59375 11.921875 
L 46.6875 54.6875 
L 56.203125 54.6875 
z
" id="DejaVuSans-121"/>
       <path d="M 9.421875 54.6875 
L 18.40625 54.6875 
L 18.40625 0 
L 9.421875 0 
z
M 9.421875 75.984375 
L 18.40625 75.984375 
L 18.40625 64.59375 
L 9.421875 64.59375 
z
" id="DejaVuSans-105"/>
       <path d="M 54.890625 33.015625 
L 54.890625 0 
L 45.90625 0 
L 45.90625 32.71875 
Q 45.90625 40.484375 42.875 44.328125 
Q 39.84375 48.1875 33.796875 48.1875 
Q 26.515625 48.1875 22.3125 43.546875 
Q 18.109375 38.921875 18.109375 30.90625 
L 18.109375 0 
L 9.078125 0 
L 9.078125 54.6875 
L 18.109375 54.6875 
L 18.109375 46.1875 
Q 21.34375 51.125 25.703125 53.5625 
Q 30.078125 56 35.796875 56 
Q 45.21875 56 50.046875 50.171875 
Q 54.890625 44.34375 54.890625 33.015625 
z
" id="DejaVuSans-110"/>
      </defs>
      <g style="fill:#4d4d4d;" transform="translate(24.716125 178.078494)scale(0.088 -0.088)">
       <use xlink:href="#DejaVuSans-67"/>
       <use x="69.824219" xlink:href="#DejaVuSans-104"/>
       <use x="133.203125" xlink:href="#DejaVuSans-108"/>
       <use x="160.986328" xlink:href="#DejaVuSans-111"/>
       <use x="222.167969" xlink:href="#DejaVuSans-114"/>
       <use x="263.28125" xlink:href="#DejaVuSans-116"/>
       <use x="302.490234" xlink:href="#DejaVuSans-101"/>
       <use x="364.013672" xlink:href="#DejaVuSans-116"/>
       <use x="403.222656" xlink:href="#DejaVuSans-114"/>
       <use x="444.335938" xlink:href="#DejaVuSans-97"/>
       <use x="505.615234" xlink:href="#DejaVuSans-99"/>
       <use x="560.595703" xlink:href="#DejaVuSans-121"/>
       <use x="619.775391" xlink:href="#DejaVuSans-99"/>
       <use x="674.755859" xlink:href="#DejaVuSans-108"/>
       <use x="702.539062" xlink:href="#DejaVuSans-105"/>
       <use x="730.322266" xlink:href="#DejaVuSans-110"/>
       <use x="793.701172" xlink:href="#DejaVuSans-101"/>
      </g>
     </g>
    </g>
    <g id="ytick_2">
     <g id="line2d_21">
      <path clip-path="url(#pc0bb17e719)" d="M 104.92675 155.367317 
L 213.16675 155.367317 
" style="fill:none;stroke:#e5e5e5;stroke-width:0.8;"/>
     </g>
     <g id="line2d_22">
      <path d="M 104.92675 155.367317 
" style="fill:none;stroke:#000000;stroke-width:1.5;"/>
      <g>
       <use style="stroke:#000000;" x="104.92675" xlink:href="#m5489881047" y="155.367317"/>
      </g>
     </g>
     <g id="text_7">
      <!-- Control -->
      <g style="fill:#4d4d4d;" transform="translate(67.976375 157.795567)scale(0.088 -0.088)">
       <use xlink:href="#DejaVuSans-67"/>
       <use x="69.824219" xlink:href="#DejaVuSans-111"/>
       <use x="131.005859" xlink:href="#DejaVuSans-110"/>
       <use x="194.384766" xlink:href="#DejaVuSans-116"/>
       <use x="233.59375" xlink:href="#DejaVuSans-114"/>
       <use x="274.675781" xlink:href="#DejaVuSans-111"/>
       <use x="335.857422" xlink:href="#DejaVuSans-108"/>
      </g>
     </g>
    </g>
    <g id="ytick_3">
     <g id="line2d_23">
      <path clip-path="url(#pc0bb17e719)" d="M 104.92675 135.08439 
L 213.16675 135.08439 
" style="fill:none;stroke:#e5e5e5;stroke-width:0.8;"/>
     </g>
     <g id="line2d_24">
      <path d="M 104.92675 135.08439 
" style="fill:none;stroke:#000000;stroke-width:1.5;"/>
      <g>
       <use style="stroke:#000000;" x="104.92675" xlink:href="#m5489881047" y="135.08439"/>
      </g>
     </g>
     <g id="text_8">
      <!-- Penicillin -->
      <defs>
       <path d="M 19.671875 64.796875 
L 19.671875 37.40625 
L 32.078125 37.40625 
Q 38.96875 37.40625 42.71875 40.96875 
Q 46.484375 44.53125 46.484375 51.125 
Q 46.484375 57.671875 42.71875 61.234375 
Q 38.96875 64.796875 32.078125 64.796875 
z
M 9.8125 72.90625 
L 32.078125 72.90625 
Q 44.34375 72.90625 50.609375 67.359375 
Q 56.890625 61.8125 56.890625 51.125 
Q 56.890625 40.328125 50.609375 34.8125 
Q 44.34375 29.296875 32.078125 29.296875 
L 19.671875 29.296875 
L 19.671875 0 
L 9.8125 0 
z
" id="DejaVuSans-80"/>
      </defs>
      <g style="fill:#4d4d4d;" transform="translate(61.043625 137.51264)scale(0.088 -0.088)">
       <use xlink:href="#DejaVuSans-80"/>
       <use x="60.255859" xlink:href="#DejaVuSans-101"/>
       <use x="121.779297" xlink:href="#DejaVuSans-110"/>
       <use x="185.158203" xlink:href="#DejaVuSans-105"/>
       <use x="212.941406" xlink:href="#DejaVuSans-99"/>
       <use x="267.921875" xlink:href="#DejaVuSans-105"/>
       <use x="295.705078" xlink:href="#DejaVuSans-108"/>
       <use x="323.488281" xlink:href="#DejaVuSans-108"/>
       <use x="351.271484" xlink:href="#DejaVuSans-105"/>
       <use x="379.054688" xlink:href="#DejaVuSans-110"/>
      </g>
     </g>
    </g>
    <g id="ytick_4">
     <g id="line2d_25">
      <path clip-path="url(#pc0bb17e719)" d="M 104.92675 114.801463 
L 213.16675 114.801463 
" style="fill:none;stroke:#e5e5e5;stroke-width:0.8;"/>
     </g>
     <g id="line2d_26">
      <path d="M 104.92675 114.801463 
" style="fill:none;stroke:#000000;stroke-width:1.5;"/>
      <g>
       <use style="stroke:#000000;" x="104.92675" xlink:href="#m5489881047" y="114.801463"/>
      </g>
     </g>
     <g id="text_9">
      <!-- Vancomycin -->
      <defs>
       <path d="M 28.609375 0 
L 0.78125 72.90625 
L 11.078125 72.90625 
L 34.1875 11.53125 
L 57.328125 72.90625 
L 67.578125 72.90625 
L 39.796875 0 
z
" id="DejaVuSans-86"/>
       <path d="M 52 44.1875 
Q 55.375 50.25 60.0625 53.125 
Q 64.75 56 71.09375 56 
Q 79.640625 56 84.28125 50.015625 
Q 88.921875 44.046875 88.921875 33.015625 
L 88.921875 0 
L 79.890625 0 
L 79.890625 32.71875 
Q 79.890625 40.578125 77.09375 44.375 
Q 74.3125 48.1875 68.609375 48.1875 
Q 61.625 48.1875 57.5625 43.546875 
Q 53.515625 38.921875 53.515625 30.90625 
L 53.515625 0 
L 44.484375 0 
L 44.484375 32.71875 
Q 44.484375 40.625 41.703125 44.40625 
Q 38.921875 48.1875 33.109375 48.1875 
Q 26.21875 48.1875 22.15625 43.53125 
Q 18.109375 38.875 18.109375 30.90625 
L 18.109375 0 
L 9.078125 0 
L 9.078125 54.6875 
L 18.109375 54.6875 
L 18.109375 46.1875 
Q 21.1875 51.21875 25.484375 53.609375 
Q 29.78125 56 35.6875 56 
Q 41.65625 56 45.828125 52.96875 
Q 50 49.953125 52 44.1875 
z
" id="DejaVuSans-109"/>
      </defs>
      <g style="fill:#4d4d4d;" transform="translate(46.133125 117.229713)scale(0.088 -0.088)">
       <use xlink:href="#DejaVuSans-86"/>
       <use x="68.298828" xlink:href="#DejaVuSans-97"/>
       <use x="129.578125" xlink:href="#DejaVuSans-110"/>
       <use x="192.957031" xlink:href="#DejaVuSans-99"/>
       <use x="247.9375" xlink:href="#DejaVuSans-111"/>
       <use x="309.119141" xlink:href="#DejaVuSans-109"/>
       <use x="406.53125" xlink:href="#DejaVuSans-121"/>
       <use x="465.710938" xlink:href="#DejaVuSans-99"/>
       <use x="520.691406" xlink:href="#DejaVuSans-105"/>
       <use x="548.474609" xlink:href="#DejaVuSans-110"/>
      </g>
     </g>
    </g>
    <g id="ytick_5">
     <g id="line2d_27">
      <path clip-path="url(#pc0bb17e719)" d="M 104.92675 94.518537 
L 213.16675 94.518537 
" style="fill:none;stroke:#e5e5e5;stroke-width:0.8;"/>
     </g>
     <g id="line2d_28">
      <path d="M 104.92675 94.518537 
" style="fill:none;stroke:#000000;stroke-width:1.5;"/>
      <g>
       <use style="stroke:#000000;" x="104.92675" xlink:href="#m5489881047" y="94.518537"/>
      </g>
     </g>
     <g id="text_10">
      <!-- VancomycinPenicillin -->
      <g style="fill:#4d4d4d;" transform="translate(7.2 96.946787)scale(0.088 -0.088)">
       <use xlink:href="#DejaVuSans-86"/>
       <use x="68.298828" xlink:href="#DejaVuSans-97"/>
       <use x="129.578125" xlink:href="#DejaVuSans-110"/>
       <use x="192.957031" xlink:href="#DejaVuSans-99"/>
       <use x="247.9375" xlink:href="#DejaVuSans-111"/>
       <use x="309.119141" xlink:href="#DejaVuSans-109"/>
       <use x="406.53125" xlink:href="#DejaVuSans-121"/>
       <use x="465.710938" xlink:href="#DejaVuSans-99"/>
       <use x="520.691406" xlink:href="#DejaVuSans-105"/>
       <use x="548.474609" xlink:href="#DejaVuSans-110"/>
       <use x="611.853516" xlink:href="#DejaVuSans-80"/>
       <use x="672.109375" xlink:href="#DejaVuSans-101"/>
       <use x="733.632812" xlink:href="#DejaVuSans-110"/>
       <use x="797.011719" xlink:href="#DejaVuSans-105"/>
       <use x="824.794922" xlink:href="#DejaVuSans-99"/>
       <use x="879.775391" xlink:href="#DejaVuSans-105"/>
       <use x="907.558594" xlink:href="#DejaVuSans-108"/>
       <use x="935.341797" xlink:href="#DejaVuSans-108"/>
       <use x="963.125" xlink:href="#DejaVuSans-105"/>
       <use x="990.908203" xlink:href="#DejaVuSans-110"/>
      </g>
     </g>
    </g>
    <g id="ytick_6">
     <g id="line2d_29">
      <path clip-path="url(#pc0bb17e719)" d="M 104.92675 74.23561 
L 213.16675 74.23561 
" style="fill:none;stroke:#e5e5e5;stroke-width:0.8;"/>
     </g>
     <g id="line2d_30">
      <path d="M 104.92675 74.23561 
" style="fill:none;stroke:#000000;stroke-width:1.5;"/>
      <g>
       <use style="stroke:#000000;" x="104.92675" xlink:href="#m5489881047" y="74.23561"/>
      </g>
     </g>
     <g id="text_11">
      <!-- accuracy -->
      <defs>
       <path d="M 8.5 21.578125 
L 8.5 54.6875 
L 17.484375 54.6875 
L 17.484375 21.921875 
Q 17.484375 14.15625 20.5 10.265625 
Q 23.53125 6.390625 29.59375 6.390625 
Q 36.859375 6.390625 41.078125 11.03125 
Q 45.3125 15.671875 45.3125 23.6875 
L 45.3125 54.6875 
L 54.296875 54.6875 
L 54.296875 0 
L 45.3125 0 
L 45.3125 8.40625 
Q 42.046875 3.421875 37.71875 1 
Q 33.40625 -1.421875 27.6875 -1.421875 
Q 18.265625 -1.421875 13.375 4.4375 
Q 8.5 10.296875 8.5 21.578125 
z
M 31.109375 56 
z
" id="DejaVuSans-117"/>
      </defs>
      <g style="fill:#4d4d4d;" transform="translate(60.27225 76.66386)scale(0.088 -0.088)">
       <use xlink:href="#DejaVuSans-97"/>
       <use x="61.279297" xlink:href="#DejaVuSans-99"/>
       <use x="116.259766" xlink:href="#DejaVuSans-99"/>
       <use x="171.240234" xlink:href="#DejaVuSans-117"/>
       <use x="234.619141" xlink:href="#DejaVuSans-114"/>
       <use x="275.732422" xlink:href="#DejaVuSans-97"/>
       <use x="337.011719" xlink:href="#DejaVuSans-99"/>
       <use x="391.992188" xlink:href="#DejaVuSans-121"/>
      </g>
     </g>
    </g>
    <g id="ytick_7">
     <g id="line2d_31">
      <path clip-path="url(#pc0bb17e719)" d="M 104.92675 53.952683 
L 213.16675 53.952683 
" style="fill:none;stroke:#e5e5e5;stroke-width:0.8;"/>
     </g>
     <g id="line2d_32">
      <path d="M 104.92675 53.952683 
" style="fill:none;stroke:#000000;stroke-width:1.5;"/>
      <g>
       <use style="stroke:#000000;" x="104.92675" xlink:href="#m5489881047" y="53.952683"/>
      </g>
     </g>
     <g id="text_12">
      <!-- macro avg -->
      <defs>
       <path id="DejaVuSans-32"/>
       <path d="M 2.984375 54.6875 
L 12.5 54.6875 
L 29.59375 8.796875 
L 46.6875 54.6875 
L 56.203125 54.6875 
L 35.6875 0 
L 23.484375 0 
z
" id="DejaVuSans-118"/>
       <path d="M 45.40625 27.984375 
Q 45.40625 37.75 41.375 43.109375 
Q 37.359375 48.484375 30.078125 48.484375 
Q 22.859375 48.484375 18.828125 43.109375 
Q 14.796875 37.75 14.796875 27.984375 
Q 14.796875 18.265625 18.828125 12.890625 
Q 22.859375 7.515625 30.078125 7.515625 
Q 37.359375 7.515625 41.375 12.890625 
Q 45.40625 18.265625 45.40625 27.984375 
z
M 54.390625 6.78125 
Q 54.390625 -7.171875 48.1875 -13.984375 
Q 42 -20.796875 29.203125 -20.796875 
Q 24.46875 -20.796875 20.265625 -20.09375 
Q 16.0625 -19.390625 12.109375 -17.921875 
L 12.109375 -9.1875 
Q 16.0625 -11.328125 19.921875 -12.34375 
Q 23.78125 -13.375 27.78125 -13.375 
Q 36.625 -13.375 41.015625 -8.765625 
Q 45.40625 -4.15625 45.40625 5.171875 
L 45.40625 9.625 
Q 42.625 4.78125 38.28125 2.390625 
Q 33.9375 0 27.875 0 
Q 17.828125 0 11.671875 7.65625 
Q 5.515625 15.328125 5.515625 27.984375 
Q 5.515625 40.671875 11.671875 48.328125 
Q 17.828125 56 27.875 56 
Q 33.9375 56 38.28125 53.609375 
Q 42.625 51.21875 45.40625 46.390625 
L 45.40625 54.6875 
L 54.390625 54.6875 
z
" id="DejaVuSans-103"/>
      </defs>
      <g style="fill:#4d4d4d;" transform="translate(53.189625 56.380933)scale(0.088 -0.088)">
       <use xlink:href="#DejaVuSans-109"/>
       <use x="97.412109" xlink:href="#DejaVuSans-97"/>
       <use x="158.691406" xlink:href="#DejaVuSans-99"/>
       <use x="213.671875" xlink:href="#DejaVuSans-114"/>
       <use x="254.753906" xlink:href="#DejaVuSans-111"/>
       <use x="315.935547" xlink:href="#DejaVuSans-32"/>
       <use x="347.722656" xlink:href="#DejaVuSans-97"/>
       <use x="409.001953" xlink:href="#DejaVuSans-118"/>
       <use x="468.181641" xlink:href="#DejaVuSans-103"/>
      </g>
     </g>
    </g>
    <g id="ytick_8">
     <g id="line2d_33">
      <path clip-path="url(#pc0bb17e719)" d="M 104.92675 33.669756 
L 213.16675 33.669756 
" style="fill:none;stroke:#e5e5e5;stroke-width:0.8;"/>
     </g>
     <g id="line2d_34">
      <path d="M 104.92675 33.669756 
" style="fill:none;stroke:#000000;stroke-width:1.5;"/>
      <g>
       <use style="stroke:#000000;" x="104.92675" xlink:href="#m5489881047" y="33.669756"/>
      </g>
     </g>
     <g id="text_13">
      <!-- weighted avg -->
      <defs>
       <path d="M 4.203125 54.6875 
L 13.1875 54.6875 
L 24.421875 12.015625 
L 35.59375 54.6875 
L 46.1875 54.6875 
L 57.421875 12.015625 
L 68.609375 54.6875 
L 77.59375 54.6875 
L 63.28125 0 
L 52.6875 0 
L 40.921875 44.828125 
L 29.109375 0 
L 18.5 0 
z
" id="DejaVuSans-119"/>
       <path d="M 45.40625 46.390625 
L 45.40625 75.984375 
L 54.390625 75.984375 
L 54.390625 0 
L 45.40625 0 
L 45.40625 8.203125 
Q 42.578125 3.328125 38.25 0.953125 
Q 33.9375 -1.421875 27.875 -1.421875 
Q 17.96875 -1.421875 11.734375 6.484375 
Q 5.515625 14.40625 5.515625 27.296875 
Q 5.515625 40.1875 11.734375 48.09375 
Q 17.96875 56 27.875 56 
Q 33.9375 56 38.25 53.625 
Q 42.578125 51.265625 45.40625 46.390625 
z
M 14.796875 27.296875 
Q 14.796875 17.390625 18.875 11.75 
Q 22.953125 6.109375 30.078125 6.109375 
Q 37.203125 6.109375 41.296875 11.75 
Q 45.40625 17.390625 45.40625 27.296875 
Q 45.40625 37.203125 41.296875 42.84375 
Q 37.203125 48.484375 30.078125 48.484375 
Q 22.953125 48.484375 18.875 42.84375 
Q 14.796875 37.203125 14.796875 27.296875 
z
" id="DejaVuSans-100"/>
      </defs>
      <g style="fill:#4d4d4d;" transform="translate(40.321 36.098006)scale(0.088 -0.088)">
       <use xlink:href="#DejaVuSans-119"/>
       <use x="81.787109" xlink:href="#DejaVuSans-101"/>
       <use x="143.310547" xlink:href="#DejaVuSans-105"/>
       <use x="171.09375" xlink:href="#DejaVuSans-103"/>
       <use x="234.570312" xlink:href="#DejaVuSans-104"/>
       <use x="297.949219" xlink:href="#DejaVuSans-116"/>
       <use x="337.158203" xlink:href="#DejaVuSans-101"/>
       <use x="398.681641" xlink:href="#DejaVuSans-100"/>
       <use x="462.158203" xlink:href="#DejaVuSans-32"/>
       <use x="493.945312" xlink:href="#DejaVuSans-97"/>
       <use x="555.224609" xlink:href="#DejaVuSans-118"/>
       <use x="614.404297" xlink:href="#DejaVuSans-103"/>
      </g>
     </g>
    </g>
   </g>
   <g id="PathCollection_1">
    <path clip-path="url(#pc0bb17e719)" d="M 192.50275 177.422698 
C 192.97281 177.422698 193.423681 177.235941 193.756064 176.903558 
C 194.088447 176.571175 194.275204 176.120304 194.275204 175.650244 
C 194.275204 175.180184 194.088447 174.729313 193.756064 174.39693 
C 193.423681 174.064547 192.97281 173.87779 192.50275 173.87779 
C 192.03269 173.87779 191.581819 174.064547 191.249436 174.39693 
C 190.917053 174.729313 190.730296 175.180184 190.730296 175.650244 
C 190.730296 176.120304 190.917053 176.571175 191.249436 176.903558 
C 191.581819 177.235941 192.03269 177.422698 192.50275 177.422698 
z
" style="fill:#db5f57;stroke:#000000;stroke-width:0.886227;"/>
    <path clip-path="url(#pc0bb17e719)" d="M 147.23875 157.139771 
C 147.70881 157.139771 148.159681 156.953014 148.492064 156.620631 
C 148.824447 156.288248 149.011204 155.837377 149.011204 155.367317 
C 149.011204 154.897257 148.824447 154.446386 148.492064 154.114003 
C 148.159681 153.78162 147.70881 153.594863 147.23875 153.594863 
C 146.76869 153.594863 146.317819 153.78162 145.985436 154.114003 
C 145.653053 154.446386 145.466296 154.897257 145.466296 155.367317 
C 145.466296 155.837377 145.653053 156.288248 145.985436 156.620631 
C 146.317819 156.953014 146.76869 157.139771 147.23875 157.139771 
z
" style="fill:#dbc257;stroke:#000000;stroke-width:0.886227;"/>
    <path clip-path="url(#pc0bb17e719)" d="M 178.72675 136.856844 
C 179.19681 136.856844 179.647681 136.670087 179.980064 136.337704 
C 180.312447 136.005322 180.499204 135.55445 180.499204 135.08439 
C 180.499204 134.61433 180.312447 134.163459 179.980064 133.831076 
C 179.647681 133.498693 179.19681 133.311936 178.72675 133.311936 
C 178.25669 133.311936 177.805819 133.498693 177.473436 133.831076 
C 177.141053 134.163459 176.954296 134.61433 176.954296 135.08439 
C 176.954296 135.55445 177.141053 136.005322 177.473436 136.337704 
C 177.805819 136.670087 178.25669 136.856844 178.72675 136.856844 
z
" style="fill:#91db57;stroke:#000000;stroke-width:0.886227;"/>
    <path clip-path="url(#pc0bb17e719)" d="M 171.83875 116.573917 
C 172.30881 116.573917 172.759681 116.38716 173.092064 116.054778 
C 173.424447 115.722395 173.611204 115.271524 173.611204 114.801463 
C 173.611204 114.331403 173.424447 113.880532 173.092064 113.548149 
C 172.759681 113.215766 172.30881 113.02901 171.83875 113.02901 
C 171.36869 113.02901 170.917819 113.215766 170.585436 113.548149 
C 170.253053 113.880532 170.066296 114.331403 170.066296 114.801463 
C 170.066296 115.271524 170.253053 115.722395 170.585436 116.054778 
C 170.917819 116.38716 171.36869 116.573917 171.83875 116.573917 
z
" style="fill:#57db80;stroke:#000000;stroke-width:0.886227;"/>
    <path clip-path="url(#pc0bb17e719)" d="M 175.77475 96.29099 
C 176.24481 96.29099 176.695681 96.104234 177.028064 95.771851 
C 177.360447 95.439468 177.547204 94.988597 177.547204 94.518537 
C 177.547204 94.048476 177.360447 93.597605 177.028064 93.265222 
C 176.695681 92.93284 176.24481 92.746083 175.77475 92.746083 
C 175.30469 92.746083 174.853819 92.93284 174.521436 93.265222 
C 174.189053 93.597605 174.002296 94.048476 174.002296 94.518537 
C 174.002296 94.988597 174.189053 95.439468 174.521436 95.771851 
C 174.853819 96.104234 175.30469 96.29099 175.77475 96.29099 
z
" style="fill:#57d3db;stroke:#000000;stroke-width:0.886227;"/>
    <path clip-path="url(#pc0bb17e719)" d="M 172.82275 76.008064 
C 173.29281 76.008064 173.743681 75.821307 174.076064 75.488924 
C 174.408447 75.156541 174.595204 74.70567 174.595204 74.23561 
C 174.595204 73.76555 174.408447 73.314678 174.076064 72.982296 
C 173.743681 72.649913 173.29281 72.463156 172.82275 72.463156 
C 172.35269 72.463156 171.901819 72.649913 171.569436 72.982296 
C 171.237053 73.314678 171.050296 73.76555 171.050296 74.23561 
C 171.050296 74.70567 171.237053 75.156541 171.569436 75.488924 
C 171.901819 75.821307 172.35269 76.008064 172.82275 76.008064 
z
" style="fill:#5770db;stroke:#000000;stroke-width:0.886227;"/>
    <path clip-path="url(#pc0bb17e719)" d="M 172.82275 55.725137 
C 173.29281 55.725137 173.743681 55.53838 174.076064 55.205997 
C 174.408447 54.873614 174.595204 54.422743 174.595204 53.952683 
C 174.595204 53.482623 174.408447 53.031752 174.076064 52.699369 
C 173.743681 52.366986 173.29281 52.180229 172.82275 52.180229 
C 172.35269 52.180229 171.901819 52.366986 171.569436 52.699369 
C 171.237053 53.031752 171.050296 53.482623 171.050296 53.952683 
C 171.050296 54.422743 171.237053 54.873614 171.569436 55.205997 
C 171.901819 55.53838 172.35269 55.725137 172.82275 55.725137 
z
" style="fill:#a157db;stroke:#000000;stroke-width:0.886227;"/>
    <path clip-path="url(#pc0bb17e719)" d="M 172.82275 35.44221 
C 173.29281 35.44221 173.743681 35.255453 174.076064 34.92307 
C 174.408447 34.590687 174.595204 34.139816 174.595204 33.669756 
C 174.595204 33.199696 174.408447 32.748825 174.076064 32.416442 
C 173.743681 32.084059 173.29281 31.897302 172.82275 31.897302 
C 172.35269 31.897302 171.901819 32.084059 171.569436 32.416442 
C 171.237053 32.748825 171.050296 33.199696 171.050296 33.669756 
C 171.050296 34.139816 171.237053 34.590687 171.569436 34.92307 
C 171.901819 35.255453 172.35269 35.44221 172.82275 35.44221 
z
" style="fill:#db57b2;stroke:#000000;stroke-width:0.886227;"/>
   </g>
   <g id="patch_3">
    <path d="M 104.92675 21.5 
L 213.16675 21.5 
L 213.16675 7.2 
L 104.92675 7.2 
z
" style="fill:#cccccc;stroke:#7f7f7f;stroke-linejoin:miter;"/>
   </g>
   <g id="text_14">
    <!-- f1-score -->
    <defs>
     <path d="M 37.109375 75.984375 
L 37.109375 68.5 
L 28.515625 68.5 
Q 23.6875 68.5 21.796875 66.546875 
Q 19.921875 64.59375 19.921875 59.515625 
L 19.921875 54.6875 
L 34.71875 54.6875 
L 34.71875 47.703125 
L 19.921875 47.703125 
L 19.921875 0 
L 10.890625 0 
L 10.890625 47.703125 
L 2.296875 47.703125 
L 2.296875 54.6875 
L 10.890625 54.6875 
L 10.890625 58.5 
Q 10.890625 67.625 15.140625 71.796875 
Q 19.390625 75.984375 28.609375 75.984375 
z
" id="DejaVuSans-102"/>
     <path d="M 4.890625 31.390625 
L 31.203125 31.390625 
L 31.203125 23.390625 
L 4.890625 23.390625 
z
" id="DejaVuSans-45"/>
     <path d="M 44.28125 53.078125 
L 44.28125 44.578125 
Q 40.484375 46.53125 36.375 47.5 
Q 32.28125 48.484375 27.875 48.484375 
Q 21.1875 48.484375 17.84375 46.4375 
Q 14.5 44.390625 14.5 40.28125 
Q 14.5 37.15625 16.890625 35.375 
Q 19.28125 33.59375 26.515625 31.984375 
L 29.59375 31.296875 
Q 39.15625 29.25 43.1875 25.515625 
Q 47.21875 21.78125 47.21875 15.09375 
Q 47.21875 7.46875 41.1875 3.015625 
Q 35.15625 -1.421875 24.609375 -1.421875 
Q 20.21875 -1.421875 15.453125 -0.5625 
Q 10.6875 0.296875 5.421875 2 
L 5.421875 11.28125 
Q 10.40625 8.6875 15.234375 7.390625 
Q 20.0625 6.109375 24.8125 6.109375 
Q 31.15625 6.109375 34.5625 8.28125 
Q 37.984375 10.453125 37.984375 14.40625 
Q 37.984375 18.0625 35.515625 20.015625 
Q 33.0625 21.96875 24.703125 23.78125 
L 21.578125 24.515625 
Q 13.234375 26.265625 9.515625 29.90625 
Q 5.8125 33.546875 5.8125 39.890625 
Q 5.8125 47.609375 11.28125 51.796875 
Q 16.75 56 26.8125 56 
Q 31.78125 56 36.171875 55.265625 
Q 40.578125 54.546875 44.28125 53.078125 
z
" id="DejaVuSans-115"/>
    </defs>
    <g style="fill:#1a1a1a;" transform="translate(141.192375 16.77825)scale(0.088 -0.088)">
     <use xlink:href="#DejaVuSans-102"/>
     <use x="35.205078" xlink:href="#DejaVuSans-49"/>
     <use x="98.828125" xlink:href="#DejaVuSans-45"/>
     <use x="134.912109" xlink:href="#DejaVuSans-115"/>
     <use x="187.011719" xlink:href="#DejaVuSans-99"/>
     <use x="241.992188" xlink:href="#DejaVuSans-111"/>
     <use x="303.173828" xlink:href="#DejaVuSans-114"/>
     <use x="344.255859" xlink:href="#DejaVuSans-101"/>
    </g>
   </g>
  </g>
  <g id="axes_2">
   <g id="patch_4">
    <path d="M 218.20675 187.82 
L 326.44675 187.82 
L 326.44675 21.5 
L 218.20675 21.5 
z
" style="fill:#ffffff;stroke:#7f7f7f;stroke-linejoin:miter;"/>
   </g>
   <g id="matplotlib.axis_3">
    <g id="xtick_10">
     <g id="line2d_35">
      <path clip-path="url(#p7dedd0ea00)" d="M 223.12675 187.82 
L 223.12675 21.5 
" style="fill:none;stroke:#e5e5e5;stroke-linecap:square;stroke-width:0.8;"/>
     </g>
     <g id="line2d_36">
      <path d="M 223.12675 187.82 
" style="fill:none;stroke:#000000;stroke-linecap:square;stroke-width:1.5;"/>
      <g>
       <use style="stroke:#000000;" x="223.12675" xlink:href="#m81da81c37c" y="187.82"/>
      </g>
     </g>
     <g id="text_15">
      <!-- 0 -->
      <g style="fill:#4d4d4d;" transform="translate(220.32725 199.456625)scale(0.088 -0.088)">
       <use xlink:href="#DejaVuSans-48"/>
      </g>
     </g>
    </g>
    <g id="xtick_11">
     <g id="line2d_37">
      <path clip-path="url(#p7dedd0ea00)" d="M 247.72675 187.82 
L 247.72675 21.5 
" style="fill:none;stroke:#e5e5e5;stroke-linecap:square;stroke-width:0.8;"/>
     </g>
     <g id="line2d_38">
      <path d="M 247.72675 187.82 
" style="fill:none;stroke:#000000;stroke-linecap:square;stroke-width:1.5;"/>
      <g>
       <use style="stroke:#000000;" x="247.72675" xlink:href="#m81da81c37c" y="187.82"/>
      </g>
     </g>
     <g id="text_16">
      <!-- 0.25 -->
      <g style="fill:#4d4d4d;" transform="translate(237.929875 199.456625)scale(0.088 -0.088)">
       <use xlink:href="#DejaVuSans-48"/>
       <use x="63.623047" xlink:href="#DejaVuSans-46"/>
       <use x="95.410156" xlink:href="#DejaVuSans-50"/>
       <use x="159.033203" xlink:href="#DejaVuSans-53"/>
      </g>
     </g>
    </g>
    <g id="xtick_12">
     <g id="line2d_39">
      <path clip-path="url(#p7dedd0ea00)" d="M 272.32675 187.82 
L 272.32675 21.5 
" style="fill:none;stroke:#e5e5e5;stroke-linecap:square;stroke-width:0.8;"/>
     </g>
     <g id="line2d_40">
      <path d="M 272.32675 187.82 
" style="fill:none;stroke:#000000;stroke-linecap:square;stroke-width:1.5;"/>
      <g>
       <use style="stroke:#000000;" x="272.32675" xlink:href="#m81da81c37c" y="187.82"/>
      </g>
     </g>
     <g id="text_17">
      <!-- 0.50 -->
      <g style="fill:#4d4d4d;" transform="translate(262.529875 199.456625)scale(0.088 -0.088)">
       <use xlink:href="#DejaVuSans-48"/>
       <use x="63.623047" xlink:href="#DejaVuSans-46"/>
       <use x="95.410156" xlink:href="#DejaVuSans-53"/>
       <use x="159.033203" xlink:href="#DejaVuSans-48"/>
      </g>
     </g>
    </g>
    <g id="xtick_13">
     <g id="line2d_41">
      <path clip-path="url(#p7dedd0ea00)" d="M 296.92675 187.82 
L 296.92675 21.5 
" style="fill:none;stroke:#e5e5e5;stroke-linecap:square;stroke-width:0.8;"/>
     </g>
     <g id="line2d_42">
      <path d="M 296.92675 187.82 
" style="fill:none;stroke:#000000;stroke-linecap:square;stroke-width:1.5;"/>
      <g>
       <use style="stroke:#000000;" x="296.92675" xlink:href="#m81da81c37c" y="187.82"/>
      </g>
     </g>
     <g id="text_18">
      <!-- 0.75 -->
      <g style="fill:#4d4d4d;" transform="translate(287.129875 199.456625)scale(0.088 -0.088)">
       <use xlink:href="#DejaVuSans-48"/>
       <use x="63.623047" xlink:href="#DejaVuSans-46"/>
       <use x="95.410156" xlink:href="#DejaVuSans-55"/>
       <use x="159.033203" xlink:href="#DejaVuSans-53"/>
      </g>
     </g>
    </g>
    <g id="xtick_14">
     <g id="line2d_43">
      <path clip-path="url(#p7dedd0ea00)" d="M 321.52675 187.82 
L 321.52675 21.5 
" style="fill:none;stroke:#e5e5e5;stroke-linecap:square;stroke-width:0.8;"/>
     </g>
     <g id="line2d_44">
      <path d="M 321.52675 187.82 
" style="fill:none;stroke:#000000;stroke-linecap:square;stroke-width:1.5;"/>
      <g>
       <use style="stroke:#000000;" x="321.52675" xlink:href="#m81da81c37c" y="187.82"/>
      </g>
     </g>
     <g id="text_19">
      <!-- 1 -->
      <g style="fill:#4d4d4d;" transform="translate(318.72725 199.456625)scale(0.088 -0.088)">
       <use xlink:href="#DejaVuSans-49"/>
      </g>
     </g>
    </g>
    <g id="xtick_15">
     <g id="line2d_45">
      <path clip-path="url(#p7dedd0ea00)" d="M 235.42675 187.82 
L 235.42675 21.5 
" style="fill:none;stroke:#fafafa;stroke-linecap:square;"/>
     </g>
     <g id="line2d_46">
      <path d="M 235.42675 187.82 
" style="fill:none;stroke:#000000;stroke-linecap:square;stroke-width:1.5;"/>
      <g>
       <use style="stroke:#000000;" x="235.42675" xlink:href="#m5ef0192058" y="187.82"/>
      </g>
     </g>
    </g>
    <g id="xtick_16">
     <g id="line2d_47">
      <path clip-path="url(#p7dedd0ea00)" d="M 260.02675 187.82 
L 260.02675 21.5 
" style="fill:none;stroke:#fafafa;stroke-linecap:square;"/>
     </g>
     <g id="line2d_48">
      <path d="M 260.02675 187.82 
" style="fill:none;stroke:#000000;stroke-linecap:square;stroke-width:1.5;"/>
      <g>
       <use style="stroke:#000000;" x="260.02675" xlink:href="#m5ef0192058" y="187.82"/>
      </g>
     </g>
    </g>
    <g id="xtick_17">
     <g id="line2d_49">
      <path clip-path="url(#p7dedd0ea00)" d="M 284.62675 187.82 
L 284.62675 21.5 
" style="fill:none;stroke:#fafafa;stroke-linecap:square;"/>
     </g>
     <g id="line2d_50">
      <path d="M 284.62675 187.82 
" style="fill:none;stroke:#000000;stroke-linecap:square;stroke-width:1.5;"/>
      <g>
       <use style="stroke:#000000;" x="284.62675" xlink:href="#m5ef0192058" y="187.82"/>
      </g>
     </g>
    </g>
    <g id="xtick_18">
     <g id="line2d_51">
      <path clip-path="url(#p7dedd0ea00)" d="M 309.22675 187.82 
L 309.22675 21.5 
" style="fill:none;stroke:#fafafa;stroke-linecap:square;"/>
     </g>
     <g id="line2d_52">
      <path d="M 309.22675 187.82 
" style="fill:none;stroke:#000000;stroke-linecap:square;stroke-width:1.5;"/>
      <g>
       <use style="stroke:#000000;" x="309.22675" xlink:href="#m5ef0192058" y="187.82"/>
      </g>
     </g>
    </g>
   </g>
   <g id="matplotlib.axis_4">
    <g id="ytick_9">
     <g id="line2d_53">
      <path clip-path="url(#p7dedd0ea00)" d="M 218.20675 175.650244 
L 326.44675 175.650244 
" style="fill:none;stroke:#e5e5e5;stroke-linecap:square;stroke-width:0.8;"/>
     </g>
    </g>
    <g id="ytick_10">
     <g id="line2d_54">
      <path clip-path="url(#p7dedd0ea00)" d="M 218.20675 155.367317 
L 326.44675 155.367317 
" style="fill:none;stroke:#e5e5e5;stroke-linecap:square;stroke-width:0.8;"/>
     </g>
    </g>
    <g id="ytick_11">
     <g id="line2d_55">
      <path clip-path="url(#p7dedd0ea00)" d="M 218.20675 135.08439 
L 326.44675 135.08439 
" style="fill:none;stroke:#e5e5e5;stroke-linecap:square;stroke-width:0.8;"/>
     </g>
    </g>
    <g id="ytick_12">
     <g id="line2d_56">
      <path clip-path="url(#p7dedd0ea00)" d="M 218.20675 114.801463 
L 326.44675 114.801463 
" style="fill:none;stroke:#e5e5e5;stroke-linecap:square;stroke-width:0.8;"/>
     </g>
    </g>
    <g id="ytick_13">
     <g id="line2d_57">
      <path clip-path="url(#p7dedd0ea00)" d="M 218.20675 94.518537 
L 326.44675 94.518537 
" style="fill:none;stroke:#e5e5e5;stroke-linecap:square;stroke-width:0.8;"/>
     </g>
    </g>
    <g id="ytick_14">
     <g id="line2d_58">
      <path clip-path="url(#p7dedd0ea00)" d="M 218.20675 74.23561 
L 326.44675 74.23561 
" style="fill:none;stroke:#e5e5e5;stroke-linecap:square;stroke-width:0.8;"/>
     </g>
    </g>
    <g id="ytick_15">
     <g id="line2d_59">
      <path clip-path="url(#p7dedd0ea00)" d="M 218.20675 53.952683 
L 326.44675 53.952683 
" style="fill:none;stroke:#e5e5e5;stroke-linecap:square;stroke-width:0.8;"/>
     </g>
    </g>
    <g id="ytick_16">
     <g id="line2d_60">
      <path clip-path="url(#p7dedd0ea00)" d="M 218.20675 33.669756 
L 326.44675 33.669756 
" style="fill:none;stroke:#e5e5e5;stroke-linecap:square;stroke-width:0.8;"/>
     </g>
    </g>
   </g>
   <g id="PathCollection_2">
    <path clip-path="url(#p7dedd0ea00)" d="M 310.70275 177.422698 
C 311.17281 177.422698 311.623681 177.235941 311.956064 176.903558 
C 312.288447 176.571175 312.475204 176.120304 312.475204 175.650244 
C 312.475204 175.180184 312.288447 174.729313 311.956064 174.39693 
C 311.623681 174.064547 311.17281 173.87779 310.70275 173.87779 
C 310.23269 173.87779 309.781819 174.064547 309.449436 174.39693 
C 309.117053 174.729313 308.930296 175.180184 308.930296 175.650244 
C 308.930296 176.120304 309.117053 176.571175 309.449436 176.903558 
C 309.781819 177.235941 310.23269 177.422698 310.70275 177.422698 
z
" style="fill:#db5f57;stroke:#000000;stroke-width:0.886227;"/>
    <path clip-path="url(#p7dedd0ea00)" d="M 258.55075 157.139771 
C 259.02081 157.139771 259.471681 156.953014 259.804064 156.620631 
C 260.136447 156.288248 260.323204 155.837377 260.323204 155.367317 
C 260.323204 154.897257 260.136447 154.446386 259.804064 154.114003 
C 259.471681 153.78162 259.02081 153.594863 258.55075 153.594863 
C 258.08069 153.594863 257.629819 153.78162 257.297436 154.114003 
C 256.965053 154.446386 256.778296 154.897257 256.778296 155.367317 
C 256.778296 155.837377 256.965053 156.288248 257.297436 156.620631 
C 257.629819 156.953014 258.08069 157.139771 258.55075 157.139771 
z
" style="fill:#dbc257;stroke:#000000;stroke-width:0.886227;"/>
    <path clip-path="url(#p7dedd0ea00)" d="M 284.13475 136.856844 
C 284.60481 136.856844 285.055681 136.670087 285.388064 136.337704 
C 285.720447 136.005322 285.907204 135.55445 285.907204 135.08439 
C 285.907204 134.61433 285.720447 134.163459 285.388064 133.831076 
C 285.055681 133.498693 284.60481 133.311936 284.13475 133.311936 
C 283.66469 133.311936 283.213819 133.498693 282.881436 133.831076 
C 282.549053 134.163459 282.362296 134.61433 282.362296 135.08439 
C 282.362296 135.55445 282.549053 136.005322 282.881436 136.337704 
C 283.213819 136.670087 283.66469 136.856844 284.13475 136.856844 
z
" style="fill:#91db57;stroke:#000000;stroke-width:0.886227;"/>
    <path clip-path="url(#p7dedd0ea00)" d="M 289.05475 116.573917 
C 289.52481 116.573917 289.975681 116.38716 290.308064 116.054778 
C 290.640447 115.722395 290.827204 115.271524 290.827204 114.801463 
C 290.827204 114.331403 290.640447 113.880532 290.308064 113.548149 
C 289.975681 113.215766 289.52481 113.02901 289.05475 113.02901 
C 288.58469 113.02901 288.133819 113.215766 287.801436 113.548149 
C 287.469053 113.880532 287.282296 114.331403 287.282296 114.801463 
C 287.282296 115.271524 287.469053 115.722395 287.801436 116.054778 
C 288.133819 116.38716 288.58469 116.573917 289.05475 116.573917 
z
" style="fill:#57db80;stroke:#000000;stroke-width:0.886227;"/>
    <path clip-path="url(#p7dedd0ea00)" d="M 296.92675 96.29099 
C 297.39681 96.29099 297.847681 96.104234 298.180064 95.771851 
C 298.512447 95.439468 298.699204 94.988597 298.699204 94.518537 
C 298.699204 94.048476 298.512447 93.597605 298.180064 93.265222 
C 297.847681 92.93284 297.39681 92.746083 296.92675 92.746083 
C 296.45669 92.746083 296.005819 92.93284 295.673436 93.265222 
C 295.341053 93.597605 295.154296 94.048476 295.154296 94.518537 
C 295.154296 94.988597 295.341053 95.439468 295.673436 95.771851 
C 296.005819 96.104234 296.45669 96.29099 296.92675 96.29099 
z
" style="fill:#57d3db;stroke:#000000;stroke-width:0.886227;"/>
    <path clip-path="url(#p7dedd0ea00)" d="M 286.10275 76.008064 
C 286.57281 76.008064 287.023681 75.821307 287.356064 75.488924 
C 287.688447 75.156541 287.875204 74.70567 287.875204 74.23561 
C 287.875204 73.76555 287.688447 73.314678 287.356064 72.982296 
C 287.023681 72.649913 286.57281 72.463156 286.10275 72.463156 
C 285.63269 72.463156 285.181819 72.649913 284.849436 72.982296 
C 284.517053 73.314678 284.330296 73.76555 284.330296 74.23561 
C 284.330296 74.70567 284.517053 75.156541 284.849436 75.488924 
C 285.181819 75.821307 285.63269 76.008064 286.10275 76.008064 
z
" style="fill:#5770db;stroke:#000000;stroke-width:0.886227;"/>
    <path clip-path="url(#p7dedd0ea00)" d="M 288.07075 55.725137 
C 288.54081 55.725137 288.991681 55.53838 289.324064 55.205997 
C 289.656447 54.873614 289.843204 54.422743 289.843204 53.952683 
C 289.843204 53.482623 289.656447 53.031752 289.324064 52.699369 
C 288.991681 52.366986 288.54081 52.180229 288.07075 52.180229 
C 287.60069 52.180229 287.149819 52.366986 286.817436 52.699369 
C 286.485053 53.031752 286.298296 53.482623 286.298296 53.952683 
C 286.298296 54.422743 286.485053 54.873614 286.817436 55.205997 
C 287.149819 55.53838 287.60069 55.725137 288.07075 55.725137 
z
" style="fill:#a157db;stroke:#000000;stroke-width:0.886227;"/>
    <path clip-path="url(#p7dedd0ea00)" d="M 288.07075 35.44221 
C 288.54081 35.44221 288.991681 35.255453 289.324064 34.92307 
C 289.656447 34.590687 289.843204 34.139816 289.843204 33.669756 
C 289.843204 33.199696 289.656447 32.748825 289.324064 32.416442 
C 288.991681 32.084059 288.54081 31.897302 288.07075 31.897302 
C 287.60069 31.897302 287.149819 32.084059 286.817436 32.416442 
C 286.485053 32.748825 286.298296 33.199696 286.298296 33.669756 
C 286.298296 34.139816 286.485053 34.590687 286.817436 34.92307 
C 287.149819 35.255453 287.60069 35.44221 288.07075 35.44221 
z
" style="fill:#db57b2;stroke:#000000;stroke-width:0.886227;"/>
   </g>
   <g id="patch_5">
    <path d="M 218.20675 21.5 
L 326.44675 21.5 
L 326.44675 7.2 
L 218.20675 7.2 
z
" style="fill:#cccccc;stroke:#7f7f7f;stroke-linejoin:miter;"/>
   </g>
   <g id="text_20">
    <!-- precision -->
    <defs>
     <path d="M 18.109375 8.203125 
L 18.109375 -20.796875 
L 9.078125 -20.796875 
L 9.078125 54.6875 
L 18.109375 54.6875 
L 18.109375 46.390625 
Q 20.953125 51.265625 25.265625 53.625 
Q 29.59375 56 35.59375 56 
Q 45.5625 56 51.78125 48.09375 
Q 58.015625 40.1875 58.015625 27.296875 
Q 58.015625 14.40625 51.78125 6.484375 
Q 45.5625 -1.421875 35.59375 -1.421875 
Q 29.59375 -1.421875 25.265625 0.953125 
Q 20.953125 3.328125 18.109375 8.203125 
z
M 48.6875 27.296875 
Q 48.6875 37.203125 44.609375 42.84375 
Q 40.53125 48.484375 33.40625 48.484375 
Q 26.265625 48.484375 22.1875 42.84375 
Q 18.109375 37.203125 18.109375 27.296875 
Q 18.109375 17.390625 22.1875 11.75 
Q 26.265625 6.109375 33.40625 6.109375 
Q 40.53125 6.109375 44.609375 11.75 
Q 48.6875 17.390625 48.6875 27.296875 
z
" id="DejaVuSans-112"/>
    </defs>
    <g style="fill:#1a1a1a;" transform="translate(252.381687 16.77825)scale(0.088 -0.088)">
     <use xlink:href="#DejaVuSans-112"/>
     <use x="63.476562" xlink:href="#DejaVuSans-114"/>
     <use x="104.558594" xlink:href="#DejaVuSans-101"/>
     <use x="166.082031" xlink:href="#DejaVuSans-99"/>
     <use x="221.0625" xlink:href="#DejaVuSans-105"/>
     <use x="248.845703" xlink:href="#DejaVuSans-115"/>
     <use x="300.945312" xlink:href="#DejaVuSans-105"/>
     <use x="328.728516" xlink:href="#DejaVuSans-111"/>
     <use x="389.910156" xlink:href="#DejaVuSans-110"/>
    </g>
   </g>
  </g>
  <g id="axes_3">
   <g id="patch_6">
    <path d="M 331.48675 187.82 
L 439.72675 187.82 
L 439.72675 21.5 
L 331.48675 21.5 
z
" style="fill:#ffffff;stroke:#7f7f7f;stroke-linejoin:miter;"/>
   </g>
   <g id="matplotlib.axis_5">
    <g id="xtick_19">
     <g id="line2d_61">
      <path clip-path="url(#p78292cac6d)" d="M 336.40675 187.82 
L 336.40675 21.5 
" style="fill:none;stroke:#e5e5e5;stroke-linecap:square;stroke-width:0.8;"/>
     </g>
     <g id="line2d_62">
      <path d="M 336.40675 187.82 
" style="fill:none;stroke:#000000;stroke-linecap:square;stroke-width:1.5;"/>
      <g>
       <use style="stroke:#000000;" x="336.40675" xlink:href="#m81da81c37c" y="187.82"/>
      </g>
     </g>
     <g id="text_21">
      <!-- 0 -->
      <g style="fill:#4d4d4d;" transform="translate(333.60725 199.456625)scale(0.088 -0.088)">
       <use xlink:href="#DejaVuSans-48"/>
      </g>
     </g>
    </g>
    <g id="xtick_20">
     <g id="line2d_63">
      <path clip-path="url(#p78292cac6d)" d="M 361.00675 187.82 
L 361.00675 21.5 
" style="fill:none;stroke:#e5e5e5;stroke-linecap:square;stroke-width:0.8;"/>
     </g>
     <g id="line2d_64">
      <path d="M 361.00675 187.82 
" style="fill:none;stroke:#000000;stroke-linecap:square;stroke-width:1.5;"/>
      <g>
       <use style="stroke:#000000;" x="361.00675" xlink:href="#m81da81c37c" y="187.82"/>
      </g>
     </g>
     <g id="text_22">
      <!-- 0.25 -->
      <g style="fill:#4d4d4d;" transform="translate(351.209875 199.456625)scale(0.088 -0.088)">
       <use xlink:href="#DejaVuSans-48"/>
       <use x="63.623047" xlink:href="#DejaVuSans-46"/>
       <use x="95.410156" xlink:href="#DejaVuSans-50"/>
       <use x="159.033203" xlink:href="#DejaVuSans-53"/>
      </g>
     </g>
    </g>
    <g id="xtick_21">
     <g id="line2d_65">
      <path clip-path="url(#p78292cac6d)" d="M 385.60675 187.82 
L 385.60675 21.5 
" style="fill:none;stroke:#e5e5e5;stroke-linecap:square;stroke-width:0.8;"/>
     </g>
     <g id="line2d_66">
      <path d="M 385.60675 187.82 
" style="fill:none;stroke:#000000;stroke-linecap:square;stroke-width:1.5;"/>
      <g>
       <use style="stroke:#000000;" x="385.60675" xlink:href="#m81da81c37c" y="187.82"/>
      </g>
     </g>
     <g id="text_23">
      <!-- 0.50 -->
      <g style="fill:#4d4d4d;" transform="translate(375.809875 199.456625)scale(0.088 -0.088)">
       <use xlink:href="#DejaVuSans-48"/>
       <use x="63.623047" xlink:href="#DejaVuSans-46"/>
       <use x="95.410156" xlink:href="#DejaVuSans-53"/>
       <use x="159.033203" xlink:href="#DejaVuSans-48"/>
      </g>
     </g>
    </g>
    <g id="xtick_22">
     <g id="line2d_67">
      <path clip-path="url(#p78292cac6d)" d="M 410.20675 187.82 
L 410.20675 21.5 
" style="fill:none;stroke:#e5e5e5;stroke-linecap:square;stroke-width:0.8;"/>
     </g>
     <g id="line2d_68">
      <path d="M 410.20675 187.82 
" style="fill:none;stroke:#000000;stroke-linecap:square;stroke-width:1.5;"/>
      <g>
       <use style="stroke:#000000;" x="410.20675" xlink:href="#m81da81c37c" y="187.82"/>
      </g>
     </g>
     <g id="text_24">
      <!-- 0.75 -->
      <g style="fill:#4d4d4d;" transform="translate(400.409875 199.456625)scale(0.088 -0.088)">
       <use xlink:href="#DejaVuSans-48"/>
       <use x="63.623047" xlink:href="#DejaVuSans-46"/>
       <use x="95.410156" xlink:href="#DejaVuSans-55"/>
       <use x="159.033203" xlink:href="#DejaVuSans-53"/>
      </g>
     </g>
    </g>
    <g id="xtick_23">
     <g id="line2d_69">
      <path clip-path="url(#p78292cac6d)" d="M 434.80675 187.82 
L 434.80675 21.5 
" style="fill:none;stroke:#e5e5e5;stroke-linecap:square;stroke-width:0.8;"/>
     </g>
     <g id="line2d_70">
      <path d="M 434.80675 187.82 
" style="fill:none;stroke:#000000;stroke-linecap:square;stroke-width:1.5;"/>
      <g>
       <use style="stroke:#000000;" x="434.80675" xlink:href="#m81da81c37c" y="187.82"/>
      </g>
     </g>
     <g id="text_25">
      <!-- 1 -->
      <g style="fill:#4d4d4d;" transform="translate(432.00725 199.456625)scale(0.088 -0.088)">
       <use xlink:href="#DejaVuSans-49"/>
      </g>
     </g>
    </g>
    <g id="xtick_24">
     <g id="line2d_71">
      <path clip-path="url(#p78292cac6d)" d="M 348.70675 187.82 
L 348.70675 21.5 
" style="fill:none;stroke:#fafafa;stroke-linecap:square;"/>
     </g>
     <g id="line2d_72">
      <path d="M 348.70675 187.82 
" style="fill:none;stroke:#000000;stroke-linecap:square;stroke-width:1.5;"/>
      <g>
       <use style="stroke:#000000;" x="348.70675" xlink:href="#m5ef0192058" y="187.82"/>
      </g>
     </g>
    </g>
    <g id="xtick_25">
     <g id="line2d_73">
      <path clip-path="url(#p78292cac6d)" d="M 373.30675 187.82 
L 373.30675 21.5 
" style="fill:none;stroke:#fafafa;stroke-linecap:square;"/>
     </g>
     <g id="line2d_74">
      <path d="M 373.30675 187.82 
" style="fill:none;stroke:#000000;stroke-linecap:square;stroke-width:1.5;"/>
      <g>
       <use style="stroke:#000000;" x="373.30675" xlink:href="#m5ef0192058" y="187.82"/>
      </g>
     </g>
    </g>
    <g id="xtick_26">
     <g id="line2d_75">
      <path clip-path="url(#p78292cac6d)" d="M 397.90675 187.82 
L 397.90675 21.5 
" style="fill:none;stroke:#fafafa;stroke-linecap:square;"/>
     </g>
     <g id="line2d_76">
      <path d="M 397.90675 187.82 
" style="fill:none;stroke:#000000;stroke-linecap:square;stroke-width:1.5;"/>
      <g>
       <use style="stroke:#000000;" x="397.90675" xlink:href="#m5ef0192058" y="187.82"/>
      </g>
     </g>
    </g>
    <g id="xtick_27">
     <g id="line2d_77">
      <path clip-path="url(#p78292cac6d)" d="M 422.50675 187.82 
L 422.50675 21.5 
" style="fill:none;stroke:#fafafa;stroke-linecap:square;"/>
     </g>
     <g id="line2d_78">
      <path d="M 422.50675 187.82 
" style="fill:none;stroke:#000000;stroke-linecap:square;stroke-width:1.5;"/>
      <g>
       <use style="stroke:#000000;" x="422.50675" xlink:href="#m5ef0192058" y="187.82"/>
      </g>
     </g>
    </g>
   </g>
   <g id="matplotlib.axis_6">
    <g id="ytick_17">
     <g id="line2d_79">
      <path clip-path="url(#p78292cac6d)" d="M 331.48675 175.650244 
L 439.72675 175.650244 
" style="fill:none;stroke:#e5e5e5;stroke-linecap:square;stroke-width:0.8;"/>
     </g>
    </g>
    <g id="ytick_18">
     <g id="line2d_80">
      <path clip-path="url(#p78292cac6d)" d="M 331.48675 155.367317 
L 439.72675 155.367317 
" style="fill:none;stroke:#e5e5e5;stroke-linecap:square;stroke-width:0.8;"/>
     </g>
    </g>
    <g id="ytick_19">
     <g id="line2d_81">
      <path clip-path="url(#p78292cac6d)" d="M 331.48675 135.08439 
L 439.72675 135.08439 
" style="fill:none;stroke:#e5e5e5;stroke-linecap:square;stroke-width:0.8;"/>
     </g>
    </g>
    <g id="ytick_20">
     <g id="line2d_82">
      <path clip-path="url(#p78292cac6d)" d="M 331.48675 114.801463 
L 439.72675 114.801463 
" style="fill:none;stroke:#e5e5e5;stroke-linecap:square;stroke-width:0.8;"/>
     </g>
    </g>
    <g id="ytick_21">
     <g id="line2d_83">
      <path clip-path="url(#p78292cac6d)" d="M 331.48675 94.518537 
L 439.72675 94.518537 
" style="fill:none;stroke:#e5e5e5;stroke-linecap:square;stroke-width:0.8;"/>
     </g>
    </g>
    <g id="ytick_22">
     <g id="line2d_84">
      <path clip-path="url(#p78292cac6d)" d="M 331.48675 74.23561 
L 439.72675 74.23561 
" style="fill:none;stroke:#e5e5e5;stroke-linecap:square;stroke-width:0.8;"/>
     </g>
    </g>
    <g id="ytick_23">
     <g id="line2d_85">
      <path clip-path="url(#p78292cac6d)" d="M 331.48675 53.952683 
L 439.72675 53.952683 
" style="fill:none;stroke:#e5e5e5;stroke-linecap:square;stroke-width:0.8;"/>
     </g>
    </g>
    <g id="ytick_24">
     <g id="line2d_86">
      <path clip-path="url(#p78292cac6d)" d="M 331.48675 33.669756 
L 439.72675 33.669756 
" style="fill:none;stroke:#e5e5e5;stroke-linecap:square;stroke-width:0.8;"/>
     </g>
    </g>
   </g>
   <g id="PathCollection_3">
    <path clip-path="url(#p78292cac6d)" d="M 415.12675 177.422698 
C 415.59681 177.422698 416.047681 177.235941 416.380064 176.903558 
C 416.712447 176.571175 416.899204 176.120304 416.899204 175.650244 
C 416.899204 175.180184 416.712447 174.729313 416.380064 174.39693 
C 416.047681 174.064547 415.59681 173.87779 415.12675 173.87779 
C 414.65669 173.87779 414.205819 174.064547 413.873436 174.39693 
C 413.541053 174.729313 413.354296 175.180184 413.354296 175.650244 
C 413.354296 176.120304 413.541053 176.571175 413.873436 176.903558 
C 414.205819 177.235941 414.65669 177.422698 415.12675 177.422698 
z
" style="fill:#db5f57;stroke:#000000;stroke-width:0.886227;"/>
    <path clip-path="url(#p78292cac6d)" d="M 375.76675 157.139771 
C 376.23681 157.139771 376.687681 156.953014 377.020064 156.620631 
C 377.352447 156.288248 377.539204 155.837377 377.539204 155.367317 
C 377.539204 154.897257 377.352447 154.446386 377.020064 154.114003 
C 376.687681 153.78162 376.23681 153.594863 375.76675 153.594863 
C 375.29669 153.594863 374.845819 153.78162 374.513436 154.114003 
C 374.181053 154.446386 373.994296 154.897257 373.994296 155.367317 
C 373.994296 155.837377 374.181053 156.288248 374.513436 156.620631 
C 374.845819 156.953014 375.29669 157.139771 375.76675 157.139771 
z
" style="fill:#dbc257;stroke:#000000;stroke-width:0.886227;"/>
    <path clip-path="url(#p78292cac6d)" d="M 415.12675 136.856844 
C 415.59681 136.856844 416.047681 136.670087 416.380064 136.337704 
C 416.712447 136.005322 416.899204 135.55445 416.899204 135.08439 
C 416.899204 134.61433 416.712447 134.163459 416.380064 133.831076 
C 416.047681 133.498693 415.59681 133.311936 415.12675 133.311936 
C 414.65669 133.311936 414.205819 133.498693 413.873436 133.831076 
C 413.541053 134.163459 413.354296 134.61433 413.354296 135.08439 
C 413.354296 135.55445 413.541053 136.005322 413.873436 136.337704 
C 414.205819 136.670087 414.65669 136.856844 415.12675 136.856844 
z
" style="fill:#91db57;stroke:#000000;stroke-width:0.886227;"/>
    <path clip-path="url(#p78292cac6d)" d="M 395.44675 116.573917 
C 395.91681 116.573917 396.367681 116.38716 396.700064 116.054778 
C 397.032447 115.722395 397.219204 115.271524 397.219204 114.801463 
C 397.219204 114.331403 397.032447 113.880532 396.700064 113.548149 
C 396.367681 113.215766 395.91681 113.02901 395.44675 113.02901 
C 394.97669 113.02901 394.525819 113.215766 394.193436 113.548149 
C 393.861053 113.880532 393.674296 114.331403 393.674296 114.801463 
C 393.674296 115.271524 393.861053 115.722395 394.193436 116.054778 
C 394.525819 116.38716 394.97669 116.573917 395.44675 116.573917 
z
" style="fill:#57db80;stroke:#000000;stroke-width:0.886227;"/>
    <path clip-path="url(#p78292cac6d)" d="M 395.44675 96.29099 
C 395.91681 96.29099 396.367681 96.104234 396.700064 95.771851 
C 397.032447 95.439468 397.219204 94.988597 397.219204 94.518537 
C 397.219204 94.048476 397.032447 93.597605 396.700064 93.265222 
C 396.367681 92.93284 395.91681 92.746083 395.44675 92.746083 
C 394.97669 92.746083 394.525819 92.93284 394.193436 93.265222 
C 393.861053 93.597605 393.674296 94.048476 393.674296 94.518537 
C 393.674296 94.988597 393.861053 95.439468 394.193436 95.771851 
C 394.525819 96.104234 394.97669 96.29099 395.44675 96.29099 
z
" style="fill:#57d3db;stroke:#000000;stroke-width:0.886227;"/>
    <path clip-path="url(#p78292cac6d)" d="M 399.38275 76.008064 
C 399.85281 76.008064 400.303681 75.821307 400.636064 75.488924 
C 400.968447 75.156541 401.155204 74.70567 401.155204 74.23561 
C 401.155204 73.76555 400.968447 73.314678 400.636064 72.982296 
C 400.303681 72.649913 399.85281 72.463156 399.38275 72.463156 
C 398.91269 72.463156 398.461819 72.649913 398.129436 72.982296 
C 397.797053 73.314678 397.610296 73.76555 397.610296 74.23561 
C 397.610296 74.70567 397.797053 75.156541 398.129436 75.488924 
C 398.461819 75.821307 398.91269 76.008064 399.38275 76.008064 
z
" style="fill:#5770db;stroke:#000000;stroke-width:0.886227;"/>
    <path clip-path="url(#p78292cac6d)" d="M 399.38275 55.725137 
C 399.85281 55.725137 400.303681 55.53838 400.636064 55.205997 
C 400.968447 54.873614 401.155204 54.422743 401.155204 53.952683 
C 401.155204 53.482623 400.968447 53.031752 400.636064 52.699369 
C 400.303681 52.366986 399.85281 52.180229 399.38275 52.180229 
C 398.91269 52.180229 398.461819 52.366986 398.129436 52.699369 
C 397.797053 53.031752 397.610296 53.482623 397.610296 53.952683 
C 397.610296 54.422743 397.797053 54.873614 398.129436 55.205997 
C 398.461819 55.53838 398.91269 55.725137 399.38275 55.725137 
z
" style="fill:#a157db;stroke:#000000;stroke-width:0.886227;"/>
    <path clip-path="url(#p78292cac6d)" d="M 399.38275 35.44221 
C 399.85281 35.44221 400.303681 35.255453 400.636064 34.92307 
C 400.968447 34.590687 401.155204 34.139816 401.155204 33.669756 
C 401.155204 33.199696 400.968447 32.748825 400.636064 32.416442 
C 400.303681 32.084059 399.85281 31.897302 399.38275 31.897302 
C 398.91269 31.897302 398.461819 32.084059 398.129436 32.416442 
C 397.797053 32.748825 397.610296 33.199696 397.610296 33.669756 
C 397.610296 34.139816 397.797053 34.590687 398.129436 34.92307 
C 398.461819 35.255453 398.91269 35.44221 399.38275 35.44221 
z
" style="fill:#db57b2;stroke:#000000;stroke-width:0.886227;"/>
   </g>
   <g id="patch_7">
    <path d="M 331.48675 21.5 
L 439.72675 21.5 
L 439.72675 7.2 
L 331.48675 7.2 
z
" style="fill:#cccccc;stroke:#7f7f7f;stroke-linejoin:miter;"/>
   </g>
   <g id="text_26">
    <!-- recall -->
    <g style="fill:#1a1a1a;" transform="translate(373.5315 16.77825)scale(0.088 -0.088)">
     <use xlink:href="#DejaVuSans-114"/>
     <use x="41.082031" xlink:href="#DejaVuSans-101"/>
     <use x="102.605469" xlink:href="#DejaVuSans-99"/>
     <use x="157.585938" xlink:href="#DejaVuSans-97"/>
     <use x="218.865234" xlink:href="#DejaVuSans-108"/>
     <use x="246.648438" xlink:href="#DejaVuSans-108"/>
    </g>
   </g>
  </g>
 </g>
 <defs>
  <clipPath id="pc0bb17e719">
   <rect height="166.32" width="108.24" x="104.92675" y="21.5"/>
  </clipPath>
  <clipPath id="p7dedd0ea00">
   <rect height="166.32" width="108.24" x="218.20675" y="21.5"/>
  </clipPath>
  <clipPath id="p78292cac6d">
   <rect height="166.32" width="108.24" x="331.48675" y="21.5"/>
  </clipPath>
 </defs>
</svg>
