<?xml version="1.0" encoding="utf-8" standalone="no"?>
<!DOCTYPE svg PUBLIC "-//W3C//DTD SVG 1.1//EN"
  "http://www.w3.org/Graphics/SVG/1.1/DTD/svg11.dtd">
<!-- Created with matplotlib (https://matplotlib.org/) -->
<svg height="208.48675pt" version="1.1" viewBox="0 0 413.80575 208.48675" width="413.80575pt" xmlns="http://www.w3.org/2000/svg" xmlns:xlink="http://www.w3.org/1999/xlink">
 <defs>
  <style type="text/css">
*{stroke-linecap:butt;stroke-linejoin:round;}
  </style>
 </defs>
 <g id="figure_1">
  <g id="patch_1">
   <path d="M 0 208.48675 
L 413.80575 208.48675 
L 413.80575 0 
L 0 0 
z
" style="fill:#ffffff;stroke:#ffffff;stroke-linejoin:miter;"/>
  </g>
  <g id="axes_1">
   <g id="patch_2">
    <path d="M 71.80575 187.82 
L 180.04575 187.82 
L 180.04575 21.5 
L 71.80575 21.5 
z
" style="fill:#ffffff;stroke:#7f7f7f;stroke-linejoin:miter;"/>
   </g>
   <g id="matplotlib.axis_1">
    <g id="xtick_1">
     <g id="line2d_1">
      <path clip-path="url(#p81d1e0a33f)" d="M 76.72575 187.82 
L 76.72575 21.5 
" style="fill:none;stroke:#e5e5e5;stroke-width:0.8;"/>
     </g>
     <g id="line2d_2">
      <path d="M 76.72575 187.82 
" style="fill:none;stroke:#000000;stroke-width:1.5;"/>
      <defs>
       <path d="M 0 0 
L 0 2.75 
" id="m2be389e24f" style="stroke:#000000;"/>
      </defs>
      <g>
       <use style="stroke:#000000;" x="76.72575" xlink:href="#m2be389e24f" y="187.82"/>
      </g>
     </g>
     <g id="text_1">
      <!-- 0 -->
      <defs>
       <path d="M 31.78125 66.40625 
Q 24.171875 66.40625 20.328125 58.90625 
Q 16.5 51.421875 16.5 36.375 
Q 16.5 21.390625 20.328125 13.890625 
Q 24.171875 6.390625 31.78125 6.390625 
Q 39.453125 6.390625 43.28125 13.890625 
Q 47.125 21.390625 47.125 36.375 
Q 47.125 51.421875 43.28125 58.90625 
Q 39.453125 66.40625 31.78125 66.40625 
z
M 31.78125 74.21875 
Q 44.046875 74.21875 50.515625 64.515625 
Q 56.984375 54.828125 56.984375 36.375 
Q 56.984375 17.96875 50.515625 8.265625 
Q 44.046875 -1.421875 31.78125 -1.421875 
Q 19.53125 -1.421875 13.0625 8.265625 
Q 6.59375 17.96875 6.59375 36.375 
Q 6.59375 54.828125 13.0625 64.515625 
Q 19.53125 74.21875 31.78125 74.21875 
z
" id="DejaVuSans-48"/>
      </defs>
      <g style="fill:#4d4d4d;" transform="translate(73.92625 199.456625)scale(0.088 -0.088)">
       <use xlink:href="#DejaVuSans-48"/>
      </g>
     </g>
    </g>
    <g id="xtick_2">
     <g id="line2d_3">
      <path clip-path="url(#p81d1e0a33f)" d="M 101.32575 187.82 
L 101.32575 21.5 
" style="fill:none;stroke:#e5e5e5;stroke-width:0.8;"/>
     </g>
     <g id="line2d_4">
      <path d="M 101.32575 187.82 
" style="fill:none;stroke:#000000;stroke-width:1.5;"/>
      <g>
       <use style="stroke:#000000;" x="101.32575" xlink:href="#m2be389e24f" y="187.82"/>
      </g>
     </g>
     <g id="text_2">
      <!-- 0.25 -->
      <defs>
       <path d="M 10.6875 12.40625 
L 21 12.40625 
L 21 0 
L 10.6875 0 
z
" id="DejaVuSans-46"/>
       <path d="M 19.1875 8.296875 
L 53.609375 8.296875 
L 53.609375 0 
L 7.328125 0 
L 7.328125 8.296875 
Q 12.9375 14.109375 22.625 23.890625 
Q 32.328125 33.6875 34.8125 36.53125 
Q 39.546875 41.84375 41.421875 45.53125 
Q 43.3125 49.21875 43.3125 52.78125 
Q 43.3125 58.59375 39.234375 62.25 
Q 35.15625 65.921875 28.609375 65.921875 
Q 23.96875 65.921875 18.8125 64.3125 
Q 13.671875 62.703125 7.8125 59.421875 
L 7.8125 69.390625 
Q 13.765625 71.78125 18.9375 73 
Q 24.125 74.21875 28.421875 74.21875 
Q 39.75 74.21875 46.484375 68.546875 
Q 53.21875 62.890625 53.21875 53.421875 
Q 53.21875 48.921875 51.53125 44.890625 
Q 49.859375 40.875 45.40625 35.40625 
Q 44.1875 33.984375 37.640625 27.21875 
Q 31.109375 20.453125 19.1875 8.296875 
z
" id="DejaVuSans-50"/>
       <path d="M 10.796875 72.90625 
L 49.515625 72.90625 
L 49.515625 64.59375 
L 19.828125 64.59375 
L 19.828125 46.734375 
Q 21.96875 47.46875 24.109375 47.828125 
Q 26.265625 48.1875 28.421875 48.1875 
Q 40.625 48.1875 47.75 41.5 
Q 54.890625 34.8125 54.890625 23.390625 
Q 54.890625 11.625 47.5625 5.09375 
Q 40.234375 -1.421875 26.90625 -1.421875 
Q 22.3125 -1.421875 17.546875 -0.640625 
Q 12.796875 0.140625 7.71875 1.703125 
L 7.71875 11.625 
Q 12.109375 9.234375 16.796875 8.0625 
Q 21.484375 6.890625 26.703125 6.890625 
Q 35.15625 6.890625 40.078125 11.328125 
Q 45.015625 15.765625 45.015625 23.390625 
Q 45.015625 31 40.078125 35.4375 
Q 35.15625 39.890625 26.703125 39.890625 
Q 22.75 39.890625 18.8125 39.015625 
Q 14.890625 38.140625 10.796875 36.28125 
z
" id="DejaVuSans-53"/>
      </defs>
      <g style="fill:#4d4d4d;" transform="translate(91.528875 199.456625)scale(0.088 -0.088)">
       <use xlink:href="#DejaVuSans-48"/>
       <use x="63.623047" xlink:href="#DejaVuSans-46"/>
       <use x="95.410156" xlink:href="#DejaVuSans-50"/>
       <use x="159.033203" xlink:href="#DejaVuSans-53"/>
      </g>
     </g>
    </g>
    <g id="xtick_3">
     <g id="line2d_5">
      <path clip-path="url(#p81d1e0a33f)" d="M 125.92575 187.82 
L 125.92575 21.5 
" style="fill:none;stroke:#e5e5e5;stroke-width:0.8;"/>
     </g>
     <g id="line2d_6">
      <path d="M 125.92575 187.82 
" style="fill:none;stroke:#000000;stroke-width:1.5;"/>
      <g>
       <use style="stroke:#000000;" x="125.92575" xlink:href="#m2be389e24f" y="187.82"/>
      </g>
     </g>
     <g id="text_3">
      <!-- 0.50 -->
      <g style="fill:#4d4d4d;" transform="translate(116.128875 199.456625)scale(0.088 -0.088)">
       <use xlink:href="#DejaVuSans-48"/>
       <use x="63.623047" xlink:href="#DejaVuSans-46"/>
       <use x="95.410156" xlink:href="#DejaVuSans-53"/>
       <use x="159.033203" xlink:href="#DejaVuSans-48"/>
      </g>
     </g>
    </g>
    <g id="xtick_4">
     <g id="line2d_7">
      <path clip-path="url(#p81d1e0a33f)" d="M 150.52575 187.82 
L 150.52575 21.5 
" style="fill:none;stroke:#e5e5e5;stroke-width:0.8;"/>
     </g>
     <g id="line2d_8">
      <path d="M 150.52575 187.82 
" style="fill:none;stroke:#000000;stroke-width:1.5;"/>
      <g>
       <use style="stroke:#000000;" x="150.52575" xlink:href="#m2be389e24f" y="187.82"/>
      </g>
     </g>
     <g id="text_4">
      <!-- 0.75 -->
      <defs>
       <path d="M 8.203125 72.90625 
L 55.078125 72.90625 
L 55.078125 68.703125 
L 28.609375 0 
L 18.3125 0 
L 43.21875 64.59375 
L 8.203125 64.59375 
z
" id="DejaVuSans-55"/>
      </defs>
      <g style="fill:#4d4d4d;" transform="translate(140.728875 199.456625)scale(0.088 -0.088)">
       <use xlink:href="#DejaVuSans-48"/>
       <use x="63.623047" xlink:href="#DejaVuSans-46"/>
       <use x="95.410156" xlink:href="#DejaVuSans-55"/>
       <use x="159.033203" xlink:href="#DejaVuSans-53"/>
      </g>
     </g>
    </g>
    <g id="xtick_5">
     <g id="line2d_9">
      <path clip-path="url(#p81d1e0a33f)" d="M 175.12575 187.82 
L 175.12575 21.5 
" style="fill:none;stroke:#e5e5e5;stroke-width:0.8;"/>
     </g>
     <g id="line2d_10">
      <path d="M 175.12575 187.82 
" style="fill:none;stroke:#000000;stroke-width:1.5;"/>
      <g>
       <use style="stroke:#000000;" x="175.12575" xlink:href="#m2be389e24f" y="187.82"/>
      </g>
     </g>
     <g id="text_5">
      <!-- 1 -->
      <defs>
       <path d="M 12.40625 8.296875 
L 28.515625 8.296875 
L 28.515625 63.921875 
L 10.984375 60.40625 
L 10.984375 69.390625 
L 28.421875 72.90625 
L 38.28125 72.90625 
L 38.28125 8.296875 
L 54.390625 8.296875 
L 54.390625 0 
L 12.40625 0 
z
" id="DejaVuSans-49"/>
      </defs>
      <g style="fill:#4d4d4d;" transform="translate(172.32625 199.456625)scale(0.088 -0.088)">
       <use xlink:href="#DejaVuSans-49"/>
      </g>
     </g>
    </g>
    <g id="xtick_6">
     <g id="line2d_11">
      <path clip-path="url(#p81d1e0a33f)" d="M 89.02575 187.82 
L 89.02575 21.5 
" style="fill:none;stroke:#fafafa;"/>
     </g>
     <g id="line2d_12">
      <path d="M 89.02575 187.82 
" style="fill:none;stroke:#000000;stroke-width:1.5;"/>
      <defs>
       <path d="M 0 0 
L 0 1.375 
" id="mb2fe4da264" style="stroke:#000000;"/>
      </defs>
      <g>
       <use style="stroke:#000000;" x="89.02575" xlink:href="#mb2fe4da264" y="187.82"/>
      </g>
     </g>
    </g>
    <g id="xtick_7">
     <g id="line2d_13">
      <path clip-path="url(#p81d1e0a33f)" d="M 113.62575 187.82 
L 113.62575 21.5 
" style="fill:none;stroke:#fafafa;"/>
     </g>
     <g id="line2d_14">
      <path d="M 113.62575 187.82 
" style="fill:none;stroke:#000000;stroke-width:1.5;"/>
      <g>
       <use style="stroke:#000000;" x="113.62575" xlink:href="#mb2fe4da264" y="187.82"/>
      </g>
     </g>
    </g>
    <g id="xtick_8">
     <g id="line2d_15">
      <path clip-path="url(#p81d1e0a33f)" d="M 138.22575 187.82 
L 138.22575 21.5 
" style="fill:none;stroke:#fafafa;"/>
     </g>
     <g id="line2d_16">
      <path d="M 138.22575 187.82 
" style="fill:none;stroke:#000000;stroke-width:1.5;"/>
      <g>
       <use style="stroke:#000000;" x="138.22575" xlink:href="#mb2fe4da264" y="187.82"/>
      </g>
     </g>
    </g>
    <g id="xtick_9">
     <g id="line2d_17">
      <path clip-path="url(#p81d1e0a33f)" d="M 162.82575 187.82 
L 162.82575 21.5 
" style="fill:none;stroke:#fafafa;"/>
     </g>
     <g id="line2d_18">
      <path d="M 162.82575 187.82 
" style="fill:none;stroke:#000000;stroke-width:1.5;"/>
      <g>
       <use style="stroke:#000000;" x="162.82575" xlink:href="#mb2fe4da264" y="187.82"/>
      </g>
     </g>
    </g>
   </g>
   <g id="matplotlib.axis_2">
    <g id="ytick_1">
     <g id="line2d_19">
      <path clip-path="url(#p81d1e0a33f)" d="M 71.80575 171.724516 
L 180.04575 171.724516 
" style="fill:none;stroke:#e5e5e5;stroke-width:0.8;"/>
     </g>
     <g id="line2d_20">
      <path d="M 71.80575 171.724516 
" style="fill:none;stroke:#000000;stroke-width:1.5;"/>
      <defs>
       <path d="M 0 0 
L -2.75 0 
" id="mdde2df5d17" style="stroke:#000000;"/>
      </defs>
      <g>
       <use style="stroke:#000000;" x="71.80575" xlink:href="#mdde2df5d17" y="171.724516"/>
      </g>
     </g>
     <g id="text_6">
      <!-- Subject1 -->
      <defs>
       <path d="M 53.515625 70.515625 
L 53.515625 60.890625 
Q 47.90625 63.578125 42.921875 64.890625 
Q 37.9375 66.21875 33.296875 66.21875 
Q 25.25 66.21875 20.875 63.09375 
Q 16.5 59.96875 16.5 54.203125 
Q 16.5 49.359375 19.40625 46.890625 
Q 22.3125 44.4375 30.421875 42.921875 
L 36.375 41.703125 
Q 47.40625 39.59375 52.65625 34.296875 
Q 57.90625 29 57.90625 20.125 
Q 57.90625 9.515625 50.796875 4.046875 
Q 43.703125 -1.421875 29.984375 -1.421875 
Q 24.8125 -1.421875 18.96875 -0.25 
Q 13.140625 0.921875 6.890625 3.21875 
L 6.890625 13.375 
Q 12.890625 10.015625 18.65625 8.296875 
Q 24.421875 6.59375 29.984375 6.59375 
Q 38.421875 6.59375 43.015625 9.90625 
Q 47.609375 13.234375 47.609375 19.390625 
Q 47.609375 24.75 44.3125 27.78125 
Q 41.015625 30.8125 33.5 32.328125 
L 27.484375 33.5 
Q 16.453125 35.6875 11.515625 40.375 
Q 6.59375 45.0625 6.59375 53.421875 
Q 6.59375 63.09375 13.40625 68.65625 
Q 20.21875 74.21875 32.171875 74.21875 
Q 37.3125 74.21875 42.625 73.28125 
Q 47.953125 72.359375 53.515625 70.515625 
z
" id="DejaVuSans-83"/>
       <path d="M 8.5 21.578125 
L 8.5 54.6875 
L 17.484375 54.6875 
L 17.484375 21.921875 
Q 17.484375 14.15625 20.5 10.265625 
Q 23.53125 6.390625 29.59375 6.390625 
Q 36.859375 6.390625 41.078125 11.03125 
Q 45.3125 15.671875 45.3125 23.6875 
L 45.3125 54.6875 
L 54.296875 54.6875 
L 54.296875 0 
L 45.3125 0 
L 45.3125 8.40625 
Q 42.046875 3.421875 37.71875 1 
Q 33.40625 -1.421875 27.6875 -1.421875 
Q 18.265625 -1.421875 13.375 4.4375 
Q 8.5 10.296875 8.5 21.578125 
z
M 31.109375 56 
z
" id="DejaVuSans-117"/>
       <path d="M 48.6875 27.296875 
Q 48.6875 37.203125 44.609375 42.84375 
Q 40.53125 48.484375 33.40625 48.484375 
Q 26.265625 48.484375 22.1875 42.84375 
Q 18.109375 37.203125 18.109375 27.296875 
Q 18.109375 17.390625 22.1875 11.75 
Q 26.265625 6.109375 33.40625 6.109375 
Q 40.53125 6.109375 44.609375 11.75 
Q 48.6875 17.390625 48.6875 27.296875 
z
M 18.109375 46.390625 
Q 20.953125 51.265625 25.265625 53.625 
Q 29.59375 56 35.59375 56 
Q 45.5625 56 51.78125 48.09375 
Q 58.015625 40.1875 58.015625 27.296875 
Q 58.015625 14.40625 51.78125 6.484375 
Q 45.5625 -1.421875 35.59375 -1.421875 
Q 29.59375 -1.421875 25.265625 0.953125 
Q 20.953125 3.328125 18.109375 8.203125 
L 18.109375 0 
L 9.078125 0 
L 9.078125 75.984375 
L 18.109375 75.984375 
z
" id="DejaVuSans-98"/>
       <path d="M 9.421875 54.6875 
L 18.40625 54.6875 
L 18.40625 -0.984375 
Q 18.40625 -11.421875 14.421875 -16.109375 
Q 10.453125 -20.796875 1.609375 -20.796875 
L -1.8125 -20.796875 
L -1.8125 -13.1875 
L 0.59375 -13.1875 
Q 5.71875 -13.1875 7.5625 -10.8125 
Q 9.421875 -8.453125 9.421875 -0.984375 
z
M 9.421875 75.984375 
L 18.40625 75.984375 
L 18.40625 64.59375 
L 9.421875 64.59375 
z
" id="DejaVuSans-106"/>
       <path d="M 56.203125 29.59375 
L 56.203125 25.203125 
L 14.890625 25.203125 
Q 15.484375 15.921875 20.484375 11.0625 
Q 25.484375 6.203125 34.421875 6.203125 
Q 39.59375 6.203125 44.453125 7.46875 
Q 49.3125 8.734375 54.109375 11.28125 
L 54.109375 2.78125 
Q 49.265625 0.734375 44.1875 -0.34375 
Q 39.109375 -1.421875 33.890625 -1.421875 
Q 20.796875 -1.421875 13.15625 6.1875 
Q 5.515625 13.8125 5.515625 26.8125 
Q 5.515625 40.234375 12.765625 48.109375 
Q 20.015625 56 32.328125 56 
Q 43.359375 56 49.78125 48.890625 
Q 56.203125 41.796875 56.203125 29.59375 
z
M 47.21875 32.234375 
Q 47.125 39.59375 43.09375 43.984375 
Q 39.0625 48.390625 32.421875 48.390625 
Q 24.90625 48.390625 20.390625 44.140625 
Q 15.875 39.890625 15.1875 32.171875 
z
" id="DejaVuSans-101"/>
       <path d="M 48.78125 52.59375 
L 48.78125 44.1875 
Q 44.96875 46.296875 41.140625 47.34375 
Q 37.3125 48.390625 33.40625 48.390625 
Q 24.65625 48.390625 19.8125 42.84375 
Q 14.984375 37.3125 14.984375 27.296875 
Q 14.984375 17.28125 19.8125 11.734375 
Q 24.65625 6.203125 33.40625 6.203125 
Q 37.3125 6.203125 41.140625 7.25 
Q 44.96875 8.296875 48.78125 10.40625 
L 48.78125 2.09375 
Q 45.015625 0.34375 40.984375 -0.53125 
Q 36.96875 -1.421875 32.421875 -1.421875 
Q 20.0625 -1.421875 12.78125 6.34375 
Q 5.515625 14.109375 5.515625 27.296875 
Q 5.515625 40.671875 12.859375 48.328125 
Q 20.21875 56 33.015625 56 
Q 37.15625 56 41.109375 55.140625 
Q 45.0625 54.296875 48.78125 52.59375 
z
" id="DejaVuSans-99"/>
       <path d="M 18.3125 70.21875 
L 18.3125 54.6875 
L 36.8125 54.6875 
L 36.8125 47.703125 
L 18.3125 47.703125 
L 18.3125 18.015625 
Q 18.3125 11.328125 20.140625 9.421875 
Q 21.96875 7.515625 27.59375 7.515625 
L 36.8125 7.515625 
L 36.8125 0 
L 27.59375 0 
Q 17.1875 0 13.234375 3.875 
Q 9.28125 7.765625 9.28125 18.015625 
L 9.28125 47.703125 
L 2.6875 47.703125 
L 2.6875 54.6875 
L 9.28125 54.6875 
L 9.28125 70.21875 
z
" id="DejaVuSans-116"/>
      </defs>
      <g style="fill:#4d4d4d;" transform="translate(28.3585 174.152766)scale(0.088 -0.088)">
       <use xlink:href="#DejaVuSans-83"/>
       <use x="63.476562" xlink:href="#DejaVuSans-117"/>
       <use x="126.855469" xlink:href="#DejaVuSans-98"/>
       <use x="190.332031" xlink:href="#DejaVuSans-106"/>
       <use x="218.115234" xlink:href="#DejaVuSans-101"/>
       <use x="279.638672" xlink:href="#DejaVuSans-99"/>
       <use x="334.619141" xlink:href="#DejaVuSans-116"/>
       <use x="373.828125" xlink:href="#DejaVuSans-49"/>
      </g>
     </g>
    </g>
    <g id="ytick_2">
     <g id="line2d_21">
      <path clip-path="url(#p81d1e0a33f)" d="M 71.80575 144.89871 
L 180.04575 144.89871 
" style="fill:none;stroke:#e5e5e5;stroke-width:0.8;"/>
     </g>
     <g id="line2d_22">
      <path d="M 71.80575 144.89871 
" style="fill:none;stroke:#000000;stroke-width:1.5;"/>
      <g>
       <use style="stroke:#000000;" x="71.80575" xlink:href="#mdde2df5d17" y="144.89871"/>
      </g>
     </g>
     <g id="text_7">
      <!-- Subject2 -->
      <g style="fill:#4d4d4d;" transform="translate(28.3585 147.32696)scale(0.088 -0.088)">
       <use xlink:href="#DejaVuSans-83"/>
       <use x="63.476562" xlink:href="#DejaVuSans-117"/>
       <use x="126.855469" xlink:href="#DejaVuSans-98"/>
       <use x="190.332031" xlink:href="#DejaVuSans-106"/>
       <use x="218.115234" xlink:href="#DejaVuSans-101"/>
       <use x="279.638672" xlink:href="#DejaVuSans-99"/>
       <use x="334.619141" xlink:href="#DejaVuSans-116"/>
       <use x="373.828125" xlink:href="#DejaVuSans-50"/>
      </g>
     </g>
    </g>
    <g id="ytick_3">
     <g id="line2d_23">
      <path clip-path="url(#p81d1e0a33f)" d="M 71.80575 118.072903 
L 180.04575 118.072903 
" style="fill:none;stroke:#e5e5e5;stroke-width:0.8;"/>
     </g>
     <g id="line2d_24">
      <path d="M 71.80575 118.072903 
" style="fill:none;stroke:#000000;stroke-width:1.5;"/>
      <g>
       <use style="stroke:#000000;" x="71.80575" xlink:href="#mdde2df5d17" y="118.072903"/>
      </g>
     </g>
     <g id="text_8">
      <!-- Subject3 -->
      <defs>
       <path d="M 40.578125 39.3125 
Q 47.65625 37.796875 51.625 33 
Q 55.609375 28.21875 55.609375 21.1875 
Q 55.609375 10.40625 48.1875 4.484375 
Q 40.765625 -1.421875 27.09375 -1.421875 
Q 22.515625 -1.421875 17.65625 -0.515625 
Q 12.796875 0.390625 7.625 2.203125 
L 7.625 11.71875 
Q 11.71875 9.328125 16.59375 8.109375 
Q 21.484375 6.890625 26.8125 6.890625 
Q 36.078125 6.890625 40.9375 10.546875 
Q 45.796875 14.203125 45.796875 21.1875 
Q 45.796875 27.640625 41.28125 31.265625 
Q 36.765625 34.90625 28.71875 34.90625 
L 20.21875 34.90625 
L 20.21875 43.015625 
L 29.109375 43.015625 
Q 36.375 43.015625 40.234375 45.921875 
Q 44.09375 48.828125 44.09375 54.296875 
Q 44.09375 59.90625 40.109375 62.90625 
Q 36.140625 65.921875 28.71875 65.921875 
Q 24.65625 65.921875 20.015625 65.03125 
Q 15.375 64.15625 9.8125 62.3125 
L 9.8125 71.09375 
Q 15.4375 72.65625 20.34375 73.4375 
Q 25.25 74.21875 29.59375 74.21875 
Q 40.828125 74.21875 47.359375 69.109375 
Q 53.90625 64.015625 53.90625 55.328125 
Q 53.90625 49.265625 50.4375 45.09375 
Q 46.96875 40.921875 40.578125 39.3125 
z
" id="DejaVuSans-51"/>
      </defs>
      <g style="fill:#4d4d4d;" transform="translate(28.3585 120.501153)scale(0.088 -0.088)">
       <use xlink:href="#DejaVuSans-83"/>
       <use x="63.476562" xlink:href="#DejaVuSans-117"/>
       <use x="126.855469" xlink:href="#DejaVuSans-98"/>
       <use x="190.332031" xlink:href="#DejaVuSans-106"/>
       <use x="218.115234" xlink:href="#DejaVuSans-101"/>
       <use x="279.638672" xlink:href="#DejaVuSans-99"/>
       <use x="334.619141" xlink:href="#DejaVuSans-116"/>
       <use x="373.828125" xlink:href="#DejaVuSans-51"/>
      </g>
     </g>
    </g>
    <g id="ytick_4">
     <g id="line2d_25">
      <path clip-path="url(#p81d1e0a33f)" d="M 71.80575 91.247097 
L 180.04575 91.247097 
" style="fill:none;stroke:#e5e5e5;stroke-width:0.8;"/>
     </g>
     <g id="line2d_26">
      <path d="M 71.80575 91.247097 
" style="fill:none;stroke:#000000;stroke-width:1.5;"/>
      <g>
       <use style="stroke:#000000;" x="71.80575" xlink:href="#mdde2df5d17" y="91.247097"/>
      </g>
     </g>
     <g id="text_9">
      <!-- accuracy -->
      <defs>
       <path d="M 34.28125 27.484375 
Q 23.390625 27.484375 19.1875 25 
Q 14.984375 22.515625 14.984375 16.5 
Q 14.984375 11.71875 18.140625 8.90625 
Q 21.296875 6.109375 26.703125 6.109375 
Q 34.1875 6.109375 38.703125 11.40625 
Q 43.21875 16.703125 43.21875 25.484375 
L 43.21875 27.484375 
z
M 52.203125 31.203125 
L 52.203125 0 
L 43.21875 0 
L 43.21875 8.296875 
Q 40.140625 3.328125 35.546875 0.953125 
Q 30.953125 -1.421875 24.3125 -1.421875 
Q 15.921875 -1.421875 10.953125 3.296875 
Q 6 8.015625 6 15.921875 
Q 6 25.140625 12.171875 29.828125 
Q 18.359375 34.515625 30.609375 34.515625 
L 43.21875 34.515625 
L 43.21875 35.40625 
Q 43.21875 41.609375 39.140625 45 
Q 35.0625 48.390625 27.6875 48.390625 
Q 23 48.390625 18.546875 47.265625 
Q 14.109375 46.140625 10.015625 43.890625 
L 10.015625 52.203125 
Q 14.9375 54.109375 19.578125 55.046875 
Q 24.21875 56 28.609375 56 
Q 40.484375 56 46.34375 49.84375 
Q 52.203125 43.703125 52.203125 31.203125 
z
" id="DejaVuSans-97"/>
       <path d="M 41.109375 46.296875 
Q 39.59375 47.171875 37.8125 47.578125 
Q 36.03125 48 33.890625 48 
Q 26.265625 48 22.1875 43.046875 
Q 18.109375 38.09375 18.109375 28.8125 
L 18.109375 0 
L 9.078125 0 
L 9.078125 54.6875 
L 18.109375 54.6875 
L 18.109375 46.1875 
Q 20.953125 51.171875 25.484375 53.578125 
Q 30.03125 56 36.53125 56 
Q 37.453125 56 38.578125 55.875 
Q 39.703125 55.765625 41.0625 55.515625 
z
" id="DejaVuSans-114"/>
       <path d="M 32.171875 -5.078125 
Q 28.375 -14.84375 24.75 -17.8125 
Q 21.140625 -20.796875 15.09375 -20.796875 
L 7.90625 -20.796875 
L 7.90625 -13.28125 
L 13.1875 -13.28125 
Q 16.890625 -13.28125 18.9375 -11.515625 
Q 21 -9.765625 23.484375 -3.21875 
L 25.09375 0.875 
L 2.984375 54.6875 
L 12.5 54.6875 
L 29.59375 11.921875 
L 46.6875 54.6875 
L 56.203125 54.6875 
z
" id="DejaVuSans-121"/>
      </defs>
      <g style="fill:#4d4d4d;" transform="translate(27.15125 93.675347)scale(0.088 -0.088)">
       <use xlink:href="#DejaVuSans-97"/>
       <use x="61.279297" xlink:href="#DejaVuSans-99"/>
       <use x="116.259766" xlink:href="#DejaVuSans-99"/>
       <use x="171.240234" xlink:href="#DejaVuSans-117"/>
       <use x="234.619141" xlink:href="#DejaVuSans-114"/>
       <use x="275.732422" xlink:href="#DejaVuSans-97"/>
       <use x="337.011719" xlink:href="#DejaVuSans-99"/>
       <use x="391.992188" xlink:href="#DejaVuSans-121"/>
      </g>
     </g>
    </g>
    <g id="ytick_5">
     <g id="line2d_27">
      <path clip-path="url(#p81d1e0a33f)" d="M 71.80575 64.42129 
L 180.04575 64.42129 
" style="fill:none;stroke:#e5e5e5;stroke-width:0.8;"/>
     </g>
     <g id="line2d_28">
      <path d="M 71.80575 64.42129 
" style="fill:none;stroke:#000000;stroke-width:1.5;"/>
      <g>
       <use style="stroke:#000000;" x="71.80575" xlink:href="#mdde2df5d17" y="64.42129"/>
      </g>
     </g>
     <g id="text_10">
      <!-- macro avg -->
      <defs>
       <path d="M 52 44.1875 
Q 55.375 50.25 60.0625 53.125 
Q 64.75 56 71.09375 56 
Q 79.640625 56 84.28125 50.015625 
Q 88.921875 44.046875 88.921875 33.015625 
L 88.921875 0 
L 79.890625 0 
L 79.890625 32.71875 
Q 79.890625 40.578125 77.09375 44.375 
Q 74.3125 48.1875 68.609375 48.1875 
Q 61.625 48.1875 57.5625 43.546875 
Q 53.515625 38.921875 53.515625 30.90625 
L 53.515625 0 
L 44.484375 0 
L 44.484375 32.71875 
Q 44.484375 40.625 41.703125 44.40625 
Q 38.921875 48.1875 33.109375 48.1875 
Q 26.21875 48.1875 22.15625 43.53125 
Q 18.109375 38.875 18.109375 30.90625 
L 18.109375 0 
L 9.078125 0 
L 9.078125 54.6875 
L 18.109375 54.6875 
L 18.109375 46.1875 
Q 21.1875 51.21875 25.484375 53.609375 
Q 29.78125 56 35.6875 56 
Q 41.65625 56 45.828125 52.96875 
Q 50 49.953125 52 44.1875 
z
" id="DejaVuSans-109"/>
       <path d="M 30.609375 48.390625 
Q 23.390625 48.390625 19.1875 42.75 
Q 14.984375 37.109375 14.984375 27.296875 
Q 14.984375 17.484375 19.15625 11.84375 
Q 23.34375 6.203125 30.609375 6.203125 
Q 37.796875 6.203125 41.984375 11.859375 
Q 46.1875 17.53125 46.1875 27.296875 
Q 46.1875 37.015625 41.984375 42.703125 
Q 37.796875 48.390625 30.609375 48.390625 
z
M 30.609375 56 
Q 42.328125 56 49.015625 48.375 
Q 55.71875 40.765625 55.71875 27.296875 
Q 55.71875 13.875 49.015625 6.21875 
Q 42.328125 -1.421875 30.609375 -1.421875 
Q 18.84375 -1.421875 12.171875 6.21875 
Q 5.515625 13.875 5.515625 27.296875 
Q 5.515625 40.765625 12.171875 48.375 
Q 18.84375 56 30.609375 56 
z
" id="DejaVuSans-111"/>
       <path id="DejaVuSans-32"/>
       <path d="M 2.984375 54.6875 
L 12.5 54.6875 
L 29.59375 8.796875 
L 46.6875 54.6875 
L 56.203125 54.6875 
L 35.6875 0 
L 23.484375 0 
z
" id="DejaVuSans-118"/>
       <path d="M 45.40625 27.984375 
Q 45.40625 37.75 41.375 43.109375 
Q 37.359375 48.484375 30.078125 48.484375 
Q 22.859375 48.484375 18.828125 43.109375 
Q 14.796875 37.75 14.796875 27.984375 
Q 14.796875 18.265625 18.828125 12.890625 
Q 22.859375 7.515625 30.078125 7.515625 
Q 37.359375 7.515625 41.375 12.890625 
Q 45.40625 18.265625 45.40625 27.984375 
z
M 54.390625 6.78125 
Q 54.390625 -7.171875 48.1875 -13.984375 
Q 42 -20.796875 29.203125 -20.796875 
Q 24.46875 -20.796875 20.265625 -20.09375 
Q 16.0625 -19.390625 12.109375 -17.921875 
L 12.109375 -9.1875 
Q 16.0625 -11.328125 19.921875 -12.34375 
Q 23.78125 -13.375 27.78125 -13.375 
Q 36.625 -13.375 41.015625 -8.765625 
Q 45.40625 -4.15625 45.40625 5.171875 
L 45.40625 9.625 
Q 42.625 4.78125 38.28125 2.390625 
Q 33.9375 0 27.875 0 
Q 17.828125 0 11.671875 7.65625 
Q 5.515625 15.328125 5.515625 27.984375 
Q 5.515625 40.671875 11.671875 48.328125 
Q 17.828125 56 27.875 56 
Q 33.9375 56 38.28125 53.609375 
Q 42.625 51.21875 45.40625 46.390625 
L 45.40625 54.6875 
L 54.390625 54.6875 
z
" id="DejaVuSans-103"/>
      </defs>
      <g style="fill:#4d4d4d;" transform="translate(20.068625 66.84954)scale(0.088 -0.088)">
       <use xlink:href="#DejaVuSans-109"/>
       <use x="97.412109" xlink:href="#DejaVuSans-97"/>
       <use x="158.691406" xlink:href="#DejaVuSans-99"/>
       <use x="213.671875" xlink:href="#DejaVuSans-114"/>
       <use x="254.753906" xlink:href="#DejaVuSans-111"/>
       <use x="315.935547" xlink:href="#DejaVuSans-32"/>
       <use x="347.722656" xlink:href="#DejaVuSans-97"/>
       <use x="409.001953" xlink:href="#DejaVuSans-118"/>
       <use x="468.181641" xlink:href="#DejaVuSans-103"/>
      </g>
     </g>
    </g>
    <g id="ytick_6">
     <g id="line2d_29">
      <path clip-path="url(#p81d1e0a33f)" d="M 71.80575 37.595484 
L 180.04575 37.595484 
" style="fill:none;stroke:#e5e5e5;stroke-width:0.8;"/>
     </g>
     <g id="line2d_30">
      <path d="M 71.80575 37.595484 
" style="fill:none;stroke:#000000;stroke-width:1.5;"/>
      <g>
       <use style="stroke:#000000;" x="71.80575" xlink:href="#mdde2df5d17" y="37.595484"/>
      </g>
     </g>
     <g id="text_11">
      <!-- weighted avg -->
      <defs>
       <path d="M 4.203125 54.6875 
L 13.1875 54.6875 
L 24.421875 12.015625 
L 35.59375 54.6875 
L 46.1875 54.6875 
L 57.421875 12.015625 
L 68.609375 54.6875 
L 77.59375 54.6875 
L 63.28125 0 
L 52.6875 0 
L 40.921875 44.828125 
L 29.109375 0 
L 18.5 0 
z
" id="DejaVuSans-119"/>
       <path d="M 9.421875 54.6875 
L 18.40625 54.6875 
L 18.40625 0 
L 9.421875 0 
z
M 9.421875 75.984375 
L 18.40625 75.984375 
L 18.40625 64.59375 
L 9.421875 64.59375 
z
" id="DejaVuSans-105"/>
       <path d="M 54.890625 33.015625 
L 54.890625 0 
L 45.90625 0 
L 45.90625 32.71875 
Q 45.90625 40.484375 42.875 44.328125 
Q 39.84375 48.1875 33.796875 48.1875 
Q 26.515625 48.1875 22.3125 43.546875 
Q 18.109375 38.921875 18.109375 30.90625 
L 18.109375 0 
L 9.078125 0 
L 9.078125 75.984375 
L 18.109375 75.984375 
L 18.109375 46.1875 
Q 21.34375 51.125 25.703125 53.5625 
Q 30.078125 56 35.796875 56 
Q 45.21875 56 50.046875 50.171875 
Q 54.890625 44.34375 54.890625 33.015625 
z
" id="DejaVuSans-104"/>
       <path d="M 45.40625 46.390625 
L 45.40625 75.984375 
L 54.390625 75.984375 
L 54.390625 0 
L 45.40625 0 
L 45.40625 8.203125 
Q 42.578125 3.328125 38.25 0.953125 
Q 33.9375 -1.421875 27.875 -1.421875 
Q 17.96875 -1.421875 11.734375 6.484375 
Q 5.515625 14.40625 5.515625 27.296875 
Q 5.515625 40.1875 11.734375 48.09375 
Q 17.96875 56 27.875 56 
Q 33.9375 56 38.25 53.625 
Q 42.578125 51.265625 45.40625 46.390625 
z
M 14.796875 27.296875 
Q 14.796875 17.390625 18.875 11.75 
Q 22.953125 6.109375 30.078125 6.109375 
Q 37.203125 6.109375 41.296875 11.75 
Q 45.40625 17.390625 45.40625 27.296875 
Q 45.40625 37.203125 41.296875 42.84375 
Q 37.203125 48.484375 30.078125 48.484375 
Q 22.953125 48.484375 18.875 42.84375 
Q 14.796875 37.203125 14.796875 27.296875 
z
" id="DejaVuSans-100"/>
      </defs>
      <g style="fill:#4d4d4d;" transform="translate(7.2 40.023734)scale(0.088 -0.088)">
       <use xlink:href="#DejaVuSans-119"/>
       <use x="81.787109" xlink:href="#DejaVuSans-101"/>
       <use x="143.310547" xlink:href="#DejaVuSans-105"/>
       <use x="171.09375" xlink:href="#DejaVuSans-103"/>
       <use x="234.570312" xlink:href="#DejaVuSans-104"/>
       <use x="297.949219" xlink:href="#DejaVuSans-116"/>
       <use x="337.158203" xlink:href="#DejaVuSans-101"/>
       <use x="398.681641" xlink:href="#DejaVuSans-100"/>
       <use x="462.158203" xlink:href="#DejaVuSans-32"/>
       <use x="493.945312" xlink:href="#DejaVuSans-97"/>
       <use x="555.224609" xlink:href="#DejaVuSans-118"/>
       <use x="614.404297" xlink:href="#DejaVuSans-103"/>
      </g>
     </g>
    </g>
   </g>
   <g id="PathCollection_1">
    <path clip-path="url(#p81d1e0a33f)" d="M 175.12575 173.49697 
C 175.59581 173.49697 176.046681 173.310213 176.379064 172.97783 
C 176.711447 172.645447 176.898204 172.194576 176.898204 171.724516 
C 176.898204 171.254456 176.711447 170.803585 176.379064 170.471202 
C 176.046681 170.138819 175.59581 169.952062 175.12575 169.952062 
C 174.65569 169.952062 174.204819 170.138819 173.872436 170.471202 
C 173.540053 170.803585 173.353296 171.254456 173.353296 171.724516 
C 173.353296 172.194576 173.540053 172.645447 173.872436 172.97783 
C 174.204819 173.310213 174.65569 173.49697 175.12575 173.49697 
z
" style="fill:#db5f57;stroke:#000000;stroke-width:0.886227;"/>
    <path clip-path="url(#p81d1e0a33f)" d="M 175.12575 146.671164 
C 175.59581 146.671164 176.046681 146.484407 176.379064 146.152024 
C 176.711447 145.819641 176.898204 145.36877 176.898204 144.89871 
C 176.898204 144.428649 176.711447 143.977778 176.379064 143.645396 
C 176.046681 143.313013 175.59581 143.126256 175.12575 143.126256 
C 174.65569 143.126256 174.204819 143.313013 173.872436 143.645396 
C 173.540053 143.977778 173.353296 144.428649 173.353296 144.89871 
C 173.353296 145.36877 173.540053 145.819641 173.872436 146.152024 
C 174.204819 146.484407 174.65569 146.671164 175.12575 146.671164 
z
" style="fill:#d3db57;stroke:#000000;stroke-width:0.886227;"/>
    <path clip-path="url(#p81d1e0a33f)" d="M 175.12575 119.845357 
C 175.59581 119.845357 176.046681 119.6586 176.379064 119.326217 
C 176.711447 118.993835 176.898204 118.542963 176.898204 118.072903 
C 176.898204 117.602843 176.711447 117.151972 176.379064 116.819589 
C 176.046681 116.487206 175.59581 116.300449 175.12575 116.300449 
C 174.65569 116.300449 174.204819 116.487206 173.872436 116.819589 
C 173.540053 117.151972 173.353296 117.602843 173.353296 118.072903 
C 173.353296 118.542963 173.540053 118.993835 173.872436 119.326217 
C 174.204819 119.6586 174.65569 119.845357 175.12575 119.845357 
z
" style="fill:#57db5f;stroke:#000000;stroke-width:0.886227;"/>
    <path clip-path="url(#p81d1e0a33f)" d="M 175.12575 93.019551 
C 175.59581 93.019551 176.046681 92.832794 176.379064 92.500411 
C 176.711447 92.168028 176.898204 91.717157 176.898204 91.247097 
C 176.898204 90.777037 176.711447 90.326165 176.379064 89.993783 
C 176.046681 89.6614 175.59581 89.474643 175.12575 89.474643 
C 174.65569 89.474643 174.204819 89.6614 173.872436 89.993783 
C 173.540053 90.326165 173.353296 90.777037 173.353296 91.247097 
C 173.353296 91.717157 173.540053 92.168028 173.872436 92.500411 
C 174.204819 92.832794 174.65569 93.019551 175.12575 93.019551 
z
" style="fill:#57d3db;stroke:#000000;stroke-width:0.886227;"/>
    <path clip-path="url(#p81d1e0a33f)" d="M 175.12575 66.193744 
C 175.59581 66.193744 176.046681 66.006987 176.379064 65.674604 
C 176.711447 65.342222 176.898204 64.891351 176.898204 64.42129 
C 176.898204 63.95123 176.711447 63.500359 176.379064 63.167976 
C 176.046681 62.835593 175.59581 62.648836 175.12575 62.648836 
C 174.65569 62.648836 174.204819 62.835593 173.872436 63.167976 
C 173.540053 63.500359 173.353296 63.95123 173.353296 64.42129 
C 173.353296 64.891351 173.540053 65.342222 173.872436 65.674604 
C 174.204819 66.006987 174.65569 66.193744 175.12575 66.193744 
z
" style="fill:#5f57db;stroke:#000000;stroke-width:0.886227;"/>
    <path clip-path="url(#p81d1e0a33f)" d="M 175.12575 39.367938 
C 175.59581 39.367938 176.046681 39.181181 176.379064 38.848798 
C 176.711447 38.516415 176.898204 38.065544 176.898204 37.595484 
C 176.898204 37.125424 176.711447 36.674553 176.379064 36.34217 
C 176.046681 36.009787 175.59581 35.82303 175.12575 35.82303 
C 174.65569 35.82303 174.204819 36.009787 173.872436 36.34217 
C 173.540053 36.674553 173.353296 37.125424 173.353296 37.595484 
C 173.353296 38.065544 173.540053 38.516415 173.872436 38.848798 
C 174.204819 39.181181 174.65569 39.367938 175.12575 39.367938 
z
" style="fill:#db57d3;stroke:#000000;stroke-width:0.886227;"/>
   </g>
   <g id="patch_3">
    <path d="M 71.80575 21.5 
L 180.04575 21.5 
L 180.04575 7.2 
L 71.80575 7.2 
z
" style="fill:#cccccc;stroke:#7f7f7f;stroke-linejoin:miter;"/>
   </g>
   <g id="text_12">
    <!-- f1-score -->
    <defs>
     <path d="M 37.109375 75.984375 
L 37.109375 68.5 
L 28.515625 68.5 
Q 23.6875 68.5 21.796875 66.546875 
Q 19.921875 64.59375 19.921875 59.515625 
L 19.921875 54.6875 
L 34.71875 54.6875 
L 34.71875 47.703125 
L 19.921875 47.703125 
L 19.921875 0 
L 10.890625 0 
L 10.890625 47.703125 
L 2.296875 47.703125 
L 2.296875 54.6875 
L 10.890625 54.6875 
L 10.890625 58.5 
Q 10.890625 67.625 15.140625 71.796875 
Q 19.390625 75.984375 28.609375 75.984375 
z
" id="DejaVuSans-102"/>
     <path d="M 4.890625 31.390625 
L 31.203125 31.390625 
L 31.203125 23.390625 
L 4.890625 23.390625 
z
" id="DejaVuSans-45"/>
     <path d="M 44.28125 53.078125 
L 44.28125 44.578125 
Q 40.484375 46.53125 36.375 47.5 
Q 32.28125 48.484375 27.875 48.484375 
Q 21.1875 48.484375 17.84375 46.4375 
Q 14.5 44.390625 14.5 40.28125 
Q 14.5 37.15625 16.890625 35.375 
Q 19.28125 33.59375 26.515625 31.984375 
L 29.59375 31.296875 
Q 39.15625 29.25 43.1875 25.515625 
Q 47.21875 21.78125 47.21875 15.09375 
Q 47.21875 7.46875 41.1875 3.015625 
Q 35.15625 -1.421875 24.609375 -1.421875 
Q 20.21875 -1.421875 15.453125 -0.5625 
Q 10.6875 0.296875 5.421875 2 
L 5.421875 11.28125 
Q 10.40625 8.6875 15.234375 7.390625 
Q 20.0625 6.109375 24.8125 6.109375 
Q 31.15625 6.109375 34.5625 8.28125 
Q 37.984375 10.453125 37.984375 14.40625 
Q 37.984375 18.0625 35.515625 20.015625 
Q 33.0625 21.96875 24.703125 23.78125 
L 21.578125 24.515625 
Q 13.234375 26.265625 9.515625 29.90625 
Q 5.8125 33.546875 5.8125 39.890625 
Q 5.8125 47.609375 11.28125 51.796875 
Q 16.75 56 26.8125 56 
Q 31.78125 56 36.171875 55.265625 
Q 40.578125 54.546875 44.28125 53.078125 
z
" id="DejaVuSans-115"/>
    </defs>
    <g style="fill:#1a1a1a;" transform="translate(108.071375 16.77825)scale(0.088 -0.088)">
     <use xlink:href="#DejaVuSans-102"/>
     <use x="35.205078" xlink:href="#DejaVuSans-49"/>
     <use x="98.828125" xlink:href="#DejaVuSans-45"/>
     <use x="134.912109" xlink:href="#DejaVuSans-115"/>
     <use x="187.011719" xlink:href="#DejaVuSans-99"/>
     <use x="241.992188" xlink:href="#DejaVuSans-111"/>
     <use x="303.173828" xlink:href="#DejaVuSans-114"/>
     <use x="344.255859" xlink:href="#DejaVuSans-101"/>
    </g>
   </g>
  </g>
  <g id="axes_2">
   <g id="patch_4">
    <path d="M 185.08575 187.82 
L 293.32575 187.82 
L 293.32575 21.5 
L 185.08575 21.5 
z
" style="fill:#ffffff;stroke:#7f7f7f;stroke-linejoin:miter;"/>
   </g>
   <g id="matplotlib.axis_3">
    <g id="xtick_10">
     <g id="line2d_31">
      <path clip-path="url(#pa962c8c988)" d="M 190.00575 187.82 
L 190.00575 21.5 
" style="fill:none;stroke:#e5e5e5;stroke-linecap:square;stroke-width:0.8;"/>
     </g>
     <g id="line2d_32">
      <path d="M 190.00575 187.82 
" style="fill:none;stroke:#000000;stroke-linecap:square;stroke-width:1.5;"/>
      <g>
       <use style="stroke:#000000;" x="190.00575" xlink:href="#m2be389e24f" y="187.82"/>
      </g>
     </g>
     <g id="text_13">
      <!-- 0 -->
      <g style="fill:#4d4d4d;" transform="translate(187.20625 199.456625)scale(0.088 -0.088)">
       <use xlink:href="#DejaVuSans-48"/>
      </g>
     </g>
    </g>
    <g id="xtick_11">
     <g id="line2d_33">
      <path clip-path="url(#pa962c8c988)" d="M 214.60575 187.82 
L 214.60575 21.5 
" style="fill:none;stroke:#e5e5e5;stroke-linecap:square;stroke-width:0.8;"/>
     </g>
     <g id="line2d_34">
      <path d="M 214.60575 187.82 
" style="fill:none;stroke:#000000;stroke-linecap:square;stroke-width:1.5;"/>
      <g>
       <use style="stroke:#000000;" x="214.60575" xlink:href="#m2be389e24f" y="187.82"/>
      </g>
     </g>
     <g id="text_14">
      <!-- 0.25 -->
      <g style="fill:#4d4d4d;" transform="translate(204.808875 199.456625)scale(0.088 -0.088)">
       <use xlink:href="#DejaVuSans-48"/>
       <use x="63.623047" xlink:href="#DejaVuSans-46"/>
       <use x="95.410156" xlink:href="#DejaVuSans-50"/>
       <use x="159.033203" xlink:href="#DejaVuSans-53"/>
      </g>
     </g>
    </g>
    <g id="xtick_12">
     <g id="line2d_35">
      <path clip-path="url(#pa962c8c988)" d="M 239.20575 187.82 
L 239.20575 21.5 
" style="fill:none;stroke:#e5e5e5;stroke-linecap:square;stroke-width:0.8;"/>
     </g>
     <g id="line2d_36">
      <path d="M 239.20575 187.82 
" style="fill:none;stroke:#000000;stroke-linecap:square;stroke-width:1.5;"/>
      <g>
       <use style="stroke:#000000;" x="239.20575" xlink:href="#m2be389e24f" y="187.82"/>
      </g>
     </g>
     <g id="text_15">
      <!-- 0.50 -->
      <g style="fill:#4d4d4d;" transform="translate(229.408875 199.456625)scale(0.088 -0.088)">
       <use xlink:href="#DejaVuSans-48"/>
       <use x="63.623047" xlink:href="#DejaVuSans-46"/>
       <use x="95.410156" xlink:href="#DejaVuSans-53"/>
       <use x="159.033203" xlink:href="#DejaVuSans-48"/>
      </g>
     </g>
    </g>
    <g id="xtick_13">
     <g id="line2d_37">
      <path clip-path="url(#pa962c8c988)" d="M 263.80575 187.82 
L 263.80575 21.5 
" style="fill:none;stroke:#e5e5e5;stroke-linecap:square;stroke-width:0.8;"/>
     </g>
     <g id="line2d_38">
      <path d="M 263.80575 187.82 
" style="fill:none;stroke:#000000;stroke-linecap:square;stroke-width:1.5;"/>
      <g>
       <use style="stroke:#000000;" x="263.80575" xlink:href="#m2be389e24f" y="187.82"/>
      </g>
     </g>
     <g id="text_16">
      <!-- 0.75 -->
      <g style="fill:#4d4d4d;" transform="translate(254.008875 199.456625)scale(0.088 -0.088)">
       <use xlink:href="#DejaVuSans-48"/>
       <use x="63.623047" xlink:href="#DejaVuSans-46"/>
       <use x="95.410156" xlink:href="#DejaVuSans-55"/>
       <use x="159.033203" xlink:href="#DejaVuSans-53"/>
      </g>
     </g>
    </g>
    <g id="xtick_14">
     <g id="line2d_39">
      <path clip-path="url(#pa962c8c988)" d="M 288.40575 187.82 
L 288.40575 21.5 
" style="fill:none;stroke:#e5e5e5;stroke-linecap:square;stroke-width:0.8;"/>
     </g>
     <g id="line2d_40">
      <path d="M 288.40575 187.82 
" style="fill:none;stroke:#000000;stroke-linecap:square;stroke-width:1.5;"/>
      <g>
       <use style="stroke:#000000;" x="288.40575" xlink:href="#m2be389e24f" y="187.82"/>
      </g>
     </g>
     <g id="text_17">
      <!-- 1 -->
      <g style="fill:#4d4d4d;" transform="translate(285.60625 199.456625)scale(0.088 -0.088)">
       <use xlink:href="#DejaVuSans-49"/>
      </g>
     </g>
    </g>
    <g id="xtick_15">
     <g id="line2d_41">
      <path clip-path="url(#pa962c8c988)" d="M 202.30575 187.82 
L 202.30575 21.5 
" style="fill:none;stroke:#fafafa;stroke-linecap:square;"/>
     </g>
     <g id="line2d_42">
      <path d="M 202.30575 187.82 
" style="fill:none;stroke:#000000;stroke-linecap:square;stroke-width:1.5;"/>
      <g>
       <use style="stroke:#000000;" x="202.30575" xlink:href="#mb2fe4da264" y="187.82"/>
      </g>
     </g>
    </g>
    <g id="xtick_16">
     <g id="line2d_43">
      <path clip-path="url(#pa962c8c988)" d="M 226.90575 187.82 
L 226.90575 21.5 
" style="fill:none;stroke:#fafafa;stroke-linecap:square;"/>
     </g>
     <g id="line2d_44">
      <path d="M 226.90575 187.82 
" style="fill:none;stroke:#000000;stroke-linecap:square;stroke-width:1.5;"/>
      <g>
       <use style="stroke:#000000;" x="226.90575" xlink:href="#mb2fe4da264" y="187.82"/>
      </g>
     </g>
    </g>
    <g id="xtick_17">
     <g id="line2d_45">
      <path clip-path="url(#pa962c8c988)" d="M 251.50575 187.82 
L 251.50575 21.5 
" style="fill:none;stroke:#fafafa;stroke-linecap:square;"/>
     </g>
     <g id="line2d_46">
      <path d="M 251.50575 187.82 
" style="fill:none;stroke:#000000;stroke-linecap:square;stroke-width:1.5;"/>
      <g>
       <use style="stroke:#000000;" x="251.50575" xlink:href="#mb2fe4da264" y="187.82"/>
      </g>
     </g>
    </g>
    <g id="xtick_18">
     <g id="line2d_47">
      <path clip-path="url(#pa962c8c988)" d="M 276.10575 187.82 
L 276.10575 21.5 
" style="fill:none;stroke:#fafafa;stroke-linecap:square;"/>
     </g>
     <g id="line2d_48">
      <path d="M 276.10575 187.82 
" style="fill:none;stroke:#000000;stroke-linecap:square;stroke-width:1.5;"/>
      <g>
       <use style="stroke:#000000;" x="276.10575" xlink:href="#mb2fe4da264" y="187.82"/>
      </g>
     </g>
    </g>
   </g>
   <g id="matplotlib.axis_4">
    <g id="ytick_7">
     <g id="line2d_49">
      <path clip-path="url(#pa962c8c988)" d="M 185.08575 171.724516 
L 293.32575 171.724516 
" style="fill:none;stroke:#e5e5e5;stroke-linecap:square;stroke-width:0.8;"/>
     </g>
    </g>
    <g id="ytick_8">
     <g id="line2d_50">
      <path clip-path="url(#pa962c8c988)" d="M 185.08575 144.89871 
L 293.32575 144.89871 
" style="fill:none;stroke:#e5e5e5;stroke-linecap:square;stroke-width:0.8;"/>
     </g>
    </g>
    <g id="ytick_9">
     <g id="line2d_51">
      <path clip-path="url(#pa962c8c988)" d="M 185.08575 118.072903 
L 293.32575 118.072903 
" style="fill:none;stroke:#e5e5e5;stroke-linecap:square;stroke-width:0.8;"/>
     </g>
    </g>
    <g id="ytick_10">
     <g id="line2d_52">
      <path clip-path="url(#pa962c8c988)" d="M 185.08575 91.247097 
L 293.32575 91.247097 
" style="fill:none;stroke:#e5e5e5;stroke-linecap:square;stroke-width:0.8;"/>
     </g>
    </g>
    <g id="ytick_11">
     <g id="line2d_53">
      <path clip-path="url(#pa962c8c988)" d="M 185.08575 64.42129 
L 293.32575 64.42129 
" style="fill:none;stroke:#e5e5e5;stroke-linecap:square;stroke-width:0.8;"/>
     </g>
    </g>
    <g id="ytick_12">
     <g id="line2d_54">
      <path clip-path="url(#pa962c8c988)" d="M 185.08575 37.595484 
L 293.32575 37.595484 
" style="fill:none;stroke:#e5e5e5;stroke-linecap:square;stroke-width:0.8;"/>
     </g>
    </g>
   </g>
   <g id="PathCollection_2">
    <path clip-path="url(#pa962c8c988)" d="M 288.40575 173.49697 
C 288.87581 173.49697 289.326681 173.310213 289.659064 172.97783 
C 289.991447 172.645447 290.178204 172.194576 290.178204 171.724516 
C 290.178204 171.254456 289.991447 170.803585 289.659064 170.471202 
C 289.326681 170.138819 288.87581 169.952062 288.40575 169.952062 
C 287.93569 169.952062 287.484819 170.138819 287.152436 170.471202 
C 286.820053 170.803585 286.633296 171.254456 286.633296 171.724516 
C 286.633296 172.194576 286.820053 172.645447 287.152436 172.97783 
C 287.484819 173.310213 287.93569 173.49697 288.40575 173.49697 
z
" style="fill:#db5f57;stroke:#000000;stroke-width:0.886227;"/>
    <path clip-path="url(#pa962c8c988)" d="M 288.40575 146.671164 
C 288.87581 146.671164 289.326681 146.484407 289.659064 146.152024 
C 289.991447 145.819641 290.178204 145.36877 290.178204 144.89871 
C 290.178204 144.428649 289.991447 143.977778 289.659064 143.645396 
C 289.326681 143.313013 288.87581 143.126256 288.40575 143.126256 
C 287.93569 143.126256 287.484819 143.313013 287.152436 143.645396 
C 286.820053 143.977778 286.633296 144.428649 286.633296 144.89871 
C 286.633296 145.36877 286.820053 145.819641 287.152436 146.152024 
C 287.484819 146.484407 287.93569 146.671164 288.40575 146.671164 
z
" style="fill:#d3db57;stroke:#000000;stroke-width:0.886227;"/>
    <path clip-path="url(#pa962c8c988)" d="M 288.40575 119.845357 
C 288.87581 119.845357 289.326681 119.6586 289.659064 119.326217 
C 289.991447 118.993835 290.178204 118.542963 290.178204 118.072903 
C 290.178204 117.602843 289.991447 117.151972 289.659064 116.819589 
C 289.326681 116.487206 288.87581 116.300449 288.40575 116.300449 
C 287.93569 116.300449 287.484819 116.487206 287.152436 116.819589 
C 286.820053 117.151972 286.633296 117.602843 286.633296 118.072903 
C 286.633296 118.542963 286.820053 118.993835 287.152436 119.326217 
C 287.484819 119.6586 287.93569 119.845357 288.40575 119.845357 
z
" style="fill:#57db5f;stroke:#000000;stroke-width:0.886227;"/>
    <path clip-path="url(#pa962c8c988)" d="M 288.40575 93.019551 
C 288.87581 93.019551 289.326681 92.832794 289.659064 92.500411 
C 289.991447 92.168028 290.178204 91.717157 290.178204 91.247097 
C 290.178204 90.777037 289.991447 90.326165 289.659064 89.993783 
C 289.326681 89.6614 288.87581 89.474643 288.40575 89.474643 
C 287.93569 89.474643 287.484819 89.6614 287.152436 89.993783 
C 286.820053 90.326165 286.633296 90.777037 286.633296 91.247097 
C 286.633296 91.717157 286.820053 92.168028 287.152436 92.500411 
C 287.484819 92.832794 287.93569 93.019551 288.40575 93.019551 
z
" style="fill:#57d3db;stroke:#000000;stroke-width:0.886227;"/>
    <path clip-path="url(#pa962c8c988)" d="M 288.40575 66.193744 
C 288.87581 66.193744 289.326681 66.006987 289.659064 65.674604 
C 289.991447 65.342222 290.178204 64.891351 290.178204 64.42129 
C 290.178204 63.95123 289.991447 63.500359 289.659064 63.167976 
C 289.326681 62.835593 288.87581 62.648836 288.40575 62.648836 
C 287.93569 62.648836 287.484819 62.835593 287.152436 63.167976 
C 286.820053 63.500359 286.633296 63.95123 286.633296 64.42129 
C 286.633296 64.891351 286.820053 65.342222 287.152436 65.674604 
C 287.484819 66.006987 287.93569 66.193744 288.40575 66.193744 
z
" style="fill:#5f57db;stroke:#000000;stroke-width:0.886227;"/>
    <path clip-path="url(#pa962c8c988)" d="M 288.40575 39.367938 
C 288.87581 39.367938 289.326681 39.181181 289.659064 38.848798 
C 289.991447 38.516415 290.178204 38.065544 290.178204 37.595484 
C 290.178204 37.125424 289.991447 36.674553 289.659064 36.34217 
C 289.326681 36.009787 288.87581 35.82303 288.40575 35.82303 
C 287.93569 35.82303 287.484819 36.009787 287.152436 36.34217 
C 286.820053 36.674553 286.633296 37.125424 286.633296 37.595484 
C 286.633296 38.065544 286.820053 38.516415 287.152436 38.848798 
C 287.484819 39.181181 287.93569 39.367938 288.40575 39.367938 
z
" style="fill:#db57d3;stroke:#000000;stroke-width:0.886227;"/>
   </g>
   <g id="patch_5">
    <path d="M 185.08575 21.5 
L 293.32575 21.5 
L 293.32575 7.2 
L 185.08575 7.2 
z
" style="fill:#cccccc;stroke:#7f7f7f;stroke-linejoin:miter;"/>
   </g>
   <g id="text_18">
    <!-- precision -->
    <defs>
     <path d="M 18.109375 8.203125 
L 18.109375 -20.796875 
L 9.078125 -20.796875 
L 9.078125 54.6875 
L 18.109375 54.6875 
L 18.109375 46.390625 
Q 20.953125 51.265625 25.265625 53.625 
Q 29.59375 56 35.59375 56 
Q 45.5625 56 51.78125 48.09375 
Q 58.015625 40.1875 58.015625 27.296875 
Q 58.015625 14.40625 51.78125 6.484375 
Q 45.5625 -1.421875 35.59375 -1.421875 
Q 29.59375 -1.421875 25.265625 0.953125 
Q 20.953125 3.328125 18.109375 8.203125 
z
M 48.6875 27.296875 
Q 48.6875 37.203125 44.609375 42.84375 
Q 40.53125 48.484375 33.40625 48.484375 
Q 26.265625 48.484375 22.1875 42.84375 
Q 18.109375 37.203125 18.109375 27.296875 
Q 18.109375 17.390625 22.1875 11.75 
Q 26.265625 6.109375 33.40625 6.109375 
Q 40.53125 6.109375 44.609375 11.75 
Q 48.6875 17.390625 48.6875 27.296875 
z
" id="DejaVuSans-112"/>
     <path d="M 54.890625 33.015625 
L 54.890625 0 
L 45.90625 0 
L 45.90625 32.71875 
Q 45.90625 40.484375 42.875 44.328125 
Q 39.84375 48.1875 33.796875 48.1875 
Q 26.515625 48.1875 22.3125 43.546875 
Q 18.109375 38.921875 18.109375 30.90625 
L 18.109375 0 
L 9.078125 0 
L 9.078125 54.6875 
L 18.109375 54.6875 
L 18.109375 46.1875 
Q 21.34375 51.125 25.703125 53.5625 
Q 30.078125 56 35.796875 56 
Q 45.21875 56 50.046875 50.171875 
Q 54.890625 44.34375 54.890625 33.015625 
z
" id="DejaVuSans-110"/>
    </defs>
    <g style="fill:#1a1a1a;" transform="translate(219.260687 16.77825)scale(0.088 -0.088)">
     <use xlink:href="#DejaVuSans-112"/>
     <use x="63.476562" xlink:href="#DejaVuSans-114"/>
     <use x="104.558594" xlink:href="#DejaVuSans-101"/>
     <use x="166.082031" xlink:href="#DejaVuSans-99"/>
     <use x="221.0625" xlink:href="#DejaVuSans-105"/>
     <use x="248.845703" xlink:href="#DejaVuSans-115"/>
     <use x="300.945312" xlink:href="#DejaVuSans-105"/>
     <use x="328.728516" xlink:href="#DejaVuSans-111"/>
     <use x="389.910156" xlink:href="#DejaVuSans-110"/>
    </g>
   </g>
  </g>
  <g id="axes_3">
   <g id="patch_6">
    <path d="M 298.36575 187.82 
L 406.60575 187.82 
L 406.60575 21.5 
L 298.36575 21.5 
z
" style="fill:#ffffff;stroke:#7f7f7f;stroke-linejoin:miter;"/>
   </g>
   <g id="matplotlib.axis_5">
    <g id="xtick_19">
     <g id="line2d_55">
      <path clip-path="url(#ped61e3a084)" d="M 303.28575 187.82 
L 303.28575 21.5 
" style="fill:none;stroke:#e5e5e5;stroke-linecap:square;stroke-width:0.8;"/>
     </g>
     <g id="line2d_56">
      <path d="M 303.28575 187.82 
" style="fill:none;stroke:#000000;stroke-linecap:square;stroke-width:1.5;"/>
      <g>
       <use style="stroke:#000000;" x="303.28575" xlink:href="#m2be389e24f" y="187.82"/>
      </g>
     </g>
     <g id="text_19">
      <!-- 0 -->
      <g style="fill:#4d4d4d;" transform="translate(300.48625 199.456625)scale(0.088 -0.088)">
       <use xlink:href="#DejaVuSans-48"/>
      </g>
     </g>
    </g>
    <g id="xtick_20">
     <g id="line2d_57">
      <path clip-path="url(#ped61e3a084)" d="M 327.88575 187.82 
L 327.88575 21.5 
" style="fill:none;stroke:#e5e5e5;stroke-linecap:square;stroke-width:0.8;"/>
     </g>
     <g id="line2d_58">
      <path d="M 327.88575 187.82 
" style="fill:none;stroke:#000000;stroke-linecap:square;stroke-width:1.5;"/>
      <g>
       <use style="stroke:#000000;" x="327.88575" xlink:href="#m2be389e24f" y="187.82"/>
      </g>
     </g>
     <g id="text_20">
      <!-- 0.25 -->
      <g style="fill:#4d4d4d;" transform="translate(318.088875 199.456625)scale(0.088 -0.088)">
       <use xlink:href="#DejaVuSans-48"/>
       <use x="63.623047" xlink:href="#DejaVuSans-46"/>
       <use x="95.410156" xlink:href="#DejaVuSans-50"/>
       <use x="159.033203" xlink:href="#DejaVuSans-53"/>
      </g>
     </g>
    </g>
    <g id="xtick_21">
     <g id="line2d_59">
      <path clip-path="url(#ped61e3a084)" d="M 352.48575 187.82 
L 352.48575 21.5 
" style="fill:none;stroke:#e5e5e5;stroke-linecap:square;stroke-width:0.8;"/>
     </g>
     <g id="line2d_60">
      <path d="M 352.48575 187.82 
" style="fill:none;stroke:#000000;stroke-linecap:square;stroke-width:1.5;"/>
      <g>
       <use style="stroke:#000000;" x="352.48575" xlink:href="#m2be389e24f" y="187.82"/>
      </g>
     </g>
     <g id="text_21">
      <!-- 0.50 -->
      <g style="fill:#4d4d4d;" transform="translate(342.688875 199.456625)scale(0.088 -0.088)">
       <use xlink:href="#DejaVuSans-48"/>
       <use x="63.623047" xlink:href="#DejaVuSans-46"/>
       <use x="95.410156" xlink:href="#DejaVuSans-53"/>
       <use x="159.033203" xlink:href="#DejaVuSans-48"/>
      </g>
     </g>
    </g>
    <g id="xtick_22">
     <g id="line2d_61">
      <path clip-path="url(#ped61e3a084)" d="M 377.08575 187.82 
L 377.08575 21.5 
" style="fill:none;stroke:#e5e5e5;stroke-linecap:square;stroke-width:0.8;"/>
     </g>
     <g id="line2d_62">
      <path d="M 377.08575 187.82 
" style="fill:none;stroke:#000000;stroke-linecap:square;stroke-width:1.5;"/>
      <g>
       <use style="stroke:#000000;" x="377.08575" xlink:href="#m2be389e24f" y="187.82"/>
      </g>
     </g>
     <g id="text_22">
      <!-- 0.75 -->
      <g style="fill:#4d4d4d;" transform="translate(367.288875 199.456625)scale(0.088 -0.088)">
       <use xlink:href="#DejaVuSans-48"/>
       <use x="63.623047" xlink:href="#DejaVuSans-46"/>
       <use x="95.410156" xlink:href="#DejaVuSans-55"/>
       <use x="159.033203" xlink:href="#DejaVuSans-53"/>
      </g>
     </g>
    </g>
    <g id="xtick_23">
     <g id="line2d_63">
      <path clip-path="url(#ped61e3a084)" d="M 401.68575 187.82 
L 401.68575 21.5 
" style="fill:none;stroke:#e5e5e5;stroke-linecap:square;stroke-width:0.8;"/>
     </g>
     <g id="line2d_64">
      <path d="M 401.68575 187.82 
" style="fill:none;stroke:#000000;stroke-linecap:square;stroke-width:1.5;"/>
      <g>
       <use style="stroke:#000000;" x="401.68575" xlink:href="#m2be389e24f" y="187.82"/>
      </g>
     </g>
     <g id="text_23">
      <!-- 1 -->
      <g style="fill:#4d4d4d;" transform="translate(398.88625 199.456625)scale(0.088 -0.088)">
       <use xlink:href="#DejaVuSans-49"/>
      </g>
     </g>
    </g>
    <g id="xtick_24">
     <g id="line2d_65">
      <path clip-path="url(#ped61e3a084)" d="M 315.58575 187.82 
L 315.58575 21.5 
" style="fill:none;stroke:#fafafa;stroke-linecap:square;"/>
     </g>
     <g id="line2d_66">
      <path d="M 315.58575 187.82 
" style="fill:none;stroke:#000000;stroke-linecap:square;stroke-width:1.5;"/>
      <g>
       <use style="stroke:#000000;" x="315.58575" xlink:href="#mb2fe4da264" y="187.82"/>
      </g>
     </g>
    </g>
    <g id="xtick_25">
     <g id="line2d_67">
      <path clip-path="url(#ped61e3a084)" d="M 340.18575 187.82 
L 340.18575 21.5 
" style="fill:none;stroke:#fafafa;stroke-linecap:square;"/>
     </g>
     <g id="line2d_68">
      <path d="M 340.18575 187.82 
" style="fill:none;stroke:#000000;stroke-linecap:square;stroke-width:1.5;"/>
      <g>
       <use style="stroke:#000000;" x="340.18575" xlink:href="#mb2fe4da264" y="187.82"/>
      </g>
     </g>
    </g>
    <g id="xtick_26">
     <g id="line2d_69">
      <path clip-path="url(#ped61e3a084)" d="M 364.78575 187.82 
L 364.78575 21.5 
" style="fill:none;stroke:#fafafa;stroke-linecap:square;"/>
     </g>
     <g id="line2d_70">
      <path d="M 364.78575 187.82 
" style="fill:none;stroke:#000000;stroke-linecap:square;stroke-width:1.5;"/>
      <g>
       <use style="stroke:#000000;" x="364.78575" xlink:href="#mb2fe4da264" y="187.82"/>
      </g>
     </g>
    </g>
    <g id="xtick_27">
     <g id="line2d_71">
      <path clip-path="url(#ped61e3a084)" d="M 389.38575 187.82 
L 389.38575 21.5 
" style="fill:none;stroke:#fafafa;stroke-linecap:square;"/>
     </g>
     <g id="line2d_72">
      <path d="M 389.38575 187.82 
" style="fill:none;stroke:#000000;stroke-linecap:square;stroke-width:1.5;"/>
      <g>
       <use style="stroke:#000000;" x="389.38575" xlink:href="#mb2fe4da264" y="187.82"/>
      </g>
     </g>
    </g>
   </g>
   <g id="matplotlib.axis_6">
    <g id="ytick_13">
     <g id="line2d_73">
      <path clip-path="url(#ped61e3a084)" d="M 298.36575 171.724516 
L 406.60575 171.724516 
" style="fill:none;stroke:#e5e5e5;stroke-linecap:square;stroke-width:0.8;"/>
     </g>
    </g>
    <g id="ytick_14">
     <g id="line2d_74">
      <path clip-path="url(#ped61e3a084)" d="M 298.36575 144.89871 
L 406.60575 144.89871 
" style="fill:none;stroke:#e5e5e5;stroke-linecap:square;stroke-width:0.8;"/>
     </g>
    </g>
    <g id="ytick_15">
     <g id="line2d_75">
      <path clip-path="url(#ped61e3a084)" d="M 298.36575 118.072903 
L 406.60575 118.072903 
" style="fill:none;stroke:#e5e5e5;stroke-linecap:square;stroke-width:0.8;"/>
     </g>
    </g>
    <g id="ytick_16">
     <g id="line2d_76">
      <path clip-path="url(#ped61e3a084)" d="M 298.36575 91.247097 
L 406.60575 91.247097 
" style="fill:none;stroke:#e5e5e5;stroke-linecap:square;stroke-width:0.8;"/>
     </g>
    </g>
    <g id="ytick_17">
     <g id="line2d_77">
      <path clip-path="url(#ped61e3a084)" d="M 298.36575 64.42129 
L 406.60575 64.42129 
" style="fill:none;stroke:#e5e5e5;stroke-linecap:square;stroke-width:0.8;"/>
     </g>
    </g>
    <g id="ytick_18">
     <g id="line2d_78">
      <path clip-path="url(#ped61e3a084)" d="M 298.36575 37.595484 
L 406.60575 37.595484 
" style="fill:none;stroke:#e5e5e5;stroke-linecap:square;stroke-width:0.8;"/>
     </g>
    </g>
   </g>
   <g id="PathCollection_3">
    <path clip-path="url(#ped61e3a084)" d="M 401.68575 173.49697 
C 402.15581 173.49697 402.606681 173.310213 402.939064 172.97783 
C 403.271447 172.645447 403.458204 172.194576 403.458204 171.724516 
C 403.458204 171.254456 403.271447 170.803585 402.939064 170.471202 
C 402.606681 170.138819 402.15581 169.952062 401.68575 169.952062 
C 401.21569 169.952062 400.764819 170.138819 400.432436 170.471202 
C 400.100053 170.803585 399.913296 171.254456 399.913296 171.724516 
C 399.913296 172.194576 400.100053 172.645447 400.432436 172.97783 
C 400.764819 173.310213 401.21569 173.49697 401.68575 173.49697 
z
" style="fill:#db5f57;stroke:#000000;stroke-width:0.886227;"/>
    <path clip-path="url(#ped61e3a084)" d="M 401.68575 146.671164 
C 402.15581 146.671164 402.606681 146.484407 402.939064 146.152024 
C 403.271447 145.819641 403.458204 145.36877 403.458204 144.89871 
C 403.458204 144.428649 403.271447 143.977778 402.939064 143.645396 
C 402.606681 143.313013 402.15581 143.126256 401.68575 143.126256 
C 401.21569 143.126256 400.764819 143.313013 400.432436 143.645396 
C 400.100053 143.977778 399.913296 144.428649 399.913296 144.89871 
C 399.913296 145.36877 400.100053 145.819641 400.432436 146.152024 
C 400.764819 146.484407 401.21569 146.671164 401.68575 146.671164 
z
" style="fill:#d3db57;stroke:#000000;stroke-width:0.886227;"/>
    <path clip-path="url(#ped61e3a084)" d="M 401.68575 119.845357 
C 402.15581 119.845357 402.606681 119.6586 402.939064 119.326217 
C 403.271447 118.993835 403.458204 118.542963 403.458204 118.072903 
C 403.458204 117.602843 403.271447 117.151972 402.939064 116.819589 
C 402.606681 116.487206 402.15581 116.300449 401.68575 116.300449 
C 401.21569 116.300449 400.764819 116.487206 400.432436 116.819589 
C 400.100053 117.151972 399.913296 117.602843 399.913296 118.072903 
C 399.913296 118.542963 400.100053 118.993835 400.432436 119.326217 
C 400.764819 119.6586 401.21569 119.845357 401.68575 119.845357 
z
" style="fill:#57db5f;stroke:#000000;stroke-width:0.886227;"/>
    <path clip-path="url(#ped61e3a084)" d="M 401.68575 93.019551 
C 402.15581 93.019551 402.606681 92.832794 402.939064 92.500411 
C 403.271447 92.168028 403.458204 91.717157 403.458204 91.247097 
C 403.458204 90.777037 403.271447 90.326165 402.939064 89.993783 
C 402.606681 89.6614 402.15581 89.474643 401.68575 89.474643 
C 401.21569 89.474643 400.764819 89.6614 400.432436 89.993783 
C 400.100053 90.326165 399.913296 90.777037 399.913296 91.247097 
C 399.913296 91.717157 400.100053 92.168028 400.432436 92.500411 
C 400.764819 92.832794 401.21569 93.019551 401.68575 93.019551 
z
" style="fill:#57d3db;stroke:#000000;stroke-width:0.886227;"/>
    <path clip-path="url(#ped61e3a084)" d="M 401.68575 66.193744 
C 402.15581 66.193744 402.606681 66.006987 402.939064 65.674604 
C 403.271447 65.342222 403.458204 64.891351 403.458204 64.42129 
C 403.458204 63.95123 403.271447 63.500359 402.939064 63.167976 
C 402.606681 62.835593 402.15581 62.648836 401.68575 62.648836 
C 401.21569 62.648836 400.764819 62.835593 400.432436 63.167976 
C 400.100053 63.500359 399.913296 63.95123 399.913296 64.42129 
C 399.913296 64.891351 400.100053 65.342222 400.432436 65.674604 
C 400.764819 66.006987 401.21569 66.193744 401.68575 66.193744 
z
" style="fill:#5f57db;stroke:#000000;stroke-width:0.886227;"/>
    <path clip-path="url(#ped61e3a084)" d="M 401.68575 39.367938 
C 402.15581 39.367938 402.606681 39.181181 402.939064 38.848798 
C 403.271447 38.516415 403.458204 38.065544 403.458204 37.595484 
C 403.458204 37.125424 403.271447 36.674553 402.939064 36.34217 
C 402.606681 36.009787 402.15581 35.82303 401.68575 35.82303 
C 401.21569 35.82303 400.764819 36.009787 400.432436 36.34217 
C 400.100053 36.674553 399.913296 37.125424 399.913296 37.595484 
C 399.913296 38.065544 400.100053 38.516415 400.432436 38.848798 
C 400.764819 39.181181 401.21569 39.367938 401.68575 39.367938 
z
" style="fill:#db57d3;stroke:#000000;stroke-width:0.886227;"/>
   </g>
   <g id="patch_7">
    <path d="M 298.36575 21.5 
L 406.60575 21.5 
L 406.60575 7.2 
L 298.36575 7.2 
z
" style="fill:#cccccc;stroke:#7f7f7f;stroke-linejoin:miter;"/>
   </g>
   <g id="text_24">
    <!-- recall -->
    <defs>
     <path d="M 9.421875 75.984375 
L 18.40625 75.984375 
L 18.40625 0 
L 9.421875 0 
z
" id="DejaVuSans-108"/>
    </defs>
    <g style="fill:#1a1a1a;" transform="translate(340.4105 16.77825)scale(0.088 -0.088)">
     <use xlink:href="#DejaVuSans-114"/>
     <use x="41.082031" xlink:href="#DejaVuSans-101"/>
     <use x="102.605469" xlink:href="#DejaVuSans-99"/>
     <use x="157.585938" xlink:href="#DejaVuSans-97"/>
     <use x="218.865234" xlink:href="#DejaVuSans-108"/>
     <use x="246.648438" xlink:href="#DejaVuSans-108"/>
    </g>
   </g>
  </g>
 </g>
 <defs>
  <clipPath id="p81d1e0a33f">
   <rect height="166.32" width="108.24" x="71.80575" y="21.5"/>
  </clipPath>
  <clipPath id="pa962c8c988">
   <rect height="166.32" width="108.24" x="185.08575" y="21.5"/>
  </clipPath>
  <clipPath id="ped61e3a084">
   <rect height="166.32" width="108.24" x="298.36575" y="21.5"/>
  </clipPath>
 </defs>
</svg>
