<?xml version="1.0" encoding="utf-8" standalone="no"?>
<!DOCTYPE svg PUBLIC "-//W3C//DTD SVG 1.1//EN"
  "http://www.w3.org/Graphics/SVG/1.1/DTD/svg11.dtd">
<!-- Created with matplotlib (https://matplotlib.org/) -->
<svg height="208.48675pt" version="1.1" viewBox="0 0 413.80575 208.48675" width="413.80575pt" xmlns="http://www.w3.org/2000/svg" xmlns:xlink="http://www.w3.org/1999/xlink">
 <defs>
  <style type="text/css">
*{stroke-linecap:butt;stroke-linejoin:round;}
  </style>
 </defs>
 <g id="figure_1">
  <g id="patch_1">
   <path d="M 0 208.48675 
L 413.80575 208.48675 
L 413.80575 0 
L 0 0 
z
" style="fill:#ffffff;stroke:#ffffff;stroke-linejoin:miter;"/>
  </g>
  <g id="axes_1">
   <g id="patch_2">
    <path d="M 71.80575 187.82 
L 180.04575 187.82 
L 180.04575 21.5 
L 71.80575 21.5 
z
" style="fill:#ffffff;stroke:#7f7f7f;stroke-linejoin:miter;"/>
   </g>
   <g id="matplotlib.axis_1">
    <g id="xtick_1">
     <g id="line2d_1">
      <path clip-path="url(#p60b69d18e4)" d="M 76.72575 187.82 
L 76.72575 21.5 
" style="fill:none;stroke:#e5e5e5;stroke-width:0.8;"/>
     </g>
     <g id="line2d_2">
      <path d="M 76.72575 187.82 
" style="fill:none;stroke:#000000;stroke-width:1.5;"/>
      <defs>
       <path d="M 0 0 
L 0 2.75 
" id="mb86e1f3851" style="stroke:#000000;"/>
      </defs>
      <g>
       <use style="stroke:#000000;" x="76.72575" xlink:href="#mb86e1f3851" y="187.82"/>
      </g>
     </g>
     <g id="text_1">
      <!-- 0 -->
      <defs>
       <path d="M 31.78125 66.40625 
Q 24.171875 66.40625 20.328125 58.90625 
Q 16.5 51.421875 16.5 36.375 
Q 16.5 21.390625 20.328125 13.890625 
Q 24.171875 6.390625 31.78125 6.390625 
Q 39.453125 6.390625 43.28125 13.890625 
Q 47.125 21.390625 47.125 36.375 
Q 47.125 51.421875 43.28125 58.90625 
Q 39.453125 66.40625 31.78125 66.40625 
z
M 31.78125 74.21875 
Q 44.046875 74.21875 50.515625 64.515625 
Q 56.984375 54.828125 56.984375 36.375 
Q 56.984375 17.96875 50.515625 8.265625 
Q 44.046875 -1.421875 31.78125 -1.421875 
Q 19.53125 -1.421875 13.0625 8.265625 
Q 6.59375 17.96875 6.59375 36.375 
Q 6.59375 54.828125 13.0625 64.515625 
Q 19.53125 74.21875 31.78125 74.21875 
z
" id="DejaVuSans-48"/>
      </defs>
      <g style="fill:#4d4d4d;" transform="translate(73.92625 199.456625)scale(0.088 -0.088)">
       <use xlink:href="#DejaVuSans-48"/>
      </g>
     </g>
    </g>
    <g id="xtick_2">
     <g id="line2d_3">
      <path clip-path="url(#p60b69d18e4)" d="M 101.32575 187.82 
L 101.32575 21.5 
" style="fill:none;stroke:#e5e5e5;stroke-width:0.8;"/>
     </g>
     <g id="line2d_4">
      <path d="M 101.32575 187.82 
" style="fill:none;stroke:#000000;stroke-width:1.5;"/>
      <g>
       <use style="stroke:#000000;" x="101.32575" xlink:href="#mb86e1f3851" y="187.82"/>
      </g>
     </g>
     <g id="text_2">
      <!-- 0.25 -->
      <defs>
       <path d="M 10.6875 12.40625 
L 21 12.40625 
L 21 0 
L 10.6875 0 
z
" id="DejaVuSans-46"/>
       <path d="M 19.1875 8.296875 
L 53.609375 8.296875 
L 53.609375 0 
L 7.328125 0 
L 7.328125 8.296875 
Q 12.9375 14.109375 22.625 23.890625 
Q 32.328125 33.6875 34.8125 36.53125 
Q 39.546875 41.84375 41.421875 45.53125 
Q 43.3125 49.21875 43.3125 52.78125 
Q 43.3125 58.59375 39.234375 62.25 
Q 35.15625 65.921875 28.609375 65.921875 
Q 23.96875 65.921875 18.8125 64.3125 
Q 13.671875 62.703125 7.8125 59.421875 
L 7.8125 69.390625 
Q 13.765625 71.78125 18.9375 73 
Q 24.125 74.21875 28.421875 74.21875 
Q 39.75 74.21875 46.484375 68.546875 
Q 53.21875 62.890625 53.21875 53.421875 
Q 53.21875 48.921875 51.53125 44.890625 
Q 49.859375 40.875 45.40625 35.40625 
Q 44.1875 33.984375 37.640625 27.21875 
Q 31.109375 20.453125 19.1875 8.296875 
z
" id="DejaVuSans-50"/>
       <path d="M 10.796875 72.90625 
L 49.515625 72.90625 
L 49.515625 64.59375 
L 19.828125 64.59375 
L 19.828125 46.734375 
Q 21.96875 47.46875 24.109375 47.828125 
Q 26.265625 48.1875 28.421875 48.1875 
Q 40.625 48.1875 47.75 41.5 
Q 54.890625 34.8125 54.890625 23.390625 
Q 54.890625 11.625 47.5625 5.09375 
Q 40.234375 -1.421875 26.90625 -1.421875 
Q 22.3125 -1.421875 17.546875 -0.640625 
Q 12.796875 0.140625 7.71875 1.703125 
L 7.71875 11.625 
Q 12.109375 9.234375 16.796875 8.0625 
Q 21.484375 6.890625 26.703125 6.890625 
Q 35.15625 6.890625 40.078125 11.328125 
Q 45.015625 15.765625 45.015625 23.390625 
Q 45.015625 31 40.078125 35.4375 
Q 35.15625 39.890625 26.703125 39.890625 
Q 22.75 39.890625 18.8125 39.015625 
Q 14.890625 38.140625 10.796875 36.28125 
z
" id="DejaVuSans-53"/>
      </defs>
      <g style="fill:#4d4d4d;" transform="translate(91.528875 199.456625)scale(0.088 -0.088)">
       <use xlink:href="#DejaVuSans-48"/>
       <use x="63.623047" xlink:href="#DejaVuSans-46"/>
       <use x="95.410156" xlink:href="#DejaVuSans-50"/>
       <use x="159.033203" xlink:href="#DejaVuSans-53"/>
      </g>
     </g>
    </g>
    <g id="xtick_3">
     <g id="line2d_5">
      <path clip-path="url(#p60b69d18e4)" d="M 125.92575 187.82 
L 125.92575 21.5 
" style="fill:none;stroke:#e5e5e5;stroke-width:0.8;"/>
     </g>
     <g id="line2d_6">
      <path d="M 125.92575 187.82 
" style="fill:none;stroke:#000000;stroke-width:1.5;"/>
      <g>
       <use style="stroke:#000000;" x="125.92575" xlink:href="#mb86e1f3851" y="187.82"/>
      </g>
     </g>
     <g id="text_3">
      <!-- 0.50 -->
      <g style="fill:#4d4d4d;" transform="translate(116.128875 199.456625)scale(0.088 -0.088)">
       <use xlink:href="#DejaVuSans-48"/>
       <use x="63.623047" xlink:href="#DejaVuSans-46"/>
       <use x="95.410156" xlink:href="#DejaVuSans-53"/>
       <use x="159.033203" xlink:href="#DejaVuSans-48"/>
      </g>
     </g>
    </g>
    <g id="xtick_4">
     <g id="line2d_7">
      <path clip-path="url(#p60b69d18e4)" d="M 150.52575 187.82 
L 150.52575 21.5 
" style="fill:none;stroke:#e5e5e5;stroke-width:0.8;"/>
     </g>
     <g id="line2d_8">
      <path d="M 150.52575 187.82 
" style="fill:none;stroke:#000000;stroke-width:1.5;"/>
      <g>
       <use style="stroke:#000000;" x="150.52575" xlink:href="#mb86e1f3851" y="187.82"/>
      </g>
     </g>
     <g id="text_4">
      <!-- 0.75 -->
      <defs>
       <path d="M 8.203125 72.90625 
L 55.078125 72.90625 
L 55.078125 68.703125 
L 28.609375 0 
L 18.3125 0 
L 43.21875 64.59375 
L 8.203125 64.59375 
z
" id="DejaVuSans-55"/>
      </defs>
      <g style="fill:#4d4d4d;" transform="translate(140.728875 199.456625)scale(0.088 -0.088)">
       <use xlink:href="#DejaVuSans-48"/>
       <use x="63.623047" xlink:href="#DejaVuSans-46"/>
       <use x="95.410156" xlink:href="#DejaVuSans-55"/>
       <use x="159.033203" xlink:href="#DejaVuSans-53"/>
      </g>
     </g>
    </g>
    <g id="xtick_5">
     <g id="line2d_9">
      <path clip-path="url(#p60b69d18e4)" d="M 175.12575 187.82 
L 175.12575 21.5 
" style="fill:none;stroke:#e5e5e5;stroke-width:0.8;"/>
     </g>
     <g id="line2d_10">
      <path d="M 175.12575 187.82 
" style="fill:none;stroke:#000000;stroke-width:1.5;"/>
      <g>
       <use style="stroke:#000000;" x="175.12575" xlink:href="#mb86e1f3851" y="187.82"/>
      </g>
     </g>
     <g id="text_5">
      <!-- 1 -->
      <defs>
       <path d="M 12.40625 8.296875 
L 28.515625 8.296875 
L 28.515625 63.921875 
L 10.984375 60.40625 
L 10.984375 69.390625 
L 28.421875 72.90625 
L 38.28125 72.90625 
L 38.28125 8.296875 
L 54.390625 8.296875 
L 54.390625 0 
L 12.40625 0 
z
" id="DejaVuSans-49"/>
      </defs>
      <g style="fill:#4d4d4d;" transform="translate(172.32625 199.456625)scale(0.088 -0.088)">
       <use xlink:href="#DejaVuSans-49"/>
      </g>
     </g>
    </g>
    <g id="xtick_6">
     <g id="line2d_11">
      <path clip-path="url(#p60b69d18e4)" d="M 89.02575 187.82 
L 89.02575 21.5 
" style="fill:none;stroke:#fafafa;"/>
     </g>
     <g id="line2d_12">
      <path d="M 89.02575 187.82 
" style="fill:none;stroke:#000000;stroke-width:1.5;"/>
      <defs>
       <path d="M 0 0 
L 0 1.375 
" id="m3a9cb3f2e3" style="stroke:#000000;"/>
      </defs>
      <g>
       <use style="stroke:#000000;" x="89.02575" xlink:href="#m3a9cb3f2e3" y="187.82"/>
      </g>
     </g>
    </g>
    <g id="xtick_7">
     <g id="line2d_13">
      <path clip-path="url(#p60b69d18e4)" d="M 113.62575 187.82 
L 113.62575 21.5 
" style="fill:none;stroke:#fafafa;"/>
     </g>
     <g id="line2d_14">
      <path d="M 113.62575 187.82 
" style="fill:none;stroke:#000000;stroke-width:1.5;"/>
      <g>
       <use style="stroke:#000000;" x="113.62575" xlink:href="#m3a9cb3f2e3" y="187.82"/>
      </g>
     </g>
    </g>
    <g id="xtick_8">
     <g id="line2d_15">
      <path clip-path="url(#p60b69d18e4)" d="M 138.22575 187.82 
L 138.22575 21.5 
" style="fill:none;stroke:#fafafa;"/>
     </g>
     <g id="line2d_16">
      <path d="M 138.22575 187.82 
" style="fill:none;stroke:#000000;stroke-width:1.5;"/>
      <g>
       <use style="stroke:#000000;" x="138.22575" xlink:href="#m3a9cb3f2e3" y="187.82"/>
      </g>
     </g>
    </g>
    <g id="xtick_9">
     <g id="line2d_17">
      <path clip-path="url(#p60b69d18e4)" d="M 162.82575 187.82 
L 162.82575 21.5 
" style="fill:none;stroke:#fafafa;"/>
     </g>
     <g id="line2d_18">
      <path d="M 162.82575 187.82 
" style="fill:none;stroke:#000000;stroke-width:1.5;"/>
      <g>
       <use style="stroke:#000000;" x="162.82575" xlink:href="#m3a9cb3f2e3" y="187.82"/>
      </g>
     </g>
    </g>
   </g>
   <g id="matplotlib.axis_2">
    <g id="ytick_1">
     <g id="line2d_19">
      <path clip-path="url(#p60b69d18e4)" d="M 71.80575 178.036471 
L 180.04575 178.036471 
" style="fill:none;stroke:#e5e5e5;stroke-width:0.8;"/>
     </g>
     <g id="line2d_20">
      <path d="M 71.80575 178.036471 
" style="fill:none;stroke:#000000;stroke-width:1.5;"/>
      <defs>
       <path d="M 0 0 
L -2.75 0 
" id="mad5f3dea70" style="stroke:#000000;"/>
      </defs>
      <g>
       <use style="stroke:#000000;" x="71.80575" xlink:href="#mad5f3dea70" y="178.036471"/>
      </g>
     </g>
     <g id="text_6">
      <!-- Subject1 -->
      <defs>
       <path d="M 53.515625 70.515625 
L 53.515625 60.890625 
Q 47.90625 63.578125 42.921875 64.890625 
Q 37.9375 66.21875 33.296875 66.21875 
Q 25.25 66.21875 20.875 63.09375 
Q 16.5 59.96875 16.5 54.203125 
Q 16.5 49.359375 19.40625 46.890625 
Q 22.3125 44.4375 30.421875 42.921875 
L 36.375 41.703125 
Q 47.40625 39.59375 52.65625 34.296875 
Q 57.90625 29 57.90625 20.125 
Q 57.90625 9.515625 50.796875 4.046875 
Q 43.703125 -1.421875 29.984375 -1.421875 
Q 24.8125 -1.421875 18.96875 -0.25 
Q 13.140625 0.921875 6.890625 3.21875 
L 6.890625 13.375 
Q 12.890625 10.015625 18.65625 8.296875 
Q 24.421875 6.59375 29.984375 6.59375 
Q 38.421875 6.59375 43.015625 9.90625 
Q 47.609375 13.234375 47.609375 19.390625 
Q 47.609375 24.75 44.3125 27.78125 
Q 41.015625 30.8125 33.5 32.328125 
L 27.484375 33.5 
Q 16.453125 35.6875 11.515625 40.375 
Q 6.59375 45.0625 6.59375 53.421875 
Q 6.59375 63.09375 13.40625 68.65625 
Q 20.21875 74.21875 32.171875 74.21875 
Q 37.3125 74.21875 42.625 73.28125 
Q 47.953125 72.359375 53.515625 70.515625 
z
" id="DejaVuSans-83"/>
       <path d="M 8.5 21.578125 
L 8.5 54.6875 
L 17.484375 54.6875 
L 17.484375 21.921875 
Q 17.484375 14.15625 20.5 10.265625 
Q 23.53125 6.390625 29.59375 6.390625 
Q 36.859375 6.390625 41.078125 11.03125 
Q 45.3125 15.671875 45.3125 23.6875 
L 45.3125 54.6875 
L 54.296875 54.6875 
L 54.296875 0 
L 45.3125 0 
L 45.3125 8.40625 
Q 42.046875 3.421875 37.71875 1 
Q 33.40625 -1.421875 27.6875 -1.421875 
Q 18.265625 -1.421875 13.375 4.4375 
Q 8.5 10.296875 8.5 21.578125 
z
M 31.109375 56 
z
" id="DejaVuSans-117"/>
       <path d="M 48.6875 27.296875 
Q 48.6875 37.203125 44.609375 42.84375 
Q 40.53125 48.484375 33.40625 48.484375 
Q 26.265625 48.484375 22.1875 42.84375 
Q 18.109375 37.203125 18.109375 27.296875 
Q 18.109375 17.390625 22.1875 11.75 
Q 26.265625 6.109375 33.40625 6.109375 
Q 40.53125 6.109375 44.609375 11.75 
Q 48.6875 17.390625 48.6875 27.296875 
z
M 18.109375 46.390625 
Q 20.953125 51.265625 25.265625 53.625 
Q 29.59375 56 35.59375 56 
Q 45.5625 56 51.78125 48.09375 
Q 58.015625 40.1875 58.015625 27.296875 
Q 58.015625 14.40625 51.78125 6.484375 
Q 45.5625 -1.421875 35.59375 -1.421875 
Q 29.59375 -1.421875 25.265625 0.953125 
Q 20.953125 3.328125 18.109375 8.203125 
L 18.109375 0 
L 9.078125 0 
L 9.078125 75.984375 
L 18.109375 75.984375 
z
" id="DejaVuSans-98"/>
       <path d="M 9.421875 54.6875 
L 18.40625 54.6875 
L 18.40625 -0.984375 
Q 18.40625 -11.421875 14.421875 -16.109375 
Q 10.453125 -20.796875 1.609375 -20.796875 
L -1.8125 -20.796875 
L -1.8125 -13.1875 
L 0.59375 -13.1875 
Q 5.71875 -13.1875 7.5625 -10.8125 
Q 9.421875 -8.453125 9.421875 -0.984375 
z
M 9.421875 75.984375 
L 18.40625 75.984375 
L 18.40625 64.59375 
L 9.421875 64.59375 
z
" id="DejaVuSans-106"/>
       <path d="M 56.203125 29.59375 
L 56.203125 25.203125 
L 14.890625 25.203125 
Q 15.484375 15.921875 20.484375 11.0625 
Q 25.484375 6.203125 34.421875 6.203125 
Q 39.59375 6.203125 44.453125 7.46875 
Q 49.3125 8.734375 54.109375 11.28125 
L 54.109375 2.78125 
Q 49.265625 0.734375 44.1875 -0.34375 
Q 39.109375 -1.421875 33.890625 -1.421875 
Q 20.796875 -1.421875 13.15625 6.1875 
Q 5.515625 13.8125 5.515625 26.8125 
Q 5.515625 40.234375 12.765625 48.109375 
Q 20.015625 56 32.328125 56 
Q 43.359375 56 49.78125 48.890625 
Q 56.203125 41.796875 56.203125 29.59375 
z
M 47.21875 32.234375 
Q 47.125 39.59375 43.09375 43.984375 
Q 39.0625 48.390625 32.421875 48.390625 
Q 24.90625 48.390625 20.390625 44.140625 
Q 15.875 39.890625 15.1875 32.171875 
z
" id="DejaVuSans-101"/>
       <path d="M 48.78125 52.59375 
L 48.78125 44.1875 
Q 44.96875 46.296875 41.140625 47.34375 
Q 37.3125 48.390625 33.40625 48.390625 
Q 24.65625 48.390625 19.8125 42.84375 
Q 14.984375 37.3125 14.984375 27.296875 
Q 14.984375 17.28125 19.8125 11.734375 
Q 24.65625 6.203125 33.40625 6.203125 
Q 37.3125 6.203125 41.140625 7.25 
Q 44.96875 8.296875 48.78125 10.40625 
L 48.78125 2.09375 
Q 45.015625 0.34375 40.984375 -0.53125 
Q 36.96875 -1.421875 32.421875 -1.421875 
Q 20.0625 -1.421875 12.78125 6.34375 
Q 5.515625 14.109375 5.515625 27.296875 
Q 5.515625 40.671875 12.859375 48.328125 
Q 20.21875 56 33.015625 56 
Q 37.15625 56 41.109375 55.140625 
Q 45.0625 54.296875 48.78125 52.59375 
z
" id="DejaVuSans-99"/>
       <path d="M 18.3125 70.21875 
L 18.3125 54.6875 
L 36.8125 54.6875 
L 36.8125 47.703125 
L 18.3125 47.703125 
L 18.3125 18.015625 
Q 18.3125 11.328125 20.140625 9.421875 
Q 21.96875 7.515625 27.59375 7.515625 
L 36.8125 7.515625 
L 36.8125 0 
L 27.59375 0 
Q 17.1875 0 13.234375 3.875 
Q 9.28125 7.765625 9.28125 18.015625 
L 9.28125 47.703125 
L 2.6875 47.703125 
L 2.6875 54.6875 
L 9.28125 54.6875 
L 9.28125 70.21875 
z
" id="DejaVuSans-116"/>
      </defs>
      <g style="fill:#4d4d4d;" transform="translate(28.3585 180.464721)scale(0.088 -0.088)">
       <use xlink:href="#DejaVuSans-83"/>
       <use x="63.476562" xlink:href="#DejaVuSans-117"/>
       <use x="126.855469" xlink:href="#DejaVuSans-98"/>
       <use x="190.332031" xlink:href="#DejaVuSans-106"/>
       <use x="218.115234" xlink:href="#DejaVuSans-101"/>
       <use x="279.638672" xlink:href="#DejaVuSans-99"/>
       <use x="334.619141" xlink:href="#DejaVuSans-116"/>
       <use x="373.828125" xlink:href="#DejaVuSans-49"/>
      </g>
     </g>
    </g>
    <g id="ytick_2">
     <g id="line2d_21">
      <path clip-path="url(#p60b69d18e4)" d="M 71.80575 161.730588 
L 180.04575 161.730588 
" style="fill:none;stroke:#e5e5e5;stroke-width:0.8;"/>
     </g>
     <g id="line2d_22">
      <path d="M 71.80575 161.730588 
" style="fill:none;stroke:#000000;stroke-width:1.5;"/>
      <g>
       <use style="stroke:#000000;" x="71.80575" xlink:href="#mad5f3dea70" y="161.730588"/>
      </g>
     </g>
     <g id="text_7">
      <!-- Subject2 -->
      <g style="fill:#4d4d4d;" transform="translate(28.3585 164.158838)scale(0.088 -0.088)">
       <use xlink:href="#DejaVuSans-83"/>
       <use x="63.476562" xlink:href="#DejaVuSans-117"/>
       <use x="126.855469" xlink:href="#DejaVuSans-98"/>
       <use x="190.332031" xlink:href="#DejaVuSans-106"/>
       <use x="218.115234" xlink:href="#DejaVuSans-101"/>
       <use x="279.638672" xlink:href="#DejaVuSans-99"/>
       <use x="334.619141" xlink:href="#DejaVuSans-116"/>
       <use x="373.828125" xlink:href="#DejaVuSans-50"/>
      </g>
     </g>
    </g>
    <g id="ytick_3">
     <g id="line2d_23">
      <path clip-path="url(#p60b69d18e4)" d="M 71.80575 145.424706 
L 180.04575 145.424706 
" style="fill:none;stroke:#e5e5e5;stroke-width:0.8;"/>
     </g>
     <g id="line2d_24">
      <path d="M 71.80575 145.424706 
" style="fill:none;stroke:#000000;stroke-width:1.5;"/>
      <g>
       <use style="stroke:#000000;" x="71.80575" xlink:href="#mad5f3dea70" y="145.424706"/>
      </g>
     </g>
     <g id="text_8">
      <!-- Subject3 -->
      <defs>
       <path d="M 40.578125 39.3125 
Q 47.65625 37.796875 51.625 33 
Q 55.609375 28.21875 55.609375 21.1875 
Q 55.609375 10.40625 48.1875 4.484375 
Q 40.765625 -1.421875 27.09375 -1.421875 
Q 22.515625 -1.421875 17.65625 -0.515625 
Q 12.796875 0.390625 7.625 2.203125 
L 7.625 11.71875 
Q 11.71875 9.328125 16.59375 8.109375 
Q 21.484375 6.890625 26.8125 6.890625 
Q 36.078125 6.890625 40.9375 10.546875 
Q 45.796875 14.203125 45.796875 21.1875 
Q 45.796875 27.640625 41.28125 31.265625 
Q 36.765625 34.90625 28.71875 34.90625 
L 20.21875 34.90625 
L 20.21875 43.015625 
L 29.109375 43.015625 
Q 36.375 43.015625 40.234375 45.921875 
Q 44.09375 48.828125 44.09375 54.296875 
Q 44.09375 59.90625 40.109375 62.90625 
Q 36.140625 65.921875 28.71875 65.921875 
Q 24.65625 65.921875 20.015625 65.03125 
Q 15.375 64.15625 9.8125 62.3125 
L 9.8125 71.09375 
Q 15.4375 72.65625 20.34375 73.4375 
Q 25.25 74.21875 29.59375 74.21875 
Q 40.828125 74.21875 47.359375 69.109375 
Q 53.90625 64.015625 53.90625 55.328125 
Q 53.90625 49.265625 50.4375 45.09375 
Q 46.96875 40.921875 40.578125 39.3125 
z
" id="DejaVuSans-51"/>
      </defs>
      <g style="fill:#4d4d4d;" transform="translate(28.3585 147.852956)scale(0.088 -0.088)">
       <use xlink:href="#DejaVuSans-83"/>
       <use x="63.476562" xlink:href="#DejaVuSans-117"/>
       <use x="126.855469" xlink:href="#DejaVuSans-98"/>
       <use x="190.332031" xlink:href="#DejaVuSans-106"/>
       <use x="218.115234" xlink:href="#DejaVuSans-101"/>
       <use x="279.638672" xlink:href="#DejaVuSans-99"/>
       <use x="334.619141" xlink:href="#DejaVuSans-116"/>
       <use x="373.828125" xlink:href="#DejaVuSans-51"/>
      </g>
     </g>
    </g>
    <g id="ytick_4">
     <g id="line2d_25">
      <path clip-path="url(#p60b69d18e4)" d="M 71.80575 129.118824 
L 180.04575 129.118824 
" style="fill:none;stroke:#e5e5e5;stroke-width:0.8;"/>
     </g>
     <g id="line2d_26">
      <path d="M 71.80575 129.118824 
" style="fill:none;stroke:#000000;stroke-width:1.5;"/>
      <g>
       <use style="stroke:#000000;" x="71.80575" xlink:href="#mad5f3dea70" y="129.118824"/>
      </g>
     </g>
     <g id="text_9">
      <!-- Subject4 -->
      <defs>
       <path d="M 37.796875 64.3125 
L 12.890625 25.390625 
L 37.796875 25.390625 
z
M 35.203125 72.90625 
L 47.609375 72.90625 
L 47.609375 25.390625 
L 58.015625 25.390625 
L 58.015625 17.1875 
L 47.609375 17.1875 
L 47.609375 0 
L 37.796875 0 
L 37.796875 17.1875 
L 4.890625 17.1875 
L 4.890625 26.703125 
z
" id="DejaVuSans-52"/>
      </defs>
      <g style="fill:#4d4d4d;" transform="translate(28.3585 131.547074)scale(0.088 -0.088)">
       <use xlink:href="#DejaVuSans-83"/>
       <use x="63.476562" xlink:href="#DejaVuSans-117"/>
       <use x="126.855469" xlink:href="#DejaVuSans-98"/>
       <use x="190.332031" xlink:href="#DejaVuSans-106"/>
       <use x="218.115234" xlink:href="#DejaVuSans-101"/>
       <use x="279.638672" xlink:href="#DejaVuSans-99"/>
       <use x="334.619141" xlink:href="#DejaVuSans-116"/>
       <use x="373.828125" xlink:href="#DejaVuSans-52"/>
      </g>
     </g>
    </g>
    <g id="ytick_5">
     <g id="line2d_27">
      <path clip-path="url(#p60b69d18e4)" d="M 71.80575 112.812941 
L 180.04575 112.812941 
" style="fill:none;stroke:#e5e5e5;stroke-width:0.8;"/>
     </g>
     <g id="line2d_28">
      <path d="M 71.80575 112.812941 
" style="fill:none;stroke:#000000;stroke-width:1.5;"/>
      <g>
       <use style="stroke:#000000;" x="71.80575" xlink:href="#mad5f3dea70" y="112.812941"/>
      </g>
     </g>
     <g id="text_10">
      <!-- Subject5 -->
      <g style="fill:#4d4d4d;" transform="translate(28.3585 115.241191)scale(0.088 -0.088)">
       <use xlink:href="#DejaVuSans-83"/>
       <use x="63.476562" xlink:href="#DejaVuSans-117"/>
       <use x="126.855469" xlink:href="#DejaVuSans-98"/>
       <use x="190.332031" xlink:href="#DejaVuSans-106"/>
       <use x="218.115234" xlink:href="#DejaVuSans-101"/>
       <use x="279.638672" xlink:href="#DejaVuSans-99"/>
       <use x="334.619141" xlink:href="#DejaVuSans-116"/>
       <use x="373.828125" xlink:href="#DejaVuSans-53"/>
      </g>
     </g>
    </g>
    <g id="ytick_6">
     <g id="line2d_29">
      <path clip-path="url(#p60b69d18e4)" d="M 71.80575 96.507059 
L 180.04575 96.507059 
" style="fill:none;stroke:#e5e5e5;stroke-width:0.8;"/>
     </g>
     <g id="line2d_30">
      <path d="M 71.80575 96.507059 
" style="fill:none;stroke:#000000;stroke-width:1.5;"/>
      <g>
       <use style="stroke:#000000;" x="71.80575" xlink:href="#mad5f3dea70" y="96.507059"/>
      </g>
     </g>
     <g id="text_11">
      <!-- Subject6 -->
      <defs>
       <path d="M 33.015625 40.375 
Q 26.375 40.375 22.484375 35.828125 
Q 18.609375 31.296875 18.609375 23.390625 
Q 18.609375 15.53125 22.484375 10.953125 
Q 26.375 6.390625 33.015625 6.390625 
Q 39.65625 6.390625 43.53125 10.953125 
Q 47.40625 15.53125 47.40625 23.390625 
Q 47.40625 31.296875 43.53125 35.828125 
Q 39.65625 40.375 33.015625 40.375 
z
M 52.59375 71.296875 
L 52.59375 62.3125 
Q 48.875 64.0625 45.09375 64.984375 
Q 41.3125 65.921875 37.59375 65.921875 
Q 27.828125 65.921875 22.671875 59.328125 
Q 17.53125 52.734375 16.796875 39.40625 
Q 19.671875 43.65625 24.015625 45.921875 
Q 28.375 48.1875 33.59375 48.1875 
Q 44.578125 48.1875 50.953125 41.515625 
Q 57.328125 34.859375 57.328125 23.390625 
Q 57.328125 12.15625 50.6875 5.359375 
Q 44.046875 -1.421875 33.015625 -1.421875 
Q 20.359375 -1.421875 13.671875 8.265625 
Q 6.984375 17.96875 6.984375 36.375 
Q 6.984375 53.65625 15.1875 63.9375 
Q 23.390625 74.21875 37.203125 74.21875 
Q 40.921875 74.21875 44.703125 73.484375 
Q 48.484375 72.75 52.59375 71.296875 
z
" id="DejaVuSans-54"/>
      </defs>
      <g style="fill:#4d4d4d;" transform="translate(28.3585 98.935309)scale(0.088 -0.088)">
       <use xlink:href="#DejaVuSans-83"/>
       <use x="63.476562" xlink:href="#DejaVuSans-117"/>
       <use x="126.855469" xlink:href="#DejaVuSans-98"/>
       <use x="190.332031" xlink:href="#DejaVuSans-106"/>
       <use x="218.115234" xlink:href="#DejaVuSans-101"/>
       <use x="279.638672" xlink:href="#DejaVuSans-99"/>
       <use x="334.619141" xlink:href="#DejaVuSans-116"/>
       <use x="373.828125" xlink:href="#DejaVuSans-54"/>
      </g>
     </g>
    </g>
    <g id="ytick_7">
     <g id="line2d_31">
      <path clip-path="url(#p60b69d18e4)" d="M 71.80575 80.201176 
L 180.04575 80.201176 
" style="fill:none;stroke:#e5e5e5;stroke-width:0.8;"/>
     </g>
     <g id="line2d_32">
      <path d="M 71.80575 80.201176 
" style="fill:none;stroke:#000000;stroke-width:1.5;"/>
      <g>
       <use style="stroke:#000000;" x="71.80575" xlink:href="#mad5f3dea70" y="80.201176"/>
      </g>
     </g>
     <g id="text_12">
      <!-- Subject7 -->
      <g style="fill:#4d4d4d;" transform="translate(28.3585 82.629426)scale(0.088 -0.088)">
       <use xlink:href="#DejaVuSans-83"/>
       <use x="63.476562" xlink:href="#DejaVuSans-117"/>
       <use x="126.855469" xlink:href="#DejaVuSans-98"/>
       <use x="190.332031" xlink:href="#DejaVuSans-106"/>
       <use x="218.115234" xlink:href="#DejaVuSans-101"/>
       <use x="279.638672" xlink:href="#DejaVuSans-99"/>
       <use x="334.619141" xlink:href="#DejaVuSans-116"/>
       <use x="373.828125" xlink:href="#DejaVuSans-55"/>
      </g>
     </g>
    </g>
    <g id="ytick_8">
     <g id="line2d_33">
      <path clip-path="url(#p60b69d18e4)" d="M 71.80575 63.895294 
L 180.04575 63.895294 
" style="fill:none;stroke:#e5e5e5;stroke-width:0.8;"/>
     </g>
     <g id="line2d_34">
      <path d="M 71.80575 63.895294 
" style="fill:none;stroke:#000000;stroke-width:1.5;"/>
      <g>
       <use style="stroke:#000000;" x="71.80575" xlink:href="#mad5f3dea70" y="63.895294"/>
      </g>
     </g>
     <g id="text_13">
      <!-- accuracy -->
      <defs>
       <path d="M 34.28125 27.484375 
Q 23.390625 27.484375 19.1875 25 
Q 14.984375 22.515625 14.984375 16.5 
Q 14.984375 11.71875 18.140625 8.90625 
Q 21.296875 6.109375 26.703125 6.109375 
Q 34.1875 6.109375 38.703125 11.40625 
Q 43.21875 16.703125 43.21875 25.484375 
L 43.21875 27.484375 
z
M 52.203125 31.203125 
L 52.203125 0 
L 43.21875 0 
L 43.21875 8.296875 
Q 40.140625 3.328125 35.546875 0.953125 
Q 30.953125 -1.421875 24.3125 -1.421875 
Q 15.921875 -1.421875 10.953125 3.296875 
Q 6 8.015625 6 15.921875 
Q 6 25.140625 12.171875 29.828125 
Q 18.359375 34.515625 30.609375 34.515625 
L 43.21875 34.515625 
L 43.21875 35.40625 
Q 43.21875 41.609375 39.140625 45 
Q 35.0625 48.390625 27.6875 48.390625 
Q 23 48.390625 18.546875 47.265625 
Q 14.109375 46.140625 10.015625 43.890625 
L 10.015625 52.203125 
Q 14.9375 54.109375 19.578125 55.046875 
Q 24.21875 56 28.609375 56 
Q 40.484375 56 46.34375 49.84375 
Q 52.203125 43.703125 52.203125 31.203125 
z
" id="DejaVuSans-97"/>
       <path d="M 41.109375 46.296875 
Q 39.59375 47.171875 37.8125 47.578125 
Q 36.03125 48 33.890625 48 
Q 26.265625 48 22.1875 43.046875 
Q 18.109375 38.09375 18.109375 28.8125 
L 18.109375 0 
L 9.078125 0 
L 9.078125 54.6875 
L 18.109375 54.6875 
L 18.109375 46.1875 
Q 20.953125 51.171875 25.484375 53.578125 
Q 30.03125 56 36.53125 56 
Q 37.453125 56 38.578125 55.875 
Q 39.703125 55.765625 41.0625 55.515625 
z
" id="DejaVuSans-114"/>
       <path d="M 32.171875 -5.078125 
Q 28.375 -14.84375 24.75 -17.8125 
Q 21.140625 -20.796875 15.09375 -20.796875 
L 7.90625 -20.796875 
L 7.90625 -13.28125 
L 13.1875 -13.28125 
Q 16.890625 -13.28125 18.9375 -11.515625 
Q 21 -9.765625 23.484375 -3.21875 
L 25.09375 0.875 
L 2.984375 54.6875 
L 12.5 54.6875 
L 29.59375 11.921875 
L 46.6875 54.6875 
L 56.203125 54.6875 
z
" id="DejaVuSans-121"/>
      </defs>
      <g style="fill:#4d4d4d;" transform="translate(27.15125 66.323544)scale(0.088 -0.088)">
       <use xlink:href="#DejaVuSans-97"/>
       <use x="61.279297" xlink:href="#DejaVuSans-99"/>
       <use x="116.259766" xlink:href="#DejaVuSans-99"/>
       <use x="171.240234" xlink:href="#DejaVuSans-117"/>
       <use x="234.619141" xlink:href="#DejaVuSans-114"/>
       <use x="275.732422" xlink:href="#DejaVuSans-97"/>
       <use x="337.011719" xlink:href="#DejaVuSans-99"/>
       <use x="391.992188" xlink:href="#DejaVuSans-121"/>
      </g>
     </g>
    </g>
    <g id="ytick_9">
     <g id="line2d_35">
      <path clip-path="url(#p60b69d18e4)" d="M 71.80575 47.589412 
L 180.04575 47.589412 
" style="fill:none;stroke:#e5e5e5;stroke-width:0.8;"/>
     </g>
     <g id="line2d_36">
      <path d="M 71.80575 47.589412 
" style="fill:none;stroke:#000000;stroke-width:1.5;"/>
      <g>
       <use style="stroke:#000000;" x="71.80575" xlink:href="#mad5f3dea70" y="47.589412"/>
      </g>
     </g>
     <g id="text_14">
      <!-- macro avg -->
      <defs>
       <path d="M 52 44.1875 
Q 55.375 50.25 60.0625 53.125 
Q 64.75 56 71.09375 56 
Q 79.640625 56 84.28125 50.015625 
Q 88.921875 44.046875 88.921875 33.015625 
L 88.921875 0 
L 79.890625 0 
L 79.890625 32.71875 
Q 79.890625 40.578125 77.09375 44.375 
Q 74.3125 48.1875 68.609375 48.1875 
Q 61.625 48.1875 57.5625 43.546875 
Q 53.515625 38.921875 53.515625 30.90625 
L 53.515625 0 
L 44.484375 0 
L 44.484375 32.71875 
Q 44.484375 40.625 41.703125 44.40625 
Q 38.921875 48.1875 33.109375 48.1875 
Q 26.21875 48.1875 22.15625 43.53125 
Q 18.109375 38.875 18.109375 30.90625 
L 18.109375 0 
L 9.078125 0 
L 9.078125 54.6875 
L 18.109375 54.6875 
L 18.109375 46.1875 
Q 21.1875 51.21875 25.484375 53.609375 
Q 29.78125 56 35.6875 56 
Q 41.65625 56 45.828125 52.96875 
Q 50 49.953125 52 44.1875 
z
" id="DejaVuSans-109"/>
       <path d="M 30.609375 48.390625 
Q 23.390625 48.390625 19.1875 42.75 
Q 14.984375 37.109375 14.984375 27.296875 
Q 14.984375 17.484375 19.15625 11.84375 
Q 23.34375 6.203125 30.609375 6.203125 
Q 37.796875 6.203125 41.984375 11.859375 
Q 46.1875 17.53125 46.1875 27.296875 
Q 46.1875 37.015625 41.984375 42.703125 
Q 37.796875 48.390625 30.609375 48.390625 
z
M 30.609375 56 
Q 42.328125 56 49.015625 48.375 
Q 55.71875 40.765625 55.71875 27.296875 
Q 55.71875 13.875 49.015625 6.21875 
Q 42.328125 -1.421875 30.609375 -1.421875 
Q 18.84375 -1.421875 12.171875 6.21875 
Q 5.515625 13.875 5.515625 27.296875 
Q 5.515625 40.765625 12.171875 48.375 
Q 18.84375 56 30.609375 56 
z
" id="DejaVuSans-111"/>
       <path id="DejaVuSans-32"/>
       <path d="M 2.984375 54.6875 
L 12.5 54.6875 
L 29.59375 8.796875 
L 46.6875 54.6875 
L 56.203125 54.6875 
L 35.6875 0 
L 23.484375 0 
z
" id="DejaVuSans-118"/>
       <path d="M 45.40625 27.984375 
Q 45.40625 37.75 41.375 43.109375 
Q 37.359375 48.484375 30.078125 48.484375 
Q 22.859375 48.484375 18.828125 43.109375 
Q 14.796875 37.75 14.796875 27.984375 
Q 14.796875 18.265625 18.828125 12.890625 
Q 22.859375 7.515625 30.078125 7.515625 
Q 37.359375 7.515625 41.375 12.890625 
Q 45.40625 18.265625 45.40625 27.984375 
z
M 54.390625 6.78125 
Q 54.390625 -7.171875 48.1875 -13.984375 
Q 42 -20.796875 29.203125 -20.796875 
Q 24.46875 -20.796875 20.265625 -20.09375 
Q 16.0625 -19.390625 12.109375 -17.921875 
L 12.109375 -9.1875 
Q 16.0625 -11.328125 19.921875 -12.34375 
Q 23.78125 -13.375 27.78125 -13.375 
Q 36.625 -13.375 41.015625 -8.765625 
Q 45.40625 -4.15625 45.40625 5.171875 
L 45.40625 9.625 
Q 42.625 4.78125 38.28125 2.390625 
Q 33.9375 0 27.875 0 
Q 17.828125 0 11.671875 7.65625 
Q 5.515625 15.328125 5.515625 27.984375 
Q 5.515625 40.671875 11.671875 48.328125 
Q 17.828125 56 27.875 56 
Q 33.9375 56 38.28125 53.609375 
Q 42.625 51.21875 45.40625 46.390625 
L 45.40625 54.6875 
L 54.390625 54.6875 
z
" id="DejaVuSans-103"/>
      </defs>
      <g style="fill:#4d4d4d;" transform="translate(20.068625 50.017662)scale(0.088 -0.088)">
       <use xlink:href="#DejaVuSans-109"/>
       <use x="97.412109" xlink:href="#DejaVuSans-97"/>
       <use x="158.691406" xlink:href="#DejaVuSans-99"/>
       <use x="213.671875" xlink:href="#DejaVuSans-114"/>
       <use x="254.753906" xlink:href="#DejaVuSans-111"/>
       <use x="315.935547" xlink:href="#DejaVuSans-32"/>
       <use x="347.722656" xlink:href="#DejaVuSans-97"/>
       <use x="409.001953" xlink:href="#DejaVuSans-118"/>
       <use x="468.181641" xlink:href="#DejaVuSans-103"/>
      </g>
     </g>
    </g>
    <g id="ytick_10">
     <g id="line2d_37">
      <path clip-path="url(#p60b69d18e4)" d="M 71.80575 31.283529 
L 180.04575 31.283529 
" style="fill:none;stroke:#e5e5e5;stroke-width:0.8;"/>
     </g>
     <g id="line2d_38">
      <path d="M 71.80575 31.283529 
" style="fill:none;stroke:#000000;stroke-width:1.5;"/>
      <g>
       <use style="stroke:#000000;" x="71.80575" xlink:href="#mad5f3dea70" y="31.283529"/>
      </g>
     </g>
     <g id="text_15">
      <!-- weighted avg -->
      <defs>
       <path d="M 4.203125 54.6875 
L 13.1875 54.6875 
L 24.421875 12.015625 
L 35.59375 54.6875 
L 46.1875 54.6875 
L 57.421875 12.015625 
L 68.609375 54.6875 
L 77.59375 54.6875 
L 63.28125 0 
L 52.6875 0 
L 40.921875 44.828125 
L 29.109375 0 
L 18.5 0 
z
" id="DejaVuSans-119"/>
       <path d="M 9.421875 54.6875 
L 18.40625 54.6875 
L 18.40625 0 
L 9.421875 0 
z
M 9.421875 75.984375 
L 18.40625 75.984375 
L 18.40625 64.59375 
L 9.421875 64.59375 
z
" id="DejaVuSans-105"/>
       <path d="M 54.890625 33.015625 
L 54.890625 0 
L 45.90625 0 
L 45.90625 32.71875 
Q 45.90625 40.484375 42.875 44.328125 
Q 39.84375 48.1875 33.796875 48.1875 
Q 26.515625 48.1875 22.3125 43.546875 
Q 18.109375 38.921875 18.109375 30.90625 
L 18.109375 0 
L 9.078125 0 
L 9.078125 75.984375 
L 18.109375 75.984375 
L 18.109375 46.1875 
Q 21.34375 51.125 25.703125 53.5625 
Q 30.078125 56 35.796875 56 
Q 45.21875 56 50.046875 50.171875 
Q 54.890625 44.34375 54.890625 33.015625 
z
" id="DejaVuSans-104"/>
       <path d="M 45.40625 46.390625 
L 45.40625 75.984375 
L 54.390625 75.984375 
L 54.390625 0 
L 45.40625 0 
L 45.40625 8.203125 
Q 42.578125 3.328125 38.25 0.953125 
Q 33.9375 -1.421875 27.875 -1.421875 
Q 17.96875 -1.421875 11.734375 6.484375 
Q 5.515625 14.40625 5.515625 27.296875 
Q 5.515625 40.1875 11.734375 48.09375 
Q 17.96875 56 27.875 56 
Q 33.9375 56 38.25 53.625 
Q 42.578125 51.265625 45.40625 46.390625 
z
M 14.796875 27.296875 
Q 14.796875 17.390625 18.875 11.75 
Q 22.953125 6.109375 30.078125 6.109375 
Q 37.203125 6.109375 41.296875 11.75 
Q 45.40625 17.390625 45.40625 27.296875 
Q 45.40625 37.203125 41.296875 42.84375 
Q 37.203125 48.484375 30.078125 48.484375 
Q 22.953125 48.484375 18.875 42.84375 
Q 14.796875 37.203125 14.796875 27.296875 
z
" id="DejaVuSans-100"/>
      </defs>
      <g style="fill:#4d4d4d;" transform="translate(7.2 33.711779)scale(0.088 -0.088)">
       <use xlink:href="#DejaVuSans-119"/>
       <use x="81.787109" xlink:href="#DejaVuSans-101"/>
       <use x="143.310547" xlink:href="#DejaVuSans-105"/>
       <use x="171.09375" xlink:href="#DejaVuSans-103"/>
       <use x="234.570312" xlink:href="#DejaVuSans-104"/>
       <use x="297.949219" xlink:href="#DejaVuSans-116"/>
       <use x="337.158203" xlink:href="#DejaVuSans-101"/>
       <use x="398.681641" xlink:href="#DejaVuSans-100"/>
       <use x="462.158203" xlink:href="#DejaVuSans-32"/>
       <use x="493.945312" xlink:href="#DejaVuSans-97"/>
       <use x="555.224609" xlink:href="#DejaVuSans-118"/>
       <use x="614.404297" xlink:href="#DejaVuSans-103"/>
      </g>
     </g>
    </g>
   </g>
   <g id="PathCollection_1">
    <path clip-path="url(#p60b69d18e4)" d="M 168.23775 179.808924 
C 168.70781 179.808924 169.158681 179.622168 169.491064 179.289785 
C 169.823447 178.957402 170.010204 178.506531 170.010204 178.036471 
C 170.010204 177.56641 169.823447 177.115539 169.491064 176.783156 
C 169.158681 176.450774 168.70781 176.264017 168.23775 176.264017 
C 167.76769 176.264017 167.316819 176.450774 166.984436 176.783156 
C 166.652053 177.115539 166.465296 177.56641 166.465296 178.036471 
C 166.465296 178.506531 166.652053 178.957402 166.984436 179.289785 
C 167.316819 179.622168 167.76769 179.808924 168.23775 179.808924 
z
" style="fill:#db5f57;stroke:#000000;stroke-width:0.886227;"/>
    <path clip-path="url(#p60b69d18e4)" d="M 160.36575 163.503042 
C 160.83581 163.503042 161.286681 163.316285 161.619064 162.983902 
C 161.951447 162.65152 162.138204 162.200648 162.138204 161.730588 
C 162.138204 161.260528 161.951447 160.809657 161.619064 160.477274 
C 161.286681 160.144891 160.83581 159.958134 160.36575 159.958134 
C 159.89569 159.958134 159.444819 160.144891 159.112436 160.477274 
C 158.780053 160.809657 158.593296 161.260528 158.593296 161.730588 
C 158.593296 162.200648 158.780053 162.65152 159.112436 162.983902 
C 159.444819 163.316285 159.89569 163.503042 160.36575 163.503042 
z
" style="fill:#dbae57;stroke:#000000;stroke-width:0.886227;"/>
    <path clip-path="url(#p60b69d18e4)" d="M 170.20575 147.19716 
C 170.67581 147.19716 171.126681 147.010403 171.459064 146.67802 
C 171.791447 146.345637 171.978204 145.894766 171.978204 145.424706 
C 171.978204 144.954646 171.791447 144.503775 171.459064 144.171392 
C 171.126681 143.839009 170.67581 143.652252 170.20575 143.652252 
C 169.73569 143.652252 169.284819 143.839009 168.952436 144.171392 
C 168.620053 144.503775 168.433296 144.954646 168.433296 145.424706 
C 168.433296 145.894766 168.620053 146.345637 168.952436 146.67802 
C 169.284819 147.010403 169.73569 147.19716 170.20575 147.19716 
z
" style="fill:#b9db57;stroke:#000000;stroke-width:0.886227;"/>
    <path clip-path="url(#p60b69d18e4)" d="M 175.12575 130.891277 
C 175.59581 130.891277 176.046681 130.70452 176.379064 130.372138 
C 176.711447 130.039755 176.898204 129.588884 176.898204 129.118824 
C 176.898204 128.648763 176.711447 128.197892 176.379064 127.865509 
C 176.046681 127.533127 175.59581 127.34637 175.12575 127.34637 
C 174.65569 127.34637 174.204819 127.533127 173.872436 127.865509 
C 173.540053 128.197892 173.353296 128.648763 173.353296 129.118824 
C 173.353296 129.588884 173.540053 130.039755 173.872436 130.372138 
C 174.204819 130.70452 174.65569 130.891277 175.12575 130.891277 
z
" style="fill:#69db57;stroke:#000000;stroke-width:0.886227;"/>
    <path clip-path="url(#p60b69d18e4)" d="M 173.15775 114.585395 
C 173.62781 114.585395 174.078681 114.398638 174.411064 114.066255 
C 174.743447 113.733873 174.930204 113.283001 174.930204 112.812941 
C 174.930204 112.342881 174.743447 111.89201 174.411064 111.559627 
C 174.078681 111.227244 173.62781 111.040487 173.15775 111.040487 
C 172.68769 111.040487 172.236819 111.227244 171.904436 111.559627 
C 171.572053 111.89201 171.385296 112.342881 171.385296 112.812941 
C 171.385296 113.283001 171.572053 113.733873 171.904436 114.066255 
C 172.236819 114.398638 172.68769 114.585395 173.15775 114.585395 
z
" style="fill:#57db94;stroke:#000000;stroke-width:0.886227;"/>
    <path clip-path="url(#p60b69d18e4)" d="M 172.17375 98.279513 
C 172.64381 98.279513 173.094681 98.092756 173.427064 97.760373 
C 173.759447 97.42799 173.946204 96.977119 173.946204 96.507059 
C 173.946204 96.036999 173.759447 95.586127 173.427064 95.253745 
C 173.094681 94.921362 172.64381 94.734605 172.17375 94.734605 
C 171.70369 94.734605 171.252819 94.921362 170.920436 95.253745 
C 170.588053 95.586127 170.401296 96.036999 170.401296 96.507059 
C 170.401296 96.977119 170.588053 97.42799 170.920436 97.760373 
C 171.252819 98.092756 171.70369 98.279513 172.17375 98.279513 
z
" style="fill:#57d3db;stroke:#000000;stroke-width:0.886227;"/>
    <path clip-path="url(#p60b69d18e4)" d="M 173.15775 81.97363 
C 173.62781 81.97363 174.078681 81.786873 174.411064 81.454491 
C 174.743447 81.122108 174.930204 80.671237 174.930204 80.201176 
C 174.930204 79.731116 174.743447 79.280245 174.411064 78.947862 
C 174.078681 78.61548 173.62781 78.428723 173.15775 78.428723 
C 172.68769 78.428723 172.236819 78.61548 171.904436 78.947862 
C 171.572053 79.280245 171.385296 79.731116 171.385296 80.201176 
C 171.385296 80.671237 171.572053 81.122108 171.904436 81.454491 
C 172.236819 81.786873 172.68769 81.97363 173.15775 81.97363 
z
" style="fill:#5784db;stroke:#000000;stroke-width:0.886227;"/>
    <path clip-path="url(#p60b69d18e4)" d="M 170.20575 65.667748 
C 170.67581 65.667748 171.126681 65.480991 171.459064 65.148608 
C 171.791447 64.816225 171.978204 64.365354 171.978204 63.895294 
C 171.978204 63.425234 171.791447 62.974363 171.459064 62.64198 
C 171.126681 62.309597 170.67581 62.12284 170.20575 62.12284 
C 169.73569 62.12284 169.284819 62.309597 168.952436 62.64198 
C 168.620053 62.974363 168.433296 63.425234 168.433296 63.895294 
C 168.433296 64.365354 168.620053 64.816225 168.952436 65.148608 
C 169.284819 65.480991 169.73569 65.667748 170.20575 65.667748 
z
" style="fill:#7957db;stroke:#000000;stroke-width:0.886227;"/>
    <path clip-path="url(#p60b69d18e4)" d="M 170.20575 49.361866 
C 170.67581 49.361866 171.126681 49.175109 171.459064 48.842726 
C 171.791447 48.510343 171.978204 48.059472 171.978204 47.589412 
C 171.978204 47.119352 171.791447 46.66848 171.459064 46.336098 
C 171.126681 46.003715 170.67581 45.816958 170.20575 45.816958 
C 169.73569 45.816958 169.284819 46.003715 168.952436 46.336098 
C 168.620053 46.66848 168.433296 47.119352 168.433296 47.589412 
C 168.433296 48.059472 168.620053 48.510343 168.952436 48.842726 
C 169.284819 49.175109 169.73569 49.361866 170.20575 49.361866 
z
" style="fill:#c957db;stroke:#000000;stroke-width:0.886227;"/>
    <path clip-path="url(#p60b69d18e4)" d="M 170.20575 33.055983 
C 170.67581 33.055983 171.126681 32.869226 171.459064 32.536844 
C 171.791447 32.204461 171.978204 31.75359 171.978204 31.283529 
C 171.978204 30.813469 171.791447 30.362598 171.459064 30.030215 
C 171.126681 29.697832 170.67581 29.511076 170.20575 29.511076 
C 169.73569 29.511076 169.284819 29.697832 168.952436 30.030215 
C 168.620053 30.362598 168.433296 30.813469 168.433296 31.283529 
C 168.433296 31.75359 168.620053 32.204461 168.952436 32.536844 
C 169.284819 32.869226 169.73569 33.055983 170.20575 33.055983 
z
" style="fill:#db579e;stroke:#000000;stroke-width:0.886227;"/>
   </g>
   <g id="patch_3">
    <path d="M 71.80575 21.5 
L 180.04575 21.5 
L 180.04575 7.2 
L 71.80575 7.2 
z
" style="fill:#cccccc;stroke:#7f7f7f;stroke-linejoin:miter;"/>
   </g>
   <g id="text_16">
    <!-- f1-score -->
    <defs>
     <path d="M 37.109375 75.984375 
L 37.109375 68.5 
L 28.515625 68.5 
Q 23.6875 68.5 21.796875 66.546875 
Q 19.921875 64.59375 19.921875 59.515625 
L 19.921875 54.6875 
L 34.71875 54.6875 
L 34.71875 47.703125 
L 19.921875 47.703125 
L 19.921875 0 
L 10.890625 0 
L 10.890625 47.703125 
L 2.296875 47.703125 
L 2.296875 54.6875 
L 10.890625 54.6875 
L 10.890625 58.5 
Q 10.890625 67.625 15.140625 71.796875 
Q 19.390625 75.984375 28.609375 75.984375 
z
" id="DejaVuSans-102"/>
     <path d="M 4.890625 31.390625 
L 31.203125 31.390625 
L 31.203125 23.390625 
L 4.890625 23.390625 
z
" id="DejaVuSans-45"/>
     <path d="M 44.28125 53.078125 
L 44.28125 44.578125 
Q 40.484375 46.53125 36.375 47.5 
Q 32.28125 48.484375 27.875 48.484375 
Q 21.1875 48.484375 17.84375 46.4375 
Q 14.5 44.390625 14.5 40.28125 
Q 14.5 37.15625 16.890625 35.375 
Q 19.28125 33.59375 26.515625 31.984375 
L 29.59375 31.296875 
Q 39.15625 29.25 43.1875 25.515625 
Q 47.21875 21.78125 47.21875 15.09375 
Q 47.21875 7.46875 41.1875 3.015625 
Q 35.15625 -1.421875 24.609375 -1.421875 
Q 20.21875 -1.421875 15.453125 -0.5625 
Q 10.6875 0.296875 5.421875 2 
L 5.421875 11.28125 
Q 10.40625 8.6875 15.234375 7.390625 
Q 20.0625 6.109375 24.8125 6.109375 
Q 31.15625 6.109375 34.5625 8.28125 
Q 37.984375 10.453125 37.984375 14.40625 
Q 37.984375 18.0625 35.515625 20.015625 
Q 33.0625 21.96875 24.703125 23.78125 
L 21.578125 24.515625 
Q 13.234375 26.265625 9.515625 29.90625 
Q 5.8125 33.546875 5.8125 39.890625 
Q 5.8125 47.609375 11.28125 51.796875 
Q 16.75 56 26.8125 56 
Q 31.78125 56 36.171875 55.265625 
Q 40.578125 54.546875 44.28125 53.078125 
z
" id="DejaVuSans-115"/>
    </defs>
    <g style="fill:#1a1a1a;" transform="translate(108.071375 16.77825)scale(0.088 -0.088)">
     <use xlink:href="#DejaVuSans-102"/>
     <use x="35.205078" xlink:href="#DejaVuSans-49"/>
     <use x="98.828125" xlink:href="#DejaVuSans-45"/>
     <use x="134.912109" xlink:href="#DejaVuSans-115"/>
     <use x="187.011719" xlink:href="#DejaVuSans-99"/>
     <use x="241.992188" xlink:href="#DejaVuSans-111"/>
     <use x="303.173828" xlink:href="#DejaVuSans-114"/>
     <use x="344.255859" xlink:href="#DejaVuSans-101"/>
    </g>
   </g>
  </g>
  <g id="axes_2">
   <g id="patch_4">
    <path d="M 185.08575 187.82 
L 293.32575 187.82 
L 293.32575 21.5 
L 185.08575 21.5 
z
" style="fill:#ffffff;stroke:#7f7f7f;stroke-linejoin:miter;"/>
   </g>
   <g id="matplotlib.axis_3">
    <g id="xtick_10">
     <g id="line2d_39">
      <path clip-path="url(#p85380c887b)" d="M 190.00575 187.82 
L 190.00575 21.5 
" style="fill:none;stroke:#e5e5e5;stroke-linecap:square;stroke-width:0.8;"/>
     </g>
     <g id="line2d_40">
      <path d="M 190.00575 187.82 
" style="fill:none;stroke:#000000;stroke-linecap:square;stroke-width:1.5;"/>
      <g>
       <use style="stroke:#000000;" x="190.00575" xlink:href="#mb86e1f3851" y="187.82"/>
      </g>
     </g>
     <g id="text_17">
      <!-- 0 -->
      <g style="fill:#4d4d4d;" transform="translate(187.20625 199.456625)scale(0.088 -0.088)">
       <use xlink:href="#DejaVuSans-48"/>
      </g>
     </g>
    </g>
    <g id="xtick_11">
     <g id="line2d_41">
      <path clip-path="url(#p85380c887b)" d="M 214.60575 187.82 
L 214.60575 21.5 
" style="fill:none;stroke:#e5e5e5;stroke-linecap:square;stroke-width:0.8;"/>
     </g>
     <g id="line2d_42">
      <path d="M 214.60575 187.82 
" style="fill:none;stroke:#000000;stroke-linecap:square;stroke-width:1.5;"/>
      <g>
       <use style="stroke:#000000;" x="214.60575" xlink:href="#mb86e1f3851" y="187.82"/>
      </g>
     </g>
     <g id="text_18">
      <!-- 0.25 -->
      <g style="fill:#4d4d4d;" transform="translate(204.808875 199.456625)scale(0.088 -0.088)">
       <use xlink:href="#DejaVuSans-48"/>
       <use x="63.623047" xlink:href="#DejaVuSans-46"/>
       <use x="95.410156" xlink:href="#DejaVuSans-50"/>
       <use x="159.033203" xlink:href="#DejaVuSans-53"/>
      </g>
     </g>
    </g>
    <g id="xtick_12">
     <g id="line2d_43">
      <path clip-path="url(#p85380c887b)" d="M 239.20575 187.82 
L 239.20575 21.5 
" style="fill:none;stroke:#e5e5e5;stroke-linecap:square;stroke-width:0.8;"/>
     </g>
     <g id="line2d_44">
      <path d="M 239.20575 187.82 
" style="fill:none;stroke:#000000;stroke-linecap:square;stroke-width:1.5;"/>
      <g>
       <use style="stroke:#000000;" x="239.20575" xlink:href="#mb86e1f3851" y="187.82"/>
      </g>
     </g>
     <g id="text_19">
      <!-- 0.50 -->
      <g style="fill:#4d4d4d;" transform="translate(229.408875 199.456625)scale(0.088 -0.088)">
       <use xlink:href="#DejaVuSans-48"/>
       <use x="63.623047" xlink:href="#DejaVuSans-46"/>
       <use x="95.410156" xlink:href="#DejaVuSans-53"/>
       <use x="159.033203" xlink:href="#DejaVuSans-48"/>
      </g>
     </g>
    </g>
    <g id="xtick_13">
     <g id="line2d_45">
      <path clip-path="url(#p85380c887b)" d="M 263.80575 187.82 
L 263.80575 21.5 
" style="fill:none;stroke:#e5e5e5;stroke-linecap:square;stroke-width:0.8;"/>
     </g>
     <g id="line2d_46">
      <path d="M 263.80575 187.82 
" style="fill:none;stroke:#000000;stroke-linecap:square;stroke-width:1.5;"/>
      <g>
       <use style="stroke:#000000;" x="263.80575" xlink:href="#mb86e1f3851" y="187.82"/>
      </g>
     </g>
     <g id="text_20">
      <!-- 0.75 -->
      <g style="fill:#4d4d4d;" transform="translate(254.008875 199.456625)scale(0.088 -0.088)">
       <use xlink:href="#DejaVuSans-48"/>
       <use x="63.623047" xlink:href="#DejaVuSans-46"/>
       <use x="95.410156" xlink:href="#DejaVuSans-55"/>
       <use x="159.033203" xlink:href="#DejaVuSans-53"/>
      </g>
     </g>
    </g>
    <g id="xtick_14">
     <g id="line2d_47">
      <path clip-path="url(#p85380c887b)" d="M 288.40575 187.82 
L 288.40575 21.5 
" style="fill:none;stroke:#e5e5e5;stroke-linecap:square;stroke-width:0.8;"/>
     </g>
     <g id="line2d_48">
      <path d="M 288.40575 187.82 
" style="fill:none;stroke:#000000;stroke-linecap:square;stroke-width:1.5;"/>
      <g>
       <use style="stroke:#000000;" x="288.40575" xlink:href="#mb86e1f3851" y="187.82"/>
      </g>
     </g>
     <g id="text_21">
      <!-- 1 -->
      <g style="fill:#4d4d4d;" transform="translate(285.60625 199.456625)scale(0.088 -0.088)">
       <use xlink:href="#DejaVuSans-49"/>
      </g>
     </g>
    </g>
    <g id="xtick_15">
     <g id="line2d_49">
      <path clip-path="url(#p85380c887b)" d="M 202.30575 187.82 
L 202.30575 21.5 
" style="fill:none;stroke:#fafafa;stroke-linecap:square;"/>
     </g>
     <g id="line2d_50">
      <path d="M 202.30575 187.82 
" style="fill:none;stroke:#000000;stroke-linecap:square;stroke-width:1.5;"/>
      <g>
       <use style="stroke:#000000;" x="202.30575" xlink:href="#m3a9cb3f2e3" y="187.82"/>
      </g>
     </g>
    </g>
    <g id="xtick_16">
     <g id="line2d_51">
      <path clip-path="url(#p85380c887b)" d="M 226.90575 187.82 
L 226.90575 21.5 
" style="fill:none;stroke:#fafafa;stroke-linecap:square;"/>
     </g>
     <g id="line2d_52">
      <path d="M 226.90575 187.82 
" style="fill:none;stroke:#000000;stroke-linecap:square;stroke-width:1.5;"/>
      <g>
       <use style="stroke:#000000;" x="226.90575" xlink:href="#m3a9cb3f2e3" y="187.82"/>
      </g>
     </g>
    </g>
    <g id="xtick_17">
     <g id="line2d_53">
      <path clip-path="url(#p85380c887b)" d="M 251.50575 187.82 
L 251.50575 21.5 
" style="fill:none;stroke:#fafafa;stroke-linecap:square;"/>
     </g>
     <g id="line2d_54">
      <path d="M 251.50575 187.82 
" style="fill:none;stroke:#000000;stroke-linecap:square;stroke-width:1.5;"/>
      <g>
       <use style="stroke:#000000;" x="251.50575" xlink:href="#m3a9cb3f2e3" y="187.82"/>
      </g>
     </g>
    </g>
    <g id="xtick_18">
     <g id="line2d_55">
      <path clip-path="url(#p85380c887b)" d="M 276.10575 187.82 
L 276.10575 21.5 
" style="fill:none;stroke:#fafafa;stroke-linecap:square;"/>
     </g>
     <g id="line2d_56">
      <path d="M 276.10575 187.82 
" style="fill:none;stroke:#000000;stroke-linecap:square;stroke-width:1.5;"/>
      <g>
       <use style="stroke:#000000;" x="276.10575" xlink:href="#m3a9cb3f2e3" y="187.82"/>
      </g>
     </g>
    </g>
   </g>
   <g id="matplotlib.axis_4">
    <g id="ytick_11">
     <g id="line2d_57">
      <path clip-path="url(#p85380c887b)" d="M 185.08575 178.036471 
L 293.32575 178.036471 
" style="fill:none;stroke:#e5e5e5;stroke-linecap:square;stroke-width:0.8;"/>
     </g>
    </g>
    <g id="ytick_12">
     <g id="line2d_58">
      <path clip-path="url(#p85380c887b)" d="M 185.08575 161.730588 
L 293.32575 161.730588 
" style="fill:none;stroke:#e5e5e5;stroke-linecap:square;stroke-width:0.8;"/>
     </g>
    </g>
    <g id="ytick_13">
     <g id="line2d_59">
      <path clip-path="url(#p85380c887b)" d="M 185.08575 145.424706 
L 293.32575 145.424706 
" style="fill:none;stroke:#e5e5e5;stroke-linecap:square;stroke-width:0.8;"/>
     </g>
    </g>
    <g id="ytick_14">
     <g id="line2d_60">
      <path clip-path="url(#p85380c887b)" d="M 185.08575 129.118824 
L 293.32575 129.118824 
" style="fill:none;stroke:#e5e5e5;stroke-linecap:square;stroke-width:0.8;"/>
     </g>
    </g>
    <g id="ytick_15">
     <g id="line2d_61">
      <path clip-path="url(#p85380c887b)" d="M 185.08575 112.812941 
L 293.32575 112.812941 
" style="fill:none;stroke:#e5e5e5;stroke-linecap:square;stroke-width:0.8;"/>
     </g>
    </g>
    <g id="ytick_16">
     <g id="line2d_62">
      <path clip-path="url(#p85380c887b)" d="M 185.08575 96.507059 
L 293.32575 96.507059 
" style="fill:none;stroke:#e5e5e5;stroke-linecap:square;stroke-width:0.8;"/>
     </g>
    </g>
    <g id="ytick_17">
     <g id="line2d_63">
      <path clip-path="url(#p85380c887b)" d="M 185.08575 80.201176 
L 293.32575 80.201176 
" style="fill:none;stroke:#e5e5e5;stroke-linecap:square;stroke-width:0.8;"/>
     </g>
    </g>
    <g id="ytick_18">
     <g id="line2d_64">
      <path clip-path="url(#p85380c887b)" d="M 185.08575 63.895294 
L 293.32575 63.895294 
" style="fill:none;stroke:#e5e5e5;stroke-linecap:square;stroke-width:0.8;"/>
     </g>
    </g>
    <g id="ytick_19">
     <g id="line2d_65">
      <path clip-path="url(#p85380c887b)" d="M 185.08575 47.589412 
L 293.32575 47.589412 
" style="fill:none;stroke:#e5e5e5;stroke-linecap:square;stroke-width:0.8;"/>
     </g>
    </g>
    <g id="ytick_20">
     <g id="line2d_66">
      <path clip-path="url(#p85380c887b)" d="M 185.08575 31.283529 
L 293.32575 31.283529 
" style="fill:none;stroke:#e5e5e5;stroke-linecap:square;stroke-width:0.8;"/>
     </g>
    </g>
   </g>
   <g id="PathCollection_2">
    <path clip-path="url(#p85380c887b)" d="M 278.56575 179.808924 
C 279.03581 179.808924 279.486681 179.622168 279.819064 179.289785 
C 280.151447 178.957402 280.338204 178.506531 280.338204 178.036471 
C 280.338204 177.56641 280.151447 177.115539 279.819064 176.783156 
C 279.486681 176.450774 279.03581 176.264017 278.56575 176.264017 
C 278.09569 176.264017 277.644819 176.450774 277.312436 176.783156 
C 276.980053 177.115539 276.793296 177.56641 276.793296 178.036471 
C 276.793296 178.506531 276.980053 178.957402 277.312436 179.289785 
C 277.644819 179.622168 278.09569 179.808924 278.56575 179.808924 
z
" style="fill:#db5f57;stroke:#000000;stroke-width:0.886227;"/>
    <path clip-path="url(#p85380c887b)" d="M 273.64575 163.503042 
C 274.11581 163.503042 274.566681 163.316285 274.899064 162.983902 
C 275.231447 162.65152 275.418204 162.200648 275.418204 161.730588 
C 275.418204 161.260528 275.231447 160.809657 274.899064 160.477274 
C 274.566681 160.144891 274.11581 159.958134 273.64575 159.958134 
C 273.17569 159.958134 272.724819 160.144891 272.392436 160.477274 
C 272.060053 160.809657 271.873296 161.260528 271.873296 161.730588 
C 271.873296 162.200648 272.060053 162.65152 272.392436 162.983902 
C 272.724819 163.316285 273.17569 163.503042 273.64575 163.503042 
z
" style="fill:#dbae57;stroke:#000000;stroke-width:0.886227;"/>
    <path clip-path="url(#p85380c887b)" d="M 288.40575 147.19716 
C 288.87581 147.19716 289.326681 147.010403 289.659064 146.67802 
C 289.991447 146.345637 290.178204 145.894766 290.178204 145.424706 
C 290.178204 144.954646 289.991447 144.503775 289.659064 144.171392 
C 289.326681 143.839009 288.87581 143.652252 288.40575 143.652252 
C 287.93569 143.652252 287.484819 143.839009 287.152436 144.171392 
C 286.820053 144.503775 286.633296 144.954646 286.633296 145.424706 
C 286.633296 145.894766 286.820053 146.345637 287.152436 146.67802 
C 287.484819 147.010403 287.93569 147.19716 288.40575 147.19716 
z
" style="fill:#b9db57;stroke:#000000;stroke-width:0.886227;"/>
    <path clip-path="url(#p85380c887b)" d="M 288.40575 130.891277 
C 288.87581 130.891277 289.326681 130.70452 289.659064 130.372138 
C 289.991447 130.039755 290.178204 129.588884 290.178204 129.118824 
C 290.178204 128.648763 289.991447 128.197892 289.659064 127.865509 
C 289.326681 127.533127 288.87581 127.34637 288.40575 127.34637 
C 287.93569 127.34637 287.484819 127.533127 287.152436 127.865509 
C 286.820053 128.197892 286.633296 128.648763 286.633296 129.118824 
C 286.633296 129.588884 286.820053 130.039755 287.152436 130.372138 
C 287.484819 130.70452 287.93569 130.891277 288.40575 130.891277 
z
" style="fill:#69db57;stroke:#000000;stroke-width:0.886227;"/>
    <path clip-path="url(#p85380c887b)" d="M 283.48575 114.585395 
C 283.95581 114.585395 284.406681 114.398638 284.739064 114.066255 
C 285.071447 113.733873 285.258204 113.283001 285.258204 112.812941 
C 285.258204 112.342881 285.071447 111.89201 284.739064 111.559627 
C 284.406681 111.227244 283.95581 111.040487 283.48575 111.040487 
C 283.01569 111.040487 282.564819 111.227244 282.232436 111.559627 
C 281.900053 111.89201 281.713296 112.342881 281.713296 112.812941 
C 281.713296 113.283001 281.900053 113.733873 282.232436 114.066255 
C 282.564819 114.398638 283.01569 114.585395 283.48575 114.585395 
z
" style="fill:#57db94;stroke:#000000;stroke-width:0.886227;"/>
    <path clip-path="url(#p85380c887b)" d="M 288.40575 98.279513 
C 288.87581 98.279513 289.326681 98.092756 289.659064 97.760373 
C 289.991447 97.42799 290.178204 96.977119 290.178204 96.507059 
C 290.178204 96.036999 289.991447 95.586127 289.659064 95.253745 
C 289.326681 94.921362 288.87581 94.734605 288.40575 94.734605 
C 287.93569 94.734605 287.484819 94.921362 287.152436 95.253745 
C 286.820053 95.586127 286.633296 96.036999 286.633296 96.507059 
C 286.633296 96.977119 286.820053 97.42799 287.152436 97.760373 
C 287.484819 98.092756 287.93569 98.279513 288.40575 98.279513 
z
" style="fill:#57d3db;stroke:#000000;stroke-width:0.886227;"/>
    <path clip-path="url(#p85380c887b)" d="M 283.48575 81.97363 
C 283.95581 81.97363 284.406681 81.786873 284.739064 81.454491 
C 285.071447 81.122108 285.258204 80.671237 285.258204 80.201176 
C 285.258204 79.731116 285.071447 79.280245 284.739064 78.947862 
C 284.406681 78.61548 283.95581 78.428723 283.48575 78.428723 
C 283.01569 78.428723 282.564819 78.61548 282.232436 78.947862 
C 281.900053 79.280245 281.713296 79.731116 281.713296 80.201176 
C 281.713296 80.671237 281.900053 81.122108 282.232436 81.454491 
C 282.564819 81.786873 283.01569 81.97363 283.48575 81.97363 
z
" style="fill:#5784db;stroke:#000000;stroke-width:0.886227;"/>
    <path clip-path="url(#p85380c887b)" d="M 283.48575 65.667748 
C 283.95581 65.667748 284.406681 65.480991 284.739064 65.148608 
C 285.071447 64.816225 285.258204 64.365354 285.258204 63.895294 
C 285.258204 63.425234 285.071447 62.974363 284.739064 62.64198 
C 284.406681 62.309597 283.95581 62.12284 283.48575 62.12284 
C 283.01569 62.12284 282.564819 62.309597 282.232436 62.64198 
C 281.900053 62.974363 281.713296 63.425234 281.713296 63.895294 
C 281.713296 64.365354 281.900053 64.816225 282.232436 65.148608 
C 282.564819 65.480991 283.01569 65.667748 283.48575 65.667748 
z
" style="fill:#7957db;stroke:#000000;stroke-width:0.886227;"/>
    <path clip-path="url(#p85380c887b)" d="M 283.48575 49.361866 
C 283.95581 49.361866 284.406681 49.175109 284.739064 48.842726 
C 285.071447 48.510343 285.258204 48.059472 285.258204 47.589412 
C 285.258204 47.119352 285.071447 46.66848 284.739064 46.336098 
C 284.406681 46.003715 283.95581 45.816958 283.48575 45.816958 
C 283.01569 45.816958 282.564819 46.003715 282.232436 46.336098 
C 281.900053 46.66848 281.713296 47.119352 281.713296 47.589412 
C 281.713296 48.059472 281.900053 48.510343 282.232436 48.842726 
C 282.564819 49.175109 283.01569 49.361866 283.48575 49.361866 
z
" style="fill:#c957db;stroke:#000000;stroke-width:0.886227;"/>
    <path clip-path="url(#p85380c887b)" d="M 283.48575 33.055983 
C 283.95581 33.055983 284.406681 32.869226 284.739064 32.536844 
C 285.071447 32.204461 285.258204 31.75359 285.258204 31.283529 
C 285.258204 30.813469 285.071447 30.362598 284.739064 30.030215 
C 284.406681 29.697832 283.95581 29.511076 283.48575 29.511076 
C 283.01569 29.511076 282.564819 29.697832 282.232436 30.030215 
C 281.900053 30.362598 281.713296 30.813469 281.713296 31.283529 
C 281.713296 31.75359 281.900053 32.204461 282.232436 32.536844 
C 282.564819 32.869226 283.01569 33.055983 283.48575 33.055983 
z
" style="fill:#db579e;stroke:#000000;stroke-width:0.886227;"/>
   </g>
   <g id="patch_5">
    <path d="M 185.08575 21.5 
L 293.32575 21.5 
L 293.32575 7.2 
L 185.08575 7.2 
z
" style="fill:#cccccc;stroke:#7f7f7f;stroke-linejoin:miter;"/>
   </g>
   <g id="text_22">
    <!-- precision -->
    <defs>
     <path d="M 18.109375 8.203125 
L 18.109375 -20.796875 
L 9.078125 -20.796875 
L 9.078125 54.6875 
L 18.109375 54.6875 
L 18.109375 46.390625 
Q 20.953125 51.265625 25.265625 53.625 
Q 29.59375 56 35.59375 56 
Q 45.5625 56 51.78125 48.09375 
Q 58.015625 40.1875 58.015625 27.296875 
Q 58.015625 14.40625 51.78125 6.484375 
Q 45.5625 -1.421875 35.59375 -1.421875 
Q 29.59375 -1.421875 25.265625 0.953125 
Q 20.953125 3.328125 18.109375 8.203125 
z
M 48.6875 27.296875 
Q 48.6875 37.203125 44.609375 42.84375 
Q 40.53125 48.484375 33.40625 48.484375 
Q 26.265625 48.484375 22.1875 42.84375 
Q 18.109375 37.203125 18.109375 27.296875 
Q 18.109375 17.390625 22.1875 11.75 
Q 26.265625 6.109375 33.40625 6.109375 
Q 40.53125 6.109375 44.609375 11.75 
Q 48.6875 17.390625 48.6875 27.296875 
z
" id="DejaVuSans-112"/>
     <path d="M 54.890625 33.015625 
L 54.890625 0 
L 45.90625 0 
L 45.90625 32.71875 
Q 45.90625 40.484375 42.875 44.328125 
Q 39.84375 48.1875 33.796875 48.1875 
Q 26.515625 48.1875 22.3125 43.546875 
Q 18.109375 38.921875 18.109375 30.90625 
L 18.109375 0 
L 9.078125 0 
L 9.078125 54.6875 
L 18.109375 54.6875 
L 18.109375 46.1875 
Q 21.34375 51.125 25.703125 53.5625 
Q 30.078125 56 35.796875 56 
Q 45.21875 56 50.046875 50.171875 
Q 54.890625 44.34375 54.890625 33.015625 
z
" id="DejaVuSans-110"/>
    </defs>
    <g style="fill:#1a1a1a;" transform="translate(219.260687 16.77825)scale(0.088 -0.088)">
     <use xlink:href="#DejaVuSans-112"/>
     <use x="63.476562" xlink:href="#DejaVuSans-114"/>
     <use x="104.558594" xlink:href="#DejaVuSans-101"/>
     <use x="166.082031" xlink:href="#DejaVuSans-99"/>
     <use x="221.0625" xlink:href="#DejaVuSans-105"/>
     <use x="248.845703" xlink:href="#DejaVuSans-115"/>
     <use x="300.945312" xlink:href="#DejaVuSans-105"/>
     <use x="328.728516" xlink:href="#DejaVuSans-111"/>
     <use x="389.910156" xlink:href="#DejaVuSans-110"/>
    </g>
   </g>
  </g>
  <g id="axes_3">
   <g id="patch_6">
    <path d="M 298.36575 187.82 
L 406.60575 187.82 
L 406.60575 21.5 
L 298.36575 21.5 
z
" style="fill:#ffffff;stroke:#7f7f7f;stroke-linejoin:miter;"/>
   </g>
   <g id="matplotlib.axis_5">
    <g id="xtick_19">
     <g id="line2d_67">
      <path clip-path="url(#p5e7e8728dc)" d="M 303.28575 187.82 
L 303.28575 21.5 
" style="fill:none;stroke:#e5e5e5;stroke-linecap:square;stroke-width:0.8;"/>
     </g>
     <g id="line2d_68">
      <path d="M 303.28575 187.82 
" style="fill:none;stroke:#000000;stroke-linecap:square;stroke-width:1.5;"/>
      <g>
       <use style="stroke:#000000;" x="303.28575" xlink:href="#mb86e1f3851" y="187.82"/>
      </g>
     </g>
     <g id="text_23">
      <!-- 0 -->
      <g style="fill:#4d4d4d;" transform="translate(300.48625 199.456625)scale(0.088 -0.088)">
       <use xlink:href="#DejaVuSans-48"/>
      </g>
     </g>
    </g>
    <g id="xtick_20">
     <g id="line2d_69">
      <path clip-path="url(#p5e7e8728dc)" d="M 327.88575 187.82 
L 327.88575 21.5 
" style="fill:none;stroke:#e5e5e5;stroke-linecap:square;stroke-width:0.8;"/>
     </g>
     <g id="line2d_70">
      <path d="M 327.88575 187.82 
" style="fill:none;stroke:#000000;stroke-linecap:square;stroke-width:1.5;"/>
      <g>
       <use style="stroke:#000000;" x="327.88575" xlink:href="#mb86e1f3851" y="187.82"/>
      </g>
     </g>
     <g id="text_24">
      <!-- 0.25 -->
      <g style="fill:#4d4d4d;" transform="translate(318.088875 199.456625)scale(0.088 -0.088)">
       <use xlink:href="#DejaVuSans-48"/>
       <use x="63.623047" xlink:href="#DejaVuSans-46"/>
       <use x="95.410156" xlink:href="#DejaVuSans-50"/>
       <use x="159.033203" xlink:href="#DejaVuSans-53"/>
      </g>
     </g>
    </g>
    <g id="xtick_21">
     <g id="line2d_71">
      <path clip-path="url(#p5e7e8728dc)" d="M 352.48575 187.82 
L 352.48575 21.5 
" style="fill:none;stroke:#e5e5e5;stroke-linecap:square;stroke-width:0.8;"/>
     </g>
     <g id="line2d_72">
      <path d="M 352.48575 187.82 
" style="fill:none;stroke:#000000;stroke-linecap:square;stroke-width:1.5;"/>
      <g>
       <use style="stroke:#000000;" x="352.48575" xlink:href="#mb86e1f3851" y="187.82"/>
      </g>
     </g>
     <g id="text_25">
      <!-- 0.50 -->
      <g style="fill:#4d4d4d;" transform="translate(342.688875 199.456625)scale(0.088 -0.088)">
       <use xlink:href="#DejaVuSans-48"/>
       <use x="63.623047" xlink:href="#DejaVuSans-46"/>
       <use x="95.410156" xlink:href="#DejaVuSans-53"/>
       <use x="159.033203" xlink:href="#DejaVuSans-48"/>
      </g>
     </g>
    </g>
    <g id="xtick_22">
     <g id="line2d_73">
      <path clip-path="url(#p5e7e8728dc)" d="M 377.08575 187.82 
L 377.08575 21.5 
" style="fill:none;stroke:#e5e5e5;stroke-linecap:square;stroke-width:0.8;"/>
     </g>
     <g id="line2d_74">
      <path d="M 377.08575 187.82 
" style="fill:none;stroke:#000000;stroke-linecap:square;stroke-width:1.5;"/>
      <g>
       <use style="stroke:#000000;" x="377.08575" xlink:href="#mb86e1f3851" y="187.82"/>
      </g>
     </g>
     <g id="text_26">
      <!-- 0.75 -->
      <g style="fill:#4d4d4d;" transform="translate(367.288875 199.456625)scale(0.088 -0.088)">
       <use xlink:href="#DejaVuSans-48"/>
       <use x="63.623047" xlink:href="#DejaVuSans-46"/>
       <use x="95.410156" xlink:href="#DejaVuSans-55"/>
       <use x="159.033203" xlink:href="#DejaVuSans-53"/>
      </g>
     </g>
    </g>
    <g id="xtick_23">
     <g id="line2d_75">
      <path clip-path="url(#p5e7e8728dc)" d="M 401.68575 187.82 
L 401.68575 21.5 
" style="fill:none;stroke:#e5e5e5;stroke-linecap:square;stroke-width:0.8;"/>
     </g>
     <g id="line2d_76">
      <path d="M 401.68575 187.82 
" style="fill:none;stroke:#000000;stroke-linecap:square;stroke-width:1.5;"/>
      <g>
       <use style="stroke:#000000;" x="401.68575" xlink:href="#mb86e1f3851" y="187.82"/>
      </g>
     </g>
     <g id="text_27">
      <!-- 1 -->
      <g style="fill:#4d4d4d;" transform="translate(398.88625 199.456625)scale(0.088 -0.088)">
       <use xlink:href="#DejaVuSans-49"/>
      </g>
     </g>
    </g>
    <g id="xtick_24">
     <g id="line2d_77">
      <path clip-path="url(#p5e7e8728dc)" d="M 315.58575 187.82 
L 315.58575 21.5 
" style="fill:none;stroke:#fafafa;stroke-linecap:square;"/>
     </g>
     <g id="line2d_78">
      <path d="M 315.58575 187.82 
" style="fill:none;stroke:#000000;stroke-linecap:square;stroke-width:1.5;"/>
      <g>
       <use style="stroke:#000000;" x="315.58575" xlink:href="#m3a9cb3f2e3" y="187.82"/>
      </g>
     </g>
    </g>
    <g id="xtick_25">
     <g id="line2d_79">
      <path clip-path="url(#p5e7e8728dc)" d="M 340.18575 187.82 
L 340.18575 21.5 
" style="fill:none;stroke:#fafafa;stroke-linecap:square;"/>
     </g>
     <g id="line2d_80">
      <path d="M 340.18575 187.82 
" style="fill:none;stroke:#000000;stroke-linecap:square;stroke-width:1.5;"/>
      <g>
       <use style="stroke:#000000;" x="340.18575" xlink:href="#m3a9cb3f2e3" y="187.82"/>
      </g>
     </g>
    </g>
    <g id="xtick_26">
     <g id="line2d_81">
      <path clip-path="url(#p5e7e8728dc)" d="M 364.78575 187.82 
L 364.78575 21.5 
" style="fill:none;stroke:#fafafa;stroke-linecap:square;"/>
     </g>
     <g id="line2d_82">
      <path d="M 364.78575 187.82 
" style="fill:none;stroke:#000000;stroke-linecap:square;stroke-width:1.5;"/>
      <g>
       <use style="stroke:#000000;" x="364.78575" xlink:href="#m3a9cb3f2e3" y="187.82"/>
      </g>
     </g>
    </g>
    <g id="xtick_27">
     <g id="line2d_83">
      <path clip-path="url(#p5e7e8728dc)" d="M 389.38575 187.82 
L 389.38575 21.5 
" style="fill:none;stroke:#fafafa;stroke-linecap:square;"/>
     </g>
     <g id="line2d_84">
      <path d="M 389.38575 187.82 
" style="fill:none;stroke:#000000;stroke-linecap:square;stroke-width:1.5;"/>
      <g>
       <use style="stroke:#000000;" x="389.38575" xlink:href="#m3a9cb3f2e3" y="187.82"/>
      </g>
     </g>
    </g>
   </g>
   <g id="matplotlib.axis_6">
    <g id="ytick_21">
     <g id="line2d_85">
      <path clip-path="url(#p5e7e8728dc)" d="M 298.36575 178.036471 
L 406.60575 178.036471 
" style="fill:none;stroke:#e5e5e5;stroke-linecap:square;stroke-width:0.8;"/>
     </g>
    </g>
    <g id="ytick_22">
     <g id="line2d_86">
      <path clip-path="url(#p5e7e8728dc)" d="M 298.36575 161.730588 
L 406.60575 161.730588 
" style="fill:none;stroke:#e5e5e5;stroke-linecap:square;stroke-width:0.8;"/>
     </g>
    </g>
    <g id="ytick_23">
     <g id="line2d_87">
      <path clip-path="url(#p5e7e8728dc)" d="M 298.36575 145.424706 
L 406.60575 145.424706 
" style="fill:none;stroke:#e5e5e5;stroke-linecap:square;stroke-width:0.8;"/>
     </g>
    </g>
    <g id="ytick_24">
     <g id="line2d_88">
      <path clip-path="url(#p5e7e8728dc)" d="M 298.36575 129.118824 
L 406.60575 129.118824 
" style="fill:none;stroke:#e5e5e5;stroke-linecap:square;stroke-width:0.8;"/>
     </g>
    </g>
    <g id="ytick_25">
     <g id="line2d_89">
      <path clip-path="url(#p5e7e8728dc)" d="M 298.36575 112.812941 
L 406.60575 112.812941 
" style="fill:none;stroke:#e5e5e5;stroke-linecap:square;stroke-width:0.8;"/>
     </g>
    </g>
    <g id="ytick_26">
     <g id="line2d_90">
      <path clip-path="url(#p5e7e8728dc)" d="M 298.36575 96.507059 
L 406.60575 96.507059 
" style="fill:none;stroke:#e5e5e5;stroke-linecap:square;stroke-width:0.8;"/>
     </g>
    </g>
    <g id="ytick_27">
     <g id="line2d_91">
      <path clip-path="url(#p5e7e8728dc)" d="M 298.36575 80.201176 
L 406.60575 80.201176 
" style="fill:none;stroke:#e5e5e5;stroke-linecap:square;stroke-width:0.8;"/>
     </g>
    </g>
    <g id="ytick_28">
     <g id="line2d_92">
      <path clip-path="url(#p5e7e8728dc)" d="M 298.36575 63.895294 
L 406.60575 63.895294 
" style="fill:none;stroke:#e5e5e5;stroke-linecap:square;stroke-width:0.8;"/>
     </g>
    </g>
    <g id="ytick_29">
     <g id="line2d_93">
      <path clip-path="url(#p5e7e8728dc)" d="M 298.36575 47.589412 
L 406.60575 47.589412 
" style="fill:none;stroke:#e5e5e5;stroke-linecap:square;stroke-width:0.8;"/>
     </g>
    </g>
    <g id="ytick_30">
     <g id="line2d_94">
      <path clip-path="url(#p5e7e8728dc)" d="M 298.36575 31.283529 
L 406.60575 31.283529 
" style="fill:none;stroke:#e5e5e5;stroke-linecap:square;stroke-width:0.8;"/>
     </g>
    </g>
   </g>
   <g id="PathCollection_3">
    <path clip-path="url(#p5e7e8728dc)" d="M 396.76575 179.808924 
C 397.23581 179.808924 397.686681 179.622168 398.019064 179.289785 
C 398.351447 178.957402 398.538204 178.506531 398.538204 178.036471 
C 398.538204 177.56641 398.351447 177.115539 398.019064 176.783156 
C 397.686681 176.450774 397.23581 176.264017 396.76575 176.264017 
C 396.29569 176.264017 395.844819 176.450774 395.512436 176.783156 
C 395.180053 177.115539 394.993296 177.56641 394.993296 178.036471 
C 394.993296 178.506531 395.180053 178.957402 395.512436 179.289785 
C 395.844819 179.622168 396.29569 179.808924 396.76575 179.808924 
z
" style="fill:#db5f57;stroke:#000000;stroke-width:0.886227;"/>
    <path clip-path="url(#p5e7e8728dc)" d="M 386.92575 163.503042 
C 387.39581 163.503042 387.846681 163.316285 388.179064 162.983902 
C 388.511447 162.65152 388.698204 162.200648 388.698204 161.730588 
C 388.698204 161.260528 388.511447 160.809657 388.179064 160.477274 
C 387.846681 160.144891 387.39581 159.958134 386.92575 159.958134 
C 386.45569 159.958134 386.004819 160.144891 385.672436 160.477274 
C 385.340053 160.809657 385.153296 161.260528 385.153296 161.730588 
C 385.153296 162.200648 385.340053 162.65152 385.672436 162.983902 
C 386.004819 163.316285 386.45569 163.503042 386.92575 163.503042 
z
" style="fill:#dbae57;stroke:#000000;stroke-width:0.886227;"/>
    <path clip-path="url(#p5e7e8728dc)" d="M 391.84575 147.19716 
C 392.31581 147.19716 392.766681 147.010403 393.099064 146.67802 
C 393.431447 146.345637 393.618204 145.894766 393.618204 145.424706 
C 393.618204 144.954646 393.431447 144.503775 393.099064 144.171392 
C 392.766681 143.839009 392.31581 143.652252 391.84575 143.652252 
C 391.37569 143.652252 390.924819 143.839009 390.592436 144.171392 
C 390.260053 144.503775 390.073296 144.954646 390.073296 145.424706 
C 390.073296 145.894766 390.260053 146.345637 390.592436 146.67802 
C 390.924819 147.010403 391.37569 147.19716 391.84575 147.19716 
z
" style="fill:#b9db57;stroke:#000000;stroke-width:0.886227;"/>
    <path clip-path="url(#p5e7e8728dc)" d="M 401.68575 130.891277 
C 402.15581 130.891277 402.606681 130.70452 402.939064 130.372138 
C 403.271447 130.039755 403.458204 129.588884 403.458204 129.118824 
C 403.458204 128.648763 403.271447 128.197892 402.939064 127.865509 
C 402.606681 127.533127 402.15581 127.34637 401.68575 127.34637 
C 401.21569 127.34637 400.764819 127.533127 400.432436 127.865509 
C 400.100053 128.197892 399.913296 128.648763 399.913296 129.118824 
C 399.913296 129.588884 400.100053 130.039755 400.432436 130.372138 
C 400.764819 130.70452 401.21569 130.891277 401.68575 130.891277 
z
" style="fill:#69db57;stroke:#000000;stroke-width:0.886227;"/>
    <path clip-path="url(#p5e7e8728dc)" d="M 401.68575 114.585395 
C 402.15581 114.585395 402.606681 114.398638 402.939064 114.066255 
C 403.271447 113.733873 403.458204 113.283001 403.458204 112.812941 
C 403.458204 112.342881 403.271447 111.89201 402.939064 111.559627 
C 402.606681 111.227244 402.15581 111.040487 401.68575 111.040487 
C 401.21569 111.040487 400.764819 111.227244 400.432436 111.559627 
C 400.100053 111.89201 399.913296 112.342881 399.913296 112.812941 
C 399.913296 113.283001 400.100053 113.733873 400.432436 114.066255 
C 400.764819 114.398638 401.21569 114.585395 401.68575 114.585395 
z
" style="fill:#57db94;stroke:#000000;stroke-width:0.886227;"/>
    <path clip-path="url(#p5e7e8728dc)" d="M 396.76575 98.279513 
C 397.23581 98.279513 397.686681 98.092756 398.019064 97.760373 
C 398.351447 97.42799 398.538204 96.977119 398.538204 96.507059 
C 398.538204 96.036999 398.351447 95.586127 398.019064 95.253745 
C 397.686681 94.921362 397.23581 94.734605 396.76575 94.734605 
C 396.29569 94.734605 395.844819 94.921362 395.512436 95.253745 
C 395.180053 95.586127 394.993296 96.036999 394.993296 96.507059 
C 394.993296 96.977119 395.180053 97.42799 395.512436 97.760373 
C 395.844819 98.092756 396.29569 98.279513 396.76575 98.279513 
z
" style="fill:#57d3db;stroke:#000000;stroke-width:0.886227;"/>
    <path clip-path="url(#p5e7e8728dc)" d="M 401.68575 81.97363 
C 402.15581 81.97363 402.606681 81.786873 402.939064 81.454491 
C 403.271447 81.122108 403.458204 80.671237 403.458204 80.201176 
C 403.458204 79.731116 403.271447 79.280245 402.939064 78.947862 
C 402.606681 78.61548 402.15581 78.428723 401.68575 78.428723 
C 401.21569 78.428723 400.764819 78.61548 400.432436 78.947862 
C 400.100053 79.280245 399.913296 79.731116 399.913296 80.201176 
C 399.913296 80.671237 400.100053 81.122108 400.432436 81.454491 
C 400.764819 81.786873 401.21569 81.97363 401.68575 81.97363 
z
" style="fill:#5784db;stroke:#000000;stroke-width:0.886227;"/>
    <path clip-path="url(#p5e7e8728dc)" d="M 396.76575 65.667748 
C 397.23581 65.667748 397.686681 65.480991 398.019064 65.148608 
C 398.351447 64.816225 398.538204 64.365354 398.538204 63.895294 
C 398.538204 63.425234 398.351447 62.974363 398.019064 62.64198 
C 397.686681 62.309597 397.23581 62.12284 396.76575 62.12284 
C 396.29569 62.12284 395.844819 62.309597 395.512436 62.64198 
C 395.180053 62.974363 394.993296 63.425234 394.993296 63.895294 
C 394.993296 64.365354 395.180053 64.816225 395.512436 65.148608 
C 395.844819 65.480991 396.29569 65.667748 396.76575 65.667748 
z
" style="fill:#7957db;stroke:#000000;stroke-width:0.886227;"/>
    <path clip-path="url(#p5e7e8728dc)" d="M 396.76575 49.361866 
C 397.23581 49.361866 397.686681 49.175109 398.019064 48.842726 
C 398.351447 48.510343 398.538204 48.059472 398.538204 47.589412 
C 398.538204 47.119352 398.351447 46.66848 398.019064 46.336098 
C 397.686681 46.003715 397.23581 45.816958 396.76575 45.816958 
C 396.29569 45.816958 395.844819 46.003715 395.512436 46.336098 
C 395.180053 46.66848 394.993296 47.119352 394.993296 47.589412 
C 394.993296 48.059472 395.180053 48.510343 395.512436 48.842726 
C 395.844819 49.175109 396.29569 49.361866 396.76575 49.361866 
z
" style="fill:#c957db;stroke:#000000;stroke-width:0.886227;"/>
    <path clip-path="url(#p5e7e8728dc)" d="M 396.76575 33.055983 
C 397.23581 33.055983 397.686681 32.869226 398.019064 32.536844 
C 398.351447 32.204461 398.538204 31.75359 398.538204 31.283529 
C 398.538204 30.813469 398.351447 30.362598 398.019064 30.030215 
C 397.686681 29.697832 397.23581 29.511076 396.76575 29.511076 
C 396.29569 29.511076 395.844819 29.697832 395.512436 30.030215 
C 395.180053 30.362598 394.993296 30.813469 394.993296 31.283529 
C 394.993296 31.75359 395.180053 32.204461 395.512436 32.536844 
C 395.844819 32.869226 396.29569 33.055983 396.76575 33.055983 
z
" style="fill:#db579e;stroke:#000000;stroke-width:0.886227;"/>
   </g>
   <g id="patch_7">
    <path d="M 298.36575 21.5 
L 406.60575 21.5 
L 406.60575 7.2 
L 298.36575 7.2 
z
" style="fill:#cccccc;stroke:#7f7f7f;stroke-linejoin:miter;"/>
   </g>
   <g id="text_28">
    <!-- recall -->
    <defs>
     <path d="M 9.421875 75.984375 
L 18.40625 75.984375 
L 18.40625 0 
L 9.421875 0 
z
" id="DejaVuSans-108"/>
    </defs>
    <g style="fill:#1a1a1a;" transform="translate(340.4105 16.77825)scale(0.088 -0.088)">
     <use xlink:href="#DejaVuSans-114"/>
     <use x="41.082031" xlink:href="#DejaVuSans-101"/>
     <use x="102.605469" xlink:href="#DejaVuSans-99"/>
     <use x="157.585938" xlink:href="#DejaVuSans-97"/>
     <use x="218.865234" xlink:href="#DejaVuSans-108"/>
     <use x="246.648438" xlink:href="#DejaVuSans-108"/>
    </g>
   </g>
  </g>
 </g>
 <defs>
  <clipPath id="p60b69d18e4">
   <rect height="166.32" width="108.24" x="71.80575" y="21.5"/>
  </clipPath>
  <clipPath id="p85380c887b">
   <rect height="166.32" width="108.24" x="185.08575" y="21.5"/>
  </clipPath>
  <clipPath id="p5e7e8728dc">
   <rect height="166.32" width="108.24" x="298.36575" y="21.5"/>
  </clipPath>
 </defs>
</svg>
