<?xml version="1.0" encoding="utf-8" standalone="no"?>
<!DOCTYPE svg PUBLIC "-//W3C//DTD SVG 1.1//EN"
  "http://www.w3.org/Graphics/SVG/1.1/DTD/svg11.dtd">
<!-- Created with matplotlib (https://matplotlib.org/) -->
<svg height="208.48675pt" version="1.1" viewBox="0 0 413.80575 208.48675" width="413.80575pt" xmlns="http://www.w3.org/2000/svg" xmlns:xlink="http://www.w3.org/1999/xlink">
 <defs>
  <style type="text/css">
*{stroke-linecap:butt;stroke-linejoin:round;}
  </style>
 </defs>
 <g id="figure_1">
  <g id="patch_1">
   <path d="M 0 208.48675 
L 413.80575 208.48675 
L 413.80575 0 
L 0 0 
z
" style="fill:#ffffff;stroke:#ffffff;stroke-linejoin:miter;"/>
  </g>
  <g id="axes_1">
   <g id="patch_2">
    <path d="M 71.80575 187.82 
L 180.04575 187.82 
L 180.04575 21.5 
L 71.80575 21.5 
z
" style="fill:#ffffff;stroke:#7f7f7f;stroke-linejoin:miter;"/>
   </g>
   <g id="matplotlib.axis_1">
    <g id="xtick_1">
     <g id="line2d_1">
      <path clip-path="url(#pdce6d6dea5)" d="M 76.72575 187.82 
L 76.72575 21.5 
" style="fill:none;stroke:#e5e5e5;stroke-width:0.8;"/>
     </g>
     <g id="line2d_2">
      <path d="M 76.72575 187.82 
" style="fill:none;stroke:#000000;stroke-width:1.5;"/>
      <defs>
       <path d="M 0 0 
L 0 2.75 
" id="mde80345304" style="stroke:#000000;"/>
      </defs>
      <g>
       <use style="stroke:#000000;" x="76.72575" xlink:href="#mde80345304" y="187.82"/>
      </g>
     </g>
     <g id="text_1">
      <!-- 0 -->
      <defs>
       <path d="M 31.78125 66.40625 
Q 24.171875 66.40625 20.328125 58.90625 
Q 16.5 51.421875 16.5 36.375 
Q 16.5 21.390625 20.328125 13.890625 
Q 24.171875 6.390625 31.78125 6.390625 
Q 39.453125 6.390625 43.28125 13.890625 
Q 47.125 21.390625 47.125 36.375 
Q 47.125 51.421875 43.28125 58.90625 
Q 39.453125 66.40625 31.78125 66.40625 
z
M 31.78125 74.21875 
Q 44.046875 74.21875 50.515625 64.515625 
Q 56.984375 54.828125 56.984375 36.375 
Q 56.984375 17.96875 50.515625 8.265625 
Q 44.046875 -1.421875 31.78125 -1.421875 
Q 19.53125 -1.421875 13.0625 8.265625 
Q 6.59375 17.96875 6.59375 36.375 
Q 6.59375 54.828125 13.0625 64.515625 
Q 19.53125 74.21875 31.78125 74.21875 
z
" id="DejaVuSans-48"/>
      </defs>
      <g style="fill:#4d4d4d;" transform="translate(73.92625 199.456625)scale(0.088 -0.088)">
       <use xlink:href="#DejaVuSans-48"/>
      </g>
     </g>
    </g>
    <g id="xtick_2">
     <g id="line2d_3">
      <path clip-path="url(#pdce6d6dea5)" d="M 101.32575 187.82 
L 101.32575 21.5 
" style="fill:none;stroke:#e5e5e5;stroke-width:0.8;"/>
     </g>
     <g id="line2d_4">
      <path d="M 101.32575 187.82 
" style="fill:none;stroke:#000000;stroke-width:1.5;"/>
      <g>
       <use style="stroke:#000000;" x="101.32575" xlink:href="#mde80345304" y="187.82"/>
      </g>
     </g>
     <g id="text_2">
      <!-- 0.25 -->
      <defs>
       <path d="M 10.6875 12.40625 
L 21 12.40625 
L 21 0 
L 10.6875 0 
z
" id="DejaVuSans-46"/>
       <path d="M 19.1875 8.296875 
L 53.609375 8.296875 
L 53.609375 0 
L 7.328125 0 
L 7.328125 8.296875 
Q 12.9375 14.109375 22.625 23.890625 
Q 32.328125 33.6875 34.8125 36.53125 
Q 39.546875 41.84375 41.421875 45.53125 
Q 43.3125 49.21875 43.3125 52.78125 
Q 43.3125 58.59375 39.234375 62.25 
Q 35.15625 65.921875 28.609375 65.921875 
Q 23.96875 65.921875 18.8125 64.3125 
Q 13.671875 62.703125 7.8125 59.421875 
L 7.8125 69.390625 
Q 13.765625 71.78125 18.9375 73 
Q 24.125 74.21875 28.421875 74.21875 
Q 39.75 74.21875 46.484375 68.546875 
Q 53.21875 62.890625 53.21875 53.421875 
Q 53.21875 48.921875 51.53125 44.890625 
Q 49.859375 40.875 45.40625 35.40625 
Q 44.1875 33.984375 37.640625 27.21875 
Q 31.109375 20.453125 19.1875 8.296875 
z
" id="DejaVuSans-50"/>
       <path d="M 10.796875 72.90625 
L 49.515625 72.90625 
L 49.515625 64.59375 
L 19.828125 64.59375 
L 19.828125 46.734375 
Q 21.96875 47.46875 24.109375 47.828125 
Q 26.265625 48.1875 28.421875 48.1875 
Q 40.625 48.1875 47.75 41.5 
Q 54.890625 34.8125 54.890625 23.390625 
Q 54.890625 11.625 47.5625 5.09375 
Q 40.234375 -1.421875 26.90625 -1.421875 
Q 22.3125 -1.421875 17.546875 -0.640625 
Q 12.796875 0.140625 7.71875 1.703125 
L 7.71875 11.625 
Q 12.109375 9.234375 16.796875 8.0625 
Q 21.484375 6.890625 26.703125 6.890625 
Q 35.15625 6.890625 40.078125 11.328125 
Q 45.015625 15.765625 45.015625 23.390625 
Q 45.015625 31 40.078125 35.4375 
Q 35.15625 39.890625 26.703125 39.890625 
Q 22.75 39.890625 18.8125 39.015625 
Q 14.890625 38.140625 10.796875 36.28125 
z
" id="DejaVuSans-53"/>
      </defs>
      <g style="fill:#4d4d4d;" transform="translate(91.528875 199.456625)scale(0.088 -0.088)">
       <use xlink:href="#DejaVuSans-48"/>
       <use x="63.623047" xlink:href="#DejaVuSans-46"/>
       <use x="95.410156" xlink:href="#DejaVuSans-50"/>
       <use x="159.033203" xlink:href="#DejaVuSans-53"/>
      </g>
     </g>
    </g>
    <g id="xtick_3">
     <g id="line2d_5">
      <path clip-path="url(#pdce6d6dea5)" d="M 125.92575 187.82 
L 125.92575 21.5 
" style="fill:none;stroke:#e5e5e5;stroke-width:0.8;"/>
     </g>
     <g id="line2d_6">
      <path d="M 125.92575 187.82 
" style="fill:none;stroke:#000000;stroke-width:1.5;"/>
      <g>
       <use style="stroke:#000000;" x="125.92575" xlink:href="#mde80345304" y="187.82"/>
      </g>
     </g>
     <g id="text_3">
      <!-- 0.50 -->
      <g style="fill:#4d4d4d;" transform="translate(116.128875 199.456625)scale(0.088 -0.088)">
       <use xlink:href="#DejaVuSans-48"/>
       <use x="63.623047" xlink:href="#DejaVuSans-46"/>
       <use x="95.410156" xlink:href="#DejaVuSans-53"/>
       <use x="159.033203" xlink:href="#DejaVuSans-48"/>
      </g>
     </g>
    </g>
    <g id="xtick_4">
     <g id="line2d_7">
      <path clip-path="url(#pdce6d6dea5)" d="M 150.52575 187.82 
L 150.52575 21.5 
" style="fill:none;stroke:#e5e5e5;stroke-width:0.8;"/>
     </g>
     <g id="line2d_8">
      <path d="M 150.52575 187.82 
" style="fill:none;stroke:#000000;stroke-width:1.5;"/>
      <g>
       <use style="stroke:#000000;" x="150.52575" xlink:href="#mde80345304" y="187.82"/>
      </g>
     </g>
     <g id="text_4">
      <!-- 0.75 -->
      <defs>
       <path d="M 8.203125 72.90625 
L 55.078125 72.90625 
L 55.078125 68.703125 
L 28.609375 0 
L 18.3125 0 
L 43.21875 64.59375 
L 8.203125 64.59375 
z
" id="DejaVuSans-55"/>
      </defs>
      <g style="fill:#4d4d4d;" transform="translate(140.728875 199.456625)scale(0.088 -0.088)">
       <use xlink:href="#DejaVuSans-48"/>
       <use x="63.623047" xlink:href="#DejaVuSans-46"/>
       <use x="95.410156" xlink:href="#DejaVuSans-55"/>
       <use x="159.033203" xlink:href="#DejaVuSans-53"/>
      </g>
     </g>
    </g>
    <g id="xtick_5">
     <g id="line2d_9">
      <path clip-path="url(#pdce6d6dea5)" d="M 175.12575 187.82 
L 175.12575 21.5 
" style="fill:none;stroke:#e5e5e5;stroke-width:0.8;"/>
     </g>
     <g id="line2d_10">
      <path d="M 175.12575 187.82 
" style="fill:none;stroke:#000000;stroke-width:1.5;"/>
      <g>
       <use style="stroke:#000000;" x="175.12575" xlink:href="#mde80345304" y="187.82"/>
      </g>
     </g>
     <g id="text_5">
      <!-- 1 -->
      <defs>
       <path d="M 12.40625 8.296875 
L 28.515625 8.296875 
L 28.515625 63.921875 
L 10.984375 60.40625 
L 10.984375 69.390625 
L 28.421875 72.90625 
L 38.28125 72.90625 
L 38.28125 8.296875 
L 54.390625 8.296875 
L 54.390625 0 
L 12.40625 0 
z
" id="DejaVuSans-49"/>
      </defs>
      <g style="fill:#4d4d4d;" transform="translate(172.32625 199.456625)scale(0.088 -0.088)">
       <use xlink:href="#DejaVuSans-49"/>
      </g>
     </g>
    </g>
    <g id="xtick_6">
     <g id="line2d_11">
      <path clip-path="url(#pdce6d6dea5)" d="M 89.02575 187.82 
L 89.02575 21.5 
" style="fill:none;stroke:#fafafa;"/>
     </g>
     <g id="line2d_12">
      <path d="M 89.02575 187.82 
" style="fill:none;stroke:#000000;stroke-width:1.5;"/>
      <defs>
       <path d="M 0 0 
L 0 1.375 
" id="mcae80729a7" style="stroke:#000000;"/>
      </defs>
      <g>
       <use style="stroke:#000000;" x="89.02575" xlink:href="#mcae80729a7" y="187.82"/>
      </g>
     </g>
    </g>
    <g id="xtick_7">
     <g id="line2d_13">
      <path clip-path="url(#pdce6d6dea5)" d="M 113.62575 187.82 
L 113.62575 21.5 
" style="fill:none;stroke:#fafafa;"/>
     </g>
     <g id="line2d_14">
      <path d="M 113.62575 187.82 
" style="fill:none;stroke:#000000;stroke-width:1.5;"/>
      <g>
       <use style="stroke:#000000;" x="113.62575" xlink:href="#mcae80729a7" y="187.82"/>
      </g>
     </g>
    </g>
    <g id="xtick_8">
     <g id="line2d_15">
      <path clip-path="url(#pdce6d6dea5)" d="M 138.22575 187.82 
L 138.22575 21.5 
" style="fill:none;stroke:#fafafa;"/>
     </g>
     <g id="line2d_16">
      <path d="M 138.22575 187.82 
" style="fill:none;stroke:#000000;stroke-width:1.5;"/>
      <g>
       <use style="stroke:#000000;" x="138.22575" xlink:href="#mcae80729a7" y="187.82"/>
      </g>
     </g>
    </g>
    <g id="xtick_9">
     <g id="line2d_17">
      <path clip-path="url(#pdce6d6dea5)" d="M 162.82575 187.82 
L 162.82575 21.5 
" style="fill:none;stroke:#fafafa;"/>
     </g>
     <g id="line2d_18">
      <path d="M 162.82575 187.82 
" style="fill:none;stroke:#000000;stroke-width:1.5;"/>
      <g>
       <use style="stroke:#000000;" x="162.82575" xlink:href="#mcae80729a7" y="187.82"/>
      </g>
     </g>
    </g>
   </g>
   <g id="matplotlib.axis_2">
    <g id="ytick_1">
     <g id="line2d_19">
      <path clip-path="url(#pdce6d6dea5)" d="M 71.80575 168.629231 
L 180.04575 168.629231 
" style="fill:none;stroke:#e5e5e5;stroke-width:0.8;"/>
     </g>
     <g id="line2d_20">
      <path d="M 71.80575 168.629231 
" style="fill:none;stroke:#000000;stroke-width:1.5;"/>
      <defs>
       <path d="M 0 0 
L -2.75 0 
" id="m4422e50788" style="stroke:#000000;"/>
      </defs>
      <g>
       <use style="stroke:#000000;" x="71.80575" xlink:href="#m4422e50788" y="168.629231"/>
      </g>
     </g>
     <g id="text_6">
      <!-- CD -->
      <defs>
       <path d="M 64.40625 67.28125 
L 64.40625 56.890625 
Q 59.421875 61.53125 53.78125 63.8125 
Q 48.140625 66.109375 41.796875 66.109375 
Q 29.296875 66.109375 22.65625 58.46875 
Q 16.015625 50.828125 16.015625 36.375 
Q 16.015625 21.96875 22.65625 14.328125 
Q 29.296875 6.6875 41.796875 6.6875 
Q 48.140625 6.6875 53.78125 8.984375 
Q 59.421875 11.28125 64.40625 15.921875 
L 64.40625 5.609375 
Q 59.234375 2.09375 53.4375 0.328125 
Q 47.65625 -1.421875 41.21875 -1.421875 
Q 24.65625 -1.421875 15.125 8.703125 
Q 5.609375 18.84375 5.609375 36.375 
Q 5.609375 53.953125 15.125 64.078125 
Q 24.65625 74.21875 41.21875 74.21875 
Q 47.75 74.21875 53.53125 72.484375 
Q 59.328125 70.75 64.40625 67.28125 
z
" id="DejaVuSans-67"/>
       <path d="M 19.671875 64.796875 
L 19.671875 8.109375 
L 31.59375 8.109375 
Q 46.6875 8.109375 53.6875 14.9375 
Q 60.6875 21.78125 60.6875 36.53125 
Q 60.6875 51.171875 53.6875 57.984375 
Q 46.6875 64.796875 31.59375 64.796875 
z
M 9.8125 72.90625 
L 30.078125 72.90625 
Q 51.265625 72.90625 61.171875 64.09375 
Q 71.09375 55.28125 71.09375 36.53125 
Q 71.09375 17.671875 61.125 8.828125 
Q 51.171875 0 30.078125 0 
L 9.8125 0 
z
" id="DejaVuSans-68"/>
      </defs>
      <g style="fill:#4d4d4d;" transform="translate(53.934875 171.057481)scale(0.088 -0.088)">
       <use xlink:href="#DejaVuSans-67"/>
       <use x="69.824219" xlink:href="#DejaVuSans-68"/>
      </g>
     </g>
    </g>
    <g id="ytick_2">
     <g id="line2d_21">
      <path clip-path="url(#pdce6d6dea5)" d="M 71.80575 136.644615 
L 180.04575 136.644615 
" style="fill:none;stroke:#e5e5e5;stroke-width:0.8;"/>
     </g>
     <g id="line2d_22">
      <path d="M 71.80575 136.644615 
" style="fill:none;stroke:#000000;stroke-width:1.5;"/>
      <g>
       <use style="stroke:#000000;" x="71.80575" xlink:href="#m4422e50788" y="136.644615"/>
      </g>
     </g>
     <g id="text_7">
      <!-- accuracy -->
      <defs>
       <path d="M 34.28125 27.484375 
Q 23.390625 27.484375 19.1875 25 
Q 14.984375 22.515625 14.984375 16.5 
Q 14.984375 11.71875 18.140625 8.90625 
Q 21.296875 6.109375 26.703125 6.109375 
Q 34.1875 6.109375 38.703125 11.40625 
Q 43.21875 16.703125 43.21875 25.484375 
L 43.21875 27.484375 
z
M 52.203125 31.203125 
L 52.203125 0 
L 43.21875 0 
L 43.21875 8.296875 
Q 40.140625 3.328125 35.546875 0.953125 
Q 30.953125 -1.421875 24.3125 -1.421875 
Q 15.921875 -1.421875 10.953125 3.296875 
Q 6 8.015625 6 15.921875 
Q 6 25.140625 12.171875 29.828125 
Q 18.359375 34.515625 30.609375 34.515625 
L 43.21875 34.515625 
L 43.21875 35.40625 
Q 43.21875 41.609375 39.140625 45 
Q 35.0625 48.390625 27.6875 48.390625 
Q 23 48.390625 18.546875 47.265625 
Q 14.109375 46.140625 10.015625 43.890625 
L 10.015625 52.203125 
Q 14.9375 54.109375 19.578125 55.046875 
Q 24.21875 56 28.609375 56 
Q 40.484375 56 46.34375 49.84375 
Q 52.203125 43.703125 52.203125 31.203125 
z
" id="DejaVuSans-97"/>
       <path d="M 48.78125 52.59375 
L 48.78125 44.1875 
Q 44.96875 46.296875 41.140625 47.34375 
Q 37.3125 48.390625 33.40625 48.390625 
Q 24.65625 48.390625 19.8125 42.84375 
Q 14.984375 37.3125 14.984375 27.296875 
Q 14.984375 17.28125 19.8125 11.734375 
Q 24.65625 6.203125 33.40625 6.203125 
Q 37.3125 6.203125 41.140625 7.25 
Q 44.96875 8.296875 48.78125 10.40625 
L 48.78125 2.09375 
Q 45.015625 0.34375 40.984375 -0.53125 
Q 36.96875 -1.421875 32.421875 -1.421875 
Q 20.0625 -1.421875 12.78125 6.34375 
Q 5.515625 14.109375 5.515625 27.296875 
Q 5.515625 40.671875 12.859375 48.328125 
Q 20.21875 56 33.015625 56 
Q 37.15625 56 41.109375 55.140625 
Q 45.0625 54.296875 48.78125 52.59375 
z
" id="DejaVuSans-99"/>
       <path d="M 8.5 21.578125 
L 8.5 54.6875 
L 17.484375 54.6875 
L 17.484375 21.921875 
Q 17.484375 14.15625 20.5 10.265625 
Q 23.53125 6.390625 29.59375 6.390625 
Q 36.859375 6.390625 41.078125 11.03125 
Q 45.3125 15.671875 45.3125 23.6875 
L 45.3125 54.6875 
L 54.296875 54.6875 
L 54.296875 0 
L 45.3125 0 
L 45.3125 8.40625 
Q 42.046875 3.421875 37.71875 1 
Q 33.40625 -1.421875 27.6875 -1.421875 
Q 18.265625 -1.421875 13.375 4.4375 
Q 8.5 10.296875 8.5 21.578125 
z
M 31.109375 56 
z
" id="DejaVuSans-117"/>
       <path d="M 41.109375 46.296875 
Q 39.59375 47.171875 37.8125 47.578125 
Q 36.03125 48 33.890625 48 
Q 26.265625 48 22.1875 43.046875 
Q 18.109375 38.09375 18.109375 28.8125 
L 18.109375 0 
L 9.078125 0 
L 9.078125 54.6875 
L 18.109375 54.6875 
L 18.109375 46.1875 
Q 20.953125 51.171875 25.484375 53.578125 
Q 30.03125 56 36.53125 56 
Q 37.453125 56 38.578125 55.875 
Q 39.703125 55.765625 41.0625 55.515625 
z
" id="DejaVuSans-114"/>
       <path d="M 32.171875 -5.078125 
Q 28.375 -14.84375 24.75 -17.8125 
Q 21.140625 -20.796875 15.09375 -20.796875 
L 7.90625 -20.796875 
L 7.90625 -13.28125 
L 13.1875 -13.28125 
Q 16.890625 -13.28125 18.9375 -11.515625 
Q 21 -9.765625 23.484375 -3.21875 
L 25.09375 0.875 
L 2.984375 54.6875 
L 12.5 54.6875 
L 29.59375 11.921875 
L 46.6875 54.6875 
L 56.203125 54.6875 
z
" id="DejaVuSans-121"/>
      </defs>
      <g style="fill:#4d4d4d;" transform="translate(27.15125 139.072865)scale(0.088 -0.088)">
       <use xlink:href="#DejaVuSans-97"/>
       <use x="61.279297" xlink:href="#DejaVuSans-99"/>
       <use x="116.259766" xlink:href="#DejaVuSans-99"/>
       <use x="171.240234" xlink:href="#DejaVuSans-117"/>
       <use x="234.619141" xlink:href="#DejaVuSans-114"/>
       <use x="275.732422" xlink:href="#DejaVuSans-97"/>
       <use x="337.011719" xlink:href="#DejaVuSans-99"/>
       <use x="391.992188" xlink:href="#DejaVuSans-121"/>
      </g>
     </g>
    </g>
    <g id="ytick_3">
     <g id="line2d_23">
      <path clip-path="url(#pdce6d6dea5)" d="M 71.80575 104.66 
L 180.04575 104.66 
" style="fill:none;stroke:#e5e5e5;stroke-width:0.8;"/>
     </g>
     <g id="line2d_24">
      <path d="M 71.80575 104.66 
" style="fill:none;stroke:#000000;stroke-width:1.5;"/>
      <g>
       <use style="stroke:#000000;" x="71.80575" xlink:href="#m4422e50788" y="104.66"/>
      </g>
     </g>
     <g id="text_8">
      <!-- macro avg -->
      <defs>
       <path d="M 52 44.1875 
Q 55.375 50.25 60.0625 53.125 
Q 64.75 56 71.09375 56 
Q 79.640625 56 84.28125 50.015625 
Q 88.921875 44.046875 88.921875 33.015625 
L 88.921875 0 
L 79.890625 0 
L 79.890625 32.71875 
Q 79.890625 40.578125 77.09375 44.375 
Q 74.3125 48.1875 68.609375 48.1875 
Q 61.625 48.1875 57.5625 43.546875 
Q 53.515625 38.921875 53.515625 30.90625 
L 53.515625 0 
L 44.484375 0 
L 44.484375 32.71875 
Q 44.484375 40.625 41.703125 44.40625 
Q 38.921875 48.1875 33.109375 48.1875 
Q 26.21875 48.1875 22.15625 43.53125 
Q 18.109375 38.875 18.109375 30.90625 
L 18.109375 0 
L 9.078125 0 
L 9.078125 54.6875 
L 18.109375 54.6875 
L 18.109375 46.1875 
Q 21.1875 51.21875 25.484375 53.609375 
Q 29.78125 56 35.6875 56 
Q 41.65625 56 45.828125 52.96875 
Q 50 49.953125 52 44.1875 
z
" id="DejaVuSans-109"/>
       <path d="M 30.609375 48.390625 
Q 23.390625 48.390625 19.1875 42.75 
Q 14.984375 37.109375 14.984375 27.296875 
Q 14.984375 17.484375 19.15625 11.84375 
Q 23.34375 6.203125 30.609375 6.203125 
Q 37.796875 6.203125 41.984375 11.859375 
Q 46.1875 17.53125 46.1875 27.296875 
Q 46.1875 37.015625 41.984375 42.703125 
Q 37.796875 48.390625 30.609375 48.390625 
z
M 30.609375 56 
Q 42.328125 56 49.015625 48.375 
Q 55.71875 40.765625 55.71875 27.296875 
Q 55.71875 13.875 49.015625 6.21875 
Q 42.328125 -1.421875 30.609375 -1.421875 
Q 18.84375 -1.421875 12.171875 6.21875 
Q 5.515625 13.875 5.515625 27.296875 
Q 5.515625 40.765625 12.171875 48.375 
Q 18.84375 56 30.609375 56 
z
" id="DejaVuSans-111"/>
       <path id="DejaVuSans-32"/>
       <path d="M 2.984375 54.6875 
L 12.5 54.6875 
L 29.59375 8.796875 
L 46.6875 54.6875 
L 56.203125 54.6875 
L 35.6875 0 
L 23.484375 0 
z
" id="DejaVuSans-118"/>
       <path d="M 45.40625 27.984375 
Q 45.40625 37.75 41.375 43.109375 
Q 37.359375 48.484375 30.078125 48.484375 
Q 22.859375 48.484375 18.828125 43.109375 
Q 14.796875 37.75 14.796875 27.984375 
Q 14.796875 18.265625 18.828125 12.890625 
Q 22.859375 7.515625 30.078125 7.515625 
Q 37.359375 7.515625 41.375 12.890625 
Q 45.40625 18.265625 45.40625 27.984375 
z
M 54.390625 6.78125 
Q 54.390625 -7.171875 48.1875 -13.984375 
Q 42 -20.796875 29.203125 -20.796875 
Q 24.46875 -20.796875 20.265625 -20.09375 
Q 16.0625 -19.390625 12.109375 -17.921875 
L 12.109375 -9.1875 
Q 16.0625 -11.328125 19.921875 -12.34375 
Q 23.78125 -13.375 27.78125 -13.375 
Q 36.625 -13.375 41.015625 -8.765625 
Q 45.40625 -4.15625 45.40625 5.171875 
L 45.40625 9.625 
Q 42.625 4.78125 38.28125 2.390625 
Q 33.9375 0 27.875 0 
Q 17.828125 0 11.671875 7.65625 
Q 5.515625 15.328125 5.515625 27.984375 
Q 5.515625 40.671875 11.671875 48.328125 
Q 17.828125 56 27.875 56 
Q 33.9375 56 38.28125 53.609375 
Q 42.625 51.21875 45.40625 46.390625 
L 45.40625 54.6875 
L 54.390625 54.6875 
z
" id="DejaVuSans-103"/>
      </defs>
      <g style="fill:#4d4d4d;" transform="translate(20.068625 107.08825)scale(0.088 -0.088)">
       <use xlink:href="#DejaVuSans-109"/>
       <use x="97.412109" xlink:href="#DejaVuSans-97"/>
       <use x="158.691406" xlink:href="#DejaVuSans-99"/>
       <use x="213.671875" xlink:href="#DejaVuSans-114"/>
       <use x="254.753906" xlink:href="#DejaVuSans-111"/>
       <use x="315.935547" xlink:href="#DejaVuSans-32"/>
       <use x="347.722656" xlink:href="#DejaVuSans-97"/>
       <use x="409.001953" xlink:href="#DejaVuSans-118"/>
       <use x="468.181641" xlink:href="#DejaVuSans-103"/>
      </g>
     </g>
    </g>
    <g id="ytick_4">
     <g id="line2d_25">
      <path clip-path="url(#pdce6d6dea5)" d="M 71.80575 72.675385 
L 180.04575 72.675385 
" style="fill:none;stroke:#e5e5e5;stroke-width:0.8;"/>
     </g>
     <g id="line2d_26">
      <path d="M 71.80575 72.675385 
" style="fill:none;stroke:#000000;stroke-width:1.5;"/>
      <g>
       <use style="stroke:#000000;" x="71.80575" xlink:href="#m4422e50788" y="72.675385"/>
      </g>
     </g>
     <g id="text_9">
      <!-- no -->
      <defs>
       <path d="M 54.890625 33.015625 
L 54.890625 0 
L 45.90625 0 
L 45.90625 32.71875 
Q 45.90625 40.484375 42.875 44.328125 
Q 39.84375 48.1875 33.796875 48.1875 
Q 26.515625 48.1875 22.3125 43.546875 
Q 18.109375 38.921875 18.109375 30.90625 
L 18.109375 0 
L 9.078125 0 
L 9.078125 54.6875 
L 18.109375 54.6875 
L 18.109375 46.1875 
Q 21.34375 51.125 25.703125 53.5625 
Q 30.078125 56 35.796875 56 
Q 45.21875 56 50.046875 50.171875 
Q 54.890625 44.34375 54.890625 33.015625 
z
" id="DejaVuSans-110"/>
      </defs>
      <g style="fill:#4d4d4d;" transform="translate(55.89425 75.103635)scale(0.088 -0.088)">
       <use xlink:href="#DejaVuSans-110"/>
       <use x="63.378906" xlink:href="#DejaVuSans-111"/>
      </g>
     </g>
    </g>
    <g id="ytick_5">
     <g id="line2d_27">
      <path clip-path="url(#pdce6d6dea5)" d="M 71.80575 40.690769 
L 180.04575 40.690769 
" style="fill:none;stroke:#e5e5e5;stroke-width:0.8;"/>
     </g>
     <g id="line2d_28">
      <path d="M 71.80575 40.690769 
" style="fill:none;stroke:#000000;stroke-width:1.5;"/>
      <g>
       <use style="stroke:#000000;" x="71.80575" xlink:href="#m4422e50788" y="40.690769"/>
      </g>
     </g>
     <g id="text_10">
      <!-- weighted avg -->
      <defs>
       <path d="M 4.203125 54.6875 
L 13.1875 54.6875 
L 24.421875 12.015625 
L 35.59375 54.6875 
L 46.1875 54.6875 
L 57.421875 12.015625 
L 68.609375 54.6875 
L 77.59375 54.6875 
L 63.28125 0 
L 52.6875 0 
L 40.921875 44.828125 
L 29.109375 0 
L 18.5 0 
z
" id="DejaVuSans-119"/>
       <path d="M 56.203125 29.59375 
L 56.203125 25.203125 
L 14.890625 25.203125 
Q 15.484375 15.921875 20.484375 11.0625 
Q 25.484375 6.203125 34.421875 6.203125 
Q 39.59375 6.203125 44.453125 7.46875 
Q 49.3125 8.734375 54.109375 11.28125 
L 54.109375 2.78125 
Q 49.265625 0.734375 44.1875 -0.34375 
Q 39.109375 -1.421875 33.890625 -1.421875 
Q 20.796875 -1.421875 13.15625 6.1875 
Q 5.515625 13.8125 5.515625 26.8125 
Q 5.515625 40.234375 12.765625 48.109375 
Q 20.015625 56 32.328125 56 
Q 43.359375 56 49.78125 48.890625 
Q 56.203125 41.796875 56.203125 29.59375 
z
M 47.21875 32.234375 
Q 47.125 39.59375 43.09375 43.984375 
Q 39.0625 48.390625 32.421875 48.390625 
Q 24.90625 48.390625 20.390625 44.140625 
Q 15.875 39.890625 15.1875 32.171875 
z
" id="DejaVuSans-101"/>
       <path d="M 9.421875 54.6875 
L 18.40625 54.6875 
L 18.40625 0 
L 9.421875 0 
z
M 9.421875 75.984375 
L 18.40625 75.984375 
L 18.40625 64.59375 
L 9.421875 64.59375 
z
" id="DejaVuSans-105"/>
       <path d="M 54.890625 33.015625 
L 54.890625 0 
L 45.90625 0 
L 45.90625 32.71875 
Q 45.90625 40.484375 42.875 44.328125 
Q 39.84375 48.1875 33.796875 48.1875 
Q 26.515625 48.1875 22.3125 43.546875 
Q 18.109375 38.921875 18.109375 30.90625 
L 18.109375 0 
L 9.078125 0 
L 9.078125 75.984375 
L 18.109375 75.984375 
L 18.109375 46.1875 
Q 21.34375 51.125 25.703125 53.5625 
Q 30.078125 56 35.796875 56 
Q 45.21875 56 50.046875 50.171875 
Q 54.890625 44.34375 54.890625 33.015625 
z
" id="DejaVuSans-104"/>
       <path d="M 18.3125 70.21875 
L 18.3125 54.6875 
L 36.8125 54.6875 
L 36.8125 47.703125 
L 18.3125 47.703125 
L 18.3125 18.015625 
Q 18.3125 11.328125 20.140625 9.421875 
Q 21.96875 7.515625 27.59375 7.515625 
L 36.8125 7.515625 
L 36.8125 0 
L 27.59375 0 
Q 17.1875 0 13.234375 3.875 
Q 9.28125 7.765625 9.28125 18.015625 
L 9.28125 47.703125 
L 2.6875 47.703125 
L 2.6875 54.6875 
L 9.28125 54.6875 
L 9.28125 70.21875 
z
" id="DejaVuSans-116"/>
       <path d="M 45.40625 46.390625 
L 45.40625 75.984375 
L 54.390625 75.984375 
L 54.390625 0 
L 45.40625 0 
L 45.40625 8.203125 
Q 42.578125 3.328125 38.25 0.953125 
Q 33.9375 -1.421875 27.875 -1.421875 
Q 17.96875 -1.421875 11.734375 6.484375 
Q 5.515625 14.40625 5.515625 27.296875 
Q 5.515625 40.1875 11.734375 48.09375 
Q 17.96875 56 27.875 56 
Q 33.9375 56 38.25 53.625 
Q 42.578125 51.265625 45.40625 46.390625 
z
M 14.796875 27.296875 
Q 14.796875 17.390625 18.875 11.75 
Q 22.953125 6.109375 30.078125 6.109375 
Q 37.203125 6.109375 41.296875 11.75 
Q 45.40625 17.390625 45.40625 27.296875 
Q 45.40625 37.203125 41.296875 42.84375 
Q 37.203125 48.484375 30.078125 48.484375 
Q 22.953125 48.484375 18.875 42.84375 
Q 14.796875 37.203125 14.796875 27.296875 
z
" id="DejaVuSans-100"/>
      </defs>
      <g style="fill:#4d4d4d;" transform="translate(7.2 43.119019)scale(0.088 -0.088)">
       <use xlink:href="#DejaVuSans-119"/>
       <use x="81.787109" xlink:href="#DejaVuSans-101"/>
       <use x="143.310547" xlink:href="#DejaVuSans-105"/>
       <use x="171.09375" xlink:href="#DejaVuSans-103"/>
       <use x="234.570312" xlink:href="#DejaVuSans-104"/>
       <use x="297.949219" xlink:href="#DejaVuSans-116"/>
       <use x="337.158203" xlink:href="#DejaVuSans-101"/>
       <use x="398.681641" xlink:href="#DejaVuSans-100"/>
       <use x="462.158203" xlink:href="#DejaVuSans-32"/>
       <use x="493.945312" xlink:href="#DejaVuSans-97"/>
       <use x="555.224609" xlink:href="#DejaVuSans-118"/>
       <use x="614.404297" xlink:href="#DejaVuSans-103"/>
      </g>
     </g>
    </g>
   </g>
   <g id="PathCollection_1">
    <path clip-path="url(#pdce6d6dea5)" d="M 149.54175 170.401685 
C 150.01181 170.401685 150.462681 170.214928 150.795064 169.882545 
C 151.127447 169.550162 151.314204 169.099291 151.314204 168.629231 
C 151.314204 168.159171 151.127447 167.708299 150.795064 167.375917 
C 150.462681 167.043534 150.01181 166.856777 149.54175 166.856777 
C 149.07169 166.856777 148.620819 167.043534 148.288436 167.375917 
C 147.956053 167.708299 147.769296 168.159171 147.769296 168.629231 
C 147.769296 169.099291 147.956053 169.550162 148.288436 169.882545 
C 148.620819 170.214928 149.07169 170.401685 149.54175 170.401685 
z
" style="fill:#db5f57;stroke:#000000;stroke-width:0.886227;"/>
    <path clip-path="url(#pdce6d6dea5)" d="M 148.55775 74.447838 
C 149.02781 74.447838 149.478681 74.261082 149.811064 73.928699 
C 150.143447 73.596316 150.330204 73.145445 150.330204 72.675385 
C 150.330204 72.205324 150.143447 71.754453 149.811064 71.42207 
C 149.478681 71.089688 149.02781 70.902931 148.55775 70.902931 
C 148.08769 70.902931 147.636819 71.089688 147.304436 71.42207 
C 146.972053 71.754453 146.785296 72.205324 146.785296 72.675385 
C 146.785296 73.145445 146.972053 73.596316 147.304436 73.928699 
C 147.636819 74.261082 148.08769 74.447838 148.55775 74.447838 
z
" style="fill:#5784db;stroke:#000000;stroke-width:0.886227;"/>
    <path clip-path="url(#pdce6d6dea5)" d="M 149.54175 138.417069 
C 150.01181 138.417069 150.462681 138.230312 150.795064 137.89793 
C 151.127447 137.565547 151.314204 137.114676 151.314204 136.644615 
C 151.314204 136.174555 151.127447 135.723684 150.795064 135.391301 
C 150.462681 135.058918 150.01181 134.872162 149.54175 134.872162 
C 149.07169 134.872162 148.620819 135.058918 148.288436 135.391301 
C 147.956053 135.723684 147.769296 136.174555 147.769296 136.644615 
C 147.769296 137.114676 147.956053 137.565547 148.288436 137.89793 
C 148.620819 138.230312 149.07169 138.417069 149.54175 138.417069 
z
" style="fill:#b9db57;stroke:#000000;stroke-width:0.886227;"/>
    <path clip-path="url(#pdce6d6dea5)" d="M 149.54175 106.432454 
C 150.01181 106.432454 150.462681 106.245697 150.795064 105.913314 
C 151.127447 105.580931 151.314204 105.13006 151.314204 104.66 
C 151.314204 104.18994 151.127447 103.739069 150.795064 103.406686 
C 150.462681 103.074303 150.01181 102.887546 149.54175 102.887546 
C 149.07169 102.887546 148.620819 103.074303 148.288436 103.406686 
C 147.956053 103.739069 147.769296 104.18994 147.769296 104.66 
C 147.769296 105.13006 147.956053 105.580931 148.288436 105.913314 
C 148.620819 106.245697 149.07169 106.432454 149.54175 106.432454 
z
" style="fill:#57db94;stroke:#000000;stroke-width:0.886227;"/>
    <path clip-path="url(#pdce6d6dea5)" d="M 149.54175 42.463223 
C 150.01181 42.463223 150.462681 42.276466 150.795064 41.944083 
C 151.127447 41.611701 151.314204 41.160829 151.314204 40.690769 
C 151.314204 40.220709 151.127447 39.769838 150.795064 39.437455 
C 150.462681 39.105072 150.01181 38.918315 149.54175 38.918315 
C 149.07169 38.918315 148.620819 39.105072 148.288436 39.437455 
C 147.956053 39.769838 147.769296 40.220709 147.769296 40.690769 
C 147.769296 41.160829 147.956053 41.611701 148.288436 41.944083 
C 148.620819 42.276466 149.07169 42.463223 149.54175 42.463223 
z
" style="fill:#c957db;stroke:#000000;stroke-width:0.886227;"/>
   </g>
   <g id="patch_3">
    <path d="M 71.80575 21.5 
L 180.04575 21.5 
L 180.04575 7.2 
L 71.80575 7.2 
z
" style="fill:#cccccc;stroke:#7f7f7f;stroke-linejoin:miter;"/>
   </g>
   <g id="text_11">
    <!-- f1-score -->
    <defs>
     <path d="M 37.109375 75.984375 
L 37.109375 68.5 
L 28.515625 68.5 
Q 23.6875 68.5 21.796875 66.546875 
Q 19.921875 64.59375 19.921875 59.515625 
L 19.921875 54.6875 
L 34.71875 54.6875 
L 34.71875 47.703125 
L 19.921875 47.703125 
L 19.921875 0 
L 10.890625 0 
L 10.890625 47.703125 
L 2.296875 47.703125 
L 2.296875 54.6875 
L 10.890625 54.6875 
L 10.890625 58.5 
Q 10.890625 67.625 15.140625 71.796875 
Q 19.390625 75.984375 28.609375 75.984375 
z
" id="DejaVuSans-102"/>
     <path d="M 4.890625 31.390625 
L 31.203125 31.390625 
L 31.203125 23.390625 
L 4.890625 23.390625 
z
" id="DejaVuSans-45"/>
     <path d="M 44.28125 53.078125 
L 44.28125 44.578125 
Q 40.484375 46.53125 36.375 47.5 
Q 32.28125 48.484375 27.875 48.484375 
Q 21.1875 48.484375 17.84375 46.4375 
Q 14.5 44.390625 14.5 40.28125 
Q 14.5 37.15625 16.890625 35.375 
Q 19.28125 33.59375 26.515625 31.984375 
L 29.59375 31.296875 
Q 39.15625 29.25 43.1875 25.515625 
Q 47.21875 21.78125 47.21875 15.09375 
Q 47.21875 7.46875 41.1875 3.015625 
Q 35.15625 -1.421875 24.609375 -1.421875 
Q 20.21875 -1.421875 15.453125 -0.5625 
Q 10.6875 0.296875 5.421875 2 
L 5.421875 11.28125 
Q 10.40625 8.6875 15.234375 7.390625 
Q 20.0625 6.109375 24.8125 6.109375 
Q 31.15625 6.109375 34.5625 8.28125 
Q 37.984375 10.453125 37.984375 14.40625 
Q 37.984375 18.0625 35.515625 20.015625 
Q 33.0625 21.96875 24.703125 23.78125 
L 21.578125 24.515625 
Q 13.234375 26.265625 9.515625 29.90625 
Q 5.8125 33.546875 5.8125 39.890625 
Q 5.8125 47.609375 11.28125 51.796875 
Q 16.75 56 26.8125 56 
Q 31.78125 56 36.171875 55.265625 
Q 40.578125 54.546875 44.28125 53.078125 
z
" id="DejaVuSans-115"/>
    </defs>
    <g style="fill:#1a1a1a;" transform="translate(108.071375 16.77825)scale(0.088 -0.088)">
     <use xlink:href="#DejaVuSans-102"/>
     <use x="35.205078" xlink:href="#DejaVuSans-49"/>
     <use x="98.828125" xlink:href="#DejaVuSans-45"/>
     <use x="134.912109" xlink:href="#DejaVuSans-115"/>
     <use x="187.011719" xlink:href="#DejaVuSans-99"/>
     <use x="241.992188" xlink:href="#DejaVuSans-111"/>
     <use x="303.173828" xlink:href="#DejaVuSans-114"/>
     <use x="344.255859" xlink:href="#DejaVuSans-101"/>
    </g>
   </g>
  </g>
  <g id="axes_2">
   <g id="patch_4">
    <path d="M 185.08575 187.82 
L 293.32575 187.82 
L 293.32575 21.5 
L 185.08575 21.5 
z
" style="fill:#ffffff;stroke:#7f7f7f;stroke-linejoin:miter;"/>
   </g>
   <g id="matplotlib.axis_3">
    <g id="xtick_10">
     <g id="line2d_29">
      <path clip-path="url(#p31bf7a301a)" d="M 190.00575 187.82 
L 190.00575 21.5 
" style="fill:none;stroke:#e5e5e5;stroke-linecap:square;stroke-width:0.8;"/>
     </g>
     <g id="line2d_30">
      <path d="M 190.00575 187.82 
" style="fill:none;stroke:#000000;stroke-linecap:square;stroke-width:1.5;"/>
      <g>
       <use style="stroke:#000000;" x="190.00575" xlink:href="#mde80345304" y="187.82"/>
      </g>
     </g>
     <g id="text_12">
      <!-- 0 -->
      <g style="fill:#4d4d4d;" transform="translate(187.20625 199.456625)scale(0.088 -0.088)">
       <use xlink:href="#DejaVuSans-48"/>
      </g>
     </g>
    </g>
    <g id="xtick_11">
     <g id="line2d_31">
      <path clip-path="url(#p31bf7a301a)" d="M 214.60575 187.82 
L 214.60575 21.5 
" style="fill:none;stroke:#e5e5e5;stroke-linecap:square;stroke-width:0.8;"/>
     </g>
     <g id="line2d_32">
      <path d="M 214.60575 187.82 
" style="fill:none;stroke:#000000;stroke-linecap:square;stroke-width:1.5;"/>
      <g>
       <use style="stroke:#000000;" x="214.60575" xlink:href="#mde80345304" y="187.82"/>
      </g>
     </g>
     <g id="text_13">
      <!-- 0.25 -->
      <g style="fill:#4d4d4d;" transform="translate(204.808875 199.456625)scale(0.088 -0.088)">
       <use xlink:href="#DejaVuSans-48"/>
       <use x="63.623047" xlink:href="#DejaVuSans-46"/>
       <use x="95.410156" xlink:href="#DejaVuSans-50"/>
       <use x="159.033203" xlink:href="#DejaVuSans-53"/>
      </g>
     </g>
    </g>
    <g id="xtick_12">
     <g id="line2d_33">
      <path clip-path="url(#p31bf7a301a)" d="M 239.20575 187.82 
L 239.20575 21.5 
" style="fill:none;stroke:#e5e5e5;stroke-linecap:square;stroke-width:0.8;"/>
     </g>
     <g id="line2d_34">
      <path d="M 239.20575 187.82 
" style="fill:none;stroke:#000000;stroke-linecap:square;stroke-width:1.5;"/>
      <g>
       <use style="stroke:#000000;" x="239.20575" xlink:href="#mde80345304" y="187.82"/>
      </g>
     </g>
     <g id="text_14">
      <!-- 0.50 -->
      <g style="fill:#4d4d4d;" transform="translate(229.408875 199.456625)scale(0.088 -0.088)">
       <use xlink:href="#DejaVuSans-48"/>
       <use x="63.623047" xlink:href="#DejaVuSans-46"/>
       <use x="95.410156" xlink:href="#DejaVuSans-53"/>
       <use x="159.033203" xlink:href="#DejaVuSans-48"/>
      </g>
     </g>
    </g>
    <g id="xtick_13">
     <g id="line2d_35">
      <path clip-path="url(#p31bf7a301a)" d="M 263.80575 187.82 
L 263.80575 21.5 
" style="fill:none;stroke:#e5e5e5;stroke-linecap:square;stroke-width:0.8;"/>
     </g>
     <g id="line2d_36">
      <path d="M 263.80575 187.82 
" style="fill:none;stroke:#000000;stroke-linecap:square;stroke-width:1.5;"/>
      <g>
       <use style="stroke:#000000;" x="263.80575" xlink:href="#mde80345304" y="187.82"/>
      </g>
     </g>
     <g id="text_15">
      <!-- 0.75 -->
      <g style="fill:#4d4d4d;" transform="translate(254.008875 199.456625)scale(0.088 -0.088)">
       <use xlink:href="#DejaVuSans-48"/>
       <use x="63.623047" xlink:href="#DejaVuSans-46"/>
       <use x="95.410156" xlink:href="#DejaVuSans-55"/>
       <use x="159.033203" xlink:href="#DejaVuSans-53"/>
      </g>
     </g>
    </g>
    <g id="xtick_14">
     <g id="line2d_37">
      <path clip-path="url(#p31bf7a301a)" d="M 288.40575 187.82 
L 288.40575 21.5 
" style="fill:none;stroke:#e5e5e5;stroke-linecap:square;stroke-width:0.8;"/>
     </g>
     <g id="line2d_38">
      <path d="M 288.40575 187.82 
" style="fill:none;stroke:#000000;stroke-linecap:square;stroke-width:1.5;"/>
      <g>
       <use style="stroke:#000000;" x="288.40575" xlink:href="#mde80345304" y="187.82"/>
      </g>
     </g>
     <g id="text_16">
      <!-- 1 -->
      <g style="fill:#4d4d4d;" transform="translate(285.60625 199.456625)scale(0.088 -0.088)">
       <use xlink:href="#DejaVuSans-49"/>
      </g>
     </g>
    </g>
    <g id="xtick_15">
     <g id="line2d_39">
      <path clip-path="url(#p31bf7a301a)" d="M 202.30575 187.82 
L 202.30575 21.5 
" style="fill:none;stroke:#fafafa;stroke-linecap:square;"/>
     </g>
     <g id="line2d_40">
      <path d="M 202.30575 187.82 
" style="fill:none;stroke:#000000;stroke-linecap:square;stroke-width:1.5;"/>
      <g>
       <use style="stroke:#000000;" x="202.30575" xlink:href="#mcae80729a7" y="187.82"/>
      </g>
     </g>
    </g>
    <g id="xtick_16">
     <g id="line2d_41">
      <path clip-path="url(#p31bf7a301a)" d="M 226.90575 187.82 
L 226.90575 21.5 
" style="fill:none;stroke:#fafafa;stroke-linecap:square;"/>
     </g>
     <g id="line2d_42">
      <path d="M 226.90575 187.82 
" style="fill:none;stroke:#000000;stroke-linecap:square;stroke-width:1.5;"/>
      <g>
       <use style="stroke:#000000;" x="226.90575" xlink:href="#mcae80729a7" y="187.82"/>
      </g>
     </g>
    </g>
    <g id="xtick_17">
     <g id="line2d_43">
      <path clip-path="url(#p31bf7a301a)" d="M 251.50575 187.82 
L 251.50575 21.5 
" style="fill:none;stroke:#fafafa;stroke-linecap:square;"/>
     </g>
     <g id="line2d_44">
      <path d="M 251.50575 187.82 
" style="fill:none;stroke:#000000;stroke-linecap:square;stroke-width:1.5;"/>
      <g>
       <use style="stroke:#000000;" x="251.50575" xlink:href="#mcae80729a7" y="187.82"/>
      </g>
     </g>
    </g>
    <g id="xtick_18">
     <g id="line2d_45">
      <path clip-path="url(#p31bf7a301a)" d="M 276.10575 187.82 
L 276.10575 21.5 
" style="fill:none;stroke:#fafafa;stroke-linecap:square;"/>
     </g>
     <g id="line2d_46">
      <path d="M 276.10575 187.82 
" style="fill:none;stroke:#000000;stroke-linecap:square;stroke-width:1.5;"/>
      <g>
       <use style="stroke:#000000;" x="276.10575" xlink:href="#mcae80729a7" y="187.82"/>
      </g>
     </g>
    </g>
   </g>
   <g id="matplotlib.axis_4">
    <g id="ytick_6">
     <g id="line2d_47">
      <path clip-path="url(#p31bf7a301a)" d="M 185.08575 168.629231 
L 293.32575 168.629231 
" style="fill:none;stroke:#e5e5e5;stroke-linecap:square;stroke-width:0.8;"/>
     </g>
    </g>
    <g id="ytick_7">
     <g id="line2d_48">
      <path clip-path="url(#p31bf7a301a)" d="M 185.08575 136.644615 
L 293.32575 136.644615 
" style="fill:none;stroke:#e5e5e5;stroke-linecap:square;stroke-width:0.8;"/>
     </g>
    </g>
    <g id="ytick_8">
     <g id="line2d_49">
      <path clip-path="url(#p31bf7a301a)" d="M 185.08575 104.66 
L 293.32575 104.66 
" style="fill:none;stroke:#e5e5e5;stroke-linecap:square;stroke-width:0.8;"/>
     </g>
    </g>
    <g id="ytick_9">
     <g id="line2d_50">
      <path clip-path="url(#p31bf7a301a)" d="M 185.08575 72.675385 
L 293.32575 72.675385 
" style="fill:none;stroke:#e5e5e5;stroke-linecap:square;stroke-width:0.8;"/>
     </g>
    </g>
    <g id="ytick_10">
     <g id="line2d_51">
      <path clip-path="url(#p31bf7a301a)" d="M 185.08575 40.690769 
L 293.32575 40.690769 
" style="fill:none;stroke:#e5e5e5;stroke-linecap:square;stroke-width:0.8;"/>
     </g>
    </g>
   </g>
   <g id="PathCollection_2">
    <path clip-path="url(#p31bf7a301a)" d="M 261.83775 170.401685 
C 262.30781 170.401685 262.758681 170.214928 263.091064 169.882545 
C 263.423447 169.550162 263.610204 169.099291 263.610204 168.629231 
C 263.610204 168.159171 263.423447 167.708299 263.091064 167.375917 
C 262.758681 167.043534 262.30781 166.856777 261.83775 166.856777 
C 261.36769 166.856777 260.916819 167.043534 260.584436 167.375917 
C 260.252053 167.708299 260.065296 168.159171 260.065296 168.629231 
C 260.065296 169.099291 260.252053 169.550162 260.584436 169.882545 
C 260.916819 170.214928 261.36769 170.401685 261.83775 170.401685 
z
" style="fill:#db5f57;stroke:#000000;stroke-width:0.886227;"/>
    <path clip-path="url(#p31bf7a301a)" d="M 263.80575 74.447838 
C 264.27581 74.447838 264.726681 74.261082 265.059064 73.928699 
C 265.391447 73.596316 265.578204 73.145445 265.578204 72.675385 
C 265.578204 72.205324 265.391447 71.754453 265.059064 71.42207 
C 264.726681 71.089688 264.27581 70.902931 263.80575 70.902931 
C 263.33569 70.902931 262.884819 71.089688 262.552436 71.42207 
C 262.220053 71.754453 262.033296 72.205324 262.033296 72.675385 
C 262.033296 73.145445 262.220053 73.596316 262.552436 73.928699 
C 262.884819 74.261082 263.33569 74.447838 263.80575 74.447838 
z
" style="fill:#5784db;stroke:#000000;stroke-width:0.886227;"/>
    <path clip-path="url(#p31bf7a301a)" d="M 262.82175 138.417069 
C 263.29181 138.417069 263.742681 138.230312 264.075064 137.89793 
C 264.407447 137.565547 264.594204 137.114676 264.594204 136.644615 
C 264.594204 136.174555 264.407447 135.723684 264.075064 135.391301 
C 263.742681 135.058918 263.29181 134.872162 262.82175 134.872162 
C 262.35169 134.872162 261.900819 135.058918 261.568436 135.391301 
C 261.236053 135.723684 261.049296 136.174555 261.049296 136.644615 
C 261.049296 137.114676 261.236053 137.565547 261.568436 137.89793 
C 261.900819 138.230312 262.35169 138.417069 262.82175 138.417069 
z
" style="fill:#b9db57;stroke:#000000;stroke-width:0.886227;"/>
    <path clip-path="url(#p31bf7a301a)" d="M 262.82175 106.432454 
C 263.29181 106.432454 263.742681 106.245697 264.075064 105.913314 
C 264.407447 105.580931 264.594204 105.13006 264.594204 104.66 
C 264.594204 104.18994 264.407447 103.739069 264.075064 103.406686 
C 263.742681 103.074303 263.29181 102.887546 262.82175 102.887546 
C 262.35169 102.887546 261.900819 103.074303 261.568436 103.406686 
C 261.236053 103.739069 261.049296 104.18994 261.049296 104.66 
C 261.049296 105.13006 261.236053 105.580931 261.568436 105.913314 
C 261.900819 106.245697 262.35169 106.432454 262.82175 106.432454 
z
" style="fill:#57db94;stroke:#000000;stroke-width:0.886227;"/>
    <path clip-path="url(#p31bf7a301a)" d="M 262.82175 42.463223 
C 263.29181 42.463223 263.742681 42.276466 264.075064 41.944083 
C 264.407447 41.611701 264.594204 41.160829 264.594204 40.690769 
C 264.594204 40.220709 264.407447 39.769838 264.075064 39.437455 
C 263.742681 39.105072 263.29181 38.918315 262.82175 38.918315 
C 262.35169 38.918315 261.900819 39.105072 261.568436 39.437455 
C 261.236053 39.769838 261.049296 40.220709 261.049296 40.690769 
C 261.049296 41.160829 261.236053 41.611701 261.568436 41.944083 
C 261.900819 42.276466 262.35169 42.463223 262.82175 42.463223 
z
" style="fill:#c957db;stroke:#000000;stroke-width:0.886227;"/>
   </g>
   <g id="patch_5">
    <path d="M 185.08575 21.5 
L 293.32575 21.5 
L 293.32575 7.2 
L 185.08575 7.2 
z
" style="fill:#cccccc;stroke:#7f7f7f;stroke-linejoin:miter;"/>
   </g>
   <g id="text_17">
    <!-- precision -->
    <defs>
     <path d="M 18.109375 8.203125 
L 18.109375 -20.796875 
L 9.078125 -20.796875 
L 9.078125 54.6875 
L 18.109375 54.6875 
L 18.109375 46.390625 
Q 20.953125 51.265625 25.265625 53.625 
Q 29.59375 56 35.59375 56 
Q 45.5625 56 51.78125 48.09375 
Q 58.015625 40.1875 58.015625 27.296875 
Q 58.015625 14.40625 51.78125 6.484375 
Q 45.5625 -1.421875 35.59375 -1.421875 
Q 29.59375 -1.421875 25.265625 0.953125 
Q 20.953125 3.328125 18.109375 8.203125 
z
M 48.6875 27.296875 
Q 48.6875 37.203125 44.609375 42.84375 
Q 40.53125 48.484375 33.40625 48.484375 
Q 26.265625 48.484375 22.1875 42.84375 
Q 18.109375 37.203125 18.109375 27.296875 
Q 18.109375 17.390625 22.1875 11.75 
Q 26.265625 6.109375 33.40625 6.109375 
Q 40.53125 6.109375 44.609375 11.75 
Q 48.6875 17.390625 48.6875 27.296875 
z
" id="DejaVuSans-112"/>
    </defs>
    <g style="fill:#1a1a1a;" transform="translate(219.260687 16.77825)scale(0.088 -0.088)">
     <use xlink:href="#DejaVuSans-112"/>
     <use x="63.476562" xlink:href="#DejaVuSans-114"/>
     <use x="104.558594" xlink:href="#DejaVuSans-101"/>
     <use x="166.082031" xlink:href="#DejaVuSans-99"/>
     <use x="221.0625" xlink:href="#DejaVuSans-105"/>
     <use x="248.845703" xlink:href="#DejaVuSans-115"/>
     <use x="300.945312" xlink:href="#DejaVuSans-105"/>
     <use x="328.728516" xlink:href="#DejaVuSans-111"/>
     <use x="389.910156" xlink:href="#DejaVuSans-110"/>
    </g>
   </g>
  </g>
  <g id="axes_3">
   <g id="patch_6">
    <path d="M 298.36575 187.82 
L 406.60575 187.82 
L 406.60575 21.5 
L 298.36575 21.5 
z
" style="fill:#ffffff;stroke:#7f7f7f;stroke-linejoin:miter;"/>
   </g>
   <g id="matplotlib.axis_5">
    <g id="xtick_19">
     <g id="line2d_52">
      <path clip-path="url(#p14189d4ec4)" d="M 303.28575 187.82 
L 303.28575 21.5 
" style="fill:none;stroke:#e5e5e5;stroke-linecap:square;stroke-width:0.8;"/>
     </g>
     <g id="line2d_53">
      <path d="M 303.28575 187.82 
" style="fill:none;stroke:#000000;stroke-linecap:square;stroke-width:1.5;"/>
      <g>
       <use style="stroke:#000000;" x="303.28575" xlink:href="#mde80345304" y="187.82"/>
      </g>
     </g>
     <g id="text_18">
      <!-- 0 -->
      <g style="fill:#4d4d4d;" transform="translate(300.48625 199.456625)scale(0.088 -0.088)">
       <use xlink:href="#DejaVuSans-48"/>
      </g>
     </g>
    </g>
    <g id="xtick_20">
     <g id="line2d_54">
      <path clip-path="url(#p14189d4ec4)" d="M 327.88575 187.82 
L 327.88575 21.5 
" style="fill:none;stroke:#e5e5e5;stroke-linecap:square;stroke-width:0.8;"/>
     </g>
     <g id="line2d_55">
      <path d="M 327.88575 187.82 
" style="fill:none;stroke:#000000;stroke-linecap:square;stroke-width:1.5;"/>
      <g>
       <use style="stroke:#000000;" x="327.88575" xlink:href="#mde80345304" y="187.82"/>
      </g>
     </g>
     <g id="text_19">
      <!-- 0.25 -->
      <g style="fill:#4d4d4d;" transform="translate(318.088875 199.456625)scale(0.088 -0.088)">
       <use xlink:href="#DejaVuSans-48"/>
       <use x="63.623047" xlink:href="#DejaVuSans-46"/>
       <use x="95.410156" xlink:href="#DejaVuSans-50"/>
       <use x="159.033203" xlink:href="#DejaVuSans-53"/>
      </g>
     </g>
    </g>
    <g id="xtick_21">
     <g id="line2d_56">
      <path clip-path="url(#p14189d4ec4)" d="M 352.48575 187.82 
L 352.48575 21.5 
" style="fill:none;stroke:#e5e5e5;stroke-linecap:square;stroke-width:0.8;"/>
     </g>
     <g id="line2d_57">
      <path d="M 352.48575 187.82 
" style="fill:none;stroke:#000000;stroke-linecap:square;stroke-width:1.5;"/>
      <g>
       <use style="stroke:#000000;" x="352.48575" xlink:href="#mde80345304" y="187.82"/>
      </g>
     </g>
     <g id="text_20">
      <!-- 0.50 -->
      <g style="fill:#4d4d4d;" transform="translate(342.688875 199.456625)scale(0.088 -0.088)">
       <use xlink:href="#DejaVuSans-48"/>
       <use x="63.623047" xlink:href="#DejaVuSans-46"/>
       <use x="95.410156" xlink:href="#DejaVuSans-53"/>
       <use x="159.033203" xlink:href="#DejaVuSans-48"/>
      </g>
     </g>
    </g>
    <g id="xtick_22">
     <g id="line2d_58">
      <path clip-path="url(#p14189d4ec4)" d="M 377.08575 187.82 
L 377.08575 21.5 
" style="fill:none;stroke:#e5e5e5;stroke-linecap:square;stroke-width:0.8;"/>
     </g>
     <g id="line2d_59">
      <path d="M 377.08575 187.82 
" style="fill:none;stroke:#000000;stroke-linecap:square;stroke-width:1.5;"/>
      <g>
       <use style="stroke:#000000;" x="377.08575" xlink:href="#mde80345304" y="187.82"/>
      </g>
     </g>
     <g id="text_21">
      <!-- 0.75 -->
      <g style="fill:#4d4d4d;" transform="translate(367.288875 199.456625)scale(0.088 -0.088)">
       <use xlink:href="#DejaVuSans-48"/>
       <use x="63.623047" xlink:href="#DejaVuSans-46"/>
       <use x="95.410156" xlink:href="#DejaVuSans-55"/>
       <use x="159.033203" xlink:href="#DejaVuSans-53"/>
      </g>
     </g>
    </g>
    <g id="xtick_23">
     <g id="line2d_60">
      <path clip-path="url(#p14189d4ec4)" d="M 401.68575 187.82 
L 401.68575 21.5 
" style="fill:none;stroke:#e5e5e5;stroke-linecap:square;stroke-width:0.8;"/>
     </g>
     <g id="line2d_61">
      <path d="M 401.68575 187.82 
" style="fill:none;stroke:#000000;stroke-linecap:square;stroke-width:1.5;"/>
      <g>
       <use style="stroke:#000000;" x="401.68575" xlink:href="#mde80345304" y="187.82"/>
      </g>
     </g>
     <g id="text_22">
      <!-- 1 -->
      <g style="fill:#4d4d4d;" transform="translate(398.88625 199.456625)scale(0.088 -0.088)">
       <use xlink:href="#DejaVuSans-49"/>
      </g>
     </g>
    </g>
    <g id="xtick_24">
     <g id="line2d_62">
      <path clip-path="url(#p14189d4ec4)" d="M 315.58575 187.82 
L 315.58575 21.5 
" style="fill:none;stroke:#fafafa;stroke-linecap:square;"/>
     </g>
     <g id="line2d_63">
      <path d="M 315.58575 187.82 
" style="fill:none;stroke:#000000;stroke-linecap:square;stroke-width:1.5;"/>
      <g>
       <use style="stroke:#000000;" x="315.58575" xlink:href="#mcae80729a7" y="187.82"/>
      </g>
     </g>
    </g>
    <g id="xtick_25">
     <g id="line2d_64">
      <path clip-path="url(#p14189d4ec4)" d="M 340.18575 187.82 
L 340.18575 21.5 
" style="fill:none;stroke:#fafafa;stroke-linecap:square;"/>
     </g>
     <g id="line2d_65">
      <path d="M 340.18575 187.82 
" style="fill:none;stroke:#000000;stroke-linecap:square;stroke-width:1.5;"/>
      <g>
       <use style="stroke:#000000;" x="340.18575" xlink:href="#mcae80729a7" y="187.82"/>
      </g>
     </g>
    </g>
    <g id="xtick_26">
     <g id="line2d_66">
      <path clip-path="url(#p14189d4ec4)" d="M 364.78575 187.82 
L 364.78575 21.5 
" style="fill:none;stroke:#fafafa;stroke-linecap:square;"/>
     </g>
     <g id="line2d_67">
      <path d="M 364.78575 187.82 
" style="fill:none;stroke:#000000;stroke-linecap:square;stroke-width:1.5;"/>
      <g>
       <use style="stroke:#000000;" x="364.78575" xlink:href="#mcae80729a7" y="187.82"/>
      </g>
     </g>
    </g>
    <g id="xtick_27">
     <g id="line2d_68">
      <path clip-path="url(#p14189d4ec4)" d="M 389.38575 187.82 
L 389.38575 21.5 
" style="fill:none;stroke:#fafafa;stroke-linecap:square;"/>
     </g>
     <g id="line2d_69">
      <path d="M 389.38575 187.82 
" style="fill:none;stroke:#000000;stroke-linecap:square;stroke-width:1.5;"/>
      <g>
       <use style="stroke:#000000;" x="389.38575" xlink:href="#mcae80729a7" y="187.82"/>
      </g>
     </g>
    </g>
   </g>
   <g id="matplotlib.axis_6">
    <g id="ytick_11">
     <g id="line2d_70">
      <path clip-path="url(#p14189d4ec4)" d="M 298.36575 168.629231 
L 406.60575 168.629231 
" style="fill:none;stroke:#e5e5e5;stroke-linecap:square;stroke-width:0.8;"/>
     </g>
    </g>
    <g id="ytick_12">
     <g id="line2d_71">
      <path clip-path="url(#p14189d4ec4)" d="M 298.36575 136.644615 
L 406.60575 136.644615 
" style="fill:none;stroke:#e5e5e5;stroke-linecap:square;stroke-width:0.8;"/>
     </g>
    </g>
    <g id="ytick_13">
     <g id="line2d_72">
      <path clip-path="url(#p14189d4ec4)" d="M 298.36575 104.66 
L 406.60575 104.66 
" style="fill:none;stroke:#e5e5e5;stroke-linecap:square;stroke-width:0.8;"/>
     </g>
    </g>
    <g id="ytick_14">
     <g id="line2d_73">
      <path clip-path="url(#p14189d4ec4)" d="M 298.36575 72.675385 
L 406.60575 72.675385 
" style="fill:none;stroke:#e5e5e5;stroke-linecap:square;stroke-width:0.8;"/>
     </g>
    </g>
    <g id="ytick_15">
     <g id="line2d_74">
      <path clip-path="url(#p14189d4ec4)" d="M 298.36575 40.690769 
L 406.60575 40.690769 
" style="fill:none;stroke:#e5e5e5;stroke-linecap:square;stroke-width:0.8;"/>
     </g>
    </g>
   </g>
   <g id="PathCollection_3">
    <path clip-path="url(#p14189d4ec4)" d="M 378.06975 170.401685 
C 378.53981 170.401685 378.990681 170.214928 379.323064 169.882545 
C 379.655447 169.550162 379.842204 169.099291 379.842204 168.629231 
C 379.842204 168.159171 379.655447 167.708299 379.323064 167.375917 
C 378.990681 167.043534 378.53981 166.856777 378.06975 166.856777 
C 377.59969 166.856777 377.148819 167.043534 376.816436 167.375917 
C 376.484053 167.708299 376.297296 168.159171 376.297296 168.629231 
C 376.297296 169.099291 376.484053 169.550162 376.816436 169.882545 
C 377.148819 170.214928 377.59969 170.401685 378.06975 170.401685 
z
" style="fill:#db5f57;stroke:#000000;stroke-width:0.886227;"/>
    <path clip-path="url(#p14189d4ec4)" d="M 374.13375 74.447838 
C 374.60381 74.447838 375.054681 74.261082 375.387064 73.928699 
C 375.719447 73.596316 375.906204 73.145445 375.906204 72.675385 
C 375.906204 72.205324 375.719447 71.754453 375.387064 71.42207 
C 375.054681 71.089688 374.60381 70.902931 374.13375 70.902931 
C 373.66369 70.902931 373.212819 71.089688 372.880436 71.42207 
C 372.548053 71.754453 372.361296 72.205324 372.361296 72.675385 
C 372.361296 73.145445 372.548053 73.596316 372.880436 73.928699 
C 373.212819 74.261082 373.66369 74.447838 374.13375 74.447838 
z
" style="fill:#5784db;stroke:#000000;stroke-width:0.886227;"/>
    <path clip-path="url(#p14189d4ec4)" d="M 376.10175 138.417069 
C 376.57181 138.417069 377.022681 138.230312 377.355064 137.89793 
C 377.687447 137.565547 377.874204 137.114676 377.874204 136.644615 
C 377.874204 136.174555 377.687447 135.723684 377.355064 135.391301 
C 377.022681 135.058918 376.57181 134.872162 376.10175 134.872162 
C 375.63169 134.872162 375.180819 135.058918 374.848436 135.391301 
C 374.516053 135.723684 374.329296 136.174555 374.329296 136.644615 
C 374.329296 137.114676 374.516053 137.565547 374.848436 137.89793 
C 375.180819 138.230312 375.63169 138.417069 376.10175 138.417069 
z
" style="fill:#b9db57;stroke:#000000;stroke-width:0.886227;"/>
    <path clip-path="url(#p14189d4ec4)" d="M 376.10175 106.432454 
C 376.57181 106.432454 377.022681 106.245697 377.355064 105.913314 
C 377.687447 105.580931 377.874204 105.13006 377.874204 104.66 
C 377.874204 104.18994 377.687447 103.739069 377.355064 103.406686 
C 377.022681 103.074303 376.57181 102.887546 376.10175 102.887546 
C 375.63169 102.887546 375.180819 103.074303 374.848436 103.406686 
C 374.516053 103.739069 374.329296 104.18994 374.329296 104.66 
C 374.329296 105.13006 374.516053 105.580931 374.848436 105.913314 
C 375.180819 106.245697 375.63169 106.432454 376.10175 106.432454 
z
" style="fill:#57db94;stroke:#000000;stroke-width:0.886227;"/>
    <path clip-path="url(#p14189d4ec4)" d="M 376.10175 42.463223 
C 376.57181 42.463223 377.022681 42.276466 377.355064 41.944083 
C 377.687447 41.611701 377.874204 41.160829 377.874204 40.690769 
C 377.874204 40.220709 377.687447 39.769838 377.355064 39.437455 
C 377.022681 39.105072 376.57181 38.918315 376.10175 38.918315 
C 375.63169 38.918315 375.180819 39.105072 374.848436 39.437455 
C 374.516053 39.769838 374.329296 40.220709 374.329296 40.690769 
C 374.329296 41.160829 374.516053 41.611701 374.848436 41.944083 
C 375.180819 42.276466 375.63169 42.463223 376.10175 42.463223 
z
" style="fill:#c957db;stroke:#000000;stroke-width:0.886227;"/>
   </g>
   <g id="patch_7">
    <path d="M 298.36575 21.5 
L 406.60575 21.5 
L 406.60575 7.2 
L 298.36575 7.2 
z
" style="fill:#cccccc;stroke:#7f7f7f;stroke-linejoin:miter;"/>
   </g>
   <g id="text_23">
    <!-- recall -->
    <defs>
     <path d="M 9.421875 75.984375 
L 18.40625 75.984375 
L 18.40625 0 
L 9.421875 0 
z
" id="DejaVuSans-108"/>
    </defs>
    <g style="fill:#1a1a1a;" transform="translate(340.4105 16.77825)scale(0.088 -0.088)">
     <use xlink:href="#DejaVuSans-114"/>
     <use x="41.082031" xlink:href="#DejaVuSans-101"/>
     <use x="102.605469" xlink:href="#DejaVuSans-99"/>
     <use x="157.585938" xlink:href="#DejaVuSans-97"/>
     <use x="218.865234" xlink:href="#DejaVuSans-108"/>
     <use x="246.648438" xlink:href="#DejaVuSans-108"/>
    </g>
   </g>
  </g>
 </g>
 <defs>
  <clipPath id="pdce6d6dea5">
   <rect height="166.32" width="108.24" x="71.80575" y="21.5"/>
  </clipPath>
  <clipPath id="p31bf7a301a">
   <rect height="166.32" width="108.24" x="185.08575" y="21.5"/>
  </clipPath>
  <clipPath id="p14189d4ec4">
   <rect height="166.32" width="108.24" x="298.36575" y="21.5"/>
  </clipPath>
 </defs>
</svg>
