<?xml version="1.0" encoding="utf-8" standalone="no"?>
<!DOCTYPE svg PUBLIC "-//W3C//DTD SVG 1.1//EN"
  "http://www.w3.org/Graphics/SVG/1.1/DTD/svg11.dtd">
<!-- Created with matplotlib (https://matplotlib.org/) -->
<svg height="208.48675pt" version="1.1" viewBox="0 0 413.80575 208.48675" width="413.80575pt" xmlns="http://www.w3.org/2000/svg" xmlns:xlink="http://www.w3.org/1999/xlink">
 <defs>
  <style type="text/css">
*{stroke-linecap:butt;stroke-linejoin:round;}
  </style>
 </defs>
 <g id="figure_1">
  <g id="patch_1">
   <path d="M 0 208.48675 
L 413.80575 208.48675 
L 413.80575 0 
L 0 0 
z
" style="fill:#ffffff;stroke:#ffffff;stroke-linejoin:miter;"/>
  </g>
  <g id="axes_1">
   <g id="patch_2">
    <path d="M 71.80575 187.82 
L 180.04575 187.82 
L 180.04575 21.5 
L 71.80575 21.5 
z
" style="fill:#ffffff;stroke:#7f7f7f;stroke-linejoin:miter;"/>
   </g>
   <g id="matplotlib.axis_1">
    <g id="xtick_1">
     <g id="line2d_1">
      <path clip-path="url(#p774000081c)" d="M 76.72575 187.82 
L 76.72575 21.5 
" style="fill:none;stroke:#e5e5e5;stroke-width:0.8;"/>
     </g>
     <g id="line2d_2">
      <path d="M 76.72575 187.82 
" style="fill:none;stroke:#000000;stroke-width:1.5;"/>
      <defs>
       <path d="M 0 0 
L 0 2.75 
" id="mc2feb87e8c" style="stroke:#000000;"/>
      </defs>
      <g>
       <use style="stroke:#000000;" x="76.72575" xlink:href="#mc2feb87e8c" y="187.82"/>
      </g>
     </g>
     <g id="text_1">
      <!-- 0 -->
      <defs>
       <path d="M 31.78125 66.40625 
Q 24.171875 66.40625 20.328125 58.90625 
Q 16.5 51.421875 16.5 36.375 
Q 16.5 21.390625 20.328125 13.890625 
Q 24.171875 6.390625 31.78125 6.390625 
Q 39.453125 6.390625 43.28125 13.890625 
Q 47.125 21.390625 47.125 36.375 
Q 47.125 51.421875 43.28125 58.90625 
Q 39.453125 66.40625 31.78125 66.40625 
z
M 31.78125 74.21875 
Q 44.046875 74.21875 50.515625 64.515625 
Q 56.984375 54.828125 56.984375 36.375 
Q 56.984375 17.96875 50.515625 8.265625 
Q 44.046875 -1.421875 31.78125 -1.421875 
Q 19.53125 -1.421875 13.0625 8.265625 
Q 6.59375 17.96875 6.59375 36.375 
Q 6.59375 54.828125 13.0625 64.515625 
Q 19.53125 74.21875 31.78125 74.21875 
z
" id="DejaVuSans-48"/>
      </defs>
      <g style="fill:#4d4d4d;" transform="translate(73.92625 199.456625)scale(0.088 -0.088)">
       <use xlink:href="#DejaVuSans-48"/>
      </g>
     </g>
    </g>
    <g id="xtick_2">
     <g id="line2d_3">
      <path clip-path="url(#p774000081c)" d="M 101.32575 187.82 
L 101.32575 21.5 
" style="fill:none;stroke:#e5e5e5;stroke-width:0.8;"/>
     </g>
     <g id="line2d_4">
      <path d="M 101.32575 187.82 
" style="fill:none;stroke:#000000;stroke-width:1.5;"/>
      <g>
       <use style="stroke:#000000;" x="101.32575" xlink:href="#mc2feb87e8c" y="187.82"/>
      </g>
     </g>
     <g id="text_2">
      <!-- 0.25 -->
      <defs>
       <path d="M 10.6875 12.40625 
L 21 12.40625 
L 21 0 
L 10.6875 0 
z
" id="DejaVuSans-46"/>
       <path d="M 19.1875 8.296875 
L 53.609375 8.296875 
L 53.609375 0 
L 7.328125 0 
L 7.328125 8.296875 
Q 12.9375 14.109375 22.625 23.890625 
Q 32.328125 33.6875 34.8125 36.53125 
Q 39.546875 41.84375 41.421875 45.53125 
Q 43.3125 49.21875 43.3125 52.78125 
Q 43.3125 58.59375 39.234375 62.25 
Q 35.15625 65.921875 28.609375 65.921875 
Q 23.96875 65.921875 18.8125 64.3125 
Q 13.671875 62.703125 7.8125 59.421875 
L 7.8125 69.390625 
Q 13.765625 71.78125 18.9375 73 
Q 24.125 74.21875 28.421875 74.21875 
Q 39.75 74.21875 46.484375 68.546875 
Q 53.21875 62.890625 53.21875 53.421875 
Q 53.21875 48.921875 51.53125 44.890625 
Q 49.859375 40.875 45.40625 35.40625 
Q 44.1875 33.984375 37.640625 27.21875 
Q 31.109375 20.453125 19.1875 8.296875 
z
" id="DejaVuSans-50"/>
       <path d="M 10.796875 72.90625 
L 49.515625 72.90625 
L 49.515625 64.59375 
L 19.828125 64.59375 
L 19.828125 46.734375 
Q 21.96875 47.46875 24.109375 47.828125 
Q 26.265625 48.1875 28.421875 48.1875 
Q 40.625 48.1875 47.75 41.5 
Q 54.890625 34.8125 54.890625 23.390625 
Q 54.890625 11.625 47.5625 5.09375 
Q 40.234375 -1.421875 26.90625 -1.421875 
Q 22.3125 -1.421875 17.546875 -0.640625 
Q 12.796875 0.140625 7.71875 1.703125 
L 7.71875 11.625 
Q 12.109375 9.234375 16.796875 8.0625 
Q 21.484375 6.890625 26.703125 6.890625 
Q 35.15625 6.890625 40.078125 11.328125 
Q 45.015625 15.765625 45.015625 23.390625 
Q 45.015625 31 40.078125 35.4375 
Q 35.15625 39.890625 26.703125 39.890625 
Q 22.75 39.890625 18.8125 39.015625 
Q 14.890625 38.140625 10.796875 36.28125 
z
" id="DejaVuSans-53"/>
      </defs>
      <g style="fill:#4d4d4d;" transform="translate(91.528875 199.456625)scale(0.088 -0.088)">
       <use xlink:href="#DejaVuSans-48"/>
       <use x="63.623047" xlink:href="#DejaVuSans-46"/>
       <use x="95.410156" xlink:href="#DejaVuSans-50"/>
       <use x="159.033203" xlink:href="#DejaVuSans-53"/>
      </g>
     </g>
    </g>
    <g id="xtick_3">
     <g id="line2d_5">
      <path clip-path="url(#p774000081c)" d="M 125.92575 187.82 
L 125.92575 21.5 
" style="fill:none;stroke:#e5e5e5;stroke-width:0.8;"/>
     </g>
     <g id="line2d_6">
      <path d="M 125.92575 187.82 
" style="fill:none;stroke:#000000;stroke-width:1.5;"/>
      <g>
       <use style="stroke:#000000;" x="125.92575" xlink:href="#mc2feb87e8c" y="187.82"/>
      </g>
     </g>
     <g id="text_3">
      <!-- 0.50 -->
      <g style="fill:#4d4d4d;" transform="translate(116.128875 199.456625)scale(0.088 -0.088)">
       <use xlink:href="#DejaVuSans-48"/>
       <use x="63.623047" xlink:href="#DejaVuSans-46"/>
       <use x="95.410156" xlink:href="#DejaVuSans-53"/>
       <use x="159.033203" xlink:href="#DejaVuSans-48"/>
      </g>
     </g>
    </g>
    <g id="xtick_4">
     <g id="line2d_7">
      <path clip-path="url(#p774000081c)" d="M 150.52575 187.82 
L 150.52575 21.5 
" style="fill:none;stroke:#e5e5e5;stroke-width:0.8;"/>
     </g>
     <g id="line2d_8">
      <path d="M 150.52575 187.82 
" style="fill:none;stroke:#000000;stroke-width:1.5;"/>
      <g>
       <use style="stroke:#000000;" x="150.52575" xlink:href="#mc2feb87e8c" y="187.82"/>
      </g>
     </g>
     <g id="text_4">
      <!-- 0.75 -->
      <defs>
       <path d="M 8.203125 72.90625 
L 55.078125 72.90625 
L 55.078125 68.703125 
L 28.609375 0 
L 18.3125 0 
L 43.21875 64.59375 
L 8.203125 64.59375 
z
" id="DejaVuSans-55"/>
      </defs>
      <g style="fill:#4d4d4d;" transform="translate(140.728875 199.456625)scale(0.088 -0.088)">
       <use xlink:href="#DejaVuSans-48"/>
       <use x="63.623047" xlink:href="#DejaVuSans-46"/>
       <use x="95.410156" xlink:href="#DejaVuSans-55"/>
       <use x="159.033203" xlink:href="#DejaVuSans-53"/>
      </g>
     </g>
    </g>
    <g id="xtick_5">
     <g id="line2d_9">
      <path clip-path="url(#p774000081c)" d="M 175.12575 187.82 
L 175.12575 21.5 
" style="fill:none;stroke:#e5e5e5;stroke-width:0.8;"/>
     </g>
     <g id="line2d_10">
      <path d="M 175.12575 187.82 
" style="fill:none;stroke:#000000;stroke-width:1.5;"/>
      <g>
       <use style="stroke:#000000;" x="175.12575" xlink:href="#mc2feb87e8c" y="187.82"/>
      </g>
     </g>
     <g id="text_5">
      <!-- 1 -->
      <defs>
       <path d="M 12.40625 8.296875 
L 28.515625 8.296875 
L 28.515625 63.921875 
L 10.984375 60.40625 
L 10.984375 69.390625 
L 28.421875 72.90625 
L 38.28125 72.90625 
L 38.28125 8.296875 
L 54.390625 8.296875 
L 54.390625 0 
L 12.40625 0 
z
" id="DejaVuSans-49"/>
      </defs>
      <g style="fill:#4d4d4d;" transform="translate(172.32625 199.456625)scale(0.088 -0.088)">
       <use xlink:href="#DejaVuSans-49"/>
      </g>
     </g>
    </g>
    <g id="xtick_6">
     <g id="line2d_11">
      <path clip-path="url(#p774000081c)" d="M 89.02575 187.82 
L 89.02575 21.5 
" style="fill:none;stroke:#fafafa;"/>
     </g>
     <g id="line2d_12">
      <path d="M 89.02575 187.82 
" style="fill:none;stroke:#000000;stroke-width:1.5;"/>
      <defs>
       <path d="M 0 0 
L 0 1.375 
" id="ma37cdea0cf" style="stroke:#000000;"/>
      </defs>
      <g>
       <use style="stroke:#000000;" x="89.02575" xlink:href="#ma37cdea0cf" y="187.82"/>
      </g>
     </g>
    </g>
    <g id="xtick_7">
     <g id="line2d_13">
      <path clip-path="url(#p774000081c)" d="M 113.62575 187.82 
L 113.62575 21.5 
" style="fill:none;stroke:#fafafa;"/>
     </g>
     <g id="line2d_14">
      <path d="M 113.62575 187.82 
" style="fill:none;stroke:#000000;stroke-width:1.5;"/>
      <g>
       <use style="stroke:#000000;" x="113.62575" xlink:href="#ma37cdea0cf" y="187.82"/>
      </g>
     </g>
    </g>
    <g id="xtick_8">
     <g id="line2d_15">
      <path clip-path="url(#p774000081c)" d="M 138.22575 187.82 
L 138.22575 21.5 
" style="fill:none;stroke:#fafafa;"/>
     </g>
     <g id="line2d_16">
      <path d="M 138.22575 187.82 
" style="fill:none;stroke:#000000;stroke-width:1.5;"/>
      <g>
       <use style="stroke:#000000;" x="138.22575" xlink:href="#ma37cdea0cf" y="187.82"/>
      </g>
     </g>
    </g>
    <g id="xtick_9">
     <g id="line2d_17">
      <path clip-path="url(#p774000081c)" d="M 162.82575 187.82 
L 162.82575 21.5 
" style="fill:none;stroke:#fafafa;"/>
     </g>
     <g id="line2d_18">
      <path d="M 162.82575 187.82 
" style="fill:none;stroke:#000000;stroke-width:1.5;"/>
      <g>
       <use style="stroke:#000000;" x="162.82575" xlink:href="#ma37cdea0cf" y="187.82"/>
      </g>
     </g>
    </g>
   </g>
   <g id="matplotlib.axis_2">
    <g id="ytick_1">
     <g id="line2d_19">
      <path clip-path="url(#p774000081c)" d="M 71.80575 168.629231 
L 180.04575 168.629231 
" style="fill:none;stroke:#e5e5e5;stroke-width:0.8;"/>
     </g>
     <g id="line2d_20">
      <path d="M 71.80575 168.629231 
" style="fill:none;stroke:#000000;stroke-width:1.5;"/>
      <defs>
       <path d="M 0 0 
L -2.75 0 
" id="mf65242ae65" style="stroke:#000000;"/>
      </defs>
      <g>
       <use style="stroke:#000000;" x="71.80575" xlink:href="#mf65242ae65" y="168.629231"/>
      </g>
     </g>
     <g id="text_6">
      <!-- Cirrhosis -->
      <defs>
       <path d="M 64.40625 67.28125 
L 64.40625 56.890625 
Q 59.421875 61.53125 53.78125 63.8125 
Q 48.140625 66.109375 41.796875 66.109375 
Q 29.296875 66.109375 22.65625 58.46875 
Q 16.015625 50.828125 16.015625 36.375 
Q 16.015625 21.96875 22.65625 14.328125 
Q 29.296875 6.6875 41.796875 6.6875 
Q 48.140625 6.6875 53.78125 8.984375 
Q 59.421875 11.28125 64.40625 15.921875 
L 64.40625 5.609375 
Q 59.234375 2.09375 53.4375 0.328125 
Q 47.65625 -1.421875 41.21875 -1.421875 
Q 24.65625 -1.421875 15.125 8.703125 
Q 5.609375 18.84375 5.609375 36.375 
Q 5.609375 53.953125 15.125 64.078125 
Q 24.65625 74.21875 41.21875 74.21875 
Q 47.75 74.21875 53.53125 72.484375 
Q 59.328125 70.75 64.40625 67.28125 
z
" id="DejaVuSans-67"/>
       <path d="M 9.421875 54.6875 
L 18.40625 54.6875 
L 18.40625 0 
L 9.421875 0 
z
M 9.421875 75.984375 
L 18.40625 75.984375 
L 18.40625 64.59375 
L 9.421875 64.59375 
z
" id="DejaVuSans-105"/>
       <path d="M 41.109375 46.296875 
Q 39.59375 47.171875 37.8125 47.578125 
Q 36.03125 48 33.890625 48 
Q 26.265625 48 22.1875 43.046875 
Q 18.109375 38.09375 18.109375 28.8125 
L 18.109375 0 
L 9.078125 0 
L 9.078125 54.6875 
L 18.109375 54.6875 
L 18.109375 46.1875 
Q 20.953125 51.171875 25.484375 53.578125 
Q 30.03125 56 36.53125 56 
Q 37.453125 56 38.578125 55.875 
Q 39.703125 55.765625 41.0625 55.515625 
z
" id="DejaVuSans-114"/>
       <path d="M 54.890625 33.015625 
L 54.890625 0 
L 45.90625 0 
L 45.90625 32.71875 
Q 45.90625 40.484375 42.875 44.328125 
Q 39.84375 48.1875 33.796875 48.1875 
Q 26.515625 48.1875 22.3125 43.546875 
Q 18.109375 38.921875 18.109375 30.90625 
L 18.109375 0 
L 9.078125 0 
L 9.078125 75.984375 
L 18.109375 75.984375 
L 18.109375 46.1875 
Q 21.34375 51.125 25.703125 53.5625 
Q 30.078125 56 35.796875 56 
Q 45.21875 56 50.046875 50.171875 
Q 54.890625 44.34375 54.890625 33.015625 
z
" id="DejaVuSans-104"/>
       <path d="M 30.609375 48.390625 
Q 23.390625 48.390625 19.1875 42.75 
Q 14.984375 37.109375 14.984375 27.296875 
Q 14.984375 17.484375 19.15625 11.84375 
Q 23.34375 6.203125 30.609375 6.203125 
Q 37.796875 6.203125 41.984375 11.859375 
Q 46.1875 17.53125 46.1875 27.296875 
Q 46.1875 37.015625 41.984375 42.703125 
Q 37.796875 48.390625 30.609375 48.390625 
z
M 30.609375 56 
Q 42.328125 56 49.015625 48.375 
Q 55.71875 40.765625 55.71875 27.296875 
Q 55.71875 13.875 49.015625 6.21875 
Q 42.328125 -1.421875 30.609375 -1.421875 
Q 18.84375 -1.421875 12.171875 6.21875 
Q 5.515625 13.875 5.515625 27.296875 
Q 5.515625 40.765625 12.171875 48.375 
Q 18.84375 56 30.609375 56 
z
" id="DejaVuSans-111"/>
       <path d="M 44.28125 53.078125 
L 44.28125 44.578125 
Q 40.484375 46.53125 36.375 47.5 
Q 32.28125 48.484375 27.875 48.484375 
Q 21.1875 48.484375 17.84375 46.4375 
Q 14.5 44.390625 14.5 40.28125 
Q 14.5 37.15625 16.890625 35.375 
Q 19.28125 33.59375 26.515625 31.984375 
L 29.59375 31.296875 
Q 39.15625 29.25 43.1875 25.515625 
Q 47.21875 21.78125 47.21875 15.09375 
Q 47.21875 7.46875 41.1875 3.015625 
Q 35.15625 -1.421875 24.609375 -1.421875 
Q 20.21875 -1.421875 15.453125 -0.5625 
Q 10.6875 0.296875 5.421875 2 
L 5.421875 11.28125 
Q 10.40625 8.6875 15.234375 7.390625 
Q 20.0625 6.109375 24.8125 6.109375 
Q 31.15625 6.109375 34.5625 8.28125 
Q 37.984375 10.453125 37.984375 14.40625 
Q 37.984375 18.0625 35.515625 20.015625 
Q 33.0625 21.96875 24.703125 23.78125 
L 21.578125 24.515625 
Q 13.234375 26.265625 9.515625 29.90625 
Q 5.8125 33.546875 5.8125 39.890625 
Q 5.8125 47.609375 11.28125 51.796875 
Q 16.75 56 26.8125 56 
Q 31.78125 56 36.171875 55.265625 
Q 40.578125 54.546875 44.28125 53.078125 
z
" id="DejaVuSans-115"/>
      </defs>
      <g style="fill:#4d4d4d;" transform="translate(28.458875 171.057481)scale(0.088 -0.088)">
       <use xlink:href="#DejaVuSans-67"/>
       <use x="69.824219" xlink:href="#DejaVuSans-105"/>
       <use x="97.607422" xlink:href="#DejaVuSans-114"/>
       <use x="138.705078" xlink:href="#DejaVuSans-114"/>
       <use x="179.802734" xlink:href="#DejaVuSans-104"/>
       <use x="243.181641" xlink:href="#DejaVuSans-111"/>
       <use x="304.363281" xlink:href="#DejaVuSans-115"/>
       <use x="356.462891" xlink:href="#DejaVuSans-105"/>
       <use x="384.246094" xlink:href="#DejaVuSans-115"/>
      </g>
     </g>
    </g>
    <g id="ytick_2">
     <g id="line2d_21">
      <path clip-path="url(#p774000081c)" d="M 71.80575 136.644615 
L 180.04575 136.644615 
" style="fill:none;stroke:#e5e5e5;stroke-width:0.8;"/>
     </g>
     <g id="line2d_22">
      <path d="M 71.80575 136.644615 
" style="fill:none;stroke:#000000;stroke-width:1.5;"/>
      <g>
       <use style="stroke:#000000;" x="71.80575" xlink:href="#mf65242ae65" y="136.644615"/>
      </g>
     </g>
     <g id="text_7">
      <!-- Healthy -->
      <defs>
       <path d="M 9.8125 72.90625 
L 19.671875 72.90625 
L 19.671875 43.015625 
L 55.515625 43.015625 
L 55.515625 72.90625 
L 65.375 72.90625 
L 65.375 0 
L 55.515625 0 
L 55.515625 34.71875 
L 19.671875 34.71875 
L 19.671875 0 
L 9.8125 0 
z
" id="DejaVuSans-72"/>
       <path d="M 56.203125 29.59375 
L 56.203125 25.203125 
L 14.890625 25.203125 
Q 15.484375 15.921875 20.484375 11.0625 
Q 25.484375 6.203125 34.421875 6.203125 
Q 39.59375 6.203125 44.453125 7.46875 
Q 49.3125 8.734375 54.109375 11.28125 
L 54.109375 2.78125 
Q 49.265625 0.734375 44.1875 -0.34375 
Q 39.109375 -1.421875 33.890625 -1.421875 
Q 20.796875 -1.421875 13.15625 6.1875 
Q 5.515625 13.8125 5.515625 26.8125 
Q 5.515625 40.234375 12.765625 48.109375 
Q 20.015625 56 32.328125 56 
Q 43.359375 56 49.78125 48.890625 
Q 56.203125 41.796875 56.203125 29.59375 
z
M 47.21875 32.234375 
Q 47.125 39.59375 43.09375 43.984375 
Q 39.0625 48.390625 32.421875 48.390625 
Q 24.90625 48.390625 20.390625 44.140625 
Q 15.875 39.890625 15.1875 32.171875 
z
" id="DejaVuSans-101"/>
       <path d="M 34.28125 27.484375 
Q 23.390625 27.484375 19.1875 25 
Q 14.984375 22.515625 14.984375 16.5 
Q 14.984375 11.71875 18.140625 8.90625 
Q 21.296875 6.109375 26.703125 6.109375 
Q 34.1875 6.109375 38.703125 11.40625 
Q 43.21875 16.703125 43.21875 25.484375 
L 43.21875 27.484375 
z
M 52.203125 31.203125 
L 52.203125 0 
L 43.21875 0 
L 43.21875 8.296875 
Q 40.140625 3.328125 35.546875 0.953125 
Q 30.953125 -1.421875 24.3125 -1.421875 
Q 15.921875 -1.421875 10.953125 3.296875 
Q 6 8.015625 6 15.921875 
Q 6 25.140625 12.171875 29.828125 
Q 18.359375 34.515625 30.609375 34.515625 
L 43.21875 34.515625 
L 43.21875 35.40625 
Q 43.21875 41.609375 39.140625 45 
Q 35.0625 48.390625 27.6875 48.390625 
Q 23 48.390625 18.546875 47.265625 
Q 14.109375 46.140625 10.015625 43.890625 
L 10.015625 52.203125 
Q 14.9375 54.109375 19.578125 55.046875 
Q 24.21875 56 28.609375 56 
Q 40.484375 56 46.34375 49.84375 
Q 52.203125 43.703125 52.203125 31.203125 
z
" id="DejaVuSans-97"/>
       <path d="M 9.421875 75.984375 
L 18.40625 75.984375 
L 18.40625 0 
L 9.421875 0 
z
" id="DejaVuSans-108"/>
       <path d="M 18.3125 70.21875 
L 18.3125 54.6875 
L 36.8125 54.6875 
L 36.8125 47.703125 
L 18.3125 47.703125 
L 18.3125 18.015625 
Q 18.3125 11.328125 20.140625 9.421875 
Q 21.96875 7.515625 27.59375 7.515625 
L 36.8125 7.515625 
L 36.8125 0 
L 27.59375 0 
Q 17.1875 0 13.234375 3.875 
Q 9.28125 7.765625 9.28125 18.015625 
L 9.28125 47.703125 
L 2.6875 47.703125 
L 2.6875 54.6875 
L 9.28125 54.6875 
L 9.28125 70.21875 
z
" id="DejaVuSans-116"/>
       <path d="M 32.171875 -5.078125 
Q 28.375 -14.84375 24.75 -17.8125 
Q 21.140625 -20.796875 15.09375 -20.796875 
L 7.90625 -20.796875 
L 7.90625 -13.28125 
L 13.1875 -13.28125 
Q 16.890625 -13.28125 18.9375 -11.515625 
Q 21 -9.765625 23.484375 -3.21875 
L 25.09375 0.875 
L 2.984375 54.6875 
L 12.5 54.6875 
L 29.59375 11.921875 
L 46.6875 54.6875 
L 56.203125 54.6875 
z
" id="DejaVuSans-121"/>
      </defs>
      <g style="fill:#4d4d4d;" transform="translate(32.75025 139.072865)scale(0.088 -0.088)">
       <use xlink:href="#DejaVuSans-72"/>
       <use x="75.195312" xlink:href="#DejaVuSans-101"/>
       <use x="136.71875" xlink:href="#DejaVuSans-97"/>
       <use x="197.998047" xlink:href="#DejaVuSans-108"/>
       <use x="225.78125" xlink:href="#DejaVuSans-116"/>
       <use x="264.990234" xlink:href="#DejaVuSans-104"/>
       <use x="328.369141" xlink:href="#DejaVuSans-121"/>
      </g>
     </g>
    </g>
    <g id="ytick_3">
     <g id="line2d_23">
      <path clip-path="url(#p774000081c)" d="M 71.80575 104.66 
L 180.04575 104.66 
" style="fill:none;stroke:#e5e5e5;stroke-width:0.8;"/>
     </g>
     <g id="line2d_24">
      <path d="M 71.80575 104.66 
" style="fill:none;stroke:#000000;stroke-width:1.5;"/>
      <g>
       <use style="stroke:#000000;" x="71.80575" xlink:href="#mf65242ae65" y="104.66"/>
      </g>
     </g>
     <g id="text_8">
      <!-- accuracy -->
      <defs>
       <path d="M 48.78125 52.59375 
L 48.78125 44.1875 
Q 44.96875 46.296875 41.140625 47.34375 
Q 37.3125 48.390625 33.40625 48.390625 
Q 24.65625 48.390625 19.8125 42.84375 
Q 14.984375 37.3125 14.984375 27.296875 
Q 14.984375 17.28125 19.8125 11.734375 
Q 24.65625 6.203125 33.40625 6.203125 
Q 37.3125 6.203125 41.140625 7.25 
Q 44.96875 8.296875 48.78125 10.40625 
L 48.78125 2.09375 
Q 45.015625 0.34375 40.984375 -0.53125 
Q 36.96875 -1.421875 32.421875 -1.421875 
Q 20.0625 -1.421875 12.78125 6.34375 
Q 5.515625 14.109375 5.515625 27.296875 
Q 5.515625 40.671875 12.859375 48.328125 
Q 20.21875 56 33.015625 56 
Q 37.15625 56 41.109375 55.140625 
Q 45.0625 54.296875 48.78125 52.59375 
z
" id="DejaVuSans-99"/>
       <path d="M 8.5 21.578125 
L 8.5 54.6875 
L 17.484375 54.6875 
L 17.484375 21.921875 
Q 17.484375 14.15625 20.5 10.265625 
Q 23.53125 6.390625 29.59375 6.390625 
Q 36.859375 6.390625 41.078125 11.03125 
Q 45.3125 15.671875 45.3125 23.6875 
L 45.3125 54.6875 
L 54.296875 54.6875 
L 54.296875 0 
L 45.3125 0 
L 45.3125 8.40625 
Q 42.046875 3.421875 37.71875 1 
Q 33.40625 -1.421875 27.6875 -1.421875 
Q 18.265625 -1.421875 13.375 4.4375 
Q 8.5 10.296875 8.5 21.578125 
z
M 31.109375 56 
z
" id="DejaVuSans-117"/>
      </defs>
      <g style="fill:#4d4d4d;" transform="translate(27.15125 107.08825)scale(0.088 -0.088)">
       <use xlink:href="#DejaVuSans-97"/>
       <use x="61.279297" xlink:href="#DejaVuSans-99"/>
       <use x="116.259766" xlink:href="#DejaVuSans-99"/>
       <use x="171.240234" xlink:href="#DejaVuSans-117"/>
       <use x="234.619141" xlink:href="#DejaVuSans-114"/>
       <use x="275.732422" xlink:href="#DejaVuSans-97"/>
       <use x="337.011719" xlink:href="#DejaVuSans-99"/>
       <use x="391.992188" xlink:href="#DejaVuSans-121"/>
      </g>
     </g>
    </g>
    <g id="ytick_4">
     <g id="line2d_25">
      <path clip-path="url(#p774000081c)" d="M 71.80575 72.675385 
L 180.04575 72.675385 
" style="fill:none;stroke:#e5e5e5;stroke-width:0.8;"/>
     </g>
     <g id="line2d_26">
      <path d="M 71.80575 72.675385 
" style="fill:none;stroke:#000000;stroke-width:1.5;"/>
      <g>
       <use style="stroke:#000000;" x="71.80575" xlink:href="#mf65242ae65" y="72.675385"/>
      </g>
     </g>
     <g id="text_9">
      <!-- macro avg -->
      <defs>
       <path d="M 52 44.1875 
Q 55.375 50.25 60.0625 53.125 
Q 64.75 56 71.09375 56 
Q 79.640625 56 84.28125 50.015625 
Q 88.921875 44.046875 88.921875 33.015625 
L 88.921875 0 
L 79.890625 0 
L 79.890625 32.71875 
Q 79.890625 40.578125 77.09375 44.375 
Q 74.3125 48.1875 68.609375 48.1875 
Q 61.625 48.1875 57.5625 43.546875 
Q 53.515625 38.921875 53.515625 30.90625 
L 53.515625 0 
L 44.484375 0 
L 44.484375 32.71875 
Q 44.484375 40.625 41.703125 44.40625 
Q 38.921875 48.1875 33.109375 48.1875 
Q 26.21875 48.1875 22.15625 43.53125 
Q 18.109375 38.875 18.109375 30.90625 
L 18.109375 0 
L 9.078125 0 
L 9.078125 54.6875 
L 18.109375 54.6875 
L 18.109375 46.1875 
Q 21.1875 51.21875 25.484375 53.609375 
Q 29.78125 56 35.6875 56 
Q 41.65625 56 45.828125 52.96875 
Q 50 49.953125 52 44.1875 
z
" id="DejaVuSans-109"/>
       <path id="DejaVuSans-32"/>
       <path d="M 2.984375 54.6875 
L 12.5 54.6875 
L 29.59375 8.796875 
L 46.6875 54.6875 
L 56.203125 54.6875 
L 35.6875 0 
L 23.484375 0 
z
" id="DejaVuSans-118"/>
       <path d="M 45.40625 27.984375 
Q 45.40625 37.75 41.375 43.109375 
Q 37.359375 48.484375 30.078125 48.484375 
Q 22.859375 48.484375 18.828125 43.109375 
Q 14.796875 37.75 14.796875 27.984375 
Q 14.796875 18.265625 18.828125 12.890625 
Q 22.859375 7.515625 30.078125 7.515625 
Q 37.359375 7.515625 41.375 12.890625 
Q 45.40625 18.265625 45.40625 27.984375 
z
M 54.390625 6.78125 
Q 54.390625 -7.171875 48.1875 -13.984375 
Q 42 -20.796875 29.203125 -20.796875 
Q 24.46875 -20.796875 20.265625 -20.09375 
Q 16.0625 -19.390625 12.109375 -17.921875 
L 12.109375 -9.1875 
Q 16.0625 -11.328125 19.921875 -12.34375 
Q 23.78125 -13.375 27.78125 -13.375 
Q 36.625 -13.375 41.015625 -8.765625 
Q 45.40625 -4.15625 45.40625 5.171875 
L 45.40625 9.625 
Q 42.625 4.78125 38.28125 2.390625 
Q 33.9375 0 27.875 0 
Q 17.828125 0 11.671875 7.65625 
Q 5.515625 15.328125 5.515625 27.984375 
Q 5.515625 40.671875 11.671875 48.328125 
Q 17.828125 56 27.875 56 
Q 33.9375 56 38.28125 53.609375 
Q 42.625 51.21875 45.40625 46.390625 
L 45.40625 54.6875 
L 54.390625 54.6875 
z
" id="DejaVuSans-103"/>
      </defs>
      <g style="fill:#4d4d4d;" transform="translate(20.068625 75.103635)scale(0.088 -0.088)">
       <use xlink:href="#DejaVuSans-109"/>
       <use x="97.412109" xlink:href="#DejaVuSans-97"/>
       <use x="158.691406" xlink:href="#DejaVuSans-99"/>
       <use x="213.671875" xlink:href="#DejaVuSans-114"/>
       <use x="254.753906" xlink:href="#DejaVuSans-111"/>
       <use x="315.935547" xlink:href="#DejaVuSans-32"/>
       <use x="347.722656" xlink:href="#DejaVuSans-97"/>
       <use x="409.001953" xlink:href="#DejaVuSans-118"/>
       <use x="468.181641" xlink:href="#DejaVuSans-103"/>
      </g>
     </g>
    </g>
    <g id="ytick_5">
     <g id="line2d_27">
      <path clip-path="url(#p774000081c)" d="M 71.80575 40.690769 
L 180.04575 40.690769 
" style="fill:none;stroke:#e5e5e5;stroke-width:0.8;"/>
     </g>
     <g id="line2d_28">
      <path d="M 71.80575 40.690769 
" style="fill:none;stroke:#000000;stroke-width:1.5;"/>
      <g>
       <use style="stroke:#000000;" x="71.80575" xlink:href="#mf65242ae65" y="40.690769"/>
      </g>
     </g>
     <g id="text_10">
      <!-- weighted avg -->
      <defs>
       <path d="M 4.203125 54.6875 
L 13.1875 54.6875 
L 24.421875 12.015625 
L 35.59375 54.6875 
L 46.1875 54.6875 
L 57.421875 12.015625 
L 68.609375 54.6875 
L 77.59375 54.6875 
L 63.28125 0 
L 52.6875 0 
L 40.921875 44.828125 
L 29.109375 0 
L 18.5 0 
z
" id="DejaVuSans-119"/>
       <path d="M 45.40625 46.390625 
L 45.40625 75.984375 
L 54.390625 75.984375 
L 54.390625 0 
L 45.40625 0 
L 45.40625 8.203125 
Q 42.578125 3.328125 38.25 0.953125 
Q 33.9375 -1.421875 27.875 -1.421875 
Q 17.96875 -1.421875 11.734375 6.484375 
Q 5.515625 14.40625 5.515625 27.296875 
Q 5.515625 40.1875 11.734375 48.09375 
Q 17.96875 56 27.875 56 
Q 33.9375 56 38.25 53.625 
Q 42.578125 51.265625 45.40625 46.390625 
z
M 14.796875 27.296875 
Q 14.796875 17.390625 18.875 11.75 
Q 22.953125 6.109375 30.078125 6.109375 
Q 37.203125 6.109375 41.296875 11.75 
Q 45.40625 17.390625 45.40625 27.296875 
Q 45.40625 37.203125 41.296875 42.84375 
Q 37.203125 48.484375 30.078125 48.484375 
Q 22.953125 48.484375 18.875 42.84375 
Q 14.796875 37.203125 14.796875 27.296875 
z
" id="DejaVuSans-100"/>
      </defs>
      <g style="fill:#4d4d4d;" transform="translate(7.2 43.119019)scale(0.088 -0.088)">
       <use xlink:href="#DejaVuSans-119"/>
       <use x="81.787109" xlink:href="#DejaVuSans-101"/>
       <use x="143.310547" xlink:href="#DejaVuSans-105"/>
       <use x="171.09375" xlink:href="#DejaVuSans-103"/>
       <use x="234.570312" xlink:href="#DejaVuSans-104"/>
       <use x="297.949219" xlink:href="#DejaVuSans-116"/>
       <use x="337.158203" xlink:href="#DejaVuSans-101"/>
       <use x="398.681641" xlink:href="#DejaVuSans-100"/>
       <use x="462.158203" xlink:href="#DejaVuSans-32"/>
       <use x="493.945312" xlink:href="#DejaVuSans-97"/>
       <use x="555.224609" xlink:href="#DejaVuSans-118"/>
       <use x="614.404297" xlink:href="#DejaVuSans-103"/>
      </g>
     </g>
    </g>
   </g>
   <g id="PathCollection_1">
    <path clip-path="url(#p774000081c)" d="M 167.25375 170.401685 
C 167.72381 170.401685 168.174681 170.214928 168.507064 169.882545 
C 168.839447 169.550162 169.026204 169.099291 169.026204 168.629231 
C 169.026204 168.159171 168.839447 167.708299 168.507064 167.375917 
C 168.174681 167.043534 167.72381 166.856777 167.25375 166.856777 
C 166.78369 166.856777 166.332819 167.043534 166.000436 167.375917 
C 165.668053 167.708299 165.481296 168.159171 165.481296 168.629231 
C 165.481296 169.099291 165.668053 169.550162 166.000436 169.882545 
C 166.332819 170.214928 166.78369 170.401685 167.25375 170.401685 
z
" style="fill:#db5f57;stroke:#000000;stroke-width:0.886227;"/>
    <path clip-path="url(#p774000081c)" d="M 167.25375 138.417069 
C 167.72381 138.417069 168.174681 138.230312 168.507064 137.89793 
C 168.839447 137.565547 169.026204 137.114676 169.026204 136.644615 
C 169.026204 136.174555 168.839447 135.723684 168.507064 135.391301 
C 168.174681 135.058918 167.72381 134.872162 167.25375 134.872162 
C 166.78369 134.872162 166.332819 135.058918 166.000436 135.391301 
C 165.668053 135.723684 165.481296 136.174555 165.481296 136.644615 
C 165.481296 137.114676 165.668053 137.565547 166.000436 137.89793 
C 166.332819 138.230312 166.78369 138.417069 167.25375 138.417069 
z
" style="fill:#b9db57;stroke:#000000;stroke-width:0.886227;"/>
    <path clip-path="url(#p774000081c)" d="M 167.25375 106.432454 
C 167.72381 106.432454 168.174681 106.245697 168.507064 105.913314 
C 168.839447 105.580931 169.026204 105.13006 169.026204 104.66 
C 169.026204 104.18994 168.839447 103.739069 168.507064 103.406686 
C 168.174681 103.074303 167.72381 102.887546 167.25375 102.887546 
C 166.78369 102.887546 166.332819 103.074303 166.000436 103.406686 
C 165.668053 103.739069 165.481296 104.18994 165.481296 104.66 
C 165.481296 105.13006 165.668053 105.580931 166.000436 105.913314 
C 166.332819 106.245697 166.78369 106.432454 167.25375 106.432454 
z
" style="fill:#57db94;stroke:#000000;stroke-width:0.886227;"/>
    <path clip-path="url(#p774000081c)" d="M 167.25375 74.447838 
C 167.72381 74.447838 168.174681 74.261082 168.507064 73.928699 
C 168.839447 73.596316 169.026204 73.145445 169.026204 72.675385 
C 169.026204 72.205324 168.839447 71.754453 168.507064 71.42207 
C 168.174681 71.089688 167.72381 70.902931 167.25375 70.902931 
C 166.78369 70.902931 166.332819 71.089688 166.000436 71.42207 
C 165.668053 71.754453 165.481296 72.205324 165.481296 72.675385 
C 165.481296 73.145445 165.668053 73.596316 166.000436 73.928699 
C 166.332819 74.261082 166.78369 74.447838 167.25375 74.447838 
z
" style="fill:#5784db;stroke:#000000;stroke-width:0.886227;"/>
    <path clip-path="url(#p774000081c)" d="M 167.25375 42.463223 
C 167.72381 42.463223 168.174681 42.276466 168.507064 41.944083 
C 168.839447 41.611701 169.026204 41.160829 169.026204 40.690769 
C 169.026204 40.220709 168.839447 39.769838 168.507064 39.437455 
C 168.174681 39.105072 167.72381 38.918315 167.25375 38.918315 
C 166.78369 38.918315 166.332819 39.105072 166.000436 39.437455 
C 165.668053 39.769838 165.481296 40.220709 165.481296 40.690769 
C 165.481296 41.160829 165.668053 41.611701 166.000436 41.944083 
C 166.332819 42.276466 166.78369 42.463223 167.25375 42.463223 
z
" style="fill:#c957db;stroke:#000000;stroke-width:0.886227;"/>
   </g>
   <g id="patch_3">
    <path d="M 71.80575 21.5 
L 180.04575 21.5 
L 180.04575 7.2 
L 71.80575 7.2 
z
" style="fill:#cccccc;stroke:#7f7f7f;stroke-linejoin:miter;"/>
   </g>
   <g id="text_11">
    <!-- f1-score -->
    <defs>
     <path d="M 37.109375 75.984375 
L 37.109375 68.5 
L 28.515625 68.5 
Q 23.6875 68.5 21.796875 66.546875 
Q 19.921875 64.59375 19.921875 59.515625 
L 19.921875 54.6875 
L 34.71875 54.6875 
L 34.71875 47.703125 
L 19.921875 47.703125 
L 19.921875 0 
L 10.890625 0 
L 10.890625 47.703125 
L 2.296875 47.703125 
L 2.296875 54.6875 
L 10.890625 54.6875 
L 10.890625 58.5 
Q 10.890625 67.625 15.140625 71.796875 
Q 19.390625 75.984375 28.609375 75.984375 
z
" id="DejaVuSans-102"/>
     <path d="M 4.890625 31.390625 
L 31.203125 31.390625 
L 31.203125 23.390625 
L 4.890625 23.390625 
z
" id="DejaVuSans-45"/>
    </defs>
    <g style="fill:#1a1a1a;" transform="translate(108.071375 16.77825)scale(0.088 -0.088)">
     <use xlink:href="#DejaVuSans-102"/>
     <use x="35.205078" xlink:href="#DejaVuSans-49"/>
     <use x="98.828125" xlink:href="#DejaVuSans-45"/>
     <use x="134.912109" xlink:href="#DejaVuSans-115"/>
     <use x="187.011719" xlink:href="#DejaVuSans-99"/>
     <use x="241.992188" xlink:href="#DejaVuSans-111"/>
     <use x="303.173828" xlink:href="#DejaVuSans-114"/>
     <use x="344.255859" xlink:href="#DejaVuSans-101"/>
    </g>
   </g>
  </g>
  <g id="axes_2">
   <g id="patch_4">
    <path d="M 185.08575 187.82 
L 293.32575 187.82 
L 293.32575 21.5 
L 185.08575 21.5 
z
" style="fill:#ffffff;stroke:#7f7f7f;stroke-linejoin:miter;"/>
   </g>
   <g id="matplotlib.axis_3">
    <g id="xtick_10">
     <g id="line2d_29">
      <path clip-path="url(#p4f27bdf748)" d="M 190.00575 187.82 
L 190.00575 21.5 
" style="fill:none;stroke:#e5e5e5;stroke-linecap:square;stroke-width:0.8;"/>
     </g>
     <g id="line2d_30">
      <path d="M 190.00575 187.82 
" style="fill:none;stroke:#000000;stroke-linecap:square;stroke-width:1.5;"/>
      <g>
       <use style="stroke:#000000;" x="190.00575" xlink:href="#mc2feb87e8c" y="187.82"/>
      </g>
     </g>
     <g id="text_12">
      <!-- 0 -->
      <g style="fill:#4d4d4d;" transform="translate(187.20625 199.456625)scale(0.088 -0.088)">
       <use xlink:href="#DejaVuSans-48"/>
      </g>
     </g>
    </g>
    <g id="xtick_11">
     <g id="line2d_31">
      <path clip-path="url(#p4f27bdf748)" d="M 214.60575 187.82 
L 214.60575 21.5 
" style="fill:none;stroke:#e5e5e5;stroke-linecap:square;stroke-width:0.8;"/>
     </g>
     <g id="line2d_32">
      <path d="M 214.60575 187.82 
" style="fill:none;stroke:#000000;stroke-linecap:square;stroke-width:1.5;"/>
      <g>
       <use style="stroke:#000000;" x="214.60575" xlink:href="#mc2feb87e8c" y="187.82"/>
      </g>
     </g>
     <g id="text_13">
      <!-- 0.25 -->
      <g style="fill:#4d4d4d;" transform="translate(204.808875 199.456625)scale(0.088 -0.088)">
       <use xlink:href="#DejaVuSans-48"/>
       <use x="63.623047" xlink:href="#DejaVuSans-46"/>
       <use x="95.410156" xlink:href="#DejaVuSans-50"/>
       <use x="159.033203" xlink:href="#DejaVuSans-53"/>
      </g>
     </g>
    </g>
    <g id="xtick_12">
     <g id="line2d_33">
      <path clip-path="url(#p4f27bdf748)" d="M 239.20575 187.82 
L 239.20575 21.5 
" style="fill:none;stroke:#e5e5e5;stroke-linecap:square;stroke-width:0.8;"/>
     </g>
     <g id="line2d_34">
      <path d="M 239.20575 187.82 
" style="fill:none;stroke:#000000;stroke-linecap:square;stroke-width:1.5;"/>
      <g>
       <use style="stroke:#000000;" x="239.20575" xlink:href="#mc2feb87e8c" y="187.82"/>
      </g>
     </g>
     <g id="text_14">
      <!-- 0.50 -->
      <g style="fill:#4d4d4d;" transform="translate(229.408875 199.456625)scale(0.088 -0.088)">
       <use xlink:href="#DejaVuSans-48"/>
       <use x="63.623047" xlink:href="#DejaVuSans-46"/>
       <use x="95.410156" xlink:href="#DejaVuSans-53"/>
       <use x="159.033203" xlink:href="#DejaVuSans-48"/>
      </g>
     </g>
    </g>
    <g id="xtick_13">
     <g id="line2d_35">
      <path clip-path="url(#p4f27bdf748)" d="M 263.80575 187.82 
L 263.80575 21.5 
" style="fill:none;stroke:#e5e5e5;stroke-linecap:square;stroke-width:0.8;"/>
     </g>
     <g id="line2d_36">
      <path d="M 263.80575 187.82 
" style="fill:none;stroke:#000000;stroke-linecap:square;stroke-width:1.5;"/>
      <g>
       <use style="stroke:#000000;" x="263.80575" xlink:href="#mc2feb87e8c" y="187.82"/>
      </g>
     </g>
     <g id="text_15">
      <!-- 0.75 -->
      <g style="fill:#4d4d4d;" transform="translate(254.008875 199.456625)scale(0.088 -0.088)">
       <use xlink:href="#DejaVuSans-48"/>
       <use x="63.623047" xlink:href="#DejaVuSans-46"/>
       <use x="95.410156" xlink:href="#DejaVuSans-55"/>
       <use x="159.033203" xlink:href="#DejaVuSans-53"/>
      </g>
     </g>
    </g>
    <g id="xtick_14">
     <g id="line2d_37">
      <path clip-path="url(#p4f27bdf748)" d="M 288.40575 187.82 
L 288.40575 21.5 
" style="fill:none;stroke:#e5e5e5;stroke-linecap:square;stroke-width:0.8;"/>
     </g>
     <g id="line2d_38">
      <path d="M 288.40575 187.82 
" style="fill:none;stroke:#000000;stroke-linecap:square;stroke-width:1.5;"/>
      <g>
       <use style="stroke:#000000;" x="288.40575" xlink:href="#mc2feb87e8c" y="187.82"/>
      </g>
     </g>
     <g id="text_16">
      <!-- 1 -->
      <g style="fill:#4d4d4d;" transform="translate(285.60625 199.456625)scale(0.088 -0.088)">
       <use xlink:href="#DejaVuSans-49"/>
      </g>
     </g>
    </g>
    <g id="xtick_15">
     <g id="line2d_39">
      <path clip-path="url(#p4f27bdf748)" d="M 202.30575 187.82 
L 202.30575 21.5 
" style="fill:none;stroke:#fafafa;stroke-linecap:square;"/>
     </g>
     <g id="line2d_40">
      <path d="M 202.30575 187.82 
" style="fill:none;stroke:#000000;stroke-linecap:square;stroke-width:1.5;"/>
      <g>
       <use style="stroke:#000000;" x="202.30575" xlink:href="#ma37cdea0cf" y="187.82"/>
      </g>
     </g>
    </g>
    <g id="xtick_16">
     <g id="line2d_41">
      <path clip-path="url(#p4f27bdf748)" d="M 226.90575 187.82 
L 226.90575 21.5 
" style="fill:none;stroke:#fafafa;stroke-linecap:square;"/>
     </g>
     <g id="line2d_42">
      <path d="M 226.90575 187.82 
" style="fill:none;stroke:#000000;stroke-linecap:square;stroke-width:1.5;"/>
      <g>
       <use style="stroke:#000000;" x="226.90575" xlink:href="#ma37cdea0cf" y="187.82"/>
      </g>
     </g>
    </g>
    <g id="xtick_17">
     <g id="line2d_43">
      <path clip-path="url(#p4f27bdf748)" d="M 251.50575 187.82 
L 251.50575 21.5 
" style="fill:none;stroke:#fafafa;stroke-linecap:square;"/>
     </g>
     <g id="line2d_44">
      <path d="M 251.50575 187.82 
" style="fill:none;stroke:#000000;stroke-linecap:square;stroke-width:1.5;"/>
      <g>
       <use style="stroke:#000000;" x="251.50575" xlink:href="#ma37cdea0cf" y="187.82"/>
      </g>
     </g>
    </g>
    <g id="xtick_18">
     <g id="line2d_45">
      <path clip-path="url(#p4f27bdf748)" d="M 276.10575 187.82 
L 276.10575 21.5 
" style="fill:none;stroke:#fafafa;stroke-linecap:square;"/>
     </g>
     <g id="line2d_46">
      <path d="M 276.10575 187.82 
" style="fill:none;stroke:#000000;stroke-linecap:square;stroke-width:1.5;"/>
      <g>
       <use style="stroke:#000000;" x="276.10575" xlink:href="#ma37cdea0cf" y="187.82"/>
      </g>
     </g>
    </g>
   </g>
   <g id="matplotlib.axis_4">
    <g id="ytick_6">
     <g id="line2d_47">
      <path clip-path="url(#p4f27bdf748)" d="M 185.08575 168.629231 
L 293.32575 168.629231 
" style="fill:none;stroke:#e5e5e5;stroke-linecap:square;stroke-width:0.8;"/>
     </g>
    </g>
    <g id="ytick_7">
     <g id="line2d_48">
      <path clip-path="url(#p4f27bdf748)" d="M 185.08575 136.644615 
L 293.32575 136.644615 
" style="fill:none;stroke:#e5e5e5;stroke-linecap:square;stroke-width:0.8;"/>
     </g>
    </g>
    <g id="ytick_8">
     <g id="line2d_49">
      <path clip-path="url(#p4f27bdf748)" d="M 185.08575 104.66 
L 293.32575 104.66 
" style="fill:none;stroke:#e5e5e5;stroke-linecap:square;stroke-width:0.8;"/>
     </g>
    </g>
    <g id="ytick_9">
     <g id="line2d_50">
      <path clip-path="url(#p4f27bdf748)" d="M 185.08575 72.675385 
L 293.32575 72.675385 
" style="fill:none;stroke:#e5e5e5;stroke-linecap:square;stroke-width:0.8;"/>
     </g>
    </g>
    <g id="ytick_10">
     <g id="line2d_51">
      <path clip-path="url(#p4f27bdf748)" d="M 185.08575 40.690769 
L 293.32575 40.690769 
" style="fill:none;stroke:#e5e5e5;stroke-linecap:square;stroke-width:0.8;"/>
     </g>
    </g>
   </g>
   <g id="PathCollection_2">
    <path clip-path="url(#p4f27bdf748)" d="M 282.50175 170.401685 
C 282.97181 170.401685 283.422681 170.214928 283.755064 169.882545 
C 284.087447 169.550162 284.274204 169.099291 284.274204 168.629231 
C 284.274204 168.159171 284.087447 167.708299 283.755064 167.375917 
C 283.422681 167.043534 282.97181 166.856777 282.50175 166.856777 
C 282.03169 166.856777 281.580819 167.043534 281.248436 167.375917 
C 280.916053 167.708299 280.729296 168.159171 280.729296 168.629231 
C 280.729296 169.099291 280.916053 169.550162 281.248436 169.882545 
C 281.580819 170.214928 282.03169 170.401685 282.50175 170.401685 
z
" style="fill:#db5f57;stroke:#000000;stroke-width:0.886227;"/>
    <path clip-path="url(#p4f27bdf748)" d="M 278.56575 138.417069 
C 279.03581 138.417069 279.486681 138.230312 279.819064 137.89793 
C 280.151447 137.565547 280.338204 137.114676 280.338204 136.644615 
C 280.338204 136.174555 280.151447 135.723684 279.819064 135.391301 
C 279.486681 135.058918 279.03581 134.872162 278.56575 134.872162 
C 278.09569 134.872162 277.644819 135.058918 277.312436 135.391301 
C 276.980053 135.723684 276.793296 136.174555 276.793296 136.644615 
C 276.793296 137.114676 276.980053 137.565547 277.312436 137.89793 
C 277.644819 138.230312 278.09569 138.417069 278.56575 138.417069 
z
" style="fill:#b9db57;stroke:#000000;stroke-width:0.886227;"/>
    <path clip-path="url(#p4f27bdf748)" d="M 280.53375 106.432454 
C 281.00381 106.432454 281.454681 106.245697 281.787064 105.913314 
C 282.119447 105.580931 282.306204 105.13006 282.306204 104.66 
C 282.306204 104.18994 282.119447 103.739069 281.787064 103.406686 
C 281.454681 103.074303 281.00381 102.887546 280.53375 102.887546 
C 280.06369 102.887546 279.612819 103.074303 279.280436 103.406686 
C 278.948053 103.739069 278.761296 104.18994 278.761296 104.66 
C 278.761296 105.13006 278.948053 105.580931 279.280436 105.913314 
C 279.612819 106.245697 280.06369 106.432454 280.53375 106.432454 
z
" style="fill:#57db94;stroke:#000000;stroke-width:0.886227;"/>
    <path clip-path="url(#p4f27bdf748)" d="M 280.53375 74.447838 
C 281.00381 74.447838 281.454681 74.261082 281.787064 73.928699 
C 282.119447 73.596316 282.306204 73.145445 282.306204 72.675385 
C 282.306204 72.205324 282.119447 71.754453 281.787064 71.42207 
C 281.454681 71.089688 281.00381 70.902931 280.53375 70.902931 
C 280.06369 70.902931 279.612819 71.089688 279.280436 71.42207 
C 278.948053 71.754453 278.761296 72.205324 278.761296 72.675385 
C 278.761296 73.145445 278.948053 73.596316 279.280436 73.928699 
C 279.612819 74.261082 280.06369 74.447838 280.53375 74.447838 
z
" style="fill:#5784db;stroke:#000000;stroke-width:0.886227;"/>
    <path clip-path="url(#p4f27bdf748)" d="M 280.53375 42.463223 
C 281.00381 42.463223 281.454681 42.276466 281.787064 41.944083 
C 282.119447 41.611701 282.306204 41.160829 282.306204 40.690769 
C 282.306204 40.220709 282.119447 39.769838 281.787064 39.437455 
C 281.454681 39.105072 281.00381 38.918315 280.53375 38.918315 
C 280.06369 38.918315 279.612819 39.105072 279.280436 39.437455 
C 278.948053 39.769838 278.761296 40.220709 278.761296 40.690769 
C 278.761296 41.160829 278.948053 41.611701 279.280436 41.944083 
C 279.612819 42.276466 280.06369 42.463223 280.53375 42.463223 
z
" style="fill:#c957db;stroke:#000000;stroke-width:0.886227;"/>
   </g>
   <g id="patch_5">
    <path d="M 185.08575 21.5 
L 293.32575 21.5 
L 293.32575 7.2 
L 185.08575 7.2 
z
" style="fill:#cccccc;stroke:#7f7f7f;stroke-linejoin:miter;"/>
   </g>
   <g id="text_17">
    <!-- precision -->
    <defs>
     <path d="M 18.109375 8.203125 
L 18.109375 -20.796875 
L 9.078125 -20.796875 
L 9.078125 54.6875 
L 18.109375 54.6875 
L 18.109375 46.390625 
Q 20.953125 51.265625 25.265625 53.625 
Q 29.59375 56 35.59375 56 
Q 45.5625 56 51.78125 48.09375 
Q 58.015625 40.1875 58.015625 27.296875 
Q 58.015625 14.40625 51.78125 6.484375 
Q 45.5625 -1.421875 35.59375 -1.421875 
Q 29.59375 -1.421875 25.265625 0.953125 
Q 20.953125 3.328125 18.109375 8.203125 
z
M 48.6875 27.296875 
Q 48.6875 37.203125 44.609375 42.84375 
Q 40.53125 48.484375 33.40625 48.484375 
Q 26.265625 48.484375 22.1875 42.84375 
Q 18.109375 37.203125 18.109375 27.296875 
Q 18.109375 17.390625 22.1875 11.75 
Q 26.265625 6.109375 33.40625 6.109375 
Q 40.53125 6.109375 44.609375 11.75 
Q 48.6875 17.390625 48.6875 27.296875 
z
" id="DejaVuSans-112"/>
     <path d="M 54.890625 33.015625 
L 54.890625 0 
L 45.90625 0 
L 45.90625 32.71875 
Q 45.90625 40.484375 42.875 44.328125 
Q 39.84375 48.1875 33.796875 48.1875 
Q 26.515625 48.1875 22.3125 43.546875 
Q 18.109375 38.921875 18.109375 30.90625 
L 18.109375 0 
L 9.078125 0 
L 9.078125 54.6875 
L 18.109375 54.6875 
L 18.109375 46.1875 
Q 21.34375 51.125 25.703125 53.5625 
Q 30.078125 56 35.796875 56 
Q 45.21875 56 50.046875 50.171875 
Q 54.890625 44.34375 54.890625 33.015625 
z
" id="DejaVuSans-110"/>
    </defs>
    <g style="fill:#1a1a1a;" transform="translate(219.260687 16.77825)scale(0.088 -0.088)">
     <use xlink:href="#DejaVuSans-112"/>
     <use x="63.476562" xlink:href="#DejaVuSans-114"/>
     <use x="104.558594" xlink:href="#DejaVuSans-101"/>
     <use x="166.082031" xlink:href="#DejaVuSans-99"/>
     <use x="221.0625" xlink:href="#DejaVuSans-105"/>
     <use x="248.845703" xlink:href="#DejaVuSans-115"/>
     <use x="300.945312" xlink:href="#DejaVuSans-105"/>
     <use x="328.728516" xlink:href="#DejaVuSans-111"/>
     <use x="389.910156" xlink:href="#DejaVuSans-110"/>
    </g>
   </g>
  </g>
  <g id="axes_3">
   <g id="patch_6">
    <path d="M 298.36575 187.82 
L 406.60575 187.82 
L 406.60575 21.5 
L 298.36575 21.5 
z
" style="fill:#ffffff;stroke:#7f7f7f;stroke-linejoin:miter;"/>
   </g>
   <g id="matplotlib.axis_5">
    <g id="xtick_19">
     <g id="line2d_52">
      <path clip-path="url(#p09bebc38b0)" d="M 303.28575 187.82 
L 303.28575 21.5 
" style="fill:none;stroke:#e5e5e5;stroke-linecap:square;stroke-width:0.8;"/>
     </g>
     <g id="line2d_53">
      <path d="M 303.28575 187.82 
" style="fill:none;stroke:#000000;stroke-linecap:square;stroke-width:1.5;"/>
      <g>
       <use style="stroke:#000000;" x="303.28575" xlink:href="#mc2feb87e8c" y="187.82"/>
      </g>
     </g>
     <g id="text_18">
      <!-- 0 -->
      <g style="fill:#4d4d4d;" transform="translate(300.48625 199.456625)scale(0.088 -0.088)">
       <use xlink:href="#DejaVuSans-48"/>
      </g>
     </g>
    </g>
    <g id="xtick_20">
     <g id="line2d_54">
      <path clip-path="url(#p09bebc38b0)" d="M 327.88575 187.82 
L 327.88575 21.5 
" style="fill:none;stroke:#e5e5e5;stroke-linecap:square;stroke-width:0.8;"/>
     </g>
     <g id="line2d_55">
      <path d="M 327.88575 187.82 
" style="fill:none;stroke:#000000;stroke-linecap:square;stroke-width:1.5;"/>
      <g>
       <use style="stroke:#000000;" x="327.88575" xlink:href="#mc2feb87e8c" y="187.82"/>
      </g>
     </g>
     <g id="text_19">
      <!-- 0.25 -->
      <g style="fill:#4d4d4d;" transform="translate(318.088875 199.456625)scale(0.088 -0.088)">
       <use xlink:href="#DejaVuSans-48"/>
       <use x="63.623047" xlink:href="#DejaVuSans-46"/>
       <use x="95.410156" xlink:href="#DejaVuSans-50"/>
       <use x="159.033203" xlink:href="#DejaVuSans-53"/>
      </g>
     </g>
    </g>
    <g id="xtick_21">
     <g id="line2d_56">
      <path clip-path="url(#p09bebc38b0)" d="M 352.48575 187.82 
L 352.48575 21.5 
" style="fill:none;stroke:#e5e5e5;stroke-linecap:square;stroke-width:0.8;"/>
     </g>
     <g id="line2d_57">
      <path d="M 352.48575 187.82 
" style="fill:none;stroke:#000000;stroke-linecap:square;stroke-width:1.5;"/>
      <g>
       <use style="stroke:#000000;" x="352.48575" xlink:href="#mc2feb87e8c" y="187.82"/>
      </g>
     </g>
     <g id="text_20">
      <!-- 0.50 -->
      <g style="fill:#4d4d4d;" transform="translate(342.688875 199.456625)scale(0.088 -0.088)">
       <use xlink:href="#DejaVuSans-48"/>
       <use x="63.623047" xlink:href="#DejaVuSans-46"/>
       <use x="95.410156" xlink:href="#DejaVuSans-53"/>
       <use x="159.033203" xlink:href="#DejaVuSans-48"/>
      </g>
     </g>
    </g>
    <g id="xtick_22">
     <g id="line2d_58">
      <path clip-path="url(#p09bebc38b0)" d="M 377.08575 187.82 
L 377.08575 21.5 
" style="fill:none;stroke:#e5e5e5;stroke-linecap:square;stroke-width:0.8;"/>
     </g>
     <g id="line2d_59">
      <path d="M 377.08575 187.82 
" style="fill:none;stroke:#000000;stroke-linecap:square;stroke-width:1.5;"/>
      <g>
       <use style="stroke:#000000;" x="377.08575" xlink:href="#mc2feb87e8c" y="187.82"/>
      </g>
     </g>
     <g id="text_21">
      <!-- 0.75 -->
      <g style="fill:#4d4d4d;" transform="translate(367.288875 199.456625)scale(0.088 -0.088)">
       <use xlink:href="#DejaVuSans-48"/>
       <use x="63.623047" xlink:href="#DejaVuSans-46"/>
       <use x="95.410156" xlink:href="#DejaVuSans-55"/>
       <use x="159.033203" xlink:href="#DejaVuSans-53"/>
      </g>
     </g>
    </g>
    <g id="xtick_23">
     <g id="line2d_60">
      <path clip-path="url(#p09bebc38b0)" d="M 401.68575 187.82 
L 401.68575 21.5 
" style="fill:none;stroke:#e5e5e5;stroke-linecap:square;stroke-width:0.8;"/>
     </g>
     <g id="line2d_61">
      <path d="M 401.68575 187.82 
" style="fill:none;stroke:#000000;stroke-linecap:square;stroke-width:1.5;"/>
      <g>
       <use style="stroke:#000000;" x="401.68575" xlink:href="#mc2feb87e8c" y="187.82"/>
      </g>
     </g>
     <g id="text_22">
      <!-- 1 -->
      <g style="fill:#4d4d4d;" transform="translate(398.88625 199.456625)scale(0.088 -0.088)">
       <use xlink:href="#DejaVuSans-49"/>
      </g>
     </g>
    </g>
    <g id="xtick_24">
     <g id="line2d_62">
      <path clip-path="url(#p09bebc38b0)" d="M 315.58575 187.82 
L 315.58575 21.5 
" style="fill:none;stroke:#fafafa;stroke-linecap:square;"/>
     </g>
     <g id="line2d_63">
      <path d="M 315.58575 187.82 
" style="fill:none;stroke:#000000;stroke-linecap:square;stroke-width:1.5;"/>
      <g>
       <use style="stroke:#000000;" x="315.58575" xlink:href="#ma37cdea0cf" y="187.82"/>
      </g>
     </g>
    </g>
    <g id="xtick_25">
     <g id="line2d_64">
      <path clip-path="url(#p09bebc38b0)" d="M 340.18575 187.82 
L 340.18575 21.5 
" style="fill:none;stroke:#fafafa;stroke-linecap:square;"/>
     </g>
     <g id="line2d_65">
      <path d="M 340.18575 187.82 
" style="fill:none;stroke:#000000;stroke-linecap:square;stroke-width:1.5;"/>
      <g>
       <use style="stroke:#000000;" x="340.18575" xlink:href="#ma37cdea0cf" y="187.82"/>
      </g>
     </g>
    </g>
    <g id="xtick_26">
     <g id="line2d_66">
      <path clip-path="url(#p09bebc38b0)" d="M 364.78575 187.82 
L 364.78575 21.5 
" style="fill:none;stroke:#fafafa;stroke-linecap:square;"/>
     </g>
     <g id="line2d_67">
      <path d="M 364.78575 187.82 
" style="fill:none;stroke:#000000;stroke-linecap:square;stroke-width:1.5;"/>
      <g>
       <use style="stroke:#000000;" x="364.78575" xlink:href="#ma37cdea0cf" y="187.82"/>
      </g>
     </g>
    </g>
    <g id="xtick_27">
     <g id="line2d_68">
      <path clip-path="url(#p09bebc38b0)" d="M 389.38575 187.82 
L 389.38575 21.5 
" style="fill:none;stroke:#fafafa;stroke-linecap:square;"/>
     </g>
     <g id="line2d_69">
      <path d="M 389.38575 187.82 
" style="fill:none;stroke:#000000;stroke-linecap:square;stroke-width:1.5;"/>
      <g>
       <use style="stroke:#000000;" x="389.38575" xlink:href="#ma37cdea0cf" y="187.82"/>
      </g>
     </g>
    </g>
   </g>
   <g id="matplotlib.axis_6">
    <g id="ytick_11">
     <g id="line2d_70">
      <path clip-path="url(#p09bebc38b0)" d="M 298.36575 168.629231 
L 406.60575 168.629231 
" style="fill:none;stroke:#e5e5e5;stroke-linecap:square;stroke-width:0.8;"/>
     </g>
    </g>
    <g id="ytick_12">
     <g id="line2d_71">
      <path clip-path="url(#p09bebc38b0)" d="M 298.36575 136.644615 
L 406.60575 136.644615 
" style="fill:none;stroke:#e5e5e5;stroke-linecap:square;stroke-width:0.8;"/>
     </g>
    </g>
    <g id="ytick_13">
     <g id="line2d_72">
      <path clip-path="url(#p09bebc38b0)" d="M 298.36575 104.66 
L 406.60575 104.66 
" style="fill:none;stroke:#e5e5e5;stroke-linecap:square;stroke-width:0.8;"/>
     </g>
    </g>
    <g id="ytick_14">
     <g id="line2d_73">
      <path clip-path="url(#p09bebc38b0)" d="M 298.36575 72.675385 
L 406.60575 72.675385 
" style="fill:none;stroke:#e5e5e5;stroke-linecap:square;stroke-width:0.8;"/>
     </g>
    </g>
    <g id="ytick_15">
     <g id="line2d_74">
      <path clip-path="url(#p09bebc38b0)" d="M 298.36575 40.690769 
L 406.60575 40.690769 
" style="fill:none;stroke:#e5e5e5;stroke-linecap:square;stroke-width:0.8;"/>
     </g>
    </g>
   </g>
   <g id="PathCollection_3">
    <path clip-path="url(#p09bebc38b0)" d="M 391.84575 170.401685 
C 392.31581 170.401685 392.766681 170.214928 393.099064 169.882545 
C 393.431447 169.550162 393.618204 169.099291 393.618204 168.629231 
C 393.618204 168.159171 393.431447 167.708299 393.099064 167.375917 
C 392.766681 167.043534 392.31581 166.856777 391.84575 166.856777 
C 391.37569 166.856777 390.924819 167.043534 390.592436 167.375917 
C 390.260053 167.708299 390.073296 168.159171 390.073296 168.629231 
C 390.073296 169.099291 390.260053 169.550162 390.592436 169.882545 
C 390.924819 170.214928 391.37569 170.401685 391.84575 170.401685 
z
" style="fill:#db5f57;stroke:#000000;stroke-width:0.886227;"/>
    <path clip-path="url(#p09bebc38b0)" d="M 395.78175 138.417069 
C 396.25181 138.417069 396.702681 138.230312 397.035064 137.89793 
C 397.367447 137.565547 397.554204 137.114676 397.554204 136.644615 
C 397.554204 136.174555 397.367447 135.723684 397.035064 135.391301 
C 396.702681 135.058918 396.25181 134.872162 395.78175 134.872162 
C 395.31169 134.872162 394.860819 135.058918 394.528436 135.391301 
C 394.196053 135.723684 394.009296 136.174555 394.009296 136.644615 
C 394.009296 137.114676 394.196053 137.565547 394.528436 137.89793 
C 394.860819 138.230312 395.31169 138.417069 395.78175 138.417069 
z
" style="fill:#b9db57;stroke:#000000;stroke-width:0.886227;"/>
    <path clip-path="url(#p09bebc38b0)" d="M 393.81375 106.432454 
C 394.28381 106.432454 394.734681 106.245697 395.067064 105.913314 
C 395.399447 105.580931 395.586204 105.13006 395.586204 104.66 
C 395.586204 104.18994 395.399447 103.739069 395.067064 103.406686 
C 394.734681 103.074303 394.28381 102.887546 393.81375 102.887546 
C 393.34369 102.887546 392.892819 103.074303 392.560436 103.406686 
C 392.228053 103.739069 392.041296 104.18994 392.041296 104.66 
C 392.041296 105.13006 392.228053 105.580931 392.560436 105.913314 
C 392.892819 106.245697 393.34369 106.432454 393.81375 106.432454 
z
" style="fill:#57db94;stroke:#000000;stroke-width:0.886227;"/>
    <path clip-path="url(#p09bebc38b0)" d="M 393.81375 74.447838 
C 394.28381 74.447838 394.734681 74.261082 395.067064 73.928699 
C 395.399447 73.596316 395.586204 73.145445 395.586204 72.675385 
C 395.586204 72.205324 395.399447 71.754453 395.067064 71.42207 
C 394.734681 71.089688 394.28381 70.902931 393.81375 70.902931 
C 393.34369 70.902931 392.892819 71.089688 392.560436 71.42207 
C 392.228053 71.754453 392.041296 72.205324 392.041296 72.675385 
C 392.041296 73.145445 392.228053 73.596316 392.560436 73.928699 
C 392.892819 74.261082 393.34369 74.447838 393.81375 74.447838 
z
" style="fill:#5784db;stroke:#000000;stroke-width:0.886227;"/>
    <path clip-path="url(#p09bebc38b0)" d="M 393.81375 42.463223 
C 394.28381 42.463223 394.734681 42.276466 395.067064 41.944083 
C 395.399447 41.611701 395.586204 41.160829 395.586204 40.690769 
C 395.586204 40.220709 395.399447 39.769838 395.067064 39.437455 
C 394.734681 39.105072 394.28381 38.918315 393.81375 38.918315 
C 393.34369 38.918315 392.892819 39.105072 392.560436 39.437455 
C 392.228053 39.769838 392.041296 40.220709 392.041296 40.690769 
C 392.041296 41.160829 392.228053 41.611701 392.560436 41.944083 
C 392.892819 42.276466 393.34369 42.463223 393.81375 42.463223 
z
" style="fill:#c957db;stroke:#000000;stroke-width:0.886227;"/>
   </g>
   <g id="patch_7">
    <path d="M 298.36575 21.5 
L 406.60575 21.5 
L 406.60575 7.2 
L 298.36575 7.2 
z
" style="fill:#cccccc;stroke:#7f7f7f;stroke-linejoin:miter;"/>
   </g>
   <g id="text_23">
    <!-- recall -->
    <g style="fill:#1a1a1a;" transform="translate(340.4105 16.77825)scale(0.088 -0.088)">
     <use xlink:href="#DejaVuSans-114"/>
     <use x="41.082031" xlink:href="#DejaVuSans-101"/>
     <use x="102.605469" xlink:href="#DejaVuSans-99"/>
     <use x="157.585938" xlink:href="#DejaVuSans-97"/>
     <use x="218.865234" xlink:href="#DejaVuSans-108"/>
     <use x="246.648438" xlink:href="#DejaVuSans-108"/>
    </g>
   </g>
  </g>
 </g>
 <defs>
  <clipPath id="p774000081c">
   <rect height="166.32" width="108.24" x="71.80575" y="21.5"/>
  </clipPath>
  <clipPath id="p4f27bdf748">
   <rect height="166.32" width="108.24" x="185.08575" y="21.5"/>
  </clipPath>
  <clipPath id="p09bebc38b0">
   <rect height="166.32" width="108.24" x="298.36575" y="21.5"/>
  </clipPath>
 </defs>
</svg>
