<?xml version="1.0" encoding="utf-8" standalone="no"?>
<!DOCTYPE svg PUBLIC "-//W3C//DTD SVG 1.1//EN"
  "http://www.w3.org/Graphics/SVG/1.1/DTD/svg11.dtd">
<!-- Created with matplotlib (https://matplotlib.org/) -->
<svg height="208.48675pt" version="1.1" viewBox="0 0 461.855125 208.48675" width="461.855125pt" xmlns="http://www.w3.org/2000/svg" xmlns:xlink="http://www.w3.org/1999/xlink">
 <defs>
  <style type="text/css">
*{stroke-linecap:butt;stroke-linejoin:round;}
  </style>
 </defs>
 <g id="figure_1">
  <g id="patch_1">
   <path d="M 0 208.48675 
L 461.855125 208.48675 
L 461.855125 0 
L 0 0 
z
" style="fill:#ffffff;stroke:#ffffff;stroke-linejoin:miter;"/>
  </g>
  <g id="axes_1">
   <g id="patch_2">
    <path d="M 119.855125 187.82 
L 228.095125 187.82 
L 228.095125 21.5 
L 119.855125 21.5 
z
" style="fill:#ffffff;stroke:#7f7f7f;stroke-linejoin:miter;"/>
   </g>
   <g id="matplotlib.axis_1">
    <g id="xtick_1">
     <g id="line2d_1">
      <path clip-path="url(#p6e49f6a52c)" d="M 124.775125 187.82 
L 124.775125 21.5 
" style="fill:none;stroke:#e5e5e5;stroke-width:0.8;"/>
     </g>
     <g id="line2d_2">
      <path d="M 124.775125 187.82 
" style="fill:none;stroke:#000000;stroke-width:1.5;"/>
      <defs>
       <path d="M 0 0 
L 0 2.75 
" id="mbf85a21cc7" style="stroke:#000000;"/>
      </defs>
      <g>
       <use style="stroke:#000000;" x="124.775125" xlink:href="#mbf85a21cc7" y="187.82"/>
      </g>
     </g>
     <g id="text_1">
      <!-- 0 -->
      <defs>
       <path d="M 31.78125 66.40625 
Q 24.171875 66.40625 20.328125 58.90625 
Q 16.5 51.421875 16.5 36.375 
Q 16.5 21.390625 20.328125 13.890625 
Q 24.171875 6.390625 31.78125 6.390625 
Q 39.453125 6.390625 43.28125 13.890625 
Q 47.125 21.390625 47.125 36.375 
Q 47.125 51.421875 43.28125 58.90625 
Q 39.453125 66.40625 31.78125 66.40625 
z
M 31.78125 74.21875 
Q 44.046875 74.21875 50.515625 64.515625 
Q 56.984375 54.828125 56.984375 36.375 
Q 56.984375 17.96875 50.515625 8.265625 
Q 44.046875 -1.421875 31.78125 -1.421875 
Q 19.53125 -1.421875 13.0625 8.265625 
Q 6.59375 17.96875 6.59375 36.375 
Q 6.59375 54.828125 13.0625 64.515625 
Q 19.53125 74.21875 31.78125 74.21875 
z
" id="DejaVuSans-48"/>
      </defs>
      <g style="fill:#4d4d4d;" transform="translate(121.975625 199.456625)scale(0.088 -0.088)">
       <use xlink:href="#DejaVuSans-48"/>
      </g>
     </g>
    </g>
    <g id="xtick_2">
     <g id="line2d_3">
      <path clip-path="url(#p6e49f6a52c)" d="M 149.375125 187.82 
L 149.375125 21.5 
" style="fill:none;stroke:#e5e5e5;stroke-width:0.8;"/>
     </g>
     <g id="line2d_4">
      <path d="M 149.375125 187.82 
" style="fill:none;stroke:#000000;stroke-width:1.5;"/>
      <g>
       <use style="stroke:#000000;" x="149.375125" xlink:href="#mbf85a21cc7" y="187.82"/>
      </g>
     </g>
     <g id="text_2">
      <!-- 0.25 -->
      <defs>
       <path d="M 10.6875 12.40625 
L 21 12.40625 
L 21 0 
L 10.6875 0 
z
" id="DejaVuSans-46"/>
       <path d="M 19.1875 8.296875 
L 53.609375 8.296875 
L 53.609375 0 
L 7.328125 0 
L 7.328125 8.296875 
Q 12.9375 14.109375 22.625 23.890625 
Q 32.328125 33.6875 34.8125 36.53125 
Q 39.546875 41.84375 41.421875 45.53125 
Q 43.3125 49.21875 43.3125 52.78125 
Q 43.3125 58.59375 39.234375 62.25 
Q 35.15625 65.921875 28.609375 65.921875 
Q 23.96875 65.921875 18.8125 64.3125 
Q 13.671875 62.703125 7.8125 59.421875 
L 7.8125 69.390625 
Q 13.765625 71.78125 18.9375 73 
Q 24.125 74.21875 28.421875 74.21875 
Q 39.75 74.21875 46.484375 68.546875 
Q 53.21875 62.890625 53.21875 53.421875 
Q 53.21875 48.921875 51.53125 44.890625 
Q 49.859375 40.875 45.40625 35.40625 
Q 44.1875 33.984375 37.640625 27.21875 
Q 31.109375 20.453125 19.1875 8.296875 
z
" id="DejaVuSans-50"/>
       <path d="M 10.796875 72.90625 
L 49.515625 72.90625 
L 49.515625 64.59375 
L 19.828125 64.59375 
L 19.828125 46.734375 
Q 21.96875 47.46875 24.109375 47.828125 
Q 26.265625 48.1875 28.421875 48.1875 
Q 40.625 48.1875 47.75 41.5 
Q 54.890625 34.8125 54.890625 23.390625 
Q 54.890625 11.625 47.5625 5.09375 
Q 40.234375 -1.421875 26.90625 -1.421875 
Q 22.3125 -1.421875 17.546875 -0.640625 
Q 12.796875 0.140625 7.71875 1.703125 
L 7.71875 11.625 
Q 12.109375 9.234375 16.796875 8.0625 
Q 21.484375 6.890625 26.703125 6.890625 
Q 35.15625 6.890625 40.078125 11.328125 
Q 45.015625 15.765625 45.015625 23.390625 
Q 45.015625 31 40.078125 35.4375 
Q 35.15625 39.890625 26.703125 39.890625 
Q 22.75 39.890625 18.8125 39.015625 
Q 14.890625 38.140625 10.796875 36.28125 
z
" id="DejaVuSans-53"/>
      </defs>
      <g style="fill:#4d4d4d;" transform="translate(139.57825 199.456625)scale(0.088 -0.088)">
       <use xlink:href="#DejaVuSans-48"/>
       <use x="63.623047" xlink:href="#DejaVuSans-46"/>
       <use x="95.410156" xlink:href="#DejaVuSans-50"/>
       <use x="159.033203" xlink:href="#DejaVuSans-53"/>
      </g>
     </g>
    </g>
    <g id="xtick_3">
     <g id="line2d_5">
      <path clip-path="url(#p6e49f6a52c)" d="M 173.975125 187.82 
L 173.975125 21.5 
" style="fill:none;stroke:#e5e5e5;stroke-width:0.8;"/>
     </g>
     <g id="line2d_6">
      <path d="M 173.975125 187.82 
" style="fill:none;stroke:#000000;stroke-width:1.5;"/>
      <g>
       <use style="stroke:#000000;" x="173.975125" xlink:href="#mbf85a21cc7" y="187.82"/>
      </g>
     </g>
     <g id="text_3">
      <!-- 0.50 -->
      <g style="fill:#4d4d4d;" transform="translate(164.17825 199.456625)scale(0.088 -0.088)">
       <use xlink:href="#DejaVuSans-48"/>
       <use x="63.623047" xlink:href="#DejaVuSans-46"/>
       <use x="95.410156" xlink:href="#DejaVuSans-53"/>
       <use x="159.033203" xlink:href="#DejaVuSans-48"/>
      </g>
     </g>
    </g>
    <g id="xtick_4">
     <g id="line2d_7">
      <path clip-path="url(#p6e49f6a52c)" d="M 198.575125 187.82 
L 198.575125 21.5 
" style="fill:none;stroke:#e5e5e5;stroke-width:0.8;"/>
     </g>
     <g id="line2d_8">
      <path d="M 198.575125 187.82 
" style="fill:none;stroke:#000000;stroke-width:1.5;"/>
      <g>
       <use style="stroke:#000000;" x="198.575125" xlink:href="#mbf85a21cc7" y="187.82"/>
      </g>
     </g>
     <g id="text_4">
      <!-- 0.75 -->
      <defs>
       <path d="M 8.203125 72.90625 
L 55.078125 72.90625 
L 55.078125 68.703125 
L 28.609375 0 
L 18.3125 0 
L 43.21875 64.59375 
L 8.203125 64.59375 
z
" id="DejaVuSans-55"/>
      </defs>
      <g style="fill:#4d4d4d;" transform="translate(188.77825 199.456625)scale(0.088 -0.088)">
       <use xlink:href="#DejaVuSans-48"/>
       <use x="63.623047" xlink:href="#DejaVuSans-46"/>
       <use x="95.410156" xlink:href="#DejaVuSans-55"/>
       <use x="159.033203" xlink:href="#DejaVuSans-53"/>
      </g>
     </g>
    </g>
    <g id="xtick_5">
     <g id="line2d_9">
      <path clip-path="url(#p6e49f6a52c)" d="M 223.175125 187.82 
L 223.175125 21.5 
" style="fill:none;stroke:#e5e5e5;stroke-width:0.8;"/>
     </g>
     <g id="line2d_10">
      <path d="M 223.175125 187.82 
" style="fill:none;stroke:#000000;stroke-width:1.5;"/>
      <g>
       <use style="stroke:#000000;" x="223.175125" xlink:href="#mbf85a21cc7" y="187.82"/>
      </g>
     </g>
     <g id="text_5">
      <!-- 1 -->
      <defs>
       <path d="M 12.40625 8.296875 
L 28.515625 8.296875 
L 28.515625 63.921875 
L 10.984375 60.40625 
L 10.984375 69.390625 
L 28.421875 72.90625 
L 38.28125 72.90625 
L 38.28125 8.296875 
L 54.390625 8.296875 
L 54.390625 0 
L 12.40625 0 
z
" id="DejaVuSans-49"/>
      </defs>
      <g style="fill:#4d4d4d;" transform="translate(220.375625 199.456625)scale(0.088 -0.088)">
       <use xlink:href="#DejaVuSans-49"/>
      </g>
     </g>
    </g>
    <g id="xtick_6">
     <g id="line2d_11">
      <path clip-path="url(#p6e49f6a52c)" d="M 137.075125 187.82 
L 137.075125 21.5 
" style="fill:none;stroke:#fafafa;"/>
     </g>
     <g id="line2d_12">
      <path d="M 137.075125 187.82 
" style="fill:none;stroke:#000000;stroke-width:1.5;"/>
      <defs>
       <path d="M 0 0 
L 0 1.375 
" id="m24fd4f8cc3" style="stroke:#000000;"/>
      </defs>
      <g>
       <use style="stroke:#000000;" x="137.075125" xlink:href="#m24fd4f8cc3" y="187.82"/>
      </g>
     </g>
    </g>
    <g id="xtick_7">
     <g id="line2d_13">
      <path clip-path="url(#p6e49f6a52c)" d="M 161.675125 187.82 
L 161.675125 21.5 
" style="fill:none;stroke:#fafafa;"/>
     </g>
     <g id="line2d_14">
      <path d="M 161.675125 187.82 
" style="fill:none;stroke:#000000;stroke-width:1.5;"/>
      <g>
       <use style="stroke:#000000;" x="161.675125" xlink:href="#m24fd4f8cc3" y="187.82"/>
      </g>
     </g>
    </g>
    <g id="xtick_8">
     <g id="line2d_15">
      <path clip-path="url(#p6e49f6a52c)" d="M 186.275125 187.82 
L 186.275125 21.5 
" style="fill:none;stroke:#fafafa;"/>
     </g>
     <g id="line2d_16">
      <path d="M 186.275125 187.82 
" style="fill:none;stroke:#000000;stroke-width:1.5;"/>
      <g>
       <use style="stroke:#000000;" x="186.275125" xlink:href="#m24fd4f8cc3" y="187.82"/>
      </g>
     </g>
    </g>
    <g id="xtick_9">
     <g id="line2d_17">
      <path clip-path="url(#p6e49f6a52c)" d="M 210.875125 187.82 
L 210.875125 21.5 
" style="fill:none;stroke:#fafafa;"/>
     </g>
     <g id="line2d_18">
      <path d="M 210.875125 187.82 
" style="fill:none;stroke:#000000;stroke-width:1.5;"/>
      <g>
       <use style="stroke:#000000;" x="210.875125" xlink:href="#m24fd4f8cc3" y="187.82"/>
      </g>
     </g>
    </g>
   </g>
   <g id="matplotlib.axis_2">
    <g id="ytick_1">
     <g id="line2d_19">
      <path clip-path="url(#p6e49f6a52c)" d="M 119.855125 176.973043 
L 228.095125 176.973043 
" style="fill:none;stroke:#e5e5e5;stroke-width:0.8;"/>
     </g>
     <g id="line2d_20">
      <path d="M 119.855125 176.973043 
" style="fill:none;stroke:#000000;stroke-width:1.5;"/>
      <defs>
       <path d="M 0 0 
L -2.75 0 
" id="ma7b9999899" style="stroke:#000000;"/>
      </defs>
      <g>
       <use style="stroke:#000000;" x="119.855125" xlink:href="#ma7b9999899" y="176.973043"/>
      </g>
     </g>
     <g id="text_6">
      <!-- External_Auditory_Canal -->
      <defs>
       <path d="M 9.8125 72.90625 
L 55.90625 72.90625 
L 55.90625 64.59375 
L 19.671875 64.59375 
L 19.671875 43.015625 
L 54.390625 43.015625 
L 54.390625 34.71875 
L 19.671875 34.71875 
L 19.671875 8.296875 
L 56.78125 8.296875 
L 56.78125 0 
L 9.8125 0 
z
" id="DejaVuSans-69"/>
       <path d="M 54.890625 54.6875 
L 35.109375 28.078125 
L 55.90625 0 
L 45.3125 0 
L 29.390625 21.484375 
L 13.484375 0 
L 2.875 0 
L 24.125 28.609375 
L 4.6875 54.6875 
L 15.28125 54.6875 
L 29.78125 35.203125 
L 44.28125 54.6875 
z
" id="DejaVuSans-120"/>
       <path d="M 18.3125 70.21875 
L 18.3125 54.6875 
L 36.8125 54.6875 
L 36.8125 47.703125 
L 18.3125 47.703125 
L 18.3125 18.015625 
Q 18.3125 11.328125 20.140625 9.421875 
Q 21.96875 7.515625 27.59375 7.515625 
L 36.8125 7.515625 
L 36.8125 0 
L 27.59375 0 
Q 17.1875 0 13.234375 3.875 
Q 9.28125 7.765625 9.28125 18.015625 
L 9.28125 47.703125 
L 2.6875 47.703125 
L 2.6875 54.6875 
L 9.28125 54.6875 
L 9.28125 70.21875 
z
" id="DejaVuSans-116"/>
       <path d="M 56.203125 29.59375 
L 56.203125 25.203125 
L 14.890625 25.203125 
Q 15.484375 15.921875 20.484375 11.0625 
Q 25.484375 6.203125 34.421875 6.203125 
Q 39.59375 6.203125 44.453125 7.46875 
Q 49.3125 8.734375 54.109375 11.28125 
L 54.109375 2.78125 
Q 49.265625 0.734375 44.1875 -0.34375 
Q 39.109375 -1.421875 33.890625 -1.421875 
Q 20.796875 -1.421875 13.15625 6.1875 
Q 5.515625 13.8125 5.515625 26.8125 
Q 5.515625 40.234375 12.765625 48.109375 
Q 20.015625 56 32.328125 56 
Q 43.359375 56 49.78125 48.890625 
Q 56.203125 41.796875 56.203125 29.59375 
z
M 47.21875 32.234375 
Q 47.125 39.59375 43.09375 43.984375 
Q 39.0625 48.390625 32.421875 48.390625 
Q 24.90625 48.390625 20.390625 44.140625 
Q 15.875 39.890625 15.1875 32.171875 
z
" id="DejaVuSans-101"/>
       <path d="M 41.109375 46.296875 
Q 39.59375 47.171875 37.8125 47.578125 
Q 36.03125 48 33.890625 48 
Q 26.265625 48 22.1875 43.046875 
Q 18.109375 38.09375 18.109375 28.8125 
L 18.109375 0 
L 9.078125 0 
L 9.078125 54.6875 
L 18.109375 54.6875 
L 18.109375 46.1875 
Q 20.953125 51.171875 25.484375 53.578125 
Q 30.03125 56 36.53125 56 
Q 37.453125 56 38.578125 55.875 
Q 39.703125 55.765625 41.0625 55.515625 
z
" id="DejaVuSans-114"/>
       <path d="M 54.890625 33.015625 
L 54.890625 0 
L 45.90625 0 
L 45.90625 32.71875 
Q 45.90625 40.484375 42.875 44.328125 
Q 39.84375 48.1875 33.796875 48.1875 
Q 26.515625 48.1875 22.3125 43.546875 
Q 18.109375 38.921875 18.109375 30.90625 
L 18.109375 0 
L 9.078125 0 
L 9.078125 54.6875 
L 18.109375 54.6875 
L 18.109375 46.1875 
Q 21.34375 51.125 25.703125 53.5625 
Q 30.078125 56 35.796875 56 
Q 45.21875 56 50.046875 50.171875 
Q 54.890625 44.34375 54.890625 33.015625 
z
" id="DejaVuSans-110"/>
       <path d="M 34.28125 27.484375 
Q 23.390625 27.484375 19.1875 25 
Q 14.984375 22.515625 14.984375 16.5 
Q 14.984375 11.71875 18.140625 8.90625 
Q 21.296875 6.109375 26.703125 6.109375 
Q 34.1875 6.109375 38.703125 11.40625 
Q 43.21875 16.703125 43.21875 25.484375 
L 43.21875 27.484375 
z
M 52.203125 31.203125 
L 52.203125 0 
L 43.21875 0 
L 43.21875 8.296875 
Q 40.140625 3.328125 35.546875 0.953125 
Q 30.953125 -1.421875 24.3125 -1.421875 
Q 15.921875 -1.421875 10.953125 3.296875 
Q 6 8.015625 6 15.921875 
Q 6 25.140625 12.171875 29.828125 
Q 18.359375 34.515625 30.609375 34.515625 
L 43.21875 34.515625 
L 43.21875 35.40625 
Q 43.21875 41.609375 39.140625 45 
Q 35.0625 48.390625 27.6875 48.390625 
Q 23 48.390625 18.546875 47.265625 
Q 14.109375 46.140625 10.015625 43.890625 
L 10.015625 52.203125 
Q 14.9375 54.109375 19.578125 55.046875 
Q 24.21875 56 28.609375 56 
Q 40.484375 56 46.34375 49.84375 
Q 52.203125 43.703125 52.203125 31.203125 
z
" id="DejaVuSans-97"/>
       <path d="M 9.421875 75.984375 
L 18.40625 75.984375 
L 18.40625 0 
L 9.421875 0 
z
" id="DejaVuSans-108"/>
       <path d="M 50.984375 -16.609375 
L 50.984375 -23.578125 
L -0.984375 -23.578125 
L -0.984375 -16.609375 
z
" id="DejaVuSans-95"/>
       <path d="M 34.1875 63.1875 
L 20.796875 26.90625 
L 47.609375 26.90625 
z
M 28.609375 72.90625 
L 39.796875 72.90625 
L 67.578125 0 
L 57.328125 0 
L 50.6875 18.703125 
L 17.828125 18.703125 
L 11.1875 0 
L 0.78125 0 
z
" id="DejaVuSans-65"/>
       <path d="M 8.5 21.578125 
L 8.5 54.6875 
L 17.484375 54.6875 
L 17.484375 21.921875 
Q 17.484375 14.15625 20.5 10.265625 
Q 23.53125 6.390625 29.59375 6.390625 
Q 36.859375 6.390625 41.078125 11.03125 
Q 45.3125 15.671875 45.3125 23.6875 
L 45.3125 54.6875 
L 54.296875 54.6875 
L 54.296875 0 
L 45.3125 0 
L 45.3125 8.40625 
Q 42.046875 3.421875 37.71875 1 
Q 33.40625 -1.421875 27.6875 -1.421875 
Q 18.265625 -1.421875 13.375 4.4375 
Q 8.5 10.296875 8.5 21.578125 
z
M 31.109375 56 
z
" id="DejaVuSans-117"/>
       <path d="M 45.40625 46.390625 
L 45.40625 75.984375 
L 54.390625 75.984375 
L 54.390625 0 
L 45.40625 0 
L 45.40625 8.203125 
Q 42.578125 3.328125 38.25 0.953125 
Q 33.9375 -1.421875 27.875 -1.421875 
Q 17.96875 -1.421875 11.734375 6.484375 
Q 5.515625 14.40625 5.515625 27.296875 
Q 5.515625 40.1875 11.734375 48.09375 
Q 17.96875 56 27.875 56 
Q 33.9375 56 38.25 53.625 
Q 42.578125 51.265625 45.40625 46.390625 
z
M 14.796875 27.296875 
Q 14.796875 17.390625 18.875 11.75 
Q 22.953125 6.109375 30.078125 6.109375 
Q 37.203125 6.109375 41.296875 11.75 
Q 45.40625 17.390625 45.40625 27.296875 
Q 45.40625 37.203125 41.296875 42.84375 
Q 37.203125 48.484375 30.078125 48.484375 
Q 22.953125 48.484375 18.875 42.84375 
Q 14.796875 37.203125 14.796875 27.296875 
z
" id="DejaVuSans-100"/>
       <path d="M 9.421875 54.6875 
L 18.40625 54.6875 
L 18.40625 0 
L 9.421875 0 
z
M 9.421875 75.984375 
L 18.40625 75.984375 
L 18.40625 64.59375 
L 9.421875 64.59375 
z
" id="DejaVuSans-105"/>
       <path d="M 30.609375 48.390625 
Q 23.390625 48.390625 19.1875 42.75 
Q 14.984375 37.109375 14.984375 27.296875 
Q 14.984375 17.484375 19.15625 11.84375 
Q 23.34375 6.203125 30.609375 6.203125 
Q 37.796875 6.203125 41.984375 11.859375 
Q 46.1875 17.53125 46.1875 27.296875 
Q 46.1875 37.015625 41.984375 42.703125 
Q 37.796875 48.390625 30.609375 48.390625 
z
M 30.609375 56 
Q 42.328125 56 49.015625 48.375 
Q 55.71875 40.765625 55.71875 27.296875 
Q 55.71875 13.875 49.015625 6.21875 
Q 42.328125 -1.421875 30.609375 -1.421875 
Q 18.84375 -1.421875 12.171875 6.21875 
Q 5.515625 13.875 5.515625 27.296875 
Q 5.515625 40.765625 12.171875 48.375 
Q 18.84375 56 30.609375 56 
z
" id="DejaVuSans-111"/>
       <path d="M 32.171875 -5.078125 
Q 28.375 -14.84375 24.75 -17.8125 
Q 21.140625 -20.796875 15.09375 -20.796875 
L 7.90625 -20.796875 
L 7.90625 -13.28125 
L 13.1875 -13.28125 
Q 16.890625 -13.28125 18.9375 -11.515625 
Q 21 -9.765625 23.484375 -3.21875 
L 25.09375 0.875 
L 2.984375 54.6875 
L 12.5 54.6875 
L 29.59375 11.921875 
L 46.6875 54.6875 
L 56.203125 54.6875 
z
" id="DejaVuSans-121"/>
       <path d="M 64.40625 67.28125 
L 64.40625 56.890625 
Q 59.421875 61.53125 53.78125 63.8125 
Q 48.140625 66.109375 41.796875 66.109375 
Q 29.296875 66.109375 22.65625 58.46875 
Q 16.015625 50.828125 16.015625 36.375 
Q 16.015625 21.96875 22.65625 14.328125 
Q 29.296875 6.6875 41.796875 6.6875 
Q 48.140625 6.6875 53.78125 8.984375 
Q 59.421875 11.28125 64.40625 15.921875 
L 64.40625 5.609375 
Q 59.234375 2.09375 53.4375 0.328125 
Q 47.65625 -1.421875 41.21875 -1.421875 
Q 24.65625 -1.421875 15.125 8.703125 
Q 5.609375 18.84375 5.609375 36.375 
Q 5.609375 53.953125 15.125 64.078125 
Q 24.65625 74.21875 41.21875 74.21875 
Q 47.75 74.21875 53.53125 72.484375 
Q 59.328125 70.75 64.40625 67.28125 
z
" id="DejaVuSans-67"/>
      </defs>
      <g style="fill:#4d4d4d;" transform="translate(7.2 179.278918)scale(0.088 -0.088)">
       <use xlink:href="#DejaVuSans-69"/>
       <use x="63.183594" xlink:href="#DejaVuSans-120"/>
       <use x="122.363281" xlink:href="#DejaVuSans-116"/>
       <use x="161.572266" xlink:href="#DejaVuSans-101"/>
       <use x="223.095703" xlink:href="#DejaVuSans-114"/>
       <use x="264.193359" xlink:href="#DejaVuSans-110"/>
       <use x="327.572266" xlink:href="#DejaVuSans-97"/>
       <use x="388.851562" xlink:href="#DejaVuSans-108"/>
       <use x="416.634766" xlink:href="#DejaVuSans-95"/>
       <use x="466.634766" xlink:href="#DejaVuSans-65"/>
       <use x="535.042969" xlink:href="#DejaVuSans-117"/>
       <use x="598.421875" xlink:href="#DejaVuSans-100"/>
       <use x="661.898438" xlink:href="#DejaVuSans-105"/>
       <use x="689.681641" xlink:href="#DejaVuSans-116"/>
       <use x="728.890625" xlink:href="#DejaVuSans-111"/>
       <use x="790.072266" xlink:href="#DejaVuSans-114"/>
       <use x="831.185547" xlink:href="#DejaVuSans-121"/>
       <use x="890.365234" xlink:href="#DejaVuSans-95"/>
       <use x="940.365234" xlink:href="#DejaVuSans-67"/>
       <use x="1010.189453" xlink:href="#DejaVuSans-97"/>
       <use x="1071.46875" xlink:href="#DejaVuSans-110"/>
       <use x="1134.847656" xlink:href="#DejaVuSans-97"/>
       <use x="1196.126953" xlink:href="#DejaVuSans-108"/>
      </g>
     </g>
    </g>
    <g id="ytick_2">
     <g id="line2d_21">
      <path clip-path="url(#p6e49f6a52c)" d="M 119.855125 158.894783 
L 228.095125 158.894783 
" style="fill:none;stroke:#e5e5e5;stroke-width:0.8;"/>
     </g>
     <g id="line2d_22">
      <path d="M 119.855125 158.894783 
" style="fill:none;stroke:#000000;stroke-width:1.5;"/>
      <g>
       <use style="stroke:#000000;" x="119.855125" xlink:href="#ma7b9999899" y="158.894783"/>
      </g>
     </g>
     <g id="text_7">
      <!-- Feces -->
      <defs>
       <path d="M 9.8125 72.90625 
L 51.703125 72.90625 
L 51.703125 64.59375 
L 19.671875 64.59375 
L 19.671875 43.109375 
L 48.578125 43.109375 
L 48.578125 34.8125 
L 19.671875 34.8125 
L 19.671875 0 
L 9.8125 0 
z
" id="DejaVuSans-70"/>
       <path d="M 48.78125 52.59375 
L 48.78125 44.1875 
Q 44.96875 46.296875 41.140625 47.34375 
Q 37.3125 48.390625 33.40625 48.390625 
Q 24.65625 48.390625 19.8125 42.84375 
Q 14.984375 37.3125 14.984375 27.296875 
Q 14.984375 17.28125 19.8125 11.734375 
Q 24.65625 6.203125 33.40625 6.203125 
Q 37.3125 6.203125 41.140625 7.25 
Q 44.96875 8.296875 48.78125 10.40625 
L 48.78125 2.09375 
Q 45.015625 0.34375 40.984375 -0.53125 
Q 36.96875 -1.421875 32.421875 -1.421875 
Q 20.0625 -1.421875 12.78125 6.34375 
Q 5.515625 14.109375 5.515625 27.296875 
Q 5.515625 40.671875 12.859375 48.328125 
Q 20.21875 56 33.015625 56 
Q 37.15625 56 41.109375 55.140625 
Q 45.0625 54.296875 48.78125 52.59375 
z
" id="DejaVuSans-99"/>
       <path d="M 44.28125 53.078125 
L 44.28125 44.578125 
Q 40.484375 46.53125 36.375 47.5 
Q 32.28125 48.484375 27.875 48.484375 
Q 21.1875 48.484375 17.84375 46.4375 
Q 14.5 44.390625 14.5 40.28125 
Q 14.5 37.15625 16.890625 35.375 
Q 19.28125 33.59375 26.515625 31.984375 
L 29.59375 31.296875 
Q 39.15625 29.25 43.1875 25.515625 
Q 47.21875 21.78125 47.21875 15.09375 
Q 47.21875 7.46875 41.1875 3.015625 
Q 35.15625 -1.421875 24.609375 -1.421875 
Q 20.21875 -1.421875 15.453125 -0.5625 
Q 10.6875 0.296875 5.421875 2 
L 5.421875 11.28125 
Q 10.40625 8.6875 15.234375 7.390625 
Q 20.0625 6.109375 24.8125 6.109375 
Q 31.15625 6.109375 34.5625 8.28125 
Q 37.984375 10.453125 37.984375 14.40625 
Q 37.984375 18.0625 35.515625 20.015625 
Q 33.0625 21.96875 24.703125 23.78125 
L 21.578125 24.515625 
Q 13.234375 26.265625 9.515625 29.90625 
Q 5.8125 33.546875 5.8125 39.890625 
Q 5.8125 47.609375 11.28125 51.796875 
Q 16.75 56 26.8125 56 
Q 31.78125 56 36.171875 55.265625 
Q 40.578125 54.546875 44.28125 53.078125 
z
" id="DejaVuSans-115"/>
      </defs>
      <g style="fill:#4d4d4d;" transform="translate(89.59825 161.323033)scale(0.088 -0.088)">
       <use xlink:href="#DejaVuSans-70"/>
       <use x="57.441406" xlink:href="#DejaVuSans-101"/>
       <use x="118.964844" xlink:href="#DejaVuSans-99"/>
       <use x="173.945312" xlink:href="#DejaVuSans-101"/>
       <use x="235.46875" xlink:href="#DejaVuSans-115"/>
      </g>
     </g>
    </g>
    <g id="ytick_3">
     <g id="line2d_23">
      <path clip-path="url(#p6e49f6a52c)" d="M 119.855125 140.816522 
L 228.095125 140.816522 
" style="fill:none;stroke:#e5e5e5;stroke-width:0.8;"/>
     </g>
     <g id="line2d_24">
      <path d="M 119.855125 140.816522 
" style="fill:none;stroke:#000000;stroke-width:1.5;"/>
      <g>
       <use style="stroke:#000000;" x="119.855125" xlink:href="#ma7b9999899" y="140.816522"/>
      </g>
     </g>
     <g id="text_8">
      <!-- Hair -->
      <defs>
       <path d="M 9.8125 72.90625 
L 19.671875 72.90625 
L 19.671875 43.015625 
L 55.515625 43.015625 
L 55.515625 72.90625 
L 65.375 72.90625 
L 65.375 0 
L 55.515625 0 
L 55.515625 34.71875 
L 19.671875 34.71875 
L 19.671875 0 
L 9.8125 0 
z
" id="DejaVuSans-72"/>
      </defs>
      <g style="fill:#4d4d4d;" transform="translate(96.832125 143.244772)scale(0.088 -0.088)">
       <use xlink:href="#DejaVuSans-72"/>
       <use x="75.195312" xlink:href="#DejaVuSans-97"/>
       <use x="136.474609" xlink:href="#DejaVuSans-105"/>
       <use x="164.257812" xlink:href="#DejaVuSans-114"/>
      </g>
     </g>
    </g>
    <g id="ytick_4">
     <g id="line2d_25">
      <path clip-path="url(#p6e49f6a52c)" d="M 119.855125 122.738261 
L 228.095125 122.738261 
" style="fill:none;stroke:#e5e5e5;stroke-width:0.8;"/>
     </g>
     <g id="line2d_26">
      <path d="M 119.855125 122.738261 
" style="fill:none;stroke:#000000;stroke-width:1.5;"/>
      <g>
       <use style="stroke:#000000;" x="119.855125" xlink:href="#ma7b9999899" y="122.738261"/>
      </g>
     </g>
     <g id="text_9">
      <!-- Nostril -->
      <defs>
       <path d="M 9.8125 72.90625 
L 23.09375 72.90625 
L 55.421875 11.921875 
L 55.421875 72.90625 
L 64.984375 72.90625 
L 64.984375 0 
L 51.703125 0 
L 19.390625 60.984375 
L 19.390625 0 
L 9.8125 0 
z
" id="DejaVuSans-78"/>
      </defs>
      <g style="fill:#4d4d4d;" transform="translate(86.395875 125.166511)scale(0.088 -0.088)">
       <use xlink:href="#DejaVuSans-78"/>
       <use x="74.804688" xlink:href="#DejaVuSans-111"/>
       <use x="135.986328" xlink:href="#DejaVuSans-115"/>
       <use x="188.085938" xlink:href="#DejaVuSans-116"/>
       <use x="227.294922" xlink:href="#DejaVuSans-114"/>
       <use x="268.408203" xlink:href="#DejaVuSans-105"/>
       <use x="296.191406" xlink:href="#DejaVuSans-108"/>
      </g>
     </g>
    </g>
    <g id="ytick_5">
     <g id="line2d_27">
      <path clip-path="url(#p6e49f6a52c)" d="M 119.855125 104.66 
L 228.095125 104.66 
" style="fill:none;stroke:#e5e5e5;stroke-width:0.8;"/>
     </g>
     <g id="line2d_28">
      <path d="M 119.855125 104.66 
" style="fill:none;stroke:#000000;stroke-width:1.5;"/>
      <g>
       <use style="stroke:#000000;" x="119.855125" xlink:href="#ma7b9999899" y="104.66"/>
      </g>
     </g>
     <g id="text_10">
      <!-- Oral_Cavity -->
      <defs>
       <path d="M 39.40625 66.21875 
Q 28.65625 66.21875 22.328125 58.203125 
Q 16.015625 50.203125 16.015625 36.375 
Q 16.015625 22.609375 22.328125 14.59375 
Q 28.65625 6.59375 39.40625 6.59375 
Q 50.140625 6.59375 56.421875 14.59375 
Q 62.703125 22.609375 62.703125 36.375 
Q 62.703125 50.203125 56.421875 58.203125 
Q 50.140625 66.21875 39.40625 66.21875 
z
M 39.40625 74.21875 
Q 54.734375 74.21875 63.90625 63.9375 
Q 73.09375 53.65625 73.09375 36.375 
Q 73.09375 19.140625 63.90625 8.859375 
Q 54.734375 -1.421875 39.40625 -1.421875 
Q 24.03125 -1.421875 14.8125 8.828125 
Q 5.609375 19.09375 5.609375 36.375 
Q 5.609375 53.65625 14.8125 63.9375 
Q 24.03125 74.21875 39.40625 74.21875 
z
" id="DejaVuSans-79"/>
       <path d="M 2.984375 54.6875 
L 12.5 54.6875 
L 29.59375 8.796875 
L 46.6875 54.6875 
L 56.203125 54.6875 
L 35.6875 0 
L 23.484375 0 
z
" id="DejaVuSans-118"/>
      </defs>
      <g style="fill:#4d4d4d;" transform="translate(64.2735 106.965875)scale(0.088 -0.088)">
       <use xlink:href="#DejaVuSans-79"/>
       <use x="78.710938" xlink:href="#DejaVuSans-114"/>
       <use x="119.824219" xlink:href="#DejaVuSans-97"/>
       <use x="181.103516" xlink:href="#DejaVuSans-108"/>
       <use x="208.886719" xlink:href="#DejaVuSans-95"/>
       <use x="258.886719" xlink:href="#DejaVuSans-67"/>
       <use x="328.710938" xlink:href="#DejaVuSans-97"/>
       <use x="389.990234" xlink:href="#DejaVuSans-118"/>
       <use x="449.169922" xlink:href="#DejaVuSans-105"/>
       <use x="476.953125" xlink:href="#DejaVuSans-116"/>
       <use x="516.162109" xlink:href="#DejaVuSans-121"/>
      </g>
     </g>
    </g>
    <g id="ytick_6">
     <g id="line2d_29">
      <path clip-path="url(#p6e49f6a52c)" d="M 119.855125 86.581739 
L 228.095125 86.581739 
" style="fill:none;stroke:#e5e5e5;stroke-width:0.8;"/>
     </g>
     <g id="line2d_30">
      <path d="M 119.855125 86.581739 
" style="fill:none;stroke:#000000;stroke-width:1.5;"/>
      <g>
       <use style="stroke:#000000;" x="119.855125" xlink:href="#ma7b9999899" y="86.581739"/>
      </g>
     </g>
     <g id="text_11">
      <!-- Skin -->
      <defs>
       <path d="M 53.515625 70.515625 
L 53.515625 60.890625 
Q 47.90625 63.578125 42.921875 64.890625 
Q 37.9375 66.21875 33.296875 66.21875 
Q 25.25 66.21875 20.875 63.09375 
Q 16.5 59.96875 16.5 54.203125 
Q 16.5 49.359375 19.40625 46.890625 
Q 22.3125 44.4375 30.421875 42.921875 
L 36.375 41.703125 
Q 47.40625 39.59375 52.65625 34.296875 
Q 57.90625 29 57.90625 20.125 
Q 57.90625 9.515625 50.796875 4.046875 
Q 43.703125 -1.421875 29.984375 -1.421875 
Q 24.8125 -1.421875 18.96875 -0.25 
Q 13.140625 0.921875 6.890625 3.21875 
L 6.890625 13.375 
Q 12.890625 10.015625 18.65625 8.296875 
Q 24.421875 6.59375 29.984375 6.59375 
Q 38.421875 6.59375 43.015625 9.90625 
Q 47.609375 13.234375 47.609375 19.390625 
Q 47.609375 24.75 44.3125 27.78125 
Q 41.015625 30.8125 33.5 32.328125 
L 27.484375 33.5 
Q 16.453125 35.6875 11.515625 40.375 
Q 6.59375 45.0625 6.59375 53.421875 
Q 6.59375 63.09375 13.40625 68.65625 
Q 20.21875 74.21875 32.171875 74.21875 
Q 37.3125 74.21875 42.625 73.28125 
Q 47.953125 72.359375 53.515625 70.515625 
z
" id="DejaVuSans-83"/>
       <path d="M 9.078125 75.984375 
L 18.109375 75.984375 
L 18.109375 31.109375 
L 44.921875 54.6875 
L 56.390625 54.6875 
L 27.390625 29.109375 
L 57.625 0 
L 45.90625 0 
L 18.109375 26.703125 
L 18.109375 0 
L 9.078125 0 
z
" id="DejaVuSans-107"/>
      </defs>
      <g style="fill:#4d4d4d;" transform="translate(96.201 89.009989)scale(0.088 -0.088)">
       <use xlink:href="#DejaVuSans-83"/>
       <use x="63.476562" xlink:href="#DejaVuSans-107"/>
       <use x="121.386719" xlink:href="#DejaVuSans-105"/>
       <use x="149.169922" xlink:href="#DejaVuSans-110"/>
      </g>
     </g>
    </g>
    <g id="ytick_7">
     <g id="line2d_31">
      <path clip-path="url(#p6e49f6a52c)" d="M 119.855125 68.503478 
L 228.095125 68.503478 
" style="fill:none;stroke:#e5e5e5;stroke-width:0.8;"/>
     </g>
     <g id="line2d_32">
      <path d="M 119.855125 68.503478 
" style="fill:none;stroke:#000000;stroke-width:1.5;"/>
      <g>
       <use style="stroke:#000000;" x="119.855125" xlink:href="#ma7b9999899" y="68.503478"/>
      </g>
     </g>
     <g id="text_12">
      <!-- accuracy -->
      <g style="fill:#4d4d4d;" transform="translate(75.200625 70.931728)scale(0.088 -0.088)">
       <use xlink:href="#DejaVuSans-97"/>
       <use x="61.279297" xlink:href="#DejaVuSans-99"/>
       <use x="116.259766" xlink:href="#DejaVuSans-99"/>
       <use x="171.240234" xlink:href="#DejaVuSans-117"/>
       <use x="234.619141" xlink:href="#DejaVuSans-114"/>
       <use x="275.732422" xlink:href="#DejaVuSans-97"/>
       <use x="337.011719" xlink:href="#DejaVuSans-99"/>
       <use x="391.992188" xlink:href="#DejaVuSans-121"/>
      </g>
     </g>
    </g>
    <g id="ytick_8">
     <g id="line2d_33">
      <path clip-path="url(#p6e49f6a52c)" d="M 119.855125 50.425217 
L 228.095125 50.425217 
" style="fill:none;stroke:#e5e5e5;stroke-width:0.8;"/>
     </g>
     <g id="line2d_34">
      <path d="M 119.855125 50.425217 
" style="fill:none;stroke:#000000;stroke-width:1.5;"/>
      <g>
       <use style="stroke:#000000;" x="119.855125" xlink:href="#ma7b9999899" y="50.425217"/>
      </g>
     </g>
     <g id="text_13">
      <!-- macro avg -->
      <defs>
       <path d="M 52 44.1875 
Q 55.375 50.25 60.0625 53.125 
Q 64.75 56 71.09375 56 
Q 79.640625 56 84.28125 50.015625 
Q 88.921875 44.046875 88.921875 33.015625 
L 88.921875 0 
L 79.890625 0 
L 79.890625 32.71875 
Q 79.890625 40.578125 77.09375 44.375 
Q 74.3125 48.1875 68.609375 48.1875 
Q 61.625 48.1875 57.5625 43.546875 
Q 53.515625 38.921875 53.515625 30.90625 
L 53.515625 0 
L 44.484375 0 
L 44.484375 32.71875 
Q 44.484375 40.625 41.703125 44.40625 
Q 38.921875 48.1875 33.109375 48.1875 
Q 26.21875 48.1875 22.15625 43.53125 
Q 18.109375 38.875 18.109375 30.90625 
L 18.109375 0 
L 9.078125 0 
L 9.078125 54.6875 
L 18.109375 54.6875 
L 18.109375 46.1875 
Q 21.1875 51.21875 25.484375 53.609375 
Q 29.78125 56 35.6875 56 
Q 41.65625 56 45.828125 52.96875 
Q 50 49.953125 52 44.1875 
z
" id="DejaVuSans-109"/>
       <path id="DejaVuSans-32"/>
       <path d="M 45.40625 27.984375 
Q 45.40625 37.75 41.375 43.109375 
Q 37.359375 48.484375 30.078125 48.484375 
Q 22.859375 48.484375 18.828125 43.109375 
Q 14.796875 37.75 14.796875 27.984375 
Q 14.796875 18.265625 18.828125 12.890625 
Q 22.859375 7.515625 30.078125 7.515625 
Q 37.359375 7.515625 41.375 12.890625 
Q 45.40625 18.265625 45.40625 27.984375 
z
M 54.390625 6.78125 
Q 54.390625 -7.171875 48.1875 -13.984375 
Q 42 -20.796875 29.203125 -20.796875 
Q 24.46875 -20.796875 20.265625 -20.09375 
Q 16.0625 -19.390625 12.109375 -17.921875 
L 12.109375 -9.1875 
Q 16.0625 -11.328125 19.921875 -12.34375 
Q 23.78125 -13.375 27.78125 -13.375 
Q 36.625 -13.375 41.015625 -8.765625 
Q 45.40625 -4.15625 45.40625 5.171875 
L 45.40625 9.625 
Q 42.625 4.78125 38.28125 2.390625 
Q 33.9375 0 27.875 0 
Q 17.828125 0 11.671875 7.65625 
Q 5.515625 15.328125 5.515625 27.984375 
Q 5.515625 40.671875 11.671875 48.328125 
Q 17.828125 56 27.875 56 
Q 33.9375 56 38.28125 53.609375 
Q 42.625 51.21875 45.40625 46.390625 
L 45.40625 54.6875 
L 54.390625 54.6875 
z
" id="DejaVuSans-103"/>
      </defs>
      <g style="fill:#4d4d4d;" transform="translate(68.118 52.853467)scale(0.088 -0.088)">
       <use xlink:href="#DejaVuSans-109"/>
       <use x="97.412109" xlink:href="#DejaVuSans-97"/>
       <use x="158.691406" xlink:href="#DejaVuSans-99"/>
       <use x="213.671875" xlink:href="#DejaVuSans-114"/>
       <use x="254.753906" xlink:href="#DejaVuSans-111"/>
       <use x="315.935547" xlink:href="#DejaVuSans-32"/>
       <use x="347.722656" xlink:href="#DejaVuSans-97"/>
       <use x="409.001953" xlink:href="#DejaVuSans-118"/>
       <use x="468.181641" xlink:href="#DejaVuSans-103"/>
      </g>
     </g>
    </g>
    <g id="ytick_9">
     <g id="line2d_35">
      <path clip-path="url(#p6e49f6a52c)" d="M 119.855125 32.346957 
L 228.095125 32.346957 
" style="fill:none;stroke:#e5e5e5;stroke-width:0.8;"/>
     </g>
     <g id="line2d_36">
      <path d="M 119.855125 32.346957 
" style="fill:none;stroke:#000000;stroke-width:1.5;"/>
      <g>
       <use style="stroke:#000000;" x="119.855125" xlink:href="#ma7b9999899" y="32.346957"/>
      </g>
     </g>
     <g id="text_14">
      <!-- weighted avg -->
      <defs>
       <path d="M 4.203125 54.6875 
L 13.1875 54.6875 
L 24.421875 12.015625 
L 35.59375 54.6875 
L 46.1875 54.6875 
L 57.421875 12.015625 
L 68.609375 54.6875 
L 77.59375 54.6875 
L 63.28125 0 
L 52.6875 0 
L 40.921875 44.828125 
L 29.109375 0 
L 18.5 0 
z
" id="DejaVuSans-119"/>
       <path d="M 54.890625 33.015625 
L 54.890625 0 
L 45.90625 0 
L 45.90625 32.71875 
Q 45.90625 40.484375 42.875 44.328125 
Q 39.84375 48.1875 33.796875 48.1875 
Q 26.515625 48.1875 22.3125 43.546875 
Q 18.109375 38.921875 18.109375 30.90625 
L 18.109375 0 
L 9.078125 0 
L 9.078125 75.984375 
L 18.109375 75.984375 
L 18.109375 46.1875 
Q 21.34375 51.125 25.703125 53.5625 
Q 30.078125 56 35.796875 56 
Q 45.21875 56 50.046875 50.171875 
Q 54.890625 44.34375 54.890625 33.015625 
z
" id="DejaVuSans-104"/>
      </defs>
      <g style="fill:#4d4d4d;" transform="translate(55.249375 34.775207)scale(0.088 -0.088)">
       <use xlink:href="#DejaVuSans-119"/>
       <use x="81.787109" xlink:href="#DejaVuSans-101"/>
       <use x="143.310547" xlink:href="#DejaVuSans-105"/>
       <use x="171.09375" xlink:href="#DejaVuSans-103"/>
       <use x="234.570312" xlink:href="#DejaVuSans-104"/>
       <use x="297.949219" xlink:href="#DejaVuSans-116"/>
       <use x="337.158203" xlink:href="#DejaVuSans-101"/>
       <use x="398.681641" xlink:href="#DejaVuSans-100"/>
       <use x="462.158203" xlink:href="#DejaVuSans-32"/>
       <use x="493.945312" xlink:href="#DejaVuSans-97"/>
       <use x="555.224609" xlink:href="#DejaVuSans-118"/>
       <use x="614.404297" xlink:href="#DejaVuSans-103"/>
      </g>
     </g>
    </g>
   </g>
   <g id="PathCollection_1">
    <path clip-path="url(#p6e49f6a52c)" d="M 221.207125 178.745497 
C 221.677185 178.745497 222.128056 178.55874 222.460439 178.226358 
C 222.792822 177.893975 222.979579 177.443104 222.979579 176.973043 
C 222.979579 176.502983 222.792822 176.052112 222.460439 175.719729 
C 222.128056 175.387347 221.677185 175.20059 221.207125 175.20059 
C 220.737065 175.20059 220.286194 175.387347 219.953811 175.719729 
C 219.621428 176.052112 219.434671 176.502983 219.434671 176.973043 
C 219.434671 177.443104 219.621428 177.893975 219.953811 178.226358 
C 220.286194 178.55874 220.737065 178.745497 221.207125 178.745497 
z
" style="fill:#db5f57;stroke:#000000;stroke-width:0.886227;"/>
    <path clip-path="url(#p6e49f6a52c)" d="M 223.175125 160.667236 
C 223.645185 160.667236 224.096056 160.48048 224.428439 160.148097 
C 224.760822 159.815714 224.947579 159.364843 224.947579 158.894783 
C 224.947579 158.424722 224.760822 157.973851 224.428439 157.641468 
C 224.096056 157.309086 223.645185 157.122329 223.175125 157.122329 
C 222.705065 157.122329 222.254194 157.309086 221.921811 157.641468 
C 221.589428 157.973851 221.402671 158.424722 221.402671 158.894783 
C 221.402671 159.364843 221.589428 159.815714 221.921811 160.148097 
C 222.254194 160.48048 222.705065 160.667236 223.175125 160.667236 
z
" style="fill:#dbb757;stroke:#000000;stroke-width:0.886227;"/>
    <path clip-path="url(#p6e49f6a52c)" d="M 220.223125 142.588976 
C 220.693185 142.588976 221.144056 142.402219 221.476439 142.069836 
C 221.808822 141.737453 221.995579 141.286582 221.995579 140.816522 
C 221.995579 140.346461 221.808822 139.89559 221.476439 139.563208 
C 221.144056 139.230825 220.693185 139.044068 220.223125 139.044068 
C 219.753065 139.044068 219.302194 139.230825 218.969811 139.563208 
C 218.637428 139.89559 218.450671 140.346461 218.450671 140.816522 
C 218.450671 141.286582 218.637428 141.737453 218.969811 142.069836 
C 219.302194 142.402219 219.753065 142.588976 220.223125 142.588976 
z
" style="fill:#a7db57;stroke:#000000;stroke-width:0.886227;"/>
    <path clip-path="url(#p6e49f6a52c)" d="M 221.207125 124.510715 
C 221.677185 124.510715 222.128056 124.323958 222.460439 123.991575 
C 222.792822 123.659192 222.979579 123.208321 222.979579 122.738261 
C 222.979579 122.268201 222.792822 121.81733 222.460439 121.484947 
C 222.128056 121.152564 221.677185 120.965807 221.207125 120.965807 
C 220.737065 120.965807 220.286194 121.152564 219.953811 121.484947 
C 219.621428 121.81733 219.434671 122.268201 219.434671 122.738261 
C 219.434671 123.208321 219.621428 123.659192 219.953811 123.991575 
C 220.286194 124.323958 220.737065 124.510715 221.207125 124.510715 
z
" style="fill:#57db5f;stroke:#000000;stroke-width:0.886227;"/>
    <path clip-path="url(#p6e49f6a52c)" d="M 223.175125 106.432454 
C 223.645185 106.432454 224.096056 106.245697 224.428439 105.913314 
C 224.760822 105.580931 224.947579 105.13006 224.947579 104.66 
C 224.947579 104.18994 224.760822 103.739069 224.428439 103.406686 
C 224.096056 103.074303 223.645185 102.887546 223.175125 102.887546 
C 222.705065 102.887546 222.254194 103.074303 221.921811 103.406686 
C 221.589428 103.739069 221.402671 104.18994 221.402671 104.66 
C 221.402671 105.13006 221.589428 105.580931 221.921811 105.913314 
C 222.254194 106.245697 222.705065 106.432454 223.175125 106.432454 
z
" style="fill:#57dbb7;stroke:#000000;stroke-width:0.886227;"/>
    <path clip-path="url(#p6e49f6a52c)" d="M 218.255125 88.354193 
C 218.725185 88.354193 219.176056 88.167436 219.508439 87.835053 
C 219.840822 87.50267 220.027579 87.051799 220.027579 86.581739 
C 220.027579 86.111679 219.840822 85.660808 219.508439 85.328425 
C 219.176056 84.996042 218.725185 84.809285 218.255125 84.809285 
C 217.785065 84.809285 217.334194 84.996042 217.001811 85.328425 
C 216.669428 85.660808 216.482671 86.111679 216.482671 86.581739 
C 216.482671 87.051799 216.669428 87.50267 217.001811 87.835053 
C 217.334194 88.167436 217.785065 88.354193 218.255125 88.354193 
z
" style="fill:#57a7db;stroke:#000000;stroke-width:0.886227;"/>
    <path clip-path="url(#p6e49f6a52c)" d="M 221.207125 70.275932 
C 221.677185 70.275932 222.128056 70.089175 222.460439 69.756792 
C 222.792822 69.42441 222.979579 68.973539 222.979579 68.503478 
C 222.979579 68.033418 222.792822 67.582547 222.460439 67.250164 
C 222.128056 66.917781 221.677185 66.731024 221.207125 66.731024 
C 220.737065 66.731024 220.286194 66.917781 219.953811 67.250164 
C 219.621428 67.582547 219.434671 68.033418 219.434671 68.503478 
C 219.434671 68.973539 219.621428 69.42441 219.953811 69.756792 
C 220.286194 70.089175 220.737065 70.275932 221.207125 70.275932 
z
" style="fill:#5f57db;stroke:#000000;stroke-width:0.886227;"/>
    <path clip-path="url(#p6e49f6a52c)" d="M 221.207125 52.197671 
C 221.677185 52.197671 222.128056 52.010914 222.460439 51.678532 
C 222.792822 51.346149 222.979579 50.895278 222.979579 50.425217 
C 222.979579 49.955157 222.792822 49.504286 222.460439 49.171903 
C 222.128056 48.83952 221.677185 48.652764 221.207125 48.652764 
C 220.737065 48.652764 220.286194 48.83952 219.953811 49.171903 
C 219.621428 49.504286 219.434671 49.955157 219.434671 50.425217 
C 219.434671 50.895278 219.621428 51.346149 219.953811 51.678532 
C 220.286194 52.010914 220.737065 52.197671 221.207125 52.197671 
z
" style="fill:#b757db;stroke:#000000;stroke-width:0.886227;"/>
    <path clip-path="url(#p6e49f6a52c)" d="M 221.207125 34.11941 
C 221.677185 34.11941 222.128056 33.932653 222.460439 33.600271 
C 222.792822 33.267888 222.979579 32.817017 222.979579 32.346957 
C 222.979579 31.876896 222.792822 31.426025 222.460439 31.093642 
C 222.128056 30.76126 221.677185 30.574503 221.207125 30.574503 
C 220.737065 30.574503 220.286194 30.76126 219.953811 31.093642 
C 219.621428 31.426025 219.434671 31.876896 219.434671 32.346957 
C 219.434671 32.817017 219.621428 33.267888 219.953811 33.600271 
C 220.286194 33.932653 220.737065 34.11941 221.207125 34.11941 
z
" style="fill:#db57a7;stroke:#000000;stroke-width:0.886227;"/>
   </g>
   <g id="patch_3">
    <path d="M 119.855125 21.5 
L 228.095125 21.5 
L 228.095125 7.2 
L 119.855125 7.2 
z
" style="fill:#cccccc;stroke:#7f7f7f;stroke-linejoin:miter;"/>
   </g>
   <g id="text_15">
    <!-- f1-score -->
    <defs>
     <path d="M 37.109375 75.984375 
L 37.109375 68.5 
L 28.515625 68.5 
Q 23.6875 68.5 21.796875 66.546875 
Q 19.921875 64.59375 19.921875 59.515625 
L 19.921875 54.6875 
L 34.71875 54.6875 
L 34.71875 47.703125 
L 19.921875 47.703125 
L 19.921875 0 
L 10.890625 0 
L 10.890625 47.703125 
L 2.296875 47.703125 
L 2.296875 54.6875 
L 10.890625 54.6875 
L 10.890625 58.5 
Q 10.890625 67.625 15.140625 71.796875 
Q 19.390625 75.984375 28.609375 75.984375 
z
" id="DejaVuSans-102"/>
     <path d="M 4.890625 31.390625 
L 31.203125 31.390625 
L 31.203125 23.390625 
L 4.890625 23.390625 
z
" id="DejaVuSans-45"/>
    </defs>
    <g style="fill:#1a1a1a;" transform="translate(156.12075 16.77825)scale(0.088 -0.088)">
     <use xlink:href="#DejaVuSans-102"/>
     <use x="35.205078" xlink:href="#DejaVuSans-49"/>
     <use x="98.828125" xlink:href="#DejaVuSans-45"/>
     <use x="134.912109" xlink:href="#DejaVuSans-115"/>
     <use x="187.011719" xlink:href="#DejaVuSans-99"/>
     <use x="241.992188" xlink:href="#DejaVuSans-111"/>
     <use x="303.173828" xlink:href="#DejaVuSans-114"/>
     <use x="344.255859" xlink:href="#DejaVuSans-101"/>
    </g>
   </g>
  </g>
  <g id="axes_2">
   <g id="patch_4">
    <path d="M 233.135125 187.82 
L 341.375125 187.82 
L 341.375125 21.5 
L 233.135125 21.5 
z
" style="fill:#ffffff;stroke:#7f7f7f;stroke-linejoin:miter;"/>
   </g>
   <g id="matplotlib.axis_3">
    <g id="xtick_10">
     <g id="line2d_37">
      <path clip-path="url(#pf2613ff9fe)" d="M 238.055125 187.82 
L 238.055125 21.5 
" style="fill:none;stroke:#e5e5e5;stroke-linecap:square;stroke-width:0.8;"/>
     </g>
     <g id="line2d_38">
      <path d="M 238.055125 187.82 
" style="fill:none;stroke:#000000;stroke-linecap:square;stroke-width:1.5;"/>
      <g>
       <use style="stroke:#000000;" x="238.055125" xlink:href="#mbf85a21cc7" y="187.82"/>
      </g>
     </g>
     <g id="text_16">
      <!-- 0 -->
      <g style="fill:#4d4d4d;" transform="translate(235.255625 199.456625)scale(0.088 -0.088)">
       <use xlink:href="#DejaVuSans-48"/>
      </g>
     </g>
    </g>
    <g id="xtick_11">
     <g id="line2d_39">
      <path clip-path="url(#pf2613ff9fe)" d="M 262.655125 187.82 
L 262.655125 21.5 
" style="fill:none;stroke:#e5e5e5;stroke-linecap:square;stroke-width:0.8;"/>
     </g>
     <g id="line2d_40">
      <path d="M 262.655125 187.82 
" style="fill:none;stroke:#000000;stroke-linecap:square;stroke-width:1.5;"/>
      <g>
       <use style="stroke:#000000;" x="262.655125" xlink:href="#mbf85a21cc7" y="187.82"/>
      </g>
     </g>
     <g id="text_17">
      <!-- 0.25 -->
      <g style="fill:#4d4d4d;" transform="translate(252.85825 199.456625)scale(0.088 -0.088)">
       <use xlink:href="#DejaVuSans-48"/>
       <use x="63.623047" xlink:href="#DejaVuSans-46"/>
       <use x="95.410156" xlink:href="#DejaVuSans-50"/>
       <use x="159.033203" xlink:href="#DejaVuSans-53"/>
      </g>
     </g>
    </g>
    <g id="xtick_12">
     <g id="line2d_41">
      <path clip-path="url(#pf2613ff9fe)" d="M 287.255125 187.82 
L 287.255125 21.5 
" style="fill:none;stroke:#e5e5e5;stroke-linecap:square;stroke-width:0.8;"/>
     </g>
     <g id="line2d_42">
      <path d="M 287.255125 187.82 
" style="fill:none;stroke:#000000;stroke-linecap:square;stroke-width:1.5;"/>
      <g>
       <use style="stroke:#000000;" x="287.255125" xlink:href="#mbf85a21cc7" y="187.82"/>
      </g>
     </g>
     <g id="text_18">
      <!-- 0.50 -->
      <g style="fill:#4d4d4d;" transform="translate(277.45825 199.456625)scale(0.088 -0.088)">
       <use xlink:href="#DejaVuSans-48"/>
       <use x="63.623047" xlink:href="#DejaVuSans-46"/>
       <use x="95.410156" xlink:href="#DejaVuSans-53"/>
       <use x="159.033203" xlink:href="#DejaVuSans-48"/>
      </g>
     </g>
    </g>
    <g id="xtick_13">
     <g id="line2d_43">
      <path clip-path="url(#pf2613ff9fe)" d="M 311.855125 187.82 
L 311.855125 21.5 
" style="fill:none;stroke:#e5e5e5;stroke-linecap:square;stroke-width:0.8;"/>
     </g>
     <g id="line2d_44">
      <path d="M 311.855125 187.82 
" style="fill:none;stroke:#000000;stroke-linecap:square;stroke-width:1.5;"/>
      <g>
       <use style="stroke:#000000;" x="311.855125" xlink:href="#mbf85a21cc7" y="187.82"/>
      </g>
     </g>
     <g id="text_19">
      <!-- 0.75 -->
      <g style="fill:#4d4d4d;" transform="translate(302.05825 199.456625)scale(0.088 -0.088)">
       <use xlink:href="#DejaVuSans-48"/>
       <use x="63.623047" xlink:href="#DejaVuSans-46"/>
       <use x="95.410156" xlink:href="#DejaVuSans-55"/>
       <use x="159.033203" xlink:href="#DejaVuSans-53"/>
      </g>
     </g>
    </g>
    <g id="xtick_14">
     <g id="line2d_45">
      <path clip-path="url(#pf2613ff9fe)" d="M 336.455125 187.82 
L 336.455125 21.5 
" style="fill:none;stroke:#e5e5e5;stroke-linecap:square;stroke-width:0.8;"/>
     </g>
     <g id="line2d_46">
      <path d="M 336.455125 187.82 
" style="fill:none;stroke:#000000;stroke-linecap:square;stroke-width:1.5;"/>
      <g>
       <use style="stroke:#000000;" x="336.455125" xlink:href="#mbf85a21cc7" y="187.82"/>
      </g>
     </g>
     <g id="text_20">
      <!-- 1 -->
      <g style="fill:#4d4d4d;" transform="translate(333.655625 199.456625)scale(0.088 -0.088)">
       <use xlink:href="#DejaVuSans-49"/>
      </g>
     </g>
    </g>
    <g id="xtick_15">
     <g id="line2d_47">
      <path clip-path="url(#pf2613ff9fe)" d="M 250.355125 187.82 
L 250.355125 21.5 
" style="fill:none;stroke:#fafafa;stroke-linecap:square;"/>
     </g>
     <g id="line2d_48">
      <path d="M 250.355125 187.82 
" style="fill:none;stroke:#000000;stroke-linecap:square;stroke-width:1.5;"/>
      <g>
       <use style="stroke:#000000;" x="250.355125" xlink:href="#m24fd4f8cc3" y="187.82"/>
      </g>
     </g>
    </g>
    <g id="xtick_16">
     <g id="line2d_49">
      <path clip-path="url(#pf2613ff9fe)" d="M 274.955125 187.82 
L 274.955125 21.5 
" style="fill:none;stroke:#fafafa;stroke-linecap:square;"/>
     </g>
     <g id="line2d_50">
      <path d="M 274.955125 187.82 
" style="fill:none;stroke:#000000;stroke-linecap:square;stroke-width:1.5;"/>
      <g>
       <use style="stroke:#000000;" x="274.955125" xlink:href="#m24fd4f8cc3" y="187.82"/>
      </g>
     </g>
    </g>
    <g id="xtick_17">
     <g id="line2d_51">
      <path clip-path="url(#pf2613ff9fe)" d="M 299.555125 187.82 
L 299.555125 21.5 
" style="fill:none;stroke:#fafafa;stroke-linecap:square;"/>
     </g>
     <g id="line2d_52">
      <path d="M 299.555125 187.82 
" style="fill:none;stroke:#000000;stroke-linecap:square;stroke-width:1.5;"/>
      <g>
       <use style="stroke:#000000;" x="299.555125" xlink:href="#m24fd4f8cc3" y="187.82"/>
      </g>
     </g>
    </g>
    <g id="xtick_18">
     <g id="line2d_53">
      <path clip-path="url(#pf2613ff9fe)" d="M 324.155125 187.82 
L 324.155125 21.5 
" style="fill:none;stroke:#fafafa;stroke-linecap:square;"/>
     </g>
     <g id="line2d_54">
      <path d="M 324.155125 187.82 
" style="fill:none;stroke:#000000;stroke-linecap:square;stroke-width:1.5;"/>
      <g>
       <use style="stroke:#000000;" x="324.155125" xlink:href="#m24fd4f8cc3" y="187.82"/>
      </g>
     </g>
    </g>
   </g>
   <g id="matplotlib.axis_4">
    <g id="ytick_10">
     <g id="line2d_55">
      <path clip-path="url(#pf2613ff9fe)" d="M 233.135125 176.973043 
L 341.375125 176.973043 
" style="fill:none;stroke:#e5e5e5;stroke-linecap:square;stroke-width:0.8;"/>
     </g>
    </g>
    <g id="ytick_11">
     <g id="line2d_56">
      <path clip-path="url(#pf2613ff9fe)" d="M 233.135125 158.894783 
L 341.375125 158.894783 
" style="fill:none;stroke:#e5e5e5;stroke-linecap:square;stroke-width:0.8;"/>
     </g>
    </g>
    <g id="ytick_12">
     <g id="line2d_57">
      <path clip-path="url(#pf2613ff9fe)" d="M 233.135125 140.816522 
L 341.375125 140.816522 
" style="fill:none;stroke:#e5e5e5;stroke-linecap:square;stroke-width:0.8;"/>
     </g>
    </g>
    <g id="ytick_13">
     <g id="line2d_58">
      <path clip-path="url(#pf2613ff9fe)" d="M 233.135125 122.738261 
L 341.375125 122.738261 
" style="fill:none;stroke:#e5e5e5;stroke-linecap:square;stroke-width:0.8;"/>
     </g>
    </g>
    <g id="ytick_14">
     <g id="line2d_59">
      <path clip-path="url(#pf2613ff9fe)" d="M 233.135125 104.66 
L 341.375125 104.66 
" style="fill:none;stroke:#e5e5e5;stroke-linecap:square;stroke-width:0.8;"/>
     </g>
    </g>
    <g id="ytick_15">
     <g id="line2d_60">
      <path clip-path="url(#pf2613ff9fe)" d="M 233.135125 86.581739 
L 341.375125 86.581739 
" style="fill:none;stroke:#e5e5e5;stroke-linecap:square;stroke-width:0.8;"/>
     </g>
    </g>
    <g id="ytick_16">
     <g id="line2d_61">
      <path clip-path="url(#pf2613ff9fe)" d="M 233.135125 68.503478 
L 341.375125 68.503478 
" style="fill:none;stroke:#e5e5e5;stroke-linecap:square;stroke-width:0.8;"/>
     </g>
    </g>
    <g id="ytick_17">
     <g id="line2d_62">
      <path clip-path="url(#pf2613ff9fe)" d="M 233.135125 50.425217 
L 341.375125 50.425217 
" style="fill:none;stroke:#e5e5e5;stroke-linecap:square;stroke-width:0.8;"/>
     </g>
    </g>
    <g id="ytick_18">
     <g id="line2d_63">
      <path clip-path="url(#pf2613ff9fe)" d="M 233.135125 32.346957 
L 341.375125 32.346957 
" style="fill:none;stroke:#e5e5e5;stroke-linecap:square;stroke-width:0.8;"/>
     </g>
    </g>
   </g>
   <g id="PathCollection_2">
    <path clip-path="url(#pf2613ff9fe)" d="M 335.471125 178.745497 
C 335.941185 178.745497 336.392056 178.55874 336.724439 178.226358 
C 337.056822 177.893975 337.243579 177.443104 337.243579 176.973043 
C 337.243579 176.502983 337.056822 176.052112 336.724439 175.719729 
C 336.392056 175.387347 335.941185 175.20059 335.471125 175.20059 
C 335.001065 175.20059 334.550194 175.387347 334.217811 175.719729 
C 333.885428 176.052112 333.698671 176.502983 333.698671 176.973043 
C 333.698671 177.443104 333.885428 177.893975 334.217811 178.226358 
C 334.550194 178.55874 335.001065 178.745497 335.471125 178.745497 
z
" style="fill:#db5f57;stroke:#000000;stroke-width:0.886227;"/>
    <path clip-path="url(#pf2613ff9fe)" d="M 336.455125 160.667236 
C 336.925185 160.667236 337.376056 160.48048 337.708439 160.148097 
C 338.040822 159.815714 338.227579 159.364843 338.227579 158.894783 
C 338.227579 158.424722 338.040822 157.973851 337.708439 157.641468 
C 337.376056 157.309086 336.925185 157.122329 336.455125 157.122329 
C 335.985065 157.122329 335.534194 157.309086 335.201811 157.641468 
C 334.869428 157.973851 334.682671 158.424722 334.682671 158.894783 
C 334.682671 159.364843 334.869428 159.815714 335.201811 160.148097 
C 335.534194 160.48048 335.985065 160.667236 336.455125 160.667236 
z
" style="fill:#dbb757;stroke:#000000;stroke-width:0.886227;"/>
    <path clip-path="url(#pf2613ff9fe)" d="M 331.535125 142.588976 
C 332.005185 142.588976 332.456056 142.402219 332.788439 142.069836 
C 333.120822 141.737453 333.307579 141.286582 333.307579 140.816522 
C 333.307579 140.346461 333.120822 139.89559 332.788439 139.563208 
C 332.456056 139.230825 332.005185 139.044068 331.535125 139.044068 
C 331.065065 139.044068 330.614194 139.230825 330.281811 139.563208 
C 329.949428 139.89559 329.762671 140.346461 329.762671 140.816522 
C 329.762671 141.286582 329.949428 141.737453 330.281811 142.069836 
C 330.614194 142.402219 331.065065 142.588976 331.535125 142.588976 
z
" style="fill:#a7db57;stroke:#000000;stroke-width:0.886227;"/>
    <path clip-path="url(#pf2613ff9fe)" d="M 333.503125 124.510715 
C 333.973185 124.510715 334.424056 124.323958 334.756439 123.991575 
C 335.088822 123.659192 335.275579 123.208321 335.275579 122.738261 
C 335.275579 122.268201 335.088822 121.81733 334.756439 121.484947 
C 334.424056 121.152564 333.973185 120.965807 333.503125 120.965807 
C 333.033065 120.965807 332.582194 121.152564 332.249811 121.484947 
C 331.917428 121.81733 331.730671 122.268201 331.730671 122.738261 
C 331.730671 123.208321 331.917428 123.659192 332.249811 123.991575 
C 332.582194 124.323958 333.033065 124.510715 333.503125 124.510715 
z
" style="fill:#57db5f;stroke:#000000;stroke-width:0.886227;"/>
    <path clip-path="url(#pf2613ff9fe)" d="M 336.455125 106.432454 
C 336.925185 106.432454 337.376056 106.245697 337.708439 105.913314 
C 338.040822 105.580931 338.227579 105.13006 338.227579 104.66 
C 338.227579 104.18994 338.040822 103.739069 337.708439 103.406686 
C 337.376056 103.074303 336.925185 102.887546 336.455125 102.887546 
C 335.985065 102.887546 335.534194 103.074303 335.201811 103.406686 
C 334.869428 103.739069 334.682671 104.18994 334.682671 104.66 
C 334.682671 105.13006 334.869428 105.580931 335.201811 105.913314 
C 335.534194 106.245697 335.985065 106.432454 336.455125 106.432454 
z
" style="fill:#57dbb7;stroke:#000000;stroke-width:0.886227;"/>
    <path clip-path="url(#pf2613ff9fe)" d="M 334.487125 88.354193 
C 334.957185 88.354193 335.408056 88.167436 335.740439 87.835053 
C 336.072822 87.50267 336.259579 87.051799 336.259579 86.581739 
C 336.259579 86.111679 336.072822 85.660808 335.740439 85.328425 
C 335.408056 84.996042 334.957185 84.809285 334.487125 84.809285 
C 334.017065 84.809285 333.566194 84.996042 333.233811 85.328425 
C 332.901428 85.660808 332.714671 86.111679 332.714671 86.581739 
C 332.714671 87.051799 332.901428 87.50267 333.233811 87.835053 
C 333.566194 88.167436 334.017065 88.354193 334.487125 88.354193 
z
" style="fill:#57a7db;stroke:#000000;stroke-width:0.886227;"/>
    <path clip-path="url(#pf2613ff9fe)" d="M 334.487125 70.275932 
C 334.957185 70.275932 335.408056 70.089175 335.740439 69.756792 
C 336.072822 69.42441 336.259579 68.973539 336.259579 68.503478 
C 336.259579 68.033418 336.072822 67.582547 335.740439 67.250164 
C 335.408056 66.917781 334.957185 66.731024 334.487125 66.731024 
C 334.017065 66.731024 333.566194 66.917781 333.233811 67.250164 
C 332.901428 67.582547 332.714671 68.033418 332.714671 68.503478 
C 332.714671 68.973539 332.901428 69.42441 333.233811 69.756792 
C 333.566194 70.089175 334.017065 70.275932 334.487125 70.275932 
z
" style="fill:#5f57db;stroke:#000000;stroke-width:0.886227;"/>
    <path clip-path="url(#pf2613ff9fe)" d="M 334.487125 52.197671 
C 334.957185 52.197671 335.408056 52.010914 335.740439 51.678532 
C 336.072822 51.346149 336.259579 50.895278 336.259579 50.425217 
C 336.259579 49.955157 336.072822 49.504286 335.740439 49.171903 
C 335.408056 48.83952 334.957185 48.652764 334.487125 48.652764 
C 334.017065 48.652764 333.566194 48.83952 333.233811 49.171903 
C 332.901428 49.504286 332.714671 49.955157 332.714671 50.425217 
C 332.714671 50.895278 332.901428 51.346149 333.233811 51.678532 
C 333.566194 52.010914 334.017065 52.197671 334.487125 52.197671 
z
" style="fill:#b757db;stroke:#000000;stroke-width:0.886227;"/>
    <path clip-path="url(#pf2613ff9fe)" d="M 334.487125 34.11941 
C 334.957185 34.11941 335.408056 33.932653 335.740439 33.600271 
C 336.072822 33.267888 336.259579 32.817017 336.259579 32.346957 
C 336.259579 31.876896 336.072822 31.426025 335.740439 31.093642 
C 335.408056 30.76126 334.957185 30.574503 334.487125 30.574503 
C 334.017065 30.574503 333.566194 30.76126 333.233811 31.093642 
C 332.901428 31.426025 332.714671 31.876896 332.714671 32.346957 
C 332.714671 32.817017 332.901428 33.267888 333.233811 33.600271 
C 333.566194 33.932653 334.017065 34.11941 334.487125 34.11941 
z
" style="fill:#db57a7;stroke:#000000;stroke-width:0.886227;"/>
   </g>
   <g id="patch_5">
    <path d="M 233.135125 21.5 
L 341.375125 21.5 
L 341.375125 7.2 
L 233.135125 7.2 
z
" style="fill:#cccccc;stroke:#7f7f7f;stroke-linejoin:miter;"/>
   </g>
   <g id="text_21">
    <!-- precision -->
    <defs>
     <path d="M 18.109375 8.203125 
L 18.109375 -20.796875 
L 9.078125 -20.796875 
L 9.078125 54.6875 
L 18.109375 54.6875 
L 18.109375 46.390625 
Q 20.953125 51.265625 25.265625 53.625 
Q 29.59375 56 35.59375 56 
Q 45.5625 56 51.78125 48.09375 
Q 58.015625 40.1875 58.015625 27.296875 
Q 58.015625 14.40625 51.78125 6.484375 
Q 45.5625 -1.421875 35.59375 -1.421875 
Q 29.59375 -1.421875 25.265625 0.953125 
Q 20.953125 3.328125 18.109375 8.203125 
z
M 48.6875 27.296875 
Q 48.6875 37.203125 44.609375 42.84375 
Q 40.53125 48.484375 33.40625 48.484375 
Q 26.265625 48.484375 22.1875 42.84375 
Q 18.109375 37.203125 18.109375 27.296875 
Q 18.109375 17.390625 22.1875 11.75 
Q 26.265625 6.109375 33.40625 6.109375 
Q 40.53125 6.109375 44.609375 11.75 
Q 48.6875 17.390625 48.6875 27.296875 
z
" id="DejaVuSans-112"/>
    </defs>
    <g style="fill:#1a1a1a;" transform="translate(267.310062 16.77825)scale(0.088 -0.088)">
     <use xlink:href="#DejaVuSans-112"/>
     <use x="63.476562" xlink:href="#DejaVuSans-114"/>
     <use x="104.558594" xlink:href="#DejaVuSans-101"/>
     <use x="166.082031" xlink:href="#DejaVuSans-99"/>
     <use x="221.0625" xlink:href="#DejaVuSans-105"/>
     <use x="248.845703" xlink:href="#DejaVuSans-115"/>
     <use x="300.945312" xlink:href="#DejaVuSans-105"/>
     <use x="328.728516" xlink:href="#DejaVuSans-111"/>
     <use x="389.910156" xlink:href="#DejaVuSans-110"/>
    </g>
   </g>
  </g>
  <g id="axes_3">
   <g id="patch_6">
    <path d="M 346.415125 187.82 
L 454.655125 187.82 
L 454.655125 21.5 
L 346.415125 21.5 
z
" style="fill:#ffffff;stroke:#7f7f7f;stroke-linejoin:miter;"/>
   </g>
   <g id="matplotlib.axis_5">
    <g id="xtick_19">
     <g id="line2d_64">
      <path clip-path="url(#pa5e711e80c)" d="M 351.335125 187.82 
L 351.335125 21.5 
" style="fill:none;stroke:#e5e5e5;stroke-linecap:square;stroke-width:0.8;"/>
     </g>
     <g id="line2d_65">
      <path d="M 351.335125 187.82 
" style="fill:none;stroke:#000000;stroke-linecap:square;stroke-width:1.5;"/>
      <g>
       <use style="stroke:#000000;" x="351.335125" xlink:href="#mbf85a21cc7" y="187.82"/>
      </g>
     </g>
     <g id="text_22">
      <!-- 0 -->
      <g style="fill:#4d4d4d;" transform="translate(348.535625 199.456625)scale(0.088 -0.088)">
       <use xlink:href="#DejaVuSans-48"/>
      </g>
     </g>
    </g>
    <g id="xtick_20">
     <g id="line2d_66">
      <path clip-path="url(#pa5e711e80c)" d="M 375.935125 187.82 
L 375.935125 21.5 
" style="fill:none;stroke:#e5e5e5;stroke-linecap:square;stroke-width:0.8;"/>
     </g>
     <g id="line2d_67">
      <path d="M 375.935125 187.82 
" style="fill:none;stroke:#000000;stroke-linecap:square;stroke-width:1.5;"/>
      <g>
       <use style="stroke:#000000;" x="375.935125" xlink:href="#mbf85a21cc7" y="187.82"/>
      </g>
     </g>
     <g id="text_23">
      <!-- 0.25 -->
      <g style="fill:#4d4d4d;" transform="translate(366.13825 199.456625)scale(0.088 -0.088)">
       <use xlink:href="#DejaVuSans-48"/>
       <use x="63.623047" xlink:href="#DejaVuSans-46"/>
       <use x="95.410156" xlink:href="#DejaVuSans-50"/>
       <use x="159.033203" xlink:href="#DejaVuSans-53"/>
      </g>
     </g>
    </g>
    <g id="xtick_21">
     <g id="line2d_68">
      <path clip-path="url(#pa5e711e80c)" d="M 400.535125 187.82 
L 400.535125 21.5 
" style="fill:none;stroke:#e5e5e5;stroke-linecap:square;stroke-width:0.8;"/>
     </g>
     <g id="line2d_69">
      <path d="M 400.535125 187.82 
" style="fill:none;stroke:#000000;stroke-linecap:square;stroke-width:1.5;"/>
      <g>
       <use style="stroke:#000000;" x="400.535125" xlink:href="#mbf85a21cc7" y="187.82"/>
      </g>
     </g>
     <g id="text_24">
      <!-- 0.50 -->
      <g style="fill:#4d4d4d;" transform="translate(390.73825 199.456625)scale(0.088 -0.088)">
       <use xlink:href="#DejaVuSans-48"/>
       <use x="63.623047" xlink:href="#DejaVuSans-46"/>
       <use x="95.410156" xlink:href="#DejaVuSans-53"/>
       <use x="159.033203" xlink:href="#DejaVuSans-48"/>
      </g>
     </g>
    </g>
    <g id="xtick_22">
     <g id="line2d_70">
      <path clip-path="url(#pa5e711e80c)" d="M 425.135125 187.82 
L 425.135125 21.5 
" style="fill:none;stroke:#e5e5e5;stroke-linecap:square;stroke-width:0.8;"/>
     </g>
     <g id="line2d_71">
      <path d="M 425.135125 187.82 
" style="fill:none;stroke:#000000;stroke-linecap:square;stroke-width:1.5;"/>
      <g>
       <use style="stroke:#000000;" x="425.135125" xlink:href="#mbf85a21cc7" y="187.82"/>
      </g>
     </g>
     <g id="text_25">
      <!-- 0.75 -->
      <g style="fill:#4d4d4d;" transform="translate(415.33825 199.456625)scale(0.088 -0.088)">
       <use xlink:href="#DejaVuSans-48"/>
       <use x="63.623047" xlink:href="#DejaVuSans-46"/>
       <use x="95.410156" xlink:href="#DejaVuSans-55"/>
       <use x="159.033203" xlink:href="#DejaVuSans-53"/>
      </g>
     </g>
    </g>
    <g id="xtick_23">
     <g id="line2d_72">
      <path clip-path="url(#pa5e711e80c)" d="M 449.735125 187.82 
L 449.735125 21.5 
" style="fill:none;stroke:#e5e5e5;stroke-linecap:square;stroke-width:0.8;"/>
     </g>
     <g id="line2d_73">
      <path d="M 449.735125 187.82 
" style="fill:none;stroke:#000000;stroke-linecap:square;stroke-width:1.5;"/>
      <g>
       <use style="stroke:#000000;" x="449.735125" xlink:href="#mbf85a21cc7" y="187.82"/>
      </g>
     </g>
     <g id="text_26">
      <!-- 1 -->
      <g style="fill:#4d4d4d;" transform="translate(446.935625 199.456625)scale(0.088 -0.088)">
       <use xlink:href="#DejaVuSans-49"/>
      </g>
     </g>
    </g>
    <g id="xtick_24">
     <g id="line2d_74">
      <path clip-path="url(#pa5e711e80c)" d="M 363.635125 187.82 
L 363.635125 21.5 
" style="fill:none;stroke:#fafafa;stroke-linecap:square;"/>
     </g>
     <g id="line2d_75">
      <path d="M 363.635125 187.82 
" style="fill:none;stroke:#000000;stroke-linecap:square;stroke-width:1.5;"/>
      <g>
       <use style="stroke:#000000;" x="363.635125" xlink:href="#m24fd4f8cc3" y="187.82"/>
      </g>
     </g>
    </g>
    <g id="xtick_25">
     <g id="line2d_76">
      <path clip-path="url(#pa5e711e80c)" d="M 388.235125 187.82 
L 388.235125 21.5 
" style="fill:none;stroke:#fafafa;stroke-linecap:square;"/>
     </g>
     <g id="line2d_77">
      <path d="M 388.235125 187.82 
" style="fill:none;stroke:#000000;stroke-linecap:square;stroke-width:1.5;"/>
      <g>
       <use style="stroke:#000000;" x="388.235125" xlink:href="#m24fd4f8cc3" y="187.82"/>
      </g>
     </g>
    </g>
    <g id="xtick_26">
     <g id="line2d_78">
      <path clip-path="url(#pa5e711e80c)" d="M 412.835125 187.82 
L 412.835125 21.5 
" style="fill:none;stroke:#fafafa;stroke-linecap:square;"/>
     </g>
     <g id="line2d_79">
      <path d="M 412.835125 187.82 
" style="fill:none;stroke:#000000;stroke-linecap:square;stroke-width:1.5;"/>
      <g>
       <use style="stroke:#000000;" x="412.835125" xlink:href="#m24fd4f8cc3" y="187.82"/>
      </g>
     </g>
    </g>
    <g id="xtick_27">
     <g id="line2d_80">
      <path clip-path="url(#pa5e711e80c)" d="M 437.435125 187.82 
L 437.435125 21.5 
" style="fill:none;stroke:#fafafa;stroke-linecap:square;"/>
     </g>
     <g id="line2d_81">
      <path d="M 437.435125 187.82 
" style="fill:none;stroke:#000000;stroke-linecap:square;stroke-width:1.5;"/>
      <g>
       <use style="stroke:#000000;" x="437.435125" xlink:href="#m24fd4f8cc3" y="187.82"/>
      </g>
     </g>
    </g>
   </g>
   <g id="matplotlib.axis_6">
    <g id="ytick_19">
     <g id="line2d_82">
      <path clip-path="url(#pa5e711e80c)" d="M 346.415125 176.973043 
L 454.655125 176.973043 
" style="fill:none;stroke:#e5e5e5;stroke-linecap:square;stroke-width:0.8;"/>
     </g>
    </g>
    <g id="ytick_20">
     <g id="line2d_83">
      <path clip-path="url(#pa5e711e80c)" d="M 346.415125 158.894783 
L 454.655125 158.894783 
" style="fill:none;stroke:#e5e5e5;stroke-linecap:square;stroke-width:0.8;"/>
     </g>
    </g>
    <g id="ytick_21">
     <g id="line2d_84">
      <path clip-path="url(#pa5e711e80c)" d="M 346.415125 140.816522 
L 454.655125 140.816522 
" style="fill:none;stroke:#e5e5e5;stroke-linecap:square;stroke-width:0.8;"/>
     </g>
    </g>
    <g id="ytick_22">
     <g id="line2d_85">
      <path clip-path="url(#pa5e711e80c)" d="M 346.415125 122.738261 
L 454.655125 122.738261 
" style="fill:none;stroke:#e5e5e5;stroke-linecap:square;stroke-width:0.8;"/>
     </g>
    </g>
    <g id="ytick_23">
     <g id="line2d_86">
      <path clip-path="url(#pa5e711e80c)" d="M 346.415125 104.66 
L 454.655125 104.66 
" style="fill:none;stroke:#e5e5e5;stroke-linecap:square;stroke-width:0.8;"/>
     </g>
    </g>
    <g id="ytick_24">
     <g id="line2d_87">
      <path clip-path="url(#pa5e711e80c)" d="M 346.415125 86.581739 
L 454.655125 86.581739 
" style="fill:none;stroke:#e5e5e5;stroke-linecap:square;stroke-width:0.8;"/>
     </g>
    </g>
    <g id="ytick_25">
     <g id="line2d_88">
      <path clip-path="url(#pa5e711e80c)" d="M 346.415125 68.503478 
L 454.655125 68.503478 
" style="fill:none;stroke:#e5e5e5;stroke-linecap:square;stroke-width:0.8;"/>
     </g>
    </g>
    <g id="ytick_26">
     <g id="line2d_89">
      <path clip-path="url(#pa5e711e80c)" d="M 346.415125 50.425217 
L 454.655125 50.425217 
" style="fill:none;stroke:#e5e5e5;stroke-linecap:square;stroke-width:0.8;"/>
     </g>
    </g>
    <g id="ytick_27">
     <g id="line2d_90">
      <path clip-path="url(#pa5e711e80c)" d="M 346.415125 32.346957 
L 454.655125 32.346957 
" style="fill:none;stroke:#e5e5e5;stroke-linecap:square;stroke-width:0.8;"/>
     </g>
    </g>
   </g>
   <g id="PathCollection_3">
    <path clip-path="url(#pa5e711e80c)" d="M 447.767125 178.745497 
C 448.237185 178.745497 448.688056 178.55874 449.020439 178.226358 
C 449.352822 177.893975 449.539579 177.443104 449.539579 176.973043 
C 449.539579 176.502983 449.352822 176.052112 449.020439 175.719729 
C 448.688056 175.387347 448.237185 175.20059 447.767125 175.20059 
C 447.297065 175.20059 446.846194 175.387347 446.513811 175.719729 
C 446.181428 176.052112 445.994671 176.502983 445.994671 176.973043 
C 445.994671 177.443104 446.181428 177.893975 446.513811 178.226358 
C 446.846194 178.55874 447.297065 178.745497 447.767125 178.745497 
z
" style="fill:#db5f57;stroke:#000000;stroke-width:0.886227;"/>
    <path clip-path="url(#pa5e711e80c)" d="M 449.735125 160.667236 
C 450.205185 160.667236 450.656056 160.48048 450.988439 160.148097 
C 451.320822 159.815714 451.507579 159.364843 451.507579 158.894783 
C 451.507579 158.424722 451.320822 157.973851 450.988439 157.641468 
C 450.656056 157.309086 450.205185 157.122329 449.735125 157.122329 
C 449.265065 157.122329 448.814194 157.309086 448.481811 157.641468 
C 448.149428 157.973851 447.962671 158.424722 447.962671 158.894783 
C 447.962671 159.364843 448.149428 159.815714 448.481811 160.148097 
C 448.814194 160.48048 449.265065 160.667236 449.735125 160.667236 
z
" style="fill:#dbb757;stroke:#000000;stroke-width:0.886227;"/>
    <path clip-path="url(#pa5e711e80c)" d="M 448.751125 142.588976 
C 449.221185 142.588976 449.672056 142.402219 450.004439 142.069836 
C 450.336822 141.737453 450.523579 141.286582 450.523579 140.816522 
C 450.523579 140.346461 450.336822 139.89559 450.004439 139.563208 
C 449.672056 139.230825 449.221185 139.044068 448.751125 139.044068 
C 448.281065 139.044068 447.830194 139.230825 447.497811 139.563208 
C 447.165428 139.89559 446.978671 140.346461 446.978671 140.816522 
C 446.978671 141.286582 447.165428 141.737453 447.497811 142.069836 
C 447.830194 142.402219 448.281065 142.588976 448.751125 142.588976 
z
" style="fill:#a7db57;stroke:#000000;stroke-width:0.886227;"/>
    <path clip-path="url(#pa5e711e80c)" d="M 449.735125 124.510715 
C 450.205185 124.510715 450.656056 124.323958 450.988439 123.991575 
C 451.320822 123.659192 451.507579 123.208321 451.507579 122.738261 
C 451.507579 122.268201 451.320822 121.81733 450.988439 121.484947 
C 450.656056 121.152564 450.205185 120.965807 449.735125 120.965807 
C 449.265065 120.965807 448.814194 121.152564 448.481811 121.484947 
C 448.149428 121.81733 447.962671 122.268201 447.962671 122.738261 
C 447.962671 123.208321 448.149428 123.659192 448.481811 123.991575 
C 448.814194 124.323958 449.265065 124.510715 449.735125 124.510715 
z
" style="fill:#57db5f;stroke:#000000;stroke-width:0.886227;"/>
    <path clip-path="url(#pa5e711e80c)" d="M 449.735125 106.432454 
C 450.205185 106.432454 450.656056 106.245697 450.988439 105.913314 
C 451.320822 105.580931 451.507579 105.13006 451.507579 104.66 
C 451.507579 104.18994 451.320822 103.739069 450.988439 103.406686 
C 450.656056 103.074303 450.205185 102.887546 449.735125 102.887546 
C 449.265065 102.887546 448.814194 103.074303 448.481811 103.406686 
C 448.149428 103.739069 447.962671 104.18994 447.962671 104.66 
C 447.962671 105.13006 448.149428 105.580931 448.481811 105.913314 
C 448.814194 106.245697 449.265065 106.432454 449.735125 106.432454 
z
" style="fill:#57dbb7;stroke:#000000;stroke-width:0.886227;"/>
    <path clip-path="url(#pa5e711e80c)" d="M 440.879125 88.354193 
C 441.349185 88.354193 441.800056 88.167436 442.132439 87.835053 
C 442.464822 87.50267 442.651579 87.051799 442.651579 86.581739 
C 442.651579 86.111679 442.464822 85.660808 442.132439 85.328425 
C 441.800056 84.996042 441.349185 84.809285 440.879125 84.809285 
C 440.409065 84.809285 439.958194 84.996042 439.625811 85.328425 
C 439.293428 85.660808 439.106671 86.111679 439.106671 86.581739 
C 439.106671 87.051799 439.293428 87.50267 439.625811 87.835053 
C 439.958194 88.167436 440.409065 88.354193 440.879125 88.354193 
z
" style="fill:#57a7db;stroke:#000000;stroke-width:0.886227;"/>
    <path clip-path="url(#pa5e711e80c)" d="M 447.767125 70.275932 
C 448.237185 70.275932 448.688056 70.089175 449.020439 69.756792 
C 449.352822 69.42441 449.539579 68.973539 449.539579 68.503478 
C 449.539579 68.033418 449.352822 67.582547 449.020439 67.250164 
C 448.688056 66.917781 448.237185 66.731024 447.767125 66.731024 
C 447.297065 66.731024 446.846194 66.917781 446.513811 67.250164 
C 446.181428 67.582547 445.994671 68.033418 445.994671 68.503478 
C 445.994671 68.973539 446.181428 69.42441 446.513811 69.756792 
C 446.846194 70.089175 447.297065 70.275932 447.767125 70.275932 
z
" style="fill:#5f57db;stroke:#000000;stroke-width:0.886227;"/>
    <path clip-path="url(#pa5e711e80c)" d="M 447.767125 52.197671 
C 448.237185 52.197671 448.688056 52.010914 449.020439 51.678532 
C 449.352822 51.346149 449.539579 50.895278 449.539579 50.425217 
C 449.539579 49.955157 449.352822 49.504286 449.020439 49.171903 
C 448.688056 48.83952 448.237185 48.652764 447.767125 48.652764 
C 447.297065 48.652764 446.846194 48.83952 446.513811 49.171903 
C 446.181428 49.504286 445.994671 49.955157 445.994671 50.425217 
C 445.994671 50.895278 446.181428 51.346149 446.513811 51.678532 
C 446.846194 52.010914 447.297065 52.197671 447.767125 52.197671 
z
" style="fill:#b757db;stroke:#000000;stroke-width:0.886227;"/>
    <path clip-path="url(#pa5e711e80c)" d="M 447.767125 34.11941 
C 448.237185 34.11941 448.688056 33.932653 449.020439 33.600271 
C 449.352822 33.267888 449.539579 32.817017 449.539579 32.346957 
C 449.539579 31.876896 449.352822 31.426025 449.020439 31.093642 
C 448.688056 30.76126 448.237185 30.574503 447.767125 30.574503 
C 447.297065 30.574503 446.846194 30.76126 446.513811 31.093642 
C 446.181428 31.426025 445.994671 31.876896 445.994671 32.346957 
C 445.994671 32.817017 446.181428 33.267888 446.513811 33.600271 
C 446.846194 33.932653 447.297065 34.11941 447.767125 34.11941 
z
" style="fill:#db57a7;stroke:#000000;stroke-width:0.886227;"/>
   </g>
   <g id="patch_7">
    <path d="M 346.415125 21.5 
L 454.655125 21.5 
L 454.655125 7.2 
L 346.415125 7.2 
z
" style="fill:#cccccc;stroke:#7f7f7f;stroke-linejoin:miter;"/>
   </g>
   <g id="text_27">
    <!-- recall -->
    <g style="fill:#1a1a1a;" transform="translate(388.459875 16.77825)scale(0.088 -0.088)">
     <use xlink:href="#DejaVuSans-114"/>
     <use x="41.082031" xlink:href="#DejaVuSans-101"/>
     <use x="102.605469" xlink:href="#DejaVuSans-99"/>
     <use x="157.585938" xlink:href="#DejaVuSans-97"/>
     <use x="218.865234" xlink:href="#DejaVuSans-108"/>
     <use x="246.648438" xlink:href="#DejaVuSans-108"/>
    </g>
   </g>
  </g>
 </g>
 <defs>
  <clipPath id="p6e49f6a52c">
   <rect height="166.32" width="108.24" x="119.855125" y="21.5"/>
  </clipPath>
  <clipPath id="pf2613ff9fe">
   <rect height="166.32" width="108.24" x="233.135125" y="21.5"/>
  </clipPath>
  <clipPath id="pa5e711e80c">
   <rect height="166.32" width="108.24" x="346.415125" y="21.5"/>
  </clipPath>
 </defs>
</svg>
