<?xml version="1.0" encoding="utf-8" standalone="no"?>
<!DOCTYPE svg PUBLIC "-//W3C//DTD SVG 1.1//EN"
  "http://www.w3.org/Graphics/SVG/1.1/DTD/svg11.dtd">
<!-- Created with matplotlib (https://matplotlib.org/) -->
<svg height="345.6pt" version="1.1" viewBox="0 0 460.8 345.6" width="460.8pt" xmlns="http://www.w3.org/2000/svg" xmlns:xlink="http://www.w3.org/1999/xlink">
 <defs>
  <style type="text/css">
*{stroke-linecap:butt;stroke-linejoin:round;}
  </style>
 </defs>
 <g id="figure_1">
  <g id="patch_1">
   <path d="M 0 345.6 
L 460.8 345.6 
L 460.8 0 
L 0 0 
z
" style="fill:#ffffff;"/>
  </g>
  <g id="axes_1">
   <g id="patch_2">
    <path d="M 57.6 307.584 
L 414.72 307.584 
L 414.72 41.472 
L 57.6 41.472 
z
" style="fill:#ffffff;"/>
   </g>
   <g id="matplotlib.axis_1">
    <g id="xtick_1">
     <g id="line2d_1">
      <path clip-path="url(#p01364cfb83)" d="M 57.6 307.584 
L 57.6 41.472 
" style="fill:none;stroke:#b0b0b0;stroke-dasharray:0.8,1.32;stroke-dashoffset:0;stroke-width:0.8;"/>
     </g>
     <g id="line2d_2">
      <defs>
       <path d="M 0 0 
L 0 3.5 
" id="m1a1e9836b9" style="stroke:#000000;stroke-width:0.8;"/>
      </defs>
      <g>
       <use style="stroke:#000000;stroke-width:0.8;" x="57.6" xlink:href="#m1a1e9836b9" y="307.584"/>
      </g>
     </g>
     <g id="text_1">
      <!-- 0.0 -->
      <defs>
       <path d="M 31.78125 66.40625 
Q 24.171875 66.40625 20.328125 58.90625 
Q 16.5 51.421875 16.5 36.375 
Q 16.5 21.390625 20.328125 13.890625 
Q 24.171875 6.390625 31.78125 6.390625 
Q 39.453125 6.390625 43.28125 13.890625 
Q 47.125 21.390625 47.125 36.375 
Q 47.125 51.421875 43.28125 58.90625 
Q 39.453125 66.40625 31.78125 66.40625 
z
M 31.78125 74.21875 
Q 44.046875 74.21875 50.515625 64.515625 
Q 56.984375 54.828125 56.984375 36.375 
Q 56.984375 17.96875 50.515625 8.265625 
Q 44.046875 -1.421875 31.78125 -1.421875 
Q 19.53125 -1.421875 13.0625 8.265625 
Q 6.59375 17.96875 6.59375 36.375 
Q 6.59375 54.828125 13.0625 64.515625 
Q 19.53125 74.21875 31.78125 74.21875 
z
" id="DejaVuSans-48"/>
       <path d="M 10.6875 12.40625 
L 21 12.40625 
L 21 0 
L 10.6875 0 
z
" id="DejaVuSans-46"/>
      </defs>
      <g transform="translate(49.648438 322.182437)scale(0.1 -0.1)">
       <use xlink:href="#DejaVuSans-48"/>
       <use x="63.623047" xlink:href="#DejaVuSans-46"/>
       <use x="95.410156" xlink:href="#DejaVuSans-48"/>
      </g>
     </g>
    </g>
    <g id="xtick_2">
     <g id="line2d_3">
      <path clip-path="url(#p01364cfb83)" d="M 129.024 307.584 
L 129.024 41.472 
" style="fill:none;stroke:#b0b0b0;stroke-dasharray:0.8,1.32;stroke-dashoffset:0;stroke-width:0.8;"/>
     </g>
     <g id="line2d_4">
      <g>
       <use style="stroke:#000000;stroke-width:0.8;" x="129.024" xlink:href="#m1a1e9836b9" y="307.584"/>
      </g>
     </g>
     <g id="text_2">
      <!-- 0.2 -->
      <defs>
       <path d="M 19.1875 8.296875 
L 53.609375 8.296875 
L 53.609375 0 
L 7.328125 0 
L 7.328125 8.296875 
Q 12.9375 14.109375 22.625 23.890625 
Q 32.328125 33.6875 34.8125 36.53125 
Q 39.546875 41.84375 41.421875 45.53125 
Q 43.3125 49.21875 43.3125 52.78125 
Q 43.3125 58.59375 39.234375 62.25 
Q 35.15625 65.921875 28.609375 65.921875 
Q 23.96875 65.921875 18.8125 64.3125 
Q 13.671875 62.703125 7.8125 59.421875 
L 7.8125 69.390625 
Q 13.765625 71.78125 18.9375 73 
Q 24.125 74.21875 28.421875 74.21875 
Q 39.75 74.21875 46.484375 68.546875 
Q 53.21875 62.890625 53.21875 53.421875 
Q 53.21875 48.921875 51.53125 44.890625 
Q 49.859375 40.875 45.40625 35.40625 
Q 44.1875 33.984375 37.640625 27.21875 
Q 31.109375 20.453125 19.1875 8.296875 
z
" id="DejaVuSans-50"/>
      </defs>
      <g transform="translate(121.072438 322.182437)scale(0.1 -0.1)">
       <use xlink:href="#DejaVuSans-48"/>
       <use x="63.623047" xlink:href="#DejaVuSans-46"/>
       <use x="95.410156" xlink:href="#DejaVuSans-50"/>
      </g>
     </g>
    </g>
    <g id="xtick_3">
     <g id="line2d_5">
      <path clip-path="url(#p01364cfb83)" d="M 200.448 307.584 
L 200.448 41.472 
" style="fill:none;stroke:#b0b0b0;stroke-dasharray:0.8,1.32;stroke-dashoffset:0;stroke-width:0.8;"/>
     </g>
     <g id="line2d_6">
      <g>
       <use style="stroke:#000000;stroke-width:0.8;" x="200.448" xlink:href="#m1a1e9836b9" y="307.584"/>
      </g>
     </g>
     <g id="text_3">
      <!-- 0.4 -->
      <defs>
       <path d="M 37.796875 64.3125 
L 12.890625 25.390625 
L 37.796875 25.390625 
z
M 35.203125 72.90625 
L 47.609375 72.90625 
L 47.609375 25.390625 
L 58.015625 25.390625 
L 58.015625 17.1875 
L 47.609375 17.1875 
L 47.609375 0 
L 37.796875 0 
L 37.796875 17.1875 
L 4.890625 17.1875 
L 4.890625 26.703125 
z
" id="DejaVuSans-52"/>
      </defs>
      <g transform="translate(192.496438 322.182437)scale(0.1 -0.1)">
       <use xlink:href="#DejaVuSans-48"/>
       <use x="63.623047" xlink:href="#DejaVuSans-46"/>
       <use x="95.410156" xlink:href="#DejaVuSans-52"/>
      </g>
     </g>
    </g>
    <g id="xtick_4">
     <g id="line2d_7">
      <path clip-path="url(#p01364cfb83)" d="M 271.872 307.584 
L 271.872 41.472 
" style="fill:none;stroke:#b0b0b0;stroke-dasharray:0.8,1.32;stroke-dashoffset:0;stroke-width:0.8;"/>
     </g>
     <g id="line2d_8">
      <g>
       <use style="stroke:#000000;stroke-width:0.8;" x="271.872" xlink:href="#m1a1e9836b9" y="307.584"/>
      </g>
     </g>
     <g id="text_4">
      <!-- 0.6 -->
      <defs>
       <path d="M 33.015625 40.375 
Q 26.375 40.375 22.484375 35.828125 
Q 18.609375 31.296875 18.609375 23.390625 
Q 18.609375 15.53125 22.484375 10.953125 
Q 26.375 6.390625 33.015625 6.390625 
Q 39.65625 6.390625 43.53125 10.953125 
Q 47.40625 15.53125 47.40625 23.390625 
Q 47.40625 31.296875 43.53125 35.828125 
Q 39.65625 40.375 33.015625 40.375 
z
M 52.59375 71.296875 
L 52.59375 62.3125 
Q 48.875 64.0625 45.09375 64.984375 
Q 41.3125 65.921875 37.59375 65.921875 
Q 27.828125 65.921875 22.671875 59.328125 
Q 17.53125 52.734375 16.796875 39.40625 
Q 19.671875 43.65625 24.015625 45.921875 
Q 28.375 48.1875 33.59375 48.1875 
Q 44.578125 48.1875 50.953125 41.515625 
Q 57.328125 34.859375 57.328125 23.390625 
Q 57.328125 12.15625 50.6875 5.359375 
Q 44.046875 -1.421875 33.015625 -1.421875 
Q 20.359375 -1.421875 13.671875 8.265625 
Q 6.984375 17.96875 6.984375 36.375 
Q 6.984375 53.65625 15.1875 63.9375 
Q 23.390625 74.21875 37.203125 74.21875 
Q 40.921875 74.21875 44.703125 73.484375 
Q 48.484375 72.75 52.59375 71.296875 
z
" id="DejaVuSans-54"/>
      </defs>
      <g transform="translate(263.920438 322.182437)scale(0.1 -0.1)">
       <use xlink:href="#DejaVuSans-48"/>
       <use x="63.623047" xlink:href="#DejaVuSans-46"/>
       <use x="95.410156" xlink:href="#DejaVuSans-54"/>
      </g>
     </g>
    </g>
    <g id="xtick_5">
     <g id="line2d_9">
      <path clip-path="url(#p01364cfb83)" d="M 343.296 307.584 
L 343.296 41.472 
" style="fill:none;stroke:#b0b0b0;stroke-dasharray:0.8,1.32;stroke-dashoffset:0;stroke-width:0.8;"/>
     </g>
     <g id="line2d_10">
      <g>
       <use style="stroke:#000000;stroke-width:0.8;" x="343.296" xlink:href="#m1a1e9836b9" y="307.584"/>
      </g>
     </g>
     <g id="text_5">
      <!-- 0.8 -->
      <defs>
       <path d="M 31.78125 34.625 
Q 24.75 34.625 20.71875 30.859375 
Q 16.703125 27.09375 16.703125 20.515625 
Q 16.703125 13.921875 20.71875 10.15625 
Q 24.75 6.390625 31.78125 6.390625 
Q 38.8125 6.390625 42.859375 10.171875 
Q 46.921875 13.96875 46.921875 20.515625 
Q 46.921875 27.09375 42.890625 30.859375 
Q 38.875 34.625 31.78125 34.625 
z
M 21.921875 38.8125 
Q 15.578125 40.375 12.03125 44.71875 
Q 8.5 49.078125 8.5 55.328125 
Q 8.5 64.0625 14.71875 69.140625 
Q 20.953125 74.21875 31.78125 74.21875 
Q 42.671875 74.21875 48.875 69.140625 
Q 55.078125 64.0625 55.078125 55.328125 
Q 55.078125 49.078125 51.53125 44.71875 
Q 48 40.375 41.703125 38.8125 
Q 48.828125 37.15625 52.796875 32.3125 
Q 56.78125 27.484375 56.78125 20.515625 
Q 56.78125 9.90625 50.3125 4.234375 
Q 43.84375 -1.421875 31.78125 -1.421875 
Q 19.734375 -1.421875 13.25 4.234375 
Q 6.78125 9.90625 6.78125 20.515625 
Q 6.78125 27.484375 10.78125 32.3125 
Q 14.796875 37.15625 21.921875 38.8125 
z
M 18.3125 54.390625 
Q 18.3125 48.734375 21.84375 45.5625 
Q 25.390625 42.390625 31.78125 42.390625 
Q 38.140625 42.390625 41.71875 45.5625 
Q 45.3125 48.734375 45.3125 54.390625 
Q 45.3125 60.0625 41.71875 63.234375 
Q 38.140625 66.40625 31.78125 66.40625 
Q 25.390625 66.40625 21.84375 63.234375 
Q 18.3125 60.0625 18.3125 54.390625 
z
" id="DejaVuSans-56"/>
      </defs>
      <g transform="translate(335.344438 322.182437)scale(0.1 -0.1)">
       <use xlink:href="#DejaVuSans-48"/>
       <use x="63.623047" xlink:href="#DejaVuSans-46"/>
       <use x="95.410156" xlink:href="#DejaVuSans-56"/>
      </g>
     </g>
    </g>
    <g id="xtick_6">
     <g id="line2d_11">
      <path clip-path="url(#p01364cfb83)" d="M 414.72 307.584 
L 414.72 41.472 
" style="fill:none;stroke:#b0b0b0;stroke-dasharray:0.8,1.32;stroke-dashoffset:0;stroke-width:0.8;"/>
     </g>
     <g id="line2d_12">
      <g>
       <use style="stroke:#000000;stroke-width:0.8;" x="414.72" xlink:href="#m1a1e9836b9" y="307.584"/>
      </g>
     </g>
     <g id="text_6">
      <!-- 1.0 -->
      <defs>
       <path d="M 12.40625 8.296875 
L 28.515625 8.296875 
L 28.515625 63.921875 
L 10.984375 60.40625 
L 10.984375 69.390625 
L 28.421875 72.90625 
L 38.28125 72.90625 
L 38.28125 8.296875 
L 54.390625 8.296875 
L 54.390625 0 
L 12.40625 0 
z
" id="DejaVuSans-49"/>
      </defs>
      <g transform="translate(406.768438 322.182437)scale(0.1 -0.1)">
       <use xlink:href="#DejaVuSans-49"/>
       <use x="63.623047" xlink:href="#DejaVuSans-46"/>
       <use x="95.410156" xlink:href="#DejaVuSans-48"/>
      </g>
     </g>
    </g>
    <g id="text_7">
     <!-- False Positive Rate -->
     <defs>
      <path d="M 9.8125 72.90625 
L 51.703125 72.90625 
L 51.703125 64.59375 
L 19.671875 64.59375 
L 19.671875 43.109375 
L 48.578125 43.109375 
L 48.578125 34.8125 
L 19.671875 34.8125 
L 19.671875 0 
L 9.8125 0 
z
" id="DejaVuSans-70"/>
      <path d="M 34.28125 27.484375 
Q 23.390625 27.484375 19.1875 25 
Q 14.984375 22.515625 14.984375 16.5 
Q 14.984375 11.71875 18.140625 8.90625 
Q 21.296875 6.109375 26.703125 6.109375 
Q 34.1875 6.109375 38.703125 11.40625 
Q 43.21875 16.703125 43.21875 25.484375 
L 43.21875 27.484375 
z
M 52.203125 31.203125 
L 52.203125 0 
L 43.21875 0 
L 43.21875 8.296875 
Q 40.140625 3.328125 35.546875 0.953125 
Q 30.953125 -1.421875 24.3125 -1.421875 
Q 15.921875 -1.421875 10.953125 3.296875 
Q 6 8.015625 6 15.921875 
Q 6 25.140625 12.171875 29.828125 
Q 18.359375 34.515625 30.609375 34.515625 
L 43.21875 34.515625 
L 43.21875 35.40625 
Q 43.21875 41.609375 39.140625 45 
Q 35.0625 48.390625 27.6875 48.390625 
Q 23 48.390625 18.546875 47.265625 
Q 14.109375 46.140625 10.015625 43.890625 
L 10.015625 52.203125 
Q 14.9375 54.109375 19.578125 55.046875 
Q 24.21875 56 28.609375 56 
Q 40.484375 56 46.34375 49.84375 
Q 52.203125 43.703125 52.203125 31.203125 
z
" id="DejaVuSans-97"/>
      <path d="M 9.421875 75.984375 
L 18.40625 75.984375 
L 18.40625 0 
L 9.421875 0 
z
" id="DejaVuSans-108"/>
      <path d="M 44.28125 53.078125 
L 44.28125 44.578125 
Q 40.484375 46.53125 36.375 47.5 
Q 32.28125 48.484375 27.875 48.484375 
Q 21.1875 48.484375 17.84375 46.4375 
Q 14.5 44.390625 14.5 40.28125 
Q 14.5 37.15625 16.890625 35.375 
Q 19.28125 33.59375 26.515625 31.984375 
L 29.59375 31.296875 
Q 39.15625 29.25 43.1875 25.515625 
Q 47.21875 21.78125 47.21875 15.09375 
Q 47.21875 7.46875 41.1875 3.015625 
Q 35.15625 -1.421875 24.609375 -1.421875 
Q 20.21875 -1.421875 15.453125 -0.5625 
Q 10.6875 0.296875 5.421875 2 
L 5.421875 11.28125 
Q 10.40625 8.6875 15.234375 7.390625 
Q 20.0625 6.109375 24.8125 6.109375 
Q 31.15625 6.109375 34.5625 8.28125 
Q 37.984375 10.453125 37.984375 14.40625 
Q 37.984375 18.0625 35.515625 20.015625 
Q 33.0625 21.96875 24.703125 23.78125 
L 21.578125 24.515625 
Q 13.234375 26.265625 9.515625 29.90625 
Q 5.8125 33.546875 5.8125 39.890625 
Q 5.8125 47.609375 11.28125 51.796875 
Q 16.75 56 26.8125 56 
Q 31.78125 56 36.171875 55.265625 
Q 40.578125 54.546875 44.28125 53.078125 
z
" id="DejaVuSans-115"/>
      <path d="M 56.203125 29.59375 
L 56.203125 25.203125 
L 14.890625 25.203125 
Q 15.484375 15.921875 20.484375 11.0625 
Q 25.484375 6.203125 34.421875 6.203125 
Q 39.59375 6.203125 44.453125 7.46875 
Q 49.3125 8.734375 54.109375 11.28125 
L 54.109375 2.78125 
Q 49.265625 0.734375 44.1875 -0.34375 
Q 39.109375 -1.421875 33.890625 -1.421875 
Q 20.796875 -1.421875 13.15625 6.1875 
Q 5.515625 13.8125 5.515625 26.8125 
Q 5.515625 40.234375 12.765625 48.109375 
Q 20.015625 56 32.328125 56 
Q 43.359375 56 49.78125 48.890625 
Q 56.203125 41.796875 56.203125 29.59375 
z
M 47.21875 32.234375 
Q 47.125 39.59375 43.09375 43.984375 
Q 39.0625 48.390625 32.421875 48.390625 
Q 24.90625 48.390625 20.390625 44.140625 
Q 15.875 39.890625 15.1875 32.171875 
z
" id="DejaVuSans-101"/>
      <path id="DejaVuSans-32"/>
      <path d="M 19.671875 64.796875 
L 19.671875 37.40625 
L 32.078125 37.40625 
Q 38.96875 37.40625 42.71875 40.96875 
Q 46.484375 44.53125 46.484375 51.125 
Q 46.484375 57.671875 42.71875 61.234375 
Q 38.96875 64.796875 32.078125 64.796875 
z
M 9.8125 72.90625 
L 32.078125 72.90625 
Q 44.34375 72.90625 50.609375 67.359375 
Q 56.890625 61.8125 56.890625 51.125 
Q 56.890625 40.328125 50.609375 34.8125 
Q 44.34375 29.296875 32.078125 29.296875 
L 19.671875 29.296875 
L 19.671875 0 
L 9.8125 0 
z
" id="DejaVuSans-80"/>
      <path d="M 30.609375 48.390625 
Q 23.390625 48.390625 19.1875 42.75 
Q 14.984375 37.109375 14.984375 27.296875 
Q 14.984375 17.484375 19.15625 11.84375 
Q 23.34375 6.203125 30.609375 6.203125 
Q 37.796875 6.203125 41.984375 11.859375 
Q 46.1875 17.53125 46.1875 27.296875 
Q 46.1875 37.015625 41.984375 42.703125 
Q 37.796875 48.390625 30.609375 48.390625 
z
M 30.609375 56 
Q 42.328125 56 49.015625 48.375 
Q 55.71875 40.765625 55.71875 27.296875 
Q 55.71875 13.875 49.015625 6.21875 
Q 42.328125 -1.421875 30.609375 -1.421875 
Q 18.84375 -1.421875 12.171875 6.21875 
Q 5.515625 13.875 5.515625 27.296875 
Q 5.515625 40.765625 12.171875 48.375 
Q 18.84375 56 30.609375 56 
z
" id="DejaVuSans-111"/>
      <path d="M 9.421875 54.6875 
L 18.40625 54.6875 
L 18.40625 0 
L 9.421875 0 
z
M 9.421875 75.984375 
L 18.40625 75.984375 
L 18.40625 64.59375 
L 9.421875 64.59375 
z
" id="DejaVuSans-105"/>
      <path d="M 18.3125 70.21875 
L 18.3125 54.6875 
L 36.8125 54.6875 
L 36.8125 47.703125 
L 18.3125 47.703125 
L 18.3125 18.015625 
Q 18.3125 11.328125 20.140625 9.421875 
Q 21.96875 7.515625 27.59375 7.515625 
L 36.8125 7.515625 
L 36.8125 0 
L 27.59375 0 
Q 17.1875 0 13.234375 3.875 
Q 9.28125 7.765625 9.28125 18.015625 
L 9.28125 47.703125 
L 2.6875 47.703125 
L 2.6875 54.6875 
L 9.28125 54.6875 
L 9.28125 70.21875 
z
" id="DejaVuSans-116"/>
      <path d="M 2.984375 54.6875 
L 12.5 54.6875 
L 29.59375 8.796875 
L 46.6875 54.6875 
L 56.203125 54.6875 
L 35.6875 0 
L 23.484375 0 
z
" id="DejaVuSans-118"/>
      <path d="M 44.390625 34.1875 
Q 47.5625 33.109375 50.5625 29.59375 
Q 53.5625 26.078125 56.59375 19.921875 
L 66.609375 0 
L 56 0 
L 46.6875 18.703125 
Q 43.0625 26.03125 39.671875 28.421875 
Q 36.28125 30.8125 30.421875 30.8125 
L 19.671875 30.8125 
L 19.671875 0 
L 9.8125 0 
L 9.8125 72.90625 
L 32.078125 72.90625 
Q 44.578125 72.90625 50.734375 67.671875 
Q 56.890625 62.453125 56.890625 51.90625 
Q 56.890625 45.015625 53.6875 40.46875 
Q 50.484375 35.9375 44.390625 34.1875 
z
M 19.671875 64.796875 
L 19.671875 38.921875 
L 32.078125 38.921875 
Q 39.203125 38.921875 42.84375 42.21875 
Q 46.484375 45.515625 46.484375 51.90625 
Q 46.484375 58.296875 42.84375 61.546875 
Q 39.203125 64.796875 32.078125 64.796875 
z
" id="DejaVuSans-82"/>
     </defs>
     <g transform="translate(188.954531 335.860562)scale(0.1 -0.1)">
      <use xlink:href="#DejaVuSans-70"/>
      <use x="57.378906" xlink:href="#DejaVuSans-97"/>
      <use x="118.658203" xlink:href="#DejaVuSans-108"/>
      <use x="146.441406" xlink:href="#DejaVuSans-115"/>
      <use x="198.541016" xlink:href="#DejaVuSans-101"/>
      <use x="260.064453" xlink:href="#DejaVuSans-32"/>
      <use x="291.851562" xlink:href="#DejaVuSans-80"/>
      <use x="352.107422" xlink:href="#DejaVuSans-111"/>
      <use x="413.289062" xlink:href="#DejaVuSans-115"/>
      <use x="465.388672" xlink:href="#DejaVuSans-105"/>
      <use x="493.171875" xlink:href="#DejaVuSans-116"/>
      <use x="532.380859" xlink:href="#DejaVuSans-105"/>
      <use x="560.164062" xlink:href="#DejaVuSans-118"/>
      <use x="619.34375" xlink:href="#DejaVuSans-101"/>
      <use x="680.867188" xlink:href="#DejaVuSans-32"/>
      <use x="712.654297" xlink:href="#DejaVuSans-82"/>
      <use x="782.105469" xlink:href="#DejaVuSans-97"/>
      <use x="843.384766" xlink:href="#DejaVuSans-116"/>
      <use x="882.59375" xlink:href="#DejaVuSans-101"/>
     </g>
    </g>
   </g>
   <g id="matplotlib.axis_2">
    <g id="ytick_1">
     <g id="line2d_13">
      <path clip-path="url(#p01364cfb83)" d="M 57.6 307.584 
L 414.72 307.584 
" style="fill:none;stroke:#b0b0b0;stroke-dasharray:0.8,1.32;stroke-dashoffset:0;stroke-width:0.8;"/>
     </g>
     <g id="line2d_14">
      <defs>
       <path d="M 0 0 
L -3.5 0 
" id="mce5a9f8365" style="stroke:#000000;stroke-width:0.8;"/>
      </defs>
      <g>
       <use style="stroke:#000000;stroke-width:0.8;" x="57.6" xlink:href="#mce5a9f8365" y="307.584"/>
      </g>
     </g>
     <g id="text_8">
      <!-- 0.0 -->
      <g transform="translate(34.696875 311.383219)scale(0.1 -0.1)">
       <use xlink:href="#DejaVuSans-48"/>
       <use x="63.623047" xlink:href="#DejaVuSans-46"/>
       <use x="95.410156" xlink:href="#DejaVuSans-48"/>
      </g>
     </g>
    </g>
    <g id="ytick_2">
     <g id="line2d_15">
      <path clip-path="url(#p01364cfb83)" d="M 57.6 256.896 
L 414.72 256.896 
" style="fill:none;stroke:#b0b0b0;stroke-dasharray:0.8,1.32;stroke-dashoffset:0;stroke-width:0.8;"/>
     </g>
     <g id="line2d_16">
      <g>
       <use style="stroke:#000000;stroke-width:0.8;" x="57.6" xlink:href="#mce5a9f8365" y="256.896"/>
      </g>
     </g>
     <g id="text_9">
      <!-- 0.2 -->
      <g transform="translate(34.696875 260.695219)scale(0.1 -0.1)">
       <use xlink:href="#DejaVuSans-48"/>
       <use x="63.623047" xlink:href="#DejaVuSans-46"/>
       <use x="95.410156" xlink:href="#DejaVuSans-50"/>
      </g>
     </g>
    </g>
    <g id="ytick_3">
     <g id="line2d_17">
      <path clip-path="url(#p01364cfb83)" d="M 57.6 206.208 
L 414.72 206.208 
" style="fill:none;stroke:#b0b0b0;stroke-dasharray:0.8,1.32;stroke-dashoffset:0;stroke-width:0.8;"/>
     </g>
     <g id="line2d_18">
      <g>
       <use style="stroke:#000000;stroke-width:0.8;" x="57.6" xlink:href="#mce5a9f8365" y="206.208"/>
      </g>
     </g>
     <g id="text_10">
      <!-- 0.4 -->
      <g transform="translate(34.696875 210.007219)scale(0.1 -0.1)">
       <use xlink:href="#DejaVuSans-48"/>
       <use x="63.623047" xlink:href="#DejaVuSans-46"/>
       <use x="95.410156" xlink:href="#DejaVuSans-52"/>
      </g>
     </g>
    </g>
    <g id="ytick_4">
     <g id="line2d_19">
      <path clip-path="url(#p01364cfb83)" d="M 57.6 155.52 
L 414.72 155.52 
" style="fill:none;stroke:#b0b0b0;stroke-dasharray:0.8,1.32;stroke-dashoffset:0;stroke-width:0.8;"/>
     </g>
     <g id="line2d_20">
      <g>
       <use style="stroke:#000000;stroke-width:0.8;" x="57.6" xlink:href="#mce5a9f8365" y="155.52"/>
      </g>
     </g>
     <g id="text_11">
      <!-- 0.6 -->
      <g transform="translate(34.696875 159.319219)scale(0.1 -0.1)">
       <use xlink:href="#DejaVuSans-48"/>
       <use x="63.623047" xlink:href="#DejaVuSans-46"/>
       <use x="95.410156" xlink:href="#DejaVuSans-54"/>
      </g>
     </g>
    </g>
    <g id="ytick_5">
     <g id="line2d_21">
      <path clip-path="url(#p01364cfb83)" d="M 57.6 104.832 
L 414.72 104.832 
" style="fill:none;stroke:#b0b0b0;stroke-dasharray:0.8,1.32;stroke-dashoffset:0;stroke-width:0.8;"/>
     </g>
     <g id="line2d_22">
      <g>
       <use style="stroke:#000000;stroke-width:0.8;" x="57.6" xlink:href="#mce5a9f8365" y="104.832"/>
      </g>
     </g>
     <g id="text_12">
      <!-- 0.8 -->
      <g transform="translate(34.696875 108.631219)scale(0.1 -0.1)">
       <use xlink:href="#DejaVuSans-48"/>
       <use x="63.623047" xlink:href="#DejaVuSans-46"/>
       <use x="95.410156" xlink:href="#DejaVuSans-56"/>
      </g>
     </g>
    </g>
    <g id="ytick_6">
     <g id="line2d_23">
      <path clip-path="url(#p01364cfb83)" d="M 57.6 54.144 
L 414.72 54.144 
" style="fill:none;stroke:#b0b0b0;stroke-dasharray:0.8,1.32;stroke-dashoffset:0;stroke-width:0.8;"/>
     </g>
     <g id="line2d_24">
      <g>
       <use style="stroke:#000000;stroke-width:0.8;" x="57.6" xlink:href="#mce5a9f8365" y="54.144"/>
      </g>
     </g>
     <g id="text_13">
      <!-- 1.0 -->
      <g transform="translate(34.696875 57.943219)scale(0.1 -0.1)">
       <use xlink:href="#DejaVuSans-49"/>
       <use x="63.623047" xlink:href="#DejaVuSans-46"/>
       <use x="95.410156" xlink:href="#DejaVuSans-48"/>
      </g>
     </g>
    </g>
    <g id="text_14">
     <!-- True Positive Rate -->
     <defs>
      <path d="M -0.296875 72.90625 
L 61.375 72.90625 
L 61.375 64.59375 
L 35.5 64.59375 
L 35.5 0 
L 25.59375 0 
L 25.59375 64.59375 
L -0.296875 64.59375 
z
" id="DejaVuSans-84"/>
      <path d="M 41.109375 46.296875 
Q 39.59375 47.171875 37.8125 47.578125 
Q 36.03125 48 33.890625 48 
Q 26.265625 48 22.1875 43.046875 
Q 18.109375 38.09375 18.109375 28.8125 
L 18.109375 0 
L 9.078125 0 
L 9.078125 54.6875 
L 18.109375 54.6875 
L 18.109375 46.1875 
Q 20.953125 51.171875 25.484375 53.578125 
Q 30.03125 56 36.53125 56 
Q 37.453125 56 38.578125 55.875 
Q 39.703125 55.765625 41.0625 55.515625 
z
" id="DejaVuSans-114"/>
      <path d="M 8.5 21.578125 
L 8.5 54.6875 
L 17.484375 54.6875 
L 17.484375 21.921875 
Q 17.484375 14.15625 20.5 10.265625 
Q 23.53125 6.390625 29.59375 6.390625 
Q 36.859375 6.390625 41.078125 11.03125 
Q 45.3125 15.671875 45.3125 23.6875 
L 45.3125 54.6875 
L 54.296875 54.6875 
L 54.296875 0 
L 45.3125 0 
L 45.3125 8.40625 
Q 42.046875 3.421875 37.71875 1 
Q 33.40625 -1.421875 27.6875 -1.421875 
Q 18.265625 -1.421875 13.375 4.4375 
Q 8.5 10.296875 8.5 21.578125 
z
M 31.109375 56 
z
" id="DejaVuSans-117"/>
     </defs>
     <g transform="translate(28.617187 220.074094)rotate(-90)scale(0.1 -0.1)">
      <use xlink:href="#DejaVuSans-84"/>
      <use x="60.865234" xlink:href="#DejaVuSans-114"/>
      <use x="101.978516" xlink:href="#DejaVuSans-117"/>
      <use x="165.357422" xlink:href="#DejaVuSans-101"/>
      <use x="226.880859" xlink:href="#DejaVuSans-32"/>
      <use x="258.667969" xlink:href="#DejaVuSans-80"/>
      <use x="318.923828" xlink:href="#DejaVuSans-111"/>
      <use x="380.105469" xlink:href="#DejaVuSans-115"/>
      <use x="432.205078" xlink:href="#DejaVuSans-105"/>
      <use x="459.988281" xlink:href="#DejaVuSans-116"/>
      <use x="499.197266" xlink:href="#DejaVuSans-105"/>
      <use x="526.980469" xlink:href="#DejaVuSans-118"/>
      <use x="586.160156" xlink:href="#DejaVuSans-101"/>
      <use x="647.683594" xlink:href="#DejaVuSans-32"/>
      <use x="679.470703" xlink:href="#DejaVuSans-82"/>
      <use x="748.921875" xlink:href="#DejaVuSans-97"/>
      <use x="810.201172" xlink:href="#DejaVuSans-116"/>
      <use x="849.410156" xlink:href="#DejaVuSans-101"/>
     </g>
    </g>
   </g>
   <g id="line2d_25">
    <path clip-path="url(#p01364cfb83)" d="M 57.6 307.584 
L 57.6 54.144 
L 414.72 54.144 
L 414.72 54.144 
" style="fill:none;stroke:#ff1493;stroke-dasharray:2,3.3;stroke-dashoffset:0;stroke-width:2;"/>
   </g>
   <g id="line2d_26">
    <path clip-path="url(#p01364cfb83)" d="M 57.6 54.144 
L 414.72 54.144 
L 414.72 54.144 
" style="fill:none;stroke:#000080;stroke-dasharray:2,3.3;stroke-dashoffset:0;stroke-width:2;"/>
   </g>
   <g id="line2d_27">
    <path clip-path="url(#p01364cfb83)" d="M 57.6 307.584 
L 57.6 303.624 
L 57.6 279.864 
L 57.6 271.944 
L 57.6 267.984 
L 57.6 260.064 
L 57.6 236.304 
L 57.6 228.384 
L 57.6 54.144 
L 70.281818 54.144 
L 71.296364 54.144 
L 91.587273 54.144 
L 92.601818 54.144 
L 94.630909 54.144 
L 95.645455 54.144 
L 103.761818 54.144 
L 105.283636 54.144 
L 108.327273 54.144 
L 110.356364 54.144 
L 115.936364 54.144 
L 117.965455 54.144 
L 121.009091 54.144 
L 122.023636 54.144 
L 122.530909 54.144 
L 123.545455 54.144 
L 128.110909 54.144 
L 129.125455 54.144 
L 138.763636 54.144 
L 146.372727 54.144 
L 147.387273 54.144 
L 148.909091 54.144 
L 156.518182 54.144 
L 162.605455 54.144 
L 173.258182 54.144 
L 181.374545 54.144 
L 185.432727 54.144 
L 186.447273 54.144 
L 188.983636 54.144 
L 202.172727 54.144 
L 208.767273 54.144 
L 209.781818 54.144 
L 214.347273 54.144 
L 215.361818 54.144 
L 218.405455 54.144 
L 220.434545 54.144 
L 221.449091 54.144 
L 241.74 54.144 
L 246.812727 54.144 
L 247.827273 54.144 
L 249.349091 54.144 
L 251.378182 54.144 
L 252.9 54.144 
L 254.421818 54.144 
L 255.943636 54.144 
L 277.756364 54.144 
L 281.307273 54.144 
L 282.321818 54.144 
L 282.829091 54.144 
L 284.858182 54.144 
L 287.394545 54.144 
L 288.409091 54.144 
L 289.930909 54.144 
L 291.452727 54.144 
L 292.467273 54.144 
L 294.496364 54.144 
L 329.498182 54.144 
L 331.02 54.144 
L 332.541818 54.144 
L 333.556364 54.144 
L 334.063636 54.144 
L 335.078182 54.144 
L 335.585455 54.144 
L 336.6 54.144 
L 338.121818 54.144 
L 340.150909 54.144 
L 341.672727 54.144 
L 342.687273 54.144 
L 344.209091 54.144 
L 344.716364 54.144 
L 345.730909 54.144 
L 414.72 54.144 
" style="fill:none;stroke:#a6cee3;stroke-linecap:square;stroke-width:2;"/>
   </g>
   <g id="line2d_28">
    <path clip-path="url(#p01364cfb83)" d="M 57.6 307.584 
L 57.6 303.624 
L 57.6 295.704 
L 57.6 287.784 
L 57.6 54.144 
L 66.223636 54.144 
L 67.238182 54.144 
L 68.252727 54.144 
L 69.774545 54.144 
L 71.803636 54.144 
L 72.818182 54.144 
L 75.861818 54.144 
L 77.890909 54.144 
L 90.065455 54.144 
L 91.08 54.144 
L 94.123636 54.144 
L 95.645455 54.144 
L 98.689091 54.144 
L 99.703636 54.144 
L 102.747273 54.144 
L 103.761818 54.144 
L 104.776364 54.144 
L 108.327273 54.144 
L 112.892727 54.144 
L 116.443636 54.144 
L 119.994545 54.144 
L 121.516364 54.144 
L 124.052727 54.144 
L 126.081818 54.144 
L 132.169091 54.144 
L 137.749091 54.144 
L 143.329091 54.144 
L 144.343636 54.144 
L 146.88 54.144 
L 147.894545 54.144 
L 148.909091 54.144 
L 151.445455 54.144 
L 156.010909 54.144 
L 157.025455 54.144 
L 159.561818 54.144 
L 160.576364 54.144 
L 162.098182 54.144 
L 165.649091 54.144 
L 171.736364 54.144 
L 172.750909 54.144 
L 173.765455 54.144 
L 174.78 54.144 
L 176.301818 54.144 
L 177.316364 54.144 
L 182.389091 54.144 
L 187.461818 54.144 
L 188.476364 54.144 
L 194.056364 54.144 
L 200.650909 54.144 
L 211.303636 54.144 
L 212.318182 54.144 
L 212.825455 54.144 
L 213.84 54.144 
L 214.347273 54.144 
L 215.361818 54.144 
L 216.376364 54.144 
L 229.565455 54.144 
L 233.623636 54.144 
L 234.638182 54.144 
L 236.16 54.144 
L 237.174545 54.144 
L 238.189091 54.144 
L 239.203636 54.144 
L 240.218182 54.144 
L 240.725455 54.144 
L 242.247273 54.144 
L 242.754545 54.144 
L 267.610909 54.144 
L 271.161818 54.144 
L 272.176364 54.144 
L 275.22 54.144 
L 276.234545 54.144 
L 277.756364 54.144 
L 278.770909 54.144 
L 280.292727 54.144 
L 280.8 54.144 
L 284.350909 54.144 
L 414.72 54.144 
" style="fill:none;stroke:#1f78b4;stroke-linecap:square;stroke-width:2;"/>
   </g>
   <g id="line2d_29">
    <path clip-path="url(#p01364cfb83)" d="M 57.6 307.584 
L 57.6 303.624 
L 57.6 287.784 
L 57.6 279.864 
L 57.6 54.144 
L 73.832727 54.144 
L 74.847273 54.144 
L 78.905455 54.144 
L 79.92 54.144 
L 93.616364 54.144 
L 94.630909 54.144 
L 108.327273 54.144 
L 109.849091 54.144 
L 112.892727 54.144 
L 113.907273 54.144 
L 117.965455 54.144 
L 118.98 54.144 
L 122.023636 54.144 
L 123.038182 54.144 
L 128.110909 54.144 
L 129.632727 54.144 
L 138.763636 54.144 
L 139.778182 54.144 
L 141.807273 54.144 
L 142.821818 54.144 
L 153.474545 54.144 
L 154.489091 54.144 
L 160.069091 54.144 
L 162.605455 54.144 
L 167.170909 54.144 
L 169.707273 54.144 
L 175.794545 54.144 
L 176.809091 54.144 
L 178.330909 54.144 
L 179.345455 54.144 
L 182.389091 54.144 
L 184.418182 54.144 
L 185.432727 54.144 
L 192.027273 54.144 
L 197.607273 54.144 
L 199.129091 54.144 
L 200.143636 54.144 
L 205.723636 54.144 
L 206.738182 54.144 
L 210.796364 54.144 
L 217.390909 54.144 
L 218.405455 54.144 
L 218.912727 54.144 
L 226.014545 54.144 
L 227.029091 54.144 
L 228.550909 54.144 
L 229.058182 54.144 
L 230.072727 54.144 
L 231.594545 54.144 
L 232.609091 54.144 
L 233.116364 54.144 
L 235.145455 54.144 
L 236.667273 54.144 
L 238.189091 54.144 
L 250.363636 54.144 
L 254.421818 54.144 
L 255.943636 54.144 
L 256.958182 54.144 
L 259.494545 54.144 
L 262.030909 54.144 
L 262.538182 54.144 
L 294.496364 54.144 
L 298.047273 54.144 
L 298.554545 54.144 
L 299.569091 54.144 
L 300.583636 54.144 
L 301.598182 54.144 
L 304.641818 54.144 
L 305.149091 54.144 
L 306.163636 54.144 
L 307.685455 54.144 
L 414.72 54.144 
" style="fill:none;stroke:#b2df8a;stroke-linecap:square;stroke-width:2;"/>
   </g>
   <g id="line2d_30">
    <path clip-path="url(#p01364cfb83)" d="M 57.6 307.584 
L 57.6 303.624 
L 57.6 295.704 
L 57.6 291.744 
L 57.6 283.824 
L 57.6 279.864 
L 57.6 267.984 
L 57.6 260.064 
L 57.6 248.184 
L 57.6 228.384 
L 57.6 212.544 
L 57.6 188.784 
L 57.6 172.944 
L 57.6 101.664 
L 57.6 93.744 
L 57.6 54.144 
L 61.150909 54.144 
L 62.165455 54.144 
L 62.672727 54.144 
L 63.687273 54.144 
L 64.194545 54.144 
L 65.209091 54.144 
L 66.730909 54.144 
L 67.238182 54.144 
L 68.76 54.144 
L 69.267273 54.144 
L 70.281818 54.144 
L 71.803636 54.144 
L 72.310909 54.144 
L 73.832727 54.144 
L 74.847273 54.144 
L 76.369091 54.144 
L 77.890909 54.144 
L 79.412727 54.144 
L 80.934545 54.144 
L 83.470909 54.144 
L 84.485455 54.144 
L 86.514545 54.144 
L 90.065455 54.144 
L 90.572727 54.144 
L 92.601818 54.144 
L 93.109091 54.144 
L 96.152727 54.144 
L 96.66 54.144 
L 100.718182 54.144 
L 102.747273 54.144 
L 105.790909 54.144 
L 108.327273 54.144 
L 114.921818 54.144 
L 115.429091 54.144 
L 116.443636 54.144 
L 127.603636 54.144 
L 129.125455 54.144 
L 131.154545 54.144 
L 144.343636 54.144 
L 146.88 54.144 
L 147.894545 54.144 
L 159.561818 54.144 
L 161.083636 54.144 
L 162.605455 54.144 
L 163.62 54.144 
L 164.127273 54.144 
L 191.012727 54.144 
L 192.534545 54.144 
L 197.607273 54.144 
L 257.972727 54.144 
L 258.48 54.144 
L 260.509091 54.144 
L 262.030909 54.144 
L 262.538182 54.144 
L 263.552727 54.144 
L 266.089091 54.144 
L 268.118182 54.144 
L 269.132727 54.144 
L 274.205455 54.144 
L 414.72 54.144 
" style="fill:none;stroke:#33a02c;stroke-linecap:square;stroke-width:2;"/>
   </g>
   <g id="line2d_31">
    <path clip-path="url(#p01364cfb83)" d="M 57.6 307.584 
L 57.6 267.984 
L 57.6 228.384 
L 57.6 192.744 
L 57.6 184.824 
L 57.6 168.984 
L 57.6 149.184 
L 57.6 141.264 
L 57.6 129.384 
L 57.6 121.464 
L 57.6 117.504 
L 57.6 109.584 
L 57.6 101.664 
L 57.6 89.784 
L 57.6 73.944 
L 57.6 54.144 
L 61.150909 54.144 
L 62.672727 54.144 
L 63.687273 54.144 
L 65.716364 54.144 
L 66.223636 54.144 
L 67.238182 54.144 
L 68.76 54.144 
L 70.789091 54.144 
L 72.310909 54.144 
L 76.876364 54.144 
L 81.949091 54.144 
L 82.963636 54.144 
L 87.529091 54.144 
L 88.543636 54.144 
L 95.138182 54.144 
L 96.152727 54.144 
L 96.66 54.144 
L 101.732727 54.144 
L 131.154545 54.144 
L 133.183636 54.144 
L 134.705455 54.144 
L 135.212727 54.144 
L 138.256364 54.144 
L 157.532727 54.144 
L 414.72 54.144 
" style="fill:none;stroke:#fb9a99;stroke-linecap:square;stroke-width:2;"/>
   </g>
   <g id="line2d_32">
    <path clip-path="url(#p01364cfb83)" d="M 57.6 307.584 
L 57.6 303.624 
L 57.6 54.144 
L 77.383636 54.144 
L 78.398182 54.144 
L 87.529091 54.144 
L 88.543636 54.144 
L 132.169091 54.144 
L 133.183636 54.144 
L 134.705455 54.144 
L 135.72 54.144 
L 149.416364 54.144 
L 151.445455 54.144 
L 159.561818 54.144 
L 161.590909 54.144 
L 170.214545 54.144 
L 172.243636 54.144 
L 181.374545 54.144 
L 182.389091 54.144 
L 186.954545 54.144 
L 189.490909 54.144 
L 195.578182 54.144 
L 197.607273 54.144 
L 198.621818 54.144 
L 201.665455 54.144 
L 209.274545 54.144 
L 212.318182 54.144 
L 218.405455 54.144 
L 222.463636 54.144 
L 228.550909 54.144 
L 233.116364 54.144 
L 239.203636 54.144 
L 240.218182 54.144 
L 240.725455 54.144 
L 246.812727 54.144 
L 248.841818 54.144 
L 249.856364 54.144 
L 254.421818 54.144 
L 255.436364 54.144 
L 257.465455 54.144 
L 270.654545 54.144 
L 272.176364 54.144 
L 273.190909 54.144 
L 277.249091 54.144 
L 278.263636 54.144 
L 279.278182 54.144 
L 300.076364 54.144 
L 302.105455 54.144 
L 303.627273 54.144 
L 305.656364 54.144 
L 307.178182 54.144 
L 309.714545 54.144 
L 310.729091 54.144 
L 312.250909 54.144 
L 344.716364 54.144 
L 346.238182 54.144 
L 347.252727 54.144 
L 349.281818 54.144 
L 350.296364 54.144 
L 350.803636 54.144 
L 352.832727 54.144 
L 414.72 54.144 
" style="fill:none;stroke:#e31a1c;stroke-linecap:square;stroke-width:2;"/>
   </g>
   <g id="line2d_33">
    <path clip-path="url(#p01364cfb83)" d="M 57.6 307.584 
L 57.6 303.624 
L 57.6 54.144 
L 101.225455 54.144 
L 102.24 54.144 
L 109.849091 54.144 
L 111.878182 54.144 
L 113.907273 54.144 
L 115.936364 54.144 
L 118.472727 54.144 
L 119.994545 54.144 
L 128.618182 54.144 
L 129.632727 54.144 
L 131.154545 54.144 
L 134.198182 54.144 
L 136.734545 54.144 
L 138.763636 54.144 
L 140.792727 54.144 
L 141.807273 54.144 
L 142.314545 54.144 
L 145.865455 54.144 
L 150.430909 54.144 
L 151.445455 54.144 
L 151.952727 54.144 
L 155.503636 54.144 
L 161.083636 54.144 
L 162.098182 54.144 
L 162.605455 54.144 
L 163.62 54.144 
L 165.649091 54.144 
L 168.185455 54.144 
L 169.2 54.144 
L 175.794545 54.144 
L 179.852727 54.144 
L 186.954545 54.144 
L 187.969091 54.144 
L 188.476364 54.144 
L 192.027273 54.144 
L 206.230909 54.144 
L 212.825455 54.144 
L 213.84 54.144 
L 217.390909 54.144 
L 218.912727 54.144 
L 219.42 54.144 
L 232.101818 54.144 
L 244.276364 54.144 
L 246.305455 54.144 
L 272.683636 54.144 
L 273.190909 54.144 
L 275.22 54.144 
L 276.741818 54.144 
L 277.756364 54.144 
L 279.278182 54.144 
L 280.292727 54.144 
L 280.8 54.144 
L 286.887273 54.144 
L 287.901818 54.144 
L 288.409091 54.144 
L 289.930909 54.144 
L 290.945455 54.144 
L 295.003636 54.144 
L 414.72 54.144 
" style="fill:none;stroke:#fdbf6f;stroke-linecap:square;stroke-width:2;"/>
   </g>
   <g id="line2d_34">
    <path clip-path="url(#p01364cfb83)" d="M 57.6 307.584 
L 57.6 303.624 
L 57.6 54.144 
L 91.08 54.144 
L 92.094545 54.144 
L 103.254545 54.144 
L 104.269091 54.144 
L 114.414545 54.144 
L 115.429091 54.144 
L 119.487273 54.144 
L 121.009091 54.144 
L 126.081818 54.144 
L 127.096364 54.144 
L 131.154545 54.144 
L 132.676364 54.144 
L 139.778182 54.144 
L 142.314545 54.144 
L 145.865455 54.144 
L 147.894545 54.144 
L 149.416364 54.144 
L 151.445455 54.144 
L 152.46 54.144 
L 173.258182 54.144 
L 174.272727 54.144 
L 177.823636 54.144 
L 178.330909 54.144 
L 179.345455 54.144 
L 181.374545 54.144 
L 182.389091 54.144 
L 189.490909 54.144 
L 193.549091 54.144 
L 197.607273 54.144 
L 198.621818 54.144 
L 203.694545 54.144 
L 204.709091 54.144 
L 211.810909 54.144 
L 217.390909 54.144 
L 219.42 54.144 
L 220.434545 54.144 
L 221.449091 54.144 
L 221.956364 54.144 
L 222.970909 54.144 
L 224.492727 54.144 
L 225.507273 54.144 
L 228.043636 54.144 
L 229.058182 54.144 
L 237.174545 54.144 
L 240.218182 54.144 
L 241.232727 54.144 
L 242.247273 54.144 
L 243.261818 54.144 
L 244.783636 54.144 
L 245.798182 54.144 
L 247.827273 54.144 
L 249.349091 54.144 
L 250.870909 54.144 
L 252.9 54.144 
L 254.421818 54.144 
L 279.785455 54.144 
L 281.814545 54.144 
L 282.829091 54.144 
L 283.843636 54.144 
L 284.858182 54.144 
L 286.38 54.144 
L 288.409091 54.144 
L 291.452727 54.144 
L 291.96 54.144 
L 292.974545 54.144 
L 295.003636 54.144 
L 295.510909 54.144 
L 296.525455 54.144 
L 297.032727 54.144 
L 414.72 54.144 
" style="fill:none;stroke:#ff7f00;stroke-linecap:square;stroke-width:2;"/>
   </g>
   <g id="line2d_35">
    <path clip-path="url(#p01364cfb83)" d="M 57.6 307.584 
L 57.6 295.704 
L 57.6 287.784 
L 57.6 264.024 
L 57.6 248.184 
L 57.6 224.424 
L 57.6 212.544 
L 57.6 204.624 
L 57.6 188.784 
L 57.6 180.864 
L 57.6 54.144 
L 68.76 54.144 
L 69.774545 54.144 
L 75.861818 54.144 
L 76.876364 54.144 
L 77.890909 54.144 
L 78.905455 54.144 
L 79.412727 54.144 
L 80.934545 54.144 
L 84.485455 54.144 
L 86.007273 54.144 
L 88.036364 54.144 
L 89.050909 54.144 
L 91.08 54.144 
L 92.094545 54.144 
L 97.167273 54.144 
L 99.196364 54.144 
L 102.747273 54.144 
L 104.776364 54.144 
L 108.834545 54.144 
L 111.878182 54.144 
L 117.458182 54.144 
L 119.994545 54.144 
L 125.574545 54.144 
L 130.14 54.144 
L 134.705455 54.144 
L 135.72 54.144 
L 136.734545 54.144 
L 137.749091 54.144 
L 138.763636 54.144 
L 146.88 54.144 
L 151.445455 54.144 
L 152.46 54.144 
L 153.474545 54.144 
L 154.489091 54.144 
L 156.010909 54.144 
L 157.025455 54.144 
L 158.04 54.144 
L 173.258182 54.144 
L 175.287273 54.144 
L 176.301818 54.144 
L 177.316364 54.144 
L 178.330909 54.144 
L 179.852727 54.144 
L 180.867273 54.144 
L 181.881818 54.144 
L 183.403636 54.144 
L 187.461818 54.144 
L 188.476364 54.144 
L 233.623636 54.144 
L 235.652727 54.144 
L 237.174545 54.144 
L 239.203636 54.144 
L 240.725455 54.144 
L 241.74 54.144 
L 242.754545 54.144 
L 248.841818 54.144 
L 249.856364 54.144 
L 250.870909 54.144 
L 254.929091 54.144 
L 262.538182 54.144 
L 263.045455 54.144 
L 414.72 54.144 
" style="fill:none;stroke:#cab2d6;stroke-linecap:square;stroke-width:2;"/>
   </g>
   <g id="line2d_36">
    <path clip-path="url(#p01364cfb83)" d="M 57.6 307.584 
L 57.6 303.624 
L 57.6 248.184 
L 57.6 240.264 
L 57.6 54.144 
L 70.789091 54.144 
L 71.803636 54.144 
L 79.412727 54.144 
L 80.427273 54.144 
L 82.456364 54.144 
L 83.470909 54.144 
L 87.529091 54.144 
L 88.543636 54.144 
L 92.094545 54.144 
L 93.109091 54.144 
L 94.630909 54.144 
L 97.167273 54.144 
L 99.703636 54.144 
L 101.732727 54.144 
L 110.356364 54.144 
L 111.878182 54.144 
L 114.921818 54.144 
L 116.443636 54.144 
L 120.501818 54.144 
L 122.530909 54.144 
L 125.574545 54.144 
L 128.110909 54.144 
L 130.14 54.144 
L 131.154545 54.144 
L 133.690909 54.144 
L 134.705455 54.144 
L 136.227273 54.144 
L 138.763636 54.144 
L 143.836364 54.144 
L 146.372727 54.144 
L 149.923636 54.144 
L 150.938182 54.144 
L 151.445455 54.144 
L 152.967273 54.144 
L 156.010909 54.144 
L 157.025455 54.144 
L 158.04 54.144 
L 159.054545 54.144 
L 160.576364 54.144 
L 164.634545 54.144 
L 168.185455 54.144 
L 169.707273 54.144 
L 172.243636 54.144 
L 179.345455 54.144 
L 179.852727 54.144 
L 180.867273 54.144 
L 186.447273 54.144 
L 195.578182 54.144 
L 201.158182 54.144 
L 202.172727 54.144 
L 205.723636 54.144 
L 206.738182 54.144 
L 211.303636 54.144 
L 227.029091 54.144 
L 229.565455 54.144 
L 232.609091 54.144 
L 235.145455 54.144 
L 236.16 54.144 
L 236.667273 54.144 
L 237.681818 54.144 
L 238.189091 54.144 
L 239.203636 54.144 
L 241.232727 54.144 
L 261.016364 54.144 
L 263.045455 54.144 
L 265.074545 54.144 
L 267.103636 54.144 
L 268.118182 54.144 
L 269.64 54.144 
L 270.654545 54.144 
L 273.190909 54.144 
L 274.205455 54.144 
L 276.234545 54.144 
L 277.249091 54.144 
L 278.770909 54.144 
L 280.8 54.144 
L 318.845455 54.144 
L 320.367273 54.144 
L 321.381818 54.144 
L 323.918182 54.144 
L 326.454545 54.144 
L 327.469091 54.144 
L 329.498182 54.144 
L 330.512727 54.144 
L 331.02 54.144 
L 332.541818 54.144 
L 333.556364 54.144 
L 334.063636 54.144 
L 414.72 54.144 
" style="fill:none;stroke:#6a3d9a;stroke-linecap:square;stroke-width:2;"/>
   </g>
   <g id="line2d_37">
    <path clip-path="url(#p01364cfb83)" d="M 57.6 307.584 
L 57.6 299.664 
L 57.6 279.864 
L 57.6 267.984 
L 57.6 252.144 
L 57.6 244.224 
L 57.6 240.264 
L 57.6 232.344 
L 57.6 228.384 
L 57.6 216.504 
L 57.6 212.544 
L 57.6 204.624 
L 57.6 54.144 
L 63.18 54.144 
L 64.194545 54.144 
L 66.223636 54.144 
L 67.238182 54.144 
L 70.789091 54.144 
L 72.310909 54.144 
L 72.818182 54.144 
L 73.832727 54.144 
L 75.861818 54.144 
L 77.383636 54.144 
L 78.905455 54.144 
L 80.427273 54.144 
L 80.934545 54.144 
L 81.949091 54.144 
L 84.485455 54.144 
L 86.514545 54.144 
L 90.065455 54.144 
L 91.587273 54.144 
L 100.210909 54.144 
L 103.254545 54.144 
L 105.790909 54.144 
L 108.327273 54.144 
L 110.863636 54.144 
L 117.458182 54.144 
L 124.56 54.144 
L 135.212727 54.144 
L 140.792727 54.144 
L 150.430909 54.144 
L 152.967273 54.144 
L 153.981818 54.144 
L 154.996364 54.144 
L 173.765455 54.144 
L 178.838182 54.144 
L 179.852727 54.144 
L 180.867273 54.144 
L 181.881818 54.144 
L 183.403636 54.144 
L 185.432727 54.144 
L 185.94 54.144 
L 207.245455 54.144 
L 209.274545 54.144 
L 210.289091 54.144 
L 211.810909 54.144 
L 212.825455 54.144 
L 213.332727 54.144 
L 215.361818 54.144 
L 216.883636 54.144 
L 217.390909 54.144 
L 218.405455 54.144 
L 262.538182 54.144 
L 264.567273 54.144 
L 266.089091 54.144 
L 267.103636 54.144 
L 268.118182 54.144 
L 268.625455 54.144 
L 270.654545 54.144 
L 272.683636 54.144 
L 275.22 54.144 
L 276.234545 54.144 
L 279.278182 54.144 
L 280.292727 54.144 
L 414.72 54.144 
" style="fill:none;stroke:#ffff99;stroke-linecap:square;stroke-width:2;"/>
   </g>
   <g id="line2d_38">
    <path clip-path="url(#p01364cfb83)" d="M 57.6 307.584 
L 57.6 303.624 
L 57.6 54.144 
L 69.267273 54.144 
L 70.281818 54.144 
L 96.66 54.144 
L 97.674545 54.144 
L 107.82 54.144 
L 108.834545 54.144 
L 122.023636 54.144 
L 123.038182 54.144 
L 126.589091 54.144 
L 127.603636 54.144 
L 130.14 54.144 
L 131.154545 54.144 
L 133.690909 54.144 
L 135.212727 54.144 
L 142.314545 54.144 
L 143.836364 54.144 
L 160.069091 54.144 
L 163.112727 54.144 
L 167.678182 54.144 
L 168.692727 54.144 
L 169.2 54.144 
L 170.214545 54.144 
L 176.301818 54.144 
L 177.316364 54.144 
L 178.838182 54.144 
L 180.36 54.144 
L 185.432727 54.144 
L 186.447273 54.144 
L 188.983636 54.144 
L 189.998182 54.144 
L 192.027273 54.144 
L 195.070909 54.144 
L 201.665455 54.144 
L 202.68 54.144 
L 206.230909 54.144 
L 212.825455 54.144 
L 221.956364 54.144 
L 227.536364 54.144 
L 229.058182 54.144 
L 230.072727 54.144 
L 235.145455 54.144 
L 240.725455 54.144 
L 243.261818 54.144 
L 244.276364 54.144 
L 251.885455 54.144 
L 263.552727 54.144 
L 267.610909 54.144 
L 268.625455 54.144 
L 269.132727 54.144 
L 270.147273 54.144 
L 271.669091 54.144 
L 273.698182 54.144 
L 275.22 54.144 
L 276.234545 54.144 
L 279.278182 54.144 
L 280.292727 54.144 
L 314.28 54.144 
L 314.787273 54.144 
L 315.801818 54.144 
L 321.381818 54.144 
L 322.396364 54.144 
L 324.932727 54.144 
L 325.947273 54.144 
L 326.454545 54.144 
L 327.469091 54.144 
L 331.02 54.144 
L 332.034545 54.144 
L 338.121818 54.144 
L 414.72 54.144 
" style="fill:none;stroke:#b15928;stroke-linecap:square;stroke-width:2;"/>
   </g>
   <g id="line2d_39">
    <path clip-path="url(#p01364cfb83)" d="M 57.6 307.584 
L 414.72 54.144 
" style="fill:none;stroke:#000000;stroke-dasharray:7.4,3.2;stroke-dashoffset:0;stroke-width:2;"/>
   </g>
   <g id="patch_3">
    <path d="M 57.6 307.584 
L 57.6 41.472 
" style="fill:none;stroke:#000000;stroke-linecap:square;stroke-linejoin:miter;stroke-width:0.8;"/>
   </g>
   <g id="patch_4">
    <path d="M 414.72 307.584 
L 414.72 41.472 
" style="fill:none;stroke:#000000;stroke-linecap:square;stroke-linejoin:miter;stroke-width:0.8;"/>
   </g>
   <g id="patch_5">
    <path d="M 57.6 307.584 
L 414.72 307.584 
" style="fill:none;stroke:#000000;stroke-linecap:square;stroke-linejoin:miter;stroke-width:0.8;"/>
   </g>
   <g id="patch_6">
    <path d="M 57.6 41.472 
L 414.72 41.472 
" style="fill:none;stroke:#000000;stroke-linecap:square;stroke-linejoin:miter;stroke-width:0.8;"/>
   </g>
   <g id="legend_1">
    <g id="patch_7">
     <path d="M 241.31 303.584 
L 409.12 303.584 
Q 410.72 303.584 410.72 301.984 
L 410.72 136.3865 
Q 410.72 134.7865 409.12 134.7865 
L 241.31 134.7865 
Q 239.71 134.7865 239.71 136.3865 
L 239.71 301.984 
Q 239.71 303.584 241.31 303.584 
z
" style="fill:#ffffff;opacity:0.8;stroke:#cccccc;stroke-linejoin:miter;"/>
    </g>
    <g id="line2d_40">
     <path d="M 242.91 141.26525 
L 258.91 141.26525 
" style="fill:none;stroke:#ff1493;stroke-dasharray:2,3.3;stroke-dashoffset:0;stroke-width:2;"/>
    </g>
    <g id="line2d_41"/>
    <g id="text_15">
     <!-- micro_average (area = 1.00) -->
     <defs>
      <path d="M 52 44.1875 
Q 55.375 50.25 60.0625 53.125 
Q 64.75 56 71.09375 56 
Q 79.640625 56 84.28125 50.015625 
Q 88.921875 44.046875 88.921875 33.015625 
L 88.921875 0 
L 79.890625 0 
L 79.890625 32.71875 
Q 79.890625 40.578125 77.09375 44.375 
Q 74.3125 48.1875 68.609375 48.1875 
Q 61.625 48.1875 57.5625 43.546875 
Q 53.515625 38.921875 53.515625 30.90625 
L 53.515625 0 
L 44.484375 0 
L 44.484375 32.71875 
Q 44.484375 40.625 41.703125 44.40625 
Q 38.921875 48.1875 33.109375 48.1875 
Q 26.21875 48.1875 22.15625 43.53125 
Q 18.109375 38.875 18.109375 30.90625 
L 18.109375 0 
L 9.078125 0 
L 9.078125 54.6875 
L 18.109375 54.6875 
L 18.109375 46.1875 
Q 21.1875 51.21875 25.484375 53.609375 
Q 29.78125 56 35.6875 56 
Q 41.65625 56 45.828125 52.96875 
Q 50 49.953125 52 44.1875 
z
" id="DejaVuSans-109"/>
      <path d="M 48.78125 52.59375 
L 48.78125 44.1875 
Q 44.96875 46.296875 41.140625 47.34375 
Q 37.3125 48.390625 33.40625 48.390625 
Q 24.65625 48.390625 19.8125 42.84375 
Q 14.984375 37.3125 14.984375 27.296875 
Q 14.984375 17.28125 19.8125 11.734375 
Q 24.65625 6.203125 33.40625 6.203125 
Q 37.3125 6.203125 41.140625 7.25 
Q 44.96875 8.296875 48.78125 10.40625 
L 48.78125 2.09375 
Q 45.015625 0.34375 40.984375 -0.53125 
Q 36.96875 -1.421875 32.421875 -1.421875 
Q 20.0625 -1.421875 12.78125 6.34375 
Q 5.515625 14.109375 5.515625 27.296875 
Q 5.515625 40.671875 12.859375 48.328125 
Q 20.21875 56 33.015625 56 
Q 37.15625 56 41.109375 55.140625 
Q 45.0625 54.296875 48.78125 52.59375 
z
" id="DejaVuSans-99"/>
      <path d="M 50.984375 -16.609375 
L 50.984375 -23.578125 
L -0.984375 -23.578125 
L -0.984375 -16.609375 
z
" id="DejaVuSans-95"/>
      <path d="M 45.40625 27.984375 
Q 45.40625 37.75 41.375 43.109375 
Q 37.359375 48.484375 30.078125 48.484375 
Q 22.859375 48.484375 18.828125 43.109375 
Q 14.796875 37.75 14.796875 27.984375 
Q 14.796875 18.265625 18.828125 12.890625 
Q 22.859375 7.515625 30.078125 7.515625 
Q 37.359375 7.515625 41.375 12.890625 
Q 45.40625 18.265625 45.40625 27.984375 
z
M 54.390625 6.78125 
Q 54.390625 -7.171875 48.1875 -13.984375 
Q 42 -20.796875 29.203125 -20.796875 
Q 24.46875 -20.796875 20.265625 -20.09375 
Q 16.0625 -19.390625 12.109375 -17.921875 
L 12.109375 -9.1875 
Q 16.0625 -11.328125 19.921875 -12.34375 
Q 23.78125 -13.375 27.78125 -13.375 
Q 36.625 -13.375 41.015625 -8.765625 
Q 45.40625 -4.15625 45.40625 5.171875 
L 45.40625 9.625 
Q 42.625 4.78125 38.28125 2.390625 
Q 33.9375 0 27.875 0 
Q 17.828125 0 11.671875 7.65625 
Q 5.515625 15.328125 5.515625 27.984375 
Q 5.515625 40.671875 11.671875 48.328125 
Q 17.828125 56 27.875 56 
Q 33.9375 56 38.28125 53.609375 
Q 42.625 51.21875 45.40625 46.390625 
L 45.40625 54.6875 
L 54.390625 54.6875 
z
" id="DejaVuSans-103"/>
      <path d="M 31 75.875 
Q 24.46875 64.65625 21.28125 53.65625 
Q 18.109375 42.671875 18.109375 31.390625 
Q 18.109375 20.125 21.3125 9.0625 
Q 24.515625 -2 31 -13.1875 
L 23.1875 -13.1875 
Q 15.875 -1.703125 12.234375 9.375 
Q 8.59375 20.453125 8.59375 31.390625 
Q 8.59375 42.28125 12.203125 53.3125 
Q 15.828125 64.359375 23.1875 75.875 
z
" id="DejaVuSans-40"/>
      <path d="M 10.59375 45.40625 
L 73.1875 45.40625 
L 73.1875 37.203125 
L 10.59375 37.203125 
z
M 10.59375 25.484375 
L 73.1875 25.484375 
L 73.1875 17.1875 
L 10.59375 17.1875 
z
" id="DejaVuSans-61"/>
      <path d="M 8.015625 75.875 
L 15.828125 75.875 
Q 23.140625 64.359375 26.78125 53.3125 
Q 30.421875 42.28125 30.421875 31.390625 
Q 30.421875 20.453125 26.78125 9.375 
Q 23.140625 -1.703125 15.828125 -13.1875 
L 8.015625 -13.1875 
Q 14.5 -2 17.703125 9.0625 
Q 20.90625 20.125 20.90625 31.390625 
Q 20.90625 42.671875 17.703125 53.65625 
Q 14.5 64.65625 8.015625 75.875 
z
" id="DejaVuSans-41"/>
     </defs>
     <g transform="translate(265.31 144.06525)scale(0.08 -0.08)">
      <use xlink:href="#DejaVuSans-109"/>
      <use x="97.412109" xlink:href="#DejaVuSans-105"/>
      <use x="125.195312" xlink:href="#DejaVuSans-99"/>
      <use x="180.175781" xlink:href="#DejaVuSans-114"/>
      <use x="221.257812" xlink:href="#DejaVuSans-111"/>
      <use x="282.439453" xlink:href="#DejaVuSans-95"/>
      <use x="332.439453" xlink:href="#DejaVuSans-97"/>
      <use x="393.71875" xlink:href="#DejaVuSans-118"/>
      <use x="452.898438" xlink:href="#DejaVuSans-101"/>
      <use x="514.421875" xlink:href="#DejaVuSans-114"/>
      <use x="555.535156" xlink:href="#DejaVuSans-97"/>
      <use x="616.814453" xlink:href="#DejaVuSans-103"/>
      <use x="680.291016" xlink:href="#DejaVuSans-101"/>
      <use x="741.814453" xlink:href="#DejaVuSans-32"/>
      <use x="773.601562" xlink:href="#DejaVuSans-40"/>
      <use x="812.615234" xlink:href="#DejaVuSans-97"/>
      <use x="873.894531" xlink:href="#DejaVuSans-114"/>
      <use x="914.976562" xlink:href="#DejaVuSans-101"/>
      <use x="976.5" xlink:href="#DejaVuSans-97"/>
      <use x="1037.779297" xlink:href="#DejaVuSans-32"/>
      <use x="1069.566406" xlink:href="#DejaVuSans-61"/>
      <use x="1153.355469" xlink:href="#DejaVuSans-32"/>
      <use x="1185.142578" xlink:href="#DejaVuSans-49"/>
      <use x="1248.765625" xlink:href="#DejaVuSans-46"/>
      <use x="1280.552734" xlink:href="#DejaVuSans-48"/>
      <use x="1344.175781" xlink:href="#DejaVuSans-48"/>
      <use x="1407.798828" xlink:href="#DejaVuSans-41"/>
     </g>
    </g>
    <g id="line2d_42">
     <path d="M 242.91 153.23025 
L 258.91 153.23025 
" style="fill:none;stroke:#000080;stroke-dasharray:2,3.3;stroke-dashoffset:0;stroke-width:2;"/>
    </g>
    <g id="line2d_43"/>
    <g id="text_16">
     <!-- macro_average (area = 1.00) -->
     <g transform="translate(265.31 156.03025)scale(0.08 -0.08)">
      <use xlink:href="#DejaVuSans-109"/>
      <use x="97.412109" xlink:href="#DejaVuSans-97"/>
      <use x="158.691406" xlink:href="#DejaVuSans-99"/>
      <use x="213.671875" xlink:href="#DejaVuSans-114"/>
      <use x="254.753906" xlink:href="#DejaVuSans-111"/>
      <use x="315.935547" xlink:href="#DejaVuSans-95"/>
      <use x="365.935547" xlink:href="#DejaVuSans-97"/>
      <use x="427.214844" xlink:href="#DejaVuSans-118"/>
      <use x="486.394531" xlink:href="#DejaVuSans-101"/>
      <use x="547.917969" xlink:href="#DejaVuSans-114"/>
      <use x="589.03125" xlink:href="#DejaVuSans-97"/>
      <use x="650.310547" xlink:href="#DejaVuSans-103"/>
      <use x="713.787109" xlink:href="#DejaVuSans-101"/>
      <use x="775.310547" xlink:href="#DejaVuSans-32"/>
      <use x="807.097656" xlink:href="#DejaVuSans-40"/>
      <use x="846.111328" xlink:href="#DejaVuSans-97"/>
      <use x="907.390625" xlink:href="#DejaVuSans-114"/>
      <use x="948.472656" xlink:href="#DejaVuSans-101"/>
      <use x="1009.996094" xlink:href="#DejaVuSans-97"/>
      <use x="1071.275391" xlink:href="#DejaVuSans-32"/>
      <use x="1103.0625" xlink:href="#DejaVuSans-61"/>
      <use x="1186.851562" xlink:href="#DejaVuSans-32"/>
      <use x="1218.638672" xlink:href="#DejaVuSans-49"/>
      <use x="1282.261719" xlink:href="#DejaVuSans-46"/>
      <use x="1314.048828" xlink:href="#DejaVuSans-48"/>
      <use x="1377.671875" xlink:href="#DejaVuSans-48"/>
      <use x="1441.294922" xlink:href="#DejaVuSans-41"/>
     </g>
    </g>
    <g id="line2d_44">
     <path d="M 242.91 165.19525 
L 258.91 165.19525 
" style="fill:none;stroke:#a6cee3;stroke-linecap:square;stroke-width:2;"/>
    </g>
    <g id="line2d_45"/>
    <g id="text_17">
     <!--  Axilla (area = 1.00) -->
     <defs>
      <path d="M 34.1875 63.1875 
L 20.796875 26.90625 
L 47.609375 26.90625 
z
M 28.609375 72.90625 
L 39.796875 72.90625 
L 67.578125 0 
L 57.328125 0 
L 50.6875 18.703125 
L 17.828125 18.703125 
L 11.1875 0 
L 0.78125 0 
z
" id="DejaVuSans-65"/>
      <path d="M 54.890625 54.6875 
L 35.109375 28.078125 
L 55.90625 0 
L 45.3125 0 
L 29.390625 21.484375 
L 13.484375 0 
L 2.875 0 
L 24.125 28.609375 
L 4.6875 54.6875 
L 15.28125 54.6875 
L 29.78125 35.203125 
L 44.28125 54.6875 
z
" id="DejaVuSans-120"/>
     </defs>
     <g transform="translate(265.31 167.99525)scale(0.08 -0.08)">
      <use xlink:href="#DejaVuSans-32"/>
      <use x="31.787109" xlink:href="#DejaVuSans-65"/>
      <use x="100.195312" xlink:href="#DejaVuSans-120"/>
      <use x="159.375" xlink:href="#DejaVuSans-105"/>
      <use x="187.158203" xlink:href="#DejaVuSans-108"/>
      <use x="214.941406" xlink:href="#DejaVuSans-108"/>
      <use x="242.724609" xlink:href="#DejaVuSans-97"/>
      <use x="304.003906" xlink:href="#DejaVuSans-32"/>
      <use x="335.791016" xlink:href="#DejaVuSans-40"/>
      <use x="374.804688" xlink:href="#DejaVuSans-97"/>
      <use x="436.083984" xlink:href="#DejaVuSans-114"/>
      <use x="477.166016" xlink:href="#DejaVuSans-101"/>
      <use x="538.689453" xlink:href="#DejaVuSans-97"/>
      <use x="599.96875" xlink:href="#DejaVuSans-32"/>
      <use x="631.755859" xlink:href="#DejaVuSans-61"/>
      <use x="715.544922" xlink:href="#DejaVuSans-32"/>
      <use x="747.332031" xlink:href="#DejaVuSans-49"/>
      <use x="810.955078" xlink:href="#DejaVuSans-46"/>
      <use x="842.742188" xlink:href="#DejaVuSans-48"/>
      <use x="906.365234" xlink:href="#DejaVuSans-48"/>
      <use x="969.988281" xlink:href="#DejaVuSans-41"/>
     </g>
    </g>
    <g id="line2d_46">
     <path d="M 242.91 176.93775 
L 258.91 176.93775 
" style="fill:none;stroke:#1f78b4;stroke-linecap:square;stroke-width:2;"/>
    </g>
    <g id="line2d_47"/>
    <g id="text_18">
     <!--  External_Nose (area = 1.00) -->
     <defs>
      <path d="M 9.8125 72.90625 
L 55.90625 72.90625 
L 55.90625 64.59375 
L 19.671875 64.59375 
L 19.671875 43.015625 
L 54.390625 43.015625 
L 54.390625 34.71875 
L 19.671875 34.71875 
L 19.671875 8.296875 
L 56.78125 8.296875 
L 56.78125 0 
L 9.8125 0 
z
" id="DejaVuSans-69"/>
      <path d="M 54.890625 33.015625 
L 54.890625 0 
L 45.90625 0 
L 45.90625 32.71875 
Q 45.90625 40.484375 42.875 44.328125 
Q 39.84375 48.1875 33.796875 48.1875 
Q 26.515625 48.1875 22.3125 43.546875 
Q 18.109375 38.921875 18.109375 30.90625 
L 18.109375 0 
L 9.078125 0 
L 9.078125 54.6875 
L 18.109375 54.6875 
L 18.109375 46.1875 
Q 21.34375 51.125 25.703125 53.5625 
Q 30.078125 56 35.796875 56 
Q 45.21875 56 50.046875 50.171875 
Q 54.890625 44.34375 54.890625 33.015625 
z
" id="DejaVuSans-110"/>
      <path d="M 9.8125 72.90625 
L 23.09375 72.90625 
L 55.421875 11.921875 
L 55.421875 72.90625 
L 64.984375 72.90625 
L 64.984375 0 
L 51.703125 0 
L 19.390625 60.984375 
L 19.390625 0 
L 9.8125 0 
z
" id="DejaVuSans-78"/>
     </defs>
     <g transform="translate(265.31 179.73775)scale(0.08 -0.08)">
      <use xlink:href="#DejaVuSans-32"/>
      <use x="31.787109" xlink:href="#DejaVuSans-69"/>
      <use x="94.970703" xlink:href="#DejaVuSans-120"/>
      <use x="154.150391" xlink:href="#DejaVuSans-116"/>
      <use x="193.359375" xlink:href="#DejaVuSans-101"/>
      <use x="254.882812" xlink:href="#DejaVuSans-114"/>
      <use x="295.980469" xlink:href="#DejaVuSans-110"/>
      <use x="359.359375" xlink:href="#DejaVuSans-97"/>
      <use x="420.638672" xlink:href="#DejaVuSans-108"/>
      <use x="448.421875" xlink:href="#DejaVuSans-95"/>
      <use x="498.421875" xlink:href="#DejaVuSans-78"/>
      <use x="573.226562" xlink:href="#DejaVuSans-111"/>
      <use x="634.408203" xlink:href="#DejaVuSans-115"/>
      <use x="686.507812" xlink:href="#DejaVuSans-101"/>
      <use x="748.03125" xlink:href="#DejaVuSans-32"/>
      <use x="779.818359" xlink:href="#DejaVuSans-40"/>
      <use x="818.832031" xlink:href="#DejaVuSans-97"/>
      <use x="880.111328" xlink:href="#DejaVuSans-114"/>
      <use x="921.193359" xlink:href="#DejaVuSans-101"/>
      <use x="982.716797" xlink:href="#DejaVuSans-97"/>
      <use x="1043.996094" xlink:href="#DejaVuSans-32"/>
      <use x="1075.783203" xlink:href="#DejaVuSans-61"/>
      <use x="1159.572266" xlink:href="#DejaVuSans-32"/>
      <use x="1191.359375" xlink:href="#DejaVuSans-49"/>
      <use x="1254.982422" xlink:href="#DejaVuSans-46"/>
      <use x="1286.769531" xlink:href="#DejaVuSans-48"/>
      <use x="1350.392578" xlink:href="#DejaVuSans-48"/>
      <use x="1414.015625" xlink:href="#DejaVuSans-41"/>
     </g>
    </g>
    <g id="line2d_48">
     <path d="M 242.91 188.90275 
L 258.91 188.90275 
" style="fill:none;stroke:#b2df8a;stroke-linecap:square;stroke-width:2;"/>
    </g>
    <g id="line2d_49"/>
    <g id="text_19">
     <!--  Forehead (area = 1.00) -->
     <defs>
      <path d="M 54.890625 33.015625 
L 54.890625 0 
L 45.90625 0 
L 45.90625 32.71875 
Q 45.90625 40.484375 42.875 44.328125 
Q 39.84375 48.1875 33.796875 48.1875 
Q 26.515625 48.1875 22.3125 43.546875 
Q 18.109375 38.921875 18.109375 30.90625 
L 18.109375 0 
L 9.078125 0 
L 9.078125 75.984375 
L 18.109375 75.984375 
L 18.109375 46.1875 
Q 21.34375 51.125 25.703125 53.5625 
Q 30.078125 56 35.796875 56 
Q 45.21875 56 50.046875 50.171875 
Q 54.890625 44.34375 54.890625 33.015625 
z
" id="DejaVuSans-104"/>
      <path d="M 45.40625 46.390625 
L 45.40625 75.984375 
L 54.390625 75.984375 
L 54.390625 0 
L 45.40625 0 
L 45.40625 8.203125 
Q 42.578125 3.328125 38.25 0.953125 
Q 33.9375 -1.421875 27.875 -1.421875 
Q 17.96875 -1.421875 11.734375 6.484375 
Q 5.515625 14.40625 5.515625 27.296875 
Q 5.515625 40.1875 11.734375 48.09375 
Q 17.96875 56 27.875 56 
Q 33.9375 56 38.25 53.625 
Q 42.578125 51.265625 45.40625 46.390625 
z
M 14.796875 27.296875 
Q 14.796875 17.390625 18.875 11.75 
Q 22.953125 6.109375 30.078125 6.109375 
Q 37.203125 6.109375 41.296875 11.75 
Q 45.40625 17.390625 45.40625 27.296875 
Q 45.40625 37.203125 41.296875 42.84375 
Q 37.203125 48.484375 30.078125 48.484375 
Q 22.953125 48.484375 18.875 42.84375 
Q 14.796875 37.203125 14.796875 27.296875 
z
" id="DejaVuSans-100"/>
     </defs>
     <g transform="translate(265.31 191.70275)scale(0.08 -0.08)">
      <use xlink:href="#DejaVuSans-32"/>
      <use x="31.787109" xlink:href="#DejaVuSans-70"/>
      <use x="89.259766" xlink:href="#DejaVuSans-111"/>
      <use x="150.441406" xlink:href="#DejaVuSans-114"/>
      <use x="191.523438" xlink:href="#DejaVuSans-101"/>
      <use x="253.046875" xlink:href="#DejaVuSans-104"/>
      <use x="316.425781" xlink:href="#DejaVuSans-101"/>
      <use x="377.949219" xlink:href="#DejaVuSans-97"/>
      <use x="439.228516" xlink:href="#DejaVuSans-100"/>
      <use x="502.705078" xlink:href="#DejaVuSans-32"/>
      <use x="534.492188" xlink:href="#DejaVuSans-40"/>
      <use x="573.505859" xlink:href="#DejaVuSans-97"/>
      <use x="634.785156" xlink:href="#DejaVuSans-114"/>
      <use x="675.867188" xlink:href="#DejaVuSans-101"/>
      <use x="737.390625" xlink:href="#DejaVuSans-97"/>
      <use x="798.669922" xlink:href="#DejaVuSans-32"/>
      <use x="830.457031" xlink:href="#DejaVuSans-61"/>
      <use x="914.246094" xlink:href="#DejaVuSans-32"/>
      <use x="946.033203" xlink:href="#DejaVuSans-49"/>
      <use x="1009.65625" xlink:href="#DejaVuSans-46"/>
      <use x="1041.443359" xlink:href="#DejaVuSans-48"/>
      <use x="1105.066406" xlink:href="#DejaVuSans-48"/>
      <use x="1168.689453" xlink:href="#DejaVuSans-41"/>
     </g>
    </g>
    <g id="line2d_50">
     <path d="M 242.91 200.64525 
L 258.91 200.64525 
" style="fill:none;stroke:#33a02c;stroke-linecap:square;stroke-width:2;"/>
    </g>
    <g id="line2d_51"/>
    <g id="text_20">
     <!--  Glans_Penis (area = 1.00) -->
     <defs>
      <path d="M 59.515625 10.40625 
L 59.515625 29.984375 
L 43.40625 29.984375 
L 43.40625 38.09375 
L 69.28125 38.09375 
L 69.28125 6.78125 
Q 63.578125 2.734375 56.6875 0.65625 
Q 49.8125 -1.421875 42 -1.421875 
Q 24.90625 -1.421875 15.25 8.5625 
Q 5.609375 18.5625 5.609375 36.375 
Q 5.609375 54.25 15.25 64.234375 
Q 24.90625 74.21875 42 74.21875 
Q 49.125 74.21875 55.546875 72.453125 
Q 61.96875 70.703125 67.390625 67.28125 
L 67.390625 56.78125 
Q 61.921875 61.421875 55.765625 63.765625 
Q 49.609375 66.109375 42.828125 66.109375 
Q 29.4375 66.109375 22.71875 58.640625 
Q 16.015625 51.171875 16.015625 36.375 
Q 16.015625 21.625 22.71875 14.15625 
Q 29.4375 6.6875 42.828125 6.6875 
Q 48.046875 6.6875 52.140625 7.59375 
Q 56.25 8.5 59.515625 10.40625 
z
" id="DejaVuSans-71"/>
     </defs>
     <g transform="translate(265.31 203.44525)scale(0.08 -0.08)">
      <use xlink:href="#DejaVuSans-32"/>
      <use x="31.787109" xlink:href="#DejaVuSans-71"/>
      <use x="109.277344" xlink:href="#DejaVuSans-108"/>
      <use x="137.060547" xlink:href="#DejaVuSans-97"/>
      <use x="198.339844" xlink:href="#DejaVuSans-110"/>
      <use x="261.71875" xlink:href="#DejaVuSans-115"/>
      <use x="313.818359" xlink:href="#DejaVuSans-95"/>
      <use x="363.818359" xlink:href="#DejaVuSans-80"/>
      <use x="424.074219" xlink:href="#DejaVuSans-101"/>
      <use x="485.597656" xlink:href="#DejaVuSans-110"/>
      <use x="548.976562" xlink:href="#DejaVuSans-105"/>
      <use x="576.759766" xlink:href="#DejaVuSans-115"/>
      <use x="628.859375" xlink:href="#DejaVuSans-32"/>
      <use x="660.646484" xlink:href="#DejaVuSans-40"/>
      <use x="699.660156" xlink:href="#DejaVuSans-97"/>
      <use x="760.939453" xlink:href="#DejaVuSans-114"/>
      <use x="802.021484" xlink:href="#DejaVuSans-101"/>
      <use x="863.544922" xlink:href="#DejaVuSans-97"/>
      <use x="924.824219" xlink:href="#DejaVuSans-32"/>
      <use x="956.611328" xlink:href="#DejaVuSans-61"/>
      <use x="1040.400391" xlink:href="#DejaVuSans-32"/>
      <use x="1072.1875" xlink:href="#DejaVuSans-49"/>
      <use x="1135.810547" xlink:href="#DejaVuSans-46"/>
      <use x="1167.597656" xlink:href="#DejaVuSans-48"/>
      <use x="1231.220703" xlink:href="#DejaVuSans-48"/>
      <use x="1294.84375" xlink:href="#DejaVuSans-41"/>
     </g>
    </g>
    <g id="line2d_52">
     <path d="M 242.91 212.61025 
L 258.91 212.61025 
" style="fill:none;stroke:#fb9a99;stroke-linecap:square;stroke-width:2;"/>
    </g>
    <g id="line2d_53"/>
    <g id="text_21">
     <!--  Labia_Minora (area = 1.00) -->
     <defs>
      <path d="M 9.8125 72.90625 
L 19.671875 72.90625 
L 19.671875 8.296875 
L 55.171875 8.296875 
L 55.171875 0 
L 9.8125 0 
z
" id="DejaVuSans-76"/>
      <path d="M 48.6875 27.296875 
Q 48.6875 37.203125 44.609375 42.84375 
Q 40.53125 48.484375 33.40625 48.484375 
Q 26.265625 48.484375 22.1875 42.84375 
Q 18.109375 37.203125 18.109375 27.296875 
Q 18.109375 17.390625 22.1875 11.75 
Q 26.265625 6.109375 33.40625 6.109375 
Q 40.53125 6.109375 44.609375 11.75 
Q 48.6875 17.390625 48.6875 27.296875 
z
M 18.109375 46.390625 
Q 20.953125 51.265625 25.265625 53.625 
Q 29.59375 56 35.59375 56 
Q 45.5625 56 51.78125 48.09375 
Q 58.015625 40.1875 58.015625 27.296875 
Q 58.015625 14.40625 51.78125 6.484375 
Q 45.5625 -1.421875 35.59375 -1.421875 
Q 29.59375 -1.421875 25.265625 0.953125 
Q 20.953125 3.328125 18.109375 8.203125 
L 18.109375 0 
L 9.078125 0 
L 9.078125 75.984375 
L 18.109375 75.984375 
z
" id="DejaVuSans-98"/>
      <path d="M 9.8125 72.90625 
L 24.515625 72.90625 
L 43.109375 23.296875 
L 61.8125 72.90625 
L 76.515625 72.90625 
L 76.515625 0 
L 66.890625 0 
L 66.890625 64.015625 
L 48.09375 14.015625 
L 38.1875 14.015625 
L 19.390625 64.015625 
L 19.390625 0 
L 9.8125 0 
z
" id="DejaVuSans-77"/>
     </defs>
     <g transform="translate(265.31 215.41025)scale(0.08 -0.08)">
      <use xlink:href="#DejaVuSans-32"/>
      <use x="31.787109" xlink:href="#DejaVuSans-76"/>
      <use x="87.5" xlink:href="#DejaVuSans-97"/>
      <use x="148.779297" xlink:href="#DejaVuSans-98"/>
      <use x="212.255859" xlink:href="#DejaVuSans-105"/>
      <use x="240.039062" xlink:href="#DejaVuSans-97"/>
      <use x="301.318359" xlink:href="#DejaVuSans-95"/>
      <use x="351.318359" xlink:href="#DejaVuSans-77"/>
      <use x="437.597656" xlink:href="#DejaVuSans-105"/>
      <use x="465.380859" xlink:href="#DejaVuSans-110"/>
      <use x="528.759766" xlink:href="#DejaVuSans-111"/>
      <use x="589.941406" xlink:href="#DejaVuSans-114"/>
      <use x="631.054688" xlink:href="#DejaVuSans-97"/>
      <use x="692.333984" xlink:href="#DejaVuSans-32"/>
      <use x="724.121094" xlink:href="#DejaVuSans-40"/>
      <use x="763.134766" xlink:href="#DejaVuSans-97"/>
      <use x="824.414062" xlink:href="#DejaVuSans-114"/>
      <use x="865.496094" xlink:href="#DejaVuSans-101"/>
      <use x="927.019531" xlink:href="#DejaVuSans-97"/>
      <use x="988.298828" xlink:href="#DejaVuSans-32"/>
      <use x="1020.085938" xlink:href="#DejaVuSans-61"/>
      <use x="1103.875" xlink:href="#DejaVuSans-32"/>
      <use x="1135.662109" xlink:href="#DejaVuSans-49"/>
      <use x="1199.285156" xlink:href="#DejaVuSans-46"/>
      <use x="1231.072266" xlink:href="#DejaVuSans-48"/>
      <use x="1294.695312" xlink:href="#DejaVuSans-48"/>
      <use x="1358.318359" xlink:href="#DejaVuSans-41"/>
     </g>
    </g>
    <g id="line2d_54">
     <path d="M 242.91 224.57525 
L 258.91 224.57525 
" style="fill:none;stroke:#e31a1c;stroke-linecap:square;stroke-width:2;"/>
    </g>
    <g id="line2d_55"/>
    <g id="text_22">
     <!--  Palm (area = 1.00) -->
     <g transform="translate(265.31 227.37525)scale(0.08 -0.08)">
      <use xlink:href="#DejaVuSans-32"/>
      <use x="31.787109" xlink:href="#DejaVuSans-80"/>
      <use x="92.027344" xlink:href="#DejaVuSans-97"/>
      <use x="153.306641" xlink:href="#DejaVuSans-108"/>
      <use x="181.089844" xlink:href="#DejaVuSans-109"/>
      <use x="278.501953" xlink:href="#DejaVuSans-32"/>
      <use x="310.289062" xlink:href="#DejaVuSans-40"/>
      <use x="349.302734" xlink:href="#DejaVuSans-97"/>
      <use x="410.582031" xlink:href="#DejaVuSans-114"/>
      <use x="451.664062" xlink:href="#DejaVuSans-101"/>
      <use x="513.1875" xlink:href="#DejaVuSans-97"/>
      <use x="574.466797" xlink:href="#DejaVuSans-32"/>
      <use x="606.253906" xlink:href="#DejaVuSans-61"/>
      <use x="690.042969" xlink:href="#DejaVuSans-32"/>
      <use x="721.830078" xlink:href="#DejaVuSans-49"/>
      <use x="785.453125" xlink:href="#DejaVuSans-46"/>
      <use x="817.240234" xlink:href="#DejaVuSans-48"/>
      <use x="880.863281" xlink:href="#DejaVuSans-48"/>
      <use x="944.486328" xlink:href="#DejaVuSans-41"/>
     </g>
    </g>
    <g id="line2d_56">
     <path d="M 242.91 236.31775 
L 258.91 236.31775 
" style="fill:none;stroke:#fdbf6f;stroke-linecap:square;stroke-width:2;"/>
    </g>
    <g id="line2d_57"/>
    <g id="text_23">
     <!--  Palmar_Index_Finger (area = 1.00) -->
     <defs>
      <path d="M 9.8125 72.90625 
L 19.671875 72.90625 
L 19.671875 0 
L 9.8125 0 
z
" id="DejaVuSans-73"/>
     </defs>
     <g transform="translate(265.31 239.11775)scale(0.08 -0.08)">
      <use xlink:href="#DejaVuSans-32"/>
      <use x="31.787109" xlink:href="#DejaVuSans-80"/>
      <use x="92.027344" xlink:href="#DejaVuSans-97"/>
      <use x="153.306641" xlink:href="#DejaVuSans-108"/>
      <use x="181.089844" xlink:href="#DejaVuSans-109"/>
      <use x="278.501953" xlink:href="#DejaVuSans-97"/>
      <use x="339.78125" xlink:href="#DejaVuSans-114"/>
      <use x="380.894531" xlink:href="#DejaVuSans-95"/>
      <use x="430.894531" xlink:href="#DejaVuSans-73"/>
      <use x="460.386719" xlink:href="#DejaVuSans-110"/>
      <use x="523.765625" xlink:href="#DejaVuSans-100"/>
      <use x="587.242188" xlink:href="#DejaVuSans-101"/>
      <use x="648.75" xlink:href="#DejaVuSans-120"/>
      <use x="707.929688" xlink:href="#DejaVuSans-95"/>
      <use x="757.929688" xlink:href="#DejaVuSans-70"/>
      <use x="815.339844" xlink:href="#DejaVuSans-105"/>
      <use x="843.123047" xlink:href="#DejaVuSans-110"/>
      <use x="906.501953" xlink:href="#DejaVuSans-103"/>
      <use x="969.978516" xlink:href="#DejaVuSans-101"/>
      <use x="1031.501953" xlink:href="#DejaVuSans-114"/>
      <use x="1072.615234" xlink:href="#DejaVuSans-32"/>
      <use x="1104.402344" xlink:href="#DejaVuSans-40"/>
      <use x="1143.416016" xlink:href="#DejaVuSans-97"/>
      <use x="1204.695312" xlink:href="#DejaVuSans-114"/>
      <use x="1245.777344" xlink:href="#DejaVuSans-101"/>
      <use x="1307.300781" xlink:href="#DejaVuSans-97"/>
      <use x="1368.580078" xlink:href="#DejaVuSans-32"/>
      <use x="1400.367188" xlink:href="#DejaVuSans-61"/>
      <use x="1484.15625" xlink:href="#DejaVuSans-32"/>
      <use x="1515.943359" xlink:href="#DejaVuSans-49"/>
      <use x="1579.566406" xlink:href="#DejaVuSans-46"/>
      <use x="1611.353516" xlink:href="#DejaVuSans-48"/>
      <use x="1674.976562" xlink:href="#DejaVuSans-48"/>
      <use x="1738.599609" xlink:href="#DejaVuSans-41"/>
     </g>
    </g>
    <g id="line2d_58">
     <path d="M 242.91 248.28275 
L 258.91 248.28275 
" style="fill:none;stroke:#ff7f00;stroke-linecap:square;stroke-width:2;"/>
    </g>
    <g id="line2d_59"/>
    <g id="text_24">
     <!--  Pinna (area = 1.00) -->
     <g transform="translate(265.31 251.08275)scale(0.08 -0.08)">
      <use xlink:href="#DejaVuSans-32"/>
      <use x="31.787109" xlink:href="#DejaVuSans-80"/>
      <use x="92.058594" xlink:href="#DejaVuSans-105"/>
      <use x="119.841797" xlink:href="#DejaVuSans-110"/>
      <use x="183.220703" xlink:href="#DejaVuSans-110"/>
      <use x="246.599609" xlink:href="#DejaVuSans-97"/>
      <use x="307.878906" xlink:href="#DejaVuSans-32"/>
      <use x="339.666016" xlink:href="#DejaVuSans-40"/>
      <use x="378.679688" xlink:href="#DejaVuSans-97"/>
      <use x="439.958984" xlink:href="#DejaVuSans-114"/>
      <use x="481.041016" xlink:href="#DejaVuSans-101"/>
      <use x="542.564453" xlink:href="#DejaVuSans-97"/>
      <use x="603.84375" xlink:href="#DejaVuSans-32"/>
      <use x="635.630859" xlink:href="#DejaVuSans-61"/>
      <use x="719.419922" xlink:href="#DejaVuSans-32"/>
      <use x="751.207031" xlink:href="#DejaVuSans-49"/>
      <use x="814.830078" xlink:href="#DejaVuSans-46"/>
      <use x="846.617188" xlink:href="#DejaVuSans-48"/>
      <use x="910.240234" xlink:href="#DejaVuSans-48"/>
      <use x="973.863281" xlink:href="#DejaVuSans-41"/>
     </g>
    </g>
    <g id="line2d_60">
     <path d="M 242.91 260.02525 
L 258.91 260.02525 
" style="fill:none;stroke:#cab2d6;stroke-linecap:square;stroke-width:2;"/>
    </g>
    <g id="line2d_61"/>
    <g id="text_25">
     <!--  Plantar_Foot (area = 1.00) -->
     <g transform="translate(265.31 262.82525)scale(0.08 -0.08)">
      <use xlink:href="#DejaVuSans-32"/>
      <use x="31.787109" xlink:href="#DejaVuSans-80"/>
      <use x="92.089844" xlink:href="#DejaVuSans-108"/>
      <use x="119.873047" xlink:href="#DejaVuSans-97"/>
      <use x="181.152344" xlink:href="#DejaVuSans-110"/>
      <use x="244.53125" xlink:href="#DejaVuSans-116"/>
      <use x="283.740234" xlink:href="#DejaVuSans-97"/>
      <use x="345.019531" xlink:href="#DejaVuSans-114"/>
      <use x="386.132812" xlink:href="#DejaVuSans-95"/>
      <use x="436.132812" xlink:href="#DejaVuSans-70"/>
      <use x="493.605469" xlink:href="#DejaVuSans-111"/>
      <use x="554.787109" xlink:href="#DejaVuSans-111"/>
      <use x="615.96875" xlink:href="#DejaVuSans-116"/>
      <use x="655.177734" xlink:href="#DejaVuSans-32"/>
      <use x="686.964844" xlink:href="#DejaVuSans-40"/>
      <use x="725.978516" xlink:href="#DejaVuSans-97"/>
      <use x="787.257812" xlink:href="#DejaVuSans-114"/>
      <use x="828.339844" xlink:href="#DejaVuSans-101"/>
      <use x="889.863281" xlink:href="#DejaVuSans-97"/>
      <use x="951.142578" xlink:href="#DejaVuSans-32"/>
      <use x="982.929688" xlink:href="#DejaVuSans-61"/>
      <use x="1066.71875" xlink:href="#DejaVuSans-32"/>
      <use x="1098.505859" xlink:href="#DejaVuSans-49"/>
      <use x="1162.128906" xlink:href="#DejaVuSans-46"/>
      <use x="1193.916016" xlink:href="#DejaVuSans-48"/>
      <use x="1257.539062" xlink:href="#DejaVuSans-48"/>
      <use x="1321.162109" xlink:href="#DejaVuSans-41"/>
     </g>
    </g>
    <g id="line2d_62">
     <path d="M 242.91 271.99025 
L 258.91 271.99025 
" style="fill:none;stroke:#6a3d9a;stroke-linecap:square;stroke-width:2;"/>
    </g>
    <g id="line2d_63"/>
    <g id="text_26">
     <!--  Popliteal_Fossa (area = 1.00) -->
     <defs>
      <path d="M 18.109375 8.203125 
L 18.109375 -20.796875 
L 9.078125 -20.796875 
L 9.078125 54.6875 
L 18.109375 54.6875 
L 18.109375 46.390625 
Q 20.953125 51.265625 25.265625 53.625 
Q 29.59375 56 35.59375 56 
Q 45.5625 56 51.78125 48.09375 
Q 58.015625 40.1875 58.015625 27.296875 
Q 58.015625 14.40625 51.78125 6.484375 
Q 45.5625 -1.421875 35.59375 -1.421875 
Q 29.59375 -1.421875 25.265625 0.953125 
Q 20.953125 3.328125 18.109375 8.203125 
z
M 48.6875 27.296875 
Q 48.6875 37.203125 44.609375 42.84375 
Q 40.53125 48.484375 33.40625 48.484375 
Q 26.265625 48.484375 22.1875 42.84375 
Q 18.109375 37.203125 18.109375 27.296875 
Q 18.109375 17.390625 22.1875 11.75 
Q 26.265625 6.109375 33.40625 6.109375 
Q 40.53125 6.109375 44.609375 11.75 
Q 48.6875 17.390625 48.6875 27.296875 
z
" id="DejaVuSans-112"/>
     </defs>
     <g transform="translate(265.31 274.79025)scale(0.08 -0.08)">
      <use xlink:href="#DejaVuSans-32"/>
      <use x="31.787109" xlink:href="#DejaVuSans-80"/>
      <use x="92.042969" xlink:href="#DejaVuSans-111"/>
      <use x="153.224609" xlink:href="#DejaVuSans-112"/>
      <use x="216.701172" xlink:href="#DejaVuSans-108"/>
      <use x="244.484375" xlink:href="#DejaVuSans-105"/>
      <use x="272.267578" xlink:href="#DejaVuSans-116"/>
      <use x="311.476562" xlink:href="#DejaVuSans-101"/>
      <use x="373" xlink:href="#DejaVuSans-97"/>
      <use x="434.279297" xlink:href="#DejaVuSans-108"/>
      <use x="462.0625" xlink:href="#DejaVuSans-95"/>
      <use x="512.0625" xlink:href="#DejaVuSans-70"/>
      <use x="569.535156" xlink:href="#DejaVuSans-111"/>
      <use x="630.716797" xlink:href="#DejaVuSans-115"/>
      <use x="682.816406" xlink:href="#DejaVuSans-115"/>
      <use x="734.916016" xlink:href="#DejaVuSans-97"/>
      <use x="796.195312" xlink:href="#DejaVuSans-32"/>
      <use x="827.982422" xlink:href="#DejaVuSans-40"/>
      <use x="866.996094" xlink:href="#DejaVuSans-97"/>
      <use x="928.275391" xlink:href="#DejaVuSans-114"/>
      <use x="969.357422" xlink:href="#DejaVuSans-101"/>
      <use x="1030.880859" xlink:href="#DejaVuSans-97"/>
      <use x="1092.160156" xlink:href="#DejaVuSans-32"/>
      <use x="1123.947266" xlink:href="#DejaVuSans-61"/>
      <use x="1207.736328" xlink:href="#DejaVuSans-32"/>
      <use x="1239.523438" xlink:href="#DejaVuSans-49"/>
      <use x="1303.146484" xlink:href="#DejaVuSans-46"/>
      <use x="1334.933594" xlink:href="#DejaVuSans-48"/>
      <use x="1398.556641" xlink:href="#DejaVuSans-48"/>
      <use x="1462.179688" xlink:href="#DejaVuSans-41"/>
     </g>
    </g>
    <g id="line2d_64">
     <path d="M 242.91 283.95525 
L 258.91 283.95525 
" style="fill:none;stroke:#ffff99;stroke-linecap:square;stroke-width:2;"/>
    </g>
    <g id="line2d_65"/>
    <g id="text_27">
     <!--  Umbilicus (area = 1.00) -->
     <defs>
      <path d="M 8.6875 72.90625 
L 18.609375 72.90625 
L 18.609375 28.609375 
Q 18.609375 16.890625 22.84375 11.734375 
Q 27.09375 6.59375 36.625 6.59375 
Q 46.09375 6.59375 50.34375 11.734375 
Q 54.59375 16.890625 54.59375 28.609375 
L 54.59375 72.90625 
L 64.5 72.90625 
L 64.5 27.390625 
Q 64.5 13.140625 57.4375 5.859375 
Q 50.390625 -1.421875 36.625 -1.421875 
Q 22.796875 -1.421875 15.734375 5.859375 
Q 8.6875 13.140625 8.6875 27.390625 
z
" id="DejaVuSans-85"/>
     </defs>
     <g transform="translate(265.31 286.75525)scale(0.08 -0.08)">
      <use xlink:href="#DejaVuSans-32"/>
      <use x="31.787109" xlink:href="#DejaVuSans-85"/>
      <use x="104.980469" xlink:href="#DejaVuSans-109"/>
      <use x="202.392578" xlink:href="#DejaVuSans-98"/>
      <use x="265.869141" xlink:href="#DejaVuSans-105"/>
      <use x="293.652344" xlink:href="#DejaVuSans-108"/>
      <use x="321.435547" xlink:href="#DejaVuSans-105"/>
      <use x="349.21875" xlink:href="#DejaVuSans-99"/>
      <use x="404.199219" xlink:href="#DejaVuSans-117"/>
      <use x="467.578125" xlink:href="#DejaVuSans-115"/>
      <use x="519.677734" xlink:href="#DejaVuSans-32"/>
      <use x="551.464844" xlink:href="#DejaVuSans-40"/>
      <use x="590.478516" xlink:href="#DejaVuSans-97"/>
      <use x="651.757812" xlink:href="#DejaVuSans-114"/>
      <use x="692.839844" xlink:href="#DejaVuSans-101"/>
      <use x="754.363281" xlink:href="#DejaVuSans-97"/>
      <use x="815.642578" xlink:href="#DejaVuSans-32"/>
      <use x="847.429688" xlink:href="#DejaVuSans-61"/>
      <use x="931.21875" xlink:href="#DejaVuSans-32"/>
      <use x="963.005859" xlink:href="#DejaVuSans-49"/>
      <use x="1026.628906" xlink:href="#DejaVuSans-46"/>
      <use x="1058.416016" xlink:href="#DejaVuSans-48"/>
      <use x="1122.039062" xlink:href="#DejaVuSans-48"/>
      <use x="1185.662109" xlink:href="#DejaVuSans-41"/>
     </g>
    </g>
    <g id="line2d_66">
     <path d="M 242.91 295.69775 
L 258.91 295.69775 
" style="fill:none;stroke:#b15928;stroke-linecap:square;stroke-width:2;"/>
    </g>
    <g id="line2d_67"/>
    <g id="text_28">
     <!--  Volear_Forearm (area = 1.00) -->
     <defs>
      <path d="M 28.609375 0 
L 0.78125 72.90625 
L 11.078125 72.90625 
L 34.1875 11.53125 
L 57.328125 72.90625 
L 67.578125 72.90625 
L 39.796875 0 
z
" id="DejaVuSans-86"/>
     </defs>
     <g transform="translate(265.31 298.49775)scale(0.08 -0.08)">
      <use xlink:href="#DejaVuSans-32"/>
      <use x="31.787109" xlink:href="#DejaVuSans-86"/>
      <use x="100.085938" xlink:href="#DejaVuSans-111"/>
      <use x="161.267578" xlink:href="#DejaVuSans-108"/>
      <use x="189.050781" xlink:href="#DejaVuSans-101"/>
      <use x="250.574219" xlink:href="#DejaVuSans-97"/>
      <use x="311.853516" xlink:href="#DejaVuSans-114"/>
      <use x="352.966797" xlink:href="#DejaVuSans-95"/>
      <use x="402.966797" xlink:href="#DejaVuSans-70"/>
      <use x="460.439453" xlink:href="#DejaVuSans-111"/>
      <use x="521.621094" xlink:href="#DejaVuSans-114"/>
      <use x="562.703125" xlink:href="#DejaVuSans-101"/>
      <use x="624.226562" xlink:href="#DejaVuSans-97"/>
      <use x="685.505859" xlink:href="#DejaVuSans-114"/>
      <use x="726.603516" xlink:href="#DejaVuSans-109"/>
      <use x="824.015625" xlink:href="#DejaVuSans-32"/>
      <use x="855.802734" xlink:href="#DejaVuSans-40"/>
      <use x="894.816406" xlink:href="#DejaVuSans-97"/>
      <use x="956.095703" xlink:href="#DejaVuSans-114"/>
      <use x="997.177734" xlink:href="#DejaVuSans-101"/>
      <use x="1058.701172" xlink:href="#DejaVuSans-97"/>
      <use x="1119.980469" xlink:href="#DejaVuSans-32"/>
      <use x="1151.767578" xlink:href="#DejaVuSans-61"/>
      <use x="1235.556641" xlink:href="#DejaVuSans-32"/>
      <use x="1267.34375" xlink:href="#DejaVuSans-49"/>
      <use x="1330.966797" xlink:href="#DejaVuSans-46"/>
      <use x="1362.753906" xlink:href="#DejaVuSans-48"/>
      <use x="1426.376953" xlink:href="#DejaVuSans-48"/>
      <use x="1490" xlink:href="#DejaVuSans-41"/>
     </g>
    </g>
   </g>
  </g>
 </g>
 <defs>
  <clipPath id="p01364cfb83">
   <rect height="266.112" width="357.12" x="57.6" y="41.472"/>
  </clipPath>
 </defs>
</svg>
