<?xml version="1.0" encoding="utf-8" standalone="no"?>
<!DOCTYPE svg PUBLIC "-//W3C//DTD SVG 1.1//EN"
  "http://www.w3.org/Graphics/SVG/1.1/DTD/svg11.dtd">
<!-- Created with matplotlib (https://matplotlib.org/) -->
<svg height="208.48675pt" version="1.1" viewBox="0 0 445.74425 208.48675" width="445.74425pt" xmlns="http://www.w3.org/2000/svg" xmlns:xlink="http://www.w3.org/1999/xlink">
 <defs>
  <style type="text/css">
*{stroke-linecap:butt;stroke-linejoin:round;}
  </style>
 </defs>
 <g id="figure_1">
  <g id="patch_1">
   <path d="M 0 208.48675 
L 445.74425 208.48675 
L 445.74425 0 
L 0 0 
z
" style="fill:#ffffff;stroke:#ffffff;stroke-linejoin:miter;"/>
  </g>
  <g id="axes_1">
   <g id="patch_2">
    <path d="M 103.74425 187.82 
L 211.98425 187.82 
L 211.98425 21.5 
L 103.74425 21.5 
z
" style="fill:#ffffff;stroke:#7f7f7f;stroke-linejoin:miter;"/>
   </g>
   <g id="matplotlib.axis_1">
    <g id="xtick_1">
     <g id="line2d_1">
      <path clip-path="url(#pc99cb09eec)" d="M 108.66425 187.82 
L 108.66425 21.5 
" style="fill:none;stroke:#e5e5e5;stroke-width:0.8;"/>
     </g>
     <g id="line2d_2">
      <path d="M 108.66425 187.82 
" style="fill:none;stroke:#000000;stroke-width:1.5;"/>
      <defs>
       <path d="M 0 0 
L 0 2.75 
" id="m092c01796c" style="stroke:#000000;"/>
      </defs>
      <g>
       <use style="stroke:#000000;" x="108.66425" xlink:href="#m092c01796c" y="187.82"/>
      </g>
     </g>
     <g id="text_1">
      <!-- 0 -->
      <defs>
       <path d="M 31.78125 66.40625 
Q 24.171875 66.40625 20.328125 58.90625 
Q 16.5 51.421875 16.5 36.375 
Q 16.5 21.390625 20.328125 13.890625 
Q 24.171875 6.390625 31.78125 6.390625 
Q 39.453125 6.390625 43.28125 13.890625 
Q 47.125 21.390625 47.125 36.375 
Q 47.125 51.421875 43.28125 58.90625 
Q 39.453125 66.40625 31.78125 66.40625 
z
M 31.78125 74.21875 
Q 44.046875 74.21875 50.515625 64.515625 
Q 56.984375 54.828125 56.984375 36.375 
Q 56.984375 17.96875 50.515625 8.265625 
Q 44.046875 -1.421875 31.78125 -1.421875 
Q 19.53125 -1.421875 13.0625 8.265625 
Q 6.59375 17.96875 6.59375 36.375 
Q 6.59375 54.828125 13.0625 64.515625 
Q 19.53125 74.21875 31.78125 74.21875 
z
" id="DejaVuSans-48"/>
      </defs>
      <g style="fill:#4d4d4d;" transform="translate(105.86475 199.456625)scale(0.088 -0.088)">
       <use xlink:href="#DejaVuSans-48"/>
      </g>
     </g>
    </g>
    <g id="xtick_2">
     <g id="line2d_3">
      <path clip-path="url(#pc99cb09eec)" d="M 133.26425 187.82 
L 133.26425 21.5 
" style="fill:none;stroke:#e5e5e5;stroke-width:0.8;"/>
     </g>
     <g id="line2d_4">
      <path d="M 133.26425 187.82 
" style="fill:none;stroke:#000000;stroke-width:1.5;"/>
      <g>
       <use style="stroke:#000000;" x="133.26425" xlink:href="#m092c01796c" y="187.82"/>
      </g>
     </g>
     <g id="text_2">
      <!-- 0.25 -->
      <defs>
       <path d="M 10.6875 12.40625 
L 21 12.40625 
L 21 0 
L 10.6875 0 
z
" id="DejaVuSans-46"/>
       <path d="M 19.1875 8.296875 
L 53.609375 8.296875 
L 53.609375 0 
L 7.328125 0 
L 7.328125 8.296875 
Q 12.9375 14.109375 22.625 23.890625 
Q 32.328125 33.6875 34.8125 36.53125 
Q 39.546875 41.84375 41.421875 45.53125 
Q 43.3125 49.21875 43.3125 52.78125 
Q 43.3125 58.59375 39.234375 62.25 
Q 35.15625 65.921875 28.609375 65.921875 
Q 23.96875 65.921875 18.8125 64.3125 
Q 13.671875 62.703125 7.8125 59.421875 
L 7.8125 69.390625 
Q 13.765625 71.78125 18.9375 73 
Q 24.125 74.21875 28.421875 74.21875 
Q 39.75 74.21875 46.484375 68.546875 
Q 53.21875 62.890625 53.21875 53.421875 
Q 53.21875 48.921875 51.53125 44.890625 
Q 49.859375 40.875 45.40625 35.40625 
Q 44.1875 33.984375 37.640625 27.21875 
Q 31.109375 20.453125 19.1875 8.296875 
z
" id="DejaVuSans-50"/>
       <path d="M 10.796875 72.90625 
L 49.515625 72.90625 
L 49.515625 64.59375 
L 19.828125 64.59375 
L 19.828125 46.734375 
Q 21.96875 47.46875 24.109375 47.828125 
Q 26.265625 48.1875 28.421875 48.1875 
Q 40.625 48.1875 47.75 41.5 
Q 54.890625 34.8125 54.890625 23.390625 
Q 54.890625 11.625 47.5625 5.09375 
Q 40.234375 -1.421875 26.90625 -1.421875 
Q 22.3125 -1.421875 17.546875 -0.640625 
Q 12.796875 0.140625 7.71875 1.703125 
L 7.71875 11.625 
Q 12.109375 9.234375 16.796875 8.0625 
Q 21.484375 6.890625 26.703125 6.890625 
Q 35.15625 6.890625 40.078125 11.328125 
Q 45.015625 15.765625 45.015625 23.390625 
Q 45.015625 31 40.078125 35.4375 
Q 35.15625 39.890625 26.703125 39.890625 
Q 22.75 39.890625 18.8125 39.015625 
Q 14.890625 38.140625 10.796875 36.28125 
z
" id="DejaVuSans-53"/>
      </defs>
      <g style="fill:#4d4d4d;" transform="translate(123.467375 199.456625)scale(0.088 -0.088)">
       <use xlink:href="#DejaVuSans-48"/>
       <use x="63.623047" xlink:href="#DejaVuSans-46"/>
       <use x="95.410156" xlink:href="#DejaVuSans-50"/>
       <use x="159.033203" xlink:href="#DejaVuSans-53"/>
      </g>
     </g>
    </g>
    <g id="xtick_3">
     <g id="line2d_5">
      <path clip-path="url(#pc99cb09eec)" d="M 157.86425 187.82 
L 157.86425 21.5 
" style="fill:none;stroke:#e5e5e5;stroke-width:0.8;"/>
     </g>
     <g id="line2d_6">
      <path d="M 157.86425 187.82 
" style="fill:none;stroke:#000000;stroke-width:1.5;"/>
      <g>
       <use style="stroke:#000000;" x="157.86425" xlink:href="#m092c01796c" y="187.82"/>
      </g>
     </g>
     <g id="text_3">
      <!-- 0.50 -->
      <g style="fill:#4d4d4d;" transform="translate(148.067375 199.456625)scale(0.088 -0.088)">
       <use xlink:href="#DejaVuSans-48"/>
       <use x="63.623047" xlink:href="#DejaVuSans-46"/>
       <use x="95.410156" xlink:href="#DejaVuSans-53"/>
       <use x="159.033203" xlink:href="#DejaVuSans-48"/>
      </g>
     </g>
    </g>
    <g id="xtick_4">
     <g id="line2d_7">
      <path clip-path="url(#pc99cb09eec)" d="M 182.46425 187.82 
L 182.46425 21.5 
" style="fill:none;stroke:#e5e5e5;stroke-width:0.8;"/>
     </g>
     <g id="line2d_8">
      <path d="M 182.46425 187.82 
" style="fill:none;stroke:#000000;stroke-width:1.5;"/>
      <g>
       <use style="stroke:#000000;" x="182.46425" xlink:href="#m092c01796c" y="187.82"/>
      </g>
     </g>
     <g id="text_4">
      <!-- 0.75 -->
      <defs>
       <path d="M 8.203125 72.90625 
L 55.078125 72.90625 
L 55.078125 68.703125 
L 28.609375 0 
L 18.3125 0 
L 43.21875 64.59375 
L 8.203125 64.59375 
z
" id="DejaVuSans-55"/>
      </defs>
      <g style="fill:#4d4d4d;" transform="translate(172.667375 199.456625)scale(0.088 -0.088)">
       <use xlink:href="#DejaVuSans-48"/>
       <use x="63.623047" xlink:href="#DejaVuSans-46"/>
       <use x="95.410156" xlink:href="#DejaVuSans-55"/>
       <use x="159.033203" xlink:href="#DejaVuSans-53"/>
      </g>
     </g>
    </g>
    <g id="xtick_5">
     <g id="line2d_9">
      <path clip-path="url(#pc99cb09eec)" d="M 207.06425 187.82 
L 207.06425 21.5 
" style="fill:none;stroke:#e5e5e5;stroke-width:0.8;"/>
     </g>
     <g id="line2d_10">
      <path d="M 207.06425 187.82 
" style="fill:none;stroke:#000000;stroke-width:1.5;"/>
      <g>
       <use style="stroke:#000000;" x="207.06425" xlink:href="#m092c01796c" y="187.82"/>
      </g>
     </g>
     <g id="text_5">
      <!-- 1 -->
      <defs>
       <path d="M 12.40625 8.296875 
L 28.515625 8.296875 
L 28.515625 63.921875 
L 10.984375 60.40625 
L 10.984375 69.390625 
L 28.421875 72.90625 
L 38.28125 72.90625 
L 38.28125 8.296875 
L 54.390625 8.296875 
L 54.390625 0 
L 12.40625 0 
z
" id="DejaVuSans-49"/>
      </defs>
      <g style="fill:#4d4d4d;" transform="translate(204.26475 199.456625)scale(0.088 -0.088)">
       <use xlink:href="#DejaVuSans-49"/>
      </g>
     </g>
    </g>
    <g id="xtick_6">
     <g id="line2d_11">
      <path clip-path="url(#pc99cb09eec)" d="M 120.96425 187.82 
L 120.96425 21.5 
" style="fill:none;stroke:#fafafa;"/>
     </g>
     <g id="line2d_12">
      <path d="M 120.96425 187.82 
" style="fill:none;stroke:#000000;stroke-width:1.5;"/>
      <defs>
       <path d="M 0 0 
L 0 1.375 
" id="m42f2324bb1" style="stroke:#000000;"/>
      </defs>
      <g>
       <use style="stroke:#000000;" x="120.96425" xlink:href="#m42f2324bb1" y="187.82"/>
      </g>
     </g>
    </g>
    <g id="xtick_7">
     <g id="line2d_13">
      <path clip-path="url(#pc99cb09eec)" d="M 145.56425 187.82 
L 145.56425 21.5 
" style="fill:none;stroke:#fafafa;"/>
     </g>
     <g id="line2d_14">
      <path d="M 145.56425 187.82 
" style="fill:none;stroke:#000000;stroke-width:1.5;"/>
      <g>
       <use style="stroke:#000000;" x="145.56425" xlink:href="#m42f2324bb1" y="187.82"/>
      </g>
     </g>
    </g>
    <g id="xtick_8">
     <g id="line2d_15">
      <path clip-path="url(#pc99cb09eec)" d="M 170.16425 187.82 
L 170.16425 21.5 
" style="fill:none;stroke:#fafafa;"/>
     </g>
     <g id="line2d_16">
      <path d="M 170.16425 187.82 
" style="fill:none;stroke:#000000;stroke-width:1.5;"/>
      <g>
       <use style="stroke:#000000;" x="170.16425" xlink:href="#m42f2324bb1" y="187.82"/>
      </g>
     </g>
    </g>
    <g id="xtick_9">
     <g id="line2d_17">
      <path clip-path="url(#pc99cb09eec)" d="M 194.76425 187.82 
L 194.76425 21.5 
" style="fill:none;stroke:#fafafa;"/>
     </g>
     <g id="line2d_18">
      <path d="M 194.76425 187.82 
" style="fill:none;stroke:#000000;stroke-width:1.5;"/>
      <g>
       <use style="stroke:#000000;" x="194.76425" xlink:href="#m42f2324bb1" y="187.82"/>
      </g>
     </g>
    </g>
   </g>
   <g id="matplotlib.axis_2">
    <g id="ytick_1">
     <g id="line2d_19">
      <path clip-path="url(#pc99cb09eec)" d="M 103.74425 181.254737 
L 211.98425 181.254737 
" style="fill:none;stroke:#e5e5e5;stroke-width:0.8;"/>
     </g>
     <g id="line2d_20">
      <path d="M 103.74425 181.254737 
" style="fill:none;stroke:#000000;stroke-width:1.5;"/>
      <defs>
       <path d="M 0 0 
L -2.75 0 
" id="mce54abf755" style="stroke:#000000;"/>
      </defs>
      <g>
       <use style="stroke:#000000;" x="103.74425" xlink:href="#mce54abf755" y="181.254737"/>
      </g>
     </g>
     <g id="text_6">
      <!-- Axilla -->
      <defs>
       <path d="M 34.1875 63.1875 
L 20.796875 26.90625 
L 47.609375 26.90625 
z
M 28.609375 72.90625 
L 39.796875 72.90625 
L 67.578125 0 
L 57.328125 0 
L 50.6875 18.703125 
L 17.828125 18.703125 
L 11.1875 0 
L 0.78125 0 
z
" id="DejaVuSans-65"/>
       <path d="M 54.890625 54.6875 
L 35.109375 28.078125 
L 55.90625 0 
L 45.3125 0 
L 29.390625 21.484375 
L 13.484375 0 
L 2.875 0 
L 24.125 28.609375 
L 4.6875 54.6875 
L 15.28125 54.6875 
L 29.78125 35.203125 
L 44.28125 54.6875 
z
" id="DejaVuSans-120"/>
       <path d="M 9.421875 54.6875 
L 18.40625 54.6875 
L 18.40625 0 
L 9.421875 0 
z
M 9.421875 75.984375 
L 18.40625 75.984375 
L 18.40625 64.59375 
L 9.421875 64.59375 
z
" id="DejaVuSans-105"/>
       <path d="M 9.421875 75.984375 
L 18.40625 75.984375 
L 18.40625 0 
L 9.421875 0 
z
" id="DejaVuSans-108"/>
       <path d="M 34.28125 27.484375 
Q 23.390625 27.484375 19.1875 25 
Q 14.984375 22.515625 14.984375 16.5 
Q 14.984375 11.71875 18.140625 8.90625 
Q 21.296875 6.109375 26.703125 6.109375 
Q 34.1875 6.109375 38.703125 11.40625 
Q 43.21875 16.703125 43.21875 25.484375 
L 43.21875 27.484375 
z
M 52.203125 31.203125 
L 52.203125 0 
L 43.21875 0 
L 43.21875 8.296875 
Q 40.140625 3.328125 35.546875 0.953125 
Q 30.953125 -1.421875 24.3125 -1.421875 
Q 15.921875 -1.421875 10.953125 3.296875 
Q 6 8.015625 6 15.921875 
Q 6 25.140625 12.171875 29.828125 
Q 18.359375 34.515625 30.609375 34.515625 
L 43.21875 34.515625 
L 43.21875 35.40625 
Q 43.21875 41.609375 39.140625 45 
Q 35.0625 48.390625 27.6875 48.390625 
Q 23 48.390625 18.546875 47.265625 
Q 14.109375 46.140625 10.015625 43.890625 
L 10.015625 52.203125 
Q 14.9375 54.109375 19.578125 55.046875 
Q 24.21875 56 28.609375 56 
Q 40.484375 56 46.34375 49.84375 
Q 52.203125 43.703125 52.203125 31.203125 
z
" id="DejaVuSans-97"/>
      </defs>
      <g style="fill:#4d4d4d;" transform="translate(74.839 183.682987)scale(0.088 -0.088)">
       <use xlink:href="#DejaVuSans-65"/>
       <use x="68.408203" xlink:href="#DejaVuSans-120"/>
       <use x="127.587891" xlink:href="#DejaVuSans-105"/>
       <use x="155.371094" xlink:href="#DejaVuSans-108"/>
       <use x="183.154297" xlink:href="#DejaVuSans-108"/>
       <use x="210.9375" xlink:href="#DejaVuSans-97"/>
      </g>
     </g>
    </g>
    <g id="ytick_2">
     <g id="line2d_21">
      <path clip-path="url(#pc99cb09eec)" d="M 103.74425 170.312632 
L 211.98425 170.312632 
" style="fill:none;stroke:#e5e5e5;stroke-width:0.8;"/>
     </g>
     <g id="line2d_22">
      <path d="M 103.74425 170.312632 
" style="fill:none;stroke:#000000;stroke-width:1.5;"/>
      <g>
       <use style="stroke:#000000;" x="103.74425" xlink:href="#mce54abf755" y="170.312632"/>
      </g>
     </g>
     <g id="text_7">
      <!-- External_Nose -->
      <defs>
       <path d="M 9.8125 72.90625 
L 55.90625 72.90625 
L 55.90625 64.59375 
L 19.671875 64.59375 
L 19.671875 43.015625 
L 54.390625 43.015625 
L 54.390625 34.71875 
L 19.671875 34.71875 
L 19.671875 8.296875 
L 56.78125 8.296875 
L 56.78125 0 
L 9.8125 0 
z
" id="DejaVuSans-69"/>
       <path d="M 18.3125 70.21875 
L 18.3125 54.6875 
L 36.8125 54.6875 
L 36.8125 47.703125 
L 18.3125 47.703125 
L 18.3125 18.015625 
Q 18.3125 11.328125 20.140625 9.421875 
Q 21.96875 7.515625 27.59375 7.515625 
L 36.8125 7.515625 
L 36.8125 0 
L 27.59375 0 
Q 17.1875 0 13.234375 3.875 
Q 9.28125 7.765625 9.28125 18.015625 
L 9.28125 47.703125 
L 2.6875 47.703125 
L 2.6875 54.6875 
L 9.28125 54.6875 
L 9.28125 70.21875 
z
" id="DejaVuSans-116"/>
       <path d="M 56.203125 29.59375 
L 56.203125 25.203125 
L 14.890625 25.203125 
Q 15.484375 15.921875 20.484375 11.0625 
Q 25.484375 6.203125 34.421875 6.203125 
Q 39.59375 6.203125 44.453125 7.46875 
Q 49.3125 8.734375 54.109375 11.28125 
L 54.109375 2.78125 
Q 49.265625 0.734375 44.1875 -0.34375 
Q 39.109375 -1.421875 33.890625 -1.421875 
Q 20.796875 -1.421875 13.15625 6.1875 
Q 5.515625 13.8125 5.515625 26.8125 
Q 5.515625 40.234375 12.765625 48.109375 
Q 20.015625 56 32.328125 56 
Q 43.359375 56 49.78125 48.890625 
Q 56.203125 41.796875 56.203125 29.59375 
z
M 47.21875 32.234375 
Q 47.125 39.59375 43.09375 43.984375 
Q 39.0625 48.390625 32.421875 48.390625 
Q 24.90625 48.390625 20.390625 44.140625 
Q 15.875 39.890625 15.1875 32.171875 
z
" id="DejaVuSans-101"/>
       <path d="M 41.109375 46.296875 
Q 39.59375 47.171875 37.8125 47.578125 
Q 36.03125 48 33.890625 48 
Q 26.265625 48 22.1875 43.046875 
Q 18.109375 38.09375 18.109375 28.8125 
L 18.109375 0 
L 9.078125 0 
L 9.078125 54.6875 
L 18.109375 54.6875 
L 18.109375 46.1875 
Q 20.953125 51.171875 25.484375 53.578125 
Q 30.03125 56 36.53125 56 
Q 37.453125 56 38.578125 55.875 
Q 39.703125 55.765625 41.0625 55.515625 
z
" id="DejaVuSans-114"/>
       <path d="M 54.890625 33.015625 
L 54.890625 0 
L 45.90625 0 
L 45.90625 32.71875 
Q 45.90625 40.484375 42.875 44.328125 
Q 39.84375 48.1875 33.796875 48.1875 
Q 26.515625 48.1875 22.3125 43.546875 
Q 18.109375 38.921875 18.109375 30.90625 
L 18.109375 0 
L 9.078125 0 
L 9.078125 54.6875 
L 18.109375 54.6875 
L 18.109375 46.1875 
Q 21.34375 51.125 25.703125 53.5625 
Q 30.078125 56 35.796875 56 
Q 45.21875 56 50.046875 50.171875 
Q 54.890625 44.34375 54.890625 33.015625 
z
" id="DejaVuSans-110"/>
       <path d="M 50.984375 -16.609375 
L 50.984375 -23.578125 
L -0.984375 -23.578125 
L -0.984375 -16.609375 
z
" id="DejaVuSans-95"/>
       <path d="M 9.8125 72.90625 
L 23.09375 72.90625 
L 55.421875 11.921875 
L 55.421875 72.90625 
L 64.984375 72.90625 
L 64.984375 0 
L 51.703125 0 
L 19.390625 60.984375 
L 19.390625 0 
L 9.8125 0 
z
" id="DejaVuSans-78"/>
       <path d="M 30.609375 48.390625 
Q 23.390625 48.390625 19.1875 42.75 
Q 14.984375 37.109375 14.984375 27.296875 
Q 14.984375 17.484375 19.15625 11.84375 
Q 23.34375 6.203125 30.609375 6.203125 
Q 37.796875 6.203125 41.984375 11.859375 
Q 46.1875 17.53125 46.1875 27.296875 
Q 46.1875 37.015625 41.984375 42.703125 
Q 37.796875 48.390625 30.609375 48.390625 
z
M 30.609375 56 
Q 42.328125 56 49.015625 48.375 
Q 55.71875 40.765625 55.71875 27.296875 
Q 55.71875 13.875 49.015625 6.21875 
Q 42.328125 -1.421875 30.609375 -1.421875 
Q 18.84375 -1.421875 12.171875 6.21875 
Q 5.515625 13.875 5.515625 27.296875 
Q 5.515625 40.765625 12.171875 48.375 
Q 18.84375 56 30.609375 56 
z
" id="DejaVuSans-111"/>
       <path d="M 44.28125 53.078125 
L 44.28125 44.578125 
Q 40.484375 46.53125 36.375 47.5 
Q 32.28125 48.484375 27.875 48.484375 
Q 21.1875 48.484375 17.84375 46.4375 
Q 14.5 44.390625 14.5 40.28125 
Q 14.5 37.15625 16.890625 35.375 
Q 19.28125 33.59375 26.515625 31.984375 
L 29.59375 31.296875 
Q 39.15625 29.25 43.1875 25.515625 
Q 47.21875 21.78125 47.21875 15.09375 
Q 47.21875 7.46875 41.1875 3.015625 
Q 35.15625 -1.421875 24.609375 -1.421875 
Q 20.21875 -1.421875 15.453125 -0.5625 
Q 10.6875 0.296875 5.421875 2 
L 5.421875 11.28125 
Q 10.40625 8.6875 15.234375 7.390625 
Q 20.0625 6.109375 24.8125 6.109375 
Q 31.15625 6.109375 34.5625 8.28125 
Q 37.984375 10.453125 37.984375 14.40625 
Q 37.984375 18.0625 35.515625 20.015625 
Q 33.0625 21.96875 24.703125 23.78125 
L 21.578125 24.515625 
Q 13.234375 26.265625 9.515625 29.90625 
Q 5.8125 33.546875 5.8125 39.890625 
Q 5.8125 47.609375 11.28125 51.796875 
Q 16.75 56 26.8125 56 
Q 31.78125 56 36.171875 55.265625 
Q 40.578125 54.546875 44.28125 53.078125 
z
" id="DejaVuSans-115"/>
      </defs>
      <g style="fill:#4d4d4d;" transform="translate(35.762875 172.618507)scale(0.088 -0.088)">
       <use xlink:href="#DejaVuSans-69"/>
       <use x="63.183594" xlink:href="#DejaVuSans-120"/>
       <use x="122.363281" xlink:href="#DejaVuSans-116"/>
       <use x="161.572266" xlink:href="#DejaVuSans-101"/>
       <use x="223.095703" xlink:href="#DejaVuSans-114"/>
       <use x="264.193359" xlink:href="#DejaVuSans-110"/>
       <use x="327.572266" xlink:href="#DejaVuSans-97"/>
       <use x="388.851562" xlink:href="#DejaVuSans-108"/>
       <use x="416.634766" xlink:href="#DejaVuSans-95"/>
       <use x="466.634766" xlink:href="#DejaVuSans-78"/>
       <use x="541.439453" xlink:href="#DejaVuSans-111"/>
       <use x="602.621094" xlink:href="#DejaVuSans-115"/>
       <use x="654.720703" xlink:href="#DejaVuSans-101"/>
      </g>
     </g>
    </g>
    <g id="ytick_3">
     <g id="line2d_23">
      <path clip-path="url(#pc99cb09eec)" d="M 103.74425 159.370526 
L 211.98425 159.370526 
" style="fill:none;stroke:#e5e5e5;stroke-width:0.8;"/>
     </g>
     <g id="line2d_24">
      <path d="M 103.74425 159.370526 
" style="fill:none;stroke:#000000;stroke-width:1.5;"/>
      <g>
       <use style="stroke:#000000;" x="103.74425" xlink:href="#mce54abf755" y="159.370526"/>
      </g>
     </g>
     <g id="text_8">
      <!-- Forehead -->
      <defs>
       <path d="M 9.8125 72.90625 
L 51.703125 72.90625 
L 51.703125 64.59375 
L 19.671875 64.59375 
L 19.671875 43.109375 
L 48.578125 43.109375 
L 48.578125 34.8125 
L 19.671875 34.8125 
L 19.671875 0 
L 9.8125 0 
z
" id="DejaVuSans-70"/>
       <path d="M 54.890625 33.015625 
L 54.890625 0 
L 45.90625 0 
L 45.90625 32.71875 
Q 45.90625 40.484375 42.875 44.328125 
Q 39.84375 48.1875 33.796875 48.1875 
Q 26.515625 48.1875 22.3125 43.546875 
Q 18.109375 38.921875 18.109375 30.90625 
L 18.109375 0 
L 9.078125 0 
L 9.078125 75.984375 
L 18.109375 75.984375 
L 18.109375 46.1875 
Q 21.34375 51.125 25.703125 53.5625 
Q 30.078125 56 35.796875 56 
Q 45.21875 56 50.046875 50.171875 
Q 54.890625 44.34375 54.890625 33.015625 
z
" id="DejaVuSans-104"/>
       <path d="M 45.40625 46.390625 
L 45.40625 75.984375 
L 54.390625 75.984375 
L 54.390625 0 
L 45.40625 0 
L 45.40625 8.203125 
Q 42.578125 3.328125 38.25 0.953125 
Q 33.9375 -1.421875 27.875 -1.421875 
Q 17.96875 -1.421875 11.734375 6.484375 
Q 5.515625 14.40625 5.515625 27.296875 
Q 5.515625 40.1875 11.734375 48.09375 
Q 17.96875 56 27.875 56 
Q 33.9375 56 38.25 53.625 
Q 42.578125 51.265625 45.40625 46.390625 
z
M 14.796875 27.296875 
Q 14.796875 17.390625 18.875 11.75 
Q 22.953125 6.109375 30.078125 6.109375 
Q 37.203125 6.109375 41.296875 11.75 
Q 45.40625 17.390625 45.40625 27.296875 
Q 45.40625 37.203125 41.296875 42.84375 
Q 37.203125 48.484375 30.078125 48.484375 
Q 22.953125 48.484375 18.875 42.84375 
Q 14.796875 37.203125 14.796875 27.296875 
z
" id="DejaVuSans-100"/>
      </defs>
      <g style="fill:#4d4d4d;" transform="translate(57.35175 161.798776)scale(0.088 -0.088)">
       <use xlink:href="#DejaVuSans-70"/>
       <use x="57.472656" xlink:href="#DejaVuSans-111"/>
       <use x="118.654297" xlink:href="#DejaVuSans-114"/>
       <use x="159.736328" xlink:href="#DejaVuSans-101"/>
       <use x="221.259766" xlink:href="#DejaVuSans-104"/>
       <use x="284.638672" xlink:href="#DejaVuSans-101"/>
       <use x="346.162109" xlink:href="#DejaVuSans-97"/>
       <use x="407.441406" xlink:href="#DejaVuSans-100"/>
      </g>
     </g>
    </g>
    <g id="ytick_4">
     <g id="line2d_25">
      <path clip-path="url(#pc99cb09eec)" d="M 103.74425 148.428421 
L 211.98425 148.428421 
" style="fill:none;stroke:#e5e5e5;stroke-width:0.8;"/>
     </g>
     <g id="line2d_26">
      <path d="M 103.74425 148.428421 
" style="fill:none;stroke:#000000;stroke-width:1.5;"/>
      <g>
       <use style="stroke:#000000;" x="103.74425" xlink:href="#mce54abf755" y="148.428421"/>
      </g>
     </g>
     <g id="text_9">
      <!-- Glans_Penis -->
      <defs>
       <path d="M 59.515625 10.40625 
L 59.515625 29.984375 
L 43.40625 29.984375 
L 43.40625 38.09375 
L 69.28125 38.09375 
L 69.28125 6.78125 
Q 63.578125 2.734375 56.6875 0.65625 
Q 49.8125 -1.421875 42 -1.421875 
Q 24.90625 -1.421875 15.25 8.5625 
Q 5.609375 18.5625 5.609375 36.375 
Q 5.609375 54.25 15.25 64.234375 
Q 24.90625 74.21875 42 74.21875 
Q 49.125 74.21875 55.546875 72.453125 
Q 61.96875 70.703125 67.390625 67.28125 
L 67.390625 56.78125 
Q 61.921875 61.421875 55.765625 63.765625 
Q 49.609375 66.109375 42.828125 66.109375 
Q 29.4375 66.109375 22.71875 58.640625 
Q 16.015625 51.171875 16.015625 36.375 
Q 16.015625 21.625 22.71875 14.15625 
Q 29.4375 6.6875 42.828125 6.6875 
Q 48.046875 6.6875 52.140625 7.59375 
Q 56.25 8.5 59.515625 10.40625 
z
" id="DejaVuSans-71"/>
       <path d="M 19.671875 64.796875 
L 19.671875 37.40625 
L 32.078125 37.40625 
Q 38.96875 37.40625 42.71875 40.96875 
Q 46.484375 44.53125 46.484375 51.125 
Q 46.484375 57.671875 42.71875 61.234375 
Q 38.96875 64.796875 32.078125 64.796875 
z
M 9.8125 72.90625 
L 32.078125 72.90625 
Q 44.34375 72.90625 50.609375 67.359375 
Q 56.890625 61.8125 56.890625 51.125 
Q 56.890625 40.328125 50.609375 34.8125 
Q 44.34375 29.296875 32.078125 29.296875 
L 19.671875 29.296875 
L 19.671875 0 
L 9.8125 0 
z
" id="DejaVuSans-80"/>
      </defs>
      <g style="fill:#4d4d4d;" transform="translate(46.254125 150.734296)scale(0.088 -0.088)">
       <use xlink:href="#DejaVuSans-71"/>
       <use x="77.490234" xlink:href="#DejaVuSans-108"/>
       <use x="105.273438" xlink:href="#DejaVuSans-97"/>
       <use x="166.552734" xlink:href="#DejaVuSans-110"/>
       <use x="229.931641" xlink:href="#DejaVuSans-115"/>
       <use x="282.03125" xlink:href="#DejaVuSans-95"/>
       <use x="332.03125" xlink:href="#DejaVuSans-80"/>
       <use x="392.287109" xlink:href="#DejaVuSans-101"/>
       <use x="453.810547" xlink:href="#DejaVuSans-110"/>
       <use x="517.189453" xlink:href="#DejaVuSans-105"/>
       <use x="544.972656" xlink:href="#DejaVuSans-115"/>
      </g>
     </g>
    </g>
    <g id="ytick_5">
     <g id="line2d_27">
      <path clip-path="url(#pc99cb09eec)" d="M 103.74425 137.486316 
L 211.98425 137.486316 
" style="fill:none;stroke:#e5e5e5;stroke-width:0.8;"/>
     </g>
     <g id="line2d_28">
      <path d="M 103.74425 137.486316 
" style="fill:none;stroke:#000000;stroke-width:1.5;"/>
      <g>
       <use style="stroke:#000000;" x="103.74425" xlink:href="#mce54abf755" y="137.486316"/>
      </g>
     </g>
     <g id="text_10">
      <!-- Labia_Minora -->
      <defs>
       <path d="M 9.8125 72.90625 
L 19.671875 72.90625 
L 19.671875 8.296875 
L 55.171875 8.296875 
L 55.171875 0 
L 9.8125 0 
z
" id="DejaVuSans-76"/>
       <path d="M 48.6875 27.296875 
Q 48.6875 37.203125 44.609375 42.84375 
Q 40.53125 48.484375 33.40625 48.484375 
Q 26.265625 48.484375 22.1875 42.84375 
Q 18.109375 37.203125 18.109375 27.296875 
Q 18.109375 17.390625 22.1875 11.75 
Q 26.265625 6.109375 33.40625 6.109375 
Q 40.53125 6.109375 44.609375 11.75 
Q 48.6875 17.390625 48.6875 27.296875 
z
M 18.109375 46.390625 
Q 20.953125 51.265625 25.265625 53.625 
Q 29.59375 56 35.59375 56 
Q 45.5625 56 51.78125 48.09375 
Q 58.015625 40.1875 58.015625 27.296875 
Q 58.015625 14.40625 51.78125 6.484375 
Q 45.5625 -1.421875 35.59375 -1.421875 
Q 29.59375 -1.421875 25.265625 0.953125 
Q 20.953125 3.328125 18.109375 8.203125 
L 18.109375 0 
L 9.078125 0 
L 9.078125 75.984375 
L 18.109375 75.984375 
z
" id="DejaVuSans-98"/>
       <path d="M 9.8125 72.90625 
L 24.515625 72.90625 
L 43.109375 23.296875 
L 61.8125 72.90625 
L 76.515625 72.90625 
L 76.515625 0 
L 66.890625 0 
L 66.890625 64.015625 
L 48.09375 14.015625 
L 38.1875 14.015625 
L 19.390625 64.015625 
L 19.390625 0 
L 9.8125 0 
z
" id="DejaVuSans-77"/>
      </defs>
      <g style="fill:#4d4d4d;" transform="translate(40.66475 139.792191)scale(0.088 -0.088)">
       <use xlink:href="#DejaVuSans-76"/>
       <use x="55.712891" xlink:href="#DejaVuSans-97"/>
       <use x="116.992188" xlink:href="#DejaVuSans-98"/>
       <use x="180.46875" xlink:href="#DejaVuSans-105"/>
       <use x="208.251953" xlink:href="#DejaVuSans-97"/>
       <use x="269.53125" xlink:href="#DejaVuSans-95"/>
       <use x="319.53125" xlink:href="#DejaVuSans-77"/>
       <use x="405.810547" xlink:href="#DejaVuSans-105"/>
       <use x="433.59375" xlink:href="#DejaVuSans-110"/>
       <use x="496.972656" xlink:href="#DejaVuSans-111"/>
       <use x="558.154297" xlink:href="#DejaVuSans-114"/>
       <use x="599.267578" xlink:href="#DejaVuSans-97"/>
      </g>
     </g>
    </g>
    <g id="ytick_6">
     <g id="line2d_29">
      <path clip-path="url(#pc99cb09eec)" d="M 103.74425 126.544211 
L 211.98425 126.544211 
" style="fill:none;stroke:#e5e5e5;stroke-width:0.8;"/>
     </g>
     <g id="line2d_30">
      <path d="M 103.74425 126.544211 
" style="fill:none;stroke:#000000;stroke-width:1.5;"/>
      <g>
       <use style="stroke:#000000;" x="103.74425" xlink:href="#mce54abf755" y="126.544211"/>
      </g>
     </g>
     <g id="text_11">
      <!-- Palm -->
      <defs>
       <path d="M 52 44.1875 
Q 55.375 50.25 60.0625 53.125 
Q 64.75 56 71.09375 56 
Q 79.640625 56 84.28125 50.015625 
Q 88.921875 44.046875 88.921875 33.015625 
L 88.921875 0 
L 79.890625 0 
L 79.890625 32.71875 
Q 79.890625 40.578125 77.09375 44.375 
Q 74.3125 48.1875 68.609375 48.1875 
Q 61.625 48.1875 57.5625 43.546875 
Q 53.515625 38.921875 53.515625 30.90625 
L 53.515625 0 
L 44.484375 0 
L 44.484375 32.71875 
Q 44.484375 40.625 41.703125 44.40625 
Q 38.921875 48.1875 33.109375 48.1875 
Q 26.21875 48.1875 22.15625 43.53125 
Q 18.109375 38.875 18.109375 30.90625 
L 18.109375 0 
L 9.078125 0 
L 9.078125 54.6875 
L 18.109375 54.6875 
L 18.109375 46.1875 
Q 21.1875 51.21875 25.484375 53.609375 
Q 29.78125 56 35.6875 56 
Q 41.65625 56 45.828125 52.96875 
Q 50 49.953125 52 44.1875 
z
" id="DejaVuSans-109"/>
      </defs>
      <g style="fill:#4d4d4d;" transform="translate(77.084375 128.972461)scale(0.088 -0.088)">
       <use xlink:href="#DejaVuSans-80"/>
       <use x="60.240234" xlink:href="#DejaVuSans-97"/>
       <use x="121.519531" xlink:href="#DejaVuSans-108"/>
       <use x="149.302734" xlink:href="#DejaVuSans-109"/>
      </g>
     </g>
    </g>
    <g id="ytick_7">
     <g id="line2d_31">
      <path clip-path="url(#pc99cb09eec)" d="M 103.74425 115.602105 
L 211.98425 115.602105 
" style="fill:none;stroke:#e5e5e5;stroke-width:0.8;"/>
     </g>
     <g id="line2d_32">
      <path d="M 103.74425 115.602105 
" style="fill:none;stroke:#000000;stroke-width:1.5;"/>
      <g>
       <use style="stroke:#000000;" x="103.74425" xlink:href="#mce54abf755" y="115.602105"/>
      </g>
     </g>
     <g id="text_12">
      <!-- Palmar_Index_Finger -->
      <defs>
       <path d="M 9.8125 72.90625 
L 19.671875 72.90625 
L 19.671875 0 
L 9.8125 0 
z
" id="DejaVuSans-73"/>
       <path d="M 45.40625 27.984375 
Q 45.40625 37.75 41.375 43.109375 
Q 37.359375 48.484375 30.078125 48.484375 
Q 22.859375 48.484375 18.828125 43.109375 
Q 14.796875 37.75 14.796875 27.984375 
Q 14.796875 18.265625 18.828125 12.890625 
Q 22.859375 7.515625 30.078125 7.515625 
Q 37.359375 7.515625 41.375 12.890625 
Q 45.40625 18.265625 45.40625 27.984375 
z
M 54.390625 6.78125 
Q 54.390625 -7.171875 48.1875 -13.984375 
Q 42 -20.796875 29.203125 -20.796875 
Q 24.46875 -20.796875 20.265625 -20.09375 
Q 16.0625 -19.390625 12.109375 -17.921875 
L 12.109375 -9.1875 
Q 16.0625 -11.328125 19.921875 -12.34375 
Q 23.78125 -13.375 27.78125 -13.375 
Q 36.625 -13.375 41.015625 -8.765625 
Q 45.40625 -4.15625 45.40625 5.171875 
L 45.40625 9.625 
Q 42.625 4.78125 38.28125 2.390625 
Q 33.9375 0 27.875 0 
Q 17.828125 0 11.671875 7.65625 
Q 5.515625 15.328125 5.515625 27.984375 
Q 5.515625 40.671875 11.671875 48.328125 
Q 17.828125 56 27.875 56 
Q 33.9375 56 38.28125 53.609375 
Q 42.625 51.21875 45.40625 46.390625 
L 45.40625 54.6875 
L 54.390625 54.6875 
z
" id="DejaVuSans-103"/>
      </defs>
      <g style="fill:#4d4d4d;" transform="translate(7.2 117.90798)scale(0.088 -0.088)">
       <use xlink:href="#DejaVuSans-80"/>
       <use x="60.240234" xlink:href="#DejaVuSans-97"/>
       <use x="121.519531" xlink:href="#DejaVuSans-108"/>
       <use x="149.302734" xlink:href="#DejaVuSans-109"/>
       <use x="246.714844" xlink:href="#DejaVuSans-97"/>
       <use x="307.994141" xlink:href="#DejaVuSans-114"/>
       <use x="349.107422" xlink:href="#DejaVuSans-95"/>
       <use x="399.107422" xlink:href="#DejaVuSans-73"/>
       <use x="428.599609" xlink:href="#DejaVuSans-110"/>
       <use x="491.978516" xlink:href="#DejaVuSans-100"/>
       <use x="555.455078" xlink:href="#DejaVuSans-101"/>
       <use x="616.962891" xlink:href="#DejaVuSans-120"/>
       <use x="676.142578" xlink:href="#DejaVuSans-95"/>
       <use x="726.142578" xlink:href="#DejaVuSans-70"/>
       <use x="783.552734" xlink:href="#DejaVuSans-105"/>
       <use x="811.335938" xlink:href="#DejaVuSans-110"/>
       <use x="874.714844" xlink:href="#DejaVuSans-103"/>
       <use x="938.191406" xlink:href="#DejaVuSans-101"/>
       <use x="999.714844" xlink:href="#DejaVuSans-114"/>
      </g>
     </g>
    </g>
    <g id="ytick_8">
     <g id="line2d_33">
      <path clip-path="url(#pc99cb09eec)" d="M 103.74425 104.66 
L 211.98425 104.66 
" style="fill:none;stroke:#e5e5e5;stroke-width:0.8;"/>
     </g>
     <g id="line2d_34">
      <path d="M 103.74425 104.66 
" style="fill:none;stroke:#000000;stroke-width:1.5;"/>
      <g>
       <use style="stroke:#000000;" x="103.74425" xlink:href="#mce54abf755" y="104.66"/>
      </g>
     </g>
     <g id="text_13">
      <!-- Pinna -->
      <g style="fill:#4d4d4d;" transform="translate(74.499375 107.08825)scale(0.088 -0.088)">
       <use xlink:href="#DejaVuSans-80"/>
       <use x="60.271484" xlink:href="#DejaVuSans-105"/>
       <use x="88.054688" xlink:href="#DejaVuSans-110"/>
       <use x="151.433594" xlink:href="#DejaVuSans-110"/>
       <use x="214.8125" xlink:href="#DejaVuSans-97"/>
      </g>
     </g>
    </g>
    <g id="ytick_9">
     <g id="line2d_35">
      <path clip-path="url(#pc99cb09eec)" d="M 103.74425 93.717895 
L 211.98425 93.717895 
" style="fill:none;stroke:#e5e5e5;stroke-width:0.8;"/>
     </g>
     <g id="line2d_36">
      <path d="M 103.74425 93.717895 
" style="fill:none;stroke:#000000;stroke-width:1.5;"/>
      <g>
       <use style="stroke:#000000;" x="103.74425" xlink:href="#mce54abf755" y="93.717895"/>
      </g>
     </g>
     <g id="text_14">
      <!-- Plantar_Foot -->
      <g style="fill:#4d4d4d;" transform="translate(43.93725 96.02377)scale(0.088 -0.088)">
       <use xlink:href="#DejaVuSans-80"/>
       <use x="60.302734" xlink:href="#DejaVuSans-108"/>
       <use x="88.085938" xlink:href="#DejaVuSans-97"/>
       <use x="149.365234" xlink:href="#DejaVuSans-110"/>
       <use x="212.744141" xlink:href="#DejaVuSans-116"/>
       <use x="251.953125" xlink:href="#DejaVuSans-97"/>
       <use x="313.232422" xlink:href="#DejaVuSans-114"/>
       <use x="354.345703" xlink:href="#DejaVuSans-95"/>
       <use x="404.345703" xlink:href="#DejaVuSans-70"/>
       <use x="461.818359" xlink:href="#DejaVuSans-111"/>
       <use x="523" xlink:href="#DejaVuSans-111"/>
       <use x="584.181641" xlink:href="#DejaVuSans-116"/>
      </g>
     </g>
    </g>
    <g id="ytick_10">
     <g id="line2d_37">
      <path clip-path="url(#pc99cb09eec)" d="M 103.74425 82.775789 
L 211.98425 82.775789 
" style="fill:none;stroke:#e5e5e5;stroke-width:0.8;"/>
     </g>
     <g id="line2d_38">
      <path d="M 103.74425 82.775789 
" style="fill:none;stroke:#000000;stroke-width:1.5;"/>
      <g>
       <use style="stroke:#000000;" x="103.74425" xlink:href="#mce54abf755" y="82.775789"/>
      </g>
     </g>
     <g id="text_15">
      <!-- Popliteal_Fossa -->
      <defs>
       <path d="M 18.109375 8.203125 
L 18.109375 -20.796875 
L 9.078125 -20.796875 
L 9.078125 54.6875 
L 18.109375 54.6875 
L 18.109375 46.390625 
Q 20.953125 51.265625 25.265625 53.625 
Q 29.59375 56 35.59375 56 
Q 45.5625 56 51.78125 48.09375 
Q 58.015625 40.1875 58.015625 27.296875 
Q 58.015625 14.40625 51.78125 6.484375 
Q 45.5625 -1.421875 35.59375 -1.421875 
Q 29.59375 -1.421875 25.265625 0.953125 
Q 20.953125 3.328125 18.109375 8.203125 
z
M 48.6875 27.296875 
Q 48.6875 37.203125 44.609375 42.84375 
Q 40.53125 48.484375 33.40625 48.484375 
Q 26.265625 48.484375 22.1875 42.84375 
Q 18.109375 37.203125 18.109375 27.296875 
Q 18.109375 17.390625 22.1875 11.75 
Q 26.265625 6.109375 33.40625 6.109375 
Q 40.53125 6.109375 44.609375 11.75 
Q 48.6875 17.390625 48.6875 27.296875 
z
" id="DejaVuSans-112"/>
      </defs>
      <g style="fill:#4d4d4d;" transform="translate(31.5265 85.081664)scale(0.088 -0.088)">
       <use xlink:href="#DejaVuSans-80"/>
       <use x="60.255859" xlink:href="#DejaVuSans-111"/>
       <use x="121.4375" xlink:href="#DejaVuSans-112"/>
       <use x="184.914062" xlink:href="#DejaVuSans-108"/>
       <use x="212.697266" xlink:href="#DejaVuSans-105"/>
       <use x="240.480469" xlink:href="#DejaVuSans-116"/>
       <use x="279.689453" xlink:href="#DejaVuSans-101"/>
       <use x="341.212891" xlink:href="#DejaVuSans-97"/>
       <use x="402.492188" xlink:href="#DejaVuSans-108"/>
       <use x="430.275391" xlink:href="#DejaVuSans-95"/>
       <use x="480.275391" xlink:href="#DejaVuSans-70"/>
       <use x="537.748047" xlink:href="#DejaVuSans-111"/>
       <use x="598.929688" xlink:href="#DejaVuSans-115"/>
       <use x="651.029297" xlink:href="#DejaVuSans-115"/>
       <use x="703.128906" xlink:href="#DejaVuSans-97"/>
      </g>
     </g>
    </g>
    <g id="ytick_11">
     <g id="line2d_39">
      <path clip-path="url(#pc99cb09eec)" d="M 103.74425 71.833684 
L 211.98425 71.833684 
" style="fill:none;stroke:#e5e5e5;stroke-width:0.8;"/>
     </g>
     <g id="line2d_40">
      <path d="M 103.74425 71.833684 
" style="fill:none;stroke:#000000;stroke-width:1.5;"/>
      <g>
       <use style="stroke:#000000;" x="103.74425" xlink:href="#mce54abf755" y="71.833684"/>
      </g>
     </g>
     <g id="text_16">
      <!-- Umbilicus -->
      <defs>
       <path d="M 8.6875 72.90625 
L 18.609375 72.90625 
L 18.609375 28.609375 
Q 18.609375 16.890625 22.84375 11.734375 
Q 27.09375 6.59375 36.625 6.59375 
Q 46.09375 6.59375 50.34375 11.734375 
Q 54.59375 16.890625 54.59375 28.609375 
L 54.59375 72.90625 
L 64.5 72.90625 
L 64.5 27.390625 
Q 64.5 13.140625 57.4375 5.859375 
Q 50.390625 -1.421875 36.625 -1.421875 
Q 22.796875 -1.421875 15.734375 5.859375 
Q 8.6875 13.140625 8.6875 27.390625 
z
" id="DejaVuSans-85"/>
       <path d="M 48.78125 52.59375 
L 48.78125 44.1875 
Q 44.96875 46.296875 41.140625 47.34375 
Q 37.3125 48.390625 33.40625 48.390625 
Q 24.65625 48.390625 19.8125 42.84375 
Q 14.984375 37.3125 14.984375 27.296875 
Q 14.984375 17.28125 19.8125 11.734375 
Q 24.65625 6.203125 33.40625 6.203125 
Q 37.3125 6.203125 41.140625 7.25 
Q 44.96875 8.296875 48.78125 10.40625 
L 48.78125 2.09375 
Q 45.015625 0.34375 40.984375 -0.53125 
Q 36.96875 -1.421875 32.421875 -1.421875 
Q 20.0625 -1.421875 12.78125 6.34375 
Q 5.515625 14.109375 5.515625 27.296875 
Q 5.515625 40.671875 12.859375 48.328125 
Q 20.21875 56 33.015625 56 
Q 37.15625 56 41.109375 55.140625 
Q 45.0625 54.296875 48.78125 52.59375 
z
" id="DejaVuSans-99"/>
       <path d="M 8.5 21.578125 
L 8.5 54.6875 
L 17.484375 54.6875 
L 17.484375 21.921875 
Q 17.484375 14.15625 20.5 10.265625 
Q 23.53125 6.390625 29.59375 6.390625 
Q 36.859375 6.390625 41.078125 11.03125 
Q 45.3125 15.671875 45.3125 23.6875 
L 45.3125 54.6875 
L 54.296875 54.6875 
L 54.296875 0 
L 45.3125 0 
L 45.3125 8.40625 
Q 42.046875 3.421875 37.71875 1 
Q 33.40625 -1.421875 27.6875 -1.421875 
Q 18.265625 -1.421875 13.375 4.4375 
Q 8.5 10.296875 8.5 21.578125 
z
M 31.109375 56 
z
" id="DejaVuSans-117"/>
      </defs>
      <g style="fill:#4d4d4d;" transform="translate(55.86125 74.261934)scale(0.088 -0.088)">
       <use xlink:href="#DejaVuSans-85"/>
       <use x="73.193359" xlink:href="#DejaVuSans-109"/>
       <use x="170.605469" xlink:href="#DejaVuSans-98"/>
       <use x="234.082031" xlink:href="#DejaVuSans-105"/>
       <use x="261.865234" xlink:href="#DejaVuSans-108"/>
       <use x="289.648438" xlink:href="#DejaVuSans-105"/>
       <use x="317.431641" xlink:href="#DejaVuSans-99"/>
       <use x="372.412109" xlink:href="#DejaVuSans-117"/>
       <use x="435.791016" xlink:href="#DejaVuSans-115"/>
      </g>
     </g>
    </g>
    <g id="ytick_12">
     <g id="line2d_41">
      <path clip-path="url(#pc99cb09eec)" d="M 103.74425 60.891579 
L 211.98425 60.891579 
" style="fill:none;stroke:#e5e5e5;stroke-width:0.8;"/>
     </g>
     <g id="line2d_42">
      <path d="M 103.74425 60.891579 
" style="fill:none;stroke:#000000;stroke-width:1.5;"/>
      <g>
       <use style="stroke:#000000;" x="103.74425" xlink:href="#mce54abf755" y="60.891579"/>
      </g>
     </g>
     <g id="text_17">
      <!-- Volear_Forearm -->
      <defs>
       <path d="M 28.609375 0 
L 0.78125 72.90625 
L 11.078125 72.90625 
L 34.1875 11.53125 
L 57.328125 72.90625 
L 67.578125 72.90625 
L 39.796875 0 
z
" id="DejaVuSans-86"/>
      </defs>
      <g style="fill:#4d4d4d;" transform="translate(29.077625 63.197454)scale(0.088 -0.088)">
       <use xlink:href="#DejaVuSans-86"/>
       <use x="68.298828" xlink:href="#DejaVuSans-111"/>
       <use x="129.480469" xlink:href="#DejaVuSans-108"/>
       <use x="157.263672" xlink:href="#DejaVuSans-101"/>
       <use x="218.787109" xlink:href="#DejaVuSans-97"/>
       <use x="280.066406" xlink:href="#DejaVuSans-114"/>
       <use x="321.179688" xlink:href="#DejaVuSans-95"/>
       <use x="371.179688" xlink:href="#DejaVuSans-70"/>
       <use x="428.652344" xlink:href="#DejaVuSans-111"/>
       <use x="489.833984" xlink:href="#DejaVuSans-114"/>
       <use x="530.916016" xlink:href="#DejaVuSans-101"/>
       <use x="592.439453" xlink:href="#DejaVuSans-97"/>
       <use x="653.71875" xlink:href="#DejaVuSans-114"/>
       <use x="694.816406" xlink:href="#DejaVuSans-109"/>
      </g>
     </g>
    </g>
    <g id="ytick_13">
     <g id="line2d_43">
      <path clip-path="url(#pc99cb09eec)" d="M 103.74425 49.949474 
L 211.98425 49.949474 
" style="fill:none;stroke:#e5e5e5;stroke-width:0.8;"/>
     </g>
     <g id="line2d_44">
      <path d="M 103.74425 49.949474 
" style="fill:none;stroke:#000000;stroke-width:1.5;"/>
      <g>
       <use style="stroke:#000000;" x="103.74425" xlink:href="#mce54abf755" y="49.949474"/>
      </g>
     </g>
     <g id="text_18">
      <!-- accuracy -->
      <defs>
       <path d="M 32.171875 -5.078125 
Q 28.375 -14.84375 24.75 -17.8125 
Q 21.140625 -20.796875 15.09375 -20.796875 
L 7.90625 -20.796875 
L 7.90625 -13.28125 
L 13.1875 -13.28125 
Q 16.890625 -13.28125 18.9375 -11.515625 
Q 21 -9.765625 23.484375 -3.21875 
L 25.09375 0.875 
L 2.984375 54.6875 
L 12.5 54.6875 
L 29.59375 11.921875 
L 46.6875 54.6875 
L 56.203125 54.6875 
z
" id="DejaVuSans-121"/>
      </defs>
      <g style="fill:#4d4d4d;" transform="translate(59.08975 52.377724)scale(0.088 -0.088)">
       <use xlink:href="#DejaVuSans-97"/>
       <use x="61.279297" xlink:href="#DejaVuSans-99"/>
       <use x="116.259766" xlink:href="#DejaVuSans-99"/>
       <use x="171.240234" xlink:href="#DejaVuSans-117"/>
       <use x="234.619141" xlink:href="#DejaVuSans-114"/>
       <use x="275.732422" xlink:href="#DejaVuSans-97"/>
       <use x="337.011719" xlink:href="#DejaVuSans-99"/>
       <use x="391.992188" xlink:href="#DejaVuSans-121"/>
      </g>
     </g>
    </g>
    <g id="ytick_14">
     <g id="line2d_45">
      <path clip-path="url(#pc99cb09eec)" d="M 103.74425 39.007368 
L 211.98425 39.007368 
" style="fill:none;stroke:#e5e5e5;stroke-width:0.8;"/>
     </g>
     <g id="line2d_46">
      <path d="M 103.74425 39.007368 
" style="fill:none;stroke:#000000;stroke-width:1.5;"/>
      <g>
       <use style="stroke:#000000;" x="103.74425" xlink:href="#mce54abf755" y="39.007368"/>
      </g>
     </g>
     <g id="text_19">
      <!-- macro avg -->
      <defs>
       <path id="DejaVuSans-32"/>
       <path d="M 2.984375 54.6875 
L 12.5 54.6875 
L 29.59375 8.796875 
L 46.6875 54.6875 
L 56.203125 54.6875 
L 35.6875 0 
L 23.484375 0 
z
" id="DejaVuSans-118"/>
      </defs>
      <g style="fill:#4d4d4d;" transform="translate(52.007125 41.435618)scale(0.088 -0.088)">
       <use xlink:href="#DejaVuSans-109"/>
       <use x="97.412109" xlink:href="#DejaVuSans-97"/>
       <use x="158.691406" xlink:href="#DejaVuSans-99"/>
       <use x="213.671875" xlink:href="#DejaVuSans-114"/>
       <use x="254.753906" xlink:href="#DejaVuSans-111"/>
       <use x="315.935547" xlink:href="#DejaVuSans-32"/>
       <use x="347.722656" xlink:href="#DejaVuSans-97"/>
       <use x="409.001953" xlink:href="#DejaVuSans-118"/>
       <use x="468.181641" xlink:href="#DejaVuSans-103"/>
      </g>
     </g>
    </g>
    <g id="ytick_15">
     <g id="line2d_47">
      <path clip-path="url(#pc99cb09eec)" d="M 103.74425 28.065263 
L 211.98425 28.065263 
" style="fill:none;stroke:#e5e5e5;stroke-width:0.8;"/>
     </g>
     <g id="line2d_48">
      <path d="M 103.74425 28.065263 
" style="fill:none;stroke:#000000;stroke-width:1.5;"/>
      <g>
       <use style="stroke:#000000;" x="103.74425" xlink:href="#mce54abf755" y="28.065263"/>
      </g>
     </g>
     <g id="text_20">
      <!-- weighted avg -->
      <defs>
       <path d="M 4.203125 54.6875 
L 13.1875 54.6875 
L 24.421875 12.015625 
L 35.59375 54.6875 
L 46.1875 54.6875 
L 57.421875 12.015625 
L 68.609375 54.6875 
L 77.59375 54.6875 
L 63.28125 0 
L 52.6875 0 
L 40.921875 44.828125 
L 29.109375 0 
L 18.5 0 
z
" id="DejaVuSans-119"/>
      </defs>
      <g style="fill:#4d4d4d;" transform="translate(39.1385 30.493513)scale(0.088 -0.088)">
       <use xlink:href="#DejaVuSans-119"/>
       <use x="81.787109" xlink:href="#DejaVuSans-101"/>
       <use x="143.310547" xlink:href="#DejaVuSans-105"/>
       <use x="171.09375" xlink:href="#DejaVuSans-103"/>
       <use x="234.570312" xlink:href="#DejaVuSans-104"/>
       <use x="297.949219" xlink:href="#DejaVuSans-116"/>
       <use x="337.158203" xlink:href="#DejaVuSans-101"/>
       <use x="398.681641" xlink:href="#DejaVuSans-100"/>
       <use x="462.158203" xlink:href="#DejaVuSans-32"/>
       <use x="493.945312" xlink:href="#DejaVuSans-97"/>
       <use x="555.224609" xlink:href="#DejaVuSans-118"/>
       <use x="614.404297" xlink:href="#DejaVuSans-103"/>
      </g>
     </g>
    </g>
   </g>
   <g id="PathCollection_1">
    <path clip-path="url(#pc99cb09eec)" d="M 201.16025 183.027191 
C 201.63031 183.027191 202.081181 182.840434 202.413564 182.508051 
C 202.745947 182.175668 202.932704 181.724797 202.932704 181.254737 
C 202.932704 180.784677 202.745947 180.333805 202.413564 180.001423 
C 202.081181 179.66904 201.63031 179.482283 201.16025 179.482283 
C 200.69019 179.482283 200.239319 179.66904 199.906936 180.001423 
C 199.574553 180.333805 199.387796 180.784677 199.387796 181.254737 
C 199.387796 181.724797 199.574553 182.175668 199.906936 182.508051 
C 200.239319 182.840434 200.69019 183.027191 201.16025 183.027191 
z
" style="fill:#db5f57;stroke:#000000;stroke-width:0.886227;"/>
    <path clip-path="url(#pc99cb09eec)" d="M 199.19225 172.085085 
C 199.66231 172.085085 200.113181 171.898329 200.445564 171.565946 
C 200.777947 171.233563 200.964704 170.782692 200.964704 170.312632 
C 200.964704 169.842571 200.777947 169.3917 200.445564 169.059317 
C 200.113181 168.726935 199.66231 168.540178 199.19225 168.540178 
C 198.72219 168.540178 198.271319 168.726935 197.938936 169.059317 
C 197.606553 169.3917 197.419796 169.842571 197.419796 170.312632 
C 197.419796 170.782692 197.606553 171.233563 197.938936 171.565946 
C 198.271319 171.898329 198.72219 172.085085 199.19225 172.085085 
z
" style="fill:#db9457;stroke:#000000;stroke-width:0.886227;"/>
    <path clip-path="url(#pc99cb09eec)" d="M 195.25625 161.14298 
C 195.72631 161.14298 196.177181 160.956223 196.509564 160.62384 
C 196.841947 160.291458 197.028704 159.840587 197.028704 159.370526 
C 197.028704 158.900466 196.841947 158.449595 196.509564 158.117212 
C 196.177181 157.784829 195.72631 157.598072 195.25625 157.598072 
C 194.78619 157.598072 194.335319 157.784829 194.002936 158.117212 
C 193.670553 158.449595 193.483796 158.900466 193.483796 159.370526 
C 193.483796 159.840587 193.670553 160.291458 194.002936 160.62384 
C 194.335319 160.956223 194.78619 161.14298 195.25625 161.14298 
z
" style="fill:#dbc957;stroke:#000000;stroke-width:0.886227;"/>
    <path clip-path="url(#pc99cb09eec)" d="M 205.09625 150.200875 
C 205.56631 150.200875 206.017181 150.014118 206.349564 149.681735 
C 206.681947 149.349352 206.868704 148.898481 206.868704 148.428421 
C 206.868704 147.958361 206.681947 147.50749 206.349564 147.175107 
C 206.017181 146.842724 205.56631 146.655967 205.09625 146.655967 
C 204.62619 146.655967 204.175319 146.842724 203.842936 147.175107 
C 203.510553 147.50749 203.323796 147.958361 203.323796 148.428421 
C 203.323796 148.898481 203.510553 149.349352 203.842936 149.681735 
C 204.175319 150.014118 204.62619 150.200875 205.09625 150.200875 
z
" style="fill:#b9db57;stroke:#000000;stroke-width:0.886227;"/>
    <path clip-path="url(#pc99cb09eec)" d="M 207.06425 139.25877 
C 207.53431 139.25877 207.985181 139.072013 208.317564 138.73963 
C 208.649947 138.407247 208.836704 137.956376 208.836704 137.486316 
C 208.836704 137.016256 208.649947 136.565384 208.317564 136.233002 
C 207.985181 135.900619 207.53431 135.713862 207.06425 135.713862 
C 206.59419 135.713862 206.143319 135.900619 205.810936 136.233002 
C 205.478553 136.565384 205.291796 137.016256 205.291796 137.486316 
C 205.291796 137.956376 205.478553 138.407247 205.810936 138.73963 
C 206.143319 139.072013 206.59419 139.25877 207.06425 139.25877 
z
" style="fill:#84db57;stroke:#000000;stroke-width:0.886227;"/>
    <path clip-path="url(#pc99cb09eec)" d="M 162.78425 128.316664 
C 163.25431 128.316664 163.705181 128.129907 164.037564 127.797525 
C 164.369947 127.465142 164.556704 127.014271 164.556704 126.544211 
C 164.556704 126.07415 164.369947 125.623279 164.037564 125.290896 
C 163.705181 124.958514 163.25431 124.771757 162.78425 124.771757 
C 162.31419 124.771757 161.863319 124.958514 161.530936 125.290896 
C 161.198553 125.623279 161.011796 126.07415 161.011796 126.544211 
C 161.011796 127.014271 161.198553 127.465142 161.530936 127.797525 
C 161.863319 128.129907 162.31419 128.316664 162.78425 128.316664 
z
" style="fill:#57db5f;stroke:#000000;stroke-width:0.886227;"/>
    <path clip-path="url(#pc99cb09eec)" d="M 188.36825 117.374559 
C 188.83831 117.374559 189.289181 117.187802 189.621564 116.855419 
C 189.953947 116.523037 190.140704 116.072166 190.140704 115.602105 
C 190.140704 115.132045 189.953947 114.681174 189.621564 114.348791 
C 189.289181 114.016408 188.83831 113.829651 188.36825 113.829651 
C 187.89819 113.829651 187.447319 114.016408 187.114936 114.348791 
C 186.782553 114.681174 186.595796 115.132045 186.595796 115.602105 
C 186.595796 116.072166 186.782553 116.523037 187.114936 116.855419 
C 187.447319 117.187802 187.89819 117.374559 188.36825 117.374559 
z
" style="fill:#57db94;stroke:#000000;stroke-width:0.886227;"/>
    <path clip-path="url(#pc99cb09eec)" d="M 200.17625 106.432454 
C 200.64631 106.432454 201.097181 106.245697 201.429564 105.913314 
C 201.761947 105.580931 201.948704 105.13006 201.948704 104.66 
C 201.948704 104.18994 201.761947 103.739069 201.429564 103.406686 
C 201.097181 103.074303 200.64631 102.887546 200.17625 102.887546 
C 199.70619 102.887546 199.255319 103.074303 198.922936 103.406686 
C 198.590553 103.739069 198.403796 104.18994 198.403796 104.66 
C 198.403796 105.13006 198.590553 105.580931 198.922936 105.913314 
C 199.255319 106.245697 199.70619 106.432454 200.17625 106.432454 
z
" style="fill:#57dbc9;stroke:#000000;stroke-width:0.886227;"/>
    <path clip-path="url(#pc99cb09eec)" d="M 202.14425 95.490349 
C 202.61431 95.490349 203.065181 95.303592 203.397564 94.971209 
C 203.729947 94.638826 203.916704 94.187955 203.916704 93.717895 
C 203.916704 93.247834 203.729947 92.796963 203.397564 92.464581 
C 203.065181 92.132198 202.61431 91.945441 202.14425 91.945441 
C 201.67419 91.945441 201.223319 92.132198 200.890936 92.464581 
C 200.558553 92.796963 200.371796 93.247834 200.371796 93.717895 
C 200.371796 94.187955 200.558553 94.638826 200.890936 94.971209 
C 201.223319 95.303592 201.67419 95.490349 202.14425 95.490349 
z
" style="fill:#57b9db;stroke:#000000;stroke-width:0.886227;"/>
    <path clip-path="url(#pc99cb09eec)" d="M 196.24025 84.548243 
C 196.71031 84.548243 197.161181 84.361486 197.493564 84.029104 
C 197.825947 83.696721 198.012704 83.24585 198.012704 82.775789 
C 198.012704 82.305729 197.825947 81.854858 197.493564 81.522475 
C 197.161181 81.190093 196.71031 81.003336 196.24025 81.003336 
C 195.77019 81.003336 195.319319 81.190093 194.986936 81.522475 
C 194.654553 81.854858 194.467796 82.305729 194.467796 82.775789 
C 194.467796 83.24585 194.654553 83.696721 194.986936 84.029104 
C 195.319319 84.361486 195.77019 84.548243 196.24025 84.548243 
z
" style="fill:#5784db;stroke:#000000;stroke-width:0.886227;"/>
    <path clip-path="url(#pc99cb09eec)" d="M 205.09625 73.606138 
C 205.56631 73.606138 206.017181 73.419381 206.349564 73.086998 
C 206.681947 72.754616 206.868704 72.303744 206.868704 71.833684 
C 206.868704 71.363624 206.681947 70.912753 206.349564 70.58037 
C 206.017181 70.247987 205.56631 70.06123 205.09625 70.06123 
C 204.62619 70.06123 204.175319 70.247987 203.842936 70.58037 
C 203.510553 70.912753 203.323796 71.363624 203.323796 71.833684 
C 203.323796 72.303744 203.510553 72.754616 203.842936 73.086998 
C 204.175319 73.419381 204.62619 73.606138 205.09625 73.606138 
z
" style="fill:#5f57db;stroke:#000000;stroke-width:0.886227;"/>
    <path clip-path="url(#pc99cb09eec)" d="M 197.22425 62.664033 
C 197.69431 62.664033 198.145181 62.477276 198.477564 62.144893 
C 198.809947 61.81251 198.996704 61.361639 198.996704 60.891579 
C 198.996704 60.421519 198.809947 59.970648 198.477564 59.638265 
C 198.145181 59.305882 197.69431 59.119125 197.22425 59.119125 
C 196.75419 59.119125 196.303319 59.305882 195.970936 59.638265 
C 195.638553 59.970648 195.451796 60.421519 195.451796 60.891579 
C 195.451796 61.361639 195.638553 61.81251 195.970936 62.144893 
C 196.303319 62.477276 196.75419 62.664033 197.22425 62.664033 
z
" style="fill:#9457db;stroke:#000000;stroke-width:0.886227;"/>
    <path clip-path="url(#pc99cb09eec)" d="M 197.22425 51.721928 
C 197.69431 51.721928 198.145181 51.535171 198.477564 51.202788 
C 198.809947 50.870405 198.996704 50.419534 198.996704 49.949474 
C 198.996704 49.479413 198.809947 49.028542 198.477564 48.69616 
C 198.145181 48.363777 197.69431 48.17702 197.22425 48.17702 
C 196.75419 48.17702 196.303319 48.363777 195.970936 48.69616 
C 195.638553 49.028542 195.451796 49.479413 195.451796 49.949474 
C 195.451796 50.419534 195.638553 50.870405 195.970936 51.202788 
C 196.303319 51.535171 196.75419 51.721928 197.22425 51.721928 
z
" style="fill:#c957db;stroke:#000000;stroke-width:0.886227;"/>
    <path clip-path="url(#pc99cb09eec)" d="M 196.24025 40.779822 
C 196.71031 40.779822 197.161181 40.593065 197.493564 40.260683 
C 197.825947 39.9283 198.012704 39.477429 198.012704 39.007368 
C 198.012704 38.537308 197.825947 38.086437 197.493564 37.754054 
C 197.161181 37.421671 196.71031 37.234915 196.24025 37.234915 
C 195.77019 37.234915 195.319319 37.421671 194.986936 37.754054 
C 194.654553 38.086437 194.467796 38.537308 194.467796 39.007368 
C 194.467796 39.477429 194.654553 39.9283 194.986936 40.260683 
C 195.319319 40.593065 195.77019 40.779822 196.24025 40.779822 
z
" style="fill:#db57b9;stroke:#000000;stroke-width:0.886227;"/>
    <path clip-path="url(#pc99cb09eec)" d="M 196.24025 29.837717 
C 196.71031 29.837717 197.161181 29.65096 197.493564 29.318577 
C 197.825947 28.986195 198.012704 28.535323 198.012704 28.065263 
C 198.012704 27.595203 197.825947 27.144332 197.493564 26.811949 
C 197.161181 26.479566 196.71031 26.292809 196.24025 26.292809 
C 195.77019 26.292809 195.319319 26.479566 194.986936 26.811949 
C 194.654553 27.144332 194.467796 27.595203 194.467796 28.065263 
C 194.467796 28.535323 194.654553 28.986195 194.986936 29.318577 
C 195.319319 29.65096 195.77019 29.837717 196.24025 29.837717 
z
" style="fill:#db5784;stroke:#000000;stroke-width:0.886227;"/>
   </g>
   <g id="patch_3">
    <path d="M 103.74425 21.5 
L 211.98425 21.5 
L 211.98425 7.2 
L 103.74425 7.2 
z
" style="fill:#cccccc;stroke:#7f7f7f;stroke-linejoin:miter;"/>
   </g>
   <g id="text_21">
    <!-- f1-score -->
    <defs>
     <path d="M 37.109375 75.984375 
L 37.109375 68.5 
L 28.515625 68.5 
Q 23.6875 68.5 21.796875 66.546875 
Q 19.921875 64.59375 19.921875 59.515625 
L 19.921875 54.6875 
L 34.71875 54.6875 
L 34.71875 47.703125 
L 19.921875 47.703125 
L 19.921875 0 
L 10.890625 0 
L 10.890625 47.703125 
L 2.296875 47.703125 
L 2.296875 54.6875 
L 10.890625 54.6875 
L 10.890625 58.5 
Q 10.890625 67.625 15.140625 71.796875 
Q 19.390625 75.984375 28.609375 75.984375 
z
" id="DejaVuSans-102"/>
     <path d="M 4.890625 31.390625 
L 31.203125 31.390625 
L 31.203125 23.390625 
L 4.890625 23.390625 
z
" id="DejaVuSans-45"/>
    </defs>
    <g style="fill:#1a1a1a;" transform="translate(140.009875 16.77825)scale(0.088 -0.088)">
     <use xlink:href="#DejaVuSans-102"/>
     <use x="35.205078" xlink:href="#DejaVuSans-49"/>
     <use x="98.828125" xlink:href="#DejaVuSans-45"/>
     <use x="134.912109" xlink:href="#DejaVuSans-115"/>
     <use x="187.011719" xlink:href="#DejaVuSans-99"/>
     <use x="241.992188" xlink:href="#DejaVuSans-111"/>
     <use x="303.173828" xlink:href="#DejaVuSans-114"/>
     <use x="344.255859" xlink:href="#DejaVuSans-101"/>
    </g>
   </g>
  </g>
  <g id="axes_2">
   <g id="patch_4">
    <path d="M 217.02425 187.82 
L 325.26425 187.82 
L 325.26425 21.5 
L 217.02425 21.5 
z
" style="fill:#ffffff;stroke:#7f7f7f;stroke-linejoin:miter;"/>
   </g>
   <g id="matplotlib.axis_3">
    <g id="xtick_10">
     <g id="line2d_49">
      <path clip-path="url(#p5e06966522)" d="M 221.94425 187.82 
L 221.94425 21.5 
" style="fill:none;stroke:#e5e5e5;stroke-linecap:square;stroke-width:0.8;"/>
     </g>
     <g id="line2d_50">
      <path d="M 221.94425 187.82 
" style="fill:none;stroke:#000000;stroke-linecap:square;stroke-width:1.5;"/>
      <g>
       <use style="stroke:#000000;" x="221.94425" xlink:href="#m092c01796c" y="187.82"/>
      </g>
     </g>
     <g id="text_22">
      <!-- 0 -->
      <g style="fill:#4d4d4d;" transform="translate(219.14475 199.456625)scale(0.088 -0.088)">
       <use xlink:href="#DejaVuSans-48"/>
      </g>
     </g>
    </g>
    <g id="xtick_11">
     <g id="line2d_51">
      <path clip-path="url(#p5e06966522)" d="M 246.54425 187.82 
L 246.54425 21.5 
" style="fill:none;stroke:#e5e5e5;stroke-linecap:square;stroke-width:0.8;"/>
     </g>
     <g id="line2d_52">
      <path d="M 246.54425 187.82 
" style="fill:none;stroke:#000000;stroke-linecap:square;stroke-width:1.5;"/>
      <g>
       <use style="stroke:#000000;" x="246.54425" xlink:href="#m092c01796c" y="187.82"/>
      </g>
     </g>
     <g id="text_23">
      <!-- 0.25 -->
      <g style="fill:#4d4d4d;" transform="translate(236.747375 199.456625)scale(0.088 -0.088)">
       <use xlink:href="#DejaVuSans-48"/>
       <use x="63.623047" xlink:href="#DejaVuSans-46"/>
       <use x="95.410156" xlink:href="#DejaVuSans-50"/>
       <use x="159.033203" xlink:href="#DejaVuSans-53"/>
      </g>
     </g>
    </g>
    <g id="xtick_12">
     <g id="line2d_53">
      <path clip-path="url(#p5e06966522)" d="M 271.14425 187.82 
L 271.14425 21.5 
" style="fill:none;stroke:#e5e5e5;stroke-linecap:square;stroke-width:0.8;"/>
     </g>
     <g id="line2d_54">
      <path d="M 271.14425 187.82 
" style="fill:none;stroke:#000000;stroke-linecap:square;stroke-width:1.5;"/>
      <g>
       <use style="stroke:#000000;" x="271.14425" xlink:href="#m092c01796c" y="187.82"/>
      </g>
     </g>
     <g id="text_24">
      <!-- 0.50 -->
      <g style="fill:#4d4d4d;" transform="translate(261.347375 199.456625)scale(0.088 -0.088)">
       <use xlink:href="#DejaVuSans-48"/>
       <use x="63.623047" xlink:href="#DejaVuSans-46"/>
       <use x="95.410156" xlink:href="#DejaVuSans-53"/>
       <use x="159.033203" xlink:href="#DejaVuSans-48"/>
      </g>
     </g>
    </g>
    <g id="xtick_13">
     <g id="line2d_55">
      <path clip-path="url(#p5e06966522)" d="M 295.74425 187.82 
L 295.74425 21.5 
" style="fill:none;stroke:#e5e5e5;stroke-linecap:square;stroke-width:0.8;"/>
     </g>
     <g id="line2d_56">
      <path d="M 295.74425 187.82 
" style="fill:none;stroke:#000000;stroke-linecap:square;stroke-width:1.5;"/>
      <g>
       <use style="stroke:#000000;" x="295.74425" xlink:href="#m092c01796c" y="187.82"/>
      </g>
     </g>
     <g id="text_25">
      <!-- 0.75 -->
      <g style="fill:#4d4d4d;" transform="translate(285.947375 199.456625)scale(0.088 -0.088)">
       <use xlink:href="#DejaVuSans-48"/>
       <use x="63.623047" xlink:href="#DejaVuSans-46"/>
       <use x="95.410156" xlink:href="#DejaVuSans-55"/>
       <use x="159.033203" xlink:href="#DejaVuSans-53"/>
      </g>
     </g>
    </g>
    <g id="xtick_14">
     <g id="line2d_57">
      <path clip-path="url(#p5e06966522)" d="M 320.34425 187.82 
L 320.34425 21.5 
" style="fill:none;stroke:#e5e5e5;stroke-linecap:square;stroke-width:0.8;"/>
     </g>
     <g id="line2d_58">
      <path d="M 320.34425 187.82 
" style="fill:none;stroke:#000000;stroke-linecap:square;stroke-width:1.5;"/>
      <g>
       <use style="stroke:#000000;" x="320.34425" xlink:href="#m092c01796c" y="187.82"/>
      </g>
     </g>
     <g id="text_26">
      <!-- 1 -->
      <g style="fill:#4d4d4d;" transform="translate(317.54475 199.456625)scale(0.088 -0.088)">
       <use xlink:href="#DejaVuSans-49"/>
      </g>
     </g>
    </g>
    <g id="xtick_15">
     <g id="line2d_59">
      <path clip-path="url(#p5e06966522)" d="M 234.24425 187.82 
L 234.24425 21.5 
" style="fill:none;stroke:#fafafa;stroke-linecap:square;"/>
     </g>
     <g id="line2d_60">
      <path d="M 234.24425 187.82 
" style="fill:none;stroke:#000000;stroke-linecap:square;stroke-width:1.5;"/>
      <g>
       <use style="stroke:#000000;" x="234.24425" xlink:href="#m42f2324bb1" y="187.82"/>
      </g>
     </g>
    </g>
    <g id="xtick_16">
     <g id="line2d_61">
      <path clip-path="url(#p5e06966522)" d="M 258.84425 187.82 
L 258.84425 21.5 
" style="fill:none;stroke:#fafafa;stroke-linecap:square;"/>
     </g>
     <g id="line2d_62">
      <path d="M 258.84425 187.82 
" style="fill:none;stroke:#000000;stroke-linecap:square;stroke-width:1.5;"/>
      <g>
       <use style="stroke:#000000;" x="258.84425" xlink:href="#m42f2324bb1" y="187.82"/>
      </g>
     </g>
    </g>
    <g id="xtick_17">
     <g id="line2d_63">
      <path clip-path="url(#p5e06966522)" d="M 283.44425 187.82 
L 283.44425 21.5 
" style="fill:none;stroke:#fafafa;stroke-linecap:square;"/>
     </g>
     <g id="line2d_64">
      <path d="M 283.44425 187.82 
" style="fill:none;stroke:#000000;stroke-linecap:square;stroke-width:1.5;"/>
      <g>
       <use style="stroke:#000000;" x="283.44425" xlink:href="#m42f2324bb1" y="187.82"/>
      </g>
     </g>
    </g>
    <g id="xtick_18">
     <g id="line2d_65">
      <path clip-path="url(#p5e06966522)" d="M 308.04425 187.82 
L 308.04425 21.5 
" style="fill:none;stroke:#fafafa;stroke-linecap:square;"/>
     </g>
     <g id="line2d_66">
      <path d="M 308.04425 187.82 
" style="fill:none;stroke:#000000;stroke-linecap:square;stroke-width:1.5;"/>
      <g>
       <use style="stroke:#000000;" x="308.04425" xlink:href="#m42f2324bb1" y="187.82"/>
      </g>
     </g>
    </g>
   </g>
   <g id="matplotlib.axis_4">
    <g id="ytick_16">
     <g id="line2d_67">
      <path clip-path="url(#p5e06966522)" d="M 217.02425 181.254737 
L 325.26425 181.254737 
" style="fill:none;stroke:#e5e5e5;stroke-linecap:square;stroke-width:0.8;"/>
     </g>
    </g>
    <g id="ytick_17">
     <g id="line2d_68">
      <path clip-path="url(#p5e06966522)" d="M 217.02425 170.312632 
L 325.26425 170.312632 
" style="fill:none;stroke:#e5e5e5;stroke-linecap:square;stroke-width:0.8;"/>
     </g>
    </g>
    <g id="ytick_18">
     <g id="line2d_69">
      <path clip-path="url(#p5e06966522)" d="M 217.02425 159.370526 
L 325.26425 159.370526 
" style="fill:none;stroke:#e5e5e5;stroke-linecap:square;stroke-width:0.8;"/>
     </g>
    </g>
    <g id="ytick_19">
     <g id="line2d_70">
      <path clip-path="url(#p5e06966522)" d="M 217.02425 148.428421 
L 325.26425 148.428421 
" style="fill:none;stroke:#e5e5e5;stroke-linecap:square;stroke-width:0.8;"/>
     </g>
    </g>
    <g id="ytick_20">
     <g id="line2d_71">
      <path clip-path="url(#p5e06966522)" d="M 217.02425 137.486316 
L 325.26425 137.486316 
" style="fill:none;stroke:#e5e5e5;stroke-linecap:square;stroke-width:0.8;"/>
     </g>
    </g>
    <g id="ytick_21">
     <g id="line2d_72">
      <path clip-path="url(#p5e06966522)" d="M 217.02425 126.544211 
L 325.26425 126.544211 
" style="fill:none;stroke:#e5e5e5;stroke-linecap:square;stroke-width:0.8;"/>
     </g>
    </g>
    <g id="ytick_22">
     <g id="line2d_73">
      <path clip-path="url(#p5e06966522)" d="M 217.02425 115.602105 
L 325.26425 115.602105 
" style="fill:none;stroke:#e5e5e5;stroke-linecap:square;stroke-width:0.8;"/>
     </g>
    </g>
    <g id="ytick_23">
     <g id="line2d_74">
      <path clip-path="url(#p5e06966522)" d="M 217.02425 104.66 
L 325.26425 104.66 
" style="fill:none;stroke:#e5e5e5;stroke-linecap:square;stroke-width:0.8;"/>
     </g>
    </g>
    <g id="ytick_24">
     <g id="line2d_75">
      <path clip-path="url(#p5e06966522)" d="M 217.02425 93.717895 
L 325.26425 93.717895 
" style="fill:none;stroke:#e5e5e5;stroke-linecap:square;stroke-width:0.8;"/>
     </g>
    </g>
    <g id="ytick_25">
     <g id="line2d_76">
      <path clip-path="url(#p5e06966522)" d="M 217.02425 82.775789 
L 325.26425 82.775789 
" style="fill:none;stroke:#e5e5e5;stroke-linecap:square;stroke-width:0.8;"/>
     </g>
    </g>
    <g id="ytick_26">
     <g id="line2d_77">
      <path clip-path="url(#p5e06966522)" d="M 217.02425 71.833684 
L 325.26425 71.833684 
" style="fill:none;stroke:#e5e5e5;stroke-linecap:square;stroke-width:0.8;"/>
     </g>
    </g>
    <g id="ytick_27">
     <g id="line2d_78">
      <path clip-path="url(#p5e06966522)" d="M 217.02425 60.891579 
L 325.26425 60.891579 
" style="fill:none;stroke:#e5e5e5;stroke-linecap:square;stroke-width:0.8;"/>
     </g>
    </g>
    <g id="ytick_28">
     <g id="line2d_79">
      <path clip-path="url(#p5e06966522)" d="M 217.02425 49.949474 
L 325.26425 49.949474 
" style="fill:none;stroke:#e5e5e5;stroke-linecap:square;stroke-width:0.8;"/>
     </g>
    </g>
    <g id="ytick_29">
     <g id="line2d_80">
      <path clip-path="url(#p5e06966522)" d="M 217.02425 39.007368 
L 325.26425 39.007368 
" style="fill:none;stroke:#e5e5e5;stroke-linecap:square;stroke-width:0.8;"/>
     </g>
    </g>
    <g id="ytick_30">
     <g id="line2d_81">
      <path clip-path="url(#p5e06966522)" d="M 217.02425 28.065263 
L 325.26425 28.065263 
" style="fill:none;stroke:#e5e5e5;stroke-linecap:square;stroke-width:0.8;"/>
     </g>
    </g>
   </g>
   <g id="PathCollection_2">
    <path clip-path="url(#p5e06966522)" d="M 315.42425 183.027191 
C 315.89431 183.027191 316.345181 182.840434 316.677564 182.508051 
C 317.009947 182.175668 317.196704 181.724797 317.196704 181.254737 
C 317.196704 180.784677 317.009947 180.333805 316.677564 180.001423 
C 316.345181 179.66904 315.89431 179.482283 315.42425 179.482283 
C 314.95419 179.482283 314.503319 179.66904 314.170936 180.001423 
C 313.838553 180.333805 313.651796 180.784677 313.651796 181.254737 
C 313.651796 181.724797 313.838553 182.175668 314.170936 182.508051 
C 314.503319 182.840434 314.95419 183.027191 315.42425 183.027191 
z
" style="fill:#db5f57;stroke:#000000;stroke-width:0.886227;"/>
    <path clip-path="url(#p5e06966522)" d="M 307.55225 172.085085 
C 308.02231 172.085085 308.473181 171.898329 308.805564 171.565946 
C 309.137947 171.233563 309.324704 170.782692 309.324704 170.312632 
C 309.324704 169.842571 309.137947 169.3917 308.805564 169.059317 
C 308.473181 168.726935 308.02231 168.540178 307.55225 168.540178 
C 307.08219 168.540178 306.631319 168.726935 306.298936 169.059317 
C 305.966553 169.3917 305.779796 169.842571 305.779796 170.312632 
C 305.779796 170.782692 305.966553 171.233563 306.298936 171.565946 
C 306.631319 171.898329 307.08219 172.085085 307.55225 172.085085 
z
" style="fill:#db9457;stroke:#000000;stroke-width:0.886227;"/>
    <path clip-path="url(#p5e06966522)" d="M 308.53625 161.14298 
C 309.00631 161.14298 309.457181 160.956223 309.789564 160.62384 
C 310.121947 160.291458 310.308704 159.840587 310.308704 159.370526 
C 310.308704 158.900466 310.121947 158.449595 309.789564 158.117212 
C 309.457181 157.784829 309.00631 157.598072 308.53625 157.598072 
C 308.06619 157.598072 307.615319 157.784829 307.282936 158.117212 
C 306.950553 158.449595 306.763796 158.900466 306.763796 159.370526 
C 306.763796 159.840587 306.950553 160.291458 307.282936 160.62384 
C 307.615319 160.956223 308.06619 161.14298 308.53625 161.14298 
z
" style="fill:#dbc957;stroke:#000000;stroke-width:0.886227;"/>
    <path clip-path="url(#p5e06966522)" d="M 316.40825 150.200875 
C 316.87831 150.200875 317.329181 150.014118 317.661564 149.681735 
C 317.993947 149.349352 318.180704 148.898481 318.180704 148.428421 
C 318.180704 147.958361 317.993947 147.50749 317.661564 147.175107 
C 317.329181 146.842724 316.87831 146.655967 316.40825 146.655967 
C 315.93819 146.655967 315.487319 146.842724 315.154936 147.175107 
C 314.822553 147.50749 314.635796 147.958361 314.635796 148.428421 
C 314.635796 148.898481 314.822553 149.349352 315.154936 149.681735 
C 315.487319 150.014118 315.93819 150.200875 316.40825 150.200875 
z
" style="fill:#b9db57;stroke:#000000;stroke-width:0.886227;"/>
    <path clip-path="url(#p5e06966522)" d="M 320.34425 139.25877 
C 320.81431 139.25877 321.265181 139.072013 321.597564 138.73963 
C 321.929947 138.407247 322.116704 137.956376 322.116704 137.486316 
C 322.116704 137.016256 321.929947 136.565384 321.597564 136.233002 
C 321.265181 135.900619 320.81431 135.713862 320.34425 135.713862 
C 319.87419 135.713862 319.423319 135.900619 319.090936 136.233002 
C 318.758553 136.565384 318.571796 137.016256 318.571796 137.486316 
C 318.571796 137.956376 318.758553 138.407247 319.090936 138.73963 
C 319.423319 139.072013 319.87419 139.25877 320.34425 139.25877 
z
" style="fill:#84db57;stroke:#000000;stroke-width:0.886227;"/>
    <path clip-path="url(#p5e06966522)" d="M 299.68025 128.316664 
C 300.15031 128.316664 300.601181 128.129907 300.933564 127.797525 
C 301.265947 127.465142 301.452704 127.014271 301.452704 126.544211 
C 301.452704 126.07415 301.265947 125.623279 300.933564 125.290896 
C 300.601181 124.958514 300.15031 124.771757 299.68025 124.771757 
C 299.21019 124.771757 298.759319 124.958514 298.426936 125.290896 
C 298.094553 125.623279 297.907796 126.07415 297.907796 126.544211 
C 297.907796 127.014271 298.094553 127.465142 298.426936 127.797525 
C 298.759319 128.129907 299.21019 128.316664 299.68025 128.316664 
z
" style="fill:#57db5f;stroke:#000000;stroke-width:0.886227;"/>
    <path clip-path="url(#p5e06966522)" d="M 293.77625 117.374559 
C 294.24631 117.374559 294.697181 117.187802 295.029564 116.855419 
C 295.361947 116.523037 295.548704 116.072166 295.548704 115.602105 
C 295.548704 115.132045 295.361947 114.681174 295.029564 114.348791 
C 294.697181 114.016408 294.24631 113.829651 293.77625 113.829651 
C 293.30619 113.829651 292.855319 114.016408 292.522936 114.348791 
C 292.190553 114.681174 292.003796 115.132045 292.003796 115.602105 
C 292.003796 116.072166 292.190553 116.523037 292.522936 116.855419 
C 292.855319 117.187802 293.30619 117.374559 293.77625 117.374559 
z
" style="fill:#57db94;stroke:#000000;stroke-width:0.886227;"/>
    <path clip-path="url(#p5e06966522)" d="M 315.42425 106.432454 
C 315.89431 106.432454 316.345181 106.245697 316.677564 105.913314 
C 317.009947 105.580931 317.196704 105.13006 317.196704 104.66 
C 317.196704 104.18994 317.009947 103.739069 316.677564 103.406686 
C 316.345181 103.074303 315.89431 102.887546 315.42425 102.887546 
C 314.95419 102.887546 314.503319 103.074303 314.170936 103.406686 
C 313.838553 103.739069 313.651796 104.18994 313.651796 104.66 
C 313.651796 105.13006 313.838553 105.580931 314.170936 105.913314 
C 314.503319 106.245697 314.95419 106.432454 315.42425 106.432454 
z
" style="fill:#57dbc9;stroke:#000000;stroke-width:0.886227;"/>
    <path clip-path="url(#p5e06966522)" d="M 314.44025 95.490349 
C 314.91031 95.490349 315.361181 95.303592 315.693564 94.971209 
C 316.025947 94.638826 316.212704 94.187955 316.212704 93.717895 
C 316.212704 93.247834 316.025947 92.796963 315.693564 92.464581 
C 315.361181 92.132198 314.91031 91.945441 314.44025 91.945441 
C 313.97019 91.945441 313.519319 92.132198 313.186936 92.464581 
C 312.854553 92.796963 312.667796 93.247834 312.667796 93.717895 
C 312.667796 94.187955 312.854553 94.638826 313.186936 94.971209 
C 313.519319 95.303592 313.97019 95.490349 314.44025 95.490349 
z
" style="fill:#57b9db;stroke:#000000;stroke-width:0.886227;"/>
    <path clip-path="url(#p5e06966522)" d="M 310.50425 84.548243 
C 310.97431 84.548243 311.425181 84.361486 311.757564 84.029104 
C 312.089947 83.696721 312.276704 83.24585 312.276704 82.775789 
C 312.276704 82.305729 312.089947 81.854858 311.757564 81.522475 
C 311.425181 81.190093 310.97431 81.003336 310.50425 81.003336 
C 310.03419 81.003336 309.583319 81.190093 309.250936 81.522475 
C 308.918553 81.854858 308.731796 82.305729 308.731796 82.775789 
C 308.731796 83.24585 308.918553 83.696721 309.250936 84.029104 
C 309.583319 84.361486 310.03419 84.548243 310.50425 84.548243 
z
" style="fill:#5784db;stroke:#000000;stroke-width:0.886227;"/>
    <path clip-path="url(#p5e06966522)" d="M 318.37625 73.606138 
C 318.84631 73.606138 319.297181 73.419381 319.629564 73.086998 
C 319.961947 72.754616 320.148704 72.303744 320.148704 71.833684 
C 320.148704 71.363624 319.961947 70.912753 319.629564 70.58037 
C 319.297181 70.247987 318.84631 70.06123 318.37625 70.06123 
C 317.90619 70.06123 317.455319 70.247987 317.122936 70.58037 
C 316.790553 70.912753 316.603796 71.363624 316.603796 71.833684 
C 316.603796 72.303744 316.790553 72.754616 317.122936 73.086998 
C 317.455319 73.419381 317.90619 73.606138 318.37625 73.606138 
z
" style="fill:#5f57db;stroke:#000000;stroke-width:0.886227;"/>
    <path clip-path="url(#p5e06966522)" d="M 305.58425 62.664033 
C 306.05431 62.664033 306.505181 62.477276 306.837564 62.144893 
C 307.169947 61.81251 307.356704 61.361639 307.356704 60.891579 
C 307.356704 60.421519 307.169947 59.970648 306.837564 59.638265 
C 306.505181 59.305882 306.05431 59.119125 305.58425 59.119125 
C 305.11419 59.119125 304.663319 59.305882 304.330936 59.638265 
C 303.998553 59.970648 303.811796 60.421519 303.811796 60.891579 
C 303.811796 61.361639 303.998553 61.81251 304.330936 62.144893 
C 304.663319 62.477276 305.11419 62.664033 305.58425 62.664033 
z
" style="fill:#9457db;stroke:#000000;stroke-width:0.886227;"/>
    <path clip-path="url(#p5e06966522)" d="M 310.50425 51.721928 
C 310.97431 51.721928 311.425181 51.535171 311.757564 51.202788 
C 312.089947 50.870405 312.276704 50.419534 312.276704 49.949474 
C 312.276704 49.479413 312.089947 49.028542 311.757564 48.69616 
C 311.425181 48.363777 310.97431 48.17702 310.50425 48.17702 
C 310.03419 48.17702 309.583319 48.363777 309.250936 48.69616 
C 308.918553 49.028542 308.731796 49.479413 308.731796 49.949474 
C 308.731796 50.419534 308.918553 50.870405 309.250936 51.202788 
C 309.583319 51.535171 310.03419 51.721928 310.50425 51.721928 
z
" style="fill:#c957db;stroke:#000000;stroke-width:0.886227;"/>
    <path clip-path="url(#p5e06966522)" d="M 310.50425 40.779822 
C 310.97431 40.779822 311.425181 40.593065 311.757564 40.260683 
C 312.089947 39.9283 312.276704 39.477429 312.276704 39.007368 
C 312.276704 38.537308 312.089947 38.086437 311.757564 37.754054 
C 311.425181 37.421671 310.97431 37.234915 310.50425 37.234915 
C 310.03419 37.234915 309.583319 37.421671 309.250936 37.754054 
C 308.918553 38.086437 308.731796 38.537308 308.731796 39.007368 
C 308.731796 39.477429 308.918553 39.9283 309.250936 40.260683 
C 309.583319 40.593065 310.03419 40.779822 310.50425 40.779822 
z
" style="fill:#db57b9;stroke:#000000;stroke-width:0.886227;"/>
    <path clip-path="url(#p5e06966522)" d="M 310.50425 29.837717 
C 310.97431 29.837717 311.425181 29.65096 311.757564 29.318577 
C 312.089947 28.986195 312.276704 28.535323 312.276704 28.065263 
C 312.276704 27.595203 312.089947 27.144332 311.757564 26.811949 
C 311.425181 26.479566 310.97431 26.292809 310.50425 26.292809 
C 310.03419 26.292809 309.583319 26.479566 309.250936 26.811949 
C 308.918553 27.144332 308.731796 27.595203 308.731796 28.065263 
C 308.731796 28.535323 308.918553 28.986195 309.250936 29.318577 
C 309.583319 29.65096 310.03419 29.837717 310.50425 29.837717 
z
" style="fill:#db5784;stroke:#000000;stroke-width:0.886227;"/>
   </g>
   <g id="patch_5">
    <path d="M 217.02425 21.5 
L 325.26425 21.5 
L 325.26425 7.2 
L 217.02425 7.2 
z
" style="fill:#cccccc;stroke:#7f7f7f;stroke-linejoin:miter;"/>
   </g>
   <g id="text_27">
    <!-- precision -->
    <g style="fill:#1a1a1a;" transform="translate(251.199187 16.77825)scale(0.088 -0.088)">
     <use xlink:href="#DejaVuSans-112"/>
     <use x="63.476562" xlink:href="#DejaVuSans-114"/>
     <use x="104.558594" xlink:href="#DejaVuSans-101"/>
     <use x="166.082031" xlink:href="#DejaVuSans-99"/>
     <use x="221.0625" xlink:href="#DejaVuSans-105"/>
     <use x="248.845703" xlink:href="#DejaVuSans-115"/>
     <use x="300.945312" xlink:href="#DejaVuSans-105"/>
     <use x="328.728516" xlink:href="#DejaVuSans-111"/>
     <use x="389.910156" xlink:href="#DejaVuSans-110"/>
    </g>
   </g>
  </g>
  <g id="axes_3">
   <g id="patch_6">
    <path d="M 330.30425 187.82 
L 438.54425 187.82 
L 438.54425 21.5 
L 330.30425 21.5 
z
" style="fill:#ffffff;stroke:#7f7f7f;stroke-linejoin:miter;"/>
   </g>
   <g id="matplotlib.axis_5">
    <g id="xtick_19">
     <g id="line2d_82">
      <path clip-path="url(#p4469b8b2d1)" d="M 335.22425 187.82 
L 335.22425 21.5 
" style="fill:none;stroke:#e5e5e5;stroke-linecap:square;stroke-width:0.8;"/>
     </g>
     <g id="line2d_83">
      <path d="M 335.22425 187.82 
" style="fill:none;stroke:#000000;stroke-linecap:square;stroke-width:1.5;"/>
      <g>
       <use style="stroke:#000000;" x="335.22425" xlink:href="#m092c01796c" y="187.82"/>
      </g>
     </g>
     <g id="text_28">
      <!-- 0 -->
      <g style="fill:#4d4d4d;" transform="translate(332.42475 199.456625)scale(0.088 -0.088)">
       <use xlink:href="#DejaVuSans-48"/>
      </g>
     </g>
    </g>
    <g id="xtick_20">
     <g id="line2d_84">
      <path clip-path="url(#p4469b8b2d1)" d="M 359.82425 187.82 
L 359.82425 21.5 
" style="fill:none;stroke:#e5e5e5;stroke-linecap:square;stroke-width:0.8;"/>
     </g>
     <g id="line2d_85">
      <path d="M 359.82425 187.82 
" style="fill:none;stroke:#000000;stroke-linecap:square;stroke-width:1.5;"/>
      <g>
       <use style="stroke:#000000;" x="359.82425" xlink:href="#m092c01796c" y="187.82"/>
      </g>
     </g>
     <g id="text_29">
      <!-- 0.25 -->
      <g style="fill:#4d4d4d;" transform="translate(350.027375 199.456625)scale(0.088 -0.088)">
       <use xlink:href="#DejaVuSans-48"/>
       <use x="63.623047" xlink:href="#DejaVuSans-46"/>
       <use x="95.410156" xlink:href="#DejaVuSans-50"/>
       <use x="159.033203" xlink:href="#DejaVuSans-53"/>
      </g>
     </g>
    </g>
    <g id="xtick_21">
     <g id="line2d_86">
      <path clip-path="url(#p4469b8b2d1)" d="M 384.42425 187.82 
L 384.42425 21.5 
" style="fill:none;stroke:#e5e5e5;stroke-linecap:square;stroke-width:0.8;"/>
     </g>
     <g id="line2d_87">
      <path d="M 384.42425 187.82 
" style="fill:none;stroke:#000000;stroke-linecap:square;stroke-width:1.5;"/>
      <g>
       <use style="stroke:#000000;" x="384.42425" xlink:href="#m092c01796c" y="187.82"/>
      </g>
     </g>
     <g id="text_30">
      <!-- 0.50 -->
      <g style="fill:#4d4d4d;" transform="translate(374.627375 199.456625)scale(0.088 -0.088)">
       <use xlink:href="#DejaVuSans-48"/>
       <use x="63.623047" xlink:href="#DejaVuSans-46"/>
       <use x="95.410156" xlink:href="#DejaVuSans-53"/>
       <use x="159.033203" xlink:href="#DejaVuSans-48"/>
      </g>
     </g>
    </g>
    <g id="xtick_22">
     <g id="line2d_88">
      <path clip-path="url(#p4469b8b2d1)" d="M 409.02425 187.82 
L 409.02425 21.5 
" style="fill:none;stroke:#e5e5e5;stroke-linecap:square;stroke-width:0.8;"/>
     </g>
     <g id="line2d_89">
      <path d="M 409.02425 187.82 
" style="fill:none;stroke:#000000;stroke-linecap:square;stroke-width:1.5;"/>
      <g>
       <use style="stroke:#000000;" x="409.02425" xlink:href="#m092c01796c" y="187.82"/>
      </g>
     </g>
     <g id="text_31">
      <!-- 0.75 -->
      <g style="fill:#4d4d4d;" transform="translate(399.227375 199.456625)scale(0.088 -0.088)">
       <use xlink:href="#DejaVuSans-48"/>
       <use x="63.623047" xlink:href="#DejaVuSans-46"/>
       <use x="95.410156" xlink:href="#DejaVuSans-55"/>
       <use x="159.033203" xlink:href="#DejaVuSans-53"/>
      </g>
     </g>
    </g>
    <g id="xtick_23">
     <g id="line2d_90">
      <path clip-path="url(#p4469b8b2d1)" d="M 433.62425 187.82 
L 433.62425 21.5 
" style="fill:none;stroke:#e5e5e5;stroke-linecap:square;stroke-width:0.8;"/>
     </g>
     <g id="line2d_91">
      <path d="M 433.62425 187.82 
" style="fill:none;stroke:#000000;stroke-linecap:square;stroke-width:1.5;"/>
      <g>
       <use style="stroke:#000000;" x="433.62425" xlink:href="#m092c01796c" y="187.82"/>
      </g>
     </g>
     <g id="text_32">
      <!-- 1 -->
      <g style="fill:#4d4d4d;" transform="translate(430.82475 199.456625)scale(0.088 -0.088)">
       <use xlink:href="#DejaVuSans-49"/>
      </g>
     </g>
    </g>
    <g id="xtick_24">
     <g id="line2d_92">
      <path clip-path="url(#p4469b8b2d1)" d="M 347.52425 187.82 
L 347.52425 21.5 
" style="fill:none;stroke:#fafafa;stroke-linecap:square;"/>
     </g>
     <g id="line2d_93">
      <path d="M 347.52425 187.82 
" style="fill:none;stroke:#000000;stroke-linecap:square;stroke-width:1.5;"/>
      <g>
       <use style="stroke:#000000;" x="347.52425" xlink:href="#m42f2324bb1" y="187.82"/>
      </g>
     </g>
    </g>
    <g id="xtick_25">
     <g id="line2d_94">
      <path clip-path="url(#p4469b8b2d1)" d="M 372.12425 187.82 
L 372.12425 21.5 
" style="fill:none;stroke:#fafafa;stroke-linecap:square;"/>
     </g>
     <g id="line2d_95">
      <path d="M 372.12425 187.82 
" style="fill:none;stroke:#000000;stroke-linecap:square;stroke-width:1.5;"/>
      <g>
       <use style="stroke:#000000;" x="372.12425" xlink:href="#m42f2324bb1" y="187.82"/>
      </g>
     </g>
    </g>
    <g id="xtick_26">
     <g id="line2d_96">
      <path clip-path="url(#p4469b8b2d1)" d="M 396.72425 187.82 
L 396.72425 21.5 
" style="fill:none;stroke:#fafafa;stroke-linecap:square;"/>
     </g>
     <g id="line2d_97">
      <path d="M 396.72425 187.82 
" style="fill:none;stroke:#000000;stroke-linecap:square;stroke-width:1.5;"/>
      <g>
       <use style="stroke:#000000;" x="396.72425" xlink:href="#m42f2324bb1" y="187.82"/>
      </g>
     </g>
    </g>
    <g id="xtick_27">
     <g id="line2d_98">
      <path clip-path="url(#p4469b8b2d1)" d="M 421.32425 187.82 
L 421.32425 21.5 
" style="fill:none;stroke:#fafafa;stroke-linecap:square;"/>
     </g>
     <g id="line2d_99">
      <path d="M 421.32425 187.82 
" style="fill:none;stroke:#000000;stroke-linecap:square;stroke-width:1.5;"/>
      <g>
       <use style="stroke:#000000;" x="421.32425" xlink:href="#m42f2324bb1" y="187.82"/>
      </g>
     </g>
    </g>
   </g>
   <g id="matplotlib.axis_6">
    <g id="ytick_31">
     <g id="line2d_100">
      <path clip-path="url(#p4469b8b2d1)" d="M 330.30425 181.254737 
L 438.54425 181.254737 
" style="fill:none;stroke:#e5e5e5;stroke-linecap:square;stroke-width:0.8;"/>
     </g>
    </g>
    <g id="ytick_32">
     <g id="line2d_101">
      <path clip-path="url(#p4469b8b2d1)" d="M 330.30425 170.312632 
L 438.54425 170.312632 
" style="fill:none;stroke:#e5e5e5;stroke-linecap:square;stroke-width:0.8;"/>
     </g>
    </g>
    <g id="ytick_33">
     <g id="line2d_102">
      <path clip-path="url(#p4469b8b2d1)" d="M 330.30425 159.370526 
L 438.54425 159.370526 
" style="fill:none;stroke:#e5e5e5;stroke-linecap:square;stroke-width:0.8;"/>
     </g>
    </g>
    <g id="ytick_34">
     <g id="line2d_103">
      <path clip-path="url(#p4469b8b2d1)" d="M 330.30425 148.428421 
L 438.54425 148.428421 
" style="fill:none;stroke:#e5e5e5;stroke-linecap:square;stroke-width:0.8;"/>
     </g>
    </g>
    <g id="ytick_35">
     <g id="line2d_104">
      <path clip-path="url(#p4469b8b2d1)" d="M 330.30425 137.486316 
L 438.54425 137.486316 
" style="fill:none;stroke:#e5e5e5;stroke-linecap:square;stroke-width:0.8;"/>
     </g>
    </g>
    <g id="ytick_36">
     <g id="line2d_105">
      <path clip-path="url(#p4469b8b2d1)" d="M 330.30425 126.544211 
L 438.54425 126.544211 
" style="fill:none;stroke:#e5e5e5;stroke-linecap:square;stroke-width:0.8;"/>
     </g>
    </g>
    <g id="ytick_37">
     <g id="line2d_106">
      <path clip-path="url(#p4469b8b2d1)" d="M 330.30425 115.602105 
L 438.54425 115.602105 
" style="fill:none;stroke:#e5e5e5;stroke-linecap:square;stroke-width:0.8;"/>
     </g>
    </g>
    <g id="ytick_38">
     <g id="line2d_107">
      <path clip-path="url(#p4469b8b2d1)" d="M 330.30425 104.66 
L 438.54425 104.66 
" style="fill:none;stroke:#e5e5e5;stroke-linecap:square;stroke-width:0.8;"/>
     </g>
    </g>
    <g id="ytick_39">
     <g id="line2d_108">
      <path clip-path="url(#p4469b8b2d1)" d="M 330.30425 93.717895 
L 438.54425 93.717895 
" style="fill:none;stroke:#e5e5e5;stroke-linecap:square;stroke-width:0.8;"/>
     </g>
    </g>
    <g id="ytick_40">
     <g id="line2d_109">
      <path clip-path="url(#p4469b8b2d1)" d="M 330.30425 82.775789 
L 438.54425 82.775789 
" style="fill:none;stroke:#e5e5e5;stroke-linecap:square;stroke-width:0.8;"/>
     </g>
    </g>
    <g id="ytick_41">
     <g id="line2d_110">
      <path clip-path="url(#p4469b8b2d1)" d="M 330.30425 71.833684 
L 438.54425 71.833684 
" style="fill:none;stroke:#e5e5e5;stroke-linecap:square;stroke-width:0.8;"/>
     </g>
    </g>
    <g id="ytick_42">
     <g id="line2d_111">
      <path clip-path="url(#p4469b8b2d1)" d="M 330.30425 60.891579 
L 438.54425 60.891579 
" style="fill:none;stroke:#e5e5e5;stroke-linecap:square;stroke-width:0.8;"/>
     </g>
    </g>
    <g id="ytick_43">
     <g id="line2d_112">
      <path clip-path="url(#p4469b8b2d1)" d="M 330.30425 49.949474 
L 438.54425 49.949474 
" style="fill:none;stroke:#e5e5e5;stroke-linecap:square;stroke-width:0.8;"/>
     </g>
    </g>
    <g id="ytick_44">
     <g id="line2d_113">
      <path clip-path="url(#p4469b8b2d1)" d="M 330.30425 39.007368 
L 438.54425 39.007368 
" style="fill:none;stroke:#e5e5e5;stroke-linecap:square;stroke-width:0.8;"/>
     </g>
    </g>
    <g id="ytick_45">
     <g id="line2d_114">
      <path clip-path="url(#p4469b8b2d1)" d="M 330.30425 28.065263 
L 438.54425 28.065263 
" style="fill:none;stroke:#e5e5e5;stroke-linecap:square;stroke-width:0.8;"/>
     </g>
    </g>
   </g>
   <g id="PathCollection_3">
    <path clip-path="url(#p4469b8b2d1)" d="M 427.72025 183.027191 
C 428.19031 183.027191 428.641181 182.840434 428.973564 182.508051 
C 429.305947 182.175668 429.492704 181.724797 429.492704 181.254737 
C 429.492704 180.784677 429.305947 180.333805 428.973564 180.001423 
C 428.641181 179.66904 428.19031 179.482283 427.72025 179.482283 
C 427.25019 179.482283 426.799319 179.66904 426.466936 180.001423 
C 426.134553 180.333805 425.947796 180.784677 425.947796 181.254737 
C 425.947796 181.724797 426.134553 182.175668 426.466936 182.508051 
C 426.799319 182.840434 427.25019 183.027191 427.72025 183.027191 
z
" style="fill:#db5f57;stroke:#000000;stroke-width:0.886227;"/>
    <path clip-path="url(#p4469b8b2d1)" d="M 430.67225 172.085085 
C 431.14231 172.085085 431.593181 171.898329 431.925564 171.565946 
C 432.257947 171.233563 432.444704 170.782692 432.444704 170.312632 
C 432.444704 169.842571 432.257947 169.3917 431.925564 169.059317 
C 431.593181 168.726935 431.14231 168.540178 430.67225 168.540178 
C 430.20219 168.540178 429.751319 168.726935 429.418936 169.059317 
C 429.086553 169.3917 428.899796 169.842571 428.899796 170.312632 
C 428.899796 170.782692 429.086553 171.233563 429.418936 171.565946 
C 429.751319 171.898329 430.20219 172.085085 430.67225 172.085085 
z
" style="fill:#db9457;stroke:#000000;stroke-width:0.886227;"/>
    <path clip-path="url(#p4469b8b2d1)" d="M 422.80025 161.14298 
C 423.27031 161.14298 423.721181 160.956223 424.053564 160.62384 
C 424.385947 160.291458 424.572704 159.840587 424.572704 159.370526 
C 424.572704 158.900466 424.385947 158.449595 424.053564 158.117212 
C 423.721181 157.784829 423.27031 157.598072 422.80025 157.598072 
C 422.33019 157.598072 421.879319 157.784829 421.546936 158.117212 
C 421.214553 158.449595 421.027796 158.900466 421.027796 159.370526 
C 421.027796 159.840587 421.214553 160.291458 421.546936 160.62384 
C 421.879319 160.956223 422.33019 161.14298 422.80025 161.14298 
z
" style="fill:#dbc957;stroke:#000000;stroke-width:0.886227;"/>
    <path clip-path="url(#p4469b8b2d1)" d="M 433.62425 150.200875 
C 434.09431 150.200875 434.545181 150.014118 434.877564 149.681735 
C 435.209947 149.349352 435.396704 148.898481 435.396704 148.428421 
C 435.396704 147.958361 435.209947 147.50749 434.877564 147.175107 
C 434.545181 146.842724 434.09431 146.655967 433.62425 146.655967 
C 433.15419 146.655967 432.703319 146.842724 432.370936 147.175107 
C 432.038553 147.50749 431.851796 147.958361 431.851796 148.428421 
C 431.851796 148.898481 432.038553 149.349352 432.370936 149.681735 
C 432.703319 150.014118 433.15419 150.200875 433.62425 150.200875 
z
" style="fill:#b9db57;stroke:#000000;stroke-width:0.886227;"/>
    <path clip-path="url(#p4469b8b2d1)" d="M 433.62425 139.25877 
C 434.09431 139.25877 434.545181 139.072013 434.877564 138.73963 
C 435.209947 138.407247 435.396704 137.956376 435.396704 137.486316 
C 435.396704 137.016256 435.209947 136.565384 434.877564 136.233002 
C 434.545181 135.900619 434.09431 135.713862 433.62425 135.713862 
C 433.15419 135.713862 432.703319 135.900619 432.370936 136.233002 
C 432.038553 136.565384 431.851796 137.016256 431.851796 137.486316 
C 431.851796 137.956376 432.038553 138.407247 432.370936 138.73963 
C 432.703319 139.072013 433.15419 139.25877 433.62425 139.25877 
z
" style="fill:#84db57;stroke:#000000;stroke-width:0.886227;"/>
    <path clip-path="url(#p4469b8b2d1)" d="M 376.55225 128.316664 
C 377.02231 128.316664 377.473181 128.129907 377.805564 127.797525 
C 378.137947 127.465142 378.324704 127.014271 378.324704 126.544211 
C 378.324704 126.07415 378.137947 125.623279 377.805564 125.290896 
C 377.473181 124.958514 377.02231 124.771757 376.55225 124.771757 
C 376.08219 124.771757 375.631319 124.958514 375.298936 125.290896 
C 374.966553 125.623279 374.779796 126.07415 374.779796 126.544211 
C 374.779796 127.014271 374.966553 127.465142 375.298936 127.797525 
C 375.631319 128.129907 376.08219 128.316664 376.55225 128.316664 
z
" style="fill:#57db5f;stroke:#000000;stroke-width:0.886227;"/>
    <path clip-path="url(#p4469b8b2d1)" d="M 425.75225 117.374559 
C 426.22231 117.374559 426.673181 117.187802 427.005564 116.855419 
C 427.337947 116.523037 427.524704 116.072166 427.524704 115.602105 
C 427.524704 115.132045 427.337947 114.681174 427.005564 114.348791 
C 426.673181 114.016408 426.22231 113.829651 425.75225 113.829651 
C 425.28219 113.829651 424.831319 114.016408 424.498936 114.348791 
C 424.166553 114.681174 423.979796 115.132045 423.979796 115.602105 
C 423.979796 116.072166 424.166553 116.523037 424.498936 116.855419 
C 424.831319 117.187802 425.28219 117.374559 425.75225 117.374559 
z
" style="fill:#57db94;stroke:#000000;stroke-width:0.886227;"/>
    <path clip-path="url(#p4469b8b2d1)" d="M 424.76825 106.432454 
C 425.23831 106.432454 425.689181 106.245697 426.021564 105.913314 
C 426.353947 105.580931 426.540704 105.13006 426.540704 104.66 
C 426.540704 104.18994 426.353947 103.739069 426.021564 103.406686 
C 425.689181 103.074303 425.23831 102.887546 424.76825 102.887546 
C 424.29819 102.887546 423.847319 103.074303 423.514936 103.406686 
C 423.182553 103.739069 422.995796 104.18994 422.995796 104.66 
C 422.995796 105.13006 423.182553 105.580931 423.514936 105.913314 
C 423.847319 106.245697 424.29819 106.432454 424.76825 106.432454 
z
" style="fill:#57dbc9;stroke:#000000;stroke-width:0.886227;"/>
    <path clip-path="url(#p4469b8b2d1)" d="M 428.70425 95.490349 
C 429.17431 95.490349 429.625181 95.303592 429.957564 94.971209 
C 430.289947 94.638826 430.476704 94.187955 430.476704 93.717895 
C 430.476704 93.247834 430.289947 92.796963 429.957564 92.464581 
C 429.625181 92.132198 429.17431 91.945441 428.70425 91.945441 
C 428.23419 91.945441 427.783319 92.132198 427.450936 92.464581 
C 427.118553 92.796963 426.931796 93.247834 426.931796 93.717895 
C 426.931796 94.187955 427.118553 94.638826 427.450936 94.971209 
C 427.783319 95.303592 428.23419 95.490349 428.70425 95.490349 
z
" style="fill:#57b9db;stroke:#000000;stroke-width:0.886227;"/>
    <path clip-path="url(#p4469b8b2d1)" d="M 421.81625 84.548243 
C 422.28631 84.548243 422.737181 84.361486 423.069564 84.029104 
C 423.401947 83.696721 423.588704 83.24585 423.588704 82.775789 
C 423.588704 82.305729 423.401947 81.854858 423.069564 81.522475 
C 422.737181 81.190093 422.28631 81.003336 421.81625 81.003336 
C 421.34619 81.003336 420.895319 81.190093 420.562936 81.522475 
C 420.230553 81.854858 420.043796 82.305729 420.043796 82.775789 
C 420.043796 83.24585 420.230553 83.696721 420.562936 84.029104 
C 420.895319 84.361486 421.34619 84.548243 421.81625 84.548243 
z
" style="fill:#5784db;stroke:#000000;stroke-width:0.886227;"/>
    <path clip-path="url(#p4469b8b2d1)" d="M 430.67225 73.606138 
C 431.14231 73.606138 431.593181 73.419381 431.925564 73.086998 
C 432.257947 72.754616 432.444704 72.303744 432.444704 71.833684 
C 432.444704 71.363624 432.257947 70.912753 431.925564 70.58037 
C 431.593181 70.247987 431.14231 70.06123 430.67225 70.06123 
C 430.20219 70.06123 429.751319 70.247987 429.418936 70.58037 
C 429.086553 70.912753 428.899796 71.363624 428.899796 71.833684 
C 428.899796 72.303744 429.086553 72.754616 429.418936 73.086998 
C 429.751319 73.419381 430.20219 73.606138 430.67225 73.606138 
z
" style="fill:#5f57db;stroke:#000000;stroke-width:0.886227;"/>
    <path clip-path="url(#p4469b8b2d1)" d="M 428.70425 62.664033 
C 429.17431 62.664033 429.625181 62.477276 429.957564 62.144893 
C 430.289947 61.81251 430.476704 61.361639 430.476704 60.891579 
C 430.476704 60.421519 430.289947 59.970648 429.957564 59.638265 
C 429.625181 59.305882 429.17431 59.119125 428.70425 59.119125 
C 428.23419 59.119125 427.783319 59.305882 427.450936 59.638265 
C 427.118553 59.970648 426.931796 60.421519 426.931796 60.891579 
C 426.931796 61.361639 427.118553 61.81251 427.450936 62.144893 
C 427.783319 62.477276 428.23419 62.664033 428.70425 62.664033 
z
" style="fill:#9457db;stroke:#000000;stroke-width:0.886227;"/>
    <path clip-path="url(#p4469b8b2d1)" d="M 423.78425 51.721928 
C 424.25431 51.721928 424.705181 51.535171 425.037564 51.202788 
C 425.369947 50.870405 425.556704 50.419534 425.556704 49.949474 
C 425.556704 49.479413 425.369947 49.028542 425.037564 48.69616 
C 424.705181 48.363777 424.25431 48.17702 423.78425 48.17702 
C 423.31419 48.17702 422.863319 48.363777 422.530936 48.69616 
C 422.198553 49.028542 422.011796 49.479413 422.011796 49.949474 
C 422.011796 50.419534 422.198553 50.870405 422.530936 51.202788 
C 422.863319 51.535171 423.31419 51.721928 423.78425 51.721928 
z
" style="fill:#c957db;stroke:#000000;stroke-width:0.886227;"/>
    <path clip-path="url(#p4469b8b2d1)" d="M 423.78425 40.779822 
C 424.25431 40.779822 424.705181 40.593065 425.037564 40.260683 
C 425.369947 39.9283 425.556704 39.477429 425.556704 39.007368 
C 425.556704 38.537308 425.369947 38.086437 425.037564 37.754054 
C 424.705181 37.421671 424.25431 37.234915 423.78425 37.234915 
C 423.31419 37.234915 422.863319 37.421671 422.530936 37.754054 
C 422.198553 38.086437 422.011796 38.537308 422.011796 39.007368 
C 422.011796 39.477429 422.198553 39.9283 422.530936 40.260683 
C 422.863319 40.593065 423.31419 40.779822 423.78425 40.779822 
z
" style="fill:#db57b9;stroke:#000000;stroke-width:0.886227;"/>
    <path clip-path="url(#p4469b8b2d1)" d="M 423.78425 29.837717 
C 424.25431 29.837717 424.705181 29.65096 425.037564 29.318577 
C 425.369947 28.986195 425.556704 28.535323 425.556704 28.065263 
C 425.556704 27.595203 425.369947 27.144332 425.037564 26.811949 
C 424.705181 26.479566 424.25431 26.292809 423.78425 26.292809 
C 423.31419 26.292809 422.863319 26.479566 422.530936 26.811949 
C 422.198553 27.144332 422.011796 27.595203 422.011796 28.065263 
C 422.011796 28.535323 422.198553 28.986195 422.530936 29.318577 
C 422.863319 29.65096 423.31419 29.837717 423.78425 29.837717 
z
" style="fill:#db5784;stroke:#000000;stroke-width:0.886227;"/>
   </g>
   <g id="patch_7">
    <path d="M 330.30425 21.5 
L 438.54425 21.5 
L 438.54425 7.2 
L 330.30425 7.2 
z
" style="fill:#cccccc;stroke:#7f7f7f;stroke-linejoin:miter;"/>
   </g>
   <g id="text_33">
    <!-- recall -->
    <g style="fill:#1a1a1a;" transform="translate(372.349 16.77825)scale(0.088 -0.088)">
     <use xlink:href="#DejaVuSans-114"/>
     <use x="41.082031" xlink:href="#DejaVuSans-101"/>
     <use x="102.605469" xlink:href="#DejaVuSans-99"/>
     <use x="157.585938" xlink:href="#DejaVuSans-97"/>
     <use x="218.865234" xlink:href="#DejaVuSans-108"/>
     <use x="246.648438" xlink:href="#DejaVuSans-108"/>
    </g>
   </g>
  </g>
 </g>
 <defs>
  <clipPath id="pc99cb09eec">
   <rect height="166.32" width="108.24" x="103.74425" y="21.5"/>
  </clipPath>
  <clipPath id="p5e06966522">
   <rect height="166.32" width="108.24" x="217.02425" y="21.5"/>
  </clipPath>
  <clipPath id="p4469b8b2d1">
   <rect height="166.32" width="108.24" x="330.30425" y="21.5"/>
  </clipPath>
 </defs>
</svg>
