<?xml version="1.0" encoding="utf-8" standalone="no"?>
<!DOCTYPE svg PUBLIC "-//W3C//DTD SVG 1.1//EN"
  "http://www.w3.org/Graphics/SVG/1.1/DTD/svg11.dtd">
<!-- Created with matplotlib (https://matplotlib.org/) -->
<svg height="345.6pt" version="1.1" viewBox="0 0 460.8 345.6" width="460.8pt" xmlns="http://www.w3.org/2000/svg" xmlns:xlink="http://www.w3.org/1999/xlink">
 <defs>
  <style type="text/css">
*{stroke-linecap:butt;stroke-linejoin:round;}
  </style>
 </defs>
 <g id="figure_1">
  <g id="patch_1">
   <path d="M 0 345.6 
L 460.8 345.6 
L 460.8 0 
L 0 0 
z
" style="fill:#ffffff;"/>
  </g>
  <g id="axes_1">
   <g id="patch_2">
    <path d="M 57.6 307.584 
L 414.72 307.584 
L 414.72 41.472 
L 57.6 41.472 
z
" style="fill:#ffffff;"/>
   </g>
   <g id="matplotlib.axis_1">
    <g id="xtick_1">
     <g id="line2d_1">
      <path clip-path="url(#p0290d03930)" d="M 57.6 307.584 
L 57.6 41.472 
" style="fill:none;stroke:#b0b0b0;stroke-dasharray:0.8,1.32;stroke-dashoffset:0;stroke-width:0.8;"/>
     </g>
     <g id="line2d_2">
      <defs>
       <path d="M 0 0 
L 0 3.5 
" id="m1c16e798f4" style="stroke:#000000;stroke-width:0.8;"/>
      </defs>
      <g>
       <use style="stroke:#000000;stroke-width:0.8;" x="57.6" xlink:href="#m1c16e798f4" y="307.584"/>
      </g>
     </g>
     <g id="text_1">
      <!-- 0.0 -->
      <defs>
       <path d="M 31.78125 66.40625 
Q 24.171875 66.40625 20.328125 58.90625 
Q 16.5 51.421875 16.5 36.375 
Q 16.5 21.390625 20.328125 13.890625 
Q 24.171875 6.390625 31.78125 6.390625 
Q 39.453125 6.390625 43.28125 13.890625 
Q 47.125 21.390625 47.125 36.375 
Q 47.125 51.421875 43.28125 58.90625 
Q 39.453125 66.40625 31.78125 66.40625 
z
M 31.78125 74.21875 
Q 44.046875 74.21875 50.515625 64.515625 
Q 56.984375 54.828125 56.984375 36.375 
Q 56.984375 17.96875 50.515625 8.265625 
Q 44.046875 -1.421875 31.78125 -1.421875 
Q 19.53125 -1.421875 13.0625 8.265625 
Q 6.59375 17.96875 6.59375 36.375 
Q 6.59375 54.828125 13.0625 64.515625 
Q 19.53125 74.21875 31.78125 74.21875 
z
" id="DejaVuSans-48"/>
       <path d="M 10.6875 12.40625 
L 21 12.40625 
L 21 0 
L 10.6875 0 
z
" id="DejaVuSans-46"/>
      </defs>
      <g transform="translate(49.648438 322.182437)scale(0.1 -0.1)">
       <use xlink:href="#DejaVuSans-48"/>
       <use x="63.623047" xlink:href="#DejaVuSans-46"/>
       <use x="95.410156" xlink:href="#DejaVuSans-48"/>
      </g>
     </g>
    </g>
    <g id="xtick_2">
     <g id="line2d_3">
      <path clip-path="url(#p0290d03930)" d="M 129.024 307.584 
L 129.024 41.472 
" style="fill:none;stroke:#b0b0b0;stroke-dasharray:0.8,1.32;stroke-dashoffset:0;stroke-width:0.8;"/>
     </g>
     <g id="line2d_4">
      <g>
       <use style="stroke:#000000;stroke-width:0.8;" x="129.024" xlink:href="#m1c16e798f4" y="307.584"/>
      </g>
     </g>
     <g id="text_2">
      <!-- 0.2 -->
      <defs>
       <path d="M 19.1875 8.296875 
L 53.609375 8.296875 
L 53.609375 0 
L 7.328125 0 
L 7.328125 8.296875 
Q 12.9375 14.109375 22.625 23.890625 
Q 32.328125 33.6875 34.8125 36.53125 
Q 39.546875 41.84375 41.421875 45.53125 
Q 43.3125 49.21875 43.3125 52.78125 
Q 43.3125 58.59375 39.234375 62.25 
Q 35.15625 65.921875 28.609375 65.921875 
Q 23.96875 65.921875 18.8125 64.3125 
Q 13.671875 62.703125 7.8125 59.421875 
L 7.8125 69.390625 
Q 13.765625 71.78125 18.9375 73 
Q 24.125 74.21875 28.421875 74.21875 
Q 39.75 74.21875 46.484375 68.546875 
Q 53.21875 62.890625 53.21875 53.421875 
Q 53.21875 48.921875 51.53125 44.890625 
Q 49.859375 40.875 45.40625 35.40625 
Q 44.1875 33.984375 37.640625 27.21875 
Q 31.109375 20.453125 19.1875 8.296875 
z
" id="DejaVuSans-50"/>
      </defs>
      <g transform="translate(121.072438 322.182437)scale(0.1 -0.1)">
       <use xlink:href="#DejaVuSans-48"/>
       <use x="63.623047" xlink:href="#DejaVuSans-46"/>
       <use x="95.410156" xlink:href="#DejaVuSans-50"/>
      </g>
     </g>
    </g>
    <g id="xtick_3">
     <g id="line2d_5">
      <path clip-path="url(#p0290d03930)" d="M 200.448 307.584 
L 200.448 41.472 
" style="fill:none;stroke:#b0b0b0;stroke-dasharray:0.8,1.32;stroke-dashoffset:0;stroke-width:0.8;"/>
     </g>
     <g id="line2d_6">
      <g>
       <use style="stroke:#000000;stroke-width:0.8;" x="200.448" xlink:href="#m1c16e798f4" y="307.584"/>
      </g>
     </g>
     <g id="text_3">
      <!-- 0.4 -->
      <defs>
       <path d="M 37.796875 64.3125 
L 12.890625 25.390625 
L 37.796875 25.390625 
z
M 35.203125 72.90625 
L 47.609375 72.90625 
L 47.609375 25.390625 
L 58.015625 25.390625 
L 58.015625 17.1875 
L 47.609375 17.1875 
L 47.609375 0 
L 37.796875 0 
L 37.796875 17.1875 
L 4.890625 17.1875 
L 4.890625 26.703125 
z
" id="DejaVuSans-52"/>
      </defs>
      <g transform="translate(192.496438 322.182437)scale(0.1 -0.1)">
       <use xlink:href="#DejaVuSans-48"/>
       <use x="63.623047" xlink:href="#DejaVuSans-46"/>
       <use x="95.410156" xlink:href="#DejaVuSans-52"/>
      </g>
     </g>
    </g>
    <g id="xtick_4">
     <g id="line2d_7">
      <path clip-path="url(#p0290d03930)" d="M 271.872 307.584 
L 271.872 41.472 
" style="fill:none;stroke:#b0b0b0;stroke-dasharray:0.8,1.32;stroke-dashoffset:0;stroke-width:0.8;"/>
     </g>
     <g id="line2d_8">
      <g>
       <use style="stroke:#000000;stroke-width:0.8;" x="271.872" xlink:href="#m1c16e798f4" y="307.584"/>
      </g>
     </g>
     <g id="text_4">
      <!-- 0.6 -->
      <defs>
       <path d="M 33.015625 40.375 
Q 26.375 40.375 22.484375 35.828125 
Q 18.609375 31.296875 18.609375 23.390625 
Q 18.609375 15.53125 22.484375 10.953125 
Q 26.375 6.390625 33.015625 6.390625 
Q 39.65625 6.390625 43.53125 10.953125 
Q 47.40625 15.53125 47.40625 23.390625 
Q 47.40625 31.296875 43.53125 35.828125 
Q 39.65625 40.375 33.015625 40.375 
z
M 52.59375 71.296875 
L 52.59375 62.3125 
Q 48.875 64.0625 45.09375 64.984375 
Q 41.3125 65.921875 37.59375 65.921875 
Q 27.828125 65.921875 22.671875 59.328125 
Q 17.53125 52.734375 16.796875 39.40625 
Q 19.671875 43.65625 24.015625 45.921875 
Q 28.375 48.1875 33.59375 48.1875 
Q 44.578125 48.1875 50.953125 41.515625 
Q 57.328125 34.859375 57.328125 23.390625 
Q 57.328125 12.15625 50.6875 5.359375 
Q 44.046875 -1.421875 33.015625 -1.421875 
Q 20.359375 -1.421875 13.671875 8.265625 
Q 6.984375 17.96875 6.984375 36.375 
Q 6.984375 53.65625 15.1875 63.9375 
Q 23.390625 74.21875 37.203125 74.21875 
Q 40.921875 74.21875 44.703125 73.484375 
Q 48.484375 72.75 52.59375 71.296875 
z
" id="DejaVuSans-54"/>
      </defs>
      <g transform="translate(263.920438 322.182437)scale(0.1 -0.1)">
       <use xlink:href="#DejaVuSans-48"/>
       <use x="63.623047" xlink:href="#DejaVuSans-46"/>
       <use x="95.410156" xlink:href="#DejaVuSans-54"/>
      </g>
     </g>
    </g>
    <g id="xtick_5">
     <g id="line2d_9">
      <path clip-path="url(#p0290d03930)" d="M 343.296 307.584 
L 343.296 41.472 
" style="fill:none;stroke:#b0b0b0;stroke-dasharray:0.8,1.32;stroke-dashoffset:0;stroke-width:0.8;"/>
     </g>
     <g id="line2d_10">
      <g>
       <use style="stroke:#000000;stroke-width:0.8;" x="343.296" xlink:href="#m1c16e798f4" y="307.584"/>
      </g>
     </g>
     <g id="text_5">
      <!-- 0.8 -->
      <defs>
       <path d="M 31.78125 34.625 
Q 24.75 34.625 20.71875 30.859375 
Q 16.703125 27.09375 16.703125 20.515625 
Q 16.703125 13.921875 20.71875 10.15625 
Q 24.75 6.390625 31.78125 6.390625 
Q 38.8125 6.390625 42.859375 10.171875 
Q 46.921875 13.96875 46.921875 20.515625 
Q 46.921875 27.09375 42.890625 30.859375 
Q 38.875 34.625 31.78125 34.625 
z
M 21.921875 38.8125 
Q 15.578125 40.375 12.03125 44.71875 
Q 8.5 49.078125 8.5 55.328125 
Q 8.5 64.0625 14.71875 69.140625 
Q 20.953125 74.21875 31.78125 74.21875 
Q 42.671875 74.21875 48.875 69.140625 
Q 55.078125 64.0625 55.078125 55.328125 
Q 55.078125 49.078125 51.53125 44.71875 
Q 48 40.375 41.703125 38.8125 
Q 48.828125 37.15625 52.796875 32.3125 
Q 56.78125 27.484375 56.78125 20.515625 
Q 56.78125 9.90625 50.3125 4.234375 
Q 43.84375 -1.421875 31.78125 -1.421875 
Q 19.734375 -1.421875 13.25 4.234375 
Q 6.78125 9.90625 6.78125 20.515625 
Q 6.78125 27.484375 10.78125 32.3125 
Q 14.796875 37.15625 21.921875 38.8125 
z
M 18.3125 54.390625 
Q 18.3125 48.734375 21.84375 45.5625 
Q 25.390625 42.390625 31.78125 42.390625 
Q 38.140625 42.390625 41.71875 45.5625 
Q 45.3125 48.734375 45.3125 54.390625 
Q 45.3125 60.0625 41.71875 63.234375 
Q 38.140625 66.40625 31.78125 66.40625 
Q 25.390625 66.40625 21.84375 63.234375 
Q 18.3125 60.0625 18.3125 54.390625 
z
" id="DejaVuSans-56"/>
      </defs>
      <g transform="translate(335.344438 322.182437)scale(0.1 -0.1)">
       <use xlink:href="#DejaVuSans-48"/>
       <use x="63.623047" xlink:href="#DejaVuSans-46"/>
       <use x="95.410156" xlink:href="#DejaVuSans-56"/>
      </g>
     </g>
    </g>
    <g id="xtick_6">
     <g id="line2d_11">
      <path clip-path="url(#p0290d03930)" d="M 414.72 307.584 
L 414.72 41.472 
" style="fill:none;stroke:#b0b0b0;stroke-dasharray:0.8,1.32;stroke-dashoffset:0;stroke-width:0.8;"/>
     </g>
     <g id="line2d_12">
      <g>
       <use style="stroke:#000000;stroke-width:0.8;" x="414.72" xlink:href="#m1c16e798f4" y="307.584"/>
      </g>
     </g>
     <g id="text_6">
      <!-- 1.0 -->
      <defs>
       <path d="M 12.40625 8.296875 
L 28.515625 8.296875 
L 28.515625 63.921875 
L 10.984375 60.40625 
L 10.984375 69.390625 
L 28.421875 72.90625 
L 38.28125 72.90625 
L 38.28125 8.296875 
L 54.390625 8.296875 
L 54.390625 0 
L 12.40625 0 
z
" id="DejaVuSans-49"/>
      </defs>
      <g transform="translate(406.768438 322.182437)scale(0.1 -0.1)">
       <use xlink:href="#DejaVuSans-49"/>
       <use x="63.623047" xlink:href="#DejaVuSans-46"/>
       <use x="95.410156" xlink:href="#DejaVuSans-48"/>
      </g>
     </g>
    </g>
    <g id="text_7">
     <!-- False Positive Rate -->
     <defs>
      <path d="M 9.8125 72.90625 
L 51.703125 72.90625 
L 51.703125 64.59375 
L 19.671875 64.59375 
L 19.671875 43.109375 
L 48.578125 43.109375 
L 48.578125 34.8125 
L 19.671875 34.8125 
L 19.671875 0 
L 9.8125 0 
z
" id="DejaVuSans-70"/>
      <path d="M 34.28125 27.484375 
Q 23.390625 27.484375 19.1875 25 
Q 14.984375 22.515625 14.984375 16.5 
Q 14.984375 11.71875 18.140625 8.90625 
Q 21.296875 6.109375 26.703125 6.109375 
Q 34.1875 6.109375 38.703125 11.40625 
Q 43.21875 16.703125 43.21875 25.484375 
L 43.21875 27.484375 
z
M 52.203125 31.203125 
L 52.203125 0 
L 43.21875 0 
L 43.21875 8.296875 
Q 40.140625 3.328125 35.546875 0.953125 
Q 30.953125 -1.421875 24.3125 -1.421875 
Q 15.921875 -1.421875 10.953125 3.296875 
Q 6 8.015625 6 15.921875 
Q 6 25.140625 12.171875 29.828125 
Q 18.359375 34.515625 30.609375 34.515625 
L 43.21875 34.515625 
L 43.21875 35.40625 
Q 43.21875 41.609375 39.140625 45 
Q 35.0625 48.390625 27.6875 48.390625 
Q 23 48.390625 18.546875 47.265625 
Q 14.109375 46.140625 10.015625 43.890625 
L 10.015625 52.203125 
Q 14.9375 54.109375 19.578125 55.046875 
Q 24.21875 56 28.609375 56 
Q 40.484375 56 46.34375 49.84375 
Q 52.203125 43.703125 52.203125 31.203125 
z
" id="DejaVuSans-97"/>
      <path d="M 9.421875 75.984375 
L 18.40625 75.984375 
L 18.40625 0 
L 9.421875 0 
z
" id="DejaVuSans-108"/>
      <path d="M 44.28125 53.078125 
L 44.28125 44.578125 
Q 40.484375 46.53125 36.375 47.5 
Q 32.28125 48.484375 27.875 48.484375 
Q 21.1875 48.484375 17.84375 46.4375 
Q 14.5 44.390625 14.5 40.28125 
Q 14.5 37.15625 16.890625 35.375 
Q 19.28125 33.59375 26.515625 31.984375 
L 29.59375 31.296875 
Q 39.15625 29.25 43.1875 25.515625 
Q 47.21875 21.78125 47.21875 15.09375 
Q 47.21875 7.46875 41.1875 3.015625 
Q 35.15625 -1.421875 24.609375 -1.421875 
Q 20.21875 -1.421875 15.453125 -0.5625 
Q 10.6875 0.296875 5.421875 2 
L 5.421875 11.28125 
Q 10.40625 8.6875 15.234375 7.390625 
Q 20.0625 6.109375 24.8125 6.109375 
Q 31.15625 6.109375 34.5625 8.28125 
Q 37.984375 10.453125 37.984375 14.40625 
Q 37.984375 18.0625 35.515625 20.015625 
Q 33.0625 21.96875 24.703125 23.78125 
L 21.578125 24.515625 
Q 13.234375 26.265625 9.515625 29.90625 
Q 5.8125 33.546875 5.8125 39.890625 
Q 5.8125 47.609375 11.28125 51.796875 
Q 16.75 56 26.8125 56 
Q 31.78125 56 36.171875 55.265625 
Q 40.578125 54.546875 44.28125 53.078125 
z
" id="DejaVuSans-115"/>
      <path d="M 56.203125 29.59375 
L 56.203125 25.203125 
L 14.890625 25.203125 
Q 15.484375 15.921875 20.484375 11.0625 
Q 25.484375 6.203125 34.421875 6.203125 
Q 39.59375 6.203125 44.453125 7.46875 
Q 49.3125 8.734375 54.109375 11.28125 
L 54.109375 2.78125 
Q 49.265625 0.734375 44.1875 -0.34375 
Q 39.109375 -1.421875 33.890625 -1.421875 
Q 20.796875 -1.421875 13.15625 6.1875 
Q 5.515625 13.8125 5.515625 26.8125 
Q 5.515625 40.234375 12.765625 48.109375 
Q 20.015625 56 32.328125 56 
Q 43.359375 56 49.78125 48.890625 
Q 56.203125 41.796875 56.203125 29.59375 
z
M 47.21875 32.234375 
Q 47.125 39.59375 43.09375 43.984375 
Q 39.0625 48.390625 32.421875 48.390625 
Q 24.90625 48.390625 20.390625 44.140625 
Q 15.875 39.890625 15.1875 32.171875 
z
" id="DejaVuSans-101"/>
      <path id="DejaVuSans-32"/>
      <path d="M 19.671875 64.796875 
L 19.671875 37.40625 
L 32.078125 37.40625 
Q 38.96875 37.40625 42.71875 40.96875 
Q 46.484375 44.53125 46.484375 51.125 
Q 46.484375 57.671875 42.71875 61.234375 
Q 38.96875 64.796875 32.078125 64.796875 
z
M 9.8125 72.90625 
L 32.078125 72.90625 
Q 44.34375 72.90625 50.609375 67.359375 
Q 56.890625 61.8125 56.890625 51.125 
Q 56.890625 40.328125 50.609375 34.8125 
Q 44.34375 29.296875 32.078125 29.296875 
L 19.671875 29.296875 
L 19.671875 0 
L 9.8125 0 
z
" id="DejaVuSans-80"/>
      <path d="M 30.609375 48.390625 
Q 23.390625 48.390625 19.1875 42.75 
Q 14.984375 37.109375 14.984375 27.296875 
Q 14.984375 17.484375 19.15625 11.84375 
Q 23.34375 6.203125 30.609375 6.203125 
Q 37.796875 6.203125 41.984375 11.859375 
Q 46.1875 17.53125 46.1875 27.296875 
Q 46.1875 37.015625 41.984375 42.703125 
Q 37.796875 48.390625 30.609375 48.390625 
z
M 30.609375 56 
Q 42.328125 56 49.015625 48.375 
Q 55.71875 40.765625 55.71875 27.296875 
Q 55.71875 13.875 49.015625 6.21875 
Q 42.328125 -1.421875 30.609375 -1.421875 
Q 18.84375 -1.421875 12.171875 6.21875 
Q 5.515625 13.875 5.515625 27.296875 
Q 5.515625 40.765625 12.171875 48.375 
Q 18.84375 56 30.609375 56 
z
" id="DejaVuSans-111"/>
      <path d="M 9.421875 54.6875 
L 18.40625 54.6875 
L 18.40625 0 
L 9.421875 0 
z
M 9.421875 75.984375 
L 18.40625 75.984375 
L 18.40625 64.59375 
L 9.421875 64.59375 
z
" id="DejaVuSans-105"/>
      <path d="M 18.3125 70.21875 
L 18.3125 54.6875 
L 36.8125 54.6875 
L 36.8125 47.703125 
L 18.3125 47.703125 
L 18.3125 18.015625 
Q 18.3125 11.328125 20.140625 9.421875 
Q 21.96875 7.515625 27.59375 7.515625 
L 36.8125 7.515625 
L 36.8125 0 
L 27.59375 0 
Q 17.1875 0 13.234375 3.875 
Q 9.28125 7.765625 9.28125 18.015625 
L 9.28125 47.703125 
L 2.6875 47.703125 
L 2.6875 54.6875 
L 9.28125 54.6875 
L 9.28125 70.21875 
z
" id="DejaVuSans-116"/>
      <path d="M 2.984375 54.6875 
L 12.5 54.6875 
L 29.59375 8.796875 
L 46.6875 54.6875 
L 56.203125 54.6875 
L 35.6875 0 
L 23.484375 0 
z
" id="DejaVuSans-118"/>
      <path d="M 44.390625 34.1875 
Q 47.5625 33.109375 50.5625 29.59375 
Q 53.5625 26.078125 56.59375 19.921875 
L 66.609375 0 
L 56 0 
L 46.6875 18.703125 
Q 43.0625 26.03125 39.671875 28.421875 
Q 36.28125 30.8125 30.421875 30.8125 
L 19.671875 30.8125 
L 19.671875 0 
L 9.8125 0 
L 9.8125 72.90625 
L 32.078125 72.90625 
Q 44.578125 72.90625 50.734375 67.671875 
Q 56.890625 62.453125 56.890625 51.90625 
Q 56.890625 45.015625 53.6875 40.46875 
Q 50.484375 35.9375 44.390625 34.1875 
z
M 19.671875 64.796875 
L 19.671875 38.921875 
L 32.078125 38.921875 
Q 39.203125 38.921875 42.84375 42.21875 
Q 46.484375 45.515625 46.484375 51.90625 
Q 46.484375 58.296875 42.84375 61.546875 
Q 39.203125 64.796875 32.078125 64.796875 
z
" id="DejaVuSans-82"/>
     </defs>
     <g transform="translate(188.954531 335.860562)scale(0.1 -0.1)">
      <use xlink:href="#DejaVuSans-70"/>
      <use x="57.378906" xlink:href="#DejaVuSans-97"/>
      <use x="118.658203" xlink:href="#DejaVuSans-108"/>
      <use x="146.441406" xlink:href="#DejaVuSans-115"/>
      <use x="198.541016" xlink:href="#DejaVuSans-101"/>
      <use x="260.064453" xlink:href="#DejaVuSans-32"/>
      <use x="291.851562" xlink:href="#DejaVuSans-80"/>
      <use x="352.107422" xlink:href="#DejaVuSans-111"/>
      <use x="413.289062" xlink:href="#DejaVuSans-115"/>
      <use x="465.388672" xlink:href="#DejaVuSans-105"/>
      <use x="493.171875" xlink:href="#DejaVuSans-116"/>
      <use x="532.380859" xlink:href="#DejaVuSans-105"/>
      <use x="560.164062" xlink:href="#DejaVuSans-118"/>
      <use x="619.34375" xlink:href="#DejaVuSans-101"/>
      <use x="680.867188" xlink:href="#DejaVuSans-32"/>
      <use x="712.654297" xlink:href="#DejaVuSans-82"/>
      <use x="782.105469" xlink:href="#DejaVuSans-97"/>
      <use x="843.384766" xlink:href="#DejaVuSans-116"/>
      <use x="882.59375" xlink:href="#DejaVuSans-101"/>
     </g>
    </g>
   </g>
   <g id="matplotlib.axis_2">
    <g id="ytick_1">
     <g id="line2d_13">
      <path clip-path="url(#p0290d03930)" d="M 57.6 307.584 
L 414.72 307.584 
" style="fill:none;stroke:#b0b0b0;stroke-dasharray:0.8,1.32;stroke-dashoffset:0;stroke-width:0.8;"/>
     </g>
     <g id="line2d_14">
      <defs>
       <path d="M 0 0 
L -3.5 0 
" id="m60e9946ecb" style="stroke:#000000;stroke-width:0.8;"/>
      </defs>
      <g>
       <use style="stroke:#000000;stroke-width:0.8;" x="57.6" xlink:href="#m60e9946ecb" y="307.584"/>
      </g>
     </g>
     <g id="text_8">
      <!-- 0.0 -->
      <g transform="translate(34.696875 311.383219)scale(0.1 -0.1)">
       <use xlink:href="#DejaVuSans-48"/>
       <use x="63.623047" xlink:href="#DejaVuSans-46"/>
       <use x="95.410156" xlink:href="#DejaVuSans-48"/>
      </g>
     </g>
    </g>
    <g id="ytick_2">
     <g id="line2d_15">
      <path clip-path="url(#p0290d03930)" d="M 57.6 256.896 
L 414.72 256.896 
" style="fill:none;stroke:#b0b0b0;stroke-dasharray:0.8,1.32;stroke-dashoffset:0;stroke-width:0.8;"/>
     </g>
     <g id="line2d_16">
      <g>
       <use style="stroke:#000000;stroke-width:0.8;" x="57.6" xlink:href="#m60e9946ecb" y="256.896"/>
      </g>
     </g>
     <g id="text_9">
      <!-- 0.2 -->
      <g transform="translate(34.696875 260.695219)scale(0.1 -0.1)">
       <use xlink:href="#DejaVuSans-48"/>
       <use x="63.623047" xlink:href="#DejaVuSans-46"/>
       <use x="95.410156" xlink:href="#DejaVuSans-50"/>
      </g>
     </g>
    </g>
    <g id="ytick_3">
     <g id="line2d_17">
      <path clip-path="url(#p0290d03930)" d="M 57.6 206.208 
L 414.72 206.208 
" style="fill:none;stroke:#b0b0b0;stroke-dasharray:0.8,1.32;stroke-dashoffset:0;stroke-width:0.8;"/>
     </g>
     <g id="line2d_18">
      <g>
       <use style="stroke:#000000;stroke-width:0.8;" x="57.6" xlink:href="#m60e9946ecb" y="206.208"/>
      </g>
     </g>
     <g id="text_10">
      <!-- 0.4 -->
      <g transform="translate(34.696875 210.007219)scale(0.1 -0.1)">
       <use xlink:href="#DejaVuSans-48"/>
       <use x="63.623047" xlink:href="#DejaVuSans-46"/>
       <use x="95.410156" xlink:href="#DejaVuSans-52"/>
      </g>
     </g>
    </g>
    <g id="ytick_4">
     <g id="line2d_19">
      <path clip-path="url(#p0290d03930)" d="M 57.6 155.52 
L 414.72 155.52 
" style="fill:none;stroke:#b0b0b0;stroke-dasharray:0.8,1.32;stroke-dashoffset:0;stroke-width:0.8;"/>
     </g>
     <g id="line2d_20">
      <g>
       <use style="stroke:#000000;stroke-width:0.8;" x="57.6" xlink:href="#m60e9946ecb" y="155.52"/>
      </g>
     </g>
     <g id="text_11">
      <!-- 0.6 -->
      <g transform="translate(34.696875 159.319219)scale(0.1 -0.1)">
       <use xlink:href="#DejaVuSans-48"/>
       <use x="63.623047" xlink:href="#DejaVuSans-46"/>
       <use x="95.410156" xlink:href="#DejaVuSans-54"/>
      </g>
     </g>
    </g>
    <g id="ytick_5">
     <g id="line2d_21">
      <path clip-path="url(#p0290d03930)" d="M 57.6 104.832 
L 414.72 104.832 
" style="fill:none;stroke:#b0b0b0;stroke-dasharray:0.8,1.32;stroke-dashoffset:0;stroke-width:0.8;"/>
     </g>
     <g id="line2d_22">
      <g>
       <use style="stroke:#000000;stroke-width:0.8;" x="57.6" xlink:href="#m60e9946ecb" y="104.832"/>
      </g>
     </g>
     <g id="text_12">
      <!-- 0.8 -->
      <g transform="translate(34.696875 108.631219)scale(0.1 -0.1)">
       <use xlink:href="#DejaVuSans-48"/>
       <use x="63.623047" xlink:href="#DejaVuSans-46"/>
       <use x="95.410156" xlink:href="#DejaVuSans-56"/>
      </g>
     </g>
    </g>
    <g id="ytick_6">
     <g id="line2d_23">
      <path clip-path="url(#p0290d03930)" d="M 57.6 54.144 
L 414.72 54.144 
" style="fill:none;stroke:#b0b0b0;stroke-dasharray:0.8,1.32;stroke-dashoffset:0;stroke-width:0.8;"/>
     </g>
     <g id="line2d_24">
      <g>
       <use style="stroke:#000000;stroke-width:0.8;" x="57.6" xlink:href="#m60e9946ecb" y="54.144"/>
      </g>
     </g>
     <g id="text_13">
      <!-- 1.0 -->
      <g transform="translate(34.696875 57.943219)scale(0.1 -0.1)">
       <use xlink:href="#DejaVuSans-49"/>
       <use x="63.623047" xlink:href="#DejaVuSans-46"/>
       <use x="95.410156" xlink:href="#DejaVuSans-48"/>
      </g>
     </g>
    </g>
    <g id="text_14">
     <!-- True Positive Rate -->
     <defs>
      <path d="M -0.296875 72.90625 
L 61.375 72.90625 
L 61.375 64.59375 
L 35.5 64.59375 
L 35.5 0 
L 25.59375 0 
L 25.59375 64.59375 
L -0.296875 64.59375 
z
" id="DejaVuSans-84"/>
      <path d="M 41.109375 46.296875 
Q 39.59375 47.171875 37.8125 47.578125 
Q 36.03125 48 33.890625 48 
Q 26.265625 48 22.1875 43.046875 
Q 18.109375 38.09375 18.109375 28.8125 
L 18.109375 0 
L 9.078125 0 
L 9.078125 54.6875 
L 18.109375 54.6875 
L 18.109375 46.1875 
Q 20.953125 51.171875 25.484375 53.578125 
Q 30.03125 56 36.53125 56 
Q 37.453125 56 38.578125 55.875 
Q 39.703125 55.765625 41.0625 55.515625 
z
" id="DejaVuSans-114"/>
      <path d="M 8.5 21.578125 
L 8.5 54.6875 
L 17.484375 54.6875 
L 17.484375 21.921875 
Q 17.484375 14.15625 20.5 10.265625 
Q 23.53125 6.390625 29.59375 6.390625 
Q 36.859375 6.390625 41.078125 11.03125 
Q 45.3125 15.671875 45.3125 23.6875 
L 45.3125 54.6875 
L 54.296875 54.6875 
L 54.296875 0 
L 45.3125 0 
L 45.3125 8.40625 
Q 42.046875 3.421875 37.71875 1 
Q 33.40625 -1.421875 27.6875 -1.421875 
Q 18.265625 -1.421875 13.375 4.4375 
Q 8.5 10.296875 8.5 21.578125 
z
M 31.109375 56 
z
" id="DejaVuSans-117"/>
     </defs>
     <g transform="translate(28.617187 220.074094)rotate(-90)scale(0.1 -0.1)">
      <use xlink:href="#DejaVuSans-84"/>
      <use x="60.865234" xlink:href="#DejaVuSans-114"/>
      <use x="101.978516" xlink:href="#DejaVuSans-117"/>
      <use x="165.357422" xlink:href="#DejaVuSans-101"/>
      <use x="226.880859" xlink:href="#DejaVuSans-32"/>
      <use x="258.667969" xlink:href="#DejaVuSans-80"/>
      <use x="318.923828" xlink:href="#DejaVuSans-111"/>
      <use x="380.105469" xlink:href="#DejaVuSans-115"/>
      <use x="432.205078" xlink:href="#DejaVuSans-105"/>
      <use x="459.988281" xlink:href="#DejaVuSans-116"/>
      <use x="499.197266" xlink:href="#DejaVuSans-105"/>
      <use x="526.980469" xlink:href="#DejaVuSans-118"/>
      <use x="586.160156" xlink:href="#DejaVuSans-101"/>
      <use x="647.683594" xlink:href="#DejaVuSans-32"/>
      <use x="679.470703" xlink:href="#DejaVuSans-82"/>
      <use x="748.921875" xlink:href="#DejaVuSans-97"/>
      <use x="810.201172" xlink:href="#DejaVuSans-116"/>
      <use x="849.410156" xlink:href="#DejaVuSans-101"/>
     </g>
    </g>
   </g>
   <g id="line2d_25">
    <path clip-path="url(#p0290d03930)" d="M 57.6 307.584 
L 57.655975 179.990069 
L 57.71195 179.990069 
L 57.767925 113.094621 
L 57.8239 113.094621 
L 57.879875 109.122207 
L 57.93585 109.122207 
L 57.991824 108.327724 
L 58.047799 108.327724 
L 58.047799 103.560828 
L 58.159749 103.560828 
L 58.215724 98.476138 
L 58.271699 98.476138 
L 58.271699 97.840552 
L 58.383649 97.840552 
L 58.439624 94.344828 
L 58.495599 94.344828 
L 58.551574 92.279172 
L 58.607549 92.279172 
L 58.663524 88.465655 
L 58.719498 88.465655 
L 58.719498 87.671172 
L 58.831448 87.671172 
L 58.831448 87.353379 
L 58.999373 87.353379 
L 58.999373 87.194483 
L 59.111323 87.194483 
L 59.167298 85.287724 
L 59.223273 85.287724 
L 59.223273 84.811034 
L 59.335223 84.811034 
L 59.391197 83.857655 
L 59.447172 83.857655 
L 59.447172 83.539862 
L 59.615097 83.539862 
L 59.671072 82.745379 
L 59.727047 82.745379 
L 59.783022 81.31531 
L 59.894972 81.31531 
L 59.894972 80.838621 
L 60.006922 80.838621 
L 60.006922 80.679724 
L 60.118871 80.679724 
L 60.174846 78.455172 
L 60.230821 78.455172 
L 60.230821 77.501793 
L 60.398746 77.501793 
L 60.454721 77.184 
L 60.734596 77.184 
L 60.790571 76.389517 
L 60.846545 76.389517 
L 60.846545 76.071724 
L 61.070445 76.071724 
L 61.070445 75.595034 
L 61.294345 75.595034 
L 61.35032 74.323862 
L 61.406295 74.323862 
L 61.46227 73.688276 
L 61.574219 73.688276 
L 61.574219 73.529379 
L 61.798119 73.529379 
L 61.798119 73.05269 
L 61.910069 73.05269 
L 61.966044 71.940414 
L 62.022019 71.940414 
L 62.022019 71.781517 
L 62.133969 71.781517 
L 62.133969 71.622621 
L 62.469818 71.622621 
L 62.525793 70.987034 
L 62.805668 70.987034 
L 62.861643 70.669241 
L 62.917618 70.669241 
L 62.917618 70.351448 
L 63.029567 70.351448 
L 63.029567 70.192552 
L 63.141517 70.192552 
L 63.197492 69.715862 
L 63.477367 69.715862 
L 63.477367 69.398069 
L 63.701266 69.398069 
L 63.757241 68.921379 
L 63.813216 68.921379 
L 63.869191 68.603586 
L 64.037116 68.603586 
L 64.037116 68.44469 
L 64.205041 68.44469 
L 64.205041 68.285793 
L 64.484915 68.285793 
L 64.484915 68.126897 
L 64.596865 68.126897 
L 64.596865 67.968 
L 64.76479 67.968 
L 64.820765 67.49131 
L 65.044665 67.49131 
L 65.044665 67.332414 
L 65.268564 67.332414 
L 65.268564 67.173517 
L 65.380514 67.173517 
L 65.380514 67.014621 
L 65.604414 67.014621 
L 65.660389 66.696828 
L 66.052213 66.696828 
L 66.052213 66.537931 
L 66.220138 66.537931 
L 66.220138 66.379034 
L 66.388063 66.379034 
L 66.444038 66.061241 
L 66.500013 66.061241 
L 66.555987 65.743448 
L 66.723912 65.743448 
L 66.723912 65.584552 
L 66.891837 65.584552 
L 66.891837 65.425655 
L 67.003787 65.425655 
L 67.003787 65.266759 
L 67.171712 65.266759 
L 67.171712 65.107862 
L 67.563536 65.107862 
L 67.563536 64.948966 
L 68.906934 64.948966 
L 68.962909 64.472276 
L 69.074859 64.472276 
L 69.130834 63.677793 
L 69.242784 63.677793 
L 69.242784 63.518897 
L 69.354734 63.518897 
L 69.354734 63.36 
L 69.634608 63.36 
L 69.634608 63.201103 
L 69.802533 63.201103 
L 69.802533 63.042207 
L 70.250332 63.042207 
L 70.250332 62.88331 
L 71.033981 62.88331 
L 71.033981 62.724414 
L 71.649705 62.724414 
L 71.649705 62.406621 
L 72.377379 62.406621 
L 72.377379 62.247724 
L 73.440903 62.247724 
L 73.496878 61.929931 
L 73.664803 61.929931 
L 73.720777 61.453241 
L 73.776752 61.453241 
L 73.776752 61.294345 
L 74.616376 61.294345 
L 74.616376 61.135448 
L 75.623925 61.135448 
L 75.623925 60.976552 
L 76.631473 60.976552 
L 76.631473 60.658759 
L 76.967323 60.658759 
L 77.023298 60.340966 
L 77.191223 60.340966 
L 77.247197 59.705379 
L 77.415122 59.705379 
L 77.415122 59.546483 
L 78.086821 59.546483 
L 78.086821 59.387586 
L 78.198771 59.387586 
L 78.198771 59.22869 
L 78.366696 59.22869 
L 78.366696 59.069793 
L 78.590596 59.069793 
L 78.590596 58.910897 
L 79.09437 58.910897 
L 79.09437 58.752 
L 79.430219 58.752 
L 79.430219 58.593103 
L 79.822044 58.593103 
L 79.878019 58.27531 
L 79.989969 58.27531 
L 79.989969 58.116414 
L 80.157893 58.116414 
L 80.157893 57.957517 
L 80.325818 57.957517 
L 80.325818 57.639724 
L 80.493743 57.639724 
L 80.493743 57.480828 
L 83.740288 57.480828 
L 83.740288 57.321931 
L 89.225831 57.321931 
L 89.225831 57.163034 
L 91.017028 57.163034 
L 91.017028 57.004138 
L 94.711373 57.004138 
L 94.711373 56.845241 
L 99.581191 56.845241 
L 99.581191 56.527448 
L 109.096928 56.527448 
L 109.096928 56.368552 
L 121.019586 56.368552 
L 121.019586 56.209655 
L 122.922734 56.209655 
L 122.922734 56.050759 
L 123.314558 56.050759 
L 123.314558 55.891862 
L 134.005768 55.891862 
L 134.061743 55.732966 
L 143.409555 55.732966 
L 143.409555 55.574069 
L 144.752953 55.574069 
L 144.752953 55.097379 
L 145.760502 55.097379 
L 145.760502 54.938483 
L 149.790696 54.938483 
L 149.790696 54.779586 
L 157.011461 54.779586 
L 157.011461 54.62069 
L 179.849229 54.62069 
L 179.905204 54.461793 
L 220.710922 54.461793 
L 220.710922 54.302897 
L 222.781994 54.302897 
L 222.781994 54.144 
L 414.72 54.144 
L 414.72 54.144 
" style="fill:none;stroke:#ff1493;stroke-dasharray:2,3.3;stroke-dashoffset:0;stroke-width:2;"/>
   </g>
   <g id="line2d_26">
    <path clip-path="url(#p0290d03930)" d="M 57.6 145.82731 
L 57.879875 124.852966 
L 58.159749 97.681655 
L 58.439624 95.616 
L 58.719498 90.690207 
L 58.999373 87.830069 
L 59.279248 86.082207 
L 59.559122 83.857655 
L 59.838997 82.745379 
L 60.118871 81.31531 
L 60.398746 80.203034 
L 60.678621 78.772966 
L 60.958495 78.455172 
L 61.23837 78.137379 
L 61.518245 77.819586 
L 61.798119 77.501793 
L 62.077994 77.025103 
L 62.357868 75.436138 
L 62.637743 75.118345 
L 62.917618 74.959448 
L 63.197492 74.482759 
L 63.477367 74.164966 
L 63.757241 73.847172 
L 64.316991 73.05269 
L 64.596865 72.734897 
L 64.87674 71.940414 
L 65.156614 71.622621 
L 65.716364 71.463724 
L 66.276113 69.874759 
L 66.555987 69.239172 
L 66.835862 68.285793 
L 67.675486 68.126897 
L 67.955361 67.968 
L 68.794984 67.49131 
L 69.074859 67.173517 
L 69.914483 66.855724 
L 70.474232 66.855724 
L 70.754107 66.537931 
L 71.033981 66.061241 
L 71.313856 65.743448 
L 71.59373 65.584552 
L 72.15348 65.425655 
L 72.433354 65.107862 
L 73.272978 64.790069 
L 73.832727 64.472276 
L 74.112602 63.83669 
L 74.392476 63.518897 
L 74.672351 63.36 
L 76.071724 63.042207 
L 76.351599 62.88331 
L 76.631473 62.724414 
L 78.030846 62.565517 
L 78.310721 62.406621 
L 78.590596 62.247724 
L 79.150345 62.088828 
L 79.430219 61.929931 
L 80.269843 61.771034 
L 80.829592 61.612138 
L 81.109467 61.453241 
L 81.389342 60.976552 
L 81.669216 60.817655 
L 82.50884 60.658759 
L 84.188088 60.499862 
L 84.747837 60.340966 
L 85.307586 60.023172 
L 86.427085 59.864276 
L 86.986834 59.705379 
L 88.666082 59.546483 
L 89.78558 59.387586 
L 92.304451 59.22869 
L 92.864201 59.069793 
L 94.263574 58.910897 
L 94.543448 58.752 
L 95.383072 58.593103 
L 98.181818 58.434207 
L 100.70069 58.27531 
L 100.980564 58.116414 
L 101.540313 57.957517 
L 103.77931 57.798621 
L 104.898809 57.639724 
L 107.697555 57.480828 
L 108.257304 57.321931 
L 116.373668 57.163034 
L 117.213292 57.004138 
L 117.493166 56.845241 
L 119.732163 56.686345 
L 123.930282 56.527448 
L 128.408276 56.368552 
L 131.207022 56.050759 
L 134.565517 55.891862 
L 135.125266 55.732966 
L 139.043511 55.574069 
L 141.562382 55.415172 
L 142.122132 55.256276 
L 147.719624 55.256276 
L 148.559248 55.256276 
L 157.235361 55.256276 
L 157.79511 55.256276 
L 158.634734 55.097379 
L 175.42721 54.938483 
L 198.936677 54.779586 
L 219.087649 54.779586 
L 219.647398 54.62069 
L 228.88326 54.62069 
L 229.722884 54.62069 
L 258.829843 54.461793 
L 286.537429 54.302897 
L 341.392853 54.302897 
L 341.672727 54.144 
L 348.669592 54.144 
L 349.509216 54.144 
L 414.72 54.144 
" style="fill:none;stroke:#000080;stroke-dasharray:2,3.3;stroke-dashoffset:0;stroke-width:2;"/>
   </g>
   <g id="line2d_27">
    <path clip-path="url(#p0290d03930)" d="M 57.6 307.584 
L 57.6 306.789517 
L 57.6 62.088828 
L 57.879875 62.088828 
L 57.879875 59.705379 
L 70.474232 59.705379 
L 70.754107 58.910897 
L 81.389342 58.910897 
L 81.389342 56.527448 
L 82.50884 56.527448 
L 82.50884 55.732966 
L 86.986834 55.732966 
L 86.986834 54.938483 
L 98.181818 54.938483 
L 98.181818 54.144 
L 414.72 54.144 
" style="fill:none;stroke:#a6cee3;stroke-linecap:square;stroke-width:2;"/>
   </g>
   <g id="line2d_28">
    <path clip-path="url(#p0290d03930)" d="M 57.6 307.584 
L 57.6 273.421241 
L 57.879875 273.421241 
L 57.879875 202.712276 
L 58.159749 202.712276 
L 58.159749 190.795034 
L 58.719498 190.795034 
L 58.719498 180.466759 
L 58.999373 180.466759 
L 58.999373 175.699862 
L 59.279248 175.699862 
L 59.279248 172.521931 
L 59.559122 172.521931 
L 59.559122 162.988138 
L 59.838997 162.988138 
L 59.838997 159.015724 
L 60.118871 159.015724 
L 60.118871 155.837793 
L 60.398746 155.837793 
L 60.398746 150.276414 
L 60.678621 150.276414 
L 60.678621 145.509517 
L 61.23837 145.509517 
L 61.23837 143.920552 
L 61.798119 143.920552 
L 61.798119 143.126069 
L 62.077994 143.126069 
L 62.077994 140.742621 
L 62.357868 140.742621 
L 62.357868 136.770207 
L 62.637743 136.770207 
L 62.637743 135.181241 
L 63.197492 135.181241 
L 63.197492 132.797793 
L 63.477367 132.797793 
L 63.477367 132.00331 
L 63.757241 132.00331 
L 63.757241 131.208828 
L 64.316991 131.208828 
L 64.316991 128.825379 
L 64.596865 128.825379 
L 64.596865 127.236414 
L 64.87674 127.236414 
L 64.87674 123.264 
L 65.156614 123.264 
L 65.156614 121.675034 
L 65.716364 121.675034 
L 65.716364 120.880552 
L 66.276113 120.880552 
L 66.276113 114.52469 
L 66.555987 114.52469 
L 66.555987 112.935724 
L 66.835862 112.935724 
L 66.835862 108.96331 
L 67.675486 108.96331 
L 67.675486 108.168828 
L 68.794984 108.168828 
L 68.794984 105.785379 
L 69.074859 105.785379 
L 69.074859 104.196414 
L 69.914483 104.196414 
L 69.914483 102.607448 
L 71.033981 102.607448 
L 71.033981 100.224 
L 71.313856 100.224 
L 71.313856 98.635034 
L 71.59373 98.635034 
L 71.59373 97.840552 
L 72.15348 97.840552 
L 72.15348 97.046069 
L 73.272978 97.046069 
L 73.272978 96.251586 
L 73.832727 96.251586 
L 73.832727 94.662621 
L 74.112602 94.662621 
L 74.112602 91.48469 
L 74.392476 91.48469 
L 74.392476 90.690207 
L 76.071724 90.690207 
L 76.071724 89.101241 
L 76.351599 89.101241 
L 76.351599 88.306759 
L 78.030846 88.306759 
L 78.030846 87.512276 
L 78.590596 87.512276 
L 78.590596 86.717793 
L 79.150345 86.717793 
L 79.150345 85.92331 
L 79.430219 85.92331 
L 79.430219 85.128828 
L 80.269843 85.128828 
L 80.269843 84.334345 
L 80.829592 84.334345 
L 80.829592 83.539862 
L 81.109467 83.539862 
L 81.109467 82.745379 
L 81.669216 82.745379 
L 81.669216 81.950897 
L 84.188088 81.950897 
L 84.188088 81.156414 
L 84.747837 81.156414 
L 84.747837 80.361931 
L 85.307586 80.361931 
L 85.307586 78.772966 
L 86.427085 78.772966 
L 86.427085 77.978483 
L 88.666082 77.978483 
L 88.666082 77.184 
L 92.304451 77.184 
L 92.304451 76.389517 
L 92.864201 76.389517 
L 92.864201 75.595034 
L 94.263574 75.595034 
L 94.263574 74.800552 
L 94.543448 74.800552 
L 94.543448 74.006069 
L 95.383072 74.006069 
L 95.383072 73.211586 
L 100.70069 73.211586 
L 100.70069 72.417103 
L 100.980564 72.417103 
L 100.980564 71.622621 
L 101.540313 71.622621 
L 101.540313 70.828138 
L 103.77931 70.828138 
L 103.77931 70.033655 
L 104.898809 70.033655 
L 104.898809 69.239172 
L 107.697555 69.239172 
L 107.697555 68.44469 
L 116.373668 68.44469 
L 116.373668 67.650207 
L 117.213292 67.650207 
L 117.213292 66.855724 
L 117.493166 66.855724 
L 117.493166 66.061241 
L 119.732163 66.061241 
L 119.732163 65.266759 
L 123.930282 65.266759 
L 123.930282 64.472276 
L 128.408276 64.472276 
L 128.408276 63.677793 
L 131.207022 63.677793 
L 131.207022 62.088828 
L 134.565517 62.088828 
L 134.565517 61.294345 
L 135.125266 61.294345 
L 135.125266 60.499862 
L 139.043511 60.499862 
L 139.043511 59.705379 
L 141.562382 59.705379 
L 141.562382 58.910897 
L 142.122132 58.910897 
L 142.122132 58.116414 
L 175.42721 58.116414 
L 175.42721 57.321931 
L 198.936677 57.321931 
L 198.936677 56.527448 
L 219.647398 56.527448 
L 219.647398 55.732966 
L 286.537429 55.732966 
L 286.537429 54.938483 
L 341.392853 54.938483 
L 341.672727 54.144 
L 414.72 54.144 
L 414.72 54.144 
" style="fill:none;stroke:#1f78b4;stroke-linecap:square;stroke-width:2;"/>
   </g>
   <g id="line2d_29">
    <path clip-path="url(#p0290d03930)" d="M 57.6 307.584 
L 57.6 306.789517 
L 57.6 83.539862 
L 57.879875 83.539862 
L 57.879875 76.389517 
L 58.159749 76.389517 
L 58.159749 62.088828 
L 58.439624 62.088828 
L 58.439624 56.527448 
L 58.719498 56.527448 
L 58.719498 55.732966 
L 59.279248 55.732966 
L 59.279248 54.144 
L 62.357868 54.144 
L 63.197492 54.144 
L 63.757241 54.144 
L 64.316991 54.144 
L 414.72 54.144 
" style="fill:none;stroke:#b2df8a;stroke-linecap:square;stroke-width:2;"/>
   </g>
   <g id="line2d_30">
    <path clip-path="url(#p0290d03930)" d="M 57.6 307.584 
L 57.6 306.789517 
L 57.6 88.306759 
L 57.879875 88.306759 
L 57.879875 80.361931 
L 58.159749 80.361931 
L 58.159749 70.828138 
L 58.439624 70.828138 
L 58.439624 67.650207 
L 58.999373 67.650207 
L 58.999373 65.266759 
L 59.279248 65.266759 
L 59.279248 64.472276 
L 59.559122 64.472276 
L 59.559122 62.88331 
L 59.838997 62.88331 
L 59.838997 62.088828 
L 60.118871 62.088828 
L 60.118871 61.294345 
L 60.678621 61.294345 
L 60.678621 60.499862 
L 62.357868 60.499862 
L 62.357868 58.116414 
L 64.316991 58.116414 
L 64.316991 56.527448 
L 66.276113 56.527448 
L 66.276113 55.732966 
L 78.310721 55.732966 
L 78.310721 54.938483 
L 219.087649 54.938483 
L 219.647398 54.938483 
L 228.88326 54.938483 
L 229.722884 54.938483 
L 258.829843 54.938483 
L 258.829843 54.144 
L 414.72 54.144 
" style="fill:none;stroke:#33a02c;stroke-linecap:square;stroke-width:2;"/>
   </g>
   <g id="line2d_31">
    <path clip-path="url(#p0290d03930)" d="M 57.6 307.584 
L 57.6 306.789517 
L 57.6 221.779862 
L 57.879875 221.779862 
L 57.879875 205.095724 
L 58.159749 205.095724 
L 58.159749 104.990897 
L 58.439624 104.990897 
L 58.439624 103.401931 
L 58.719498 103.401931 
L 58.719498 89.895724 
L 58.999373 89.895724 
L 58.999373 82.745379 
L 59.279248 82.745379 
L 59.279248 79.567448 
L 59.838997 79.567448 
L 59.838997 78.772966 
L 60.118871 78.772966 
L 60.118871 75.595034 
L 60.678621 75.595034 
L 60.678621 74.006069 
L 60.958495 74.006069 
L 60.958495 72.417103 
L 61.518245 72.417103 
L 61.518245 70.828138 
L 61.798119 70.828138 
L 61.798119 70.033655 
L 62.357868 70.033655 
L 62.357868 68.44469 
L 62.917618 68.44469 
L 62.917618 67.650207 
L 63.477367 67.650207 
L 63.477367 66.855724 
L 63.757241 66.855724 
L 63.757241 66.061241 
L 66.276113 66.061241 
L 66.276113 65.266759 
L 66.555987 65.266759 
L 66.555987 63.677793 
L 66.835862 63.677793 
L 66.835862 62.88331 
L 67.955361 62.88331 
L 67.955361 62.088828 
L 70.754107 62.088828 
L 70.754107 61.294345 
L 72.433354 61.294345 
L 72.433354 59.705379 
L 73.272978 59.705379 
L 73.272978 58.910897 
L 74.392476 58.910897 
L 74.392476 58.116414 
L 74.672351 58.116414 
L 74.672351 57.321931 
L 76.631473 57.321931 
L 76.631473 56.527448 
L 89.78558 56.527448 
L 89.78558 55.732966 
L 108.257304 55.732966 
L 108.257304 54.938483 
L 147.719624 54.938483 
L 148.559248 54.938483 
L 157.235361 54.938483 
L 157.79511 54.938483 
L 158.634734 54.938483 
L 158.634734 54.144 
L 414.72 54.144 
" style="fill:none;stroke:#fb9a99;stroke-linecap:square;stroke-width:2;"/>
   </g>
   <g id="line2d_32">
    <path clip-path="url(#p0290d03930)" d="M 57.6 307.584 
L 414.72 54.144 
" style="fill:none;stroke:#000000;stroke-dasharray:7.4,3.2;stroke-dashoffset:0;stroke-width:2;"/>
   </g>
   <g id="patch_3">
    <path d="M 57.6 307.584 
L 57.6 41.472 
" style="fill:none;stroke:#000000;stroke-linecap:square;stroke-linejoin:miter;stroke-width:0.8;"/>
   </g>
   <g id="patch_4">
    <path d="M 414.72 307.584 
L 414.72 41.472 
" style="fill:none;stroke:#000000;stroke-linecap:square;stroke-linejoin:miter;stroke-width:0.8;"/>
   </g>
   <g id="patch_5">
    <path d="M 57.6 307.584 
L 414.72 307.584 
" style="fill:none;stroke:#000000;stroke-linecap:square;stroke-linejoin:miter;stroke-width:0.8;"/>
   </g>
   <g id="patch_6">
    <path d="M 57.6 41.472 
L 414.72 41.472 
" style="fill:none;stroke:#000000;stroke-linecap:square;stroke-linejoin:miter;stroke-width:0.8;"/>
   </g>
   <g id="legend_1">
    <g id="patch_7">
     <path d="M 238.35125 303.584 
L 409.12 303.584 
Q 410.72 303.584 410.72 301.984 
L 410.72 219.2515 
Q 410.72 217.6515 409.12 217.6515 
L 238.35125 217.6515 
Q 236.75125 217.6515 236.75125 219.2515 
L 236.75125 301.984 
Q 236.75125 303.584 238.35125 303.584 
z
" style="fill:#ffffff;opacity:0.8;stroke:#cccccc;stroke-linejoin:miter;"/>
    </g>
    <g id="line2d_33">
     <path d="M 239.95125 224.13025 
L 255.95125 224.13025 
" style="fill:none;stroke:#ff1493;stroke-dasharray:2,3.3;stroke-dashoffset:0;stroke-width:2;"/>
    </g>
    <g id="line2d_34"/>
    <g id="text_15">
     <!-- micro_average (area = 0.99) -->
     <defs>
      <path d="M 52 44.1875 
Q 55.375 50.25 60.0625 53.125 
Q 64.75 56 71.09375 56 
Q 79.640625 56 84.28125 50.015625 
Q 88.921875 44.046875 88.921875 33.015625 
L 88.921875 0 
L 79.890625 0 
L 79.890625 32.71875 
Q 79.890625 40.578125 77.09375 44.375 
Q 74.3125 48.1875 68.609375 48.1875 
Q 61.625 48.1875 57.5625 43.546875 
Q 53.515625 38.921875 53.515625 30.90625 
L 53.515625 0 
L 44.484375 0 
L 44.484375 32.71875 
Q 44.484375 40.625 41.703125 44.40625 
Q 38.921875 48.1875 33.109375 48.1875 
Q 26.21875 48.1875 22.15625 43.53125 
Q 18.109375 38.875 18.109375 30.90625 
L 18.109375 0 
L 9.078125 0 
L 9.078125 54.6875 
L 18.109375 54.6875 
L 18.109375 46.1875 
Q 21.1875 51.21875 25.484375 53.609375 
Q 29.78125 56 35.6875 56 
Q 41.65625 56 45.828125 52.96875 
Q 50 49.953125 52 44.1875 
z
" id="DejaVuSans-109"/>
      <path d="M 48.78125 52.59375 
L 48.78125 44.1875 
Q 44.96875 46.296875 41.140625 47.34375 
Q 37.3125 48.390625 33.40625 48.390625 
Q 24.65625 48.390625 19.8125 42.84375 
Q 14.984375 37.3125 14.984375 27.296875 
Q 14.984375 17.28125 19.8125 11.734375 
Q 24.65625 6.203125 33.40625 6.203125 
Q 37.3125 6.203125 41.140625 7.25 
Q 44.96875 8.296875 48.78125 10.40625 
L 48.78125 2.09375 
Q 45.015625 0.34375 40.984375 -0.53125 
Q 36.96875 -1.421875 32.421875 -1.421875 
Q 20.0625 -1.421875 12.78125 6.34375 
Q 5.515625 14.109375 5.515625 27.296875 
Q 5.515625 40.671875 12.859375 48.328125 
Q 20.21875 56 33.015625 56 
Q 37.15625 56 41.109375 55.140625 
Q 45.0625 54.296875 48.78125 52.59375 
z
" id="DejaVuSans-99"/>
      <path d="M 50.984375 -16.609375 
L 50.984375 -23.578125 
L -0.984375 -23.578125 
L -0.984375 -16.609375 
z
" id="DejaVuSans-95"/>
      <path d="M 45.40625 27.984375 
Q 45.40625 37.75 41.375 43.109375 
Q 37.359375 48.484375 30.078125 48.484375 
Q 22.859375 48.484375 18.828125 43.109375 
Q 14.796875 37.75 14.796875 27.984375 
Q 14.796875 18.265625 18.828125 12.890625 
Q 22.859375 7.515625 30.078125 7.515625 
Q 37.359375 7.515625 41.375 12.890625 
Q 45.40625 18.265625 45.40625 27.984375 
z
M 54.390625 6.78125 
Q 54.390625 -7.171875 48.1875 -13.984375 
Q 42 -20.796875 29.203125 -20.796875 
Q 24.46875 -20.796875 20.265625 -20.09375 
Q 16.0625 -19.390625 12.109375 -17.921875 
L 12.109375 -9.1875 
Q 16.0625 -11.328125 19.921875 -12.34375 
Q 23.78125 -13.375 27.78125 -13.375 
Q 36.625 -13.375 41.015625 -8.765625 
Q 45.40625 -4.15625 45.40625 5.171875 
L 45.40625 9.625 
Q 42.625 4.78125 38.28125 2.390625 
Q 33.9375 0 27.875 0 
Q 17.828125 0 11.671875 7.65625 
Q 5.515625 15.328125 5.515625 27.984375 
Q 5.515625 40.671875 11.671875 48.328125 
Q 17.828125 56 27.875 56 
Q 33.9375 56 38.28125 53.609375 
Q 42.625 51.21875 45.40625 46.390625 
L 45.40625 54.6875 
L 54.390625 54.6875 
z
" id="DejaVuSans-103"/>
      <path d="M 31 75.875 
Q 24.46875 64.65625 21.28125 53.65625 
Q 18.109375 42.671875 18.109375 31.390625 
Q 18.109375 20.125 21.3125 9.0625 
Q 24.515625 -2 31 -13.1875 
L 23.1875 -13.1875 
Q 15.875 -1.703125 12.234375 9.375 
Q 8.59375 20.453125 8.59375 31.390625 
Q 8.59375 42.28125 12.203125 53.3125 
Q 15.828125 64.359375 23.1875 75.875 
z
" id="DejaVuSans-40"/>
      <path d="M 10.59375 45.40625 
L 73.1875 45.40625 
L 73.1875 37.203125 
L 10.59375 37.203125 
z
M 10.59375 25.484375 
L 73.1875 25.484375 
L 73.1875 17.1875 
L 10.59375 17.1875 
z
" id="DejaVuSans-61"/>
      <path d="M 10.984375 1.515625 
L 10.984375 10.5 
Q 14.703125 8.734375 18.5 7.8125 
Q 22.3125 6.890625 25.984375 6.890625 
Q 35.75 6.890625 40.890625 13.453125 
Q 46.046875 20.015625 46.78125 33.40625 
Q 43.953125 29.203125 39.59375 26.953125 
Q 35.25 24.703125 29.984375 24.703125 
Q 19.046875 24.703125 12.671875 31.3125 
Q 6.296875 37.9375 6.296875 49.421875 
Q 6.296875 60.640625 12.9375 67.421875 
Q 19.578125 74.21875 30.609375 74.21875 
Q 43.265625 74.21875 49.921875 64.515625 
Q 56.59375 54.828125 56.59375 36.375 
Q 56.59375 19.140625 48.40625 8.859375 
Q 40.234375 -1.421875 26.421875 -1.421875 
Q 22.703125 -1.421875 18.890625 -0.6875 
Q 15.09375 0.046875 10.984375 1.515625 
z
M 30.609375 32.421875 
Q 37.25 32.421875 41.125 36.953125 
Q 45.015625 41.5 45.015625 49.421875 
Q 45.015625 57.28125 41.125 61.84375 
Q 37.25 66.40625 30.609375 66.40625 
Q 23.96875 66.40625 20.09375 61.84375 
Q 16.21875 57.28125 16.21875 49.421875 
Q 16.21875 41.5 20.09375 36.953125 
Q 23.96875 32.421875 30.609375 32.421875 
z
" id="DejaVuSans-57"/>
      <path d="M 8.015625 75.875 
L 15.828125 75.875 
Q 23.140625 64.359375 26.78125 53.3125 
Q 30.421875 42.28125 30.421875 31.390625 
Q 30.421875 20.453125 26.78125 9.375 
Q 23.140625 -1.703125 15.828125 -13.1875 
L 8.015625 -13.1875 
Q 14.5 -2 17.703125 9.0625 
Q 20.90625 20.125 20.90625 31.390625 
Q 20.90625 42.671875 17.703125 53.65625 
Q 14.5 64.65625 8.015625 75.875 
z
" id="DejaVuSans-41"/>
     </defs>
     <g transform="translate(262.35125 226.93025)scale(0.08 -0.08)">
      <use xlink:href="#DejaVuSans-109"/>
      <use x="97.412109" xlink:href="#DejaVuSans-105"/>
      <use x="125.195312" xlink:href="#DejaVuSans-99"/>
      <use x="180.175781" xlink:href="#DejaVuSans-114"/>
      <use x="221.257812" xlink:href="#DejaVuSans-111"/>
      <use x="282.439453" xlink:href="#DejaVuSans-95"/>
      <use x="332.439453" xlink:href="#DejaVuSans-97"/>
      <use x="393.71875" xlink:href="#DejaVuSans-118"/>
      <use x="452.898438" xlink:href="#DejaVuSans-101"/>
      <use x="514.421875" xlink:href="#DejaVuSans-114"/>
      <use x="555.535156" xlink:href="#DejaVuSans-97"/>
      <use x="616.814453" xlink:href="#DejaVuSans-103"/>
      <use x="680.291016" xlink:href="#DejaVuSans-101"/>
      <use x="741.814453" xlink:href="#DejaVuSans-32"/>
      <use x="773.601562" xlink:href="#DejaVuSans-40"/>
      <use x="812.615234" xlink:href="#DejaVuSans-97"/>
      <use x="873.894531" xlink:href="#DejaVuSans-114"/>
      <use x="914.976562" xlink:href="#DejaVuSans-101"/>
      <use x="976.5" xlink:href="#DejaVuSans-97"/>
      <use x="1037.779297" xlink:href="#DejaVuSans-32"/>
      <use x="1069.566406" xlink:href="#DejaVuSans-61"/>
      <use x="1153.355469" xlink:href="#DejaVuSans-32"/>
      <use x="1185.142578" xlink:href="#DejaVuSans-48"/>
      <use x="1248.765625" xlink:href="#DejaVuSans-46"/>
      <use x="1280.552734" xlink:href="#DejaVuSans-57"/>
      <use x="1344.175781" xlink:href="#DejaVuSans-57"/>
      <use x="1407.798828" xlink:href="#DejaVuSans-41"/>
     </g>
    </g>
    <g id="line2d_35">
     <path d="M 239.95125 236.09525 
L 255.95125 236.09525 
" style="fill:none;stroke:#000080;stroke-dasharray:2,3.3;stroke-dashoffset:0;stroke-width:2;"/>
    </g>
    <g id="line2d_36"/>
    <g id="text_16">
     <!-- macro_average (area = 0.99) -->
     <g transform="translate(262.35125 238.89525)scale(0.08 -0.08)">
      <use xlink:href="#DejaVuSans-109"/>
      <use x="97.412109" xlink:href="#DejaVuSans-97"/>
      <use x="158.691406" xlink:href="#DejaVuSans-99"/>
      <use x="213.671875" xlink:href="#DejaVuSans-114"/>
      <use x="254.753906" xlink:href="#DejaVuSans-111"/>
      <use x="315.935547" xlink:href="#DejaVuSans-95"/>
      <use x="365.935547" xlink:href="#DejaVuSans-97"/>
      <use x="427.214844" xlink:href="#DejaVuSans-118"/>
      <use x="486.394531" xlink:href="#DejaVuSans-101"/>
      <use x="547.917969" xlink:href="#DejaVuSans-114"/>
      <use x="589.03125" xlink:href="#DejaVuSans-97"/>
      <use x="650.310547" xlink:href="#DejaVuSans-103"/>
      <use x="713.787109" xlink:href="#DejaVuSans-101"/>
      <use x="775.310547" xlink:href="#DejaVuSans-32"/>
      <use x="807.097656" xlink:href="#DejaVuSans-40"/>
      <use x="846.111328" xlink:href="#DejaVuSans-97"/>
      <use x="907.390625" xlink:href="#DejaVuSans-114"/>
      <use x="948.472656" xlink:href="#DejaVuSans-101"/>
      <use x="1009.996094" xlink:href="#DejaVuSans-97"/>
      <use x="1071.275391" xlink:href="#DejaVuSans-32"/>
      <use x="1103.0625" xlink:href="#DejaVuSans-61"/>
      <use x="1186.851562" xlink:href="#DejaVuSans-32"/>
      <use x="1218.638672" xlink:href="#DejaVuSans-48"/>
      <use x="1282.261719" xlink:href="#DejaVuSans-46"/>
      <use x="1314.048828" xlink:href="#DejaVuSans-57"/>
      <use x="1377.671875" xlink:href="#DejaVuSans-57"/>
      <use x="1441.294922" xlink:href="#DejaVuSans-41"/>
     </g>
    </g>
    <g id="line2d_37">
     <path d="M 239.95125 248.06025 
L 255.95125 248.06025 
" style="fill:none;stroke:#a6cee3;stroke-linecap:square;stroke-width:2;"/>
    </g>
    <g id="line2d_38"/>
    <g id="text_17">
     <!--  Anterior_nares (area = 1.00) -->
     <defs>
      <path d="M 34.1875 63.1875 
L 20.796875 26.90625 
L 47.609375 26.90625 
z
M 28.609375 72.90625 
L 39.796875 72.90625 
L 67.578125 0 
L 57.328125 0 
L 50.6875 18.703125 
L 17.828125 18.703125 
L 11.1875 0 
L 0.78125 0 
z
" id="DejaVuSans-65"/>
      <path d="M 54.890625 33.015625 
L 54.890625 0 
L 45.90625 0 
L 45.90625 32.71875 
Q 45.90625 40.484375 42.875 44.328125 
Q 39.84375 48.1875 33.796875 48.1875 
Q 26.515625 48.1875 22.3125 43.546875 
Q 18.109375 38.921875 18.109375 30.90625 
L 18.109375 0 
L 9.078125 0 
L 9.078125 54.6875 
L 18.109375 54.6875 
L 18.109375 46.1875 
Q 21.34375 51.125 25.703125 53.5625 
Q 30.078125 56 35.796875 56 
Q 45.21875 56 50.046875 50.171875 
Q 54.890625 44.34375 54.890625 33.015625 
z
" id="DejaVuSans-110"/>
     </defs>
     <g transform="translate(262.35125 250.86025)scale(0.08 -0.08)">
      <use xlink:href="#DejaVuSans-32"/>
      <use x="31.787109" xlink:href="#DejaVuSans-65"/>
      <use x="100.195312" xlink:href="#DejaVuSans-110"/>
      <use x="163.574219" xlink:href="#DejaVuSans-116"/>
      <use x="202.783203" xlink:href="#DejaVuSans-101"/>
      <use x="264.306641" xlink:href="#DejaVuSans-114"/>
      <use x="305.419922" xlink:href="#DejaVuSans-105"/>
      <use x="333.203125" xlink:href="#DejaVuSans-111"/>
      <use x="394.384766" xlink:href="#DejaVuSans-114"/>
      <use x="435.498047" xlink:href="#DejaVuSans-95"/>
      <use x="485.498047" xlink:href="#DejaVuSans-110"/>
      <use x="548.876953" xlink:href="#DejaVuSans-97"/>
      <use x="610.15625" xlink:href="#DejaVuSans-114"/>
      <use x="651.238281" xlink:href="#DejaVuSans-101"/>
      <use x="712.761719" xlink:href="#DejaVuSans-115"/>
      <use x="764.861328" xlink:href="#DejaVuSans-32"/>
      <use x="796.648438" xlink:href="#DejaVuSans-40"/>
      <use x="835.662109" xlink:href="#DejaVuSans-97"/>
      <use x="896.941406" xlink:href="#DejaVuSans-114"/>
      <use x="938.023438" xlink:href="#DejaVuSans-101"/>
      <use x="999.546875" xlink:href="#DejaVuSans-97"/>
      <use x="1060.826172" xlink:href="#DejaVuSans-32"/>
      <use x="1092.613281" xlink:href="#DejaVuSans-61"/>
      <use x="1176.402344" xlink:href="#DejaVuSans-32"/>
      <use x="1208.189453" xlink:href="#DejaVuSans-49"/>
      <use x="1271.8125" xlink:href="#DejaVuSans-46"/>
      <use x="1303.599609" xlink:href="#DejaVuSans-48"/>
      <use x="1367.222656" xlink:href="#DejaVuSans-48"/>
      <use x="1430.845703" xlink:href="#DejaVuSans-41"/>
     </g>
    </g>
    <g id="line2d_39">
     <path d="M 239.95125 260.02525 
L 255.95125 260.02525 
" style="fill:none;stroke:#1f78b4;stroke-linecap:square;stroke-width:2;"/>
    </g>
    <g id="line2d_40"/>
    <g id="text_18">
     <!--  Buccal_mucosa (area = 0.97) -->
     <defs>
      <path d="M 19.671875 34.8125 
L 19.671875 8.109375 
L 35.5 8.109375 
Q 43.453125 8.109375 47.28125 11.40625 
Q 51.125 14.703125 51.125 21.484375 
Q 51.125 28.328125 47.28125 31.5625 
Q 43.453125 34.8125 35.5 34.8125 
z
M 19.671875 64.796875 
L 19.671875 42.828125 
L 34.28125 42.828125 
Q 41.5 42.828125 45.03125 45.53125 
Q 48.578125 48.25 48.578125 53.8125 
Q 48.578125 59.328125 45.03125 62.0625 
Q 41.5 64.796875 34.28125 64.796875 
z
M 9.8125 72.90625 
L 35.015625 72.90625 
Q 46.296875 72.90625 52.390625 68.21875 
Q 58.5 63.53125 58.5 54.890625 
Q 58.5 48.1875 55.375 44.234375 
Q 52.25 40.28125 46.1875 39.3125 
Q 53.46875 37.75 57.5 32.78125 
Q 61.53125 27.828125 61.53125 20.40625 
Q 61.53125 10.640625 54.890625 5.3125 
Q 48.25 0 35.984375 0 
L 9.8125 0 
z
" id="DejaVuSans-66"/>
      <path d="M 8.203125 72.90625 
L 55.078125 72.90625 
L 55.078125 68.703125 
L 28.609375 0 
L 18.3125 0 
L 43.21875 64.59375 
L 8.203125 64.59375 
z
" id="DejaVuSans-55"/>
     </defs>
     <g transform="translate(262.35125 262.82525)scale(0.08 -0.08)">
      <use xlink:href="#DejaVuSans-32"/>
      <use x="31.787109" xlink:href="#DejaVuSans-66"/>
      <use x="100.390625" xlink:href="#DejaVuSans-117"/>
      <use x="163.769531" xlink:href="#DejaVuSans-99"/>
      <use x="218.75" xlink:href="#DejaVuSans-99"/>
      <use x="273.730469" xlink:href="#DejaVuSans-97"/>
      <use x="335.009766" xlink:href="#DejaVuSans-108"/>
      <use x="362.792969" xlink:href="#DejaVuSans-95"/>
      <use x="412.792969" xlink:href="#DejaVuSans-109"/>
      <use x="510.205078" xlink:href="#DejaVuSans-117"/>
      <use x="573.583984" xlink:href="#DejaVuSans-99"/>
      <use x="628.564453" xlink:href="#DejaVuSans-111"/>
      <use x="689.746094" xlink:href="#DejaVuSans-115"/>
      <use x="741.845703" xlink:href="#DejaVuSans-97"/>
      <use x="803.125" xlink:href="#DejaVuSans-32"/>
      <use x="834.912109" xlink:href="#DejaVuSans-40"/>
      <use x="873.925781" xlink:href="#DejaVuSans-97"/>
      <use x="935.205078" xlink:href="#DejaVuSans-114"/>
      <use x="976.287109" xlink:href="#DejaVuSans-101"/>
      <use x="1037.810547" xlink:href="#DejaVuSans-97"/>
      <use x="1099.089844" xlink:href="#DejaVuSans-32"/>
      <use x="1130.876953" xlink:href="#DejaVuSans-61"/>
      <use x="1214.666016" xlink:href="#DejaVuSans-32"/>
      <use x="1246.453125" xlink:href="#DejaVuSans-48"/>
      <use x="1310.076172" xlink:href="#DejaVuSans-46"/>
      <use x="1341.863281" xlink:href="#DejaVuSans-57"/>
      <use x="1405.486328" xlink:href="#DejaVuSans-55"/>
      <use x="1469.109375" xlink:href="#DejaVuSans-41"/>
     </g>
    </g>
    <g id="line2d_41">
     <path d="M 239.95125 271.99025 
L 255.95125 271.99025 
" style="fill:none;stroke:#b2df8a;stroke-linecap:square;stroke-width:2;"/>
    </g>
    <g id="line2d_42"/>
    <g id="text_19">
     <!--  Stool (area = 1.00) -->
     <defs>
      <path d="M 53.515625 70.515625 
L 53.515625 60.890625 
Q 47.90625 63.578125 42.921875 64.890625 
Q 37.9375 66.21875 33.296875 66.21875 
Q 25.25 66.21875 20.875 63.09375 
Q 16.5 59.96875 16.5 54.203125 
Q 16.5 49.359375 19.40625 46.890625 
Q 22.3125 44.4375 30.421875 42.921875 
L 36.375 41.703125 
Q 47.40625 39.59375 52.65625 34.296875 
Q 57.90625 29 57.90625 20.125 
Q 57.90625 9.515625 50.796875 4.046875 
Q 43.703125 -1.421875 29.984375 -1.421875 
Q 24.8125 -1.421875 18.96875 -0.25 
Q 13.140625 0.921875 6.890625 3.21875 
L 6.890625 13.375 
Q 12.890625 10.015625 18.65625 8.296875 
Q 24.421875 6.59375 29.984375 6.59375 
Q 38.421875 6.59375 43.015625 9.90625 
Q 47.609375 13.234375 47.609375 19.390625 
Q 47.609375 24.75 44.3125 27.78125 
Q 41.015625 30.8125 33.5 32.328125 
L 27.484375 33.5 
Q 16.453125 35.6875 11.515625 40.375 
Q 6.59375 45.0625 6.59375 53.421875 
Q 6.59375 63.09375 13.40625 68.65625 
Q 20.21875 74.21875 32.171875 74.21875 
Q 37.3125 74.21875 42.625 73.28125 
Q 47.953125 72.359375 53.515625 70.515625 
z
" id="DejaVuSans-83"/>
     </defs>
     <g transform="translate(262.35125 274.79025)scale(0.08 -0.08)">
      <use xlink:href="#DejaVuSans-32"/>
      <use x="31.787109" xlink:href="#DejaVuSans-83"/>
      <use x="95.263672" xlink:href="#DejaVuSans-116"/>
      <use x="134.472656" xlink:href="#DejaVuSans-111"/>
      <use x="195.654297" xlink:href="#DejaVuSans-111"/>
      <use x="256.835938" xlink:href="#DejaVuSans-108"/>
      <use x="284.619141" xlink:href="#DejaVuSans-32"/>
      <use x="316.40625" xlink:href="#DejaVuSans-40"/>
      <use x="355.419922" xlink:href="#DejaVuSans-97"/>
      <use x="416.699219" xlink:href="#DejaVuSans-114"/>
      <use x="457.78125" xlink:href="#DejaVuSans-101"/>
      <use x="519.304688" xlink:href="#DejaVuSans-97"/>
      <use x="580.583984" xlink:href="#DejaVuSans-32"/>
      <use x="612.371094" xlink:href="#DejaVuSans-61"/>
      <use x="696.160156" xlink:href="#DejaVuSans-32"/>
      <use x="727.947266" xlink:href="#DejaVuSans-49"/>
      <use x="791.570312" xlink:href="#DejaVuSans-46"/>
      <use x="823.357422" xlink:href="#DejaVuSans-48"/>
      <use x="886.980469" xlink:href="#DejaVuSans-48"/>
      <use x="950.603516" xlink:href="#DejaVuSans-41"/>
     </g>
    </g>
    <g id="line2d_43">
     <path d="M 239.95125 283.73275 
L 255.95125 283.73275 
" style="fill:none;stroke:#33a02c;stroke-linecap:square;stroke-width:2;"/>
    </g>
    <g id="line2d_44"/>
    <g id="text_20">
     <!--  Supragingival_plaque (area = 1.00) -->
     <defs>
      <path d="M 18.109375 8.203125 
L 18.109375 -20.796875 
L 9.078125 -20.796875 
L 9.078125 54.6875 
L 18.109375 54.6875 
L 18.109375 46.390625 
Q 20.953125 51.265625 25.265625 53.625 
Q 29.59375 56 35.59375 56 
Q 45.5625 56 51.78125 48.09375 
Q 58.015625 40.1875 58.015625 27.296875 
Q 58.015625 14.40625 51.78125 6.484375 
Q 45.5625 -1.421875 35.59375 -1.421875 
Q 29.59375 -1.421875 25.265625 0.953125 
Q 20.953125 3.328125 18.109375 8.203125 
z
M 48.6875 27.296875 
Q 48.6875 37.203125 44.609375 42.84375 
Q 40.53125 48.484375 33.40625 48.484375 
Q 26.265625 48.484375 22.1875 42.84375 
Q 18.109375 37.203125 18.109375 27.296875 
Q 18.109375 17.390625 22.1875 11.75 
Q 26.265625 6.109375 33.40625 6.109375 
Q 40.53125 6.109375 44.609375 11.75 
Q 48.6875 17.390625 48.6875 27.296875 
z
" id="DejaVuSans-112"/>
      <path d="M 14.796875 27.296875 
Q 14.796875 17.390625 18.875 11.75 
Q 22.953125 6.109375 30.078125 6.109375 
Q 37.203125 6.109375 41.296875 11.75 
Q 45.40625 17.390625 45.40625 27.296875 
Q 45.40625 37.203125 41.296875 42.84375 
Q 37.203125 48.484375 30.078125 48.484375 
Q 22.953125 48.484375 18.875 42.84375 
Q 14.796875 37.203125 14.796875 27.296875 
z
M 45.40625 8.203125 
Q 42.578125 3.328125 38.25 0.953125 
Q 33.9375 -1.421875 27.875 -1.421875 
Q 17.96875 -1.421875 11.734375 6.484375 
Q 5.515625 14.40625 5.515625 27.296875 
Q 5.515625 40.1875 11.734375 48.09375 
Q 17.96875 56 27.875 56 
Q 33.9375 56 38.25 53.625 
Q 42.578125 51.265625 45.40625 46.390625 
L 45.40625 54.6875 
L 54.390625 54.6875 
L 54.390625 -20.796875 
L 45.40625 -20.796875 
z
" id="DejaVuSans-113"/>
     </defs>
     <g transform="translate(262.35125 286.53275)scale(0.08 -0.08)">
      <use xlink:href="#DejaVuSans-32"/>
      <use x="31.787109" xlink:href="#DejaVuSans-83"/>
      <use x="95.263672" xlink:href="#DejaVuSans-117"/>
      <use x="158.642578" xlink:href="#DejaVuSans-112"/>
      <use x="222.119141" xlink:href="#DejaVuSans-114"/>
      <use x="263.232422" xlink:href="#DejaVuSans-97"/>
      <use x="324.511719" xlink:href="#DejaVuSans-103"/>
      <use x="387.988281" xlink:href="#DejaVuSans-105"/>
      <use x="415.771484" xlink:href="#DejaVuSans-110"/>
      <use x="479.150391" xlink:href="#DejaVuSans-103"/>
      <use x="542.626953" xlink:href="#DejaVuSans-105"/>
      <use x="570.410156" xlink:href="#DejaVuSans-118"/>
      <use x="629.589844" xlink:href="#DejaVuSans-97"/>
      <use x="690.869141" xlink:href="#DejaVuSans-108"/>
      <use x="718.652344" xlink:href="#DejaVuSans-95"/>
      <use x="768.652344" xlink:href="#DejaVuSans-112"/>
      <use x="832.128906" xlink:href="#DejaVuSans-108"/>
      <use x="859.912109" xlink:href="#DejaVuSans-97"/>
      <use x="921.191406" xlink:href="#DejaVuSans-113"/>
      <use x="984.667969" xlink:href="#DejaVuSans-117"/>
      <use x="1048.046875" xlink:href="#DejaVuSans-101"/>
      <use x="1109.570312" xlink:href="#DejaVuSans-32"/>
      <use x="1141.357422" xlink:href="#DejaVuSans-40"/>
      <use x="1180.371094" xlink:href="#DejaVuSans-97"/>
      <use x="1241.650391" xlink:href="#DejaVuSans-114"/>
      <use x="1282.732422" xlink:href="#DejaVuSans-101"/>
      <use x="1344.255859" xlink:href="#DejaVuSans-97"/>
      <use x="1405.535156" xlink:href="#DejaVuSans-32"/>
      <use x="1437.322266" xlink:href="#DejaVuSans-61"/>
      <use x="1521.111328" xlink:href="#DejaVuSans-32"/>
      <use x="1552.898438" xlink:href="#DejaVuSans-49"/>
      <use x="1616.521484" xlink:href="#DejaVuSans-46"/>
      <use x="1648.308594" xlink:href="#DejaVuSans-48"/>
      <use x="1711.931641" xlink:href="#DejaVuSans-48"/>
      <use x="1775.554688" xlink:href="#DejaVuSans-41"/>
     </g>
    </g>
    <g id="line2d_45">
     <path d="M 239.95125 295.69775 
L 255.95125 295.69775 
" style="fill:none;stroke:#fb9a99;stroke-linecap:square;stroke-width:2;"/>
    </g>
    <g id="line2d_46"/>
    <g id="text_21">
     <!--  Tongue_dorsum (area = 1.00) -->
     <defs>
      <path d="M 45.40625 46.390625 
L 45.40625 75.984375 
L 54.390625 75.984375 
L 54.390625 0 
L 45.40625 0 
L 45.40625 8.203125 
Q 42.578125 3.328125 38.25 0.953125 
Q 33.9375 -1.421875 27.875 -1.421875 
Q 17.96875 -1.421875 11.734375 6.484375 
Q 5.515625 14.40625 5.515625 27.296875 
Q 5.515625 40.1875 11.734375 48.09375 
Q 17.96875 56 27.875 56 
Q 33.9375 56 38.25 53.625 
Q 42.578125 51.265625 45.40625 46.390625 
z
M 14.796875 27.296875 
Q 14.796875 17.390625 18.875 11.75 
Q 22.953125 6.109375 30.078125 6.109375 
Q 37.203125 6.109375 41.296875 11.75 
Q 45.40625 17.390625 45.40625 27.296875 
Q 45.40625 37.203125 41.296875 42.84375 
Q 37.203125 48.484375 30.078125 48.484375 
Q 22.953125 48.484375 18.875 42.84375 
Q 14.796875 37.203125 14.796875 27.296875 
z
" id="DejaVuSans-100"/>
     </defs>
     <g transform="translate(262.35125 298.49775)scale(0.08 -0.08)">
      <use xlink:href="#DejaVuSans-32"/>
      <use x="31.787109" xlink:href="#DejaVuSans-84"/>
      <use x="92.605469" xlink:href="#DejaVuSans-111"/>
      <use x="153.787109" xlink:href="#DejaVuSans-110"/>
      <use x="217.166016" xlink:href="#DejaVuSans-103"/>
      <use x="280.642578" xlink:href="#DejaVuSans-117"/>
      <use x="344.021484" xlink:href="#DejaVuSans-101"/>
      <use x="405.544922" xlink:href="#DejaVuSans-95"/>
      <use x="455.544922" xlink:href="#DejaVuSans-100"/>
      <use x="519.021484" xlink:href="#DejaVuSans-111"/>
      <use x="580.203125" xlink:href="#DejaVuSans-114"/>
      <use x="621.316406" xlink:href="#DejaVuSans-115"/>
      <use x="673.416016" xlink:href="#DejaVuSans-117"/>
      <use x="736.794922" xlink:href="#DejaVuSans-109"/>
      <use x="834.207031" xlink:href="#DejaVuSans-32"/>
      <use x="865.994141" xlink:href="#DejaVuSans-40"/>
      <use x="905.007812" xlink:href="#DejaVuSans-97"/>
      <use x="966.287109" xlink:href="#DejaVuSans-114"/>
      <use x="1007.369141" xlink:href="#DejaVuSans-101"/>
      <use x="1068.892578" xlink:href="#DejaVuSans-97"/>
      <use x="1130.171875" xlink:href="#DejaVuSans-32"/>
      <use x="1161.958984" xlink:href="#DejaVuSans-61"/>
      <use x="1245.748047" xlink:href="#DejaVuSans-32"/>
      <use x="1277.535156" xlink:href="#DejaVuSans-49"/>
      <use x="1341.158203" xlink:href="#DejaVuSans-46"/>
      <use x="1372.945312" xlink:href="#DejaVuSans-48"/>
      <use x="1436.568359" xlink:href="#DejaVuSans-48"/>
      <use x="1500.191406" xlink:href="#DejaVuSans-41"/>
     </g>
    </g>
   </g>
  </g>
 </g>
 <defs>
  <clipPath id="p0290d03930">
   <rect height="266.112" width="357.12" x="57.6" y="41.472"/>
  </clipPath>
 </defs>
</svg>
