<?xml version="1.0" encoding="utf-8" standalone="no"?>
<!DOCTYPE svg PUBLIC "-//W3C//DTD SVG 1.1//EN"
  "http://www.w3.org/Graphics/SVG/1.1/DTD/svg11.dtd">
<!-- Created with matplotlib (https://matplotlib.org/) -->
<svg height="208.48675pt" version="1.1" viewBox="0 0 448.998875 208.48675" width="448.998875pt" xmlns="http://www.w3.org/2000/svg" xmlns:xlink="http://www.w3.org/1999/xlink">
 <defs>
  <style type="text/css">
*{stroke-linecap:butt;stroke-linejoin:round;}
  </style>
 </defs>
 <g id="figure_1">
  <g id="patch_1">
   <path d="M 0 208.48675 
L 448.998875 208.48675 
L 448.998875 0 
L 0 0 
z
" style="fill:#ffffff;stroke:#ffffff;stroke-linejoin:miter;"/>
  </g>
  <g id="axes_1">
   <g id="patch_2">
    <path d="M 106.998875 187.82 
L 215.238875 187.82 
L 215.238875 21.5 
L 106.998875 21.5 
z
" style="fill:#ffffff;stroke:#7f7f7f;stroke-linejoin:miter;"/>
   </g>
   <g id="matplotlib.axis_1">
    <g id="xtick_1">
     <g id="line2d_1">
      <path clip-path="url(#p9c16cf354e)" d="M 111.918875 187.82 
L 111.918875 21.5 
" style="fill:none;stroke:#e5e5e5;stroke-width:0.8;"/>
     </g>
     <g id="line2d_2">
      <path d="M 111.918875 187.82 
" style="fill:none;stroke:#000000;stroke-width:1.5;"/>
      <defs>
       <path d="M 0 0 
L 0 2.75 
" id="m49fd7569cd" style="stroke:#000000;"/>
      </defs>
      <g>
       <use style="stroke:#000000;" x="111.918875" xlink:href="#m49fd7569cd" y="187.82"/>
      </g>
     </g>
     <g id="text_1">
      <!-- 0 -->
      <defs>
       <path d="M 31.78125 66.40625 
Q 24.171875 66.40625 20.328125 58.90625 
Q 16.5 51.421875 16.5 36.375 
Q 16.5 21.390625 20.328125 13.890625 
Q 24.171875 6.390625 31.78125 6.390625 
Q 39.453125 6.390625 43.28125 13.890625 
Q 47.125 21.390625 47.125 36.375 
Q 47.125 51.421875 43.28125 58.90625 
Q 39.453125 66.40625 31.78125 66.40625 
z
M 31.78125 74.21875 
Q 44.046875 74.21875 50.515625 64.515625 
Q 56.984375 54.828125 56.984375 36.375 
Q 56.984375 17.96875 50.515625 8.265625 
Q 44.046875 -1.421875 31.78125 -1.421875 
Q 19.53125 -1.421875 13.0625 8.265625 
Q 6.59375 17.96875 6.59375 36.375 
Q 6.59375 54.828125 13.0625 64.515625 
Q 19.53125 74.21875 31.78125 74.21875 
z
" id="DejaVuSans-48"/>
      </defs>
      <g style="fill:#4d4d4d;" transform="translate(109.119375 199.456625)scale(0.088 -0.088)">
       <use xlink:href="#DejaVuSans-48"/>
      </g>
     </g>
    </g>
    <g id="xtick_2">
     <g id="line2d_3">
      <path clip-path="url(#p9c16cf354e)" d="M 136.518875 187.82 
L 136.518875 21.5 
" style="fill:none;stroke:#e5e5e5;stroke-width:0.8;"/>
     </g>
     <g id="line2d_4">
      <path d="M 136.518875 187.82 
" style="fill:none;stroke:#000000;stroke-width:1.5;"/>
      <g>
       <use style="stroke:#000000;" x="136.518875" xlink:href="#m49fd7569cd" y="187.82"/>
      </g>
     </g>
     <g id="text_2">
      <!-- 0.25 -->
      <defs>
       <path d="M 10.6875 12.40625 
L 21 12.40625 
L 21 0 
L 10.6875 0 
z
" id="DejaVuSans-46"/>
       <path d="M 19.1875 8.296875 
L 53.609375 8.296875 
L 53.609375 0 
L 7.328125 0 
L 7.328125 8.296875 
Q 12.9375 14.109375 22.625 23.890625 
Q 32.328125 33.6875 34.8125 36.53125 
Q 39.546875 41.84375 41.421875 45.53125 
Q 43.3125 49.21875 43.3125 52.78125 
Q 43.3125 58.59375 39.234375 62.25 
Q 35.15625 65.921875 28.609375 65.921875 
Q 23.96875 65.921875 18.8125 64.3125 
Q 13.671875 62.703125 7.8125 59.421875 
L 7.8125 69.390625 
Q 13.765625 71.78125 18.9375 73 
Q 24.125 74.21875 28.421875 74.21875 
Q 39.75 74.21875 46.484375 68.546875 
Q 53.21875 62.890625 53.21875 53.421875 
Q 53.21875 48.921875 51.53125 44.890625 
Q 49.859375 40.875 45.40625 35.40625 
Q 44.1875 33.984375 37.640625 27.21875 
Q 31.109375 20.453125 19.1875 8.296875 
z
" id="DejaVuSans-50"/>
       <path d="M 10.796875 72.90625 
L 49.515625 72.90625 
L 49.515625 64.59375 
L 19.828125 64.59375 
L 19.828125 46.734375 
Q 21.96875 47.46875 24.109375 47.828125 
Q 26.265625 48.1875 28.421875 48.1875 
Q 40.625 48.1875 47.75 41.5 
Q 54.890625 34.8125 54.890625 23.390625 
Q 54.890625 11.625 47.5625 5.09375 
Q 40.234375 -1.421875 26.90625 -1.421875 
Q 22.3125 -1.421875 17.546875 -0.640625 
Q 12.796875 0.140625 7.71875 1.703125 
L 7.71875 11.625 
Q 12.109375 9.234375 16.796875 8.0625 
Q 21.484375 6.890625 26.703125 6.890625 
Q 35.15625 6.890625 40.078125 11.328125 
Q 45.015625 15.765625 45.015625 23.390625 
Q 45.015625 31 40.078125 35.4375 
Q 35.15625 39.890625 26.703125 39.890625 
Q 22.75 39.890625 18.8125 39.015625 
Q 14.890625 38.140625 10.796875 36.28125 
z
" id="DejaVuSans-53"/>
      </defs>
      <g style="fill:#4d4d4d;" transform="translate(126.722 199.456625)scale(0.088 -0.088)">
       <use xlink:href="#DejaVuSans-48"/>
       <use x="63.623047" xlink:href="#DejaVuSans-46"/>
       <use x="95.410156" xlink:href="#DejaVuSans-50"/>
       <use x="159.033203" xlink:href="#DejaVuSans-53"/>
      </g>
     </g>
    </g>
    <g id="xtick_3">
     <g id="line2d_5">
      <path clip-path="url(#p9c16cf354e)" d="M 161.118875 187.82 
L 161.118875 21.5 
" style="fill:none;stroke:#e5e5e5;stroke-width:0.8;"/>
     </g>
     <g id="line2d_6">
      <path d="M 161.118875 187.82 
" style="fill:none;stroke:#000000;stroke-width:1.5;"/>
      <g>
       <use style="stroke:#000000;" x="161.118875" xlink:href="#m49fd7569cd" y="187.82"/>
      </g>
     </g>
     <g id="text_3">
      <!-- 0.50 -->
      <g style="fill:#4d4d4d;" transform="translate(151.322 199.456625)scale(0.088 -0.088)">
       <use xlink:href="#DejaVuSans-48"/>
       <use x="63.623047" xlink:href="#DejaVuSans-46"/>
       <use x="95.410156" xlink:href="#DejaVuSans-53"/>
       <use x="159.033203" xlink:href="#DejaVuSans-48"/>
      </g>
     </g>
    </g>
    <g id="xtick_4">
     <g id="line2d_7">
      <path clip-path="url(#p9c16cf354e)" d="M 185.718875 187.82 
L 185.718875 21.5 
" style="fill:none;stroke:#e5e5e5;stroke-width:0.8;"/>
     </g>
     <g id="line2d_8">
      <path d="M 185.718875 187.82 
" style="fill:none;stroke:#000000;stroke-width:1.5;"/>
      <g>
       <use style="stroke:#000000;" x="185.718875" xlink:href="#m49fd7569cd" y="187.82"/>
      </g>
     </g>
     <g id="text_4">
      <!-- 0.75 -->
      <defs>
       <path d="M 8.203125 72.90625 
L 55.078125 72.90625 
L 55.078125 68.703125 
L 28.609375 0 
L 18.3125 0 
L 43.21875 64.59375 
L 8.203125 64.59375 
z
" id="DejaVuSans-55"/>
      </defs>
      <g style="fill:#4d4d4d;" transform="translate(175.922 199.456625)scale(0.088 -0.088)">
       <use xlink:href="#DejaVuSans-48"/>
       <use x="63.623047" xlink:href="#DejaVuSans-46"/>
       <use x="95.410156" xlink:href="#DejaVuSans-55"/>
       <use x="159.033203" xlink:href="#DejaVuSans-53"/>
      </g>
     </g>
    </g>
    <g id="xtick_5">
     <g id="line2d_9">
      <path clip-path="url(#p9c16cf354e)" d="M 210.318875 187.82 
L 210.318875 21.5 
" style="fill:none;stroke:#e5e5e5;stroke-width:0.8;"/>
     </g>
     <g id="line2d_10">
      <path d="M 210.318875 187.82 
" style="fill:none;stroke:#000000;stroke-width:1.5;"/>
      <g>
       <use style="stroke:#000000;" x="210.318875" xlink:href="#m49fd7569cd" y="187.82"/>
      </g>
     </g>
     <g id="text_5">
      <!-- 1 -->
      <defs>
       <path d="M 12.40625 8.296875 
L 28.515625 8.296875 
L 28.515625 63.921875 
L 10.984375 60.40625 
L 10.984375 69.390625 
L 28.421875 72.90625 
L 38.28125 72.90625 
L 38.28125 8.296875 
L 54.390625 8.296875 
L 54.390625 0 
L 12.40625 0 
z
" id="DejaVuSans-49"/>
      </defs>
      <g style="fill:#4d4d4d;" transform="translate(207.519375 199.456625)scale(0.088 -0.088)">
       <use xlink:href="#DejaVuSans-49"/>
      </g>
     </g>
    </g>
    <g id="xtick_6">
     <g id="line2d_11">
      <path clip-path="url(#p9c16cf354e)" d="M 124.218875 187.82 
L 124.218875 21.5 
" style="fill:none;stroke:#fafafa;"/>
     </g>
     <g id="line2d_12">
      <path d="M 124.218875 187.82 
" style="fill:none;stroke:#000000;stroke-width:1.5;"/>
      <defs>
       <path d="M 0 0 
L 0 1.375 
" id="mf76a41cee5" style="stroke:#000000;"/>
      </defs>
      <g>
       <use style="stroke:#000000;" x="124.218875" xlink:href="#mf76a41cee5" y="187.82"/>
      </g>
     </g>
    </g>
    <g id="xtick_7">
     <g id="line2d_13">
      <path clip-path="url(#p9c16cf354e)" d="M 148.818875 187.82 
L 148.818875 21.5 
" style="fill:none;stroke:#fafafa;"/>
     </g>
     <g id="line2d_14">
      <path d="M 148.818875 187.82 
" style="fill:none;stroke:#000000;stroke-width:1.5;"/>
      <g>
       <use style="stroke:#000000;" x="148.818875" xlink:href="#mf76a41cee5" y="187.82"/>
      </g>
     </g>
    </g>
    <g id="xtick_8">
     <g id="line2d_15">
      <path clip-path="url(#p9c16cf354e)" d="M 173.418875 187.82 
L 173.418875 21.5 
" style="fill:none;stroke:#fafafa;"/>
     </g>
     <g id="line2d_16">
      <path d="M 173.418875 187.82 
" style="fill:none;stroke:#000000;stroke-width:1.5;"/>
      <g>
       <use style="stroke:#000000;" x="173.418875" xlink:href="#mf76a41cee5" y="187.82"/>
      </g>
     </g>
    </g>
    <g id="xtick_9">
     <g id="line2d_17">
      <path clip-path="url(#p9c16cf354e)" d="M 198.018875 187.82 
L 198.018875 21.5 
" style="fill:none;stroke:#fafafa;"/>
     </g>
     <g id="line2d_18">
      <path d="M 198.018875 187.82 
" style="fill:none;stroke:#000000;stroke-width:1.5;"/>
      <g>
       <use style="stroke:#000000;" x="198.018875" xlink:href="#mf76a41cee5" y="187.82"/>
      </g>
     </g>
    </g>
   </g>
   <g id="matplotlib.axis_2">
    <g id="ytick_1">
     <g id="line2d_19">
      <path clip-path="url(#p9c16cf354e)" d="M 106.998875 175.650244 
L 215.238875 175.650244 
" style="fill:none;stroke:#e5e5e5;stroke-width:0.8;"/>
     </g>
     <g id="line2d_20">
      <path d="M 106.998875 175.650244 
" style="fill:none;stroke:#000000;stroke-width:1.5;"/>
      <defs>
       <path d="M 0 0 
L -2.75 0 
" id="ma3f516ee30" style="stroke:#000000;"/>
      </defs>
      <g>
       <use style="stroke:#000000;" x="106.998875" xlink:href="#ma3f516ee30" y="175.650244"/>
      </g>
     </g>
     <g id="text_6">
      <!-- Anterior_nares -->
      <defs>
       <path d="M 34.1875 63.1875 
L 20.796875 26.90625 
L 47.609375 26.90625 
z
M 28.609375 72.90625 
L 39.796875 72.90625 
L 67.578125 0 
L 57.328125 0 
L 50.6875 18.703125 
L 17.828125 18.703125 
L 11.1875 0 
L 0.78125 0 
z
" id="DejaVuSans-65"/>
       <path d="M 54.890625 33.015625 
L 54.890625 0 
L 45.90625 0 
L 45.90625 32.71875 
Q 45.90625 40.484375 42.875 44.328125 
Q 39.84375 48.1875 33.796875 48.1875 
Q 26.515625 48.1875 22.3125 43.546875 
Q 18.109375 38.921875 18.109375 30.90625 
L 18.109375 0 
L 9.078125 0 
L 9.078125 54.6875 
L 18.109375 54.6875 
L 18.109375 46.1875 
Q 21.34375 51.125 25.703125 53.5625 
Q 30.078125 56 35.796875 56 
Q 45.21875 56 50.046875 50.171875 
Q 54.890625 44.34375 54.890625 33.015625 
z
" id="DejaVuSans-110"/>
       <path d="M 18.3125 70.21875 
L 18.3125 54.6875 
L 36.8125 54.6875 
L 36.8125 47.703125 
L 18.3125 47.703125 
L 18.3125 18.015625 
Q 18.3125 11.328125 20.140625 9.421875 
Q 21.96875 7.515625 27.59375 7.515625 
L 36.8125 7.515625 
L 36.8125 0 
L 27.59375 0 
Q 17.1875 0 13.234375 3.875 
Q 9.28125 7.765625 9.28125 18.015625 
L 9.28125 47.703125 
L 2.6875 47.703125 
L 2.6875 54.6875 
L 9.28125 54.6875 
L 9.28125 70.21875 
z
" id="DejaVuSans-116"/>
       <path d="M 56.203125 29.59375 
L 56.203125 25.203125 
L 14.890625 25.203125 
Q 15.484375 15.921875 20.484375 11.0625 
Q 25.484375 6.203125 34.421875 6.203125 
Q 39.59375 6.203125 44.453125 7.46875 
Q 49.3125 8.734375 54.109375 11.28125 
L 54.109375 2.78125 
Q 49.265625 0.734375 44.1875 -0.34375 
Q 39.109375 -1.421875 33.890625 -1.421875 
Q 20.796875 -1.421875 13.15625 6.1875 
Q 5.515625 13.8125 5.515625 26.8125 
Q 5.515625 40.234375 12.765625 48.109375 
Q 20.015625 56 32.328125 56 
Q 43.359375 56 49.78125 48.890625 
Q 56.203125 41.796875 56.203125 29.59375 
z
M 47.21875 32.234375 
Q 47.125 39.59375 43.09375 43.984375 
Q 39.0625 48.390625 32.421875 48.390625 
Q 24.90625 48.390625 20.390625 44.140625 
Q 15.875 39.890625 15.1875 32.171875 
z
" id="DejaVuSans-101"/>
       <path d="M 41.109375 46.296875 
Q 39.59375 47.171875 37.8125 47.578125 
Q 36.03125 48 33.890625 48 
Q 26.265625 48 22.1875 43.046875 
Q 18.109375 38.09375 18.109375 28.8125 
L 18.109375 0 
L 9.078125 0 
L 9.078125 54.6875 
L 18.109375 54.6875 
L 18.109375 46.1875 
Q 20.953125 51.171875 25.484375 53.578125 
Q 30.03125 56 36.53125 56 
Q 37.453125 56 38.578125 55.875 
Q 39.703125 55.765625 41.0625 55.515625 
z
" id="DejaVuSans-114"/>
       <path d="M 9.421875 54.6875 
L 18.40625 54.6875 
L 18.40625 0 
L 9.421875 0 
z
M 9.421875 75.984375 
L 18.40625 75.984375 
L 18.40625 64.59375 
L 9.421875 64.59375 
z
" id="DejaVuSans-105"/>
       <path d="M 30.609375 48.390625 
Q 23.390625 48.390625 19.1875 42.75 
Q 14.984375 37.109375 14.984375 27.296875 
Q 14.984375 17.484375 19.15625 11.84375 
Q 23.34375 6.203125 30.609375 6.203125 
Q 37.796875 6.203125 41.984375 11.859375 
Q 46.1875 17.53125 46.1875 27.296875 
Q 46.1875 37.015625 41.984375 42.703125 
Q 37.796875 48.390625 30.609375 48.390625 
z
M 30.609375 56 
Q 42.328125 56 49.015625 48.375 
Q 55.71875 40.765625 55.71875 27.296875 
Q 55.71875 13.875 49.015625 6.21875 
Q 42.328125 -1.421875 30.609375 -1.421875 
Q 18.84375 -1.421875 12.171875 6.21875 
Q 5.515625 13.875 5.515625 27.296875 
Q 5.515625 40.765625 12.171875 48.375 
Q 18.84375 56 30.609375 56 
z
" id="DejaVuSans-111"/>
       <path d="M 50.984375 -16.609375 
L 50.984375 -23.578125 
L -0.984375 -23.578125 
L -0.984375 -16.609375 
z
" id="DejaVuSans-95"/>
       <path d="M 34.28125 27.484375 
Q 23.390625 27.484375 19.1875 25 
Q 14.984375 22.515625 14.984375 16.5 
Q 14.984375 11.71875 18.140625 8.90625 
Q 21.296875 6.109375 26.703125 6.109375 
Q 34.1875 6.109375 38.703125 11.40625 
Q 43.21875 16.703125 43.21875 25.484375 
L 43.21875 27.484375 
z
M 52.203125 31.203125 
L 52.203125 0 
L 43.21875 0 
L 43.21875 8.296875 
Q 40.140625 3.328125 35.546875 0.953125 
Q 30.953125 -1.421875 24.3125 -1.421875 
Q 15.921875 -1.421875 10.953125 3.296875 
Q 6 8.015625 6 15.921875 
Q 6 25.140625 12.171875 29.828125 
Q 18.359375 34.515625 30.609375 34.515625 
L 43.21875 34.515625 
L 43.21875 35.40625 
Q 43.21875 41.609375 39.140625 45 
Q 35.0625 48.390625 27.6875 48.390625 
Q 23 48.390625 18.546875 47.265625 
Q 14.109375 46.140625 10.015625 43.890625 
L 10.015625 52.203125 
Q 14.9375 54.109375 19.578125 55.046875 
Q 24.21875 56 28.609375 56 
Q 40.484375 56 46.34375 49.84375 
Q 52.203125 43.703125 52.203125 31.203125 
z
" id="DejaVuSans-97"/>
       <path d="M 44.28125 53.078125 
L 44.28125 44.578125 
Q 40.484375 46.53125 36.375 47.5 
Q 32.28125 48.484375 27.875 48.484375 
Q 21.1875 48.484375 17.84375 46.4375 
Q 14.5 44.390625 14.5 40.28125 
Q 14.5 37.15625 16.890625 35.375 
Q 19.28125 33.59375 26.515625 31.984375 
L 29.59375 31.296875 
Q 39.15625 29.25 43.1875 25.515625 
Q 47.21875 21.78125 47.21875 15.09375 
Q 47.21875 7.46875 41.1875 3.015625 
Q 35.15625 -1.421875 24.609375 -1.421875 
Q 20.21875 -1.421875 15.453125 -0.5625 
Q 10.6875 0.296875 5.421875 2 
L 5.421875 11.28125 
Q 10.40625 8.6875 15.234375 7.390625 
Q 20.0625 6.109375 24.8125 6.109375 
Q 31.15625 6.109375 34.5625 8.28125 
Q 37.984375 10.453125 37.984375 14.40625 
Q 37.984375 18.0625 35.515625 20.015625 
Q 33.0625 21.96875 24.703125 23.78125 
L 21.578125 24.515625 
Q 13.234375 26.265625 9.515625 29.90625 
Q 5.8125 33.546875 5.8125 39.890625 
Q 5.8125 47.609375 11.28125 51.796875 
Q 16.75 56 26.8125 56 
Q 31.78125 56 36.171875 55.265625 
Q 40.578125 54.546875 44.28125 53.078125 
z
" id="DejaVuSans-115"/>
      </defs>
      <g style="fill:#4d4d4d;" transform="translate(37.539375 177.956119)scale(0.088 -0.088)">
       <use xlink:href="#DejaVuSans-65"/>
       <use x="68.408203" xlink:href="#DejaVuSans-110"/>
       <use x="131.787109" xlink:href="#DejaVuSans-116"/>
       <use x="170.996094" xlink:href="#DejaVuSans-101"/>
       <use x="232.519531" xlink:href="#DejaVuSans-114"/>
       <use x="273.632812" xlink:href="#DejaVuSans-105"/>
       <use x="301.416016" xlink:href="#DejaVuSans-111"/>
       <use x="362.597656" xlink:href="#DejaVuSans-114"/>
       <use x="403.710938" xlink:href="#DejaVuSans-95"/>
       <use x="453.710938" xlink:href="#DejaVuSans-110"/>
       <use x="517.089844" xlink:href="#DejaVuSans-97"/>
       <use x="578.369141" xlink:href="#DejaVuSans-114"/>
       <use x="619.451172" xlink:href="#DejaVuSans-101"/>
       <use x="680.974609" xlink:href="#DejaVuSans-115"/>
      </g>
     </g>
    </g>
    <g id="ytick_2">
     <g id="line2d_21">
      <path clip-path="url(#p9c16cf354e)" d="M 106.998875 155.367317 
L 215.238875 155.367317 
" style="fill:none;stroke:#e5e5e5;stroke-width:0.8;"/>
     </g>
     <g id="line2d_22">
      <path d="M 106.998875 155.367317 
" style="fill:none;stroke:#000000;stroke-width:1.5;"/>
      <g>
       <use style="stroke:#000000;" x="106.998875" xlink:href="#ma3f516ee30" y="155.367317"/>
      </g>
     </g>
     <g id="text_7">
      <!-- Buccal_mucosa -->
      <defs>
       <path d="M 19.671875 34.8125 
L 19.671875 8.109375 
L 35.5 8.109375 
Q 43.453125 8.109375 47.28125 11.40625 
Q 51.125 14.703125 51.125 21.484375 
Q 51.125 28.328125 47.28125 31.5625 
Q 43.453125 34.8125 35.5 34.8125 
z
M 19.671875 64.796875 
L 19.671875 42.828125 
L 34.28125 42.828125 
Q 41.5 42.828125 45.03125 45.53125 
Q 48.578125 48.25 48.578125 53.8125 
Q 48.578125 59.328125 45.03125 62.0625 
Q 41.5 64.796875 34.28125 64.796875 
z
M 9.8125 72.90625 
L 35.015625 72.90625 
Q 46.296875 72.90625 52.390625 68.21875 
Q 58.5 63.53125 58.5 54.890625 
Q 58.5 48.1875 55.375 44.234375 
Q 52.25 40.28125 46.1875 39.3125 
Q 53.46875 37.75 57.5 32.78125 
Q 61.53125 27.828125 61.53125 20.40625 
Q 61.53125 10.640625 54.890625 5.3125 
Q 48.25 0 35.984375 0 
L 9.8125 0 
z
" id="DejaVuSans-66"/>
       <path d="M 8.5 21.578125 
L 8.5 54.6875 
L 17.484375 54.6875 
L 17.484375 21.921875 
Q 17.484375 14.15625 20.5 10.265625 
Q 23.53125 6.390625 29.59375 6.390625 
Q 36.859375 6.390625 41.078125 11.03125 
Q 45.3125 15.671875 45.3125 23.6875 
L 45.3125 54.6875 
L 54.296875 54.6875 
L 54.296875 0 
L 45.3125 0 
L 45.3125 8.40625 
Q 42.046875 3.421875 37.71875 1 
Q 33.40625 -1.421875 27.6875 -1.421875 
Q 18.265625 -1.421875 13.375 4.4375 
Q 8.5 10.296875 8.5 21.578125 
z
M 31.109375 56 
z
" id="DejaVuSans-117"/>
       <path d="M 48.78125 52.59375 
L 48.78125 44.1875 
Q 44.96875 46.296875 41.140625 47.34375 
Q 37.3125 48.390625 33.40625 48.390625 
Q 24.65625 48.390625 19.8125 42.84375 
Q 14.984375 37.3125 14.984375 27.296875 
Q 14.984375 17.28125 19.8125 11.734375 
Q 24.65625 6.203125 33.40625 6.203125 
Q 37.3125 6.203125 41.140625 7.25 
Q 44.96875 8.296875 48.78125 10.40625 
L 48.78125 2.09375 
Q 45.015625 0.34375 40.984375 -0.53125 
Q 36.96875 -1.421875 32.421875 -1.421875 
Q 20.0625 -1.421875 12.78125 6.34375 
Q 5.515625 14.109375 5.515625 27.296875 
Q 5.515625 40.671875 12.859375 48.328125 
Q 20.21875 56 33.015625 56 
Q 37.15625 56 41.109375 55.140625 
Q 45.0625 54.296875 48.78125 52.59375 
z
" id="DejaVuSans-99"/>
       <path d="M 9.421875 75.984375 
L 18.40625 75.984375 
L 18.40625 0 
L 9.421875 0 
z
" id="DejaVuSans-108"/>
       <path d="M 52 44.1875 
Q 55.375 50.25 60.0625 53.125 
Q 64.75 56 71.09375 56 
Q 79.640625 56 84.28125 50.015625 
Q 88.921875 44.046875 88.921875 33.015625 
L 88.921875 0 
L 79.890625 0 
L 79.890625 32.71875 
Q 79.890625 40.578125 77.09375 44.375 
Q 74.3125 48.1875 68.609375 48.1875 
Q 61.625 48.1875 57.5625 43.546875 
Q 53.515625 38.921875 53.515625 30.90625 
L 53.515625 0 
L 44.484375 0 
L 44.484375 32.71875 
Q 44.484375 40.625 41.703125 44.40625 
Q 38.921875 48.1875 33.109375 48.1875 
Q 26.21875 48.1875 22.15625 43.53125 
Q 18.109375 38.875 18.109375 30.90625 
L 18.109375 0 
L 9.078125 0 
L 9.078125 54.6875 
L 18.109375 54.6875 
L 18.109375 46.1875 
Q 21.1875 51.21875 25.484375 53.609375 
Q 29.78125 56 35.6875 56 
Q 41.65625 56 45.828125 52.96875 
Q 50 49.953125 52 44.1875 
z
" id="DejaVuSans-109"/>
      </defs>
      <g style="fill:#4d4d4d;" transform="translate(34.170625 157.673192)scale(0.088 -0.088)">
       <use xlink:href="#DejaVuSans-66"/>
       <use x="68.603516" xlink:href="#DejaVuSans-117"/>
       <use x="131.982422" xlink:href="#DejaVuSans-99"/>
       <use x="186.962891" xlink:href="#DejaVuSans-99"/>
       <use x="241.943359" xlink:href="#DejaVuSans-97"/>
       <use x="303.222656" xlink:href="#DejaVuSans-108"/>
       <use x="331.005859" xlink:href="#DejaVuSans-95"/>
       <use x="381.005859" xlink:href="#DejaVuSans-109"/>
       <use x="478.417969" xlink:href="#DejaVuSans-117"/>
       <use x="541.796875" xlink:href="#DejaVuSans-99"/>
       <use x="596.777344" xlink:href="#DejaVuSans-111"/>
       <use x="657.958984" xlink:href="#DejaVuSans-115"/>
       <use x="710.058594" xlink:href="#DejaVuSans-97"/>
      </g>
     </g>
    </g>
    <g id="ytick_3">
     <g id="line2d_23">
      <path clip-path="url(#p9c16cf354e)" d="M 106.998875 135.08439 
L 215.238875 135.08439 
" style="fill:none;stroke:#e5e5e5;stroke-width:0.8;"/>
     </g>
     <g id="line2d_24">
      <path d="M 106.998875 135.08439 
" style="fill:none;stroke:#000000;stroke-width:1.5;"/>
      <g>
       <use style="stroke:#000000;" x="106.998875" xlink:href="#ma3f516ee30" y="135.08439"/>
      </g>
     </g>
     <g id="text_8">
      <!-- Stool -->
      <defs>
       <path d="M 53.515625 70.515625 
L 53.515625 60.890625 
Q 47.90625 63.578125 42.921875 64.890625 
Q 37.9375 66.21875 33.296875 66.21875 
Q 25.25 66.21875 20.875 63.09375 
Q 16.5 59.96875 16.5 54.203125 
Q 16.5 49.359375 19.40625 46.890625 
Q 22.3125 44.4375 30.421875 42.921875 
L 36.375 41.703125 
Q 47.40625 39.59375 52.65625 34.296875 
Q 57.90625 29 57.90625 20.125 
Q 57.90625 9.515625 50.796875 4.046875 
Q 43.703125 -1.421875 29.984375 -1.421875 
Q 24.8125 -1.421875 18.96875 -0.25 
Q 13.140625 0.921875 6.890625 3.21875 
L 6.890625 13.375 
Q 12.890625 10.015625 18.65625 8.296875 
Q 24.421875 6.59375 29.984375 6.59375 
Q 38.421875 6.59375 43.015625 9.90625 
Q 47.609375 13.234375 47.609375 19.390625 
Q 47.609375 24.75 44.3125 27.78125 
Q 41.015625 30.8125 33.5 32.328125 
L 27.484375 33.5 
Q 16.453125 35.6875 11.515625 40.375 
Q 6.59375 45.0625 6.59375 53.421875 
Q 6.59375 63.09375 13.40625 68.65625 
Q 20.21875 74.21875 32.171875 74.21875 
Q 37.3125 74.21875 42.625 73.28125 
Q 47.953125 72.359375 53.515625 70.515625 
z
" id="DejaVuSans-83"/>
      </defs>
      <g style="fill:#4d4d4d;" transform="translate(79.798625 137.51264)scale(0.088 -0.088)">
       <use xlink:href="#DejaVuSans-83"/>
       <use x="63.476562" xlink:href="#DejaVuSans-116"/>
       <use x="102.685547" xlink:href="#DejaVuSans-111"/>
       <use x="163.867188" xlink:href="#DejaVuSans-111"/>
       <use x="225.048828" xlink:href="#DejaVuSans-108"/>
      </g>
     </g>
    </g>
    <g id="ytick_4">
     <g id="line2d_25">
      <path clip-path="url(#p9c16cf354e)" d="M 106.998875 114.801463 
L 215.238875 114.801463 
" style="fill:none;stroke:#e5e5e5;stroke-width:0.8;"/>
     </g>
     <g id="line2d_26">
      <path d="M 106.998875 114.801463 
" style="fill:none;stroke:#000000;stroke-width:1.5;"/>
      <g>
       <use style="stroke:#000000;" x="106.998875" xlink:href="#ma3f516ee30" y="114.801463"/>
      </g>
     </g>
     <g id="text_9">
      <!-- Supragingival_plaque -->
      <defs>
       <path d="M 18.109375 8.203125 
L 18.109375 -20.796875 
L 9.078125 -20.796875 
L 9.078125 54.6875 
L 18.109375 54.6875 
L 18.109375 46.390625 
Q 20.953125 51.265625 25.265625 53.625 
Q 29.59375 56 35.59375 56 
Q 45.5625 56 51.78125 48.09375 
Q 58.015625 40.1875 58.015625 27.296875 
Q 58.015625 14.40625 51.78125 6.484375 
Q 45.5625 -1.421875 35.59375 -1.421875 
Q 29.59375 -1.421875 25.265625 0.953125 
Q 20.953125 3.328125 18.109375 8.203125 
z
M 48.6875 27.296875 
Q 48.6875 37.203125 44.609375 42.84375 
Q 40.53125 48.484375 33.40625 48.484375 
Q 26.265625 48.484375 22.1875 42.84375 
Q 18.109375 37.203125 18.109375 27.296875 
Q 18.109375 17.390625 22.1875 11.75 
Q 26.265625 6.109375 33.40625 6.109375 
Q 40.53125 6.109375 44.609375 11.75 
Q 48.6875 17.390625 48.6875 27.296875 
z
" id="DejaVuSans-112"/>
       <path d="M 45.40625 27.984375 
Q 45.40625 37.75 41.375 43.109375 
Q 37.359375 48.484375 30.078125 48.484375 
Q 22.859375 48.484375 18.828125 43.109375 
Q 14.796875 37.75 14.796875 27.984375 
Q 14.796875 18.265625 18.828125 12.890625 
Q 22.859375 7.515625 30.078125 7.515625 
Q 37.359375 7.515625 41.375 12.890625 
Q 45.40625 18.265625 45.40625 27.984375 
z
M 54.390625 6.78125 
Q 54.390625 -7.171875 48.1875 -13.984375 
Q 42 -20.796875 29.203125 -20.796875 
Q 24.46875 -20.796875 20.265625 -20.09375 
Q 16.0625 -19.390625 12.109375 -17.921875 
L 12.109375 -9.1875 
Q 16.0625 -11.328125 19.921875 -12.34375 
Q 23.78125 -13.375 27.78125 -13.375 
Q 36.625 -13.375 41.015625 -8.765625 
Q 45.40625 -4.15625 45.40625 5.171875 
L 45.40625 9.625 
Q 42.625 4.78125 38.28125 2.390625 
Q 33.9375 0 27.875 0 
Q 17.828125 0 11.671875 7.65625 
Q 5.515625 15.328125 5.515625 27.984375 
Q 5.515625 40.671875 11.671875 48.328125 
Q 17.828125 56 27.875 56 
Q 33.9375 56 38.28125 53.609375 
Q 42.625 51.21875 45.40625 46.390625 
L 45.40625 54.6875 
L 54.390625 54.6875 
z
" id="DejaVuSans-103"/>
       <path d="M 2.984375 54.6875 
L 12.5 54.6875 
L 29.59375 8.796875 
L 46.6875 54.6875 
L 56.203125 54.6875 
L 35.6875 0 
L 23.484375 0 
z
" id="DejaVuSans-118"/>
       <path d="M 14.796875 27.296875 
Q 14.796875 17.390625 18.875 11.75 
Q 22.953125 6.109375 30.078125 6.109375 
Q 37.203125 6.109375 41.296875 11.75 
Q 45.40625 17.390625 45.40625 27.296875 
Q 45.40625 37.203125 41.296875 42.84375 
Q 37.203125 48.484375 30.078125 48.484375 
Q 22.953125 48.484375 18.875 42.84375 
Q 14.796875 37.203125 14.796875 27.296875 
z
M 45.40625 8.203125 
Q 42.578125 3.328125 38.25 0.953125 
Q 33.9375 -1.421875 27.875 -1.421875 
Q 17.96875 -1.421875 11.734375 6.484375 
Q 5.515625 14.40625 5.515625 27.296875 
Q 5.515625 40.1875 11.734375 48.09375 
Q 17.96875 56 27.875 56 
Q 33.9375 56 38.25 53.625 
Q 42.578125 51.265625 45.40625 46.390625 
L 45.40625 54.6875 
L 54.390625 54.6875 
L 54.390625 -20.796875 
L 45.40625 -20.796875 
z
" id="DejaVuSans-113"/>
      </defs>
      <g style="fill:#4d4d4d;" transform="translate(7.2 117.107338)scale(0.088 -0.088)">
       <use xlink:href="#DejaVuSans-83"/>
       <use x="63.476562" xlink:href="#DejaVuSans-117"/>
       <use x="126.855469" xlink:href="#DejaVuSans-112"/>
       <use x="190.332031" xlink:href="#DejaVuSans-114"/>
       <use x="231.445312" xlink:href="#DejaVuSans-97"/>
       <use x="292.724609" xlink:href="#DejaVuSans-103"/>
       <use x="356.201172" xlink:href="#DejaVuSans-105"/>
       <use x="383.984375" xlink:href="#DejaVuSans-110"/>
       <use x="447.363281" xlink:href="#DejaVuSans-103"/>
       <use x="510.839844" xlink:href="#DejaVuSans-105"/>
       <use x="538.623047" xlink:href="#DejaVuSans-118"/>
       <use x="597.802734" xlink:href="#DejaVuSans-97"/>
       <use x="659.082031" xlink:href="#DejaVuSans-108"/>
       <use x="686.865234" xlink:href="#DejaVuSans-95"/>
       <use x="736.865234" xlink:href="#DejaVuSans-112"/>
       <use x="800.341797" xlink:href="#DejaVuSans-108"/>
       <use x="828.125" xlink:href="#DejaVuSans-97"/>
       <use x="889.404297" xlink:href="#DejaVuSans-113"/>
       <use x="952.880859" xlink:href="#DejaVuSans-117"/>
       <use x="1016.259766" xlink:href="#DejaVuSans-101"/>
      </g>
     </g>
    </g>
    <g id="ytick_5">
     <g id="line2d_27">
      <path clip-path="url(#p9c16cf354e)" d="M 106.998875 94.518537 
L 215.238875 94.518537 
" style="fill:none;stroke:#e5e5e5;stroke-width:0.8;"/>
     </g>
     <g id="line2d_28">
      <path d="M 106.998875 94.518537 
" style="fill:none;stroke:#000000;stroke-width:1.5;"/>
      <g>
       <use style="stroke:#000000;" x="106.998875" xlink:href="#ma3f516ee30" y="94.518537"/>
      </g>
     </g>
     <g id="text_10">
      <!-- Tongue_dorsum -->
      <defs>
       <path d="M -0.296875 72.90625 
L 61.375 72.90625 
L 61.375 64.59375 
L 35.5 64.59375 
L 35.5 0 
L 25.59375 0 
L 25.59375 64.59375 
L -0.296875 64.59375 
z
" id="DejaVuSans-84"/>
       <path d="M 45.40625 46.390625 
L 45.40625 75.984375 
L 54.390625 75.984375 
L 54.390625 0 
L 45.40625 0 
L 45.40625 8.203125 
Q 42.578125 3.328125 38.25 0.953125 
Q 33.9375 -1.421875 27.875 -1.421875 
Q 17.96875 -1.421875 11.734375 6.484375 
Q 5.515625 14.40625 5.515625 27.296875 
Q 5.515625 40.1875 11.734375 48.09375 
Q 17.96875 56 27.875 56 
Q 33.9375 56 38.25 53.625 
Q 42.578125 51.265625 45.40625 46.390625 
z
M 14.796875 27.296875 
Q 14.796875 17.390625 18.875 11.75 
Q 22.953125 6.109375 30.078125 6.109375 
Q 37.203125 6.109375 41.296875 11.75 
Q 45.40625 17.390625 45.40625 27.296875 
Q 45.40625 37.203125 41.296875 42.84375 
Q 37.203125 48.484375 30.078125 48.484375 
Q 22.953125 48.484375 18.875 42.84375 
Q 14.796875 37.203125 14.796875 27.296875 
z
" id="DejaVuSans-100"/>
      </defs>
      <g style="fill:#4d4d4d;" transform="translate(31.43575 96.824412)scale(0.088 -0.088)">
       <use xlink:href="#DejaVuSans-84"/>
       <use x="60.818359" xlink:href="#DejaVuSans-111"/>
       <use x="122" xlink:href="#DejaVuSans-110"/>
       <use x="185.378906" xlink:href="#DejaVuSans-103"/>
       <use x="248.855469" xlink:href="#DejaVuSans-117"/>
       <use x="312.234375" xlink:href="#DejaVuSans-101"/>
       <use x="373.757812" xlink:href="#DejaVuSans-95"/>
       <use x="423.757812" xlink:href="#DejaVuSans-100"/>
       <use x="487.234375" xlink:href="#DejaVuSans-111"/>
       <use x="548.416016" xlink:href="#DejaVuSans-114"/>
       <use x="589.529297" xlink:href="#DejaVuSans-115"/>
       <use x="641.628906" xlink:href="#DejaVuSans-117"/>
       <use x="705.007812" xlink:href="#DejaVuSans-109"/>
      </g>
     </g>
    </g>
    <g id="ytick_6">
     <g id="line2d_29">
      <path clip-path="url(#p9c16cf354e)" d="M 106.998875 74.23561 
L 215.238875 74.23561 
" style="fill:none;stroke:#e5e5e5;stroke-width:0.8;"/>
     </g>
     <g id="line2d_30">
      <path d="M 106.998875 74.23561 
" style="fill:none;stroke:#000000;stroke-width:1.5;"/>
      <g>
       <use style="stroke:#000000;" x="106.998875" xlink:href="#ma3f516ee30" y="74.23561"/>
      </g>
     </g>
     <g id="text_11">
      <!-- accuracy -->
      <defs>
       <path d="M 32.171875 -5.078125 
Q 28.375 -14.84375 24.75 -17.8125 
Q 21.140625 -20.796875 15.09375 -20.796875 
L 7.90625 -20.796875 
L 7.90625 -13.28125 
L 13.1875 -13.28125 
Q 16.890625 -13.28125 18.9375 -11.515625 
Q 21 -9.765625 23.484375 -3.21875 
L 25.09375 0.875 
L 2.984375 54.6875 
L 12.5 54.6875 
L 29.59375 11.921875 
L 46.6875 54.6875 
L 56.203125 54.6875 
z
" id="DejaVuSans-121"/>
      </defs>
      <g style="fill:#4d4d4d;" transform="translate(62.344375 76.66386)scale(0.088 -0.088)">
       <use xlink:href="#DejaVuSans-97"/>
       <use x="61.279297" xlink:href="#DejaVuSans-99"/>
       <use x="116.259766" xlink:href="#DejaVuSans-99"/>
       <use x="171.240234" xlink:href="#DejaVuSans-117"/>
       <use x="234.619141" xlink:href="#DejaVuSans-114"/>
       <use x="275.732422" xlink:href="#DejaVuSans-97"/>
       <use x="337.011719" xlink:href="#DejaVuSans-99"/>
       <use x="391.992188" xlink:href="#DejaVuSans-121"/>
      </g>
     </g>
    </g>
    <g id="ytick_7">
     <g id="line2d_31">
      <path clip-path="url(#p9c16cf354e)" d="M 106.998875 53.952683 
L 215.238875 53.952683 
" style="fill:none;stroke:#e5e5e5;stroke-width:0.8;"/>
     </g>
     <g id="line2d_32">
      <path d="M 106.998875 53.952683 
" style="fill:none;stroke:#000000;stroke-width:1.5;"/>
      <g>
       <use style="stroke:#000000;" x="106.998875" xlink:href="#ma3f516ee30" y="53.952683"/>
      </g>
     </g>
     <g id="text_12">
      <!-- macro avg -->
      <defs>
       <path id="DejaVuSans-32"/>
      </defs>
      <g style="fill:#4d4d4d;" transform="translate(55.26175 56.380933)scale(0.088 -0.088)">
       <use xlink:href="#DejaVuSans-109"/>
       <use x="97.412109" xlink:href="#DejaVuSans-97"/>
       <use x="158.691406" xlink:href="#DejaVuSans-99"/>
       <use x="213.671875" xlink:href="#DejaVuSans-114"/>
       <use x="254.753906" xlink:href="#DejaVuSans-111"/>
       <use x="315.935547" xlink:href="#DejaVuSans-32"/>
       <use x="347.722656" xlink:href="#DejaVuSans-97"/>
       <use x="409.001953" xlink:href="#DejaVuSans-118"/>
       <use x="468.181641" xlink:href="#DejaVuSans-103"/>
      </g>
     </g>
    </g>
    <g id="ytick_8">
     <g id="line2d_33">
      <path clip-path="url(#p9c16cf354e)" d="M 106.998875 33.669756 
L 215.238875 33.669756 
" style="fill:none;stroke:#e5e5e5;stroke-width:0.8;"/>
     </g>
     <g id="line2d_34">
      <path d="M 106.998875 33.669756 
" style="fill:none;stroke:#000000;stroke-width:1.5;"/>
      <g>
       <use style="stroke:#000000;" x="106.998875" xlink:href="#ma3f516ee30" y="33.669756"/>
      </g>
     </g>
     <g id="text_13">
      <!-- weighted avg -->
      <defs>
       <path d="M 4.203125 54.6875 
L 13.1875 54.6875 
L 24.421875 12.015625 
L 35.59375 54.6875 
L 46.1875 54.6875 
L 57.421875 12.015625 
L 68.609375 54.6875 
L 77.59375 54.6875 
L 63.28125 0 
L 52.6875 0 
L 40.921875 44.828125 
L 29.109375 0 
L 18.5 0 
z
" id="DejaVuSans-119"/>
       <path d="M 54.890625 33.015625 
L 54.890625 0 
L 45.90625 0 
L 45.90625 32.71875 
Q 45.90625 40.484375 42.875 44.328125 
Q 39.84375 48.1875 33.796875 48.1875 
Q 26.515625 48.1875 22.3125 43.546875 
Q 18.109375 38.921875 18.109375 30.90625 
L 18.109375 0 
L 9.078125 0 
L 9.078125 75.984375 
L 18.109375 75.984375 
L 18.109375 46.1875 
Q 21.34375 51.125 25.703125 53.5625 
Q 30.078125 56 35.796875 56 
Q 45.21875 56 50.046875 50.171875 
Q 54.890625 44.34375 54.890625 33.015625 
z
" id="DejaVuSans-104"/>
      </defs>
      <g style="fill:#4d4d4d;" transform="translate(42.393125 36.098006)scale(0.088 -0.088)">
       <use xlink:href="#DejaVuSans-119"/>
       <use x="81.787109" xlink:href="#DejaVuSans-101"/>
       <use x="143.310547" xlink:href="#DejaVuSans-105"/>
       <use x="171.09375" xlink:href="#DejaVuSans-103"/>
       <use x="234.570312" xlink:href="#DejaVuSans-104"/>
       <use x="297.949219" xlink:href="#DejaVuSans-116"/>
       <use x="337.158203" xlink:href="#DejaVuSans-101"/>
       <use x="398.681641" xlink:href="#DejaVuSans-100"/>
       <use x="462.158203" xlink:href="#DejaVuSans-32"/>
       <use x="493.945312" xlink:href="#DejaVuSans-97"/>
       <use x="555.224609" xlink:href="#DejaVuSans-118"/>
       <use x="614.404297" xlink:href="#DejaVuSans-103"/>
      </g>
     </g>
    </g>
   </g>
   <g id="PathCollection_1">
    <path clip-path="url(#p9c16cf354e)" d="M 209.334875 177.422698 
C 209.804935 177.422698 210.255806 177.235941 210.588189 176.903558 
C 210.920572 176.571175 211.107329 176.120304 211.107329 175.650244 
C 211.107329 175.180184 210.920572 174.729313 210.588189 174.39693 
C 210.255806 174.064547 209.804935 173.87779 209.334875 173.87779 
C 208.864815 173.87779 208.413944 174.064547 208.081561 174.39693 
C 207.749178 174.729313 207.562421 175.180184 207.562421 175.650244 
C 207.562421 176.120304 207.749178 176.571175 208.081561 176.903558 
C 208.413944 177.235941 208.864815 177.422698 209.334875 177.422698 
z
" style="fill:#db5f57;stroke:#000000;stroke-width:0.886227;"/>
    <path clip-path="url(#p9c16cf354e)" d="M 203.430875 157.139771 
C 203.900935 157.139771 204.351806 156.953014 204.684189 156.620631 
C 205.016572 156.288248 205.203329 155.837377 205.203329 155.367317 
C 205.203329 154.897257 205.016572 154.446386 204.684189 154.114003 
C 204.351806 153.78162 203.900935 153.594863 203.430875 153.594863 
C 202.960815 153.594863 202.509944 153.78162 202.177561 154.114003 
C 201.845178 154.446386 201.658421 154.897257 201.658421 155.367317 
C 201.658421 155.837377 201.845178 156.288248 202.177561 156.620631 
C 202.509944 156.953014 202.960815 157.139771 203.430875 157.139771 
z
" style="fill:#dbc257;stroke:#000000;stroke-width:0.886227;"/>
    <path clip-path="url(#p9c16cf354e)" d="M 210.318875 136.856844 
C 210.788935 136.856844 211.239806 136.670087 211.572189 136.337704 
C 211.904572 136.005322 212.091329 135.55445 212.091329 135.08439 
C 212.091329 134.61433 211.904572 134.163459 211.572189 133.831076 
C 211.239806 133.498693 210.788935 133.311936 210.318875 133.311936 
C 209.848815 133.311936 209.397944 133.498693 209.065561 133.831076 
C 208.733178 134.163459 208.546421 134.61433 208.546421 135.08439 
C 208.546421 135.55445 208.733178 136.005322 209.065561 136.337704 
C 209.397944 136.670087 209.848815 136.856844 210.318875 136.856844 
z
" style="fill:#91db57;stroke:#000000;stroke-width:0.886227;"/>
    <path clip-path="url(#p9c16cf354e)" d="M 208.350875 116.573917 
C 208.820935 116.573917 209.271806 116.38716 209.604189 116.054778 
C 209.936572 115.722395 210.123329 115.271524 210.123329 114.801463 
C 210.123329 114.331403 209.936572 113.880532 209.604189 113.548149 
C 209.271806 113.215766 208.820935 113.02901 208.350875 113.02901 
C 207.880815 113.02901 207.429944 113.215766 207.097561 113.548149 
C 206.765178 113.880532 206.578421 114.331403 206.578421 114.801463 
C 206.578421 115.271524 206.765178 115.722395 207.097561 116.054778 
C 207.429944 116.38716 207.880815 116.573917 208.350875 116.573917 
z
" style="fill:#57db80;stroke:#000000;stroke-width:0.886227;"/>
    <path clip-path="url(#p9c16cf354e)" d="M 205.398875 96.29099 
C 205.868935 96.29099 206.319806 96.104234 206.652189 95.771851 
C 206.984572 95.439468 207.171329 94.988597 207.171329 94.518537 
C 207.171329 94.048476 206.984572 93.597605 206.652189 93.265222 
C 206.319806 92.93284 205.868935 92.746083 205.398875 92.746083 
C 204.928815 92.746083 204.477944 92.93284 204.145561 93.265222 
C 203.813178 93.597605 203.626421 94.048476 203.626421 94.518537 
C 203.626421 94.988597 203.813178 95.439468 204.145561 95.771851 
C 204.477944 96.104234 204.928815 96.29099 205.398875 96.29099 
z
" style="fill:#57d3db;stroke:#000000;stroke-width:0.886227;"/>
    <path clip-path="url(#p9c16cf354e)" d="M 207.366875 76.008064 
C 207.836935 76.008064 208.287806 75.821307 208.620189 75.488924 
C 208.952572 75.156541 209.139329 74.70567 209.139329 74.23561 
C 209.139329 73.76555 208.952572 73.314678 208.620189 72.982296 
C 208.287806 72.649913 207.836935 72.463156 207.366875 72.463156 
C 206.896815 72.463156 206.445944 72.649913 206.113561 72.982296 
C 205.781178 73.314678 205.594421 73.76555 205.594421 74.23561 
C 205.594421 74.70567 205.781178 75.156541 206.113561 75.488924 
C 206.445944 75.821307 206.896815 76.008064 207.366875 76.008064 
z
" style="fill:#5770db;stroke:#000000;stroke-width:0.886227;"/>
    <path clip-path="url(#p9c16cf354e)" d="M 207.366875 55.725137 
C 207.836935 55.725137 208.287806 55.53838 208.620189 55.205997 
C 208.952572 54.873614 209.139329 54.422743 209.139329 53.952683 
C 209.139329 53.482623 208.952572 53.031752 208.620189 52.699369 
C 208.287806 52.366986 207.836935 52.180229 207.366875 52.180229 
C 206.896815 52.180229 206.445944 52.366986 206.113561 52.699369 
C 205.781178 53.031752 205.594421 53.482623 205.594421 53.952683 
C 205.594421 54.422743 205.781178 54.873614 206.113561 55.205997 
C 206.445944 55.53838 206.896815 55.725137 207.366875 55.725137 
z
" style="fill:#a157db;stroke:#000000;stroke-width:0.886227;"/>
    <path clip-path="url(#p9c16cf354e)" d="M 207.366875 35.44221 
C 207.836935 35.44221 208.287806 35.255453 208.620189 34.92307 
C 208.952572 34.590687 209.139329 34.139816 209.139329 33.669756 
C 209.139329 33.199696 208.952572 32.748825 208.620189 32.416442 
C 208.287806 32.084059 207.836935 31.897302 207.366875 31.897302 
C 206.896815 31.897302 206.445944 32.084059 206.113561 32.416442 
C 205.781178 32.748825 205.594421 33.199696 205.594421 33.669756 
C 205.594421 34.139816 205.781178 34.590687 206.113561 34.92307 
C 206.445944 35.255453 206.896815 35.44221 207.366875 35.44221 
z
" style="fill:#db57b2;stroke:#000000;stroke-width:0.886227;"/>
   </g>
   <g id="patch_3">
    <path d="M 106.998875 21.5 
L 215.238875 21.5 
L 215.238875 7.2 
L 106.998875 7.2 
z
" style="fill:#cccccc;stroke:#7f7f7f;stroke-linejoin:miter;"/>
   </g>
   <g id="text_14">
    <!-- f1-score -->
    <defs>
     <path d="M 37.109375 75.984375 
L 37.109375 68.5 
L 28.515625 68.5 
Q 23.6875 68.5 21.796875 66.546875 
Q 19.921875 64.59375 19.921875 59.515625 
L 19.921875 54.6875 
L 34.71875 54.6875 
L 34.71875 47.703125 
L 19.921875 47.703125 
L 19.921875 0 
L 10.890625 0 
L 10.890625 47.703125 
L 2.296875 47.703125 
L 2.296875 54.6875 
L 10.890625 54.6875 
L 10.890625 58.5 
Q 10.890625 67.625 15.140625 71.796875 
Q 19.390625 75.984375 28.609375 75.984375 
z
" id="DejaVuSans-102"/>
     <path d="M 4.890625 31.390625 
L 31.203125 31.390625 
L 31.203125 23.390625 
L 4.890625 23.390625 
z
" id="DejaVuSans-45"/>
    </defs>
    <g style="fill:#1a1a1a;" transform="translate(143.2645 16.77825)scale(0.088 -0.088)">
     <use xlink:href="#DejaVuSans-102"/>
     <use x="35.205078" xlink:href="#DejaVuSans-49"/>
     <use x="98.828125" xlink:href="#DejaVuSans-45"/>
     <use x="134.912109" xlink:href="#DejaVuSans-115"/>
     <use x="187.011719" xlink:href="#DejaVuSans-99"/>
     <use x="241.992188" xlink:href="#DejaVuSans-111"/>
     <use x="303.173828" xlink:href="#DejaVuSans-114"/>
     <use x="344.255859" xlink:href="#DejaVuSans-101"/>
    </g>
   </g>
  </g>
  <g id="axes_2">
   <g id="patch_4">
    <path d="M 220.278875 187.82 
L 328.518875 187.82 
L 328.518875 21.5 
L 220.278875 21.5 
z
" style="fill:#ffffff;stroke:#7f7f7f;stroke-linejoin:miter;"/>
   </g>
   <g id="matplotlib.axis_3">
    <g id="xtick_10">
     <g id="line2d_35">
      <path clip-path="url(#p7a64562af4)" d="M 225.198875 187.82 
L 225.198875 21.5 
" style="fill:none;stroke:#e5e5e5;stroke-linecap:square;stroke-width:0.8;"/>
     </g>
     <g id="line2d_36">
      <path d="M 225.198875 187.82 
" style="fill:none;stroke:#000000;stroke-linecap:square;stroke-width:1.5;"/>
      <g>
       <use style="stroke:#000000;" x="225.198875" xlink:href="#m49fd7569cd" y="187.82"/>
      </g>
     </g>
     <g id="text_15">
      <!-- 0 -->
      <g style="fill:#4d4d4d;" transform="translate(222.399375 199.456625)scale(0.088 -0.088)">
       <use xlink:href="#DejaVuSans-48"/>
      </g>
     </g>
    </g>
    <g id="xtick_11">
     <g id="line2d_37">
      <path clip-path="url(#p7a64562af4)" d="M 249.798875 187.82 
L 249.798875 21.5 
" style="fill:none;stroke:#e5e5e5;stroke-linecap:square;stroke-width:0.8;"/>
     </g>
     <g id="line2d_38">
      <path d="M 249.798875 187.82 
" style="fill:none;stroke:#000000;stroke-linecap:square;stroke-width:1.5;"/>
      <g>
       <use style="stroke:#000000;" x="249.798875" xlink:href="#m49fd7569cd" y="187.82"/>
      </g>
     </g>
     <g id="text_16">
      <!-- 0.25 -->
      <g style="fill:#4d4d4d;" transform="translate(240.002 199.456625)scale(0.088 -0.088)">
       <use xlink:href="#DejaVuSans-48"/>
       <use x="63.623047" xlink:href="#DejaVuSans-46"/>
       <use x="95.410156" xlink:href="#DejaVuSans-50"/>
       <use x="159.033203" xlink:href="#DejaVuSans-53"/>
      </g>
     </g>
    </g>
    <g id="xtick_12">
     <g id="line2d_39">
      <path clip-path="url(#p7a64562af4)" d="M 274.398875 187.82 
L 274.398875 21.5 
" style="fill:none;stroke:#e5e5e5;stroke-linecap:square;stroke-width:0.8;"/>
     </g>
     <g id="line2d_40">
      <path d="M 274.398875 187.82 
" style="fill:none;stroke:#000000;stroke-linecap:square;stroke-width:1.5;"/>
      <g>
       <use style="stroke:#000000;" x="274.398875" xlink:href="#m49fd7569cd" y="187.82"/>
      </g>
     </g>
     <g id="text_17">
      <!-- 0.50 -->
      <g style="fill:#4d4d4d;" transform="translate(264.602 199.456625)scale(0.088 -0.088)">
       <use xlink:href="#DejaVuSans-48"/>
       <use x="63.623047" xlink:href="#DejaVuSans-46"/>
       <use x="95.410156" xlink:href="#DejaVuSans-53"/>
       <use x="159.033203" xlink:href="#DejaVuSans-48"/>
      </g>
     </g>
    </g>
    <g id="xtick_13">
     <g id="line2d_41">
      <path clip-path="url(#p7a64562af4)" d="M 298.998875 187.82 
L 298.998875 21.5 
" style="fill:none;stroke:#e5e5e5;stroke-linecap:square;stroke-width:0.8;"/>
     </g>
     <g id="line2d_42">
      <path d="M 298.998875 187.82 
" style="fill:none;stroke:#000000;stroke-linecap:square;stroke-width:1.5;"/>
      <g>
       <use style="stroke:#000000;" x="298.998875" xlink:href="#m49fd7569cd" y="187.82"/>
      </g>
     </g>
     <g id="text_18">
      <!-- 0.75 -->
      <g style="fill:#4d4d4d;" transform="translate(289.202 199.456625)scale(0.088 -0.088)">
       <use xlink:href="#DejaVuSans-48"/>
       <use x="63.623047" xlink:href="#DejaVuSans-46"/>
       <use x="95.410156" xlink:href="#DejaVuSans-55"/>
       <use x="159.033203" xlink:href="#DejaVuSans-53"/>
      </g>
     </g>
    </g>
    <g id="xtick_14">
     <g id="line2d_43">
      <path clip-path="url(#p7a64562af4)" d="M 323.598875 187.82 
L 323.598875 21.5 
" style="fill:none;stroke:#e5e5e5;stroke-linecap:square;stroke-width:0.8;"/>
     </g>
     <g id="line2d_44">
      <path d="M 323.598875 187.82 
" style="fill:none;stroke:#000000;stroke-linecap:square;stroke-width:1.5;"/>
      <g>
       <use style="stroke:#000000;" x="323.598875" xlink:href="#m49fd7569cd" y="187.82"/>
      </g>
     </g>
     <g id="text_19">
      <!-- 1 -->
      <g style="fill:#4d4d4d;" transform="translate(320.799375 199.456625)scale(0.088 -0.088)">
       <use xlink:href="#DejaVuSans-49"/>
      </g>
     </g>
    </g>
    <g id="xtick_15">
     <g id="line2d_45">
      <path clip-path="url(#p7a64562af4)" d="M 237.498875 187.82 
L 237.498875 21.5 
" style="fill:none;stroke:#fafafa;stroke-linecap:square;"/>
     </g>
     <g id="line2d_46">
      <path d="M 237.498875 187.82 
" style="fill:none;stroke:#000000;stroke-linecap:square;stroke-width:1.5;"/>
      <g>
       <use style="stroke:#000000;" x="237.498875" xlink:href="#mf76a41cee5" y="187.82"/>
      </g>
     </g>
    </g>
    <g id="xtick_16">
     <g id="line2d_47">
      <path clip-path="url(#p7a64562af4)" d="M 262.098875 187.82 
L 262.098875 21.5 
" style="fill:none;stroke:#fafafa;stroke-linecap:square;"/>
     </g>
     <g id="line2d_48">
      <path d="M 262.098875 187.82 
" style="fill:none;stroke:#000000;stroke-linecap:square;stroke-width:1.5;"/>
      <g>
       <use style="stroke:#000000;" x="262.098875" xlink:href="#mf76a41cee5" y="187.82"/>
      </g>
     </g>
    </g>
    <g id="xtick_17">
     <g id="line2d_49">
      <path clip-path="url(#p7a64562af4)" d="M 286.698875 187.82 
L 286.698875 21.5 
" style="fill:none;stroke:#fafafa;stroke-linecap:square;"/>
     </g>
     <g id="line2d_50">
      <path d="M 286.698875 187.82 
" style="fill:none;stroke:#000000;stroke-linecap:square;stroke-width:1.5;"/>
      <g>
       <use style="stroke:#000000;" x="286.698875" xlink:href="#mf76a41cee5" y="187.82"/>
      </g>
     </g>
    </g>
    <g id="xtick_18">
     <g id="line2d_51">
      <path clip-path="url(#p7a64562af4)" d="M 311.298875 187.82 
L 311.298875 21.5 
" style="fill:none;stroke:#fafafa;stroke-linecap:square;"/>
     </g>
     <g id="line2d_52">
      <path d="M 311.298875 187.82 
" style="fill:none;stroke:#000000;stroke-linecap:square;stroke-width:1.5;"/>
      <g>
       <use style="stroke:#000000;" x="311.298875" xlink:href="#mf76a41cee5" y="187.82"/>
      </g>
     </g>
    </g>
   </g>
   <g id="matplotlib.axis_4">
    <g id="ytick_9">
     <g id="line2d_53">
      <path clip-path="url(#p7a64562af4)" d="M 220.278875 175.650244 
L 328.518875 175.650244 
" style="fill:none;stroke:#e5e5e5;stroke-linecap:square;stroke-width:0.8;"/>
     </g>
    </g>
    <g id="ytick_10">
     <g id="line2d_54">
      <path clip-path="url(#p7a64562af4)" d="M 220.278875 155.367317 
L 328.518875 155.367317 
" style="fill:none;stroke:#e5e5e5;stroke-linecap:square;stroke-width:0.8;"/>
     </g>
    </g>
    <g id="ytick_11">
     <g id="line2d_55">
      <path clip-path="url(#p7a64562af4)" d="M 220.278875 135.08439 
L 328.518875 135.08439 
" style="fill:none;stroke:#e5e5e5;stroke-linecap:square;stroke-width:0.8;"/>
     </g>
    </g>
    <g id="ytick_12">
     <g id="line2d_56">
      <path clip-path="url(#p7a64562af4)" d="M 220.278875 114.801463 
L 328.518875 114.801463 
" style="fill:none;stroke:#e5e5e5;stroke-linecap:square;stroke-width:0.8;"/>
     </g>
    </g>
    <g id="ytick_13">
     <g id="line2d_57">
      <path clip-path="url(#p7a64562af4)" d="M 220.278875 94.518537 
L 328.518875 94.518537 
" style="fill:none;stroke:#e5e5e5;stroke-linecap:square;stroke-width:0.8;"/>
     </g>
    </g>
    <g id="ytick_14">
     <g id="line2d_58">
      <path clip-path="url(#p7a64562af4)" d="M 220.278875 74.23561 
L 328.518875 74.23561 
" style="fill:none;stroke:#e5e5e5;stroke-linecap:square;stroke-width:0.8;"/>
     </g>
    </g>
    <g id="ytick_15">
     <g id="line2d_59">
      <path clip-path="url(#p7a64562af4)" d="M 220.278875 53.952683 
L 328.518875 53.952683 
" style="fill:none;stroke:#e5e5e5;stroke-linecap:square;stroke-width:0.8;"/>
     </g>
    </g>
    <g id="ytick_16">
     <g id="line2d_60">
      <path clip-path="url(#p7a64562af4)" d="M 220.278875 33.669756 
L 328.518875 33.669756 
" style="fill:none;stroke:#e5e5e5;stroke-linecap:square;stroke-width:0.8;"/>
     </g>
    </g>
   </g>
   <g id="PathCollection_2">
    <path clip-path="url(#p7a64562af4)" d="M 322.614875 177.422698 
C 323.084935 177.422698 323.535806 177.235941 323.868189 176.903558 
C 324.200572 176.571175 324.387329 176.120304 324.387329 175.650244 
C 324.387329 175.180184 324.200572 174.729313 323.868189 174.39693 
C 323.535806 174.064547 323.084935 173.87779 322.614875 173.87779 
C 322.144815 173.87779 321.693944 174.064547 321.361561 174.39693 
C 321.029178 174.729313 320.842421 175.180184 320.842421 175.650244 
C 320.842421 176.120304 321.029178 176.571175 321.361561 176.903558 
C 321.693944 177.235941 322.144815 177.422698 322.614875 177.422698 
z
" style="fill:#db5f57;stroke:#000000;stroke-width:0.886227;"/>
    <path clip-path="url(#p7a64562af4)" d="M 317.694875 157.139771 
C 318.164935 157.139771 318.615806 156.953014 318.948189 156.620631 
C 319.280572 156.288248 319.467329 155.837377 319.467329 155.367317 
C 319.467329 154.897257 319.280572 154.446386 318.948189 154.114003 
C 318.615806 153.78162 318.164935 153.594863 317.694875 153.594863 
C 317.224815 153.594863 316.773944 153.78162 316.441561 154.114003 
C 316.109178 154.446386 315.922421 154.897257 315.922421 155.367317 
C 315.922421 155.837377 316.109178 156.288248 316.441561 156.620631 
C 316.773944 156.953014 317.224815 157.139771 317.694875 157.139771 
z
" style="fill:#dbc257;stroke:#000000;stroke-width:0.886227;"/>
    <path clip-path="url(#p7a64562af4)" d="M 323.598875 136.856844 
C 324.068935 136.856844 324.519806 136.670087 324.852189 136.337704 
C 325.184572 136.005322 325.371329 135.55445 325.371329 135.08439 
C 325.371329 134.61433 325.184572 134.163459 324.852189 133.831076 
C 324.519806 133.498693 324.068935 133.311936 323.598875 133.311936 
C 323.128815 133.311936 322.677944 133.498693 322.345561 133.831076 
C 322.013178 134.163459 321.826421 134.61433 321.826421 135.08439 
C 321.826421 135.55445 322.013178 136.005322 322.345561 136.337704 
C 322.677944 136.670087 323.128815 136.856844 323.598875 136.856844 
z
" style="fill:#91db57;stroke:#000000;stroke-width:0.886227;"/>
    <path clip-path="url(#p7a64562af4)" d="M 321.630875 116.573917 
C 322.100935 116.573917 322.551806 116.38716 322.884189 116.054778 
C 323.216572 115.722395 323.403329 115.271524 323.403329 114.801463 
C 323.403329 114.331403 323.216572 113.880532 322.884189 113.548149 
C 322.551806 113.215766 322.100935 113.02901 321.630875 113.02901 
C 321.160815 113.02901 320.709944 113.215766 320.377561 113.548149 
C 320.045178 113.880532 319.858421 114.331403 319.858421 114.801463 
C 319.858421 115.271524 320.045178 115.722395 320.377561 116.054778 
C 320.709944 116.38716 321.160815 116.573917 321.630875 116.573917 
z
" style="fill:#57db80;stroke:#000000;stroke-width:0.886227;"/>
    <path clip-path="url(#p7a64562af4)" d="M 319.662875 96.29099 
C 320.132935 96.29099 320.583806 96.104234 320.916189 95.771851 
C 321.248572 95.439468 321.435329 94.988597 321.435329 94.518537 
C 321.435329 94.048476 321.248572 93.597605 320.916189 93.265222 
C 320.583806 92.93284 320.132935 92.746083 319.662875 92.746083 
C 319.192815 92.746083 318.741944 92.93284 318.409561 93.265222 
C 318.077178 93.597605 317.890421 94.048476 317.890421 94.518537 
C 317.890421 94.988597 318.077178 95.439468 318.409561 95.771851 
C 318.741944 96.104234 319.192815 96.29099 319.662875 96.29099 
z
" style="fill:#57d3db;stroke:#000000;stroke-width:0.886227;"/>
    <path clip-path="url(#p7a64562af4)" d="M 320.646875 76.008064 
C 321.116935 76.008064 321.567806 75.821307 321.900189 75.488924 
C 322.232572 75.156541 322.419329 74.70567 322.419329 74.23561 
C 322.419329 73.76555 322.232572 73.314678 321.900189 72.982296 
C 321.567806 72.649913 321.116935 72.463156 320.646875 72.463156 
C 320.176815 72.463156 319.725944 72.649913 319.393561 72.982296 
C 319.061178 73.314678 318.874421 73.76555 318.874421 74.23561 
C 318.874421 74.70567 319.061178 75.156541 319.393561 75.488924 
C 319.725944 75.821307 320.176815 76.008064 320.646875 76.008064 
z
" style="fill:#5770db;stroke:#000000;stroke-width:0.886227;"/>
    <path clip-path="url(#p7a64562af4)" d="M 320.646875 55.725137 
C 321.116935 55.725137 321.567806 55.53838 321.900189 55.205997 
C 322.232572 54.873614 322.419329 54.422743 322.419329 53.952683 
C 322.419329 53.482623 322.232572 53.031752 321.900189 52.699369 
C 321.567806 52.366986 321.116935 52.180229 320.646875 52.180229 
C 320.176815 52.180229 319.725944 52.366986 319.393561 52.699369 
C 319.061178 53.031752 318.874421 53.482623 318.874421 53.952683 
C 318.874421 54.422743 319.061178 54.873614 319.393561 55.205997 
C 319.725944 55.53838 320.176815 55.725137 320.646875 55.725137 
z
" style="fill:#a157db;stroke:#000000;stroke-width:0.886227;"/>
    <path clip-path="url(#p7a64562af4)" d="M 320.646875 35.44221 
C 321.116935 35.44221 321.567806 35.255453 321.900189 34.92307 
C 322.232572 34.590687 322.419329 34.139816 322.419329 33.669756 
C 322.419329 33.199696 322.232572 32.748825 321.900189 32.416442 
C 321.567806 32.084059 321.116935 31.897302 320.646875 31.897302 
C 320.176815 31.897302 319.725944 32.084059 319.393561 32.416442 
C 319.061178 32.748825 318.874421 33.199696 318.874421 33.669756 
C 318.874421 34.139816 319.061178 34.590687 319.393561 34.92307 
C 319.725944 35.255453 320.176815 35.44221 320.646875 35.44221 
z
" style="fill:#db57b2;stroke:#000000;stroke-width:0.886227;"/>
   </g>
   <g id="patch_5">
    <path d="M 220.278875 21.5 
L 328.518875 21.5 
L 328.518875 7.2 
L 220.278875 7.2 
z
" style="fill:#cccccc;stroke:#7f7f7f;stroke-linejoin:miter;"/>
   </g>
   <g id="text_20">
    <!-- precision -->
    <g style="fill:#1a1a1a;" transform="translate(254.453812 16.77825)scale(0.088 -0.088)">
     <use xlink:href="#DejaVuSans-112"/>
     <use x="63.476562" xlink:href="#DejaVuSans-114"/>
     <use x="104.558594" xlink:href="#DejaVuSans-101"/>
     <use x="166.082031" xlink:href="#DejaVuSans-99"/>
     <use x="221.0625" xlink:href="#DejaVuSans-105"/>
     <use x="248.845703" xlink:href="#DejaVuSans-115"/>
     <use x="300.945312" xlink:href="#DejaVuSans-105"/>
     <use x="328.728516" xlink:href="#DejaVuSans-111"/>
     <use x="389.910156" xlink:href="#DejaVuSans-110"/>
    </g>
   </g>
  </g>
  <g id="axes_3">
   <g id="patch_6">
    <path d="M 333.558875 187.82 
L 441.798875 187.82 
L 441.798875 21.5 
L 333.558875 21.5 
z
" style="fill:#ffffff;stroke:#7f7f7f;stroke-linejoin:miter;"/>
   </g>
   <g id="matplotlib.axis_5">
    <g id="xtick_19">
     <g id="line2d_61">
      <path clip-path="url(#p08e6b1bd91)" d="M 338.478875 187.82 
L 338.478875 21.5 
" style="fill:none;stroke:#e5e5e5;stroke-linecap:square;stroke-width:0.8;"/>
     </g>
     <g id="line2d_62">
      <path d="M 338.478875 187.82 
" style="fill:none;stroke:#000000;stroke-linecap:square;stroke-width:1.5;"/>
      <g>
       <use style="stroke:#000000;" x="338.478875" xlink:href="#m49fd7569cd" y="187.82"/>
      </g>
     </g>
     <g id="text_21">
      <!-- 0 -->
      <g style="fill:#4d4d4d;" transform="translate(335.679375 199.456625)scale(0.088 -0.088)">
       <use xlink:href="#DejaVuSans-48"/>
      </g>
     </g>
    </g>
    <g id="xtick_20">
     <g id="line2d_63">
      <path clip-path="url(#p08e6b1bd91)" d="M 363.078875 187.82 
L 363.078875 21.5 
" style="fill:none;stroke:#e5e5e5;stroke-linecap:square;stroke-width:0.8;"/>
     </g>
     <g id="line2d_64">
      <path d="M 363.078875 187.82 
" style="fill:none;stroke:#000000;stroke-linecap:square;stroke-width:1.5;"/>
      <g>
       <use style="stroke:#000000;" x="363.078875" xlink:href="#m49fd7569cd" y="187.82"/>
      </g>
     </g>
     <g id="text_22">
      <!-- 0.25 -->
      <g style="fill:#4d4d4d;" transform="translate(353.282 199.456625)scale(0.088 -0.088)">
       <use xlink:href="#DejaVuSans-48"/>
       <use x="63.623047" xlink:href="#DejaVuSans-46"/>
       <use x="95.410156" xlink:href="#DejaVuSans-50"/>
       <use x="159.033203" xlink:href="#DejaVuSans-53"/>
      </g>
     </g>
    </g>
    <g id="xtick_21">
     <g id="line2d_65">
      <path clip-path="url(#p08e6b1bd91)" d="M 387.678875 187.82 
L 387.678875 21.5 
" style="fill:none;stroke:#e5e5e5;stroke-linecap:square;stroke-width:0.8;"/>
     </g>
     <g id="line2d_66">
      <path d="M 387.678875 187.82 
" style="fill:none;stroke:#000000;stroke-linecap:square;stroke-width:1.5;"/>
      <g>
       <use style="stroke:#000000;" x="387.678875" xlink:href="#m49fd7569cd" y="187.82"/>
      </g>
     </g>
     <g id="text_23">
      <!-- 0.50 -->
      <g style="fill:#4d4d4d;" transform="translate(377.882 199.456625)scale(0.088 -0.088)">
       <use xlink:href="#DejaVuSans-48"/>
       <use x="63.623047" xlink:href="#DejaVuSans-46"/>
       <use x="95.410156" xlink:href="#DejaVuSans-53"/>
       <use x="159.033203" xlink:href="#DejaVuSans-48"/>
      </g>
     </g>
    </g>
    <g id="xtick_22">
     <g id="line2d_67">
      <path clip-path="url(#p08e6b1bd91)" d="M 412.278875 187.82 
L 412.278875 21.5 
" style="fill:none;stroke:#e5e5e5;stroke-linecap:square;stroke-width:0.8;"/>
     </g>
     <g id="line2d_68">
      <path d="M 412.278875 187.82 
" style="fill:none;stroke:#000000;stroke-linecap:square;stroke-width:1.5;"/>
      <g>
       <use style="stroke:#000000;" x="412.278875" xlink:href="#m49fd7569cd" y="187.82"/>
      </g>
     </g>
     <g id="text_24">
      <!-- 0.75 -->
      <g style="fill:#4d4d4d;" transform="translate(402.482 199.456625)scale(0.088 -0.088)">
       <use xlink:href="#DejaVuSans-48"/>
       <use x="63.623047" xlink:href="#DejaVuSans-46"/>
       <use x="95.410156" xlink:href="#DejaVuSans-55"/>
       <use x="159.033203" xlink:href="#DejaVuSans-53"/>
      </g>
     </g>
    </g>
    <g id="xtick_23">
     <g id="line2d_69">
      <path clip-path="url(#p08e6b1bd91)" d="M 436.878875 187.82 
L 436.878875 21.5 
" style="fill:none;stroke:#e5e5e5;stroke-linecap:square;stroke-width:0.8;"/>
     </g>
     <g id="line2d_70">
      <path d="M 436.878875 187.82 
" style="fill:none;stroke:#000000;stroke-linecap:square;stroke-width:1.5;"/>
      <g>
       <use style="stroke:#000000;" x="436.878875" xlink:href="#m49fd7569cd" y="187.82"/>
      </g>
     </g>
     <g id="text_25">
      <!-- 1 -->
      <g style="fill:#4d4d4d;" transform="translate(434.079375 199.456625)scale(0.088 -0.088)">
       <use xlink:href="#DejaVuSans-49"/>
      </g>
     </g>
    </g>
    <g id="xtick_24">
     <g id="line2d_71">
      <path clip-path="url(#p08e6b1bd91)" d="M 350.778875 187.82 
L 350.778875 21.5 
" style="fill:none;stroke:#fafafa;stroke-linecap:square;"/>
     </g>
     <g id="line2d_72">
      <path d="M 350.778875 187.82 
" style="fill:none;stroke:#000000;stroke-linecap:square;stroke-width:1.5;"/>
      <g>
       <use style="stroke:#000000;" x="350.778875" xlink:href="#mf76a41cee5" y="187.82"/>
      </g>
     </g>
    </g>
    <g id="xtick_25">
     <g id="line2d_73">
      <path clip-path="url(#p08e6b1bd91)" d="M 375.378875 187.82 
L 375.378875 21.5 
" style="fill:none;stroke:#fafafa;stroke-linecap:square;"/>
     </g>
     <g id="line2d_74">
      <path d="M 375.378875 187.82 
" style="fill:none;stroke:#000000;stroke-linecap:square;stroke-width:1.5;"/>
      <g>
       <use style="stroke:#000000;" x="375.378875" xlink:href="#mf76a41cee5" y="187.82"/>
      </g>
     </g>
    </g>
    <g id="xtick_26">
     <g id="line2d_75">
      <path clip-path="url(#p08e6b1bd91)" d="M 399.978875 187.82 
L 399.978875 21.5 
" style="fill:none;stroke:#fafafa;stroke-linecap:square;"/>
     </g>
     <g id="line2d_76">
      <path d="M 399.978875 187.82 
" style="fill:none;stroke:#000000;stroke-linecap:square;stroke-width:1.5;"/>
      <g>
       <use style="stroke:#000000;" x="399.978875" xlink:href="#mf76a41cee5" y="187.82"/>
      </g>
     </g>
    </g>
    <g id="xtick_27">
     <g id="line2d_77">
      <path clip-path="url(#p08e6b1bd91)" d="M 424.578875 187.82 
L 424.578875 21.5 
" style="fill:none;stroke:#fafafa;stroke-linecap:square;"/>
     </g>
     <g id="line2d_78">
      <path d="M 424.578875 187.82 
" style="fill:none;stroke:#000000;stroke-linecap:square;stroke-width:1.5;"/>
      <g>
       <use style="stroke:#000000;" x="424.578875" xlink:href="#mf76a41cee5" y="187.82"/>
      </g>
     </g>
    </g>
   </g>
   <g id="matplotlib.axis_6">
    <g id="ytick_17">
     <g id="line2d_79">
      <path clip-path="url(#p08e6b1bd91)" d="M 333.558875 175.650244 
L 441.798875 175.650244 
" style="fill:none;stroke:#e5e5e5;stroke-linecap:square;stroke-width:0.8;"/>
     </g>
    </g>
    <g id="ytick_18">
     <g id="line2d_80">
      <path clip-path="url(#p08e6b1bd91)" d="M 333.558875 155.367317 
L 441.798875 155.367317 
" style="fill:none;stroke:#e5e5e5;stroke-linecap:square;stroke-width:0.8;"/>
     </g>
    </g>
    <g id="ytick_19">
     <g id="line2d_81">
      <path clip-path="url(#p08e6b1bd91)" d="M 333.558875 135.08439 
L 441.798875 135.08439 
" style="fill:none;stroke:#e5e5e5;stroke-linecap:square;stroke-width:0.8;"/>
     </g>
    </g>
    <g id="ytick_20">
     <g id="line2d_82">
      <path clip-path="url(#p08e6b1bd91)" d="M 333.558875 114.801463 
L 441.798875 114.801463 
" style="fill:none;stroke:#e5e5e5;stroke-linecap:square;stroke-width:0.8;"/>
     </g>
    </g>
    <g id="ytick_21">
     <g id="line2d_83">
      <path clip-path="url(#p08e6b1bd91)" d="M 333.558875 94.518537 
L 441.798875 94.518537 
" style="fill:none;stroke:#e5e5e5;stroke-linecap:square;stroke-width:0.8;"/>
     </g>
    </g>
    <g id="ytick_22">
     <g id="line2d_84">
      <path clip-path="url(#p08e6b1bd91)" d="M 333.558875 74.23561 
L 441.798875 74.23561 
" style="fill:none;stroke:#e5e5e5;stroke-linecap:square;stroke-width:0.8;"/>
     </g>
    </g>
    <g id="ytick_23">
     <g id="line2d_85">
      <path clip-path="url(#p08e6b1bd91)" d="M 333.558875 53.952683 
L 441.798875 53.952683 
" style="fill:none;stroke:#e5e5e5;stroke-linecap:square;stroke-width:0.8;"/>
     </g>
    </g>
    <g id="ytick_24">
     <g id="line2d_86">
      <path clip-path="url(#p08e6b1bd91)" d="M 333.558875 33.669756 
L 441.798875 33.669756 
" style="fill:none;stroke:#e5e5e5;stroke-linecap:square;stroke-width:0.8;"/>
     </g>
    </g>
   </g>
   <g id="PathCollection_3">
    <path clip-path="url(#p08e6b1bd91)" d="M 436.878875 177.422698 
C 437.348935 177.422698 437.799806 177.235941 438.132189 176.903558 
C 438.464572 176.571175 438.651329 176.120304 438.651329 175.650244 
C 438.651329 175.180184 438.464572 174.729313 438.132189 174.39693 
C 437.799806 174.064547 437.348935 173.87779 436.878875 173.87779 
C 436.408815 173.87779 435.957944 174.064547 435.625561 174.39693 
C 435.293178 174.729313 435.106421 175.180184 435.106421 175.650244 
C 435.106421 176.120304 435.293178 176.571175 435.625561 176.903558 
C 435.957944 177.235941 436.408815 177.422698 436.878875 177.422698 
z
" style="fill:#db5f57;stroke:#000000;stroke-width:0.886227;"/>
    <path clip-path="url(#p08e6b1bd91)" d="M 429.990875 157.139771 
C 430.460935 157.139771 430.911806 156.953014 431.244189 156.620631 
C 431.576572 156.288248 431.763329 155.837377 431.763329 155.367317 
C 431.763329 154.897257 431.576572 154.446386 431.244189 154.114003 
C 430.911806 153.78162 430.460935 153.594863 429.990875 153.594863 
C 429.520815 153.594863 429.069944 153.78162 428.737561 154.114003 
C 428.405178 154.446386 428.218421 154.897257 428.218421 155.367317 
C 428.218421 155.837377 428.405178 156.288248 428.737561 156.620631 
C 429.069944 156.953014 429.520815 157.139771 429.990875 157.139771 
z
" style="fill:#dbc257;stroke:#000000;stroke-width:0.886227;"/>
    <path clip-path="url(#p08e6b1bd91)" d="M 436.878875 136.856844 
C 437.348935 136.856844 437.799806 136.670087 438.132189 136.337704 
C 438.464572 136.005322 438.651329 135.55445 438.651329 135.08439 
C 438.651329 134.61433 438.464572 134.163459 438.132189 133.831076 
C 437.799806 133.498693 437.348935 133.311936 436.878875 133.311936 
C 436.408815 133.311936 435.957944 133.498693 435.625561 133.831076 
C 435.293178 134.163459 435.106421 134.61433 435.106421 135.08439 
C 435.106421 135.55445 435.293178 136.005322 435.625561 136.337704 
C 435.957944 136.670087 436.408815 136.856844 436.878875 136.856844 
z
" style="fill:#91db57;stroke:#000000;stroke-width:0.886227;"/>
    <path clip-path="url(#p08e6b1bd91)" d="M 434.910875 116.573917 
C 435.380935 116.573917 435.831806 116.38716 436.164189 116.054778 
C 436.496572 115.722395 436.683329 115.271524 436.683329 114.801463 
C 436.683329 114.331403 436.496572 113.880532 436.164189 113.548149 
C 435.831806 113.215766 435.380935 113.02901 434.910875 113.02901 
C 434.440815 113.02901 433.989944 113.215766 433.657561 113.548149 
C 433.325178 113.880532 433.138421 114.331403 433.138421 114.801463 
C 433.138421 115.271524 433.325178 115.722395 433.657561 116.054778 
C 433.989944 116.38716 434.440815 116.573917 434.910875 116.573917 
z
" style="fill:#57db80;stroke:#000000;stroke-width:0.886227;"/>
    <path clip-path="url(#p08e6b1bd91)" d="M 431.958875 96.29099 
C 432.428935 96.29099 432.879806 96.104234 433.212189 95.771851 
C 433.544572 95.439468 433.731329 94.988597 433.731329 94.518537 
C 433.731329 94.048476 433.544572 93.597605 433.212189 93.265222 
C 432.879806 92.93284 432.428935 92.746083 431.958875 92.746083 
C 431.488815 92.746083 431.037944 92.93284 430.705561 93.265222 
C 430.373178 93.597605 430.186421 94.048476 430.186421 94.518537 
C 430.186421 94.988597 430.373178 95.439468 430.705561 95.771851 
C 431.037944 96.104234 431.488815 96.29099 431.958875 96.29099 
z
" style="fill:#57d3db;stroke:#000000;stroke-width:0.886227;"/>
    <path clip-path="url(#p08e6b1bd91)" d="M 433.926875 76.008064 
C 434.396935 76.008064 434.847806 75.821307 435.180189 75.488924 
C 435.512572 75.156541 435.699329 74.70567 435.699329 74.23561 
C 435.699329 73.76555 435.512572 73.314678 435.180189 72.982296 
C 434.847806 72.649913 434.396935 72.463156 433.926875 72.463156 
C 433.456815 72.463156 433.005944 72.649913 432.673561 72.982296 
C 432.341178 73.314678 432.154421 73.76555 432.154421 74.23561 
C 432.154421 74.70567 432.341178 75.156541 432.673561 75.488924 
C 433.005944 75.821307 433.456815 76.008064 433.926875 76.008064 
z
" style="fill:#5770db;stroke:#000000;stroke-width:0.886227;"/>
    <path clip-path="url(#p08e6b1bd91)" d="M 433.926875 55.725137 
C 434.396935 55.725137 434.847806 55.53838 435.180189 55.205997 
C 435.512572 54.873614 435.699329 54.422743 435.699329 53.952683 
C 435.699329 53.482623 435.512572 53.031752 435.180189 52.699369 
C 434.847806 52.366986 434.396935 52.180229 433.926875 52.180229 
C 433.456815 52.180229 433.005944 52.366986 432.673561 52.699369 
C 432.341178 53.031752 432.154421 53.482623 432.154421 53.952683 
C 432.154421 54.422743 432.341178 54.873614 432.673561 55.205997 
C 433.005944 55.53838 433.456815 55.725137 433.926875 55.725137 
z
" style="fill:#a157db;stroke:#000000;stroke-width:0.886227;"/>
    <path clip-path="url(#p08e6b1bd91)" d="M 433.926875 35.44221 
C 434.396935 35.44221 434.847806 35.255453 435.180189 34.92307 
C 435.512572 34.590687 435.699329 34.139816 435.699329 33.669756 
C 435.699329 33.199696 435.512572 32.748825 435.180189 32.416442 
C 434.847806 32.084059 434.396935 31.897302 433.926875 31.897302 
C 433.456815 31.897302 433.005944 32.084059 432.673561 32.416442 
C 432.341178 32.748825 432.154421 33.199696 432.154421 33.669756 
C 432.154421 34.139816 432.341178 34.590687 432.673561 34.92307 
C 433.005944 35.255453 433.456815 35.44221 433.926875 35.44221 
z
" style="fill:#db57b2;stroke:#000000;stroke-width:0.886227;"/>
   </g>
   <g id="patch_7">
    <path d="M 333.558875 21.5 
L 441.798875 21.5 
L 441.798875 7.2 
L 333.558875 7.2 
z
" style="fill:#cccccc;stroke:#7f7f7f;stroke-linejoin:miter;"/>
   </g>
   <g id="text_26">
    <!-- recall -->
    <g style="fill:#1a1a1a;" transform="translate(375.603625 16.77825)scale(0.088 -0.088)">
     <use xlink:href="#DejaVuSans-114"/>
     <use x="41.082031" xlink:href="#DejaVuSans-101"/>
     <use x="102.605469" xlink:href="#DejaVuSans-99"/>
     <use x="157.585938" xlink:href="#DejaVuSans-97"/>
     <use x="218.865234" xlink:href="#DejaVuSans-108"/>
     <use x="246.648438" xlink:href="#DejaVuSans-108"/>
    </g>
   </g>
  </g>
 </g>
 <defs>
  <clipPath id="p9c16cf354e">
   <rect height="166.32" width="108.24" x="106.998875" y="21.5"/>
  </clipPath>
  <clipPath id="p7a64562af4">
   <rect height="166.32" width="108.24" x="220.278875" y="21.5"/>
  </clipPath>
  <clipPath id="p08e6b1bd91">
   <rect height="166.32" width="108.24" x="333.558875" y="21.5"/>
  </clipPath>
 </defs>
</svg>
