<?xml version="1.0" encoding="utf-8" standalone="no"?>
<!DOCTYPE svg PUBLIC "-//W3C//DTD SVG 1.1//EN"
  "http://www.w3.org/Graphics/SVG/1.1/DTD/svg11.dtd">
<!-- Created with matplotlib (https://matplotlib.org/) -->
<svg height="345.6pt" version="1.1" viewBox="0 0 460.8 345.6" width="460.8pt" xmlns="http://www.w3.org/2000/svg" xmlns:xlink="http://www.w3.org/1999/xlink">
 <defs>
  <style type="text/css">
*{stroke-linecap:butt;stroke-linejoin:round;}
  </style>
 </defs>
 <g id="figure_1">
  <g id="patch_1">
   <path d="M 0 345.6 
L 460.8 345.6 
L 460.8 0 
L 0 0 
z
" style="fill:#ffffff;"/>
  </g>
  <g id="axes_1">
   <g id="patch_2">
    <path d="M 57.6 307.584 
L 414.72 307.584 
L 414.72 41.472 
L 57.6 41.472 
z
" style="fill:#ffffff;"/>
   </g>
   <g id="matplotlib.axis_1">
    <g id="xtick_1">
     <g id="line2d_1">
      <path clip-path="url(#p5d33db914e)" d="M 57.6 307.584 
L 57.6 41.472 
" style="fill:none;stroke:#b0b0b0;stroke-dasharray:0.8,1.32;stroke-dashoffset:0;stroke-width:0.8;"/>
     </g>
     <g id="line2d_2">
      <defs>
       <path d="M 0 0 
L 0 3.5 
" id="m3668bb2ea5" style="stroke:#000000;stroke-width:0.8;"/>
      </defs>
      <g>
       <use style="stroke:#000000;stroke-width:0.8;" x="57.6" xlink:href="#m3668bb2ea5" y="307.584"/>
      </g>
     </g>
     <g id="text_1">
      <!-- 0.0 -->
      <defs>
       <path d="M 31.78125 66.40625 
Q 24.171875 66.40625 20.328125 58.90625 
Q 16.5 51.421875 16.5 36.375 
Q 16.5 21.390625 20.328125 13.890625 
Q 24.171875 6.390625 31.78125 6.390625 
Q 39.453125 6.390625 43.28125 13.890625 
Q 47.125 21.390625 47.125 36.375 
Q 47.125 51.421875 43.28125 58.90625 
Q 39.453125 66.40625 31.78125 66.40625 
z
M 31.78125 74.21875 
Q 44.046875 74.21875 50.515625 64.515625 
Q 56.984375 54.828125 56.984375 36.375 
Q 56.984375 17.96875 50.515625 8.265625 
Q 44.046875 -1.421875 31.78125 -1.421875 
Q 19.53125 -1.421875 13.0625 8.265625 
Q 6.59375 17.96875 6.59375 36.375 
Q 6.59375 54.828125 13.0625 64.515625 
Q 19.53125 74.21875 31.78125 74.21875 
z
" id="DejaVuSans-48"/>
       <path d="M 10.6875 12.40625 
L 21 12.40625 
L 21 0 
L 10.6875 0 
z
" id="DejaVuSans-46"/>
      </defs>
      <g transform="translate(49.648438 322.182437)scale(0.1 -0.1)">
       <use xlink:href="#DejaVuSans-48"/>
       <use x="63.623047" xlink:href="#DejaVuSans-46"/>
       <use x="95.410156" xlink:href="#DejaVuSans-48"/>
      </g>
     </g>
    </g>
    <g id="xtick_2">
     <g id="line2d_3">
      <path clip-path="url(#p5d33db914e)" d="M 129.024 307.584 
L 129.024 41.472 
" style="fill:none;stroke:#b0b0b0;stroke-dasharray:0.8,1.32;stroke-dashoffset:0;stroke-width:0.8;"/>
     </g>
     <g id="line2d_4">
      <g>
       <use style="stroke:#000000;stroke-width:0.8;" x="129.024" xlink:href="#m3668bb2ea5" y="307.584"/>
      </g>
     </g>
     <g id="text_2">
      <!-- 0.2 -->
      <defs>
       <path d="M 19.1875 8.296875 
L 53.609375 8.296875 
L 53.609375 0 
L 7.328125 0 
L 7.328125 8.296875 
Q 12.9375 14.109375 22.625 23.890625 
Q 32.328125 33.6875 34.8125 36.53125 
Q 39.546875 41.84375 41.421875 45.53125 
Q 43.3125 49.21875 43.3125 52.78125 
Q 43.3125 58.59375 39.234375 62.25 
Q 35.15625 65.921875 28.609375 65.921875 
Q 23.96875 65.921875 18.8125 64.3125 
Q 13.671875 62.703125 7.8125 59.421875 
L 7.8125 69.390625 
Q 13.765625 71.78125 18.9375 73 
Q 24.125 74.21875 28.421875 74.21875 
Q 39.75 74.21875 46.484375 68.546875 
Q 53.21875 62.890625 53.21875 53.421875 
Q 53.21875 48.921875 51.53125 44.890625 
Q 49.859375 40.875 45.40625 35.40625 
Q 44.1875 33.984375 37.640625 27.21875 
Q 31.109375 20.453125 19.1875 8.296875 
z
" id="DejaVuSans-50"/>
      </defs>
      <g transform="translate(121.072438 322.182437)scale(0.1 -0.1)">
       <use xlink:href="#DejaVuSans-48"/>
       <use x="63.623047" xlink:href="#DejaVuSans-46"/>
       <use x="95.410156" xlink:href="#DejaVuSans-50"/>
      </g>
     </g>
    </g>
    <g id="xtick_3">
     <g id="line2d_5">
      <path clip-path="url(#p5d33db914e)" d="M 200.448 307.584 
L 200.448 41.472 
" style="fill:none;stroke:#b0b0b0;stroke-dasharray:0.8,1.32;stroke-dashoffset:0;stroke-width:0.8;"/>
     </g>
     <g id="line2d_6">
      <g>
       <use style="stroke:#000000;stroke-width:0.8;" x="200.448" xlink:href="#m3668bb2ea5" y="307.584"/>
      </g>
     </g>
     <g id="text_3">
      <!-- 0.4 -->
      <defs>
       <path d="M 37.796875 64.3125 
L 12.890625 25.390625 
L 37.796875 25.390625 
z
M 35.203125 72.90625 
L 47.609375 72.90625 
L 47.609375 25.390625 
L 58.015625 25.390625 
L 58.015625 17.1875 
L 47.609375 17.1875 
L 47.609375 0 
L 37.796875 0 
L 37.796875 17.1875 
L 4.890625 17.1875 
L 4.890625 26.703125 
z
" id="DejaVuSans-52"/>
      </defs>
      <g transform="translate(192.496438 322.182437)scale(0.1 -0.1)">
       <use xlink:href="#DejaVuSans-48"/>
       <use x="63.623047" xlink:href="#DejaVuSans-46"/>
       <use x="95.410156" xlink:href="#DejaVuSans-52"/>
      </g>
     </g>
    </g>
    <g id="xtick_4">
     <g id="line2d_7">
      <path clip-path="url(#p5d33db914e)" d="M 271.872 307.584 
L 271.872 41.472 
" style="fill:none;stroke:#b0b0b0;stroke-dasharray:0.8,1.32;stroke-dashoffset:0;stroke-width:0.8;"/>
     </g>
     <g id="line2d_8">
      <g>
       <use style="stroke:#000000;stroke-width:0.8;" x="271.872" xlink:href="#m3668bb2ea5" y="307.584"/>
      </g>
     </g>
     <g id="text_4">
      <!-- 0.6 -->
      <defs>
       <path d="M 33.015625 40.375 
Q 26.375 40.375 22.484375 35.828125 
Q 18.609375 31.296875 18.609375 23.390625 
Q 18.609375 15.53125 22.484375 10.953125 
Q 26.375 6.390625 33.015625 6.390625 
Q 39.65625 6.390625 43.53125 10.953125 
Q 47.40625 15.53125 47.40625 23.390625 
Q 47.40625 31.296875 43.53125 35.828125 
Q 39.65625 40.375 33.015625 40.375 
z
M 52.59375 71.296875 
L 52.59375 62.3125 
Q 48.875 64.0625 45.09375 64.984375 
Q 41.3125 65.921875 37.59375 65.921875 
Q 27.828125 65.921875 22.671875 59.328125 
Q 17.53125 52.734375 16.796875 39.40625 
Q 19.671875 43.65625 24.015625 45.921875 
Q 28.375 48.1875 33.59375 48.1875 
Q 44.578125 48.1875 50.953125 41.515625 
Q 57.328125 34.859375 57.328125 23.390625 
Q 57.328125 12.15625 50.6875 5.359375 
Q 44.046875 -1.421875 33.015625 -1.421875 
Q 20.359375 -1.421875 13.671875 8.265625 
Q 6.984375 17.96875 6.984375 36.375 
Q 6.984375 53.65625 15.1875 63.9375 
Q 23.390625 74.21875 37.203125 74.21875 
Q 40.921875 74.21875 44.703125 73.484375 
Q 48.484375 72.75 52.59375 71.296875 
z
" id="DejaVuSans-54"/>
      </defs>
      <g transform="translate(263.920438 322.182437)scale(0.1 -0.1)">
       <use xlink:href="#DejaVuSans-48"/>
       <use x="63.623047" xlink:href="#DejaVuSans-46"/>
       <use x="95.410156" xlink:href="#DejaVuSans-54"/>
      </g>
     </g>
    </g>
    <g id="xtick_5">
     <g id="line2d_9">
      <path clip-path="url(#p5d33db914e)" d="M 343.296 307.584 
L 343.296 41.472 
" style="fill:none;stroke:#b0b0b0;stroke-dasharray:0.8,1.32;stroke-dashoffset:0;stroke-width:0.8;"/>
     </g>
     <g id="line2d_10">
      <g>
       <use style="stroke:#000000;stroke-width:0.8;" x="343.296" xlink:href="#m3668bb2ea5" y="307.584"/>
      </g>
     </g>
     <g id="text_5">
      <!-- 0.8 -->
      <defs>
       <path d="M 31.78125 34.625 
Q 24.75 34.625 20.71875 30.859375 
Q 16.703125 27.09375 16.703125 20.515625 
Q 16.703125 13.921875 20.71875 10.15625 
Q 24.75 6.390625 31.78125 6.390625 
Q 38.8125 6.390625 42.859375 10.171875 
Q 46.921875 13.96875 46.921875 20.515625 
Q 46.921875 27.09375 42.890625 30.859375 
Q 38.875 34.625 31.78125 34.625 
z
M 21.921875 38.8125 
Q 15.578125 40.375 12.03125 44.71875 
Q 8.5 49.078125 8.5 55.328125 
Q 8.5 64.0625 14.71875 69.140625 
Q 20.953125 74.21875 31.78125 74.21875 
Q 42.671875 74.21875 48.875 69.140625 
Q 55.078125 64.0625 55.078125 55.328125 
Q 55.078125 49.078125 51.53125 44.71875 
Q 48 40.375 41.703125 38.8125 
Q 48.828125 37.15625 52.796875 32.3125 
Q 56.78125 27.484375 56.78125 20.515625 
Q 56.78125 9.90625 50.3125 4.234375 
Q 43.84375 -1.421875 31.78125 -1.421875 
Q 19.734375 -1.421875 13.25 4.234375 
Q 6.78125 9.90625 6.78125 20.515625 
Q 6.78125 27.484375 10.78125 32.3125 
Q 14.796875 37.15625 21.921875 38.8125 
z
M 18.3125 54.390625 
Q 18.3125 48.734375 21.84375 45.5625 
Q 25.390625 42.390625 31.78125 42.390625 
Q 38.140625 42.390625 41.71875 45.5625 
Q 45.3125 48.734375 45.3125 54.390625 
Q 45.3125 60.0625 41.71875 63.234375 
Q 38.140625 66.40625 31.78125 66.40625 
Q 25.390625 66.40625 21.84375 63.234375 
Q 18.3125 60.0625 18.3125 54.390625 
z
" id="DejaVuSans-56"/>
      </defs>
      <g transform="translate(335.344438 322.182437)scale(0.1 -0.1)">
       <use xlink:href="#DejaVuSans-48"/>
       <use x="63.623047" xlink:href="#DejaVuSans-46"/>
       <use x="95.410156" xlink:href="#DejaVuSans-56"/>
      </g>
     </g>
    </g>
    <g id="xtick_6">
     <g id="line2d_11">
      <path clip-path="url(#p5d33db914e)" d="M 414.72 307.584 
L 414.72 41.472 
" style="fill:none;stroke:#b0b0b0;stroke-dasharray:0.8,1.32;stroke-dashoffset:0;stroke-width:0.8;"/>
     </g>
     <g id="line2d_12">
      <g>
       <use style="stroke:#000000;stroke-width:0.8;" x="414.72" xlink:href="#m3668bb2ea5" y="307.584"/>
      </g>
     </g>
     <g id="text_6">
      <!-- 1.0 -->
      <defs>
       <path d="M 12.40625 8.296875 
L 28.515625 8.296875 
L 28.515625 63.921875 
L 10.984375 60.40625 
L 10.984375 69.390625 
L 28.421875 72.90625 
L 38.28125 72.90625 
L 38.28125 8.296875 
L 54.390625 8.296875 
L 54.390625 0 
L 12.40625 0 
z
" id="DejaVuSans-49"/>
      </defs>
      <g transform="translate(406.768438 322.182437)scale(0.1 -0.1)">
       <use xlink:href="#DejaVuSans-49"/>
       <use x="63.623047" xlink:href="#DejaVuSans-46"/>
       <use x="95.410156" xlink:href="#DejaVuSans-48"/>
      </g>
     </g>
    </g>
    <g id="text_7">
     <!-- False Positive Rate -->
     <defs>
      <path d="M 9.8125 72.90625 
L 51.703125 72.90625 
L 51.703125 64.59375 
L 19.671875 64.59375 
L 19.671875 43.109375 
L 48.578125 43.109375 
L 48.578125 34.8125 
L 19.671875 34.8125 
L 19.671875 0 
L 9.8125 0 
z
" id="DejaVuSans-70"/>
      <path d="M 34.28125 27.484375 
Q 23.390625 27.484375 19.1875 25 
Q 14.984375 22.515625 14.984375 16.5 
Q 14.984375 11.71875 18.140625 8.90625 
Q 21.296875 6.109375 26.703125 6.109375 
Q 34.1875 6.109375 38.703125 11.40625 
Q 43.21875 16.703125 43.21875 25.484375 
L 43.21875 27.484375 
z
M 52.203125 31.203125 
L 52.203125 0 
L 43.21875 0 
L 43.21875 8.296875 
Q 40.140625 3.328125 35.546875 0.953125 
Q 30.953125 -1.421875 24.3125 -1.421875 
Q 15.921875 -1.421875 10.953125 3.296875 
Q 6 8.015625 6 15.921875 
Q 6 25.140625 12.171875 29.828125 
Q 18.359375 34.515625 30.609375 34.515625 
L 43.21875 34.515625 
L 43.21875 35.40625 
Q 43.21875 41.609375 39.140625 45 
Q 35.0625 48.390625 27.6875 48.390625 
Q 23 48.390625 18.546875 47.265625 
Q 14.109375 46.140625 10.015625 43.890625 
L 10.015625 52.203125 
Q 14.9375 54.109375 19.578125 55.046875 
Q 24.21875 56 28.609375 56 
Q 40.484375 56 46.34375 49.84375 
Q 52.203125 43.703125 52.203125 31.203125 
z
" id="DejaVuSans-97"/>
      <path d="M 9.421875 75.984375 
L 18.40625 75.984375 
L 18.40625 0 
L 9.421875 0 
z
" id="DejaVuSans-108"/>
      <path d="M 44.28125 53.078125 
L 44.28125 44.578125 
Q 40.484375 46.53125 36.375 47.5 
Q 32.28125 48.484375 27.875 48.484375 
Q 21.1875 48.484375 17.84375 46.4375 
Q 14.5 44.390625 14.5 40.28125 
Q 14.5 37.15625 16.890625 35.375 
Q 19.28125 33.59375 26.515625 31.984375 
L 29.59375 31.296875 
Q 39.15625 29.25 43.1875 25.515625 
Q 47.21875 21.78125 47.21875 15.09375 
Q 47.21875 7.46875 41.1875 3.015625 
Q 35.15625 -1.421875 24.609375 -1.421875 
Q 20.21875 -1.421875 15.453125 -0.5625 
Q 10.6875 0.296875 5.421875 2 
L 5.421875 11.28125 
Q 10.40625 8.6875 15.234375 7.390625 
Q 20.0625 6.109375 24.8125 6.109375 
Q 31.15625 6.109375 34.5625 8.28125 
Q 37.984375 10.453125 37.984375 14.40625 
Q 37.984375 18.0625 35.515625 20.015625 
Q 33.0625 21.96875 24.703125 23.78125 
L 21.578125 24.515625 
Q 13.234375 26.265625 9.515625 29.90625 
Q 5.8125 33.546875 5.8125 39.890625 
Q 5.8125 47.609375 11.28125 51.796875 
Q 16.75 56 26.8125 56 
Q 31.78125 56 36.171875 55.265625 
Q 40.578125 54.546875 44.28125 53.078125 
z
" id="DejaVuSans-115"/>
      <path d="M 56.203125 29.59375 
L 56.203125 25.203125 
L 14.890625 25.203125 
Q 15.484375 15.921875 20.484375 11.0625 
Q 25.484375 6.203125 34.421875 6.203125 
Q 39.59375 6.203125 44.453125 7.46875 
Q 49.3125 8.734375 54.109375 11.28125 
L 54.109375 2.78125 
Q 49.265625 0.734375 44.1875 -0.34375 
Q 39.109375 -1.421875 33.890625 -1.421875 
Q 20.796875 -1.421875 13.15625 6.1875 
Q 5.515625 13.8125 5.515625 26.8125 
Q 5.515625 40.234375 12.765625 48.109375 
Q 20.015625 56 32.328125 56 
Q 43.359375 56 49.78125 48.890625 
Q 56.203125 41.796875 56.203125 29.59375 
z
M 47.21875 32.234375 
Q 47.125 39.59375 43.09375 43.984375 
Q 39.0625 48.390625 32.421875 48.390625 
Q 24.90625 48.390625 20.390625 44.140625 
Q 15.875 39.890625 15.1875 32.171875 
z
" id="DejaVuSans-101"/>
      <path id="DejaVuSans-32"/>
      <path d="M 19.671875 64.796875 
L 19.671875 37.40625 
L 32.078125 37.40625 
Q 38.96875 37.40625 42.71875 40.96875 
Q 46.484375 44.53125 46.484375 51.125 
Q 46.484375 57.671875 42.71875 61.234375 
Q 38.96875 64.796875 32.078125 64.796875 
z
M 9.8125 72.90625 
L 32.078125 72.90625 
Q 44.34375 72.90625 50.609375 67.359375 
Q 56.890625 61.8125 56.890625 51.125 
Q 56.890625 40.328125 50.609375 34.8125 
Q 44.34375 29.296875 32.078125 29.296875 
L 19.671875 29.296875 
L 19.671875 0 
L 9.8125 0 
z
" id="DejaVuSans-80"/>
      <path d="M 30.609375 48.390625 
Q 23.390625 48.390625 19.1875 42.75 
Q 14.984375 37.109375 14.984375 27.296875 
Q 14.984375 17.484375 19.15625 11.84375 
Q 23.34375 6.203125 30.609375 6.203125 
Q 37.796875 6.203125 41.984375 11.859375 
Q 46.1875 17.53125 46.1875 27.296875 
Q 46.1875 37.015625 41.984375 42.703125 
Q 37.796875 48.390625 30.609375 48.390625 
z
M 30.609375 56 
Q 42.328125 56 49.015625 48.375 
Q 55.71875 40.765625 55.71875 27.296875 
Q 55.71875 13.875 49.015625 6.21875 
Q 42.328125 -1.421875 30.609375 -1.421875 
Q 18.84375 -1.421875 12.171875 6.21875 
Q 5.515625 13.875 5.515625 27.296875 
Q 5.515625 40.765625 12.171875 48.375 
Q 18.84375 56 30.609375 56 
z
" id="DejaVuSans-111"/>
      <path d="M 9.421875 54.6875 
L 18.40625 54.6875 
L 18.40625 0 
L 9.421875 0 
z
M 9.421875 75.984375 
L 18.40625 75.984375 
L 18.40625 64.59375 
L 9.421875 64.59375 
z
" id="DejaVuSans-105"/>
      <path d="M 18.3125 70.21875 
L 18.3125 54.6875 
L 36.8125 54.6875 
L 36.8125 47.703125 
L 18.3125 47.703125 
L 18.3125 18.015625 
Q 18.3125 11.328125 20.140625 9.421875 
Q 21.96875 7.515625 27.59375 7.515625 
L 36.8125 7.515625 
L 36.8125 0 
L 27.59375 0 
Q 17.1875 0 13.234375 3.875 
Q 9.28125 7.765625 9.28125 18.015625 
L 9.28125 47.703125 
L 2.6875 47.703125 
L 2.6875 54.6875 
L 9.28125 54.6875 
L 9.28125 70.21875 
z
" id="DejaVuSans-116"/>
      <path d="M 2.984375 54.6875 
L 12.5 54.6875 
L 29.59375 8.796875 
L 46.6875 54.6875 
L 56.203125 54.6875 
L 35.6875 0 
L 23.484375 0 
z
" id="DejaVuSans-118"/>
      <path d="M 44.390625 34.1875 
Q 47.5625 33.109375 50.5625 29.59375 
Q 53.5625 26.078125 56.59375 19.921875 
L 66.609375 0 
L 56 0 
L 46.6875 18.703125 
Q 43.0625 26.03125 39.671875 28.421875 
Q 36.28125 30.8125 30.421875 30.8125 
L 19.671875 30.8125 
L 19.671875 0 
L 9.8125 0 
L 9.8125 72.90625 
L 32.078125 72.90625 
Q 44.578125 72.90625 50.734375 67.671875 
Q 56.890625 62.453125 56.890625 51.90625 
Q 56.890625 45.015625 53.6875 40.46875 
Q 50.484375 35.9375 44.390625 34.1875 
z
M 19.671875 64.796875 
L 19.671875 38.921875 
L 32.078125 38.921875 
Q 39.203125 38.921875 42.84375 42.21875 
Q 46.484375 45.515625 46.484375 51.90625 
Q 46.484375 58.296875 42.84375 61.546875 
Q 39.203125 64.796875 32.078125 64.796875 
z
" id="DejaVuSans-82"/>
     </defs>
     <g transform="translate(188.954531 335.860562)scale(0.1 -0.1)">
      <use xlink:href="#DejaVuSans-70"/>
      <use x="57.378906" xlink:href="#DejaVuSans-97"/>
      <use x="118.658203" xlink:href="#DejaVuSans-108"/>
      <use x="146.441406" xlink:href="#DejaVuSans-115"/>
      <use x="198.541016" xlink:href="#DejaVuSans-101"/>
      <use x="260.064453" xlink:href="#DejaVuSans-32"/>
      <use x="291.851562" xlink:href="#DejaVuSans-80"/>
      <use x="352.107422" xlink:href="#DejaVuSans-111"/>
      <use x="413.289062" xlink:href="#DejaVuSans-115"/>
      <use x="465.388672" xlink:href="#DejaVuSans-105"/>
      <use x="493.171875" xlink:href="#DejaVuSans-116"/>
      <use x="532.380859" xlink:href="#DejaVuSans-105"/>
      <use x="560.164062" xlink:href="#DejaVuSans-118"/>
      <use x="619.34375" xlink:href="#DejaVuSans-101"/>
      <use x="680.867188" xlink:href="#DejaVuSans-32"/>
      <use x="712.654297" xlink:href="#DejaVuSans-82"/>
      <use x="782.105469" xlink:href="#DejaVuSans-97"/>
      <use x="843.384766" xlink:href="#DejaVuSans-116"/>
      <use x="882.59375" xlink:href="#DejaVuSans-101"/>
     </g>
    </g>
   </g>
   <g id="matplotlib.axis_2">
    <g id="ytick_1">
     <g id="line2d_13">
      <path clip-path="url(#p5d33db914e)" d="M 57.6 307.584 
L 414.72 307.584 
" style="fill:none;stroke:#b0b0b0;stroke-dasharray:0.8,1.32;stroke-dashoffset:0;stroke-width:0.8;"/>
     </g>
     <g id="line2d_14">
      <defs>
       <path d="M 0 0 
L -3.5 0 
" id="mea092d3910" style="stroke:#000000;stroke-width:0.8;"/>
      </defs>
      <g>
       <use style="stroke:#000000;stroke-width:0.8;" x="57.6" xlink:href="#mea092d3910" y="307.584"/>
      </g>
     </g>
     <g id="text_8">
      <!-- 0.0 -->
      <g transform="translate(34.696875 311.383219)scale(0.1 -0.1)">
       <use xlink:href="#DejaVuSans-48"/>
       <use x="63.623047" xlink:href="#DejaVuSans-46"/>
       <use x="95.410156" xlink:href="#DejaVuSans-48"/>
      </g>
     </g>
    </g>
    <g id="ytick_2">
     <g id="line2d_15">
      <path clip-path="url(#p5d33db914e)" d="M 57.6 256.896 
L 414.72 256.896 
" style="fill:none;stroke:#b0b0b0;stroke-dasharray:0.8,1.32;stroke-dashoffset:0;stroke-width:0.8;"/>
     </g>
     <g id="line2d_16">
      <g>
       <use style="stroke:#000000;stroke-width:0.8;" x="57.6" xlink:href="#mea092d3910" y="256.896"/>
      </g>
     </g>
     <g id="text_9">
      <!-- 0.2 -->
      <g transform="translate(34.696875 260.695219)scale(0.1 -0.1)">
       <use xlink:href="#DejaVuSans-48"/>
       <use x="63.623047" xlink:href="#DejaVuSans-46"/>
       <use x="95.410156" xlink:href="#DejaVuSans-50"/>
      </g>
     </g>
    </g>
    <g id="ytick_3">
     <g id="line2d_17">
      <path clip-path="url(#p5d33db914e)" d="M 57.6 206.208 
L 414.72 206.208 
" style="fill:none;stroke:#b0b0b0;stroke-dasharray:0.8,1.32;stroke-dashoffset:0;stroke-width:0.8;"/>
     </g>
     <g id="line2d_18">
      <g>
       <use style="stroke:#000000;stroke-width:0.8;" x="57.6" xlink:href="#mea092d3910" y="206.208"/>
      </g>
     </g>
     <g id="text_10">
      <!-- 0.4 -->
      <g transform="translate(34.696875 210.007219)scale(0.1 -0.1)">
       <use xlink:href="#DejaVuSans-48"/>
       <use x="63.623047" xlink:href="#DejaVuSans-46"/>
       <use x="95.410156" xlink:href="#DejaVuSans-52"/>
      </g>
     </g>
    </g>
    <g id="ytick_4">
     <g id="line2d_19">
      <path clip-path="url(#p5d33db914e)" d="M 57.6 155.52 
L 414.72 155.52 
" style="fill:none;stroke:#b0b0b0;stroke-dasharray:0.8,1.32;stroke-dashoffset:0;stroke-width:0.8;"/>
     </g>
     <g id="line2d_20">
      <g>
       <use style="stroke:#000000;stroke-width:0.8;" x="57.6" xlink:href="#mea092d3910" y="155.52"/>
      </g>
     </g>
     <g id="text_11">
      <!-- 0.6 -->
      <g transform="translate(34.696875 159.319219)scale(0.1 -0.1)">
       <use xlink:href="#DejaVuSans-48"/>
       <use x="63.623047" xlink:href="#DejaVuSans-46"/>
       <use x="95.410156" xlink:href="#DejaVuSans-54"/>
      </g>
     </g>
    </g>
    <g id="ytick_5">
     <g id="line2d_21">
      <path clip-path="url(#p5d33db914e)" d="M 57.6 104.832 
L 414.72 104.832 
" style="fill:none;stroke:#b0b0b0;stroke-dasharray:0.8,1.32;stroke-dashoffset:0;stroke-width:0.8;"/>
     </g>
     <g id="line2d_22">
      <g>
       <use style="stroke:#000000;stroke-width:0.8;" x="57.6" xlink:href="#mea092d3910" y="104.832"/>
      </g>
     </g>
     <g id="text_12">
      <!-- 0.8 -->
      <g transform="translate(34.696875 108.631219)scale(0.1 -0.1)">
       <use xlink:href="#DejaVuSans-48"/>
       <use x="63.623047" xlink:href="#DejaVuSans-46"/>
       <use x="95.410156" xlink:href="#DejaVuSans-56"/>
      </g>
     </g>
    </g>
    <g id="ytick_6">
     <g id="line2d_23">
      <path clip-path="url(#p5d33db914e)" d="M 57.6 54.144 
L 414.72 54.144 
" style="fill:none;stroke:#b0b0b0;stroke-dasharray:0.8,1.32;stroke-dashoffset:0;stroke-width:0.8;"/>
     </g>
     <g id="line2d_24">
      <g>
       <use style="stroke:#000000;stroke-width:0.8;" x="57.6" xlink:href="#mea092d3910" y="54.144"/>
      </g>
     </g>
     <g id="text_13">
      <!-- 1.0 -->
      <g transform="translate(34.696875 57.943219)scale(0.1 -0.1)">
       <use xlink:href="#DejaVuSans-49"/>
       <use x="63.623047" xlink:href="#DejaVuSans-46"/>
       <use x="95.410156" xlink:href="#DejaVuSans-48"/>
      </g>
     </g>
    </g>
    <g id="text_14">
     <!-- True Positive Rate -->
     <defs>
      <path d="M -0.296875 72.90625 
L 61.375 72.90625 
L 61.375 64.59375 
L 35.5 64.59375 
L 35.5 0 
L 25.59375 0 
L 25.59375 64.59375 
L -0.296875 64.59375 
z
" id="DejaVuSans-84"/>
      <path d="M 41.109375 46.296875 
Q 39.59375 47.171875 37.8125 47.578125 
Q 36.03125 48 33.890625 48 
Q 26.265625 48 22.1875 43.046875 
Q 18.109375 38.09375 18.109375 28.8125 
L 18.109375 0 
L 9.078125 0 
L 9.078125 54.6875 
L 18.109375 54.6875 
L 18.109375 46.1875 
Q 20.953125 51.171875 25.484375 53.578125 
Q 30.03125 56 36.53125 56 
Q 37.453125 56 38.578125 55.875 
Q 39.703125 55.765625 41.0625 55.515625 
z
" id="DejaVuSans-114"/>
      <path d="M 8.5 21.578125 
L 8.5 54.6875 
L 17.484375 54.6875 
L 17.484375 21.921875 
Q 17.484375 14.15625 20.5 10.265625 
Q 23.53125 6.390625 29.59375 6.390625 
Q 36.859375 6.390625 41.078125 11.03125 
Q 45.3125 15.671875 45.3125 23.6875 
L 45.3125 54.6875 
L 54.296875 54.6875 
L 54.296875 0 
L 45.3125 0 
L 45.3125 8.40625 
Q 42.046875 3.421875 37.71875 1 
Q 33.40625 -1.421875 27.6875 -1.421875 
Q 18.265625 -1.421875 13.375 4.4375 
Q 8.5 10.296875 8.5 21.578125 
z
M 31.109375 56 
z
" id="DejaVuSans-117"/>
     </defs>
     <g transform="translate(28.617187 220.074094)rotate(-90)scale(0.1 -0.1)">
      <use xlink:href="#DejaVuSans-84"/>
      <use x="60.865234" xlink:href="#DejaVuSans-114"/>
      <use x="101.978516" xlink:href="#DejaVuSans-117"/>
      <use x="165.357422" xlink:href="#DejaVuSans-101"/>
      <use x="226.880859" xlink:href="#DejaVuSans-32"/>
      <use x="258.667969" xlink:href="#DejaVuSans-80"/>
      <use x="318.923828" xlink:href="#DejaVuSans-111"/>
      <use x="380.105469" xlink:href="#DejaVuSans-115"/>
      <use x="432.205078" xlink:href="#DejaVuSans-105"/>
      <use x="459.988281" xlink:href="#DejaVuSans-116"/>
      <use x="499.197266" xlink:href="#DejaVuSans-105"/>
      <use x="526.980469" xlink:href="#DejaVuSans-118"/>
      <use x="586.160156" xlink:href="#DejaVuSans-101"/>
      <use x="647.683594" xlink:href="#DejaVuSans-32"/>
      <use x="679.470703" xlink:href="#DejaVuSans-82"/>
      <use x="748.921875" xlink:href="#DejaVuSans-97"/>
      <use x="810.201172" xlink:href="#DejaVuSans-116"/>
      <use x="849.410156" xlink:href="#DejaVuSans-101"/>
     </g>
    </g>
   </g>
   <g id="line2d_25">
    <path clip-path="url(#p5d33db914e)" d="M 57.6 307.584 
L 57.6 54.144 
L 414.72 54.144 
L 414.72 54.144 
" style="fill:none;stroke:#ff1493;stroke-dasharray:2,3.3;stroke-dashoffset:0;stroke-width:2;"/>
   </g>
   <g id="line2d_26">
    <path clip-path="url(#p5d33db914e)" d="M 57.6 54.144 
L 414.72 54.144 
L 414.72 54.144 
" style="fill:none;stroke:#000080;stroke-dasharray:2,3.3;stroke-dashoffset:0;stroke-width:2;"/>
   </g>
   <g id="line2d_27">
    <path clip-path="url(#p5d33db914e)" d="M 57.6 307.584 
L 57.6 304.566857 
L 57.6 298.532571 
L 57.6 292.498286 
L 57.6 271.378286 
L 57.6 259.309714 
L 57.6 253.275429 
L 57.6 247.241143 
L 57.6 238.189714 
L 57.6 232.155429 
L 57.6 217.069714 
L 57.6 208.018286 
L 57.6 205.001143 
L 57.6 189.915429 
L 57.6 183.881143 
L 57.6 168.795429 
L 57.6 162.761143 
L 57.6 159.744 
L 57.6 153.709714 
L 57.6 147.675429 
L 57.6 138.624 
L 57.6 135.606857 
L 57.6 123.538286 
L 57.6 105.435429 
L 57.6 93.366857 
L 57.6 87.332571 
L 57.6 81.298286 
L 57.6 75.264 
L 57.6 69.229714 
L 57.6 63.195429 
L 57.6 57.161143 
L 57.6 54.144 
L 60.434286 54.144 
L 63.268571 54.144 
L 67.52 54.144 
L 70.354286 54.144 
L 71.771429 54.144 
L 74.605714 54.144 
L 78.857143 54.144 
L 88.777143 54.144 
L 93.028571 54.144 
L 94.445714 54.144 
L 97.28 54.144 
L 101.531429 54.144 
L 110.034286 54.144 
L 115.702857 54.144 
L 119.954286 54.144 
L 129.874286 54.144 
L 136.96 54.144 
L 139.794286 54.144 
L 144.045714 54.144 
L 145.462857 54.144 
L 158.217143 54.144 
L 161.051429 54.144 
L 162.468571 54.144 
L 166.72 54.144 
L 173.805714 54.144 
L 176.64 54.144 
L 182.308571 54.144 
L 189.394286 54.144 
L 190.811429 54.144 
L 207.817143 54.144 
L 217.737143 54.144 
L 229.074286 54.144 
L 246.08 54.144 
L 256 54.144 
L 261.668571 54.144 
L 268.754286 54.144 
L 277.257143 54.144 
L 284.342857 54.144 
L 292.845714 54.144 
L 299.931429 54.144 
L 301.348571 54.144 
L 308.434286 54.144 
L 311.268571 54.144 
L 331.108571 54.144 
L 338.194286 54.144 
L 342.445714 54.144 
L 348.114286 54.144 
L 352.365714 54.144 
L 359.451429 54.144 
L 370.788571 54.144 
L 379.291429 54.144 
L 386.377143 54.144 
L 394.88 54.144 
L 400.548571 54.144 
L 409.051429 54.144 
L 414.72 54.144 
" style="fill:none;stroke:#a6cee3;stroke-linecap:square;stroke-width:2;"/>
   </g>
   <g id="line2d_28">
    <path clip-path="url(#p5d33db914e)" d="M 57.6 307.584 
L 57.6 304.566857 
L 57.6 295.515429 
L 57.6 283.446857 
L 57.6 268.361143 
L 57.6 256.292571 
L 57.6 247.241143 
L 57.6 238.189714 
L 57.6 208.018286 
L 57.6 201.984 
L 57.6 192.932571 
L 57.6 174.829714 
L 57.6 165.778286 
L 57.6 159.744 
L 57.6 147.675429 
L 57.6 129.572571 
L 57.6 120.521143 
L 57.6 108.452571 
L 57.6 105.435429 
L 57.6 99.401143 
L 57.6 93.366857 
L 57.6 87.332571 
L 57.6 54.144 
L 59.017143 54.144 
L 61.851429 54.144 
L 66.102857 54.144 
L 68.937143 54.144 
L 74.605714 54.144 
L 77.44 54.144 
L 84.525714 54.144 
L 87.36 54.144 
L 90.194286 54.144 
L 98.697143 54.144 
L 100.114286 54.144 
L 102.948571 54.144 
L 105.782857 54.144 
L 111.451429 54.144 
L 112.868571 54.144 
L 117.12 54.144 
L 122.788571 54.144 
L 125.622857 54.144 
L 129.874286 54.144 
L 131.291429 54.144 
L 142.628571 54.144 
L 144.045714 54.144 
L 146.88 54.144 
L 151.131429 54.144 
L 152.548571 54.144 
L 163.885714 54.144 
L 166.72 54.144 
L 170.971429 54.144 
L 172.388571 54.144 
L 180.891429 54.144 
L 186.56 54.144 
L 195.062857 54.144 
L 209.234286 54.144 
L 214.902857 54.144 
L 224.822857 54.144 
L 230.491429 54.144 
L 234.742857 54.144 
L 243.245714 54.144 
L 248.914286 54.144 
L 257.417143 54.144 
L 261.668571 54.144 
L 267.337143 54.144 
L 275.84 54.144 
L 280.091429 54.144 
L 291.428571 54.144 
L 301.348571 54.144 
L 324.022857 54.144 
L 331.108571 54.144 
L 339.611429 54.144 
L 345.28 54.144 
L 358.034286 54.144 
L 369.371429 54.144 
L 377.874286 54.144 
L 406.217143 54.144 
L 413.302857 54.144 
L 414.72 54.144 
" style="fill:none;stroke:#1f78b4;stroke-linecap:square;stroke-width:2;"/>
   </g>
   <g id="line2d_29">
    <path clip-path="url(#p5d33db914e)" d="M 57.6 307.584 
L 57.6 301.549714 
L 57.6 292.498286 
L 57.6 283.446857 
L 57.6 277.412571 
L 57.6 259.309714 
L 57.6 253.275429 
L 57.6 238.189714 
L 57.6 229.138286 
L 57.6 223.104 
L 57.6 217.069714 
L 57.6 214.052571 
L 57.6 201.984 
L 57.6 198.966857 
L 57.6 180.864 
L 57.6 174.829714 
L 57.6 162.761143 
L 57.6 144.658286 
L 57.6 135.606857 
L 57.6 129.572571 
L 57.6 120.521143 
L 57.6 108.452571 
L 57.6 87.332571 
L 57.6 81.298286 
L 57.6 72.246857 
L 57.6 54.144 
L 60.434286 54.144 
L 63.268571 54.144 
L 66.102857 54.144 
L 68.937143 54.144 
L 71.771429 54.144 
L 73.188571 54.144 
L 76.022857 54.144 
L 88.777143 54.144 
L 93.028571 54.144 
L 95.862857 54.144 
L 98.697143 54.144 
L 101.531429 54.144 
L 104.365714 54.144 
L 110.034286 54.144 
L 111.451429 54.144 
L 114.285714 54.144 
L 117.12 54.144 
L 119.954286 54.144 
L 124.205714 54.144 
L 127.04 54.144 
L 138.377143 54.144 
L 139.794286 54.144 
L 142.628571 54.144 
L 145.462857 54.144 
L 159.634286 54.144 
L 165.302857 54.144 
L 179.474286 54.144 
L 183.725714 54.144 
L 192.228571 54.144 
L 204.982857 54.144 
L 213.485714 54.144 
L 233.325714 54.144 
L 238.994286 54.144 
L 256 54.144 
L 268.754286 54.144 
L 277.257143 54.144 
L 287.177143 54.144 
L 304.182857 54.144 
L 322.605714 54.144 
L 338.194286 54.144 
L 352.365714 54.144 
L 365.12 54.144 
L 390.628571 54.144 
L 403.382857 54.144 
L 414.72 54.144 
" style="fill:none;stroke:#b2df8a;stroke-linecap:square;stroke-width:2;"/>
   </g>
   <g id="line2d_30">
    <path clip-path="url(#p5d33db914e)" d="M 57.6 307.584 
L 57.6 304.566857 
L 57.6 301.549714 
L 57.6 295.515429 
L 57.6 292.498286 
L 57.6 286.464 
L 57.6 277.412571 
L 57.6 262.326857 
L 57.6 256.292571 
L 57.6 253.275429 
L 57.6 247.241143 
L 57.6 235.172571 
L 57.6 229.138286 
L 57.6 223.104 
L 57.6 208.018286 
L 57.6 201.984 
L 57.6 189.915429 
L 57.6 180.864 
L 57.6 129.572571 
L 57.6 111.469714 
L 57.6 99.401143 
L 57.6 93.366857 
L 57.6 90.349714 
L 57.6 81.298286 
L 57.6 54.144 
L 66.102857 54.144 
L 68.937143 54.144 
L 76.022857 54.144 
L 80.274286 54.144 
L 83.108571 54.144 
L 85.942857 54.144 
L 90.194286 54.144 
L 93.028571 54.144 
L 95.862857 54.144 
L 98.697143 54.144 
L 100.114286 54.144 
L 102.948571 54.144 
L 108.617143 54.144 
L 117.12 54.144 
L 122.788571 54.144 
L 128.457143 54.144 
L 131.291429 54.144 
L 134.125714 54.144 
L 139.794286 54.144 
L 144.045714 54.144 
L 149.714286 54.144 
L 151.131429 54.144 
L 153.965714 54.144 
L 155.382857 54.144 
L 161.051429 54.144 
L 165.302857 54.144 
L 168.137143 54.144 
L 172.388571 54.144 
L 175.222857 54.144 
L 176.64 54.144 
L 185.142857 54.144 
L 186.56 54.144 
L 193.645714 54.144 
L 196.48 54.144 
L 200.731429 54.144 
L 212.068571 54.144 
L 214.902857 54.144 
L 220.571429 54.144 
L 224.822857 54.144 
L 230.491429 54.144 
L 241.828571 54.144 
L 256 54.144 
L 267.337143 54.144 
L 273.005714 54.144 
L 280.091429 54.144 
L 288.594286 54.144 
L 294.262857 54.144 
L 301.348571 54.144 
L 322.605714 54.144 
L 329.691429 54.144 
L 341.028571 54.144 
L 342.445714 54.144 
L 353.782857 54.144 
L 372.205714 54.144 
L 380.708571 54.144 
L 396.297143 54.144 
L 414.72 54.144 
" style="fill:none;stroke:#33a02c;stroke-linecap:square;stroke-width:2;"/>
   </g>
   <g id="line2d_31">
    <path clip-path="url(#p5d33db914e)" d="M 57.6 307.584 
L 414.72 54.144 
" style="fill:none;stroke:#000000;stroke-dasharray:7.4,3.2;stroke-dashoffset:0;stroke-width:2;"/>
   </g>
   <g id="patch_3">
    <path d="M 57.6 307.584 
L 57.6 41.472 
" style="fill:none;stroke:#000000;stroke-linecap:square;stroke-linejoin:miter;stroke-width:0.8;"/>
   </g>
   <g id="patch_4">
    <path d="M 414.72 307.584 
L 414.72 41.472 
" style="fill:none;stroke:#000000;stroke-linecap:square;stroke-linejoin:miter;stroke-width:0.8;"/>
   </g>
   <g id="patch_5">
    <path d="M 57.6 307.584 
L 414.72 307.584 
" style="fill:none;stroke:#000000;stroke-linecap:square;stroke-linejoin:miter;stroke-width:0.8;"/>
   </g>
   <g id="patch_6">
    <path d="M 57.6 41.472 
L 414.72 41.472 
" style="fill:none;stroke:#000000;stroke-linecap:square;stroke-linejoin:miter;stroke-width:0.8;"/>
   </g>
   <g id="legend_1">
    <g id="patch_7">
     <path d="M 206.97625 303.584 
L 409.12 303.584 
Q 410.72 303.584 410.72 301.984 
L 410.72 231.2165 
Q 410.72 229.6165 409.12 229.6165 
L 206.97625 229.6165 
Q 205.37625 229.6165 205.37625 231.2165 
L 205.37625 301.984 
Q 205.37625 303.584 206.97625 303.584 
z
" style="fill:#ffffff;opacity:0.8;stroke:#cccccc;stroke-linejoin:miter;"/>
    </g>
    <g id="line2d_32">
     <path d="M 208.57625 236.09525 
L 224.57625 236.09525 
" style="fill:none;stroke:#ff1493;stroke-dasharray:2,3.3;stroke-dashoffset:0;stroke-width:2;"/>
    </g>
    <g id="line2d_33"/>
    <g id="text_15">
     <!-- micro_average (area = 1.00) -->
     <defs>
      <path d="M 52 44.1875 
Q 55.375 50.25 60.0625 53.125 
Q 64.75 56 71.09375 56 
Q 79.640625 56 84.28125 50.015625 
Q 88.921875 44.046875 88.921875 33.015625 
L 88.921875 0 
L 79.890625 0 
L 79.890625 32.71875 
Q 79.890625 40.578125 77.09375 44.375 
Q 74.3125 48.1875 68.609375 48.1875 
Q 61.625 48.1875 57.5625 43.546875 
Q 53.515625 38.921875 53.515625 30.90625 
L 53.515625 0 
L 44.484375 0 
L 44.484375 32.71875 
Q 44.484375 40.625 41.703125 44.40625 
Q 38.921875 48.1875 33.109375 48.1875 
Q 26.21875 48.1875 22.15625 43.53125 
Q 18.109375 38.875 18.109375 30.90625 
L 18.109375 0 
L 9.078125 0 
L 9.078125 54.6875 
L 18.109375 54.6875 
L 18.109375 46.1875 
Q 21.1875 51.21875 25.484375 53.609375 
Q 29.78125 56 35.6875 56 
Q 41.65625 56 45.828125 52.96875 
Q 50 49.953125 52 44.1875 
z
" id="DejaVuSans-109"/>
      <path d="M 48.78125 52.59375 
L 48.78125 44.1875 
Q 44.96875 46.296875 41.140625 47.34375 
Q 37.3125 48.390625 33.40625 48.390625 
Q 24.65625 48.390625 19.8125 42.84375 
Q 14.984375 37.3125 14.984375 27.296875 
Q 14.984375 17.28125 19.8125 11.734375 
Q 24.65625 6.203125 33.40625 6.203125 
Q 37.3125 6.203125 41.140625 7.25 
Q 44.96875 8.296875 48.78125 10.40625 
L 48.78125 2.09375 
Q 45.015625 0.34375 40.984375 -0.53125 
Q 36.96875 -1.421875 32.421875 -1.421875 
Q 20.0625 -1.421875 12.78125 6.34375 
Q 5.515625 14.109375 5.515625 27.296875 
Q 5.515625 40.671875 12.859375 48.328125 
Q 20.21875 56 33.015625 56 
Q 37.15625 56 41.109375 55.140625 
Q 45.0625 54.296875 48.78125 52.59375 
z
" id="DejaVuSans-99"/>
      <path d="M 50.984375 -16.609375 
L 50.984375 -23.578125 
L -0.984375 -23.578125 
L -0.984375 -16.609375 
z
" id="DejaVuSans-95"/>
      <path d="M 45.40625 27.984375 
Q 45.40625 37.75 41.375 43.109375 
Q 37.359375 48.484375 30.078125 48.484375 
Q 22.859375 48.484375 18.828125 43.109375 
Q 14.796875 37.75 14.796875 27.984375 
Q 14.796875 18.265625 18.828125 12.890625 
Q 22.859375 7.515625 30.078125 7.515625 
Q 37.359375 7.515625 41.375 12.890625 
Q 45.40625 18.265625 45.40625 27.984375 
z
M 54.390625 6.78125 
Q 54.390625 -7.171875 48.1875 -13.984375 
Q 42 -20.796875 29.203125 -20.796875 
Q 24.46875 -20.796875 20.265625 -20.09375 
Q 16.0625 -19.390625 12.109375 -17.921875 
L 12.109375 -9.1875 
Q 16.0625 -11.328125 19.921875 -12.34375 
Q 23.78125 -13.375 27.78125 -13.375 
Q 36.625 -13.375 41.015625 -8.765625 
Q 45.40625 -4.15625 45.40625 5.171875 
L 45.40625 9.625 
Q 42.625 4.78125 38.28125 2.390625 
Q 33.9375 0 27.875 0 
Q 17.828125 0 11.671875 7.65625 
Q 5.515625 15.328125 5.515625 27.984375 
Q 5.515625 40.671875 11.671875 48.328125 
Q 17.828125 56 27.875 56 
Q 33.9375 56 38.28125 53.609375 
Q 42.625 51.21875 45.40625 46.390625 
L 45.40625 54.6875 
L 54.390625 54.6875 
z
" id="DejaVuSans-103"/>
      <path d="M 31 75.875 
Q 24.46875 64.65625 21.28125 53.65625 
Q 18.109375 42.671875 18.109375 31.390625 
Q 18.109375 20.125 21.3125 9.0625 
Q 24.515625 -2 31 -13.1875 
L 23.1875 -13.1875 
Q 15.875 -1.703125 12.234375 9.375 
Q 8.59375 20.453125 8.59375 31.390625 
Q 8.59375 42.28125 12.203125 53.3125 
Q 15.828125 64.359375 23.1875 75.875 
z
" id="DejaVuSans-40"/>
      <path d="M 10.59375 45.40625 
L 73.1875 45.40625 
L 73.1875 37.203125 
L 10.59375 37.203125 
z
M 10.59375 25.484375 
L 73.1875 25.484375 
L 73.1875 17.1875 
L 10.59375 17.1875 
z
" id="DejaVuSans-61"/>
      <path d="M 8.015625 75.875 
L 15.828125 75.875 
Q 23.140625 64.359375 26.78125 53.3125 
Q 30.421875 42.28125 30.421875 31.390625 
Q 30.421875 20.453125 26.78125 9.375 
Q 23.140625 -1.703125 15.828125 -13.1875 
L 8.015625 -13.1875 
Q 14.5 -2 17.703125 9.0625 
Q 20.90625 20.125 20.90625 31.390625 
Q 20.90625 42.671875 17.703125 53.65625 
Q 14.5 64.65625 8.015625 75.875 
z
" id="DejaVuSans-41"/>
     </defs>
     <g transform="translate(230.97625 238.89525)scale(0.08 -0.08)">
      <use xlink:href="#DejaVuSans-109"/>
      <use x="97.412109" xlink:href="#DejaVuSans-105"/>
      <use x="125.195312" xlink:href="#DejaVuSans-99"/>
      <use x="180.175781" xlink:href="#DejaVuSans-114"/>
      <use x="221.257812" xlink:href="#DejaVuSans-111"/>
      <use x="282.439453" xlink:href="#DejaVuSans-95"/>
      <use x="332.439453" xlink:href="#DejaVuSans-97"/>
      <use x="393.71875" xlink:href="#DejaVuSans-118"/>
      <use x="452.898438" xlink:href="#DejaVuSans-101"/>
      <use x="514.421875" xlink:href="#DejaVuSans-114"/>
      <use x="555.535156" xlink:href="#DejaVuSans-97"/>
      <use x="616.814453" xlink:href="#DejaVuSans-103"/>
      <use x="680.291016" xlink:href="#DejaVuSans-101"/>
      <use x="741.814453" xlink:href="#DejaVuSans-32"/>
      <use x="773.601562" xlink:href="#DejaVuSans-40"/>
      <use x="812.615234" xlink:href="#DejaVuSans-97"/>
      <use x="873.894531" xlink:href="#DejaVuSans-114"/>
      <use x="914.976562" xlink:href="#DejaVuSans-101"/>
      <use x="976.5" xlink:href="#DejaVuSans-97"/>
      <use x="1037.779297" xlink:href="#DejaVuSans-32"/>
      <use x="1069.566406" xlink:href="#DejaVuSans-61"/>
      <use x="1153.355469" xlink:href="#DejaVuSans-32"/>
      <use x="1185.142578" xlink:href="#DejaVuSans-49"/>
      <use x="1248.765625" xlink:href="#DejaVuSans-46"/>
      <use x="1280.552734" xlink:href="#DejaVuSans-48"/>
      <use x="1344.175781" xlink:href="#DejaVuSans-48"/>
      <use x="1407.798828" xlink:href="#DejaVuSans-41"/>
     </g>
    </g>
    <g id="line2d_34">
     <path d="M 208.57625 248.06025 
L 224.57625 248.06025 
" style="fill:none;stroke:#000080;stroke-dasharray:2,3.3;stroke-dashoffset:0;stroke-width:2;"/>
    </g>
    <g id="line2d_35"/>
    <g id="text_16">
     <!-- macro_average (area = 1.00) -->
     <g transform="translate(230.97625 250.86025)scale(0.08 -0.08)">
      <use xlink:href="#DejaVuSans-109"/>
      <use x="97.412109" xlink:href="#DejaVuSans-97"/>
      <use x="158.691406" xlink:href="#DejaVuSans-99"/>
      <use x="213.671875" xlink:href="#DejaVuSans-114"/>
      <use x="254.753906" xlink:href="#DejaVuSans-111"/>
      <use x="315.935547" xlink:href="#DejaVuSans-95"/>
      <use x="365.935547" xlink:href="#DejaVuSans-97"/>
      <use x="427.214844" xlink:href="#DejaVuSans-118"/>
      <use x="486.394531" xlink:href="#DejaVuSans-101"/>
      <use x="547.917969" xlink:href="#DejaVuSans-114"/>
      <use x="589.03125" xlink:href="#DejaVuSans-97"/>
      <use x="650.310547" xlink:href="#DejaVuSans-103"/>
      <use x="713.787109" xlink:href="#DejaVuSans-101"/>
      <use x="775.310547" xlink:href="#DejaVuSans-32"/>
      <use x="807.097656" xlink:href="#DejaVuSans-40"/>
      <use x="846.111328" xlink:href="#DejaVuSans-97"/>
      <use x="907.390625" xlink:href="#DejaVuSans-114"/>
      <use x="948.472656" xlink:href="#DejaVuSans-101"/>
      <use x="1009.996094" xlink:href="#DejaVuSans-97"/>
      <use x="1071.275391" xlink:href="#DejaVuSans-32"/>
      <use x="1103.0625" xlink:href="#DejaVuSans-61"/>
      <use x="1186.851562" xlink:href="#DejaVuSans-32"/>
      <use x="1218.638672" xlink:href="#DejaVuSans-49"/>
      <use x="1282.261719" xlink:href="#DejaVuSans-46"/>
      <use x="1314.048828" xlink:href="#DejaVuSans-48"/>
      <use x="1377.671875" xlink:href="#DejaVuSans-48"/>
      <use x="1441.294922" xlink:href="#DejaVuSans-41"/>
     </g>
    </g>
    <g id="line2d_36">
     <path d="M 208.57625 260.02525 
L 224.57625 260.02525 
" style="fill:none;stroke:#a6cee3;stroke-linecap:square;stroke-width:2;"/>
    </g>
    <g id="line2d_37"/>
    <g id="text_17">
     <!--  Barrett's_Esophagus (area = 1.00) -->
     <defs>
      <path d="M 19.671875 34.8125 
L 19.671875 8.109375 
L 35.5 8.109375 
Q 43.453125 8.109375 47.28125 11.40625 
Q 51.125 14.703125 51.125 21.484375 
Q 51.125 28.328125 47.28125 31.5625 
Q 43.453125 34.8125 35.5 34.8125 
z
M 19.671875 64.796875 
L 19.671875 42.828125 
L 34.28125 42.828125 
Q 41.5 42.828125 45.03125 45.53125 
Q 48.578125 48.25 48.578125 53.8125 
Q 48.578125 59.328125 45.03125 62.0625 
Q 41.5 64.796875 34.28125 64.796875 
z
M 9.8125 72.90625 
L 35.015625 72.90625 
Q 46.296875 72.90625 52.390625 68.21875 
Q 58.5 63.53125 58.5 54.890625 
Q 58.5 48.1875 55.375 44.234375 
Q 52.25 40.28125 46.1875 39.3125 
Q 53.46875 37.75 57.5 32.78125 
Q 61.53125 27.828125 61.53125 20.40625 
Q 61.53125 10.640625 54.890625 5.3125 
Q 48.25 0 35.984375 0 
L 9.8125 0 
z
" id="DejaVuSans-66"/>
      <path d="M 17.921875 72.90625 
L 17.921875 45.796875 
L 9.625 45.796875 
L 9.625 72.90625 
z
" id="DejaVuSans-39"/>
      <path d="M 9.8125 72.90625 
L 55.90625 72.90625 
L 55.90625 64.59375 
L 19.671875 64.59375 
L 19.671875 43.015625 
L 54.390625 43.015625 
L 54.390625 34.71875 
L 19.671875 34.71875 
L 19.671875 8.296875 
L 56.78125 8.296875 
L 56.78125 0 
L 9.8125 0 
z
" id="DejaVuSans-69"/>
      <path d="M 18.109375 8.203125 
L 18.109375 -20.796875 
L 9.078125 -20.796875 
L 9.078125 54.6875 
L 18.109375 54.6875 
L 18.109375 46.390625 
Q 20.953125 51.265625 25.265625 53.625 
Q 29.59375 56 35.59375 56 
Q 45.5625 56 51.78125 48.09375 
Q 58.015625 40.1875 58.015625 27.296875 
Q 58.015625 14.40625 51.78125 6.484375 
Q 45.5625 -1.421875 35.59375 -1.421875 
Q 29.59375 -1.421875 25.265625 0.953125 
Q 20.953125 3.328125 18.109375 8.203125 
z
M 48.6875 27.296875 
Q 48.6875 37.203125 44.609375 42.84375 
Q 40.53125 48.484375 33.40625 48.484375 
Q 26.265625 48.484375 22.1875 42.84375 
Q 18.109375 37.203125 18.109375 27.296875 
Q 18.109375 17.390625 22.1875 11.75 
Q 26.265625 6.109375 33.40625 6.109375 
Q 40.53125 6.109375 44.609375 11.75 
Q 48.6875 17.390625 48.6875 27.296875 
z
" id="DejaVuSans-112"/>
      <path d="M 54.890625 33.015625 
L 54.890625 0 
L 45.90625 0 
L 45.90625 32.71875 
Q 45.90625 40.484375 42.875 44.328125 
Q 39.84375 48.1875 33.796875 48.1875 
Q 26.515625 48.1875 22.3125 43.546875 
Q 18.109375 38.921875 18.109375 30.90625 
L 18.109375 0 
L 9.078125 0 
L 9.078125 75.984375 
L 18.109375 75.984375 
L 18.109375 46.1875 
Q 21.34375 51.125 25.703125 53.5625 
Q 30.078125 56 35.796875 56 
Q 45.21875 56 50.046875 50.171875 
Q 54.890625 44.34375 54.890625 33.015625 
z
" id="DejaVuSans-104"/>
     </defs>
     <g transform="translate(230.97625 262.82525)scale(0.08 -0.08)">
      <use xlink:href="#DejaVuSans-32"/>
      <use x="31.787109" xlink:href="#DejaVuSans-66"/>
      <use x="100.390625" xlink:href="#DejaVuSans-97"/>
      <use x="161.669922" xlink:href="#DejaVuSans-114"/>
      <use x="202.767578" xlink:href="#DejaVuSans-114"/>
      <use x="243.849609" xlink:href="#DejaVuSans-101"/>
      <use x="305.373047" xlink:href="#DejaVuSans-116"/>
      <use x="344.582031" xlink:href="#DejaVuSans-116"/>
      <use x="383.791016" xlink:href="#DejaVuSans-39"/>
      <use x="411.28125" xlink:href="#DejaVuSans-115"/>
      <use x="463.380859" xlink:href="#DejaVuSans-95"/>
      <use x="513.380859" xlink:href="#DejaVuSans-69"/>
      <use x="576.564453" xlink:href="#DejaVuSans-115"/>
      <use x="628.664062" xlink:href="#DejaVuSans-111"/>
      <use x="689.845703" xlink:href="#DejaVuSans-112"/>
      <use x="753.322266" xlink:href="#DejaVuSans-104"/>
      <use x="816.701172" xlink:href="#DejaVuSans-97"/>
      <use x="877.980469" xlink:href="#DejaVuSans-103"/>
      <use x="941.457031" xlink:href="#DejaVuSans-117"/>
      <use x="1004.835938" xlink:href="#DejaVuSans-115"/>
      <use x="1056.935547" xlink:href="#DejaVuSans-32"/>
      <use x="1088.722656" xlink:href="#DejaVuSans-40"/>
      <use x="1127.736328" xlink:href="#DejaVuSans-97"/>
      <use x="1189.015625" xlink:href="#DejaVuSans-114"/>
      <use x="1230.097656" xlink:href="#DejaVuSans-101"/>
      <use x="1291.621094" xlink:href="#DejaVuSans-97"/>
      <use x="1352.900391" xlink:href="#DejaVuSans-32"/>
      <use x="1384.6875" xlink:href="#DejaVuSans-61"/>
      <use x="1468.476562" xlink:href="#DejaVuSans-32"/>
      <use x="1500.263672" xlink:href="#DejaVuSans-49"/>
      <use x="1563.886719" xlink:href="#DejaVuSans-46"/>
      <use x="1595.673828" xlink:href="#DejaVuSans-48"/>
      <use x="1659.296875" xlink:href="#DejaVuSans-48"/>
      <use x="1722.919922" xlink:href="#DejaVuSans-41"/>
     </g>
    </g>
    <g id="line2d_38">
     <path d="M 208.57625 271.99025 
L 224.57625 271.99025 
" style="fill:none;stroke:#1f78b4;stroke-linecap:square;stroke-width:2;"/>
    </g>
    <g id="line2d_39"/>
    <g id="text_18">
     <!--  Esophageal_Adenocarcinoma (area = 1.00) -->
     <defs>
      <path d="M 34.1875 63.1875 
L 20.796875 26.90625 
L 47.609375 26.90625 
z
M 28.609375 72.90625 
L 39.796875 72.90625 
L 67.578125 0 
L 57.328125 0 
L 50.6875 18.703125 
L 17.828125 18.703125 
L 11.1875 0 
L 0.78125 0 
z
" id="DejaVuSans-65"/>
      <path d="M 45.40625 46.390625 
L 45.40625 75.984375 
L 54.390625 75.984375 
L 54.390625 0 
L 45.40625 0 
L 45.40625 8.203125 
Q 42.578125 3.328125 38.25 0.953125 
Q 33.9375 -1.421875 27.875 -1.421875 
Q 17.96875 -1.421875 11.734375 6.484375 
Q 5.515625 14.40625 5.515625 27.296875 
Q 5.515625 40.1875 11.734375 48.09375 
Q 17.96875 56 27.875 56 
Q 33.9375 56 38.25 53.625 
Q 42.578125 51.265625 45.40625 46.390625 
z
M 14.796875 27.296875 
Q 14.796875 17.390625 18.875 11.75 
Q 22.953125 6.109375 30.078125 6.109375 
Q 37.203125 6.109375 41.296875 11.75 
Q 45.40625 17.390625 45.40625 27.296875 
Q 45.40625 37.203125 41.296875 42.84375 
Q 37.203125 48.484375 30.078125 48.484375 
Q 22.953125 48.484375 18.875 42.84375 
Q 14.796875 37.203125 14.796875 27.296875 
z
" id="DejaVuSans-100"/>
      <path d="M 54.890625 33.015625 
L 54.890625 0 
L 45.90625 0 
L 45.90625 32.71875 
Q 45.90625 40.484375 42.875 44.328125 
Q 39.84375 48.1875 33.796875 48.1875 
Q 26.515625 48.1875 22.3125 43.546875 
Q 18.109375 38.921875 18.109375 30.90625 
L 18.109375 0 
L 9.078125 0 
L 9.078125 54.6875 
L 18.109375 54.6875 
L 18.109375 46.1875 
Q 21.34375 51.125 25.703125 53.5625 
Q 30.078125 56 35.796875 56 
Q 45.21875 56 50.046875 50.171875 
Q 54.890625 44.34375 54.890625 33.015625 
z
" id="DejaVuSans-110"/>
     </defs>
     <g transform="translate(230.97625 274.79025)scale(0.08 -0.08)">
      <use xlink:href="#DejaVuSans-32"/>
      <use x="31.787109" xlink:href="#DejaVuSans-69"/>
      <use x="94.970703" xlink:href="#DejaVuSans-115"/>
      <use x="147.070312" xlink:href="#DejaVuSans-111"/>
      <use x="208.251953" xlink:href="#DejaVuSans-112"/>
      <use x="271.728516" xlink:href="#DejaVuSans-104"/>
      <use x="335.107422" xlink:href="#DejaVuSans-97"/>
      <use x="396.386719" xlink:href="#DejaVuSans-103"/>
      <use x="459.863281" xlink:href="#DejaVuSans-101"/>
      <use x="521.386719" xlink:href="#DejaVuSans-97"/>
      <use x="582.666016" xlink:href="#DejaVuSans-108"/>
      <use x="610.449219" xlink:href="#DejaVuSans-95"/>
      <use x="660.449219" xlink:href="#DejaVuSans-65"/>
      <use x="728.841797" xlink:href="#DejaVuSans-100"/>
      <use x="792.318359" xlink:href="#DejaVuSans-101"/>
      <use x="853.841797" xlink:href="#DejaVuSans-110"/>
      <use x="917.220703" xlink:href="#DejaVuSans-111"/>
      <use x="978.402344" xlink:href="#DejaVuSans-99"/>
      <use x="1033.382812" xlink:href="#DejaVuSans-97"/>
      <use x="1094.662109" xlink:href="#DejaVuSans-114"/>
      <use x="1135.744141" xlink:href="#DejaVuSans-99"/>
      <use x="1190.724609" xlink:href="#DejaVuSans-105"/>
      <use x="1218.507812" xlink:href="#DejaVuSans-110"/>
      <use x="1281.886719" xlink:href="#DejaVuSans-111"/>
      <use x="1343.068359" xlink:href="#DejaVuSans-109"/>
      <use x="1440.480469" xlink:href="#DejaVuSans-97"/>
      <use x="1501.759766" xlink:href="#DejaVuSans-32"/>
      <use x="1533.546875" xlink:href="#DejaVuSans-40"/>
      <use x="1572.560547" xlink:href="#DejaVuSans-97"/>
      <use x="1633.839844" xlink:href="#DejaVuSans-114"/>
      <use x="1674.921875" xlink:href="#DejaVuSans-101"/>
      <use x="1736.445312" xlink:href="#DejaVuSans-97"/>
      <use x="1797.724609" xlink:href="#DejaVuSans-32"/>
      <use x="1829.511719" xlink:href="#DejaVuSans-61"/>
      <use x="1913.300781" xlink:href="#DejaVuSans-32"/>
      <use x="1945.087891" xlink:href="#DejaVuSans-49"/>
      <use x="2008.710938" xlink:href="#DejaVuSans-46"/>
      <use x="2040.498047" xlink:href="#DejaVuSans-48"/>
      <use x="2104.121094" xlink:href="#DejaVuSans-48"/>
      <use x="2167.744141" xlink:href="#DejaVuSans-41"/>
     </g>
    </g>
    <g id="line2d_40">
     <path d="M 208.57625 283.95525 
L 224.57625 283.95525 
" style="fill:none;stroke:#b2df8a;stroke-linecap:square;stroke-width:2;"/>
    </g>
    <g id="line2d_41"/>
    <g id="text_19">
     <!--  Normal (area = 1.00) -->
     <defs>
      <path d="M 9.8125 72.90625 
L 23.09375 72.90625 
L 55.421875 11.921875 
L 55.421875 72.90625 
L 64.984375 72.90625 
L 64.984375 0 
L 51.703125 0 
L 19.390625 60.984375 
L 19.390625 0 
L 9.8125 0 
z
" id="DejaVuSans-78"/>
     </defs>
     <g transform="translate(230.97625 286.75525)scale(0.08 -0.08)">
      <use xlink:href="#DejaVuSans-32"/>
      <use x="31.787109" xlink:href="#DejaVuSans-78"/>
      <use x="106.591797" xlink:href="#DejaVuSans-111"/>
      <use x="167.773438" xlink:href="#DejaVuSans-114"/>
      <use x="208.871094" xlink:href="#DejaVuSans-109"/>
      <use x="306.283203" xlink:href="#DejaVuSans-97"/>
      <use x="367.5625" xlink:href="#DejaVuSans-108"/>
      <use x="395.345703" xlink:href="#DejaVuSans-32"/>
      <use x="427.132812" xlink:href="#DejaVuSans-40"/>
      <use x="466.146484" xlink:href="#DejaVuSans-97"/>
      <use x="527.425781" xlink:href="#DejaVuSans-114"/>
      <use x="568.507812" xlink:href="#DejaVuSans-101"/>
      <use x="630.03125" xlink:href="#DejaVuSans-97"/>
      <use x="691.310547" xlink:href="#DejaVuSans-32"/>
      <use x="723.097656" xlink:href="#DejaVuSans-61"/>
      <use x="806.886719" xlink:href="#DejaVuSans-32"/>
      <use x="838.673828" xlink:href="#DejaVuSans-49"/>
      <use x="902.296875" xlink:href="#DejaVuSans-46"/>
      <use x="934.083984" xlink:href="#DejaVuSans-48"/>
      <use x="997.707031" xlink:href="#DejaVuSans-48"/>
      <use x="1061.330078" xlink:href="#DejaVuSans-41"/>
     </g>
    </g>
    <g id="line2d_42">
     <path d="M 208.57625 295.69775 
L 224.57625 295.69775 
" style="fill:none;stroke:#33a02c;stroke-linecap:square;stroke-width:2;"/>
    </g>
    <g id="line2d_43"/>
    <g id="text_20">
     <!--  Reflux_Esophagitis (area = 1.00) -->
     <defs>
      <path d="M 37.109375 75.984375 
L 37.109375 68.5 
L 28.515625 68.5 
Q 23.6875 68.5 21.796875 66.546875 
Q 19.921875 64.59375 19.921875 59.515625 
L 19.921875 54.6875 
L 34.71875 54.6875 
L 34.71875 47.703125 
L 19.921875 47.703125 
L 19.921875 0 
L 10.890625 0 
L 10.890625 47.703125 
L 2.296875 47.703125 
L 2.296875 54.6875 
L 10.890625 54.6875 
L 10.890625 58.5 
Q 10.890625 67.625 15.140625 71.796875 
Q 19.390625 75.984375 28.609375 75.984375 
z
" id="DejaVuSans-102"/>
      <path d="M 54.890625 54.6875 
L 35.109375 28.078125 
L 55.90625 0 
L 45.3125 0 
L 29.390625 21.484375 
L 13.484375 0 
L 2.875 0 
L 24.125 28.609375 
L 4.6875 54.6875 
L 15.28125 54.6875 
L 29.78125 35.203125 
L 44.28125 54.6875 
z
" id="DejaVuSans-120"/>
     </defs>
     <g transform="translate(230.97625 298.49775)scale(0.08 -0.08)">
      <use xlink:href="#DejaVuSans-32"/>
      <use x="31.787109" xlink:href="#DejaVuSans-82"/>
      <use x="101.207031" xlink:href="#DejaVuSans-101"/>
      <use x="162.730469" xlink:href="#DejaVuSans-102"/>
      <use x="197.935547" xlink:href="#DejaVuSans-108"/>
      <use x="225.71875" xlink:href="#DejaVuSans-117"/>
      <use x="289.097656" xlink:href="#DejaVuSans-120"/>
      <use x="348.277344" xlink:href="#DejaVuSans-95"/>
      <use x="398.277344" xlink:href="#DejaVuSans-69"/>
      <use x="461.460938" xlink:href="#DejaVuSans-115"/>
      <use x="513.560547" xlink:href="#DejaVuSans-111"/>
      <use x="574.742188" xlink:href="#DejaVuSans-112"/>
      <use x="638.21875" xlink:href="#DejaVuSans-104"/>
      <use x="701.597656" xlink:href="#DejaVuSans-97"/>
      <use x="762.876953" xlink:href="#DejaVuSans-103"/>
      <use x="826.353516" xlink:href="#DejaVuSans-105"/>
      <use x="854.136719" xlink:href="#DejaVuSans-116"/>
      <use x="893.345703" xlink:href="#DejaVuSans-105"/>
      <use x="921.128906" xlink:href="#DejaVuSans-115"/>
      <use x="973.228516" xlink:href="#DejaVuSans-32"/>
      <use x="1005.015625" xlink:href="#DejaVuSans-40"/>
      <use x="1044.029297" xlink:href="#DejaVuSans-97"/>
      <use x="1105.308594" xlink:href="#DejaVuSans-114"/>
      <use x="1146.390625" xlink:href="#DejaVuSans-101"/>
      <use x="1207.914062" xlink:href="#DejaVuSans-97"/>
      <use x="1269.193359" xlink:href="#DejaVuSans-32"/>
      <use x="1300.980469" xlink:href="#DejaVuSans-61"/>
      <use x="1384.769531" xlink:href="#DejaVuSans-32"/>
      <use x="1416.556641" xlink:href="#DejaVuSans-49"/>
      <use x="1480.179688" xlink:href="#DejaVuSans-46"/>
      <use x="1511.966797" xlink:href="#DejaVuSans-48"/>
      <use x="1575.589844" xlink:href="#DejaVuSans-48"/>
      <use x="1639.212891" xlink:href="#DejaVuSans-41"/>
     </g>
    </g>
   </g>
  </g>
 </g>
 <defs>
  <clipPath id="p5d33db914e">
   <rect height="266.112" width="357.12" x="57.6" y="41.472"/>
  </clipPath>
 </defs>
</svg>
