<?xml version="1.0" encoding="utf-8" standalone="no"?>
<!DOCTYPE svg PUBLIC "-//W3C//DTD SVG 1.1//EN"
  "http://www.w3.org/Graphics/SVG/1.1/DTD/svg11.dtd">
<!-- Created with matplotlib (https://matplotlib.org/) -->
<svg height="208.48675pt" version="1.1" viewBox="0 0 483.511375 208.48675" width="483.511375pt" xmlns="http://www.w3.org/2000/svg" xmlns:xlink="http://www.w3.org/1999/xlink">
 <defs>
  <style type="text/css">
*{stroke-linecap:butt;stroke-linejoin:round;}
  </style>
 </defs>
 <g id="figure_1">
  <g id="patch_1">
   <path d="M 0 208.48675 
L 483.511375 208.48675 
L 483.511375 0 
L 0 0 
z
" style="fill:#ffffff;stroke:#ffffff;stroke-linejoin:miter;"/>
  </g>
  <g id="axes_1">
   <g id="patch_2">
    <path d="M 141.511375 187.82 
L 249.751375 187.82 
L 249.751375 21.5 
L 141.511375 21.5 
z
" style="fill:#ffffff;stroke:#7f7f7f;stroke-linejoin:miter;"/>
   </g>
   <g id="matplotlib.axis_1">
    <g id="xtick_1">
     <g id="line2d_1">
      <path clip-path="url(#pf399dee2a6)" d="M 146.431375 187.82 
L 146.431375 21.5 
" style="fill:none;stroke:#e5e5e5;stroke-width:0.8;"/>
     </g>
     <g id="line2d_2">
      <path d="M 146.431375 187.82 
" style="fill:none;stroke:#000000;stroke-width:1.5;"/>
      <defs>
       <path d="M 0 0 
L 0 2.75 
" id="m4efe237ee4" style="stroke:#000000;"/>
      </defs>
      <g>
       <use style="stroke:#000000;" x="146.431375" xlink:href="#m4efe237ee4" y="187.82"/>
      </g>
     </g>
     <g id="text_1">
      <!-- 0 -->
      <defs>
       <path d="M 31.78125 66.40625 
Q 24.171875 66.40625 20.328125 58.90625 
Q 16.5 51.421875 16.5 36.375 
Q 16.5 21.390625 20.328125 13.890625 
Q 24.171875 6.390625 31.78125 6.390625 
Q 39.453125 6.390625 43.28125 13.890625 
Q 47.125 21.390625 47.125 36.375 
Q 47.125 51.421875 43.28125 58.90625 
Q 39.453125 66.40625 31.78125 66.40625 
z
M 31.78125 74.21875 
Q 44.046875 74.21875 50.515625 64.515625 
Q 56.984375 54.828125 56.984375 36.375 
Q 56.984375 17.96875 50.515625 8.265625 
Q 44.046875 -1.421875 31.78125 -1.421875 
Q 19.53125 -1.421875 13.0625 8.265625 
Q 6.59375 17.96875 6.59375 36.375 
Q 6.59375 54.828125 13.0625 64.515625 
Q 19.53125 74.21875 31.78125 74.21875 
z
" id="DejaVuSans-48"/>
      </defs>
      <g style="fill:#4d4d4d;" transform="translate(143.631875 199.456625)scale(0.088 -0.088)">
       <use xlink:href="#DejaVuSans-48"/>
      </g>
     </g>
    </g>
    <g id="xtick_2">
     <g id="line2d_3">
      <path clip-path="url(#pf399dee2a6)" d="M 171.031375 187.82 
L 171.031375 21.5 
" style="fill:none;stroke:#e5e5e5;stroke-width:0.8;"/>
     </g>
     <g id="line2d_4">
      <path d="M 171.031375 187.82 
" style="fill:none;stroke:#000000;stroke-width:1.5;"/>
      <g>
       <use style="stroke:#000000;" x="171.031375" xlink:href="#m4efe237ee4" y="187.82"/>
      </g>
     </g>
     <g id="text_2">
      <!-- 0.25 -->
      <defs>
       <path d="M 10.6875 12.40625 
L 21 12.40625 
L 21 0 
L 10.6875 0 
z
" id="DejaVuSans-46"/>
       <path d="M 19.1875 8.296875 
L 53.609375 8.296875 
L 53.609375 0 
L 7.328125 0 
L 7.328125 8.296875 
Q 12.9375 14.109375 22.625 23.890625 
Q 32.328125 33.6875 34.8125 36.53125 
Q 39.546875 41.84375 41.421875 45.53125 
Q 43.3125 49.21875 43.3125 52.78125 
Q 43.3125 58.59375 39.234375 62.25 
Q 35.15625 65.921875 28.609375 65.921875 
Q 23.96875 65.921875 18.8125 64.3125 
Q 13.671875 62.703125 7.8125 59.421875 
L 7.8125 69.390625 
Q 13.765625 71.78125 18.9375 73 
Q 24.125 74.21875 28.421875 74.21875 
Q 39.75 74.21875 46.484375 68.546875 
Q 53.21875 62.890625 53.21875 53.421875 
Q 53.21875 48.921875 51.53125 44.890625 
Q 49.859375 40.875 45.40625 35.40625 
Q 44.1875 33.984375 37.640625 27.21875 
Q 31.109375 20.453125 19.1875 8.296875 
z
" id="DejaVuSans-50"/>
       <path d="M 10.796875 72.90625 
L 49.515625 72.90625 
L 49.515625 64.59375 
L 19.828125 64.59375 
L 19.828125 46.734375 
Q 21.96875 47.46875 24.109375 47.828125 
Q 26.265625 48.1875 28.421875 48.1875 
Q 40.625 48.1875 47.75 41.5 
Q 54.890625 34.8125 54.890625 23.390625 
Q 54.890625 11.625 47.5625 5.09375 
Q 40.234375 -1.421875 26.90625 -1.421875 
Q 22.3125 -1.421875 17.546875 -0.640625 
Q 12.796875 0.140625 7.71875 1.703125 
L 7.71875 11.625 
Q 12.109375 9.234375 16.796875 8.0625 
Q 21.484375 6.890625 26.703125 6.890625 
Q 35.15625 6.890625 40.078125 11.328125 
Q 45.015625 15.765625 45.015625 23.390625 
Q 45.015625 31 40.078125 35.4375 
Q 35.15625 39.890625 26.703125 39.890625 
Q 22.75 39.890625 18.8125 39.015625 
Q 14.890625 38.140625 10.796875 36.28125 
z
" id="DejaVuSans-53"/>
      </defs>
      <g style="fill:#4d4d4d;" transform="translate(161.2345 199.456625)scale(0.088 -0.088)">
       <use xlink:href="#DejaVuSans-48"/>
       <use x="63.623047" xlink:href="#DejaVuSans-46"/>
       <use x="95.410156" xlink:href="#DejaVuSans-50"/>
       <use x="159.033203" xlink:href="#DejaVuSans-53"/>
      </g>
     </g>
    </g>
    <g id="xtick_3">
     <g id="line2d_5">
      <path clip-path="url(#pf399dee2a6)" d="M 195.631375 187.82 
L 195.631375 21.5 
" style="fill:none;stroke:#e5e5e5;stroke-width:0.8;"/>
     </g>
     <g id="line2d_6">
      <path d="M 195.631375 187.82 
" style="fill:none;stroke:#000000;stroke-width:1.5;"/>
      <g>
       <use style="stroke:#000000;" x="195.631375" xlink:href="#m4efe237ee4" y="187.82"/>
      </g>
     </g>
     <g id="text_3">
      <!-- 0.50 -->
      <g style="fill:#4d4d4d;" transform="translate(185.8345 199.456625)scale(0.088 -0.088)">
       <use xlink:href="#DejaVuSans-48"/>
       <use x="63.623047" xlink:href="#DejaVuSans-46"/>
       <use x="95.410156" xlink:href="#DejaVuSans-53"/>
       <use x="159.033203" xlink:href="#DejaVuSans-48"/>
      </g>
     </g>
    </g>
    <g id="xtick_4">
     <g id="line2d_7">
      <path clip-path="url(#pf399dee2a6)" d="M 220.231375 187.82 
L 220.231375 21.5 
" style="fill:none;stroke:#e5e5e5;stroke-width:0.8;"/>
     </g>
     <g id="line2d_8">
      <path d="M 220.231375 187.82 
" style="fill:none;stroke:#000000;stroke-width:1.5;"/>
      <g>
       <use style="stroke:#000000;" x="220.231375" xlink:href="#m4efe237ee4" y="187.82"/>
      </g>
     </g>
     <g id="text_4">
      <!-- 0.75 -->
      <defs>
       <path d="M 8.203125 72.90625 
L 55.078125 72.90625 
L 55.078125 68.703125 
L 28.609375 0 
L 18.3125 0 
L 43.21875 64.59375 
L 8.203125 64.59375 
z
" id="DejaVuSans-55"/>
      </defs>
      <g style="fill:#4d4d4d;" transform="translate(210.4345 199.456625)scale(0.088 -0.088)">
       <use xlink:href="#DejaVuSans-48"/>
       <use x="63.623047" xlink:href="#DejaVuSans-46"/>
       <use x="95.410156" xlink:href="#DejaVuSans-55"/>
       <use x="159.033203" xlink:href="#DejaVuSans-53"/>
      </g>
     </g>
    </g>
    <g id="xtick_5">
     <g id="line2d_9">
      <path clip-path="url(#pf399dee2a6)" d="M 244.831375 187.82 
L 244.831375 21.5 
" style="fill:none;stroke:#e5e5e5;stroke-width:0.8;"/>
     </g>
     <g id="line2d_10">
      <path d="M 244.831375 187.82 
" style="fill:none;stroke:#000000;stroke-width:1.5;"/>
      <g>
       <use style="stroke:#000000;" x="244.831375" xlink:href="#m4efe237ee4" y="187.82"/>
      </g>
     </g>
     <g id="text_5">
      <!-- 1 -->
      <defs>
       <path d="M 12.40625 8.296875 
L 28.515625 8.296875 
L 28.515625 63.921875 
L 10.984375 60.40625 
L 10.984375 69.390625 
L 28.421875 72.90625 
L 38.28125 72.90625 
L 38.28125 8.296875 
L 54.390625 8.296875 
L 54.390625 0 
L 12.40625 0 
z
" id="DejaVuSans-49"/>
      </defs>
      <g style="fill:#4d4d4d;" transform="translate(242.031875 199.456625)scale(0.088 -0.088)">
       <use xlink:href="#DejaVuSans-49"/>
      </g>
     </g>
    </g>
    <g id="xtick_6">
     <g id="line2d_11">
      <path clip-path="url(#pf399dee2a6)" d="M 158.731375 187.82 
L 158.731375 21.5 
" style="fill:none;stroke:#fafafa;"/>
     </g>
     <g id="line2d_12">
      <path d="M 158.731375 187.82 
" style="fill:none;stroke:#000000;stroke-width:1.5;"/>
      <defs>
       <path d="M 0 0 
L 0 1.375 
" id="me266ea3466" style="stroke:#000000;"/>
      </defs>
      <g>
       <use style="stroke:#000000;" x="158.731375" xlink:href="#me266ea3466" y="187.82"/>
      </g>
     </g>
    </g>
    <g id="xtick_7">
     <g id="line2d_13">
      <path clip-path="url(#pf399dee2a6)" d="M 183.331375 187.82 
L 183.331375 21.5 
" style="fill:none;stroke:#fafafa;"/>
     </g>
     <g id="line2d_14">
      <path d="M 183.331375 187.82 
" style="fill:none;stroke:#000000;stroke-width:1.5;"/>
      <g>
       <use style="stroke:#000000;" x="183.331375" xlink:href="#me266ea3466" y="187.82"/>
      </g>
     </g>
    </g>
    <g id="xtick_8">
     <g id="line2d_15">
      <path clip-path="url(#pf399dee2a6)" d="M 207.931375 187.82 
L 207.931375 21.5 
" style="fill:none;stroke:#fafafa;"/>
     </g>
     <g id="line2d_16">
      <path d="M 207.931375 187.82 
" style="fill:none;stroke:#000000;stroke-width:1.5;"/>
      <g>
       <use style="stroke:#000000;" x="207.931375" xlink:href="#me266ea3466" y="187.82"/>
      </g>
     </g>
    </g>
    <g id="xtick_9">
     <g id="line2d_17">
      <path clip-path="url(#pf399dee2a6)" d="M 232.531375 187.82 
L 232.531375 21.5 
" style="fill:none;stroke:#fafafa;"/>
     </g>
     <g id="line2d_18">
      <path d="M 232.531375 187.82 
" style="fill:none;stroke:#000000;stroke-width:1.5;"/>
      <g>
       <use style="stroke:#000000;" x="232.531375" xlink:href="#me266ea3466" y="187.82"/>
      </g>
     </g>
    </g>
   </g>
   <g id="matplotlib.axis_2">
    <g id="ytick_1">
     <g id="line2d_19">
      <path clip-path="url(#pf399dee2a6)" d="M 141.511375 173.96 
L 249.751375 173.96 
" style="fill:none;stroke:#e5e5e5;stroke-width:0.8;"/>
     </g>
     <g id="line2d_20">
      <path d="M 141.511375 173.96 
" style="fill:none;stroke:#000000;stroke-width:1.5;"/>
      <defs>
       <path d="M 0 0 
L -2.75 0 
" id="m9deca09d0b" style="stroke:#000000;"/>
      </defs>
      <g>
       <use style="stroke:#000000;" x="141.511375" xlink:href="#m9deca09d0b" y="173.96"/>
      </g>
     </g>
     <g id="text_6">
      <!-- Barrett's_Esophagus -->
      <defs>
       <path d="M 19.671875 34.8125 
L 19.671875 8.109375 
L 35.5 8.109375 
Q 43.453125 8.109375 47.28125 11.40625 
Q 51.125 14.703125 51.125 21.484375 
Q 51.125 28.328125 47.28125 31.5625 
Q 43.453125 34.8125 35.5 34.8125 
z
M 19.671875 64.796875 
L 19.671875 42.828125 
L 34.28125 42.828125 
Q 41.5 42.828125 45.03125 45.53125 
Q 48.578125 48.25 48.578125 53.8125 
Q 48.578125 59.328125 45.03125 62.0625 
Q 41.5 64.796875 34.28125 64.796875 
z
M 9.8125 72.90625 
L 35.015625 72.90625 
Q 46.296875 72.90625 52.390625 68.21875 
Q 58.5 63.53125 58.5 54.890625 
Q 58.5 48.1875 55.375 44.234375 
Q 52.25 40.28125 46.1875 39.3125 
Q 53.46875 37.75 57.5 32.78125 
Q 61.53125 27.828125 61.53125 20.40625 
Q 61.53125 10.640625 54.890625 5.3125 
Q 48.25 0 35.984375 0 
L 9.8125 0 
z
" id="DejaVuSans-66"/>
       <path d="M 34.28125 27.484375 
Q 23.390625 27.484375 19.1875 25 
Q 14.984375 22.515625 14.984375 16.5 
Q 14.984375 11.71875 18.140625 8.90625 
Q 21.296875 6.109375 26.703125 6.109375 
Q 34.1875 6.109375 38.703125 11.40625 
Q 43.21875 16.703125 43.21875 25.484375 
L 43.21875 27.484375 
z
M 52.203125 31.203125 
L 52.203125 0 
L 43.21875 0 
L 43.21875 8.296875 
Q 40.140625 3.328125 35.546875 0.953125 
Q 30.953125 -1.421875 24.3125 -1.421875 
Q 15.921875 -1.421875 10.953125 3.296875 
Q 6 8.015625 6 15.921875 
Q 6 25.140625 12.171875 29.828125 
Q 18.359375 34.515625 30.609375 34.515625 
L 43.21875 34.515625 
L 43.21875 35.40625 
Q 43.21875 41.609375 39.140625 45 
Q 35.0625 48.390625 27.6875 48.390625 
Q 23 48.390625 18.546875 47.265625 
Q 14.109375 46.140625 10.015625 43.890625 
L 10.015625 52.203125 
Q 14.9375 54.109375 19.578125 55.046875 
Q 24.21875 56 28.609375 56 
Q 40.484375 56 46.34375 49.84375 
Q 52.203125 43.703125 52.203125 31.203125 
z
" id="DejaVuSans-97"/>
       <path d="M 41.109375 46.296875 
Q 39.59375 47.171875 37.8125 47.578125 
Q 36.03125 48 33.890625 48 
Q 26.265625 48 22.1875 43.046875 
Q 18.109375 38.09375 18.109375 28.8125 
L 18.109375 0 
L 9.078125 0 
L 9.078125 54.6875 
L 18.109375 54.6875 
L 18.109375 46.1875 
Q 20.953125 51.171875 25.484375 53.578125 
Q 30.03125 56 36.53125 56 
Q 37.453125 56 38.578125 55.875 
Q 39.703125 55.765625 41.0625 55.515625 
z
" id="DejaVuSans-114"/>
       <path d="M 56.203125 29.59375 
L 56.203125 25.203125 
L 14.890625 25.203125 
Q 15.484375 15.921875 20.484375 11.0625 
Q 25.484375 6.203125 34.421875 6.203125 
Q 39.59375 6.203125 44.453125 7.46875 
Q 49.3125 8.734375 54.109375 11.28125 
L 54.109375 2.78125 
Q 49.265625 0.734375 44.1875 -0.34375 
Q 39.109375 -1.421875 33.890625 -1.421875 
Q 20.796875 -1.421875 13.15625 6.1875 
Q 5.515625 13.8125 5.515625 26.8125 
Q 5.515625 40.234375 12.765625 48.109375 
Q 20.015625 56 32.328125 56 
Q 43.359375 56 49.78125 48.890625 
Q 56.203125 41.796875 56.203125 29.59375 
z
M 47.21875 32.234375 
Q 47.125 39.59375 43.09375 43.984375 
Q 39.0625 48.390625 32.421875 48.390625 
Q 24.90625 48.390625 20.390625 44.140625 
Q 15.875 39.890625 15.1875 32.171875 
z
" id="DejaVuSans-101"/>
       <path d="M 18.3125 70.21875 
L 18.3125 54.6875 
L 36.8125 54.6875 
L 36.8125 47.703125 
L 18.3125 47.703125 
L 18.3125 18.015625 
Q 18.3125 11.328125 20.140625 9.421875 
Q 21.96875 7.515625 27.59375 7.515625 
L 36.8125 7.515625 
L 36.8125 0 
L 27.59375 0 
Q 17.1875 0 13.234375 3.875 
Q 9.28125 7.765625 9.28125 18.015625 
L 9.28125 47.703125 
L 2.6875 47.703125 
L 2.6875 54.6875 
L 9.28125 54.6875 
L 9.28125 70.21875 
z
" id="DejaVuSans-116"/>
       <path d="M 17.921875 72.90625 
L 17.921875 45.796875 
L 9.625 45.796875 
L 9.625 72.90625 
z
" id="DejaVuSans-39"/>
       <path d="M 44.28125 53.078125 
L 44.28125 44.578125 
Q 40.484375 46.53125 36.375 47.5 
Q 32.28125 48.484375 27.875 48.484375 
Q 21.1875 48.484375 17.84375 46.4375 
Q 14.5 44.390625 14.5 40.28125 
Q 14.5 37.15625 16.890625 35.375 
Q 19.28125 33.59375 26.515625 31.984375 
L 29.59375 31.296875 
Q 39.15625 29.25 43.1875 25.515625 
Q 47.21875 21.78125 47.21875 15.09375 
Q 47.21875 7.46875 41.1875 3.015625 
Q 35.15625 -1.421875 24.609375 -1.421875 
Q 20.21875 -1.421875 15.453125 -0.5625 
Q 10.6875 0.296875 5.421875 2 
L 5.421875 11.28125 
Q 10.40625 8.6875 15.234375 7.390625 
Q 20.0625 6.109375 24.8125 6.109375 
Q 31.15625 6.109375 34.5625 8.28125 
Q 37.984375 10.453125 37.984375 14.40625 
Q 37.984375 18.0625 35.515625 20.015625 
Q 33.0625 21.96875 24.703125 23.78125 
L 21.578125 24.515625 
Q 13.234375 26.265625 9.515625 29.90625 
Q 5.8125 33.546875 5.8125 39.890625 
Q 5.8125 47.609375 11.28125 51.796875 
Q 16.75 56 26.8125 56 
Q 31.78125 56 36.171875 55.265625 
Q 40.578125 54.546875 44.28125 53.078125 
z
" id="DejaVuSans-115"/>
       <path d="M 50.984375 -16.609375 
L 50.984375 -23.578125 
L -0.984375 -23.578125 
L -0.984375 -16.609375 
z
" id="DejaVuSans-95"/>
       <path d="M 9.8125 72.90625 
L 55.90625 72.90625 
L 55.90625 64.59375 
L 19.671875 64.59375 
L 19.671875 43.015625 
L 54.390625 43.015625 
L 54.390625 34.71875 
L 19.671875 34.71875 
L 19.671875 8.296875 
L 56.78125 8.296875 
L 56.78125 0 
L 9.8125 0 
z
" id="DejaVuSans-69"/>
       <path d="M 30.609375 48.390625 
Q 23.390625 48.390625 19.1875 42.75 
Q 14.984375 37.109375 14.984375 27.296875 
Q 14.984375 17.484375 19.15625 11.84375 
Q 23.34375 6.203125 30.609375 6.203125 
Q 37.796875 6.203125 41.984375 11.859375 
Q 46.1875 17.53125 46.1875 27.296875 
Q 46.1875 37.015625 41.984375 42.703125 
Q 37.796875 48.390625 30.609375 48.390625 
z
M 30.609375 56 
Q 42.328125 56 49.015625 48.375 
Q 55.71875 40.765625 55.71875 27.296875 
Q 55.71875 13.875 49.015625 6.21875 
Q 42.328125 -1.421875 30.609375 -1.421875 
Q 18.84375 -1.421875 12.171875 6.21875 
Q 5.515625 13.875 5.515625 27.296875 
Q 5.515625 40.765625 12.171875 48.375 
Q 18.84375 56 30.609375 56 
z
" id="DejaVuSans-111"/>
       <path d="M 18.109375 8.203125 
L 18.109375 -20.796875 
L 9.078125 -20.796875 
L 9.078125 54.6875 
L 18.109375 54.6875 
L 18.109375 46.390625 
Q 20.953125 51.265625 25.265625 53.625 
Q 29.59375 56 35.59375 56 
Q 45.5625 56 51.78125 48.09375 
Q 58.015625 40.1875 58.015625 27.296875 
Q 58.015625 14.40625 51.78125 6.484375 
Q 45.5625 -1.421875 35.59375 -1.421875 
Q 29.59375 -1.421875 25.265625 0.953125 
Q 20.953125 3.328125 18.109375 8.203125 
z
M 48.6875 27.296875 
Q 48.6875 37.203125 44.609375 42.84375 
Q 40.53125 48.484375 33.40625 48.484375 
Q 26.265625 48.484375 22.1875 42.84375 
Q 18.109375 37.203125 18.109375 27.296875 
Q 18.109375 17.390625 22.1875 11.75 
Q 26.265625 6.109375 33.40625 6.109375 
Q 40.53125 6.109375 44.609375 11.75 
Q 48.6875 17.390625 48.6875 27.296875 
z
" id="DejaVuSans-112"/>
       <path d="M 54.890625 33.015625 
L 54.890625 0 
L 45.90625 0 
L 45.90625 32.71875 
Q 45.90625 40.484375 42.875 44.328125 
Q 39.84375 48.1875 33.796875 48.1875 
Q 26.515625 48.1875 22.3125 43.546875 
Q 18.109375 38.921875 18.109375 30.90625 
L 18.109375 0 
L 9.078125 0 
L 9.078125 75.984375 
L 18.109375 75.984375 
L 18.109375 46.1875 
Q 21.34375 51.125 25.703125 53.5625 
Q 30.078125 56 35.796875 56 
Q 45.21875 56 50.046875 50.171875 
Q 54.890625 44.34375 54.890625 33.015625 
z
" id="DejaVuSans-104"/>
       <path d="M 45.40625 27.984375 
Q 45.40625 37.75 41.375 43.109375 
Q 37.359375 48.484375 30.078125 48.484375 
Q 22.859375 48.484375 18.828125 43.109375 
Q 14.796875 37.75 14.796875 27.984375 
Q 14.796875 18.265625 18.828125 12.890625 
Q 22.859375 7.515625 30.078125 7.515625 
Q 37.359375 7.515625 41.375 12.890625 
Q 45.40625 18.265625 45.40625 27.984375 
z
M 54.390625 6.78125 
Q 54.390625 -7.171875 48.1875 -13.984375 
Q 42 -20.796875 29.203125 -20.796875 
Q 24.46875 -20.796875 20.265625 -20.09375 
Q 16.0625 -19.390625 12.109375 -17.921875 
L 12.109375 -9.1875 
Q 16.0625 -11.328125 19.921875 -12.34375 
Q 23.78125 -13.375 27.78125 -13.375 
Q 36.625 -13.375 41.015625 -8.765625 
Q 45.40625 -4.15625 45.40625 5.171875 
L 45.40625 9.625 
Q 42.625 4.78125 38.28125 2.390625 
Q 33.9375 0 27.875 0 
Q 17.828125 0 11.671875 7.65625 
Q 5.515625 15.328125 5.515625 27.984375 
Q 5.515625 40.671875 11.671875 48.328125 
Q 17.828125 56 27.875 56 
Q 33.9375 56 38.28125 53.609375 
Q 42.625 51.21875 45.40625 46.390625 
L 45.40625 54.6875 
L 54.390625 54.6875 
z
" id="DejaVuSans-103"/>
       <path d="M 8.5 21.578125 
L 8.5 54.6875 
L 17.484375 54.6875 
L 17.484375 21.921875 
Q 17.484375 14.15625 20.5 10.265625 
Q 23.53125 6.390625 29.59375 6.390625 
Q 36.859375 6.390625 41.078125 11.03125 
Q 45.3125 15.671875 45.3125 23.6875 
L 45.3125 54.6875 
L 54.296875 54.6875 
L 54.296875 0 
L 45.3125 0 
L 45.3125 8.40625 
Q 42.046875 3.421875 37.71875 1 
Q 33.40625 -1.421875 27.6875 -1.421875 
Q 18.265625 -1.421875 13.375 4.4375 
Q 8.5 10.296875 8.5 21.578125 
z
M 31.109375 56 
z
" id="DejaVuSans-117"/>
      </defs>
      <g style="fill:#4d4d4d;" transform="translate(46.349 176.265875)scale(0.088 -0.088)">
       <use xlink:href="#DejaVuSans-66"/>
       <use x="68.603516" xlink:href="#DejaVuSans-97"/>
       <use x="129.882812" xlink:href="#DejaVuSans-114"/>
       <use x="170.980469" xlink:href="#DejaVuSans-114"/>
       <use x="212.0625" xlink:href="#DejaVuSans-101"/>
       <use x="273.585938" xlink:href="#DejaVuSans-116"/>
       <use x="312.794922" xlink:href="#DejaVuSans-116"/>
       <use x="352.003906" xlink:href="#DejaVuSans-39"/>
       <use x="379.494141" xlink:href="#DejaVuSans-115"/>
       <use x="431.59375" xlink:href="#DejaVuSans-95"/>
       <use x="481.59375" xlink:href="#DejaVuSans-69"/>
       <use x="544.777344" xlink:href="#DejaVuSans-115"/>
       <use x="596.876953" xlink:href="#DejaVuSans-111"/>
       <use x="658.058594" xlink:href="#DejaVuSans-112"/>
       <use x="721.535156" xlink:href="#DejaVuSans-104"/>
       <use x="784.914062" xlink:href="#DejaVuSans-97"/>
       <use x="846.193359" xlink:href="#DejaVuSans-103"/>
       <use x="909.669922" xlink:href="#DejaVuSans-117"/>
       <use x="973.048828" xlink:href="#DejaVuSans-115"/>
      </g>
     </g>
    </g>
    <g id="ytick_2">
     <g id="line2d_21">
      <path clip-path="url(#pf399dee2a6)" d="M 141.511375 150.86 
L 249.751375 150.86 
" style="fill:none;stroke:#e5e5e5;stroke-width:0.8;"/>
     </g>
     <g id="line2d_22">
      <path d="M 141.511375 150.86 
" style="fill:none;stroke:#000000;stroke-width:1.5;"/>
      <g>
       <use style="stroke:#000000;" x="141.511375" xlink:href="#m9deca09d0b" y="150.86"/>
      </g>
     </g>
     <g id="text_7">
      <!-- Esophageal_Adenocarcinoma -->
      <defs>
       <path d="M 9.421875 75.984375 
L 18.40625 75.984375 
L 18.40625 0 
L 9.421875 0 
z
" id="DejaVuSans-108"/>
       <path d="M 34.1875 63.1875 
L 20.796875 26.90625 
L 47.609375 26.90625 
z
M 28.609375 72.90625 
L 39.796875 72.90625 
L 67.578125 0 
L 57.328125 0 
L 50.6875 18.703125 
L 17.828125 18.703125 
L 11.1875 0 
L 0.78125 0 
z
" id="DejaVuSans-65"/>
       <path d="M 45.40625 46.390625 
L 45.40625 75.984375 
L 54.390625 75.984375 
L 54.390625 0 
L 45.40625 0 
L 45.40625 8.203125 
Q 42.578125 3.328125 38.25 0.953125 
Q 33.9375 -1.421875 27.875 -1.421875 
Q 17.96875 -1.421875 11.734375 6.484375 
Q 5.515625 14.40625 5.515625 27.296875 
Q 5.515625 40.1875 11.734375 48.09375 
Q 17.96875 56 27.875 56 
Q 33.9375 56 38.25 53.625 
Q 42.578125 51.265625 45.40625 46.390625 
z
M 14.796875 27.296875 
Q 14.796875 17.390625 18.875 11.75 
Q 22.953125 6.109375 30.078125 6.109375 
Q 37.203125 6.109375 41.296875 11.75 
Q 45.40625 17.390625 45.40625 27.296875 
Q 45.40625 37.203125 41.296875 42.84375 
Q 37.203125 48.484375 30.078125 48.484375 
Q 22.953125 48.484375 18.875 42.84375 
Q 14.796875 37.203125 14.796875 27.296875 
z
" id="DejaVuSans-100"/>
       <path d="M 54.890625 33.015625 
L 54.890625 0 
L 45.90625 0 
L 45.90625 32.71875 
Q 45.90625 40.484375 42.875 44.328125 
Q 39.84375 48.1875 33.796875 48.1875 
Q 26.515625 48.1875 22.3125 43.546875 
Q 18.109375 38.921875 18.109375 30.90625 
L 18.109375 0 
L 9.078125 0 
L 9.078125 54.6875 
L 18.109375 54.6875 
L 18.109375 46.1875 
Q 21.34375 51.125 25.703125 53.5625 
Q 30.078125 56 35.796875 56 
Q 45.21875 56 50.046875 50.171875 
Q 54.890625 44.34375 54.890625 33.015625 
z
" id="DejaVuSans-110"/>
       <path d="M 48.78125 52.59375 
L 48.78125 44.1875 
Q 44.96875 46.296875 41.140625 47.34375 
Q 37.3125 48.390625 33.40625 48.390625 
Q 24.65625 48.390625 19.8125 42.84375 
Q 14.984375 37.3125 14.984375 27.296875 
Q 14.984375 17.28125 19.8125 11.734375 
Q 24.65625 6.203125 33.40625 6.203125 
Q 37.3125 6.203125 41.140625 7.25 
Q 44.96875 8.296875 48.78125 10.40625 
L 48.78125 2.09375 
Q 45.015625 0.34375 40.984375 -0.53125 
Q 36.96875 -1.421875 32.421875 -1.421875 
Q 20.0625 -1.421875 12.78125 6.34375 
Q 5.515625 14.109375 5.515625 27.296875 
Q 5.515625 40.671875 12.859375 48.328125 
Q 20.21875 56 33.015625 56 
Q 37.15625 56 41.109375 55.140625 
Q 45.0625 54.296875 48.78125 52.59375 
z
" id="DejaVuSans-99"/>
       <path d="M 9.421875 54.6875 
L 18.40625 54.6875 
L 18.40625 0 
L 9.421875 0 
z
M 9.421875 75.984375 
L 18.40625 75.984375 
L 18.40625 64.59375 
L 9.421875 64.59375 
z
" id="DejaVuSans-105"/>
       <path d="M 52 44.1875 
Q 55.375 50.25 60.0625 53.125 
Q 64.75 56 71.09375 56 
Q 79.640625 56 84.28125 50.015625 
Q 88.921875 44.046875 88.921875 33.015625 
L 88.921875 0 
L 79.890625 0 
L 79.890625 32.71875 
Q 79.890625 40.578125 77.09375 44.375 
Q 74.3125 48.1875 68.609375 48.1875 
Q 61.625 48.1875 57.5625 43.546875 
Q 53.515625 38.921875 53.515625 30.90625 
L 53.515625 0 
L 44.484375 0 
L 44.484375 32.71875 
Q 44.484375 40.625 41.703125 44.40625 
Q 38.921875 48.1875 33.109375 48.1875 
Q 26.21875 48.1875 22.15625 43.53125 
Q 18.109375 38.875 18.109375 30.90625 
L 18.109375 0 
L 9.078125 0 
L 9.078125 54.6875 
L 18.109375 54.6875 
L 18.109375 46.1875 
Q 21.1875 51.21875 25.484375 53.609375 
Q 29.78125 56 35.6875 56 
Q 41.65625 56 45.828125 52.96875 
Q 50 49.953125 52 44.1875 
z
" id="DejaVuSans-109"/>
      </defs>
      <g style="fill:#4d4d4d;" transform="translate(7.2 153.165875)scale(0.088 -0.088)">
       <use xlink:href="#DejaVuSans-69"/>
       <use x="63.183594" xlink:href="#DejaVuSans-115"/>
       <use x="115.283203" xlink:href="#DejaVuSans-111"/>
       <use x="176.464844" xlink:href="#DejaVuSans-112"/>
       <use x="239.941406" xlink:href="#DejaVuSans-104"/>
       <use x="303.320312" xlink:href="#DejaVuSans-97"/>
       <use x="364.599609" xlink:href="#DejaVuSans-103"/>
       <use x="428.076172" xlink:href="#DejaVuSans-101"/>
       <use x="489.599609" xlink:href="#DejaVuSans-97"/>
       <use x="550.878906" xlink:href="#DejaVuSans-108"/>
       <use x="578.662109" xlink:href="#DejaVuSans-95"/>
       <use x="628.662109" xlink:href="#DejaVuSans-65"/>
       <use x="697.054688" xlink:href="#DejaVuSans-100"/>
       <use x="760.53125" xlink:href="#DejaVuSans-101"/>
       <use x="822.054688" xlink:href="#DejaVuSans-110"/>
       <use x="885.433594" xlink:href="#DejaVuSans-111"/>
       <use x="946.615234" xlink:href="#DejaVuSans-99"/>
       <use x="1001.595703" xlink:href="#DejaVuSans-97"/>
       <use x="1062.875" xlink:href="#DejaVuSans-114"/>
       <use x="1103.957031" xlink:href="#DejaVuSans-99"/>
       <use x="1158.9375" xlink:href="#DejaVuSans-105"/>
       <use x="1186.720703" xlink:href="#DejaVuSans-110"/>
       <use x="1250.099609" xlink:href="#DejaVuSans-111"/>
       <use x="1311.28125" xlink:href="#DejaVuSans-109"/>
       <use x="1408.693359" xlink:href="#DejaVuSans-97"/>
      </g>
     </g>
    </g>
    <g id="ytick_3">
     <g id="line2d_23">
      <path clip-path="url(#pf399dee2a6)" d="M 141.511375 127.76 
L 249.751375 127.76 
" style="fill:none;stroke:#e5e5e5;stroke-width:0.8;"/>
     </g>
     <g id="line2d_24">
      <path d="M 141.511375 127.76 
" style="fill:none;stroke:#000000;stroke-width:1.5;"/>
      <g>
       <use style="stroke:#000000;" x="141.511375" xlink:href="#m9deca09d0b" y="127.76"/>
      </g>
     </g>
     <g id="text_8">
      <!-- Normal -->
      <defs>
       <path d="M 9.8125 72.90625 
L 23.09375 72.90625 
L 55.421875 11.921875 
L 55.421875 72.90625 
L 64.984375 72.90625 
L 64.984375 0 
L 51.703125 0 
L 19.390625 60.984375 
L 19.390625 0 
L 9.8125 0 
z
" id="DejaVuSans-78"/>
      </defs>
      <g style="fill:#4d4d4d;" transform="translate(104.567875 130.18825)scale(0.088 -0.088)">
       <use xlink:href="#DejaVuSans-78"/>
       <use x="74.804688" xlink:href="#DejaVuSans-111"/>
       <use x="135.986328" xlink:href="#DejaVuSans-114"/>
       <use x="177.083984" xlink:href="#DejaVuSans-109"/>
       <use x="274.496094" xlink:href="#DejaVuSans-97"/>
       <use x="335.775391" xlink:href="#DejaVuSans-108"/>
      </g>
     </g>
    </g>
    <g id="ytick_4">
     <g id="line2d_25">
      <path clip-path="url(#pf399dee2a6)" d="M 141.511375 104.66 
L 249.751375 104.66 
" style="fill:none;stroke:#e5e5e5;stroke-width:0.8;"/>
     </g>
     <g id="line2d_26">
      <path d="M 141.511375 104.66 
" style="fill:none;stroke:#000000;stroke-width:1.5;"/>
      <g>
       <use style="stroke:#000000;" x="141.511375" xlink:href="#m9deca09d0b" y="104.66"/>
      </g>
     </g>
     <g id="text_9">
      <!-- Reflux_Esophagitis -->
      <defs>
       <path d="M 44.390625 34.1875 
Q 47.5625 33.109375 50.5625 29.59375 
Q 53.5625 26.078125 56.59375 19.921875 
L 66.609375 0 
L 56 0 
L 46.6875 18.703125 
Q 43.0625 26.03125 39.671875 28.421875 
Q 36.28125 30.8125 30.421875 30.8125 
L 19.671875 30.8125 
L 19.671875 0 
L 9.8125 0 
L 9.8125 72.90625 
L 32.078125 72.90625 
Q 44.578125 72.90625 50.734375 67.671875 
Q 56.890625 62.453125 56.890625 51.90625 
Q 56.890625 45.015625 53.6875 40.46875 
Q 50.484375 35.9375 44.390625 34.1875 
z
M 19.671875 64.796875 
L 19.671875 38.921875 
L 32.078125 38.921875 
Q 39.203125 38.921875 42.84375 42.21875 
Q 46.484375 45.515625 46.484375 51.90625 
Q 46.484375 58.296875 42.84375 61.546875 
Q 39.203125 64.796875 32.078125 64.796875 
z
" id="DejaVuSans-82"/>
       <path d="M 37.109375 75.984375 
L 37.109375 68.5 
L 28.515625 68.5 
Q 23.6875 68.5 21.796875 66.546875 
Q 19.921875 64.59375 19.921875 59.515625 
L 19.921875 54.6875 
L 34.71875 54.6875 
L 34.71875 47.703125 
L 19.921875 47.703125 
L 19.921875 0 
L 10.890625 0 
L 10.890625 47.703125 
L 2.296875 47.703125 
L 2.296875 54.6875 
L 10.890625 54.6875 
L 10.890625 58.5 
Q 10.890625 67.625 15.140625 71.796875 
Q 19.390625 75.984375 28.609375 75.984375 
z
" id="DejaVuSans-102"/>
       <path d="M 54.890625 54.6875 
L 35.109375 28.078125 
L 55.90625 0 
L 45.3125 0 
L 29.390625 21.484375 
L 13.484375 0 
L 2.875 0 
L 24.125 28.609375 
L 4.6875 54.6875 
L 15.28125 54.6875 
L 29.78125 35.203125 
L 44.28125 54.6875 
z
" id="DejaVuSans-120"/>
      </defs>
      <g style="fill:#4d4d4d;" transform="translate(53.7135 106.965875)scale(0.088 -0.088)">
       <use xlink:href="#DejaVuSans-82"/>
       <use x="69.419922" xlink:href="#DejaVuSans-101"/>
       <use x="130.943359" xlink:href="#DejaVuSans-102"/>
       <use x="166.148438" xlink:href="#DejaVuSans-108"/>
       <use x="193.931641" xlink:href="#DejaVuSans-117"/>
       <use x="257.310547" xlink:href="#DejaVuSans-120"/>
       <use x="316.490234" xlink:href="#DejaVuSans-95"/>
       <use x="366.490234" xlink:href="#DejaVuSans-69"/>
       <use x="429.673828" xlink:href="#DejaVuSans-115"/>
       <use x="481.773438" xlink:href="#DejaVuSans-111"/>
       <use x="542.955078" xlink:href="#DejaVuSans-112"/>
       <use x="606.431641" xlink:href="#DejaVuSans-104"/>
       <use x="669.810547" xlink:href="#DejaVuSans-97"/>
       <use x="731.089844" xlink:href="#DejaVuSans-103"/>
       <use x="794.566406" xlink:href="#DejaVuSans-105"/>
       <use x="822.349609" xlink:href="#DejaVuSans-116"/>
       <use x="861.558594" xlink:href="#DejaVuSans-105"/>
       <use x="889.341797" xlink:href="#DejaVuSans-115"/>
      </g>
     </g>
    </g>
    <g id="ytick_5">
     <g id="line2d_27">
      <path clip-path="url(#pf399dee2a6)" d="M 141.511375 81.56 
L 249.751375 81.56 
" style="fill:none;stroke:#e5e5e5;stroke-width:0.8;"/>
     </g>
     <g id="line2d_28">
      <path d="M 141.511375 81.56 
" style="fill:none;stroke:#000000;stroke-width:1.5;"/>
      <g>
       <use style="stroke:#000000;" x="141.511375" xlink:href="#m9deca09d0b" y="81.56"/>
      </g>
     </g>
     <g id="text_10">
      <!-- accuracy -->
      <defs>
       <path d="M 32.171875 -5.078125 
Q 28.375 -14.84375 24.75 -17.8125 
Q 21.140625 -20.796875 15.09375 -20.796875 
L 7.90625 -20.796875 
L 7.90625 -13.28125 
L 13.1875 -13.28125 
Q 16.890625 -13.28125 18.9375 -11.515625 
Q 21 -9.765625 23.484375 -3.21875 
L 25.09375 0.875 
L 2.984375 54.6875 
L 12.5 54.6875 
L 29.59375 11.921875 
L 46.6875 54.6875 
L 56.203125 54.6875 
z
" id="DejaVuSans-121"/>
      </defs>
      <g style="fill:#4d4d4d;" transform="translate(96.856875 83.98825)scale(0.088 -0.088)">
       <use xlink:href="#DejaVuSans-97"/>
       <use x="61.279297" xlink:href="#DejaVuSans-99"/>
       <use x="116.259766" xlink:href="#DejaVuSans-99"/>
       <use x="171.240234" xlink:href="#DejaVuSans-117"/>
       <use x="234.619141" xlink:href="#DejaVuSans-114"/>
       <use x="275.732422" xlink:href="#DejaVuSans-97"/>
       <use x="337.011719" xlink:href="#DejaVuSans-99"/>
       <use x="391.992188" xlink:href="#DejaVuSans-121"/>
      </g>
     </g>
    </g>
    <g id="ytick_6">
     <g id="line2d_29">
      <path clip-path="url(#pf399dee2a6)" d="M 141.511375 58.46 
L 249.751375 58.46 
" style="fill:none;stroke:#e5e5e5;stroke-width:0.8;"/>
     </g>
     <g id="line2d_30">
      <path d="M 141.511375 58.46 
" style="fill:none;stroke:#000000;stroke-width:1.5;"/>
      <g>
       <use style="stroke:#000000;" x="141.511375" xlink:href="#m9deca09d0b" y="58.46"/>
      </g>
     </g>
     <g id="text_11">
      <!-- macro avg -->
      <defs>
       <path id="DejaVuSans-32"/>
       <path d="M 2.984375 54.6875 
L 12.5 54.6875 
L 29.59375 8.796875 
L 46.6875 54.6875 
L 56.203125 54.6875 
L 35.6875 0 
L 23.484375 0 
z
" id="DejaVuSans-118"/>
      </defs>
      <g style="fill:#4d4d4d;" transform="translate(89.77425 60.88825)scale(0.088 -0.088)">
       <use xlink:href="#DejaVuSans-109"/>
       <use x="97.412109" xlink:href="#DejaVuSans-97"/>
       <use x="158.691406" xlink:href="#DejaVuSans-99"/>
       <use x="213.671875" xlink:href="#DejaVuSans-114"/>
       <use x="254.753906" xlink:href="#DejaVuSans-111"/>
       <use x="315.935547" xlink:href="#DejaVuSans-32"/>
       <use x="347.722656" xlink:href="#DejaVuSans-97"/>
       <use x="409.001953" xlink:href="#DejaVuSans-118"/>
       <use x="468.181641" xlink:href="#DejaVuSans-103"/>
      </g>
     </g>
    </g>
    <g id="ytick_7">
     <g id="line2d_31">
      <path clip-path="url(#pf399dee2a6)" d="M 141.511375 35.36 
L 249.751375 35.36 
" style="fill:none;stroke:#e5e5e5;stroke-width:0.8;"/>
     </g>
     <g id="line2d_32">
      <path d="M 141.511375 35.36 
" style="fill:none;stroke:#000000;stroke-width:1.5;"/>
      <g>
       <use style="stroke:#000000;" x="141.511375" xlink:href="#m9deca09d0b" y="35.36"/>
      </g>
     </g>
     <g id="text_12">
      <!-- weighted avg -->
      <defs>
       <path d="M 4.203125 54.6875 
L 13.1875 54.6875 
L 24.421875 12.015625 
L 35.59375 54.6875 
L 46.1875 54.6875 
L 57.421875 12.015625 
L 68.609375 54.6875 
L 77.59375 54.6875 
L 63.28125 0 
L 52.6875 0 
L 40.921875 44.828125 
L 29.109375 0 
L 18.5 0 
z
" id="DejaVuSans-119"/>
      </defs>
      <g style="fill:#4d4d4d;" transform="translate(76.905625 37.78825)scale(0.088 -0.088)">
       <use xlink:href="#DejaVuSans-119"/>
       <use x="81.787109" xlink:href="#DejaVuSans-101"/>
       <use x="143.310547" xlink:href="#DejaVuSans-105"/>
       <use x="171.09375" xlink:href="#DejaVuSans-103"/>
       <use x="234.570312" xlink:href="#DejaVuSans-104"/>
       <use x="297.949219" xlink:href="#DejaVuSans-116"/>
       <use x="337.158203" xlink:href="#DejaVuSans-101"/>
       <use x="398.681641" xlink:href="#DejaVuSans-100"/>
       <use x="462.158203" xlink:href="#DejaVuSans-32"/>
       <use x="493.945312" xlink:href="#DejaVuSans-97"/>
       <use x="555.224609" xlink:href="#DejaVuSans-118"/>
       <use x="614.404297" xlink:href="#DejaVuSans-103"/>
      </g>
     </g>
    </g>
   </g>
   <g id="PathCollection_1">
    <path clip-path="url(#pf399dee2a6)" d="M 197.599375 175.732454 
C 198.069435 175.732454 198.520306 175.545697 198.852689 175.213314 
C 199.185072 174.880931 199.371829 174.43006 199.371829 173.96 
C 199.371829 173.48994 199.185072 173.039069 198.852689 172.706686 
C 198.520306 172.374303 198.069435 172.187546 197.599375 172.187546 
C 197.129315 172.187546 196.678444 172.374303 196.346061 172.706686 
C 196.013678 173.039069 195.826921 173.48994 195.826921 173.96 
C 195.826921 174.43006 196.013678 174.880931 196.346061 175.213314 
C 196.678444 175.545697 197.129315 175.732454 197.599375 175.732454 
z
" style="fill:#db5f57;stroke:#000000;stroke-width:0.886227;"/>
    <path clip-path="url(#pf399dee2a6)" d="M 212.359375 152.632454 
C 212.829435 152.632454 213.280306 152.445697 213.612689 152.113314 
C 213.945072 151.780931 214.131829 151.33006 214.131829 150.86 
C 214.131829 150.38994 213.945072 149.939069 213.612689 149.606686 
C 213.280306 149.274303 212.829435 149.087546 212.359375 149.087546 
C 211.889315 149.087546 211.438444 149.274303 211.106061 149.606686 
C 210.773678 149.939069 210.586921 150.38994 210.586921 150.86 
C 210.586921 151.33006 210.773678 151.780931 211.106061 152.113314 
C 211.438444 152.445697 211.889315 152.632454 212.359375 152.632454 
z
" style="fill:#dbd057;stroke:#000000;stroke-width:0.886227;"/>
    <path clip-path="url(#pf399dee2a6)" d="M 231.055375 129.532454 
C 231.525435 129.532454 231.976306 129.345697 232.308689 129.013314 
C 232.641072 128.680931 232.827829 128.23006 232.827829 127.76 
C 232.827829 127.28994 232.641072 126.839069 232.308689 126.506686 
C 231.976306 126.174303 231.525435 125.987546 231.055375 125.987546 
C 230.585315 125.987546 230.134444 126.174303 229.802061 126.506686 
C 229.469678 126.839069 229.282921 127.28994 229.282921 127.76 
C 229.282921 128.23006 229.469678 128.680931 229.802061 129.013314 
C 230.134444 129.345697 230.585315 129.532454 231.055375 129.532454 
z
" style="fill:#75db57;stroke:#000000;stroke-width:0.886227;"/>
    <path clip-path="url(#pf399dee2a6)" d="M 225.151375 106.432454 
C 225.621435 106.432454 226.072306 106.245697 226.404689 105.913314 
C 226.737072 105.580931 226.923829 105.13006 226.923829 104.66 
C 226.923829 104.18994 226.737072 103.739069 226.404689 103.406686 
C 226.072306 103.074303 225.621435 102.887546 225.151375 102.887546 
C 224.681315 102.887546 224.230444 103.074303 223.898061 103.406686 
C 223.565678 103.739069 223.378921 104.18994 223.378921 104.66 
C 223.378921 105.13006 223.565678 105.580931 223.898061 105.913314 
C 224.230444 106.245697 224.681315 106.432454 225.151375 106.432454 
z
" style="fill:#57dbaa;stroke:#000000;stroke-width:0.886227;"/>
    <path clip-path="url(#pf399dee2a6)" d="M 218.263375 83.332454 
C 218.733435 83.332454 219.184306 83.145697 219.516689 82.813314 
C 219.849072 82.480931 220.035829 82.03006 220.035829 81.56 
C 220.035829 81.08994 219.849072 80.639069 219.516689 80.306686 
C 219.184306 79.974303 218.733435 79.787546 218.263375 79.787546 
C 217.793315 79.787546 217.342444 79.974303 217.010061 80.306686 
C 216.677678 80.639069 216.490921 81.08994 216.490921 81.56 
C 216.490921 82.03006 216.677678 82.480931 217.010061 82.813314 
C 217.342444 83.145697 217.793315 83.332454 218.263375 83.332454 
z
" style="fill:#579bdb;stroke:#000000;stroke-width:0.886227;"/>
    <path clip-path="url(#pf399dee2a6)" d="M 216.295375 60.232454 
C 216.765435 60.232454 217.216306 60.045697 217.548689 59.713314 
C 217.881072 59.380931 218.067829 58.93006 218.067829 58.46 
C 218.067829 57.98994 217.881072 57.539069 217.548689 57.206686 
C 217.216306 56.874303 216.765435 56.687546 216.295375 56.687546 
C 215.825315 56.687546 215.374444 56.874303 215.042061 57.206686 
C 214.709678 57.539069 214.522921 57.98994 214.522921 58.46 
C 214.522921 58.93006 214.709678 59.380931 215.042061 59.713314 
C 215.374444 60.045697 215.825315 60.232454 216.295375 60.232454 
z
" style="fill:#8557db;stroke:#000000;stroke-width:0.886227;"/>
    <path clip-path="url(#pf399dee2a6)" d="M 216.295375 37.132454 
C 216.765435 37.132454 217.216306 36.945697 217.548689 36.613314 
C 217.881072 36.280931 218.067829 35.83006 218.067829 35.36 
C 218.067829 34.88994 217.881072 34.439069 217.548689 34.106686 
C 217.216306 33.774303 216.765435 33.587546 216.295375 33.587546 
C 215.825315 33.587546 215.374444 33.774303 215.042061 34.106686 
C 214.709678 34.439069 214.522921 34.88994 214.522921 35.36 
C 214.522921 35.83006 214.709678 36.280931 215.042061 36.613314 
C 215.374444 36.945697 215.825315 37.132454 216.295375 37.132454 
z
" style="fill:#db57c0;stroke:#000000;stroke-width:0.886227;"/>
   </g>
   <g id="patch_3">
    <path d="M 141.511375 21.5 
L 249.751375 21.5 
L 249.751375 7.2 
L 141.511375 7.2 
z
" style="fill:#cccccc;stroke:#7f7f7f;stroke-linejoin:miter;"/>
   </g>
   <g id="text_13">
    <!-- f1-score -->
    <defs>
     <path d="M 4.890625 31.390625 
L 31.203125 31.390625 
L 31.203125 23.390625 
L 4.890625 23.390625 
z
" id="DejaVuSans-45"/>
    </defs>
    <g style="fill:#1a1a1a;" transform="translate(177.777 16.77825)scale(0.088 -0.088)">
     <use xlink:href="#DejaVuSans-102"/>
     <use x="35.205078" xlink:href="#DejaVuSans-49"/>
     <use x="98.828125" xlink:href="#DejaVuSans-45"/>
     <use x="134.912109" xlink:href="#DejaVuSans-115"/>
     <use x="187.011719" xlink:href="#DejaVuSans-99"/>
     <use x="241.992188" xlink:href="#DejaVuSans-111"/>
     <use x="303.173828" xlink:href="#DejaVuSans-114"/>
     <use x="344.255859" xlink:href="#DejaVuSans-101"/>
    </g>
   </g>
  </g>
  <g id="axes_2">
   <g id="patch_4">
    <path d="M 254.791375 187.82 
L 363.031375 187.82 
L 363.031375 21.5 
L 254.791375 21.5 
z
" style="fill:#ffffff;stroke:#7f7f7f;stroke-linejoin:miter;"/>
   </g>
   <g id="matplotlib.axis_3">
    <g id="xtick_10">
     <g id="line2d_33">
      <path clip-path="url(#p9fb16747a0)" d="M 259.711375 187.82 
L 259.711375 21.5 
" style="fill:none;stroke:#e5e5e5;stroke-linecap:square;stroke-width:0.8;"/>
     </g>
     <g id="line2d_34">
      <path d="M 259.711375 187.82 
" style="fill:none;stroke:#000000;stroke-linecap:square;stroke-width:1.5;"/>
      <g>
       <use style="stroke:#000000;" x="259.711375" xlink:href="#m4efe237ee4" y="187.82"/>
      </g>
     </g>
     <g id="text_14">
      <!-- 0 -->
      <g style="fill:#4d4d4d;" transform="translate(256.911875 199.456625)scale(0.088 -0.088)">
       <use xlink:href="#DejaVuSans-48"/>
      </g>
     </g>
    </g>
    <g id="xtick_11">
     <g id="line2d_35">
      <path clip-path="url(#p9fb16747a0)" d="M 284.311375 187.82 
L 284.311375 21.5 
" style="fill:none;stroke:#e5e5e5;stroke-linecap:square;stroke-width:0.8;"/>
     </g>
     <g id="line2d_36">
      <path d="M 284.311375 187.82 
" style="fill:none;stroke:#000000;stroke-linecap:square;stroke-width:1.5;"/>
      <g>
       <use style="stroke:#000000;" x="284.311375" xlink:href="#m4efe237ee4" y="187.82"/>
      </g>
     </g>
     <g id="text_15">
      <!-- 0.25 -->
      <g style="fill:#4d4d4d;" transform="translate(274.5145 199.456625)scale(0.088 -0.088)">
       <use xlink:href="#DejaVuSans-48"/>
       <use x="63.623047" xlink:href="#DejaVuSans-46"/>
       <use x="95.410156" xlink:href="#DejaVuSans-50"/>
       <use x="159.033203" xlink:href="#DejaVuSans-53"/>
      </g>
     </g>
    </g>
    <g id="xtick_12">
     <g id="line2d_37">
      <path clip-path="url(#p9fb16747a0)" d="M 308.911375 187.82 
L 308.911375 21.5 
" style="fill:none;stroke:#e5e5e5;stroke-linecap:square;stroke-width:0.8;"/>
     </g>
     <g id="line2d_38">
      <path d="M 308.911375 187.82 
" style="fill:none;stroke:#000000;stroke-linecap:square;stroke-width:1.5;"/>
      <g>
       <use style="stroke:#000000;" x="308.911375" xlink:href="#m4efe237ee4" y="187.82"/>
      </g>
     </g>
     <g id="text_16">
      <!-- 0.50 -->
      <g style="fill:#4d4d4d;" transform="translate(299.1145 199.456625)scale(0.088 -0.088)">
       <use xlink:href="#DejaVuSans-48"/>
       <use x="63.623047" xlink:href="#DejaVuSans-46"/>
       <use x="95.410156" xlink:href="#DejaVuSans-53"/>
       <use x="159.033203" xlink:href="#DejaVuSans-48"/>
      </g>
     </g>
    </g>
    <g id="xtick_13">
     <g id="line2d_39">
      <path clip-path="url(#p9fb16747a0)" d="M 333.511375 187.82 
L 333.511375 21.5 
" style="fill:none;stroke:#e5e5e5;stroke-linecap:square;stroke-width:0.8;"/>
     </g>
     <g id="line2d_40">
      <path d="M 333.511375 187.82 
" style="fill:none;stroke:#000000;stroke-linecap:square;stroke-width:1.5;"/>
      <g>
       <use style="stroke:#000000;" x="333.511375" xlink:href="#m4efe237ee4" y="187.82"/>
      </g>
     </g>
     <g id="text_17">
      <!-- 0.75 -->
      <g style="fill:#4d4d4d;" transform="translate(323.7145 199.456625)scale(0.088 -0.088)">
       <use xlink:href="#DejaVuSans-48"/>
       <use x="63.623047" xlink:href="#DejaVuSans-46"/>
       <use x="95.410156" xlink:href="#DejaVuSans-55"/>
       <use x="159.033203" xlink:href="#DejaVuSans-53"/>
      </g>
     </g>
    </g>
    <g id="xtick_14">
     <g id="line2d_41">
      <path clip-path="url(#p9fb16747a0)" d="M 358.111375 187.82 
L 358.111375 21.5 
" style="fill:none;stroke:#e5e5e5;stroke-linecap:square;stroke-width:0.8;"/>
     </g>
     <g id="line2d_42">
      <path d="M 358.111375 187.82 
" style="fill:none;stroke:#000000;stroke-linecap:square;stroke-width:1.5;"/>
      <g>
       <use style="stroke:#000000;" x="358.111375" xlink:href="#m4efe237ee4" y="187.82"/>
      </g>
     </g>
     <g id="text_18">
      <!-- 1 -->
      <g style="fill:#4d4d4d;" transform="translate(355.311875 199.456625)scale(0.088 -0.088)">
       <use xlink:href="#DejaVuSans-49"/>
      </g>
     </g>
    </g>
    <g id="xtick_15">
     <g id="line2d_43">
      <path clip-path="url(#p9fb16747a0)" d="M 272.011375 187.82 
L 272.011375 21.5 
" style="fill:none;stroke:#fafafa;stroke-linecap:square;"/>
     </g>
     <g id="line2d_44">
      <path d="M 272.011375 187.82 
" style="fill:none;stroke:#000000;stroke-linecap:square;stroke-width:1.5;"/>
      <g>
       <use style="stroke:#000000;" x="272.011375" xlink:href="#me266ea3466" y="187.82"/>
      </g>
     </g>
    </g>
    <g id="xtick_16">
     <g id="line2d_45">
      <path clip-path="url(#p9fb16747a0)" d="M 296.611375 187.82 
L 296.611375 21.5 
" style="fill:none;stroke:#fafafa;stroke-linecap:square;"/>
     </g>
     <g id="line2d_46">
      <path d="M 296.611375 187.82 
" style="fill:none;stroke:#000000;stroke-linecap:square;stroke-width:1.5;"/>
      <g>
       <use style="stroke:#000000;" x="296.611375" xlink:href="#me266ea3466" y="187.82"/>
      </g>
     </g>
    </g>
    <g id="xtick_17">
     <g id="line2d_47">
      <path clip-path="url(#p9fb16747a0)" d="M 321.211375 187.82 
L 321.211375 21.5 
" style="fill:none;stroke:#fafafa;stroke-linecap:square;"/>
     </g>
     <g id="line2d_48">
      <path d="M 321.211375 187.82 
" style="fill:none;stroke:#000000;stroke-linecap:square;stroke-width:1.5;"/>
      <g>
       <use style="stroke:#000000;" x="321.211375" xlink:href="#me266ea3466" y="187.82"/>
      </g>
     </g>
    </g>
    <g id="xtick_18">
     <g id="line2d_49">
      <path clip-path="url(#p9fb16747a0)" d="M 345.811375 187.82 
L 345.811375 21.5 
" style="fill:none;stroke:#fafafa;stroke-linecap:square;"/>
     </g>
     <g id="line2d_50">
      <path d="M 345.811375 187.82 
" style="fill:none;stroke:#000000;stroke-linecap:square;stroke-width:1.5;"/>
      <g>
       <use style="stroke:#000000;" x="345.811375" xlink:href="#me266ea3466" y="187.82"/>
      </g>
     </g>
    </g>
   </g>
   <g id="matplotlib.axis_4">
    <g id="ytick_8">
     <g id="line2d_51">
      <path clip-path="url(#p9fb16747a0)" d="M 254.791375 173.96 
L 363.031375 173.96 
" style="fill:none;stroke:#e5e5e5;stroke-linecap:square;stroke-width:0.8;"/>
     </g>
    </g>
    <g id="ytick_9">
     <g id="line2d_52">
      <path clip-path="url(#p9fb16747a0)" d="M 254.791375 150.86 
L 363.031375 150.86 
" style="fill:none;stroke:#e5e5e5;stroke-linecap:square;stroke-width:0.8;"/>
     </g>
    </g>
    <g id="ytick_10">
     <g id="line2d_53">
      <path clip-path="url(#p9fb16747a0)" d="M 254.791375 127.76 
L 363.031375 127.76 
" style="fill:none;stroke:#e5e5e5;stroke-linecap:square;stroke-width:0.8;"/>
     </g>
    </g>
    <g id="ytick_11">
     <g id="line2d_54">
      <path clip-path="url(#p9fb16747a0)" d="M 254.791375 104.66 
L 363.031375 104.66 
" style="fill:none;stroke:#e5e5e5;stroke-linecap:square;stroke-width:0.8;"/>
     </g>
    </g>
    <g id="ytick_12">
     <g id="line2d_55">
      <path clip-path="url(#p9fb16747a0)" d="M 254.791375 81.56 
L 363.031375 81.56 
" style="fill:none;stroke:#e5e5e5;stroke-linecap:square;stroke-width:0.8;"/>
     </g>
    </g>
    <g id="ytick_13">
     <g id="line2d_56">
      <path clip-path="url(#p9fb16747a0)" d="M 254.791375 58.46 
L 363.031375 58.46 
" style="fill:none;stroke:#e5e5e5;stroke-linecap:square;stroke-width:0.8;"/>
     </g>
    </g>
    <g id="ytick_14">
     <g id="line2d_57">
      <path clip-path="url(#p9fb16747a0)" d="M 254.791375 35.36 
L 363.031375 35.36 
" style="fill:none;stroke:#e5e5e5;stroke-linecap:square;stroke-width:0.8;"/>
     </g>
    </g>
   </g>
   <g id="PathCollection_2">
    <path clip-path="url(#p9fb16747a0)" d="M 321.703375 175.732454 
C 322.173435 175.732454 322.624306 175.545697 322.956689 175.213314 
C 323.289072 174.880931 323.475829 174.43006 323.475829 173.96 
C 323.475829 173.48994 323.289072 173.039069 322.956689 172.706686 
C 322.624306 172.374303 322.173435 172.187546 321.703375 172.187546 
C 321.233315 172.187546 320.782444 172.374303 320.450061 172.706686 
C 320.117678 173.039069 319.930921 173.48994 319.930921 173.96 
C 319.930921 174.43006 320.117678 174.880931 320.450061 175.213314 
C 320.782444 175.545697 321.233315 175.732454 321.703375 175.732454 
z
" style="fill:#db5f57;stroke:#000000;stroke-width:0.886227;"/>
    <path clip-path="url(#p9fb16747a0)" d="M 328.591375 152.632454 
C 329.061435 152.632454 329.512306 152.445697 329.844689 152.113314 
C 330.177072 151.780931 330.363829 151.33006 330.363829 150.86 
C 330.363829 150.38994 330.177072 149.939069 329.844689 149.606686 
C 329.512306 149.274303 329.061435 149.087546 328.591375 149.087546 
C 328.121315 149.087546 327.670444 149.274303 327.338061 149.606686 
C 327.005678 149.939069 326.818921 150.38994 326.818921 150.86 
C 326.818921 151.33006 327.005678 151.780931 327.338061 152.113314 
C 327.670444 152.445697 328.121315 152.632454 328.591375 152.632454 
z
" style="fill:#dbd057;stroke:#000000;stroke-width:0.886227;"/>
    <path clip-path="url(#p9fb16747a0)" d="M 338.431375 129.532454 
C 338.901435 129.532454 339.352306 129.345697 339.684689 129.013314 
C 340.017072 128.680931 340.203829 128.23006 340.203829 127.76 
C 340.203829 127.28994 340.017072 126.839069 339.684689 126.506686 
C 339.352306 126.174303 338.901435 125.987546 338.431375 125.987546 
C 337.961315 125.987546 337.510444 126.174303 337.178061 126.506686 
C 336.845678 126.839069 336.658921 127.28994 336.658921 127.76 
C 336.658921 128.23006 336.845678 128.680931 337.178061 129.013314 
C 337.510444 129.345697 337.961315 129.532454 338.431375 129.532454 
z
" style="fill:#75db57;stroke:#000000;stroke-width:0.886227;"/>
    <path clip-path="url(#p9fb16747a0)" d="M 332.527375 106.432454 
C 332.997435 106.432454 333.448306 106.245697 333.780689 105.913314 
C 334.113072 105.580931 334.299829 105.13006 334.299829 104.66 
C 334.299829 104.18994 334.113072 103.739069 333.780689 103.406686 
C 333.448306 103.074303 332.997435 102.887546 332.527375 102.887546 
C 332.057315 102.887546 331.606444 103.074303 331.274061 103.406686 
C 330.941678 103.739069 330.754921 104.18994 330.754921 104.66 
C 330.754921 105.13006 330.941678 105.580931 331.274061 105.913314 
C 331.606444 106.245697 332.057315 106.432454 332.527375 106.432454 
z
" style="fill:#57dbaa;stroke:#000000;stroke-width:0.886227;"/>
    <path clip-path="url(#p9fb16747a0)" d="M 331.543375 83.332454 
C 332.013435 83.332454 332.464306 83.145697 332.796689 82.813314 
C 333.129072 82.480931 333.315829 82.03006 333.315829 81.56 
C 333.315829 81.08994 333.129072 80.639069 332.796689 80.306686 
C 332.464306 79.974303 332.013435 79.787546 331.543375 79.787546 
C 331.073315 79.787546 330.622444 79.974303 330.290061 80.306686 
C 329.957678 80.639069 329.770921 81.08994 329.770921 81.56 
C 329.770921 82.03006 329.957678 82.480931 330.290061 82.813314 
C 330.622444 83.145697 331.073315 83.332454 331.543375 83.332454 
z
" style="fill:#579bdb;stroke:#000000;stroke-width:0.886227;"/>
    <path clip-path="url(#p9fb16747a0)" d="M 329.575375 60.232454 
C 330.045435 60.232454 330.496306 60.045697 330.828689 59.713314 
C 331.161072 59.380931 331.347829 58.93006 331.347829 58.46 
C 331.347829 57.98994 331.161072 57.539069 330.828689 57.206686 
C 330.496306 56.874303 330.045435 56.687546 329.575375 56.687546 
C 329.105315 56.687546 328.654444 56.874303 328.322061 57.206686 
C 327.989678 57.539069 327.802921 57.98994 327.802921 58.46 
C 327.802921 58.93006 327.989678 59.380931 328.322061 59.713314 
C 328.654444 60.045697 329.105315 60.232454 329.575375 60.232454 
z
" style="fill:#8557db;stroke:#000000;stroke-width:0.886227;"/>
    <path clip-path="url(#p9fb16747a0)" d="M 329.575375 37.132454 
C 330.045435 37.132454 330.496306 36.945697 330.828689 36.613314 
C 331.161072 36.280931 331.347829 35.83006 331.347829 35.36 
C 331.347829 34.88994 331.161072 34.439069 330.828689 34.106686 
C 330.496306 33.774303 330.045435 33.587546 329.575375 33.587546 
C 329.105315 33.587546 328.654444 33.774303 328.322061 34.106686 
C 327.989678 34.439069 327.802921 34.88994 327.802921 35.36 
C 327.802921 35.83006 327.989678 36.280931 328.322061 36.613314 
C 328.654444 36.945697 329.105315 37.132454 329.575375 37.132454 
z
" style="fill:#db57c0;stroke:#000000;stroke-width:0.886227;"/>
   </g>
   <g id="patch_5">
    <path d="M 254.791375 21.5 
L 363.031375 21.5 
L 363.031375 7.2 
L 254.791375 7.2 
z
" style="fill:#cccccc;stroke:#7f7f7f;stroke-linejoin:miter;"/>
   </g>
   <g id="text_19">
    <!-- precision -->
    <g style="fill:#1a1a1a;" transform="translate(288.966313 16.77825)scale(0.088 -0.088)">
     <use xlink:href="#DejaVuSans-112"/>
     <use x="63.476562" xlink:href="#DejaVuSans-114"/>
     <use x="104.558594" xlink:href="#DejaVuSans-101"/>
     <use x="166.082031" xlink:href="#DejaVuSans-99"/>
     <use x="221.0625" xlink:href="#DejaVuSans-105"/>
     <use x="248.845703" xlink:href="#DejaVuSans-115"/>
     <use x="300.945312" xlink:href="#DejaVuSans-105"/>
     <use x="328.728516" xlink:href="#DejaVuSans-111"/>
     <use x="389.910156" xlink:href="#DejaVuSans-110"/>
    </g>
   </g>
  </g>
  <g id="axes_3">
   <g id="patch_6">
    <path d="M 368.071375 187.82 
L 476.311375 187.82 
L 476.311375 21.5 
L 368.071375 21.5 
z
" style="fill:#ffffff;stroke:#7f7f7f;stroke-linejoin:miter;"/>
   </g>
   <g id="matplotlib.axis_5">
    <g id="xtick_19">
     <g id="line2d_58">
      <path clip-path="url(#pf98ddf5a1d)" d="M 372.991375 187.82 
L 372.991375 21.5 
" style="fill:none;stroke:#e5e5e5;stroke-linecap:square;stroke-width:0.8;"/>
     </g>
     <g id="line2d_59">
      <path d="M 372.991375 187.82 
" style="fill:none;stroke:#000000;stroke-linecap:square;stroke-width:1.5;"/>
      <g>
       <use style="stroke:#000000;" x="372.991375" xlink:href="#m4efe237ee4" y="187.82"/>
      </g>
     </g>
     <g id="text_20">
      <!-- 0 -->
      <g style="fill:#4d4d4d;" transform="translate(370.191875 199.456625)scale(0.088 -0.088)">
       <use xlink:href="#DejaVuSans-48"/>
      </g>
     </g>
    </g>
    <g id="xtick_20">
     <g id="line2d_60">
      <path clip-path="url(#pf98ddf5a1d)" d="M 397.591375 187.82 
L 397.591375 21.5 
" style="fill:none;stroke:#e5e5e5;stroke-linecap:square;stroke-width:0.8;"/>
     </g>
     <g id="line2d_61">
      <path d="M 397.591375 187.82 
" style="fill:none;stroke:#000000;stroke-linecap:square;stroke-width:1.5;"/>
      <g>
       <use style="stroke:#000000;" x="397.591375" xlink:href="#m4efe237ee4" y="187.82"/>
      </g>
     </g>
     <g id="text_21">
      <!-- 0.25 -->
      <g style="fill:#4d4d4d;" transform="translate(387.7945 199.456625)scale(0.088 -0.088)">
       <use xlink:href="#DejaVuSans-48"/>
       <use x="63.623047" xlink:href="#DejaVuSans-46"/>
       <use x="95.410156" xlink:href="#DejaVuSans-50"/>
       <use x="159.033203" xlink:href="#DejaVuSans-53"/>
      </g>
     </g>
    </g>
    <g id="xtick_21">
     <g id="line2d_62">
      <path clip-path="url(#pf98ddf5a1d)" d="M 422.191375 187.82 
L 422.191375 21.5 
" style="fill:none;stroke:#e5e5e5;stroke-linecap:square;stroke-width:0.8;"/>
     </g>
     <g id="line2d_63">
      <path d="M 422.191375 187.82 
" style="fill:none;stroke:#000000;stroke-linecap:square;stroke-width:1.5;"/>
      <g>
       <use style="stroke:#000000;" x="422.191375" xlink:href="#m4efe237ee4" y="187.82"/>
      </g>
     </g>
     <g id="text_22">
      <!-- 0.50 -->
      <g style="fill:#4d4d4d;" transform="translate(412.3945 199.456625)scale(0.088 -0.088)">
       <use xlink:href="#DejaVuSans-48"/>
       <use x="63.623047" xlink:href="#DejaVuSans-46"/>
       <use x="95.410156" xlink:href="#DejaVuSans-53"/>
       <use x="159.033203" xlink:href="#DejaVuSans-48"/>
      </g>
     </g>
    </g>
    <g id="xtick_22">
     <g id="line2d_64">
      <path clip-path="url(#pf98ddf5a1d)" d="M 446.791375 187.82 
L 446.791375 21.5 
" style="fill:none;stroke:#e5e5e5;stroke-linecap:square;stroke-width:0.8;"/>
     </g>
     <g id="line2d_65">
      <path d="M 446.791375 187.82 
" style="fill:none;stroke:#000000;stroke-linecap:square;stroke-width:1.5;"/>
      <g>
       <use style="stroke:#000000;" x="446.791375" xlink:href="#m4efe237ee4" y="187.82"/>
      </g>
     </g>
     <g id="text_23">
      <!-- 0.75 -->
      <g style="fill:#4d4d4d;" transform="translate(436.9945 199.456625)scale(0.088 -0.088)">
       <use xlink:href="#DejaVuSans-48"/>
       <use x="63.623047" xlink:href="#DejaVuSans-46"/>
       <use x="95.410156" xlink:href="#DejaVuSans-55"/>
       <use x="159.033203" xlink:href="#DejaVuSans-53"/>
      </g>
     </g>
    </g>
    <g id="xtick_23">
     <g id="line2d_66">
      <path clip-path="url(#pf98ddf5a1d)" d="M 471.391375 187.82 
L 471.391375 21.5 
" style="fill:none;stroke:#e5e5e5;stroke-linecap:square;stroke-width:0.8;"/>
     </g>
     <g id="line2d_67">
      <path d="M 471.391375 187.82 
" style="fill:none;stroke:#000000;stroke-linecap:square;stroke-width:1.5;"/>
      <g>
       <use style="stroke:#000000;" x="471.391375" xlink:href="#m4efe237ee4" y="187.82"/>
      </g>
     </g>
     <g id="text_24">
      <!-- 1 -->
      <g style="fill:#4d4d4d;" transform="translate(468.591875 199.456625)scale(0.088 -0.088)">
       <use xlink:href="#DejaVuSans-49"/>
      </g>
     </g>
    </g>
    <g id="xtick_24">
     <g id="line2d_68">
      <path clip-path="url(#pf98ddf5a1d)" d="M 385.291375 187.82 
L 385.291375 21.5 
" style="fill:none;stroke:#fafafa;stroke-linecap:square;"/>
     </g>
     <g id="line2d_69">
      <path d="M 385.291375 187.82 
" style="fill:none;stroke:#000000;stroke-linecap:square;stroke-width:1.5;"/>
      <g>
       <use style="stroke:#000000;" x="385.291375" xlink:href="#me266ea3466" y="187.82"/>
      </g>
     </g>
    </g>
    <g id="xtick_25">
     <g id="line2d_70">
      <path clip-path="url(#pf98ddf5a1d)" d="M 409.891375 187.82 
L 409.891375 21.5 
" style="fill:none;stroke:#fafafa;stroke-linecap:square;"/>
     </g>
     <g id="line2d_71">
      <path d="M 409.891375 187.82 
" style="fill:none;stroke:#000000;stroke-linecap:square;stroke-width:1.5;"/>
      <g>
       <use style="stroke:#000000;" x="409.891375" xlink:href="#me266ea3466" y="187.82"/>
      </g>
     </g>
    </g>
    <g id="xtick_26">
     <g id="line2d_72">
      <path clip-path="url(#pf98ddf5a1d)" d="M 434.491375 187.82 
L 434.491375 21.5 
" style="fill:none;stroke:#fafafa;stroke-linecap:square;"/>
     </g>
     <g id="line2d_73">
      <path d="M 434.491375 187.82 
" style="fill:none;stroke:#000000;stroke-linecap:square;stroke-width:1.5;"/>
      <g>
       <use style="stroke:#000000;" x="434.491375" xlink:href="#me266ea3466" y="187.82"/>
      </g>
     </g>
    </g>
    <g id="xtick_27">
     <g id="line2d_74">
      <path clip-path="url(#pf98ddf5a1d)" d="M 459.091375 187.82 
L 459.091375 21.5 
" style="fill:none;stroke:#fafafa;stroke-linecap:square;"/>
     </g>
     <g id="line2d_75">
      <path d="M 459.091375 187.82 
" style="fill:none;stroke:#000000;stroke-linecap:square;stroke-width:1.5;"/>
      <g>
       <use style="stroke:#000000;" x="459.091375" xlink:href="#me266ea3466" y="187.82"/>
      </g>
     </g>
    </g>
   </g>
   <g id="matplotlib.axis_6">
    <g id="ytick_15">
     <g id="line2d_76">
      <path clip-path="url(#pf98ddf5a1d)" d="M 368.071375 173.96 
L 476.311375 173.96 
" style="fill:none;stroke:#e5e5e5;stroke-linecap:square;stroke-width:0.8;"/>
     </g>
    </g>
    <g id="ytick_16">
     <g id="line2d_77">
      <path clip-path="url(#pf98ddf5a1d)" d="M 368.071375 150.86 
L 476.311375 150.86 
" style="fill:none;stroke:#e5e5e5;stroke-linecap:square;stroke-width:0.8;"/>
     </g>
    </g>
    <g id="ytick_17">
     <g id="line2d_78">
      <path clip-path="url(#pf98ddf5a1d)" d="M 368.071375 127.76 
L 476.311375 127.76 
" style="fill:none;stroke:#e5e5e5;stroke-linecap:square;stroke-width:0.8;"/>
     </g>
    </g>
    <g id="ytick_18">
     <g id="line2d_79">
      <path clip-path="url(#pf98ddf5a1d)" d="M 368.071375 104.66 
L 476.311375 104.66 
" style="fill:none;stroke:#e5e5e5;stroke-linecap:square;stroke-width:0.8;"/>
     </g>
    </g>
    <g id="ytick_19">
     <g id="line2d_80">
      <path clip-path="url(#pf98ddf5a1d)" d="M 368.071375 81.56 
L 476.311375 81.56 
" style="fill:none;stroke:#e5e5e5;stroke-linecap:square;stroke-width:0.8;"/>
     </g>
    </g>
    <g id="ytick_20">
     <g id="line2d_81">
      <path clip-path="url(#pf98ddf5a1d)" d="M 368.071375 58.46 
L 476.311375 58.46 
" style="fill:none;stroke:#e5e5e5;stroke-linecap:square;stroke-width:0.8;"/>
     </g>
    </g>
    <g id="ytick_21">
     <g id="line2d_82">
      <path clip-path="url(#pf98ddf5a1d)" d="M 368.071375 35.36 
L 476.311375 35.36 
" style="fill:none;stroke:#e5e5e5;stroke-linecap:square;stroke-width:0.8;"/>
     </g>
    </g>
   </g>
   <g id="PathCollection_3">
    <path clip-path="url(#pf98ddf5a1d)" d="M 416.287375 175.732454 
C 416.757435 175.732454 417.208306 175.545697 417.540689 175.213314 
C 417.873072 174.880931 418.059829 174.43006 418.059829 173.96 
C 418.059829 173.48994 417.873072 173.039069 417.540689 172.706686 
C 417.208306 172.374303 416.757435 172.187546 416.287375 172.187546 
C 415.817315 172.187546 415.366444 172.374303 415.034061 172.706686 
C 414.701678 173.039069 414.514921 173.48994 414.514921 173.96 
C 414.514921 174.43006 414.701678 174.880931 415.034061 175.213314 
C 415.366444 175.545697 415.817315 175.732454 416.287375 175.732454 
z
" style="fill:#db5f57;stroke:#000000;stroke-width:0.886227;"/>
    <path clip-path="url(#pf98ddf5a1d)" d="M 436.951375 152.632454 
C 437.421435 152.632454 437.872306 152.445697 438.204689 152.113314 
C 438.537072 151.780931 438.723829 151.33006 438.723829 150.86 
C 438.723829 150.38994 438.537072 149.939069 438.204689 149.606686 
C 437.872306 149.274303 437.421435 149.087546 436.951375 149.087546 
C 436.481315 149.087546 436.030444 149.274303 435.698061 149.606686 
C 435.365678 149.939069 435.178921 150.38994 435.178921 150.86 
C 435.178921 151.33006 435.365678 151.780931 435.698061 152.113314 
C 436.030444 152.445697 436.481315 152.632454 436.951375 152.632454 
z
" style="fill:#dbd057;stroke:#000000;stroke-width:0.886227;"/>
    <path clip-path="url(#pf98ddf5a1d)" d="M 464.503375 129.532454 
C 464.973435 129.532454 465.424306 129.345697 465.756689 129.013314 
C 466.089072 128.680931 466.275829 128.23006 466.275829 127.76 
C 466.275829 127.28994 466.089072 126.839069 465.756689 126.506686 
C 465.424306 126.174303 464.973435 125.987546 464.503375 125.987546 
C 464.033315 125.987546 463.582444 126.174303 463.250061 126.506686 
C 462.917678 126.839069 462.730921 127.28994 462.730921 127.76 
C 462.730921 128.23006 462.917678 128.680931 463.250061 129.013314 
C 463.582444 129.345697 464.033315 129.532454 464.503375 129.532454 
z
" style="fill:#75db57;stroke:#000000;stroke-width:0.886227;"/>
    <path clip-path="url(#pf98ddf5a1d)" d="M 459.583375 106.432454 
C 460.053435 106.432454 460.504306 106.245697 460.836689 105.913314 
C 461.169072 105.580931 461.355829 105.13006 461.355829 104.66 
C 461.355829 104.18994 461.169072 103.739069 460.836689 103.406686 
C 460.504306 103.074303 460.053435 102.887546 459.583375 102.887546 
C 459.113315 102.887546 458.662444 103.074303 458.330061 103.406686 
C 457.997678 103.739069 457.810921 104.18994 457.810921 104.66 
C 457.810921 105.13006 457.997678 105.580931 458.330061 105.913314 
C 458.662444 106.245697 459.113315 106.432454 459.583375 106.432454 
z
" style="fill:#57dbaa;stroke:#000000;stroke-width:0.886227;"/>
    <path clip-path="url(#pf98ddf5a1d)" d="M 444.823375 83.332454 
C 445.293435 83.332454 445.744306 83.145697 446.076689 82.813314 
C 446.409072 82.480931 446.595829 82.03006 446.595829 81.56 
C 446.595829 81.08994 446.409072 80.639069 446.076689 80.306686 
C 445.744306 79.974303 445.293435 79.787546 444.823375 79.787546 
C 444.353315 79.787546 443.902444 79.974303 443.570061 80.306686 
C 443.237678 80.639069 443.050921 81.08994 443.050921 81.56 
C 443.050921 82.03006 443.237678 82.480931 443.570061 82.813314 
C 443.902444 83.145697 444.353315 83.332454 444.823375 83.332454 
z
" style="fill:#579bdb;stroke:#000000;stroke-width:0.886227;"/>
    <path clip-path="url(#pf98ddf5a1d)" d="M 444.823375 60.232454 
C 445.293435 60.232454 445.744306 60.045697 446.076689 59.713314 
C 446.409072 59.380931 446.595829 58.93006 446.595829 58.46 
C 446.595829 57.98994 446.409072 57.539069 446.076689 57.206686 
C 445.744306 56.874303 445.293435 56.687546 444.823375 56.687546 
C 444.353315 56.687546 443.902444 56.874303 443.570061 57.206686 
C 443.237678 57.539069 443.050921 57.98994 443.050921 58.46 
C 443.050921 58.93006 443.237678 59.380931 443.570061 59.713314 
C 443.902444 60.045697 444.353315 60.232454 444.823375 60.232454 
z
" style="fill:#8557db;stroke:#000000;stroke-width:0.886227;"/>
    <path clip-path="url(#pf98ddf5a1d)" d="M 444.823375 37.132454 
C 445.293435 37.132454 445.744306 36.945697 446.076689 36.613314 
C 446.409072 36.280931 446.595829 35.83006 446.595829 35.36 
C 446.595829 34.88994 446.409072 34.439069 446.076689 34.106686 
C 445.744306 33.774303 445.293435 33.587546 444.823375 33.587546 
C 444.353315 33.587546 443.902444 33.774303 443.570061 34.106686 
C 443.237678 34.439069 443.050921 34.88994 443.050921 35.36 
C 443.050921 35.83006 443.237678 36.280931 443.570061 36.613314 
C 443.902444 36.945697 444.353315 37.132454 444.823375 37.132454 
z
" style="fill:#db57c0;stroke:#000000;stroke-width:0.886227;"/>
   </g>
   <g id="patch_7">
    <path d="M 368.071375 21.5 
L 476.311375 21.5 
L 476.311375 7.2 
L 368.071375 7.2 
z
" style="fill:#cccccc;stroke:#7f7f7f;stroke-linejoin:miter;"/>
   </g>
   <g id="text_25">
    <!-- recall -->
    <g style="fill:#1a1a1a;" transform="translate(410.116125 16.77825)scale(0.088 -0.088)">
     <use xlink:href="#DejaVuSans-114"/>
     <use x="41.082031" xlink:href="#DejaVuSans-101"/>
     <use x="102.605469" xlink:href="#DejaVuSans-99"/>
     <use x="157.585938" xlink:href="#DejaVuSans-97"/>
     <use x="218.865234" xlink:href="#DejaVuSans-108"/>
     <use x="246.648438" xlink:href="#DejaVuSans-108"/>
    </g>
   </g>
  </g>
 </g>
 <defs>
  <clipPath id="pf399dee2a6">
   <rect height="166.32" width="108.24" x="141.511375" y="21.5"/>
  </clipPath>
  <clipPath id="p9fb16747a0">
   <rect height="166.32" width="108.24" x="254.791375" y="21.5"/>
  </clipPath>
  <clipPath id="pf98ddf5a1d">
   <rect height="166.32" width="108.24" x="368.071375" y="21.5"/>
  </clipPath>
 </defs>
</svg>
